<svg width="909" height="909" viewBox="0 0 909 909" fill="none" xmlns="http://www.w3.org/2000/svg">
<path d="M0 203C0 90.8862 90.8862 0 203 0H706C818.114 0 909 90.8862 909 203V706C909 818.114 818.114 909 706 909H203C90.8862 909 0 818.114 0 706V203Z" fill="#262626"/>
<path fill-rule="evenodd" clip-rule="evenodd" d="M706 91H203C141.144 91 91 141.144 91 203V706C91 767.856 141.144 818 203 818H706C767.856 818 818 767.856 818 706V203C818 141.144 767.856 91 706 91ZM203 0C90.8862 0 0 90.8862 0 203V706C0 818.114 90.8862 909 203 909H706C818.114 909 909 818.114 909 706V203C909 90.8862 818.114 0 706 0H203Z" fill="#010200"/>
<path fill-rule="evenodd" clip-rule="evenodd" d="M706 26H203C105.246 26 26 105.246 26 203V706C26 803.754 105.246 883 203 883H706C803.754 883 883 803.754 883 706V203C883 105.246 803.754 26 706 26ZM203 0C90.8862 0 0 90.8862 0 203V706C0 818.114 90.8862 909 203 909H706C818.114 909 909 818.114 909 706V203C909 90.8862 818.114 0 706 0H203Z" fill="url(#paint0_linear_509_4136)"/>
<path fill-rule="evenodd" clip-rule="evenodd" d="M167 190L250.755 231.5L167 273V306L278 245V218L167 157V190ZM443 325H315V351H443V325Z" fill="white"/>
<defs>
<linearGradient id="paint0_linear_509_4136" x1="454.5" y1="0" x2="454.5" y2="909" gradientUnits="userSpaceOnUse">
<stop stop-color="#D2E7F0"/>
<stop offset="1" stop-color="#777574"/>
</linearGradient>
</defs>
</svg>
