<svg width="750" height="327" viewBox="0 0 750 327" fill="none" xmlns="http://www.w3.org/2000/svg">
<rect width="750" height="327" fill="white"/>
<path d="M47.8828 156.844C47.8828 158.589 47.6354 160.112 47.1406 161.414C46.6589 162.716 45.9883 163.797 45.1289 164.656C44.2695 165.516 43.2539 166.16 42.082 166.59C40.9102 167.02 39.6406 167.234 38.2734 167.234C37.6484 167.234 37.0234 167.202 36.3984 167.137C35.7865 167.072 35.1615 166.961 34.5234 166.805V175.008H31.125V147.391H34.1523L34.3672 150.672C35.3438 149.331 36.3854 148.393 37.4922 147.859C38.599 147.312 39.7969 147.039 41.0859 147.039C42.2057 147.039 43.1888 147.273 44.0352 147.742C44.8815 148.211 45.5911 148.875 46.1641 149.734C46.737 150.581 47.1667 151.609 47.4531 152.82C47.7396 154.018 47.8828 155.359 47.8828 156.844ZM44.4062 157C44.4062 155.971 44.3281 155.027 44.1719 154.168C44.0286 153.309 43.7943 152.573 43.4688 151.961C43.1432 151.349 42.7266 150.874 42.2188 150.535C41.7109 150.184 41.1055 150.008 40.4023 150.008C39.9727 150.008 39.5365 150.079 39.0938 150.223C38.651 150.353 38.1888 150.581 37.707 150.906C37.2383 151.219 36.737 151.642 36.2031 152.176C35.6823 152.697 35.1224 153.348 34.5234 154.129V163.641C35.1484 163.901 35.806 164.109 36.4961 164.266C37.1862 164.409 37.8633 164.48 38.5273 164.48C40.3633 164.48 41.8021 163.862 42.8438 162.625C43.8854 161.375 44.4062 159.5 44.4062 157Z" fill="#438443"/>
<path d="M88.5039 175.008H87.0586C84.5456 175.008 82.6771 174.415 81.4531 173.23C80.2292 172.059 79.6172 170.275 79.6172 167.879V161.16C79.6172 160.522 79.5456 159.956 79.4023 159.461C79.2591 158.953 79.0052 158.53 78.6406 158.191C78.2891 157.84 77.8138 157.573 77.2148 157.391C76.6289 157.208 75.8867 157.117 74.9883 157.117H74.1484V154.402H74.9883C75.9388 154.402 76.7135 154.324 77.3125 154.168C77.9115 154.012 78.3802 153.777 78.7188 153.465C79.0573 153.139 79.2917 152.729 79.4219 152.234C79.5521 151.74 79.6172 151.154 79.6172 150.477V145.848C79.6172 144.754 79.7474 143.771 80.0078 142.898C80.2682 142.013 80.6914 141.264 81.2773 140.652C81.8763 140.027 82.6445 139.552 83.582 139.227C84.5326 138.888 85.6914 138.719 87.0586 138.719H88.5039V141.453H87.3516C84.3307 141.453 82.8203 142.918 82.8203 145.848V150.398C82.8203 153.576 81.4466 155.366 78.6992 155.77C81.4727 156.043 82.8594 157.827 82.8594 161.121V167.801C82.8594 170.783 84.3568 172.273 87.3516 172.273H88.5039V175.008ZM296.902 147.039C297.306 147.039 297.69 147.124 298.055 147.293C298.419 147.449 298.738 147.664 299.012 147.938C299.285 148.211 299.5 148.53 299.656 148.895C299.826 149.259 299.91 149.643 299.91 150.047C299.91 150.464 299.826 150.854 299.656 151.219C299.5 151.57 299.285 151.883 299.012 152.156C298.738 152.43 298.419 152.645 298.055 152.801C297.69 152.957 297.306 153.035 296.902 153.035C296.486 153.035 296.095 152.957 295.73 152.801C295.379 152.645 295.066 152.43 294.793 152.156C294.52 151.883 294.305 151.57 294.148 151.219C293.992 150.854 293.914 150.464 293.914 150.047C293.914 149.643 293.992 149.259 294.148 148.895C294.305 148.53 294.52 148.211 294.793 147.938C295.066 147.664 295.379 147.449 295.73 147.293C296.095 147.124 296.486 147.039 296.902 147.039ZM296.902 161.355C297.306 161.355 297.69 161.44 298.055 161.609C298.419 161.766 298.738 161.98 299.012 162.254C299.285 162.527 299.5 162.846 299.656 163.211C299.826 163.576 299.91 163.96 299.91 164.363C299.91 164.78 299.826 165.171 299.656 165.535C299.5 165.887 299.285 166.199 299.012 166.473C298.738 166.746 298.419 166.961 298.055 167.117C297.69 167.273 297.306 167.352 296.902 167.352C296.486 167.352 296.095 167.273 295.73 167.117C295.379 166.961 295.066 166.746 294.793 166.473C294.52 166.199 294.305 165.887 294.148 165.535C293.992 165.171 293.914 164.78 293.914 164.363C293.914 163.96 293.992 163.576 294.148 163.211C294.305 162.846 294.52 162.527 294.793 162.254C295.066 161.98 295.379 161.766 295.73 161.609C296.095 161.44 296.486 161.355 296.902 161.355ZM576.301 147.039C576.704 147.039 577.089 147.124 577.453 147.293C577.818 147.449 578.137 147.664 578.41 147.938C578.684 148.211 578.898 148.53 579.055 148.895C579.224 149.259 579.309 149.643 579.309 150.047C579.309 150.464 579.224 150.854 579.055 151.219C578.898 151.57 578.684 151.883 578.41 152.156C578.137 152.43 577.818 152.645 577.453 152.801C577.089 152.957 576.704 153.035 576.301 153.035C575.884 153.035 575.493 152.957 575.129 152.801C574.777 152.645 574.465 152.43 574.191 152.156C573.918 151.883 573.703 151.57 573.547 151.219C573.391 150.854 573.312 150.464 573.312 150.047C573.312 149.643 573.391 149.259 573.547 148.895C573.703 148.53 573.918 148.211 574.191 147.938C574.465 147.664 574.777 147.449 575.129 147.293C575.493 147.124 575.884 147.039 576.301 147.039ZM576.301 161.355C576.704 161.355 577.089 161.44 577.453 161.609C577.818 161.766 578.137 161.98 578.41 162.254C578.684 162.527 578.898 162.846 579.055 163.211C579.224 163.576 579.309 163.96 579.309 164.363C579.309 164.78 579.224 165.171 579.055 165.535C578.898 165.887 578.684 166.199 578.41 166.473C578.137 166.746 577.818 166.961 577.453 167.117C577.089 167.273 576.704 167.352 576.301 167.352C575.884 167.352 575.493 167.273 575.129 167.117C574.777 166.961 574.465 166.746 574.191 166.473C573.918 166.199 573.703 165.887 573.547 165.535C573.391 165.171 573.312 164.78 573.312 164.363C573.312 163.96 573.391 163.576 573.547 163.211C573.703 162.846 573.918 162.527 574.191 162.254C574.465 161.98 574.777 161.766 575.129 161.609C575.493 161.44 575.884 161.355 576.301 161.355ZM699.141 171.004C699.805 171.03 700.449 170.971 701.074 170.828C701.699 170.685 702.246 170.47 702.715 170.184C703.197 169.91 703.581 169.565 703.867 169.148C704.154 168.732 704.297 168.257 704.297 167.723C704.297 167.176 704.199 166.733 704.004 166.395C703.822 166.056 703.613 165.743 703.379 165.457C703.145 165.171 702.93 164.865 702.734 164.539C702.552 164.214 702.461 163.777 702.461 163.23C702.461 162.957 702.513 162.671 702.617 162.371C702.721 162.072 702.878 161.798 703.086 161.551C703.307 161.303 703.581 161.102 703.906 160.945C704.245 160.789 704.642 160.711 705.098 160.711C705.553 160.711 705.99 160.809 706.406 161.004C706.836 161.186 707.207 161.473 707.52 161.863C707.845 162.254 708.099 162.742 708.281 163.328C708.477 163.914 708.574 164.604 708.574 165.398C708.574 166.479 708.372 167.514 707.969 168.504C707.578 169.507 706.986 170.392 706.191 171.16C705.41 171.928 704.427 172.54 703.242 172.996C702.07 173.452 700.703 173.68 699.141 173.68V171.004ZM705.254 147.039C705.658 147.039 706.042 147.124 706.406 147.293C706.771 147.449 707.09 147.664 707.363 147.938C707.637 148.211 707.852 148.53 708.008 148.895C708.177 149.259 708.262 149.643 708.262 150.047C708.262 150.464 708.177 150.854 708.008 151.219C707.852 151.57 707.637 151.883 707.363 152.156C707.09 152.43 706.771 152.645 706.406 152.801C706.042 152.957 705.658 153.035 705.254 153.035C704.837 153.035 704.447 152.957 704.082 152.801C703.73 152.645 703.418 152.43 703.145 152.156C702.871 151.883 702.656 151.57 702.5 151.219C702.344 150.854 702.266 150.464 702.266 150.047C702.266 149.643 702.344 149.259 702.5 148.895C702.656 148.53 702.871 148.211 703.145 147.938C703.418 147.664 703.73 147.449 704.082 147.293C704.447 147.124 704.837 147.039 705.254 147.039ZM720.223 138.719H721.668C724.181 138.719 726.049 139.311 727.273 140.496C728.497 141.668 729.109 143.452 729.109 145.848V150.359C729.109 150.997 729.181 151.57 729.324 152.078C729.467 152.573 729.715 152.996 730.066 153.348C730.431 153.686 730.913 153.947 731.512 154.129C732.111 154.311 732.859 154.402 733.758 154.402H734.598V157.117H733.758C732.807 157.117 732.026 157.195 731.414 157.352C730.815 157.508 730.346 157.749 730.008 158.074C729.669 158.387 729.435 158.79 729.305 159.285C729.174 159.78 729.109 160.366 729.109 161.043V167.879C729.109 168.973 728.979 169.956 728.719 170.828C728.458 171.714 728.035 172.462 727.449 173.074C726.863 173.699 726.095 174.174 725.145 174.5C724.194 174.839 723.035 175.008 721.668 175.008H720.223V172.273H721.395C724.402 172.273 725.906 170.809 725.906 167.879V161.121C725.906 157.944 727.28 156.16 730.027 155.77C727.254 155.47 725.867 153.68 725.867 150.398V145.926C725.867 142.944 724.376 141.453 721.395 141.453H720.223V138.719Z" fill="#111111"/>
<path d="M113.004 142.566C111.22 142.189 109.684 142 108.395 142C105.335 142 103.805 143.602 103.805 146.805V150.242H112.398V153.074H103.805V167H100.348V153.074H94.0391V150.242H100.348V147C100.348 141.779 103.069 139.168 108.512 139.168C109.866 139.168 111.363 139.324 113.004 139.637V142.566ZM134.164 157.039C134.164 158.562 133.949 159.962 133.52 161.238C133.09 162.501 132.471 163.589 131.664 164.5C130.857 165.398 129.874 166.102 128.715 166.609C127.556 167.104 126.241 167.352 124.77 167.352C123.363 167.352 122.1 167.137 120.98 166.707C119.874 166.264 118.93 165.62 118.148 164.773C117.38 163.927 116.788 162.879 116.371 161.629C115.967 160.379 115.766 158.94 115.766 157.312C115.766 155.789 115.98 154.402 116.41 153.152C116.84 151.889 117.458 150.809 118.266 149.91C119.073 148.999 120.056 148.296 121.215 147.801C122.374 147.293 123.689 147.039 125.16 147.039C126.566 147.039 127.823 147.26 128.93 147.703C130.049 148.133 130.993 148.771 131.762 149.617C132.543 150.451 133.135 151.492 133.539 152.742C133.956 153.992 134.164 155.424 134.164 157.039ZM130.688 157.195C130.688 155.984 130.551 154.93 130.277 154.031C130.017 153.12 129.639 152.365 129.145 151.766C128.65 151.154 128.044 150.698 127.328 150.398C126.625 150.086 125.837 149.93 124.965 149.93C123.949 149.93 123.077 150.132 122.348 150.535C121.632 150.926 121.039 151.453 120.57 152.117C120.115 152.781 119.776 153.556 119.555 154.441C119.346 155.314 119.242 156.232 119.242 157.195C119.242 158.406 119.372 159.467 119.633 160.379C119.906 161.29 120.29 162.052 120.785 162.664C121.28 163.263 121.879 163.719 122.582 164.031C123.285 164.331 124.079 164.48 124.965 164.48C125.98 164.48 126.846 164.285 127.562 163.895C128.292 163.491 128.884 162.957 129.34 162.293C129.809 161.629 130.147 160.861 130.355 159.988C130.577 159.103 130.688 158.172 130.688 157.195ZM138.586 147.391H141.613L141.75 150.555C142.323 149.878 142.876 149.318 143.41 148.875C143.944 148.419 144.465 148.055 144.973 147.781C145.493 147.508 146.021 147.319 146.555 147.215C147.089 147.098 147.642 147.039 148.215 147.039C150.233 147.039 151.757 147.638 152.785 148.836C153.827 150.021 154.348 151.811 154.348 154.207V167H150.949V154.48C150.949 152.944 150.663 151.811 150.09 151.082C149.517 150.34 148.664 149.969 147.531 149.969C147.115 149.969 146.704 150.034 146.301 150.164C145.91 150.281 145.5 150.496 145.07 150.809C144.641 151.108 144.172 151.518 143.664 152.039C143.169 152.56 142.609 153.211 141.984 153.992V167H138.586V147.391ZM175.879 166.727C175.111 166.922 174.316 167.059 173.496 167.137C172.676 167.228 171.842 167.273 170.996 167.273C168.535 167.273 166.699 166.72 165.488 165.613C164.277 164.493 163.672 162.781 163.672 160.477V150.242H158.184V147.391H163.672V142L167.07 141.121V147.391H175.879V150.242H167.07V160.203C167.07 161.609 167.441 162.664 168.184 163.367C168.939 164.057 170.046 164.402 171.504 164.402C172.129 164.402 172.812 164.357 173.555 164.266C174.297 164.161 175.072 164.005 175.879 163.797V166.727ZM195.281 157.957H183.602V154.754H195.281V157.957ZM218.59 161.648C218.59 162.339 218.473 162.957 218.238 163.504C218.004 164.051 217.685 164.539 217.281 164.969C216.878 165.385 216.409 165.743 215.875 166.043C215.341 166.342 214.768 166.59 214.156 166.785C213.557 166.98 212.939 167.124 212.301 167.215C211.663 167.306 211.038 167.352 210.426 167.352C209.098 167.352 207.874 167.293 206.754 167.176C205.647 167.059 204.56 166.87 203.492 166.609V163.484C204.638 163.81 205.777 164.057 206.91 164.227C208.043 164.396 209.169 164.48 210.289 164.48C211.917 164.48 213.121 164.259 213.902 163.816C214.684 163.374 215.074 162.742 215.074 161.922C215.074 161.57 215.009 161.258 214.879 160.984C214.762 160.698 214.54 160.431 214.215 160.184C213.889 159.923 213.382 159.656 212.691 159.383C212.014 159.109 211.083 158.797 209.898 158.445C209.013 158.185 208.193 157.892 207.438 157.566C206.695 157.228 206.051 156.831 205.504 156.375C204.957 155.919 204.527 155.385 204.215 154.773C203.902 154.161 203.746 153.439 203.746 152.605C203.746 152.059 203.87 151.46 204.117 150.809C204.378 150.158 204.814 149.552 205.426 148.992C206.038 148.432 206.865 147.97 207.906 147.605C208.948 147.228 210.25 147.039 211.812 147.039C212.581 147.039 213.434 147.085 214.371 147.176C215.309 147.254 216.285 147.397 217.301 147.605V150.633C216.233 150.372 215.217 150.184 214.254 150.066C213.303 149.936 212.477 149.871 211.773 149.871C210.927 149.871 210.211 149.936 209.625 150.066C209.052 150.197 208.583 150.379 208.219 150.613C207.867 150.835 207.613 151.102 207.457 151.414C207.301 151.714 207.223 152.039 207.223 152.391C207.223 152.742 207.288 153.061 207.418 153.348C207.561 153.634 207.815 153.914 208.18 154.188C208.557 154.448 209.078 154.715 209.742 154.988C210.406 155.249 211.272 155.535 212.34 155.848C213.499 156.186 214.475 156.544 215.27 156.922C216.064 157.286 216.708 157.697 217.203 158.152C217.698 158.608 218.049 159.122 218.258 159.695C218.479 160.268 218.59 160.919 218.59 161.648ZM231.234 150.203H225.434V147.391H234.672V164.168H240.512V167H224.789V164.168H231.234V150.203ZM232.426 139.168C232.803 139.168 233.155 139.24 233.48 139.383C233.806 139.513 234.086 139.702 234.32 139.949C234.568 140.197 234.757 140.483 234.887 140.809C235.03 141.121 235.102 141.466 235.102 141.844C235.102 142.208 235.03 142.553 234.887 142.879C234.757 143.204 234.568 143.491 234.32 143.738C234.086 143.986 233.806 144.181 233.48 144.324C233.155 144.454 232.803 144.52 232.426 144.52C232.048 144.52 231.697 144.454 231.371 144.324C231.046 144.181 230.759 143.986 230.512 143.738C230.277 143.491 230.089 143.204 229.945 142.879C229.815 142.553 229.75 142.208 229.75 141.844C229.75 141.466 229.815 141.121 229.945 140.809C230.089 140.483 230.277 140.197 230.512 139.949C230.759 139.702 231.046 139.513 231.371 139.383C231.697 139.24 232.048 139.168 232.426 139.168ZM261.926 167H246.125V164.559L257.199 150.242H246.398V147.391H261.281V150.047L250.402 164.129H261.926V167ZM284.102 156.16C284.102 156.642 284.095 157.046 284.082 157.371C284.069 157.697 284.049 158.003 284.023 158.289H270.254C270.254 160.294 270.814 161.837 271.934 162.918C273.053 163.986 274.668 164.52 276.777 164.52C277.35 164.52 277.923 164.5 278.496 164.461C279.069 164.409 279.622 164.344 280.156 164.266C280.69 164.188 281.198 164.103 281.68 164.012C282.174 163.908 282.63 163.797 283.047 163.68V166.473C282.122 166.733 281.074 166.941 279.902 167.098C278.743 167.267 277.539 167.352 276.289 167.352C274.609 167.352 273.164 167.124 271.953 166.668C270.742 166.212 269.746 165.555 268.965 164.695C268.197 163.823 267.624 162.762 267.246 161.512C266.882 160.249 266.699 158.823 266.699 157.234C266.699 155.854 266.895 154.552 267.285 153.328C267.689 152.091 268.268 151.01 269.023 150.086C269.792 149.148 270.729 148.406 271.836 147.859C272.943 147.312 274.199 147.039 275.605 147.039C276.973 147.039 278.184 147.254 279.238 147.684C280.293 148.113 281.178 148.725 281.895 149.52C282.624 150.301 283.171 151.258 283.535 152.391C283.913 153.51 284.102 154.767 284.102 156.16ZM280.566 155.672C280.605 154.799 280.521 154.005 280.312 153.289C280.104 152.56 279.779 151.935 279.336 151.414C278.906 150.893 278.366 150.49 277.715 150.203C277.064 149.904 276.309 149.754 275.449 149.754C274.707 149.754 274.03 149.897 273.418 150.184C272.806 150.47 272.279 150.874 271.836 151.395C271.393 151.915 271.035 152.54 270.762 153.27C270.488 153.999 270.319 154.799 270.254 155.672H280.566ZM476.203 166.277C475.318 166.616 474.406 166.863 473.469 167.02C472.544 167.189 471.587 167.273 470.598 167.273C467.499 167.273 465.109 166.434 463.43 164.754C461.763 163.074 460.93 160.62 460.93 157.391C460.93 155.841 461.171 154.435 461.652 153.172C462.134 151.909 462.811 150.828 463.684 149.93C464.556 149.031 465.598 148.341 466.809 147.859C468.02 147.365 469.354 147.117 470.812 147.117C471.828 147.117 472.779 147.189 473.664 147.332C474.549 147.475 475.396 147.71 476.203 148.035V151.277C475.357 150.835 474.491 150.516 473.605 150.32C472.733 150.112 471.828 150.008 470.891 150.008C470.018 150.008 469.191 150.177 468.41 150.516C467.642 150.841 466.965 151.316 466.379 151.941C465.793 152.566 465.331 153.328 464.992 154.227C464.654 155.125 464.484 156.141 464.484 157.273C464.484 159.643 465.057 161.421 466.203 162.605C467.362 163.777 468.964 164.363 471.008 164.363C471.932 164.363 472.824 164.259 473.684 164.051C474.556 163.842 475.396 163.53 476.203 163.113V166.277ZM499.531 157.039C499.531 158.562 499.316 159.962 498.887 161.238C498.457 162.501 497.839 163.589 497.031 164.5C496.224 165.398 495.241 166.102 494.082 166.609C492.923 167.104 491.608 167.352 490.137 167.352C488.73 167.352 487.467 167.137 486.348 166.707C485.241 166.264 484.297 165.62 483.516 164.773C482.747 163.927 482.155 162.879 481.738 161.629C481.335 160.379 481.133 158.94 481.133 157.312C481.133 155.789 481.348 154.402 481.777 153.152C482.207 151.889 482.826 150.809 483.633 149.91C484.44 148.999 485.423 148.296 486.582 147.801C487.741 147.293 489.056 147.039 490.527 147.039C491.934 147.039 493.19 147.26 494.297 147.703C495.417 148.133 496.361 148.771 497.129 149.617C497.91 150.451 498.503 151.492 498.906 152.742C499.323 153.992 499.531 155.424 499.531 157.039ZM496.055 157.195C496.055 155.984 495.918 154.93 495.645 154.031C495.384 153.12 495.007 152.365 494.512 151.766C494.017 151.154 493.411 150.698 492.695 150.398C491.992 150.086 491.204 149.93 490.332 149.93C489.316 149.93 488.444 150.132 487.715 150.535C486.999 150.926 486.406 151.453 485.938 152.117C485.482 152.781 485.143 153.556 484.922 154.441C484.714 155.314 484.609 156.232 484.609 157.195C484.609 158.406 484.74 159.467 485 160.379C485.273 161.29 485.658 162.052 486.152 162.664C486.647 163.263 487.246 163.719 487.949 164.031C488.652 164.331 489.447 164.48 490.332 164.48C491.348 164.48 492.214 164.285 492.93 163.895C493.659 163.491 494.251 162.957 494.707 162.293C495.176 161.629 495.514 160.861 495.723 159.988C495.944 159.103 496.055 158.172 496.055 157.195ZM510.633 142.195H504.832V139.402H514.07V164.168H519.91V167H504.188V164.168H510.633V142.195ZM542.516 157.039C542.516 158.562 542.301 159.962 541.871 161.238C541.441 162.501 540.823 163.589 540.016 164.5C539.208 165.398 538.225 166.102 537.066 166.609C535.908 167.104 534.592 167.352 533.121 167.352C531.715 167.352 530.452 167.137 529.332 166.707C528.225 166.264 527.281 165.62 526.5 164.773C525.732 163.927 525.139 162.879 524.723 161.629C524.319 160.379 524.117 158.94 524.117 157.312C524.117 155.789 524.332 154.402 524.762 153.152C525.191 151.889 525.81 150.809 526.617 149.91C527.424 148.999 528.408 148.296 529.566 147.801C530.725 147.293 532.04 147.039 533.512 147.039C534.918 147.039 536.174 147.26 537.281 147.703C538.401 148.133 539.345 148.771 540.113 149.617C540.895 150.451 541.487 151.492 541.891 152.742C542.307 153.992 542.516 155.424 542.516 157.039ZM539.039 157.195C539.039 155.984 538.902 154.93 538.629 154.031C538.368 153.12 537.991 152.365 537.496 151.766C537.001 151.154 536.396 150.698 535.68 150.398C534.977 150.086 534.189 149.93 533.316 149.93C532.301 149.93 531.428 150.132 530.699 150.535C529.983 150.926 529.391 151.453 528.922 152.117C528.466 152.781 528.128 153.556 527.906 154.441C527.698 155.314 527.594 156.232 527.594 157.195C527.594 158.406 527.724 159.467 527.984 160.379C528.258 161.29 528.642 162.052 529.137 162.664C529.632 163.263 530.23 163.719 530.934 164.031C531.637 164.331 532.431 164.48 533.316 164.48C534.332 164.48 535.198 164.285 535.914 163.895C536.643 163.491 537.236 162.957 537.691 162.293C538.16 161.629 538.499 160.861 538.707 159.988C538.928 159.103 539.039 158.172 539.039 157.195ZM547.738 147.391H550.844L550.941 151.004C552.1 149.611 553.24 148.602 554.359 147.977C555.492 147.352 556.632 147.039 557.777 147.039C559.809 147.039 561.345 147.697 562.387 149.012C563.441 150.327 563.93 152.28 563.852 154.871H560.414C560.453 153.152 560.199 151.909 559.652 151.141C559.118 150.359 558.331 149.969 557.289 149.969C556.833 149.969 556.371 150.053 555.902 150.223C555.447 150.379 554.971 150.639 554.477 151.004C553.995 151.355 553.48 151.811 552.934 152.371C552.387 152.931 551.801 153.608 551.176 154.402V167H547.738V147.391Z" fill="#265BBE"/>
<path d="M348.363 167H332.328V163.836H338.891V145.203L332.777 148.523L331.527 145.633L339.652 141.355H342.66V163.836H348.363V167ZM370.383 158.914C370.383 160.086 370.168 161.186 369.738 162.215C369.322 163.243 368.723 164.142 367.941 164.91C367.16 165.665 366.216 166.264 365.109 166.707C364.016 167.137 362.798 167.352 361.457 167.352C360.051 167.352 358.807 167.13 357.727 166.688C356.646 166.232 355.741 165.542 355.012 164.617C354.283 163.68 353.729 162.501 353.352 161.082C352.974 159.663 352.785 157.983 352.785 156.043C352.785 154.741 352.87 153.478 353.039 152.254C353.208 151.03 353.488 149.878 353.879 148.797C354.27 147.716 354.79 146.727 355.441 145.828C356.092 144.93 356.9 144.161 357.863 143.523C358.84 142.872 359.986 142.371 361.301 142.02C362.616 141.655 364.139 141.473 365.871 141.473H368.391V144.441H365.656C364.133 144.441 362.811 144.624 361.691 144.988C360.572 145.353 359.634 145.867 358.879 146.531C358.124 147.195 357.544 147.996 357.141 148.934C356.737 149.871 356.483 150.919 356.379 152.078L356.301 152.879C357.121 152.397 358.065 152.013 359.133 151.727C360.214 151.427 361.379 151.277 362.629 151.277C363.918 151.277 365.044 151.466 366.008 151.844C366.984 152.221 367.792 152.749 368.43 153.426C369.081 154.09 369.569 154.891 369.895 155.828C370.22 156.766 370.383 157.794 370.383 158.914ZM366.828 159.129C366.828 158.348 366.73 157.645 366.535 157.02C366.353 156.382 366.06 155.848 365.656 155.418C365.253 154.975 364.738 154.637 364.113 154.402C363.501 154.155 362.766 154.031 361.906 154.031C361.411 154.031 360.91 154.077 360.402 154.168C359.895 154.259 359.393 154.389 358.898 154.559C358.417 154.715 357.954 154.897 357.512 155.105C357.069 155.314 356.665 155.535 356.301 155.77C356.301 157.449 356.418 158.855 356.652 159.988C356.887 161.108 357.232 162.007 357.688 162.684C358.156 163.361 358.729 163.842 359.406 164.129C360.083 164.415 360.865 164.559 361.75 164.559C362.492 164.559 363.169 164.441 363.781 164.207C364.406 163.96 364.94 163.602 365.383 163.133C365.839 162.664 366.19 162.098 366.438 161.434C366.698 160.757 366.828 159.988 366.828 159.129ZM391.758 156.844C391.758 158.589 391.51 160.112 391.016 161.414C390.534 162.716 389.863 163.797 389.004 164.656C388.145 165.516 387.129 166.16 385.957 166.59C384.785 167.02 383.516 167.234 382.148 167.234C381.523 167.234 380.898 167.202 380.273 167.137C379.661 167.072 379.036 166.961 378.398 166.805V175.008H375V147.391H378.027L378.242 150.672C379.219 149.331 380.26 148.393 381.367 147.859C382.474 147.312 383.672 147.039 384.961 147.039C386.081 147.039 387.064 147.273 387.91 147.742C388.757 148.211 389.466 148.875 390.039 149.734C390.612 150.581 391.042 151.609 391.328 152.82C391.615 154.018 391.758 155.359 391.758 156.844ZM388.281 157C388.281 155.971 388.203 155.027 388.047 154.168C387.904 153.309 387.669 152.573 387.344 151.961C387.018 151.349 386.602 150.874 386.094 150.535C385.586 150.184 384.98 150.008 384.277 150.008C383.848 150.008 383.411 150.079 382.969 150.223C382.526 150.353 382.064 150.581 381.582 150.906C381.113 151.219 380.612 151.642 380.078 152.176C379.557 152.697 378.997 153.348 378.398 154.129V163.641C379.023 163.901 379.681 164.109 380.371 164.266C381.061 164.409 381.738 164.48 382.402 164.48C384.238 164.48 385.677 163.862 386.719 162.625C387.76 161.375 388.281 159.5 388.281 157ZM414.168 167H409.656L404.363 159.52L399.129 167H394.734L402.332 157.156L395.086 147.391H399.441L404.598 154.93L409.656 147.391H413.855L406.492 157.234L414.168 167ZM628.172 156.844C628.172 158.471 627.944 159.93 627.488 161.219C627.046 162.495 626.408 163.582 625.574 164.48C624.754 165.366 623.751 166.049 622.566 166.531C621.382 167 620.047 167.234 618.562 167.234C617.404 167.234 616.219 167.124 615.008 166.902C613.797 166.681 612.599 166.329 611.414 165.848V139.402H614.812V147L614.656 150.633C615.633 149.318 616.674 148.393 617.781 147.859C618.901 147.312 620.099 147.039 621.375 147.039C622.495 147.039 623.478 147.273 624.324 147.742C625.171 148.211 625.88 148.875 626.453 149.734C627.026 150.581 627.456 151.609 627.742 152.82C628.029 154.018 628.172 155.359 628.172 156.844ZM624.695 157C624.695 155.971 624.617 155.027 624.461 154.168C624.318 153.309 624.083 152.573 623.758 151.961C623.432 151.349 623.016 150.874 622.508 150.535C622 150.184 621.395 150.008 620.691 150.008C620.262 150.008 619.826 150.079 619.383 150.223C618.94 150.353 618.478 150.581 617.996 150.906C617.527 151.219 617.026 151.642 616.492 152.176C615.971 152.697 615.411 153.348 614.812 154.129V163.641C615.477 163.901 616.154 164.109 616.844 164.266C617.534 164.409 618.191 164.48 618.816 164.48C619.598 164.48 620.34 164.357 621.043 164.109C621.759 163.862 622.384 163.452 622.918 162.879C623.465 162.293 623.895 161.525 624.207 160.574C624.533 159.611 624.695 158.419 624.695 157ZM639.586 142.195H633.785V139.402H643.023V164.168H648.863V167H633.141V164.168H639.586V142.195ZM670.16 167H667.113L666.996 163.836C666.41 164.513 665.85 165.079 665.316 165.535C664.796 165.978 664.275 166.336 663.754 166.609C663.233 166.883 662.706 167.072 662.172 167.176C661.651 167.293 661.098 167.352 660.512 167.352C658.493 167.352 656.97 166.759 655.941 165.574C654.913 164.389 654.398 162.599 654.398 160.203V147.391H657.797V159.93C657.797 162.938 658.93 164.441 661.195 164.441C661.612 164.441 662.016 164.383 662.406 164.266C662.81 164.135 663.227 163.921 663.656 163.621C664.099 163.309 664.568 162.892 665.062 162.371C665.57 161.85 666.137 161.193 666.762 160.398V147.391H670.16V167ZM692.453 156.16C692.453 156.642 692.447 157.046 692.434 157.371C692.421 157.697 692.401 158.003 692.375 158.289H678.605C678.605 160.294 679.165 161.837 680.285 162.918C681.405 163.986 683.02 164.52 685.129 164.52C685.702 164.52 686.275 164.5 686.848 164.461C687.421 164.409 687.974 164.344 688.508 164.266C689.042 164.188 689.549 164.103 690.031 164.012C690.526 163.908 690.982 163.797 691.398 163.68V166.473C690.474 166.733 689.426 166.941 688.254 167.098C687.095 167.267 685.891 167.352 684.641 167.352C682.961 167.352 681.516 167.124 680.305 166.668C679.094 166.212 678.098 165.555 677.316 164.695C676.548 163.823 675.975 162.762 675.598 161.512C675.233 160.249 675.051 158.823 675.051 157.234C675.051 155.854 675.246 154.552 675.637 153.328C676.04 152.091 676.62 151.01 677.375 150.086C678.143 149.148 679.081 148.406 680.188 147.859C681.294 147.312 682.551 147.039 683.957 147.039C685.324 147.039 686.535 147.254 687.59 147.684C688.645 148.113 689.53 148.725 690.246 149.52C690.975 150.301 691.522 151.258 691.887 152.391C692.264 153.51 692.453 154.767 692.453 156.16ZM688.918 155.672C688.957 154.799 688.872 154.005 688.664 153.289C688.456 152.56 688.13 151.935 687.688 151.414C687.258 150.893 686.717 150.49 686.066 150.203C685.415 149.904 684.66 149.754 683.801 149.754C683.059 149.754 682.382 149.897 681.77 150.184C681.158 150.47 680.63 150.874 680.188 151.395C679.745 151.915 679.387 152.54 679.113 153.27C678.84 153.999 678.671 154.799 678.605 155.672H688.918Z" fill="#112E5F"/>
<path d="M419.742 171.004C420.406 171.03 421.051 170.971 421.676 170.828C422.301 170.685 422.848 170.47 423.316 170.184C423.798 169.91 424.182 169.565 424.469 169.148C424.755 168.732 424.898 168.257 424.898 167.723C424.898 167.176 424.801 166.733 424.605 166.395C424.423 166.056 424.215 165.743 423.98 165.457C423.746 165.171 423.531 164.865 423.336 164.539C423.154 164.214 423.062 163.777 423.062 163.23C423.062 162.957 423.115 162.671 423.219 162.371C423.323 162.072 423.479 161.798 423.688 161.551C423.909 161.303 424.182 161.102 424.508 160.945C424.846 160.789 425.243 160.711 425.699 160.711C426.155 160.711 426.591 160.809 427.008 161.004C427.438 161.186 427.809 161.473 428.121 161.863C428.447 162.254 428.701 162.742 428.883 163.328C429.078 163.914 429.176 164.604 429.176 165.398C429.176 166.479 428.974 167.514 428.57 168.504C428.18 169.507 427.587 170.392 426.793 171.16C426.012 171.928 425.029 172.54 423.844 172.996C422.672 173.452 421.305 173.68 419.742 173.68V171.004ZM425.855 147.039C426.259 147.039 426.643 147.124 427.008 147.293C427.372 147.449 427.691 147.664 427.965 147.938C428.238 148.211 428.453 148.53 428.609 148.895C428.779 149.259 428.863 149.643 428.863 150.047C428.863 150.464 428.779 150.854 428.609 151.219C428.453 151.57 428.238 151.883 427.965 152.156C427.691 152.43 427.372 152.645 427.008 152.801C426.643 152.957 426.259 153.035 425.855 153.035C425.439 153.035 425.048 152.957 424.684 152.801C424.332 152.645 424.02 152.43 423.746 152.156C423.473 151.883 423.258 151.57 423.102 151.219C422.945 150.854 422.867 150.464 422.867 150.047C422.867 149.643 422.945 149.259 423.102 148.895C423.258 148.53 423.473 148.211 423.746 147.938C424.02 147.664 424.332 147.449 424.684 147.293C425.048 147.124 425.439 147.039 425.855 147.039Z" fill="#6C005B"/>
<path d="M329.385 220.207C329.375 222.551 330.781 224.836 333.525 225.773L332.334 227.473C330.43 226.76 329.072 225.383 328.32 223.645C327.568 225.588 326.123 227.111 324.053 227.883L322.9 226.164C325.742 225.207 327.188 222.766 327.197 220.188V218.176H329.385V220.207ZM326.104 234.387V228.781H328.311V232.629H338.135V234.387H326.104ZM332.061 222.766V220.988H335.576V217.102H337.744V230.207H335.576V222.766H332.061ZM354.529 217.102V230.031H352.361V223.605H349.168C348.719 225.676 346.893 227.082 344.646 227.082C341.98 227.082 339.979 225.217 339.979 222.629C339.979 220.021 341.98 218.195 344.646 218.195C346.961 218.195 348.826 219.65 349.207 221.828H352.361V217.102H354.529ZM342.049 222.629C342.049 224.182 343.172 225.207 344.646 225.207C346.092 225.207 347.195 224.182 347.205 222.629C347.195 221.066 346.092 220.09 344.646 220.09C343.172 220.09 342.049 221.066 342.049 222.629ZM342.947 234.387V228.723H345.115V232.629H354.979V234.387H342.947ZM372.643 227.355V229.074H365.611V234.738H363.463V229.074H356.51V227.355H372.643ZM358.463 225.52V217.785H360.611V219.953H368.502V217.785H370.689V225.52H358.463ZM360.611 223.762H368.502V221.672H360.611V223.762ZM374.545 227.238C374.545 223.781 375.463 220.91 377.279 218.449H379.623C378.227 220.275 377.133 223.957 377.143 227.238C377.133 230.51 378.227 234.182 379.623 236.008H377.279C375.463 233.547 374.545 230.676 374.545 227.238ZM385.822 233H381.018V218.859H385.9C390.119 218.859 392.668 221.506 392.678 225.91C392.668 230.334 390.119 233 385.822 233ZM383.557 230.793H385.686C388.645 230.803 390.139 229.172 390.139 225.91C390.139 222.668 388.645 221.057 385.764 221.066H383.557V230.793ZM399.014 233.215C395.82 233.215 393.857 231.086 393.857 227.766C393.857 224.484 395.85 222.258 398.877 222.258C401.475 222.258 403.721 223.889 403.721 227.609V228.391H396.318C396.357 230.197 397.422 231.271 399.033 231.262C400.127 231.271 400.859 230.803 401.182 230.168H403.623C403.174 232.004 401.475 233.215 399.014 233.215ZM396.328 226.691H401.338C401.328 225.246 400.352 224.191 398.916 224.191C397.422 224.191 396.416 225.344 396.328 226.691ZM409.783 233.215C406.619 233.215 404.705 230.949 404.705 227.746C404.705 224.494 406.678 222.258 409.783 222.258C412.352 222.258 414.158 223.762 414.334 226.047H411.951C411.756 225.031 411.014 224.26 409.803 224.25C408.26 224.26 407.225 225.549 407.225 227.688C407.225 229.875 408.24 231.174 409.803 231.184C410.906 231.174 411.727 230.529 411.951 229.387H414.334C414.148 231.623 412.449 233.215 409.783 233.215ZM418.209 218.859V233H415.709V218.859H418.209ZM419.604 230.012C419.604 227.629 421.586 226.936 423.549 226.809C424.291 226.75 425.805 226.682 426.273 226.662L426.264 225.812C426.264 224.758 425.59 224.152 424.35 224.152C423.236 224.152 422.553 224.66 422.357 225.422H419.955C420.131 223.615 421.752 222.258 424.408 222.258C426.42 222.258 428.744 223.088 428.744 225.91V233H426.361V231.535H426.283C425.814 232.434 424.828 233.215 423.158 233.215C421.137 233.215 419.604 232.111 419.604 230.012ZM422.006 229.992C422.006 230.91 422.758 231.379 423.803 231.379C425.316 231.379 426.283 230.383 426.283 229.191L426.273 228.322C425.824 228.342 424.438 228.43 423.939 228.469C422.758 228.566 422.006 229.064 422.006 229.992ZM430.588 233V222.395H433.01V224.152H433.127C433.508 222.932 434.523 222.238 435.744 222.238C436.018 222.238 436.408 222.268 436.643 222.297V224.602C436.418 224.523 435.9 224.455 435.49 224.445C434.104 224.455 433.088 225.412 433.088 226.75V233H430.588ZM436.943 230.012C436.943 227.629 438.926 226.936 440.889 226.809C441.631 226.75 443.145 226.682 443.613 226.662L443.604 225.812C443.604 224.758 442.93 224.152 441.689 224.152C440.576 224.152 439.893 224.66 439.697 225.422H437.295C437.471 223.615 439.092 222.258 441.748 222.258C443.76 222.258 446.084 223.088 446.084 225.91V233H443.701V231.535H443.623C443.154 232.434 442.168 233.215 440.498 233.215C438.477 233.215 436.943 232.111 436.943 230.012ZM439.346 229.992C439.346 230.91 440.098 231.379 441.143 231.379C442.656 231.379 443.623 230.383 443.623 229.191L443.613 228.322C443.164 228.342 441.777 228.43 441.279 228.469C440.098 228.566 439.346 229.064 439.346 229.992ZM453.221 222.395V224.309H451.131V229.816C451.131 230.832 451.639 231.037 452.264 231.047C452.557 231.057 453.045 231.027 453.357 231.008V233.039C453.064 233.088 452.586 233.146 451.951 233.137C450.076 233.146 448.631 232.219 448.65 230.227V224.309H447.127V222.395H448.65V219.855H451.131V222.395H453.221ZM454.635 233V222.395H457.135V233H454.635ZM454.459 219.523C454.459 218.781 455.113 218.176 455.904 218.176C456.695 218.176 457.35 218.781 457.35 219.523C457.35 220.275 456.695 220.881 455.904 220.891C455.113 220.881 454.459 220.275 454.459 219.523ZM463.646 233.215C460.551 233.215 458.568 231.018 458.568 227.746C458.568 224.445 460.551 222.258 463.646 222.258C466.752 222.258 468.734 224.445 468.725 227.746C468.734 231.018 466.752 233.215 463.646 233.215ZM461.088 227.727C461.088 229.67 461.938 231.223 463.666 231.223C465.365 231.223 466.215 229.67 466.205 227.727C466.215 225.783 465.365 224.221 463.666 224.23C461.938 224.221 461.088 225.783 461.088 227.727ZM472.658 226.789V233H470.158V222.395H472.541V224.191H472.678C473.156 223.01 474.24 222.258 475.822 222.258C478.02 222.258 479.465 223.703 479.455 226.242V233H476.975V226.633C476.975 225.207 476.203 224.357 474.904 224.367C473.586 224.357 472.658 225.246 472.658 226.789ZM485.811 227.219C485.811 230.676 484.893 233.547 483.076 236.008H480.732C482.129 234.182 483.223 230.5 483.213 227.219C483.223 223.947 482.129 220.275 480.732 218.449H483.076C484.893 220.91 485.811 223.781 485.811 227.219Z" fill="#111111"/>
<path d="M346.859 285.884V287.114C346.85 288.638 346.85 290.659 346.361 293.521H348.988V295.278H345.004V302.485H342.855V295.278H338.91V302.485H336.723V295.278H332.895V293.521H344.174C344.662 291.001 344.721 289.106 344.73 287.661H334.867V285.884H346.859ZM356.379 288.735C356.379 290.767 357.941 292.729 360.734 293.501L359.719 295.181C357.648 294.604 356.164 293.384 355.344 291.812C354.553 293.54 353.059 294.888 350.949 295.513L349.895 293.813C352.727 292.954 354.211 290.894 354.211 288.735V288.54H350.441V286.821H354.211V284.771H356.398V286.821H360.148V288.54H356.379V288.735ZM352.336 298.228V296.47H364.387V302.505H362.199V298.228H352.336ZM362.199 295.669V284.849H364.387V295.669H362.199ZM367.695 295.005C367.695 291.548 368.613 288.677 370.43 286.216H372.773C371.377 288.042 370.283 291.724 370.293 295.005C370.283 298.276 371.377 301.948 372.773 303.774H370.43C368.613 301.313 367.695 298.442 367.695 295.005ZM374.168 300.767V286.626H379.48C382.723 286.626 384.451 288.442 384.461 291.138C384.451 293.062 383.572 294.487 381.912 295.161L384.969 300.767H382.137L379.363 295.591H376.707V300.767H374.168ZM376.707 293.462H379.09C381.004 293.472 381.863 292.651 381.863 291.138C381.863 289.634 381.004 288.755 379.09 288.755H376.707V293.462ZM392.809 296.313V290.161H395.289V300.767H392.887V298.892H392.77C392.281 300.073 391.168 300.903 389.586 300.903C387.486 300.903 386.041 299.458 386.031 296.919V290.161H388.531V296.528C388.531 297.876 389.332 298.735 390.543 298.735C391.637 298.735 392.809 297.935 392.809 296.313ZM399.672 286.626V300.767H397.172V286.626H399.672ZM406.262 300.981C403.068 300.981 401.105 298.853 401.105 295.532C401.105 292.251 403.098 290.024 406.125 290.024C408.723 290.024 410.969 291.655 410.969 295.376V296.157H403.566C403.605 297.964 404.67 299.038 406.281 299.028C407.375 299.038 408.107 298.569 408.43 297.935H410.871C410.422 299.771 408.723 300.981 406.262 300.981ZM403.576 294.458H408.586C408.576 293.013 407.6 291.958 406.164 291.958C404.67 291.958 403.664 293.11 403.576 294.458ZM416.875 294.985C416.875 298.442 415.957 301.313 414.141 303.774H411.797C413.193 301.948 414.287 298.267 414.277 294.985C414.287 291.714 413.193 288.042 411.797 286.216H414.141C415.957 288.677 416.875 291.548 416.875 294.985Z" fill="#1E73FF"/>
<path d="M144.734 87.7539V89.5117H128.641V87.7539H135.594V85.293H137.742V87.7539H144.734ZM129.52 84.6094C133.162 84.1504 135.555 82.1484 135.555 80.0391V79.375H137.762V80.0391C137.762 82.1973 140.135 84.1504 143.816 84.6094L142.977 86.3086C140.086 85.8691 137.771 84.5605 136.648 82.7051C135.516 84.5508 133.211 85.8691 130.301 86.3086L129.52 84.6094ZM130.418 92.6172V90.918H142.762V96.7383H140.594V92.6172H130.418ZM151.891 81.6211C151.881 84.0234 153.287 86.2207 156.051 87.0898L154.879 88.7891C152.955 88.1055 151.607 86.8164 150.855 85.1465C150.074 87.0703 148.6 88.584 146.461 89.3359L145.309 87.5781C148.229 86.6211 149.693 84.2676 149.703 81.7188V80.0391H151.891V81.6211ZM148.238 93.3398C148.219 91.1914 150.514 89.9316 154.234 89.9414C157.975 89.9316 160.26 91.1914 160.27 93.3398C160.26 95.4883 157.975 96.7188 154.234 96.7188C150.514 96.7188 148.219 95.4883 148.238 93.3398ZM150.387 93.3398C150.377 94.4141 151.783 95.0098 154.234 95.0195C156.705 95.0098 158.102 94.4141 158.102 93.3398C158.102 92.2266 156.705 91.6309 154.234 91.6211C151.783 91.6309 150.377 92.2266 150.387 93.3398ZM154.527 84.2773V82.5H158.043V79.082H160.211V89.4727H158.043V84.2773H154.527ZM163.441 89.2383C163.441 85.7812 164.359 82.9102 166.176 80.4492H168.52C167.123 82.2754 166.029 85.957 166.039 89.2383C166.029 92.5098 167.123 96.1816 168.52 98.0078H166.176C164.359 95.5469 163.441 92.6758 163.441 89.2383ZM169.914 95V80.8594H175.227C178.469 80.8594 180.197 82.832 180.207 85.5469C180.197 88.252 178.449 90.2148 175.188 90.2148H172.453V95H169.914ZM172.453 88.125H174.836C176.75 88.1152 177.609 87.041 177.609 85.5469C177.609 84.0332 176.75 82.9883 174.836 82.9883H172.453V88.125ZM181.641 95V84.3945H184.062V86.1523H184.18C184.561 84.9316 185.576 84.2383 186.797 84.2383C187.07 84.2383 187.461 84.2676 187.695 84.2969V86.6016C187.471 86.5234 186.953 86.4551 186.543 86.4453C185.156 86.4551 184.141 87.4121 184.141 88.75V95H181.641ZM192.957 95.2148C189.861 95.2148 187.879 93.0176 187.879 89.7461C187.879 86.4453 189.861 84.2578 192.957 84.2578C196.062 84.2578 198.045 86.4453 198.035 89.7461C198.045 93.0176 196.062 95.2148 192.957 95.2148ZM190.398 89.7266C190.398 91.6699 191.248 93.2227 192.977 93.2227C194.676 93.2227 195.525 91.6699 195.516 89.7266C195.525 87.7832 194.676 86.2207 192.977 86.2305C191.248 86.2207 190.398 87.7832 190.398 89.7266ZM199.469 98.9844V84.3945H201.91V86.1328H202.066C202.447 85.3809 203.229 84.2578 205.113 84.2578C207.555 84.2578 209.479 86.1719 209.488 89.707C209.479 93.1934 207.613 95.1855 205.113 95.1953C203.287 95.1855 202.457 94.1016 202.066 93.3203H201.969V98.9844H199.469ZM201.91 89.6875C201.92 91.7578 202.818 93.1445 204.43 93.1445C206.08 93.1445 206.949 91.6895 206.949 89.6875C206.949 87.7148 206.1 86.2988 204.43 86.2891C202.799 86.2988 201.92 87.627 201.91 89.6875ZM215.648 95.2148C212.455 95.2148 210.492 93.0859 210.492 89.7656C210.492 86.4844 212.484 84.2578 215.512 84.2578C218.109 84.2578 220.355 85.8887 220.355 89.6094V90.3906H212.953C212.992 92.1973 214.057 93.2715 215.668 93.2617C216.762 93.2715 217.494 92.8027 217.816 92.168H220.258C219.809 94.0039 218.109 95.2148 215.648 95.2148ZM212.963 88.6914H217.973C217.963 87.2461 216.986 86.1914 215.551 86.1914C214.057 86.1914 213.051 87.3438 212.963 88.6914ZM221.789 95V84.3945H224.211V86.1523H224.328C224.709 84.9316 225.725 84.2383 226.945 84.2383C227.219 84.2383 227.609 84.2676 227.844 84.2969V86.6016C227.619 86.5234 227.102 86.4551 226.691 86.4453C225.305 86.4551 224.289 87.4121 224.289 88.75V95H221.789ZM234.707 84.3945V86.3086H232.617V91.8164C232.617 92.832 233.125 93.0371 233.75 93.0469C234.043 93.0566 234.531 93.0273 234.844 93.0078V95.0391C234.551 95.0879 234.072 95.1465 233.438 95.1367C231.562 95.1465 230.117 94.2188 230.137 92.2266V86.3086H228.613V84.3945H230.137V81.8555H232.617V84.3945H234.707ZM237.625 98.9844C237.127 98.9746 236.658 98.9648 236.336 98.9258V96.9336C236.639 96.9629 237.059 96.9629 237.391 96.9727C237.996 96.9629 238.504 96.9238 238.934 95.7812L239.148 95.2148L235.281 84.3945H237.918L240.379 92.4023H240.496L242.957 84.3945H245.594L241.336 96.2891C240.73 97.9785 239.617 98.9746 237.625 98.9844ZM251.129 89.2188C251.129 92.6758 250.211 95.5469 248.395 98.0078H246.051C247.447 96.1816 248.541 92.5 248.531 89.2188C248.541 85.9473 247.447 82.2754 246.051 80.4492H248.395C250.211 82.9102 251.129 85.7812 251.129 89.2188Z" fill="#265BBE"/>
<path d="M466.734 87.7539V89.5117H450.641V87.7539H457.594V85.293H459.742V87.7539H466.734ZM451.52 84.6094C455.162 84.1504 457.555 82.1484 457.555 80.0391V79.375H459.762V80.0391C459.762 82.1973 462.135 84.1504 465.816 84.6094L464.977 86.3086C462.086 85.8691 459.771 84.5605 458.648 82.7051C457.516 84.5508 455.211 85.8691 452.301 86.3086L451.52 84.6094ZM452.418 92.6172V90.918H464.762V96.7383H462.594V92.6172H452.418ZM473.891 81.6211C473.881 84.0234 475.287 86.2207 478.051 87.0898L476.879 88.7891C474.955 88.1055 473.607 86.8164 472.855 85.1465C472.074 87.0703 470.6 88.584 468.461 89.3359L467.309 87.5781C470.229 86.6211 471.693 84.2676 471.703 81.7188V80.0391H473.891V81.6211ZM470.238 93.3398C470.219 91.1914 472.514 89.9316 476.234 89.9414C479.975 89.9316 482.26 91.1914 482.27 93.3398C482.26 95.4883 479.975 96.7188 476.234 96.7188C472.514 96.7188 470.219 95.4883 470.238 93.3398ZM472.387 93.3398C472.377 94.4141 473.783 95.0098 476.234 95.0195C478.705 95.0098 480.102 94.4141 480.102 93.3398C480.102 92.2266 478.705 91.6309 476.234 91.6211C473.783 91.6309 472.377 92.2266 472.387 93.3398ZM476.527 84.2773V82.5H480.043V79.082H482.211V89.4727H480.043V84.2773H476.527ZM485.441 89.2383C485.441 85.7812 486.359 82.9102 488.176 80.4492H490.52C489.123 82.2754 488.029 85.957 488.039 89.2383C488.029 92.5098 489.123 96.1816 490.52 98.0078H488.176C486.359 95.5469 485.441 92.6758 485.441 89.2383ZM491.914 95V80.8594H497.227C500.469 80.8594 502.197 82.832 502.207 85.5469C502.197 88.252 500.449 90.2148 497.188 90.2148H494.453V95H491.914ZM494.453 88.125H496.836C498.75 88.1152 499.609 87.041 499.609 85.5469C499.609 84.0332 498.75 82.9883 496.836 82.9883H494.453V88.125ZM503.641 95V84.3945H506.062V86.1523H506.18C506.561 84.9316 507.576 84.2383 508.797 84.2383C509.07 84.2383 509.461 84.2676 509.695 84.2969V86.6016C509.471 86.5234 508.953 86.4551 508.543 86.4453C507.156 86.4551 506.141 87.4121 506.141 88.75V95H503.641ZM514.957 95.2148C511.861 95.2148 509.879 93.0176 509.879 89.7461C509.879 86.4453 511.861 84.2578 514.957 84.2578C518.062 84.2578 520.045 86.4453 520.035 89.7461C520.045 93.0176 518.062 95.2148 514.957 95.2148ZM512.398 89.7266C512.398 91.6699 513.248 93.2227 514.977 93.2227C516.676 93.2227 517.525 91.6699 517.516 89.7266C517.525 87.7832 516.676 86.2207 514.977 86.2305C513.248 86.2207 512.398 87.7832 512.398 89.7266ZM521.469 98.9844V84.3945H523.91V86.1328H524.066C524.447 85.3809 525.229 84.2578 527.113 84.2578C529.555 84.2578 531.479 86.1719 531.488 89.707C531.479 93.1934 529.613 95.1855 527.113 95.1953C525.287 95.1855 524.457 94.1016 524.066 93.3203H523.969V98.9844H521.469ZM523.91 89.6875C523.92 91.7578 524.818 93.1445 526.43 93.1445C528.08 93.1445 528.949 91.6895 528.949 89.6875C528.949 87.7148 528.1 86.2988 526.43 86.2891C524.799 86.2988 523.92 87.627 523.91 89.6875ZM537.648 95.2148C534.455 95.2148 532.492 93.0859 532.492 89.7656C532.492 86.4844 534.484 84.2578 537.512 84.2578C540.109 84.2578 542.355 85.8887 542.355 89.6094V90.3906H534.953C534.992 92.1973 536.057 93.2715 537.668 93.2617C538.762 93.2715 539.494 92.8027 539.816 92.168H542.258C541.809 94.0039 540.109 95.2148 537.648 95.2148ZM534.963 88.6914H539.973C539.963 87.2461 538.986 86.1914 537.551 86.1914C536.057 86.1914 535.051 87.3438 534.963 88.6914ZM543.789 95V84.3945H546.211V86.1523H546.328C546.709 84.9316 547.725 84.2383 548.945 84.2383C549.219 84.2383 549.609 84.2676 549.844 84.2969V86.6016C549.619 86.5234 549.102 86.4551 548.691 86.4453C547.305 86.4551 546.289 87.4121 546.289 88.75V95H543.789ZM556.707 84.3945V86.3086H554.617V91.8164C554.617 92.832 555.125 93.0371 555.75 93.0469C556.043 93.0566 556.531 93.0273 556.844 93.0078V95.0391C556.551 95.0879 556.072 95.1465 555.438 95.1367C553.562 95.1465 552.117 94.2188 552.137 92.2266V86.3086H550.613V84.3945H552.137V81.8555H554.617V84.3945H556.707ZM559.625 98.9844C559.127 98.9746 558.658 98.9648 558.336 98.9258V96.9336C558.639 96.9629 559.059 96.9629 559.391 96.9727C559.996 96.9629 560.504 96.9238 560.934 95.7812L561.148 95.2148L557.281 84.3945H559.918L562.379 92.4023H562.496L564.957 84.3945H567.594L563.336 96.2891C562.73 97.9785 561.617 98.9746 559.625 98.9844ZM573.129 89.2188C573.129 92.6758 572.211 95.5469 570.395 98.0078H568.051C569.447 96.1816 570.541 92.5 570.531 89.2188C570.541 85.9473 569.447 82.2754 568.051 80.4492H570.395C572.211 82.9102 573.129 85.7812 573.129 89.2188Z" fill="#265BBE"/>
<path d="M347.828 79.082V82.8906H350.289V84.707H347.828V88.6719H345.66V79.082H347.828ZM333.863 87.1094C338.053 86.1914 340.25 84.209 340.543 81.8164H334.684V80.0586H342.965C342.965 84.668 339.977 87.6367 334.664 88.8672L333.863 87.1094ZM335.719 96.4844V89.5508H337.73V91.3867H340.035V89.5508H342.008V94.9316C343.951 94.0332 344.811 92.3242 344.82 90.7422V89.3555H346.891V90.7031C346.9 92.4121 347.789 94.1699 349.84 95L348.707 96.6406C347.32 96.0547 346.402 95.0391 345.855 93.8086C345.309 95.0293 344.381 96.0547 343.023 96.6406L342.008 95.2148V96.4844H335.719ZM337.73 94.8047H340.035V93.0078H337.73V94.8047ZM351.918 89.2383C351.918 85.7812 352.836 82.9102 354.652 80.4492H356.996C355.6 82.2754 354.506 85.957 354.516 89.2383C354.506 92.5098 355.6 96.1816 356.996 98.0078H354.652C352.836 95.5469 351.918 92.6758 351.918 89.2383ZM360.266 80.8594L363.938 92.0117H364.094L367.785 80.8594H370.578L365.578 95H362.453L357.473 80.8594H360.266ZM370.039 92.0117C370.039 89.6289 372.021 88.9355 373.984 88.8086C374.727 88.75 376.24 88.6816 376.709 88.6621L376.699 87.8125C376.699 86.7578 376.025 86.1523 374.785 86.1523C373.672 86.1523 372.988 86.6602 372.793 87.4219H370.391C370.566 85.6152 372.188 84.2578 374.844 84.2578C376.855 84.2578 379.18 85.0879 379.18 87.9102V95H376.797V93.5352H376.719C376.25 94.4336 375.264 95.2148 373.594 95.2148C371.572 95.2148 370.039 94.1113 370.039 92.0117ZM372.441 91.9922C372.441 92.9102 373.193 93.3789 374.238 93.3789C375.752 93.3789 376.719 92.3828 376.719 91.1914L376.709 90.3223C376.26 90.3418 374.873 90.4297 374.375 90.4688C373.193 90.5664 372.441 91.0645 372.441 91.9922ZM383.523 80.8594V95H381.023V80.8594H383.523ZM392.184 90.5469V84.3945H394.664V95H392.262V93.125H392.145C391.656 94.3066 390.543 95.1367 388.961 95.1367C386.861 95.1367 385.416 93.6914 385.406 91.1523V84.3945H387.906V90.7617C387.906 92.1094 388.707 92.9688 389.918 92.9688C391.012 92.9688 392.184 92.168 392.184 90.5469ZM401.254 95.2148C398.061 95.2148 396.098 93.0859 396.098 89.7656C396.098 86.4844 398.09 84.2578 401.117 84.2578C403.715 84.2578 405.961 85.8887 405.961 89.6094V90.3906H398.559C398.598 92.1973 399.662 93.2715 401.273 93.2617C402.367 93.2715 403.1 92.8027 403.422 92.168H405.863C405.414 94.0039 403.715 95.2148 401.254 95.2148ZM398.568 88.6914H403.578C403.568 87.2461 402.592 86.1914 401.156 86.1914C399.662 86.1914 398.656 87.3438 398.568 88.6914ZM411.867 89.2188C411.867 92.6758 410.949 95.5469 409.133 98.0078H406.789C408.186 96.1816 409.279 92.5 409.27 89.2188C409.279 85.9473 408.186 82.2754 406.789 80.4492H409.133C410.949 82.9102 411.867 85.7812 411.867 89.2188Z" fill="#112E5F"/>
<path d="M339.262 27.207C339.252 29.5508 340.658 31.8359 343.402 32.7734L342.211 34.4727C340.307 33.7598 338.949 32.3828 338.197 30.6445C337.445 32.5879 336 34.1113 333.93 34.8828L332.777 33.1641C335.619 32.207 337.064 29.7656 337.074 27.1875V25.1758H339.262V27.207ZM335.98 41.3867V35.7812H338.188V39.6289H348.012V41.3867H335.98ZM341.938 29.7656V27.9883H345.453V24.1016H347.621V37.207H345.453V29.7656H341.938ZM364.406 24.1016V37.0312H362.238V30.6055H359.045C358.596 32.6758 356.77 34.082 354.523 34.082C351.857 34.082 349.855 32.2168 349.855 29.6289C349.855 27.0215 351.857 25.1953 354.523 25.1953C356.838 25.1953 358.703 26.6504 359.084 28.8281H362.238V24.1016H364.406ZM351.926 29.6289C351.926 31.1816 353.049 32.207 354.523 32.207C355.969 32.207 357.072 31.1816 357.082 29.6289C357.072 28.0664 355.969 27.0898 354.523 27.0898C353.049 27.0898 351.926 28.0664 351.926 29.6289ZM352.824 41.3867V35.7227H354.992V39.6289H364.855V41.3867H352.824ZM384.773 25.1562V26.7383C384.764 28.3887 384.764 30.1953 384.305 32.6953H386.746V34.4531H379.734V41.7578H377.547V34.4531H370.652V32.6953H382.098C382.586 30.293 382.605 28.4863 382.605 26.9141H372.547V25.1562H384.773ZM403.551 33.2227V34.9609H396.734V38.0078H394.586V34.9609H387.418V33.2227H403.551ZM389.371 41.3867V36.5234H391.52V39.6289H401.773V41.3867H389.371ZM389.527 31.8359V24.6484H391.676V26.6406H399.293V24.6484H401.441V31.8359H389.527ZM391.676 30.1172H399.293V28.2617H391.676V30.1172ZM410.551 29.1016C410.541 31.8262 412.182 34.9316 414.965 36.2305L413.754 37.9492C411.762 37.0117 410.287 35.1172 409.496 32.9102C408.695 35.332 407.152 37.4023 405.121 38.3789L403.852 36.6797C406.664 35.3418 408.373 32.041 408.383 29.1016V27.6172H404.535V25.8203H414.242V27.6172H410.551V29.1016ZM415.883 41.7383V24.082H418.051V30.957H420.766V32.7734H418.051V41.7383H415.883ZM422.238 34.2383C422.238 30.7812 423.156 27.9102 424.973 25.4492H427.316C425.92 27.2754 424.826 30.957 424.836 34.2383C424.826 37.5098 425.92 41.1816 427.316 43.0078H424.973C423.156 40.5469 422.238 37.6758 422.238 34.2383ZM436.406 29.7461C436.279 28.5254 435.254 27.8223 433.73 27.832C432.119 27.8223 431.162 28.6035 431.152 29.668C431.143 30.8594 432.402 31.3477 433.574 31.6211L434.902 31.9727C437.012 32.4609 439.043 33.5742 439.043 36.0352C439.043 38.5156 437.08 40.2148 433.691 40.2148C430.4 40.2148 428.311 38.6328 428.203 35.8398H430.703C430.82 37.3145 432.061 38.0371 433.672 38.0469C435.342 38.0371 436.494 37.2266 436.504 36.0156C436.494 34.9023 435.479 34.4336 433.945 34.043L432.344 33.6328C430.02 33.0273 428.574 31.8555 428.574 29.8242C428.574 27.3242 430.791 25.6641 433.77 25.6641C436.768 25.6641 438.809 27.3535 438.848 29.7461H436.406ZM445.242 40.2148C442.049 40.2148 440.086 38.0859 440.086 34.7656C440.086 31.4844 442.078 29.2578 445.105 29.2578C447.703 29.2578 449.949 30.8887 449.949 34.6094V35.3906H442.547C442.586 37.1973 443.65 38.2715 445.262 38.2617C446.355 38.2715 447.088 37.8027 447.41 37.168H449.852C449.402 39.0039 447.703 40.2148 445.242 40.2148ZM442.557 33.6914H447.566C447.557 32.2461 446.58 31.1914 445.145 31.1914C443.65 31.1914 442.645 32.3438 442.557 33.6914ZM451.383 43.9844V29.3945H453.824V31.1328H453.98C454.361 30.3809 455.143 29.2578 457.027 29.2578C459.469 29.2578 461.393 31.1719 461.402 34.707C461.393 38.1934 459.527 40.1855 457.027 40.1953C455.201 40.1855 454.371 39.1016 453.98 38.3203H453.883V43.9844H451.383ZM453.824 34.6875C453.834 36.7578 454.732 38.1445 456.344 38.1445C457.994 38.1445 458.863 36.6895 458.863 34.6875C458.863 32.7148 458.014 31.2988 456.344 31.2891C454.713 31.2988 453.834 32.627 453.824 34.6875ZM462.367 37.0117C462.367 34.6289 464.35 33.9355 466.312 33.8086C467.055 33.75 468.568 33.6816 469.037 33.6621L469.027 32.8125C469.027 31.7578 468.354 31.1523 467.113 31.1523C466 31.1523 465.316 31.6602 465.121 32.4219H462.719C462.895 30.6152 464.516 29.2578 467.172 29.2578C469.184 29.2578 471.508 30.0879 471.508 32.9102V40H469.125V38.5352H469.047C468.578 39.4336 467.592 40.2148 465.922 40.2148C463.9 40.2148 462.367 39.1113 462.367 37.0117ZM464.77 36.9922C464.77 37.9102 465.521 38.3789 466.566 38.3789C468.08 38.3789 469.047 37.3828 469.047 36.1914L469.037 35.3223C468.588 35.3418 467.201 35.4297 466.703 35.4688C465.521 35.5664 464.77 36.0645 464.77 36.9922ZM473.352 40V29.3945H475.773V31.1523H475.891C476.271 29.9316 477.287 29.2383 478.508 29.2383C478.781 29.2383 479.172 29.2676 479.406 29.2969V31.6016C479.182 31.5234 478.664 31.4551 478.254 31.4453C476.867 31.4551 475.852 32.4121 475.852 33.75V40H473.352ZM479.707 37.0117C479.707 34.6289 481.689 33.9355 483.652 33.8086C484.395 33.75 485.908 33.6816 486.377 33.6621L486.367 32.8125C486.367 31.7578 485.693 31.1523 484.453 31.1523C483.34 31.1523 482.656 31.6602 482.461 32.4219H480.059C480.234 30.6152 481.855 29.2578 484.512 29.2578C486.523 29.2578 488.848 30.0879 488.848 32.9102V40H486.465V38.5352H486.387C485.918 39.4336 484.932 40.2148 483.262 40.2148C481.24 40.2148 479.707 39.1113 479.707 37.0117ZM482.109 36.9922C482.109 37.9102 482.861 38.3789 483.906 38.3789C485.42 38.3789 486.387 37.3828 486.387 36.1914L486.377 35.3223C485.928 35.3418 484.541 35.4297 484.043 35.4688C482.861 35.5664 482.109 36.0645 482.109 36.9922ZM495.984 29.3945V31.3086H493.895V36.8164C493.895 37.832 494.402 38.0371 495.027 38.0469C495.32 38.0566 495.809 38.0273 496.121 38.0078V40.0391C495.828 40.0879 495.35 40.1465 494.715 40.1367C492.84 40.1465 491.395 39.2188 491.414 37.2266V31.3086H489.891V29.3945H491.414V26.8555H493.895V29.3945H495.984ZM501.91 40.2148C498.814 40.2148 496.832 38.0176 496.832 34.7461C496.832 31.4453 498.814 29.2578 501.91 29.2578C505.016 29.2578 506.998 31.4453 506.988 34.7461C506.998 38.0176 505.016 40.2148 501.91 40.2148ZM499.352 34.7266C499.352 36.6699 500.201 38.2227 501.93 38.2227C503.629 38.2227 504.479 36.6699 504.469 34.7266C504.479 32.7832 503.629 31.2207 501.93 31.2305C500.201 31.2207 499.352 32.7832 499.352 34.7266ZM508.422 40V29.3945H510.844V31.1523H510.961C511.342 29.9316 512.357 29.2383 513.578 29.2383C513.852 29.2383 514.242 29.2676 514.477 29.2969V31.6016C514.252 31.5234 513.734 31.4551 513.324 31.4453C511.938 31.4551 510.922 32.4121 510.922 33.75V40H508.422ZM519.934 34.2188C519.934 37.6758 519.016 40.5469 517.199 43.0078H514.855C516.252 41.1816 517.346 37.5 517.336 34.2188C517.346 30.9473 516.252 27.2754 514.855 25.4492H517.199C519.016 27.9102 519.934 30.7812 519.934 34.2188Z" fill="#6C005B"/>
<path d="M626.828 79.082V82.8906H629.289V84.707H626.828V88.6719H624.66V79.082H626.828ZM612.863 87.1094C617.053 86.1914 619.25 84.209 619.543 81.8164H613.684V80.0586H621.965C621.965 84.668 618.977 87.6367 613.664 88.8672L612.863 87.1094ZM614.719 96.4844V89.5508H616.73V91.3867H619.035V89.5508H621.008V94.9316C622.951 94.0332 623.811 92.3242 623.82 90.7422V89.3555H625.891V90.7031C625.9 92.4121 626.789 94.1699 628.84 95L627.707 96.6406C626.32 96.0547 625.402 95.0391 624.855 93.8086C624.309 95.0293 623.381 96.0547 622.023 96.6406L621.008 95.2148V96.4844H614.719ZM616.73 94.8047H619.035V93.0078H616.73V94.8047ZM630.918 89.2383C630.918 85.7812 631.836 82.9102 633.652 80.4492H635.996C634.6 82.2754 633.506 85.957 633.516 89.2383C633.506 92.5098 634.6 96.1816 635.996 98.0078H633.652C631.836 95.5469 630.918 92.6758 630.918 89.2383ZM639.266 80.8594L642.938 92.0117H643.094L646.785 80.8594H649.578L644.578 95H641.453L636.473 80.8594H639.266ZM649.039 92.0117C649.039 89.6289 651.021 88.9355 652.984 88.8086C653.727 88.75 655.24 88.6816 655.709 88.6621L655.699 87.8125C655.699 86.7578 655.025 86.1523 653.785 86.1523C652.672 86.1523 651.988 86.6602 651.793 87.4219H649.391C649.566 85.6152 651.188 84.2578 653.844 84.2578C655.855 84.2578 658.18 85.0879 658.18 87.9102V95H655.797V93.5352H655.719C655.25 94.4336 654.264 95.2148 652.594 95.2148C650.572 95.2148 649.039 94.1113 649.039 92.0117ZM651.441 91.9922C651.441 92.9102 652.193 93.3789 653.238 93.3789C654.752 93.3789 655.719 92.3828 655.719 91.1914L655.709 90.3223C655.26 90.3418 653.873 90.4297 653.375 90.4688C652.193 90.5664 651.441 91.0645 651.441 91.9922ZM662.523 80.8594V95H660.023V80.8594H662.523ZM671.184 90.5469V84.3945H673.664V95H671.262V93.125H671.145C670.656 94.3066 669.543 95.1367 667.961 95.1367C665.861 95.1367 664.416 93.6914 664.406 91.1523V84.3945H666.906V90.7617C666.906 92.1094 667.707 92.9688 668.918 92.9688C670.012 92.9688 671.184 92.168 671.184 90.5469ZM680.254 95.2148C677.061 95.2148 675.098 93.0859 675.098 89.7656C675.098 86.4844 677.09 84.2578 680.117 84.2578C682.715 84.2578 684.961 85.8887 684.961 89.6094V90.3906H677.559C677.598 92.1973 678.662 93.2715 680.273 93.2617C681.367 93.2715 682.1 92.8027 682.422 92.168H684.863C684.414 94.0039 682.715 95.2148 680.254 95.2148ZM677.568 88.6914H682.578C682.568 87.2461 681.592 86.1914 680.156 86.1914C678.662 86.1914 677.656 87.3438 677.568 88.6914ZM690.867 89.2188C690.867 92.6758 689.949 95.5469 688.133 98.0078H685.789C687.186 96.1816 688.279 92.5 688.27 89.2188C688.279 85.9473 687.186 82.2754 685.789 80.4492H688.133C689.949 82.9102 690.867 85.7812 690.867 89.2188Z" fill="#112E5F"/>
<path d="M25.4316 220.207C25.4219 222.551 26.8281 224.836 29.5723 225.773L28.3809 227.473C26.4766 226.76 25.1191 225.383 24.3672 223.645C23.6152 225.588 22.1699 227.111 20.0996 227.883L18.9473 226.164C21.7891 225.207 23.2344 222.766 23.2441 220.188V218.176H25.4316V220.207ZM22.1504 234.387V228.781H24.3574V232.629H34.1816V234.387H22.1504ZM28.1074 222.766V220.988H31.623V217.102H33.791V230.207H31.623V222.766H28.1074ZM43.3887 218.312V220.051H38.5449V221.77H43.2129V223.43H38.5449V225.285C40.6934 225.266 42.1973 225.178 43.916 224.855L44.1504 226.613C42.0703 227.004 40.3711 227.072 37.627 227.062H36.4551V218.312H43.3887ZM38.7988 230.383V228.625H50.8887V234.738H48.7207V230.383H38.7988ZM44.9512 227.707V217.434H46.9824V221.516H48.8184V217.102H50.8887V227.844H48.8184V223.254H46.9824V227.707H44.9512ZM58.9043 222.102C58.8945 224.826 60.5352 227.932 63.3184 229.23L62.1074 230.949C60.1152 230.012 58.6406 228.117 57.8496 225.91C57.0488 228.332 55.5059 230.402 53.4746 231.379L52.2051 229.68C55.0176 228.342 56.7266 225.041 56.7363 222.102V220.617H52.8887V218.82H62.5957V220.617H58.9043V222.102ZM64.2363 234.738V217.082H66.4043V223.957H69.1191V225.773H66.4043V234.738H64.2363ZM70.5918 227.238C70.5918 223.781 71.5098 220.91 73.3262 218.449H75.6699C74.2734 220.275 73.1797 223.957 73.1895 227.238C73.1797 230.51 74.2734 234.182 75.6699 236.008H73.3262C71.5098 233.547 70.5918 230.676 70.5918 227.238ZM84.7598 222.746C84.6328 221.525 83.6074 220.822 82.084 220.832C80.4727 220.822 79.5156 221.604 79.5059 222.668C79.4961 223.859 80.7559 224.348 81.9277 224.621L83.2559 224.973C85.3652 225.461 87.3965 226.574 87.3965 229.035C87.3965 231.516 85.4336 233.215 82.0449 233.215C78.7539 233.215 76.6641 231.633 76.5566 228.84H79.0566C79.1738 230.314 80.4141 231.037 82.0254 231.047C83.6953 231.037 84.8477 230.227 84.8574 229.016C84.8477 227.902 83.832 227.434 82.2988 227.043L80.6973 226.633C78.373 226.027 76.9277 224.855 76.9277 222.824C76.9277 220.324 79.1445 218.664 82.123 218.664C85.1211 218.664 87.1621 220.354 87.2012 222.746H84.7598ZM93.5957 233.215C90.4023 233.215 88.4395 231.086 88.4395 227.766C88.4395 224.484 90.4316 222.258 93.459 222.258C96.0566 222.258 98.3027 223.889 98.3027 227.609V228.391H90.9004C90.9395 230.197 92.0039 231.271 93.6152 231.262C94.709 231.271 95.4414 230.803 95.7637 230.168H98.2051C97.7559 232.004 96.0566 233.215 93.5957 233.215ZM90.9102 226.691H95.9199C95.9102 225.246 94.9336 224.191 93.498 224.191C92.0039 224.191 90.998 225.344 90.9102 226.691ZM102.236 218.859V233H99.7363V218.859H102.236ZM108.826 233.215C105.633 233.215 103.67 231.086 103.67 227.766C103.67 224.484 105.662 222.258 108.689 222.258C111.287 222.258 113.533 223.889 113.533 227.609V228.391H106.131C106.17 230.197 107.234 231.271 108.846 231.262C109.939 231.271 110.672 230.803 110.994 230.168H113.436C112.986 232.004 111.287 233.215 108.826 233.215ZM106.141 226.691H111.15C111.141 225.246 110.164 224.191 108.729 224.191C107.234 224.191 106.229 225.344 106.141 226.691ZM119.596 233.215C116.432 233.215 114.518 230.949 114.518 227.746C114.518 224.494 116.49 222.258 119.596 222.258C122.164 222.258 123.971 223.762 124.146 226.047H121.764C121.568 225.031 120.826 224.26 119.615 224.25C118.072 224.26 117.037 225.549 117.037 227.688C117.037 229.875 118.053 231.174 119.615 231.184C120.719 231.174 121.539 230.529 121.764 229.387H124.146C123.961 231.623 122.262 233.215 119.596 233.215ZM130.814 222.395V224.309H128.725V229.816C128.725 230.832 129.232 231.037 129.857 231.047C130.15 231.057 130.639 231.027 130.951 231.008V233.039C130.658 233.088 130.18 233.146 129.545 233.137C127.67 233.146 126.225 232.219 126.244 230.227V224.309H124.721V222.395H126.244V219.855H128.725V222.395H130.814ZM136.74 233.215C133.645 233.215 131.662 231.018 131.662 227.746C131.662 224.445 133.645 222.258 136.74 222.258C139.846 222.258 141.828 224.445 141.818 227.746C141.828 231.018 139.846 233.215 136.74 233.215ZM134.182 227.727C134.182 229.67 135.031 231.223 136.76 231.223C138.459 231.223 139.309 229.67 139.299 227.727C139.309 225.783 138.459 224.221 136.76 224.23C135.031 224.221 134.182 225.783 134.182 227.727ZM143.252 233V222.395H145.674V224.152H145.791C146.172 222.932 147.188 222.238 148.408 222.238C148.682 222.238 149.072 222.268 149.307 222.297V224.602C149.082 224.523 148.564 224.455 148.154 224.445C146.768 224.455 145.752 225.412 145.752 226.75V233H143.252ZM154.764 227.219C154.764 230.676 153.846 233.547 152.029 236.008H149.686C151.082 234.182 152.176 230.5 152.166 227.219C152.176 223.947 151.082 220.275 149.686 218.449H152.029C153.846 220.91 154.764 223.781 154.764 227.219Z" fill="#438443"/>
<path d="M80.4424 192.233L80.4424 193.317C80.4424 195.202 80.8867 196.604 81.7754 197.522C82.6543 198.439 83.9922 198.898 85.7891 198.898L401.169 198.898C401.647 198.898 402.072 198.952 402.443 199.06C402.824 199.167 403.142 199.357 403.396 199.631C403.659 199.895 403.859 200.251 403.996 200.7C404.133 201.14 404.201 201.696 404.201 202.37L404.201 208L406.237 208L406.237 202.37C406.237 201.657 406.296 201.076 406.413 200.627C406.53 200.178 406.706 199.826 406.94 199.572C407.185 199.318 407.492 199.143 407.863 199.045C408.234 198.947 408.674 198.898 409.182 198.898L724.653 198.898C725.474 198.898 726.211 198.801 726.865 198.605C727.529 198.41 728.091 198.093 728.55 197.653C729.019 197.204 729.375 196.628 729.619 195.925C729.873 195.212 730 194.343 730 193.317L730 192.233L727.949 192.233L727.949 193.098C727.949 195.363 726.851 196.496 724.653 196.496L409.24 196.496C406.857 196.496 405.515 197.526 405.212 199.587C405.007 197.507 403.669 196.467 401.198 196.467L85.8477 196.467C83.6113 196.467 82.4932 195.344 82.4932 193.098L82.4932 192.233L80.4424 192.233Z" fill="#111111"/>
<path d="M20.4424 250L20.4424 261.084C20.4424 262.969 20.8867 264.37 21.7754 265.288C22.6543 266.206 23.9922 266.665 25.7891 266.665L371.169 266.665C371.647 266.665 372.072 266.719 372.443 266.826C372.824 266.934 373.142 267.124 373.396 267.397C373.659 267.661 373.859 268.018 373.996 268.467C374.133 268.906 374.201 269.463 374.201 270.137L374.201 275.767L376.237 275.767L376.237 270.137C376.237 269.424 376.296 268.843 376.413 268.394C376.53 267.944 376.706 267.593 376.94 267.339C377.185 267.085 377.492 266.909 377.863 266.812C378.234 266.714 378.674 266.665 379.182 266.665L724.653 266.665C725.474 266.665 726.211 266.567 726.865 266.372C727.529 266.177 728.091 265.859 728.55 265.42C729.019 264.971 729.375 264.395 729.619 263.691C729.873 262.979 730 262.109 730 261.084L730 250L727.949 250L727.949 260.864C727.949 263.13 726.851 264.263 724.653 264.263L379.24 264.263C376.857 264.263 375.515 265.293 375.212 267.354C375.007 265.273 373.669 264.233 371.198 264.233L25.8477 264.233C23.6113 264.233 22.4932 263.11 22.4932 260.864L22.4932 250L20.4424 250Z" fill="#1E73FF"/>
<path d="M18.4424 192.233L18.4424 193.317C18.4424 195.202 18.8867 196.604 19.7754 197.521C20.6543 198.439 21.9922 198.898 23.7891 198.898L34.1689 198.898C34.6475 198.898 35.0723 198.952 35.4434 199.06C35.8242 199.167 36.1416 199.357 36.3955 199.631C36.6592 199.895 36.8594 200.251 36.9961 200.7C37.1328 201.14 37.2012 201.696 37.2012 202.37L37.2012 208L39.2373 208L39.2373 202.37C39.2373 201.657 39.2959 201.076 39.4131 200.627C39.5303 200.178 39.7061 199.826 39.9404 199.572C40.1846 199.318 40.4922 199.143 40.8633 199.045C41.2344 198.947 41.6738 198.898 42.1816 198.898L52.6533 198.898C53.4736 198.898 54.2109 198.801 54.8652 198.605C55.5293 198.41 56.0908 198.093 56.5498 197.653C57.0186 197.204 57.375 196.628 57.6191 195.925C57.873 195.212 58 194.343 58 193.317L58 192.233L55.9492 192.233L55.9492 193.098C55.9492 195.363 54.8506 196.496 52.6533 196.496L42.2402 196.496C39.8574 196.496 38.5146 197.526 38.2119 199.587C38.0068 197.507 36.6689 196.467 34.1982 196.467L23.8477 196.467C21.6113 196.467 20.4932 195.344 20.4932 193.098L20.4932 192.233L18.4424 192.233Z" fill="#438443"/>
<path d="M97.4424 121.767L97.4424 120.683C97.4424 118.798 97.8867 117.396 98.7754 116.479C99.6543 115.561 100.992 115.102 102.789 115.102L186.169 115.102C186.647 115.102 187.072 115.048 187.443 114.94C187.824 114.833 188.142 114.643 188.396 114.369C188.659 114.105 188.859 113.749 188.996 113.3C189.133 112.86 189.201 112.304 189.201 111.63L189.201 106L191.237 106L191.237 111.63C191.237 112.343 191.296 112.924 191.413 113.373C191.53 113.822 191.706 114.174 191.94 114.428C192.185 114.682 192.492 114.857 192.863 114.955C193.234 115.053 193.674 115.102 194.182 115.102L277.653 115.102C278.474 115.102 279.211 115.199 279.865 115.395C280.529 115.59 281.091 115.907 281.55 116.347C282.019 116.796 282.375 117.372 282.619 118.075C282.873 118.788 283 119.657 283 120.683L283 121.767L280.949 121.767L280.949 120.902C280.949 118.637 279.851 117.504 277.653 117.504L194.24 117.504C191.857 117.504 190.515 116.474 190.212 114.413C190.007 116.493 188.669 117.533 186.198 117.533L102.848 117.533C100.611 117.533 99.4932 118.656 99.4932 120.902L99.4932 121.767L97.4424 121.767Z" fill="#265BBE"/>
<path d="M461.442 121.767L461.442 120.683C461.442 118.798 461.887 117.396 462.775 116.479C463.654 115.561 464.992 115.102 466.789 115.102L508.169 115.102C508.647 115.102 509.072 115.048 509.443 114.94C509.824 114.833 510.142 114.643 510.396 114.369C510.659 114.105 510.859 113.749 510.996 113.3C511.133 112.86 511.201 112.304 511.201 111.63L511.201 106L513.237 106L513.237 111.63C513.237 112.343 513.296 112.924 513.413 113.373C513.53 113.822 513.706 114.174 513.94 114.428C514.185 114.682 514.492 114.857 514.863 114.955C515.234 115.053 515.674 115.102 516.182 115.102L557.653 115.102C558.474 115.102 559.211 115.199 559.865 115.395C560.529 115.59 561.091 115.907 561.55 116.347C562.019 116.796 562.375 117.372 562.619 118.075C562.873 118.788 563 119.657 563 120.683L563 121.767L560.949 121.767L560.949 120.902C560.949 118.637 559.851 117.504 557.653 117.504L516.24 117.504C513.857 117.504 512.515 116.474 512.212 114.413C512.007 116.493 510.669 117.533 508.198 117.533L466.848 117.533C464.611 117.533 463.493 118.656 463.493 120.902L463.493 121.767L461.442 121.767Z" fill="#265BBE"/>
<path d="M332.442 121.767L332.442 120.683C332.442 118.798 332.887 117.396 333.775 116.479C334.654 115.561 335.992 115.102 337.789 115.102L369.169 115.102C369.647 115.102 370.072 115.048 370.443 114.94C370.824 114.833 371.142 114.643 371.396 114.369C371.659 114.105 371.859 113.749 371.996 113.3C372.133 112.86 372.201 112.304 372.201 111.63L372.201 106L374.237 106L374.237 111.63C374.237 112.343 374.296 112.924 374.413 113.373C374.53 113.822 374.706 114.174 374.94 114.428C375.185 114.682 375.492 114.857 375.863 114.955C376.234 115.053 376.674 115.102 377.182 115.102L408.653 115.102C409.474 115.102 410.211 115.199 410.865 115.395C411.529 115.59 412.091 115.907 412.55 116.347C413.019 116.796 413.375 117.372 413.619 118.075C413.873 118.788 414 119.657 414 120.683L414 121.767L411.949 121.767L411.949 120.902C411.949 118.637 410.851 117.504 408.653 117.504L377.24 117.504C374.857 117.504 373.515 116.474 373.212 114.413C373.007 116.493 371.669 117.533 369.198 117.533L337.848 117.533C335.611 117.533 334.493 118.656 334.493 120.902L334.493 121.767L332.442 121.767Z" fill="#112E5F"/>
<path d="M611.442 121.767L611.442 120.683C611.442 118.798 611.887 117.396 612.775 116.479C613.654 115.561 614.992 115.102 616.789 115.102L648.169 115.102C648.647 115.102 649.072 115.048 649.443 114.94C649.824 114.833 650.142 114.643 650.396 114.369C650.659 114.105 650.859 113.749 650.996 113.3C651.133 112.86 651.201 112.304 651.201 111.63L651.201 106L653.237 106L653.237 111.63C653.237 112.343 653.296 112.924 653.413 113.373C653.53 113.822 653.706 114.174 653.94 114.428C654.185 114.682 654.492 114.857 654.863 114.955C655.234 115.053 655.674 115.102 656.182 115.102L687.653 115.102C688.474 115.102 689.211 115.199 689.865 115.395C690.529 115.59 691.091 115.907 691.55 116.347C692.019 116.796 692.375 117.372 692.619 118.075C692.873 118.788 693 119.657 693 120.683L693 121.767L690.949 121.767L690.949 120.902C690.949 118.637 689.851 117.504 687.653 117.504L656.24 117.504C653.857 117.504 652.515 116.474 652.212 114.413C652.007 116.493 650.669 117.533 648.198 117.533L616.848 117.533C614.611 117.533 613.493 118.656 613.493 120.902L613.493 121.767L611.442 121.767Z" fill="#112E5F"/>
<path d="M426.293 122.707C426.683 123.098 427.317 123.098 427.707 122.707L434.071 116.343C434.462 115.953 434.462 115.319 434.071 114.929C433.681 114.538 433.047 114.538 432.657 114.929L427 120.586L421.343 114.929C420.953 114.538 420.319 114.538 419.929 114.929C419.538 115.319 419.538 115.953 419.929 116.343L426.293 122.707ZM426 53L426 122L428 122L428 53L426 53Z" fill="#6C005B"/>
<!-- made by UXKM, K.S.Chu -->
</svg>
