<svg width="238" height="222" viewBox="0 0 238 222" fill="none" xmlns="http://www.w3.org/2000/svg">
<path d="M233 39.5632V205C233 211.627 227.627 217 221 217H17C10.3726 217 5 211.627 5 205V39.3847C5 36.0596 6.37964 32.8836 8.80984 30.6142L32.7806 8.22952C35.0029 6.15426 37.9302 5 40.9708 5H195.969C198.937 5 201.799 6.0997 204.003 8.08672L229.035 30.65C231.559 32.9255 233 36.1647 233 39.5632Z" fill="white" stroke="black" stroke-width="10"/>
<path d="M231.5 213L207 159" stroke="black" stroke-width="10"/>
<path d="M7.5 213L32 159" stroke="black" stroke-width="10"/>
<path d="M42 5H197C203.627 5 209 10.3726 209 17V150C209 156.627 203.627 162 197 162H42C35.3726 162 30 156.627 30 150V17C30 10.3726 35.3726 5 42 5Z" stroke="black" stroke-width="10"/>
<path d="M149.205 121.5C143.521 121.5 138.476 120.5 134.068 118.501C129.685 116.478 126.228 113.697 123.7 110.156C121.195 106.616 119.918 102.545 119.87 97.9451H139.379C139.451 100.498 140.438 102.533 142.341 104.051C144.268 105.568 146.556 106.327 149.205 106.327C151.253 106.327 153.059 105.893 154.624 105.026C156.19 104.135 157.418 102.882 158.309 101.269C159.201 99.6551 159.634 97.7765 159.61 95.6329C159.634 93.4653 159.201 91.5867 158.309 89.9971C157.418 88.3834 156.19 87.1431 154.624 86.276C153.059 85.3849 151.253 84.9393 149.205 84.9393C147.086 84.9393 145.123 85.4571 143.317 86.4928C141.534 87.5043 140.222 88.9133 139.379 90.7197L121.749 87.2514L124.639 46.5H174.35V62.5405H141.113L139.668 78.8699H140.101C141.257 76.6301 143.256 74.7755 146.098 73.3064C148.94 71.8131 152.24 71.0665 155.997 71.0665C160.405 71.0665 164.331 72.0901 167.775 74.1373C171.243 76.1845 173.977 79.0144 175.976 82.6272C177.999 86.2158 178.998 90.3584 178.974 95.0549C178.998 100.209 177.77 104.785 175.289 108.783C172.833 112.757 169.376 115.876 164.921 118.14C160.465 120.38 155.227 121.5 149.205 121.5Z" fill="black"/>
<path d="M60.0254 120.488V46.5H112.049V62.685H80.1121V75.4017H108.869V91.5867H80.1121V120.488H60.0254Z" fill="black"/>
  <!-- made by UXKM, K.S.Chu -->
</svg>
