<svg width="318" height="222" viewBox="0 0 318 222" fill="none" xmlns="http://www.w3.org/2000/svg">
<path d="M313 39.5632V205C313 211.627 307.627 217 301 217H17C10.3726 217 5 211.627 5 205V39.3847C5 36.0596 6.37964 32.8836 8.80984 30.6142L32.7806 8.22952C35.0029 6.15426 37.9302 5 40.9708 5H275.969C278.937 5 281.799 6.0997 284.003 8.08672L309.035 30.65C311.559 32.9255 313 36.1647 313 39.5632Z" fill="white" stroke="black" stroke-width="10"/>
<path d="M216.486 93.7855C216.486 97.52 213.459 100.547 209.724 100.547H106.343C102.609 100.547 99.5816 97.52 99.5816 93.7855V72.5408C99.5816 69.7568 97.3247 67.5 94.5408 67.5C91.7569 67.5 89.5 69.7568 89.5 72.5408V93.7855C89.5 103.088 97.0412 110.629 106.343 110.629H209.724C219.026 110.629 226.568 103.088 226.568 93.7855V72.5408C226.568 69.7568 224.311 67.5 221.527 67.5C218.743 67.5 216.486 69.7568 216.486 72.5408V93.7855Z" fill="black" stroke="black" stroke-width="3"/>
<path d="M311.5 213L287 159" stroke="black" stroke-width="10"/>
<path d="M7.5 213L32 159" stroke="black" stroke-width="10"/>
<path d="M41 5H276C282.627 5 288 10.3726 288 17V150C288 156.627 282.627 162 276 162H41C34.3726 162 29 156.627 29 150V17C29 10.3726 34.3726 5 41 5Z" stroke="black" stroke-width="10"/>
  <!-- made by UXKM, K.S.Chu -->
</svg>
