<svg width="288" height="222" viewBox="0 0 288 222" fill="none" xmlns="http://www.w3.org/2000/svg">
<path d="M283 39.5632V205C283 211.627 277.627 217 271 217H17C10.3726 217 5 211.627 5 205V39.3847C5 36.0596 6.37964 32.8836 8.80984 30.6142L32.7806 8.22952C35.0029 6.15426 37.9302 5 40.9708 5H245.969C248.937 5 251.799 6.0997 254.003 8.08672L279.035 30.65C281.559 32.9255 283 36.1647 283 39.5632Z" fill="white" stroke="black" stroke-width="10"/>
<path d="M281.5 213L257 159" stroke="black" stroke-width="10"/>
<path d="M7.5 213L32 159" stroke="black" stroke-width="10"/>
<path d="M41 5H246C252.627 5 258 10.3726 258 17V150C258 156.627 252.627 162 246 162H41C34.3726 162 29 156.627 29 150V17C29 10.3726 34.3726 5 41 5Z" stroke="black" stroke-width="10"/>
<path d="M167.013 47.8105H183.35V74.4561H183.739C184.906 71.7008 186.721 69.3993 189.185 67.5516C191.648 65.6715 194.825 64.7314 198.715 64.7314C202.572 64.7314 206.09 65.7363 209.266 67.7461C212.475 69.7558 215.036 72.8029 216.949 76.8872C218.861 80.9392 219.818 85.9312 219.818 91.8632C219.818 97.6332 218.877 102.56 216.997 106.645C215.15 110.729 212.621 113.808 209.412 115.883C206.203 117.958 202.605 118.995 198.618 118.995C194.858 118.995 191.73 118.12 189.234 116.369C186.77 114.586 184.938 112.35 183.739 109.659H183.253V118.217H167.013V47.8105ZM183.058 91.5715C183.058 96.0448 183.934 99.5943 185.684 102.22C187.434 104.846 189.898 106.158 193.075 106.158C196.219 106.158 198.65 104.862 200.368 102.269C202.119 99.6753 202.994 96.1745 202.994 91.7659C202.994 87.3899 202.119 83.9376 200.368 81.4092C198.65 78.8484 196.219 77.568 193.075 77.568C189.93 77.568 187.467 78.816 185.684 81.312C183.934 83.8079 183.058 87.2278 183.058 91.5715Z" fill="black"/>
<path d="M108.276 103.533C108.243 98.087 110.026 94.0675 113.624 91.4742C117.222 88.8486 121.955 87.3575 127.822 87.0009C130.675 86.8064 134.241 86.6443 138.519 86.5147L140.464 86.4174V82.1386C140.464 80.3233 139.832 78.9132 138.568 77.9083C137.336 76.9035 135.618 76.401 133.414 76.401C131.177 76.401 129.378 76.8548 128.017 77.7625C126.655 78.6701 125.813 79.9991 125.488 81.7496H110.221C110.48 78.5729 111.534 75.7041 113.381 73.1433C115.261 70.55 117.919 68.5078 121.355 67.0167C124.792 65.4932 128.892 64.7314 133.657 64.7314C138.066 64.7314 142.02 65.4122 145.521 66.7736C149.022 68.1351 151.794 70.1448 153.836 72.8029C155.878 75.461 156.899 78.6377 156.899 82.3331V118.217H141.437V110.826H141.048C139.589 113.549 137.579 115.624 135.019 117.05C132.458 118.444 129.346 119.157 125.683 119.189C122.247 119.157 119.216 118.557 116.59 117.39C113.965 116.223 111.923 114.473 110.464 112.139C109.005 109.805 108.276 106.936 108.276 103.533ZM123.835 102.949C123.835 104.667 124.451 105.996 125.683 106.936C126.947 107.844 128.6 108.298 130.643 108.298C132.49 108.298 134.176 107.925 135.699 107.18C137.223 106.402 138.406 105.348 139.249 104.019C140.124 102.658 140.562 101.134 140.562 99.4484V96.0448C139.2 96.0772 137.482 96.1583 135.408 96.2879C133.333 96.3852 131.712 96.4986 130.545 96.6283C128.438 96.8552 126.785 97.5197 125.586 98.6218C124.419 99.724 123.835 101.166 123.835 102.949Z" fill="black"/>
<path d="M102.246 77.4711H92.619V101.685C92.6514 103.274 93.0404 104.392 93.786 105.04C94.5315 105.689 95.6337 106.029 97.0924 106.062L98.1621 106.11C99.0049 106.11 100.593 106.029 102.927 105.867V118.412C100.626 118.768 97.9027 118.963 94.7584 118.995C88.794 118.963 84.2072 117.683 80.9981 115.154C77.8213 112.593 76.2492 108.72 76.2816 103.533V77.4711H69.1826V65.4125H76.2816V52.7705H92.619V65.4125H102.246V77.4711Z" fill="black"/>
  <!-- made by UXKM, K.S.Chu -->
</svg>
