<svg width="218" height="222" viewBox="0 0 218 222" fill="none" xmlns="http://www.w3.org/2000/svg">
<path d="M213 39.5632V205C213 211.627 207.627 217 201 217H17C10.3726 217 5 211.627 5 205V39.3847C5 36.0596 6.37964 32.8836 8.80984 30.6142L32.7806 8.22952C35.0029 6.15426 37.9302 5 40.9708 5H175.969C178.937 5 181.799 6.0997 184.003 8.08672L209.035 30.65C211.559 32.9255 213 36.1647 213 39.5632Z" fill="white" stroke="black" stroke-width="10"/>
<path d="M211.5 213L187 159" stroke="black" stroke-width="10"/>
<path d="M7.5 213L32 159" stroke="black" stroke-width="10"/>
<rect x="29" y="5" width="159" height="157" rx="12" stroke="black" stroke-width="10"/>
<path d="M75.0625 123.5V43.5H109.594C115.531 43.5 120.727 44.5807 125.18 46.7422C129.633 48.9036 133.096 52.0156 135.57 56.0781C138.044 60.1406 139.281 65.0104 139.281 70.6875C139.281 76.4167 138.005 81.2474 135.453 85.1797C132.927 89.112 129.372 92.0807 124.789 94.0859C120.232 96.0911 114.906 97.0938 108.812 97.0938H88.1875V80.2188H104.438C106.99 80.2188 109.164 79.9063 110.961 79.2812C112.784 78.6302 114.177 77.6016 115.141 76.1953C116.13 74.7891 116.625 72.9531 116.625 70.6875C116.625 68.3958 116.13 66.5339 115.141 65.1016C114.177 63.6432 112.784 62.5755 110.961 61.8984C109.164 61.1953 106.99 60.8437 104.438 60.8437H96.7812V123.5H75.0625ZM121.938 86.7812L141.938 123.5H118.344L98.8125 86.7812H121.938Z" fill="black"/>
  <!-- made by UXKM, K.S.Chu -->
</svg>
