<svg width="238" height="222" viewBox="0 0 238 222" fill="none" xmlns="http://www.w3.org/2000/svg">
<path d="M40.9707 5H195.969C198.751 5 201.441 5.96639 203.583 7.72461L204.003 8.08691L229.034 30.6504C231.559 32.9259 233 36.1649 233 39.5635V205C233 211.627 227.627 217 221 217H17C10.3726 217 5 211.627 5 205V39.3848C5 36.1638 6.29481 33.0827 8.58496 30.8301L8.80957 30.6143L32.7803 8.22949C35.0026 6.15425 37.9301 5.00002 40.9707 5Z" fill="white" stroke="black" stroke-width="10"/>
<path d="M231.5 213L207 159" stroke="black" stroke-width="10"/>
<path d="M7.5 213L32 159" stroke="black" stroke-width="10"/>
<path d="M42 5H197C203.627 5 209 10.3726 209 17V150C209 156.627 203.627 162 197 162H42C35.3726 162 30 156.627 30 150V17C30 10.3726 35.3726 5 42 5Z" stroke="black" stroke-width="10"/>
<path d="M118.052 108.938V93.3281L147.825 46.5H161.99V67.3125H153.896L137.853 92.75V93.3281H181.79V108.938H118.052ZM154.04 120.5V104.168L154.474 97.375V46.5H173.263V120.5H154.04Z" fill="black"/>
<path d="M59.2097 120.5V46.5H111.241V62.6875H79.2996V75.4062H108.061V91.5938H79.2996V120.5H59.2097Z" fill="black"/>
</svg>
