<svg width="218" height="222" viewBox="0 0 218 222" fill="none" xmlns="http://www.w3.org/2000/svg">
<path d="M213 39.5632V205C213 211.627 207.627 217 201 217H17C10.3726 217 5 211.627 5 205V39.3847C5 36.0596 6.37964 32.8836 8.80984 30.6142L32.7806 8.22952C35.0029 6.15426 37.9302 5 40.9708 5H175.969C178.937 5 181.799 6.0997 184.003 8.08672L209.035 30.65C211.559 32.9255 213 36.1647 213 39.5632Z" fill="white" stroke="black" stroke-width="10"/>
<path d="M211.5 213L187 159" stroke="black" stroke-width="10"/>
<path d="M7.5 213L32 159" stroke="black" stroke-width="10"/>
<rect x="29.5" y="5" width="159" height="157" rx="12" stroke="black" stroke-width="10"/>
<path d="M143.609 43.5V123.5H125.484L96.5781 81.4687H96.1094V123.5H74.3906V43.5H92.8281L121.266 85.375H121.891V43.5H143.609Z" fill="black"/>
  <!-- made by UXKM, K.S.Chu -->
</svg>
