<svg width="218" height="222" viewBox="0 0 218 222" fill="none" xmlns="http://www.w3.org/2000/svg">
<path d="M213 39.5632V205C213 211.627 207.627 217 201 217H17C10.3726 217 5 211.627 5 205V39.3847C5 36.0596 6.37964 32.8836 8.80984 30.6142L32.7806 8.22952C35.0029 6.15426 37.9302 5 40.9708 5H175.969C178.937 5 181.799 6.0997 184.003 8.08672L209.035 30.65C211.559 32.9255 213 36.1647 213 39.5632Z" fill="white" stroke="black" stroke-width="10"/>
<path d="M84.8884 98.5133H133.725C143.896 98.5133 152.142 90.2675 152.142 80.0962V56.6725C152.142 53.688 149.723 51.2686 146.738 51.2686C143.754 51.2686 141.334 53.688 141.334 56.6725V80.0962C141.334 84.2986 137.927 87.7054 133.725 87.7054H84.8883L97.0879 76.2234L96.1564 75.2337L97.0879 76.2234C99.2612 74.178 99.3649 70.758 97.3194 68.5846C95.2739 66.4113 91.8539 66.3076 89.6806 68.3531C89.6806 68.3531 89.6806 68.3531 89.6806 68.3531L67.5582 89.1739L67.5579 89.1742C66.4732 90.1956 65.8579 91.6192 65.8579 93.1093C65.8579 94.5994 66.4731 96.0232 67.5582 97.0442C67.5582 97.0443 67.5583 97.0443 67.5583 97.0443L89.6805 117.865C91.8536 119.911 95.2736 119.808 97.3193 117.634C99.365 115.461 99.2611 112.04 97.0879 109.995L97.0879 109.995L84.8884 98.5133Z" fill="black" stroke="black" stroke-width="3"/>
<path d="M211.5 213L187 159" stroke="black" stroke-width="10"/>
<path d="M7.5 213L32 159" stroke="black" stroke-width="10"/>
<rect x="29" y="5" width="159" height="157" rx="12" stroke="black" stroke-width="10"/>
  <!-- made by UXKM, K.S.Chu -->
</svg>
