<svg width="530" height="350" viewBox="0 0 530 350" fill="none" xmlns="http://www.w3.org/2000/svg">
<rect x="10" y="190" width="150" height="150" rx="20" fill="white"/>
<rect x="10" y="190" width="150" height="150" rx="20" stroke="black" stroke-width="20"/>
<path d="M54.375 269.33C51.0417 267.406 51.0417 262.594 54.375 260.67L110.625 228.194C113.958 226.269 118.125 228.675 118.125 232.524L118.125 297.476C118.125 301.325 113.958 303.731 110.625 301.806L54.375 269.33Z" fill="black"/>
<rect x="190" y="190" width="150" height="150" rx="20" fill="white"/>
<rect x="190" y="190" width="150" height="150" rx="20" stroke="black" stroke-width="20"/>
<path d="M260.67 295.625C262.594 298.958 267.406 298.958 269.33 295.625L301.806 239.375C303.731 236.042 301.325 231.875 297.476 231.875H232.524C228.675 231.875 226.269 236.042 228.194 239.375L260.67 295.625Z" fill="black"/>
<rect x="190" y="10" width="150" height="150" rx="20" fill="white"/>
<rect x="190" y="10" width="150" height="150" rx="20" stroke="black" stroke-width="20"/>
<path d="M260.67 54.375C262.594 51.0417 267.406 51.0417 269.33 54.375L301.806 110.625C303.731 113.958 301.325 118.125 297.476 118.125H232.524C228.675 118.125 226.269 113.958 228.194 110.625L260.67 54.375Z" fill="black"/>
<rect x="370" y="190" width="150" height="150" rx="20" fill="white"/>
<rect x="370" y="190" width="150" height="150" rx="20" stroke="black" stroke-width="20"/>
<path d="M475.625 269.33C478.958 267.406 478.958 262.594 475.625 260.67L419.375 228.194C416.042 226.269 411.875 228.675 411.875 232.524L411.875 297.476C411.875 301.325 416.042 303.731 419.375 301.806L475.625 269.33Z" fill="black"/>
  <!-- made by UXKM, K.S.Chu -->
</svg>
