<svg width="218" height="222" viewBox="0 0 218 222" fill="none" xmlns="http://www.w3.org/2000/svg">
<path d="M213 39.5632V205C213 211.627 207.627 217 201 217H17C10.3726 217 5 211.627 5 205V39.3847C5 36.0596 6.37964 32.8836 8.80984 30.6142L32.7806 8.22952C35.0029 6.15426 37.9302 5 40.9708 5H175.969C178.937 5 181.799 6.0997 184.003 8.08672L209.035 30.65C211.559 32.9255 213 36.1647 213 39.5632Z" fill="white" stroke="black" stroke-width="10"/>
<path d="M211.5 213L187 159" stroke="black" stroke-width="10"/>
<path d="M7.5 213L32 159" stroke="black" stroke-width="10"/>
<rect x="29.5" y="5" width="159" height="157" rx="12" stroke="black" stroke-width="10"/>
<path d="M116.784 92.9396V127.499H94.7041V66.0598H115.664V77.7397H116.304C117.637 73.8464 119.984 70.7931 123.344 68.5797C126.731 66.3664 130.677 65.2598 135.184 65.2598C139.531 65.2598 143.304 66.2598 146.504 68.2597C149.73 70.2331 152.224 72.9531 153.984 76.4197C155.77 79.8863 156.65 83.8463 156.624 88.2996V127.499H134.544V92.9396C134.571 89.8996 133.797 87.513 132.224 85.7796C130.677 84.0463 128.517 83.1797 125.744 83.1797C123.931 83.1797 122.344 83.5797 120.984 84.3797C119.651 85.153 118.624 86.273 117.904 87.7396C117.184 89.1796 116.811 90.913 116.784 92.9396Z" fill="black"/>
<path d="M61.375 127.5V66.0599H83.4549V127.5H61.375ZM72.4149 59.6599C69.4283 59.6599 66.8683 58.6732 64.735 56.6999C62.6017 54.7266 61.535 52.3533 61.535 49.5799C61.535 46.8066 62.6017 44.4333 64.735 42.46C66.8683 40.4867 69.4283 39.5 72.4149 39.5C75.4283 39.5 77.9882 40.4867 80.0949 42.46C82.2282 44.4333 83.2949 46.8066 83.2949 49.5799C83.2949 52.3533 82.2282 54.7266 80.0949 56.6999C77.9882 58.6732 75.4283 59.6599 72.4149 59.6599Z" fill="black"/>
  <!-- made by UXKM, K.S.Chu -->
</svg>
