<svg width="238" height="222" viewBox="0 0 238 222" fill="none" xmlns="http://www.w3.org/2000/svg">
<path d="M40.9707 5H195.969C198.751 5 201.441 5.96639 203.583 7.72461L204.003 8.08691L229.034 30.6504C231.559 32.9259 233 36.1649 233 39.5635V205C233 211.627 227.627 217 221 217H17C10.3726 217 5 211.627 5 205V39.3848C5 36.1638 6.29481 33.0827 8.58496 30.8301L8.80957 30.6143L32.7803 8.22949C35.0026 6.15425 37.9301 5.00002 40.9707 5Z" fill="white" stroke="black" stroke-width="10"/>
<path d="M231.5 213L207 159" stroke="black" stroke-width="10"/>
<path d="M7.5 213L32 159" stroke="black" stroke-width="10"/>
<path d="M42 5H197C203.627 5 209 10.3726 209 17V150C209 156.627 203.627 162 197 162H42C35.3726 162 30 156.627 30 150V17C30 10.3726 35.3726 5 42 5Z" stroke="black" stroke-width="10"/>
<path d="M140.237 89.2813V120.5H120.292V65H139.225V75.5508H139.803C141.008 72.0339 143.127 69.2757 146.163 67.2764C149.222 65.277 152.787 64.2773 156.858 64.2773C160.784 64.2773 164.193 65.1807 167.083 66.9873C169.998 68.7699 172.25 71.2269 173.84 74.3584C175.454 77.4899 176.249 81.0671 176.225 85.0898V120.5H156.28V89.2813C156.304 86.5352 155.605 84.3792 154.184 82.8135C152.787 81.2477 150.836 80.4648 148.331 80.4648C146.693 80.4648 145.259 80.8262 144.031 81.5488C142.826 82.2474 141.899 83.2591 141.249 84.584C140.598 85.8848 140.261 87.4505 140.237 89.2813Z" fill="black"/>
<path d="M61.7744 120.5V46.5H113.806V62.6875H81.8643V75.4062H110.626V91.5938H81.8643V120.5H61.7744Z" fill="black"/>
</svg>
