<svg width="218" height="222" viewBox="0 0 218 222" fill="none" xmlns="http://www.w3.org/2000/svg">
<path d="M213 39.5632V205C213 211.627 207.627 217 201 217H17C10.3726 217 5 211.627 5 205V39.3847C5 36.0596 6.37964 32.8836 8.80984 30.6142L32.7806 8.22952C35.0029 6.15426 37.9302 5 40.9708 5H175.969C178.937 5 181.799 6.0997 184.003 8.08672L209.035 30.65C211.559 32.9255 213 36.1647 213 39.5632Z" fill="white" stroke="black" stroke-width="10"/>
<path d="M211.5 213L187 159" stroke="black" stroke-width="10"/>
<path d="M7.5 213L32 159" stroke="black" stroke-width="10"/>
<rect x="29.5" y="5" width="159" height="157" rx="12" stroke="black" stroke-width="10"/>
<mask id="path-5-outside-1_1414_14402" maskUnits="userSpaceOnUse" x="55.7538" y="34.5" width="107" height="98" fill="black">
<rect fill="white" x="55.7538" y="34.5" width="107" height="98"/>
<path fill-rule="evenodd" clip-rule="evenodd" d="M58.7538 37.5H86.3892L124.074 121.136H159.246V129.5H119.049L81.3646 45.8636H58.7538V37.5ZM117.374 37.5H159.246V45.8636H117.374V37.5Z"/>
</mask>
<path fill-rule="evenodd" clip-rule="evenodd" d="M58.7538 37.5H86.3892L124.074 121.136H159.246V129.5H119.049L81.3646 45.8636H58.7538V37.5ZM117.374 37.5H159.246V45.8636H117.374V37.5Z" fill="black"/>
<path d="M86.3892 37.5L89.1244 36.2676C88.6397 35.1917 87.5692 34.5 86.3892 34.5V37.5ZM58.7538 37.5V34.5C57.097 34.5 55.7538 35.8431 55.7538 37.5H58.7538ZM124.074 121.136L121.339 122.369C121.823 123.445 122.894 124.136 124.074 124.136V121.136ZM159.246 121.136H162.246C162.246 119.48 160.903 118.136 159.246 118.136V121.136ZM159.246 129.5V132.5C160.903 132.5 162.246 131.157 162.246 129.5H159.246ZM119.049 129.5L116.314 130.732C116.799 131.808 117.869 132.5 119.049 132.5V129.5ZM81.3646 45.8636L84.0998 44.6312C83.615 43.5554 82.5446 42.8636 81.3646 42.8636V45.8636ZM58.7538 45.8636H55.7538C55.7538 47.5205 57.097 48.8636 58.7538 48.8636V45.8636ZM159.246 37.5H162.246C162.246 35.8431 160.903 34.5 159.246 34.5V37.5ZM117.374 37.5V34.5C115.717 34.5 114.374 35.8431 114.374 37.5H117.374ZM159.246 45.8636V48.8636C160.903 48.8636 162.246 47.5205 162.246 45.8636H159.246ZM117.374 45.8636H114.374C114.374 47.5205 115.717 48.8636 117.374 48.8636V45.8636ZM86.3892 34.5H58.7538V40.5H86.3892V34.5ZM126.809 119.904L89.1244 36.2676L83.6541 38.7324L121.339 122.369L126.809 119.904ZM159.246 118.136H124.074V124.136H159.246V118.136ZM162.246 129.5V121.136H156.246V129.5H162.246ZM119.049 132.5H159.246V126.5H119.049V132.5ZM78.6294 47.096L116.314 130.732L121.784 128.268L84.0998 44.6312L78.6294 47.096ZM58.7538 48.8636H81.3646V42.8636H58.7538V48.8636ZM55.7538 37.5V45.8636H61.7538V37.5H55.7538ZM159.246 34.5H117.374V40.5H159.246V34.5ZM162.246 45.8636V37.5H156.246V45.8636H162.246ZM117.374 48.8636H159.246V42.8636H117.374V48.8636ZM114.374 37.5V45.8636H120.374V37.5H114.374Z" fill="black" mask="url(#path-5-outside-1_1414_14402)"/>
<!-- made by UXKM, K.S.Chu -->
</svg>
