<svg width="288" height="222" viewBox="0 0 288 222" fill="none" xmlns="http://www.w3.org/2000/svg">
<path d="M283 39.5632V205C283 211.627 277.627 217 271 217H17C10.3726 217 5 211.627 5 205V39.3847C5 36.0596 6.37964 32.8836 8.80984 30.6142L32.7806 8.22952C35.0029 6.15426 37.9302 5 40.9708 5H245.969C248.937 5 251.799 6.0997 254.003 8.08672L279.035 30.65C281.559 32.9255 283 36.1647 283 39.5632Z" fill="white" stroke="black" stroke-width="10"/>
<path d="M281.5 213L257 159" stroke="black" stroke-width="10"/>
<path d="M7.5 213L32 159" stroke="black" stroke-width="10"/>
<path d="M41 5H246C252.627 5 258 10.3726 258 17V150C258 156.627 252.627 162 246 162H41C34.3726 162 29 156.627 29 150V17C29 10.3726 34.3726 5 41 5Z" stroke="black" stroke-width="10"/>
<path d="M200.849 113.204C195.429 113.204 190.718 112.075 186.717 109.816C182.749 107.525 179.7 104.347 177.571 100.282C175.473 96.1845 174.425 91.4578 174.425 86.102C174.425 80.7461 175.49 76.0194 177.619 71.9218C179.748 67.8243 182.797 64.6462 186.766 62.3877C190.767 60.1292 195.461 59 200.849 59C205.592 59 209.77 59.8711 213.384 61.6134C216.997 63.3557 219.804 65.8239 221.805 69.018C223.837 72.1799 224.918 75.8742 225.047 80.1008H209.851C209.496 77.4229 208.544 75.3096 206.996 73.7609C205.447 72.2122 203.463 71.4217 201.043 71.3895C198.01 71.4217 195.59 72.6962 193.783 75.2128C191.977 77.6971 191.073 81.2139 191.073 85.7632C191.073 90.4738 191.944 94.1196 193.687 96.7008C195.461 99.2496 197.881 100.524 200.946 100.524C203.366 100.524 205.366 99.782 206.947 98.2978C208.528 96.8137 209.496 94.6842 209.851 91.9095H225.047C224.918 96.1684 223.854 99.9111 221.853 103.137C219.853 106.332 217.046 108.816 213.432 110.591C209.851 112.333 205.657 113.204 200.849 113.204Z" fill="black"/>
<path d="M151.97 75.9387C151.744 74.1965 150.905 72.8091 149.453 71.7766C148.001 70.7442 146.194 70.228 144.033 70.228C141.968 70.228 140.258 70.6474 138.903 71.4863C137.548 72.2929 136.87 73.3737 136.87 74.7288C136.87 77.0196 138.87 78.5521 142.871 79.3265L152.841 81.2623C158.068 82.2948 161.956 83.9725 164.504 86.2955C167.086 88.6186 168.392 91.6837 168.424 95.4909C168.392 99.0077 167.344 102.105 165.279 104.783C163.246 107.461 160.407 109.542 156.761 111.026C153.115 112.478 148.937 113.204 144.226 113.204C139.29 113.204 135.015 112.51 131.401 111.123C127.82 109.736 125.013 107.767 122.98 105.219C120.948 102.637 119.738 99.5884 119.351 96.0716H135.612C135.934 97.9429 136.838 99.3787 138.322 100.379C139.838 101.347 141.839 101.847 144.323 101.879C146.549 101.847 148.356 101.427 149.743 100.621C151.131 99.782 151.841 98.6527 151.873 97.2331C151.841 96.0393 151.292 95.0714 150.227 94.3293C149.163 93.5873 147.485 92.9742 145.194 92.4903L136.193 90.8448C131.03 89.8769 127.142 88.1185 124.529 85.5696C121.916 82.9885 120.641 79.6814 120.706 75.6483C120.673 72.2283 121.593 69.26 123.464 66.7434C125.336 64.2268 127.997 62.3071 131.45 60.9843C134.934 59.6614 139.032 59 143.742 59C148.421 59 152.47 59.6775 155.89 61.0326C159.342 62.3877 162.02 64.3397 163.924 66.8886C165.859 69.4375 166.94 72.4542 167.166 75.9387H151.97Z" fill="black"/>
<path d="M88.4733 113.204C83.0207 113.204 78.294 112.123 74.2932 109.961C70.3247 107.767 67.2757 104.654 65.1463 100.621C63.0169 96.5556 61.9521 91.7482 61.9521 86.1988C61.9521 80.8106 63.0169 76.0678 65.1463 71.9702C67.2757 67.8404 70.2925 64.6462 74.1964 62.3877C78.1327 60.1292 82.6981 59 87.8926 59C92.8613 59 97.2492 60.0325 101.056 62.0974C104.896 64.1623 107.88 67.2112 110.01 71.2443C112.171 75.2773 113.252 80.1331 113.252 85.8116V89.9737H78.0197V90.264C78.052 93.6518 79.0199 96.362 80.9235 98.3946C82.8594 100.395 85.4728 101.395 88.7637 101.395C90.9577 101.395 92.8613 100.944 94.4745 100.04C96.0877 99.1367 97.217 97.9107 97.8622 96.362H113.059C112.381 99.782 110.962 102.766 108.8 105.315C106.67 107.832 103.863 109.784 100.379 111.171C96.9266 112.526 92.9581 113.204 88.4733 113.204ZM98.0558 80.3912C98.0236 78.5521 97.588 76.9067 96.7491 75.4548C95.9103 74.0029 94.7487 72.8736 93.2646 72.067C91.7804 71.2281 90.1188 70.8087 88.2798 70.8087C86.4084 70.8087 84.6984 71.2281 83.1497 72.067C81.6333 72.9059 80.4073 74.0513 79.4716 75.5032C78.5682 76.955 78.0843 78.5844 78.0197 80.3912H98.0558Z" fill="black"/>
  <!-- made by UXKM, K.S.Chu -->
</svg>
