<svg width="288" height="222" viewBox="0 0 288 222" fill="none" xmlns="http://www.w3.org/2000/svg">
<path d="M283 39.5632V205C283 211.627 277.627 217 271 217H17C10.3726 217 5 211.627 5 205V39.3847C5 36.0596 6.37964 32.8836 8.80984 30.6142L32.7806 8.22952C35.0029 6.15426 37.9302 5 40.9708 5H245.969C248.937 5 251.799 6.0997 254.003 8.08672L279.035 30.65C281.559 32.9255 283 36.1647 283 39.5632Z" fill="white" stroke="black" stroke-width="10"/>
<path d="M281.5 213L257 159" stroke="black" stroke-width="10"/>
<path d="M7.5 213L32 159" stroke="black" stroke-width="10"/>
<path d="M41 5H246C252.627 5 258 10.3726 258 17V150C258 156.627 252.627 162 246 162H41C34.3726 162 29 156.627 29 150V17C29 10.3726 34.3726 5 41 5Z" stroke="black" stroke-width="10"/>
<path d="M212.338 65.6412V79.2775H177.838V65.6412H212.338ZM184.52 53.0957H203.338V101.164C203.338 101.891 203.463 102.505 203.713 103.005C203.963 103.482 204.349 103.846 204.872 104.096C205.395 104.323 206.065 104.437 206.884 104.437C207.452 104.437 208.111 104.368 208.861 104.232C209.634 104.096 210.202 103.982 210.565 103.891L213.293 117.118C212.452 117.368 211.247 117.675 209.679 118.039C208.134 118.403 206.293 118.641 204.156 118.755C199.838 118.982 196.213 118.539 193.281 117.425C190.349 116.289 188.145 114.505 186.668 112.073C185.19 109.641 184.474 106.596 184.52 102.937V53.0957Z" fill="black"/>
<path d="M171.523 48.1855V118.004H152.705V48.1855H171.523Z" fill="black"/>
<path d="M94.1619 118.004H73.7073L96.7528 48.1855H122.662L145.707 118.004H125.253L109.98 67.4128H109.435L94.1619 118.004ZM90.3437 90.4583H128.798V104.64H90.3437V90.4583Z" fill="black"/>
  <!-- made by UXKM, K.S.Chu -->
</svg>
