<svg width="268" height="222" viewBox="0 0 268 222" fill="none" xmlns="http://www.w3.org/2000/svg">
<path d="M250 217H17C10.3726 217 5 211.627 5 205V39.3847C5 36.0596 6.37964 32.8836 8.80984 30.6142L32.7806 8.22952C35.0029 6.15426 37.9302 5 40.9708 5H224.969C227.937 5 230.799 6.0997 233.003 8.08672L258.035 30.65C260.559 32.9255 262 36.1647 262 39.5632V127V205C262 211.627 256.627 217 250 217Z" fill="white" stroke="black" stroke-width="10"/>
<path d="M259.5 213L235 159" stroke="black" stroke-width="10"/>
<path d="M7.5 213L32 159" stroke="black" stroke-width="10"/>
<path d="M41 5H226C232.627 5 238 10.3726 238 17V150C238 156.627 232.627 162 226 162H41C34.3726 162 29 156.627 29 150V17C29 10.3726 34.3726 5 41 5Z" stroke="black" stroke-width="10"/>
<path fill-rule="evenodd" clip-rule="evenodd" d="M137.83 40.1885C135.853 37.6859 131.041 37.6859 129.17 40.1885L96.6939 81.4384C94.7694 84.7718 97.1751 88.9384 101.024 88.9384H113V123.688C113 126.45 115.239 128.688 118 128.688H149C151.761 128.688 154 126.45 154 123.688V88.9384H165.976C169.825 88.9384 172.231 84.7718 170.306 81.4384L137.83 40.1885Z" fill="black"/>
  <!-- made by UXKM, K.S.Chu -->
</svg>
