<svg width="297" height="222" viewBox="0 0 297 222" fill="none" xmlns="http://www.w3.org/2000/svg">
<path d="M280 217H17C10.3726 217 5 211.627 5 205V39.3847C5 36.0596 6.37964 32.8836 8.80984 30.6142L32.7806 8.22952C35.0029 6.15426 37.9302 5 40.9708 5H254.969C257.937 5 260.799 6.0997 263.003 8.08672L288.035 30.65C290.559 32.9255 292 36.1647 292 39.5632V127V205C292 211.627 286.627 217 280 217Z" fill="white" stroke="black" stroke-width="10"/>
<path d="M289.5 213L265 159" stroke="black" stroke-width="10"/>
<path d="M7.5 213L32 159" stroke="black" stroke-width="10"/>
<path d="M41 5H256C262.627 5 268 10.3726 268 17V150C268 156.627 262.627 162 256 162H41C34.3726 162 29 156.627 29 150V17C29 10.3726 34.3726 5 41 5Z" stroke="black" stroke-width="10"/>
<path d="M235.338 48.9541V118.772H216.52V48.9541H235.338Z" fill="black"/>
<path d="M174.895 118.772V66.4084H193.168V76.3629H193.713C194.668 72.6811 196.179 69.9879 198.247 68.2834C200.338 66.5788 202.781 65.7266 205.577 65.7266C206.395 65.7266 207.202 65.7947 207.997 65.9311C208.815 66.0447 209.6 66.2152 210.35 66.4425V82.4993C209.418 82.1811 208.27 81.9425 206.906 81.7834C205.543 81.6243 204.372 81.5447 203.395 81.5447C201.554 81.5447 199.895 81.9652 198.418 82.8061C196.963 83.6243 195.815 84.7834 194.975 86.2834C194.134 87.7607 193.713 89.4993 193.713 91.4993V118.772H174.895Z" fill="black"/>
<path d="M167.216 66.4087V80.0451H132.716V66.4087H167.216ZM139.398 53.8633H158.216V101.931C158.216 102.659 158.341 103.272 158.591 103.772C158.841 104.25 159.227 104.613 159.75 104.863C160.273 105.091 160.943 105.204 161.761 105.204C162.329 105.204 162.989 105.136 163.739 105C164.511 104.863 165.079 104.75 165.443 104.659L168.17 117.886C167.329 118.136 166.125 118.443 164.557 118.806C163.011 119.17 161.17 119.409 159.034 119.522C154.716 119.75 151.091 119.306 148.159 118.193C145.227 117.056 143.023 115.272 141.545 112.841C140.068 110.409 139.352 107.363 139.398 103.704V53.8633Z" fill="black"/>
<path d="M127.116 75.1364H107.889C107.753 73.5455 107.389 72.1023 106.798 70.8068C106.23 69.5114 105.434 68.3977 104.412 67.4659C103.412 66.5114 102.196 65.7841 100.764 65.2841C99.3321 64.7614 97.7071 64.5 95.8889 64.5C92.7071 64.5 90.0139 65.2727 87.8093 66.8182C85.6275 68.3636 83.9684 70.5795 82.8321 73.4659C81.7184 76.3523 81.1616 79.8182 81.1616 83.8636C81.1616 88.1364 81.7298 91.7159 82.8662 94.6023C84.0253 97.4659 85.6957 99.625 87.8775 101.08C90.0594 102.511 92.6844 103.227 95.7525 103.227C97.5025 103.227 99.0707 103.011 100.457 102.58C101.843 102.125 103.048 101.477 104.071 100.636C105.093 99.7955 105.923 98.7841 106.559 97.6023C107.218 96.3977 107.662 95.0455 107.889 93.5455L127.116 93.6818C126.889 96.6364 126.059 99.6477 124.628 102.716C123.196 105.761 121.162 108.58 118.525 111.17C115.912 113.739 112.673 115.807 108.809 117.375C104.946 118.943 100.457 119.727 95.3434 119.727C88.9343 119.727 83.1843 118.352 78.0934 115.602C73.0253 112.852 69.0139 108.807 66.0593 103.466C63.1275 98.125 61.6616 91.5909 61.6616 83.8636C61.6616 76.0909 63.1616 69.5455 66.1616 64.2273C69.1616 58.8864 73.2071 54.8523 78.298 52.125C83.3889 49.375 89.0707 48 95.3434 48C99.7525 48 103.809 48.6023 107.514 49.8068C111.218 51.0114 114.468 52.7727 117.264 55.0909C120.059 57.3864 122.309 60.2159 124.014 63.5795C125.718 66.9432 126.753 70.7955 127.116 75.1364Z" fill="black"/>
  <!-- made by UXKM, K.S.Chu -->
</svg>
