<svg width="218" height="222" viewBox="0 0 218 222" fill="none" xmlns="http://www.w3.org/2000/svg">
<path d="M213 39.5632V205C213 211.627 207.627 217 201 217H17C10.3726 217 5 211.627 5 205V39.3847C5 36.0596 6.37964 32.8836 8.80984 30.6142L32.7806 8.22952C35.0029 6.15426 37.9302 5 40.9708 5H175.969C178.937 5 181.799 6.0997 184.003 8.08672L209.035 30.65C211.559 32.9255 213 36.1647 213 39.5632Z" fill="white" stroke="black" stroke-width="10"/>
<path d="M211.5 213L187 159" stroke="black" stroke-width="10"/>
<path d="M7.5 213L32 159" stroke="black" stroke-width="10"/>
<rect x="29.5" y="5" width="159" height="157" rx="12" stroke="black" stroke-width="10"/>
<path d="M139.667 73.5C144.131 73.5 148.413 71.7265 151.57 68.5696C154.726 65.4128 156.5 61.1311 156.5 56.6667V52.8333C156.5 48.3689 154.726 44.0872 151.57 40.9304C148.413 37.7735 144.131 36 139.667 36H135.833C131.369 36 127.087 37.7735 123.93 40.9304C120.774 44.0872 119 48.3689 119 52.8333V62.8333H99V52.8333C99 48.3689 97.2265 44.0872 94.0696 40.9304C90.9128 37.7735 86.6311 36 82.1667 36H78.3333C73.8689 36 69.5872 37.7735 66.4304 40.9304C63.2735 44.0872 61.5 48.3689 61.5 52.8333V56.6667C61.5 61.1311 63.2735 65.4128 66.4304 68.5696C69.5872 71.7265 73.8689 73.5 78.3333 73.5H88.3333V93.5H78.3333C73.8689 93.5 69.5872 95.2735 66.4304 98.4304C63.2735 101.587 61.5 105.869 61.5 110.333V114.167C61.5 118.631 63.2735 122.913 66.4304 126.07C69.5872 129.226 73.8689 131 78.3333 131H82.1667C86.6311 131 90.9128 129.226 94.0696 126.07C97.2265 122.913 99 118.631 99 114.167V104.167H119V114.167C119 118.631 120.774 122.913 123.93 126.07C127.087 129.226 131.369 131 135.833 131H139.667C144.131 131 148.413 129.226 151.57 126.07C154.726 122.913 156.5 118.631 156.5 114.167V110.333C156.5 105.869 154.726 101.587 151.57 98.4304C148.413 95.2735 144.131 93.5 139.667 93.5H129.667V73.5H139.667ZM129.667 52.8333C129.667 51.1978 130.316 49.6293 131.473 48.4728C132.629 47.3164 134.198 46.6667 135.833 46.6667H139.667C141.302 46.6667 142.871 47.3164 144.027 48.4728C145.184 49.6293 145.833 51.1978 145.833 52.8333V56.6667C145.833 58.3022 145.184 59.8707 144.027 61.0272C142.871 62.1836 141.302 62.8333 139.667 62.8333H129.667V52.8333ZM78.3333 62.8333C76.6978 62.8333 75.1293 62.1836 73.9728 61.0272C72.8164 59.8707 72.1667 58.3022 72.1667 56.6667V52.8333C72.1667 51.1978 72.8164 49.6293 73.9728 48.4728C75.1293 47.3164 76.6978 46.6667 78.3333 46.6667H82.1667C83.8022 46.6667 85.3707 47.3164 86.5272 48.4728C87.6836 49.6293 88.3333 51.1978 88.3333 52.8333V62.8333H78.3333ZM88.3333 114.167C88.3333 115.802 87.6836 117.371 86.5272 118.527C85.3707 119.684 83.8022 120.333 82.1667 120.333H78.3333C76.6978 120.333 75.1293 119.684 73.9728 118.527C72.8164 117.371 72.1667 115.802 72.1667 114.167V110.333C72.1667 108.698 72.8164 107.129 73.9728 105.973C75.1293 104.816 76.6978 104.167 78.3333 104.167H88.3333V114.167ZM119 93.5H99V73.5H119V93.5ZM129.667 104.167H139.667C141.302 104.167 142.871 104.816 144.027 105.973C145.184 107.129 145.833 108.698 145.833 110.333V114.167C145.833 115.802 145.184 117.371 144.027 118.527C142.871 119.684 141.302 120.333 139.667 120.333H135.833C134.198 120.333 132.629 119.684 131.473 118.527C130.316 117.371 129.667 115.802 129.667 114.167V104.167Z" fill="black" stroke="black" stroke-width="3"/>
  <!-- made by UXKM, K.S.Chu -->
</svg>
