<svg width="500" height="90" viewBox="0 0 500 90" fill="none" xmlns="http://www.w3.org/2000/svg">
<path fill-rule="evenodd" clip-rule="evenodd" d="M500 0H0V45.0001H274.764L279.711 35.1056C280.057 34.4144 280.77 33.9842 281.542 34.0005C282.315 34.0168 283.009 34.4768 283.325 35.182L287.319 44.0912L296.044 3.08385C296.252 2.10488 297.152 1.43061 298.15 1.5057C299.148 1.58079 299.937 2.38211 299.996 3.38123L304.319 76.0069L313.082 46.4319C313.301 45.6939 313.924 45.1469 314.684 45.0252C315.444 44.9035 316.206 45.2288 316.644 45.8616L319.039 49.3207L324.147 36.7473C324.424 36.065 325.054 35.5902 325.786 35.5115C326.518 35.4328 327.235 35.7629 327.651 36.3707L333.555 45.0001H500V0ZM500 49.0001H332.5C331.84 49.0001 331.222 48.6743 330.849 48.1294L326.452 41.702L321.353 54.2528C321.076 54.9333 320.449 55.4075 319.719 55.488C318.989 55.5685 318.274 55.2424 317.856 54.6385L315.732 51.5706L304.918 88.0682C304.642 88.9994 303.737 89.5978 302.772 89.487C301.807 89.3762 301.061 88.5884 301.004 87.6189L296.881 18.3677L289.956 50.9163C289.776 51.7628 289.072 52.3974 288.211 52.4889C287.351 52.5803 286.529 52.1079 286.175 51.3182L281.401 40.6694L277.789 47.8945C277.45 48.5721 276.758 49.0001 276 49.0001H0V90H500V49.0001Z" fill="white"/>
<!-- made by UXKM, K.S.Chu -->
</svg>
