<svg width="538" height="197" viewBox="0 0 538 197" fill="none" xmlns="http://www.w3.org/2000/svg">
<rect x="59.5" y="42.5" width="477" height="153" stroke="black" stroke-width="3"/>
<rect x="61.5" y="44.5" width="79" height="29" stroke="black"/>
<path d="M84.7988 64H83.4795L78.4688 56.3301V64H77.1494V54.0469H78.4688L83.4932 61.751V54.0469H84.7988V64ZM91.498 63.2686C91.0059 63.8473 90.2835 64.1367 89.3311 64.1367C88.5426 64.1367 87.9411 63.9089 87.5264 63.4531C87.1162 62.9928 86.9089 62.3138 86.9043 61.416V56.6035H88.1689V61.3818C88.1689 62.5029 88.6247 63.0635 89.5361 63.0635C90.5023 63.0635 91.1449 62.7035 91.4639 61.9834V56.6035H92.7285V64H91.5254L91.498 63.2686ZM95.8457 56.6035L95.8799 57.4238C96.4222 56.7858 97.1536 56.4668 98.0742 56.4668C99.1087 56.4668 99.8128 56.8633 100.187 57.6562C100.433 57.3008 100.752 57.0137 101.144 56.7949C101.54 56.5762 102.007 56.4668 102.545 56.4668C104.167 56.4668 104.992 57.3258 105.02 59.0439V64H103.755V59.1191C103.755 58.5905 103.634 58.1963 103.393 57.9365C103.151 57.6722 102.745 57.54 102.176 57.54C101.706 57.54 101.317 57.6813 101.007 57.9639C100.697 58.2419 100.517 58.6178 100.467 59.0918V64H99.1953V59.1533C99.1953 58.0778 98.6689 57.54 97.6162 57.54C96.7868 57.54 96.2194 57.8932 95.9141 58.5996V64H94.6494V56.6035H95.8457ZM113.195 60.3838C113.195 61.514 112.936 62.4232 112.416 63.1113C111.896 63.7949 111.199 64.1367 110.324 64.1367C109.39 64.1367 108.668 63.8063 108.157 63.1455L108.096 64H106.934V53.5H108.198V57.417C108.709 56.7835 109.413 56.4668 110.311 56.4668C111.208 56.4668 111.912 56.8063 112.423 57.4854C112.938 58.1644 113.195 59.0941 113.195 60.2744V60.3838ZM111.931 60.2402C111.931 59.3789 111.764 58.7135 111.432 58.2441C111.099 57.7747 110.62 57.54 109.996 57.54C109.162 57.54 108.563 57.9274 108.198 58.7021V61.9014C108.586 62.6761 109.189 63.0635 110.01 63.0635C110.616 63.0635 111.088 62.8288 111.425 62.3594C111.762 61.89 111.931 61.1836 111.931 60.2402ZM117.864 64.1367C116.862 64.1367 116.046 63.8086 115.417 63.1523C114.788 62.4915 114.474 61.6097 114.474 60.5068V60.2744C114.474 59.5407 114.613 58.8867 114.891 58.3125C115.173 57.7337 115.565 57.2826 116.066 56.959C116.572 56.6309 117.119 56.4668 117.707 56.4668C118.669 56.4668 119.416 56.7835 119.949 57.417C120.482 58.0505 120.749 58.9574 120.749 60.1377V60.6641H115.738C115.757 61.3932 115.968 61.9834 116.374 62.4346C116.784 62.8812 117.304 63.1045 117.933 63.1045C118.379 63.1045 118.757 63.0133 119.067 62.8311C119.377 62.6488 119.648 62.4072 119.881 62.1064L120.653 62.708C120.034 63.6605 119.104 64.1367 117.864 64.1367ZM117.707 57.5059C117.197 57.5059 116.768 57.6927 116.422 58.0664C116.076 58.4355 115.861 58.9551 115.779 59.625H119.484V59.5293C119.448 58.8867 119.275 58.39 118.965 58.0391C118.655 57.6836 118.236 57.5059 117.707 57.5059ZM125.794 57.7383C125.603 57.7064 125.395 57.6904 125.172 57.6904C124.342 57.6904 123.78 58.0436 123.483 58.75V64H122.219V56.6035H123.449L123.47 57.458C123.884 56.7972 124.472 56.4668 125.233 56.4668C125.479 56.4668 125.666 56.4987 125.794 56.5625V57.7383Z" fill="black"/>
<rect x="61.5" y="74.5" width="79" height="29" fill="#5D98FA" fill-opacity="0.5"/>
<rect x="61.5" y="74.5" width="79" height="29" stroke="black"/>
<path d="M103.235 90.6572H104.616V91.6895H103.235V94H101.964V91.6895H97.4316V90.9443L101.889 84.0469H103.235V90.6572ZM98.8672 90.6572H101.964V85.7764L101.813 86.0498L98.8672 90.6572Z" fill="black"/>
<rect x="61.5" y="104.5" width="79" height="29" stroke="black"/>
<path d="M99.7354 118.408H100.686C101.283 118.399 101.752 118.242 102.094 117.937C102.436 117.631 102.606 117.219 102.606 116.699C102.606 115.533 102.025 114.949 100.863 114.949C100.316 114.949 99.8789 115.106 99.5508 115.421C99.2272 115.731 99.0654 116.143 99.0654 116.658H97.8008C97.8008 115.87 98.0879 115.216 98.6621 114.696C99.2409 114.172 99.9746 113.91 100.863 113.91C101.802 113.91 102.538 114.159 103.071 114.655C103.604 115.152 103.871 115.842 103.871 116.727C103.871 117.16 103.73 117.579 103.447 117.984C103.169 118.39 102.789 118.693 102.306 118.894C102.853 119.067 103.274 119.354 103.57 119.755C103.871 120.156 104.021 120.646 104.021 121.225C104.021 122.118 103.73 122.826 103.146 123.351C102.563 123.875 101.804 124.137 100.87 124.137C99.9359 124.137 99.1748 123.884 98.5869 123.378C98.0036 122.872 97.7119 122.204 97.7119 121.375H98.9834C98.9834 121.899 99.1543 122.318 99.4961 122.633C99.8379 122.947 100.296 123.104 100.87 123.104C101.481 123.104 101.948 122.945 102.271 122.626C102.595 122.307 102.757 121.849 102.757 121.252C102.757 120.673 102.579 120.229 102.224 119.919C101.868 119.609 101.355 119.45 100.686 119.44H99.7354V118.408Z" fill="black"/>
<rect x="61.5" y="134.5" width="79" height="29" stroke="black"/>
<path d="M104.418 154H97.8965V153.091L101.342 149.263C101.852 148.684 102.203 148.215 102.395 147.854C102.59 147.49 102.688 147.114 102.688 146.727C102.688 146.207 102.531 145.781 102.217 145.448C101.902 145.116 101.483 144.949 100.959 144.949C100.33 144.949 99.8402 145.129 99.4893 145.489C99.1429 145.845 98.9697 146.341 98.9697 146.979H97.7051C97.7051 146.063 97.999 145.323 98.5869 144.758C99.1794 144.193 99.9701 143.91 100.959 143.91C101.884 143.91 102.616 144.154 103.153 144.642C103.691 145.125 103.96 145.77 103.96 146.576C103.96 147.556 103.336 148.723 102.087 150.076L99.4209 152.968H104.418V154Z" fill="black"/>
<rect x="61.5" y="164.5" width="79" height="29" stroke="black"/>
<path d="M102.053 184H100.781V175.571L98.2314 176.508V175.359L101.854 173.999H102.053V184Z" fill="black"/>
<rect width="144" height="150" transform="translate(141 44)" fill="#1EFF00" fill-opacity="0.25"/>
<rect x="141.5" y="44.5" width="143" height="29" stroke="black"/>
<path d="M203.156 64H201.837L196.826 56.3301V64H195.507V54.0469H196.826L201.851 61.751V54.0469H203.156V64ZM209.855 64C209.783 63.8542 209.723 63.5944 209.678 63.2207C209.09 63.8314 208.388 64.1367 207.572 64.1367C206.843 64.1367 206.244 63.9316 205.774 63.5215C205.31 63.1068 205.077 62.5827 205.077 61.9492C205.077 61.179 205.369 60.582 205.952 60.1582C206.54 59.7298 207.365 59.5156 208.427 59.5156H209.657V58.9346C209.657 58.4925 209.525 58.1416 209.261 57.8818C208.996 57.6175 208.607 57.4854 208.092 57.4854C207.641 57.4854 207.262 57.5993 206.957 57.8271C206.652 58.055 206.499 58.3307 206.499 58.6543H205.228C205.228 58.2852 205.357 57.9297 205.617 57.5879C205.882 57.2415 206.237 56.9681 206.684 56.7676C207.135 56.5671 207.629 56.4668 208.167 56.4668C209.019 56.4668 209.687 56.681 210.17 57.1094C210.653 57.5332 210.904 58.1188 210.922 58.8662V62.2705C210.922 62.9495 211.008 63.4896 211.182 63.8906V64H209.855ZM207.757 63.0361C208.153 63.0361 208.529 62.9336 208.885 62.7285C209.24 62.5234 209.498 62.2568 209.657 61.9287V60.4111H208.666C207.117 60.4111 206.342 60.8646 206.342 61.7715C206.342 62.168 206.474 62.4779 206.738 62.7012C207.003 62.9245 207.342 63.0361 207.757 63.0361ZM214.094 56.6035L214.128 57.4238C214.67 56.7858 215.402 56.4668 216.322 56.4668C217.357 56.4668 218.061 56.8633 218.435 57.6562C218.681 57.3008 219 57.0137 219.392 56.7949C219.788 56.5762 220.255 56.4668 220.793 56.4668C222.415 56.4668 223.24 57.3258 223.268 59.0439V64H222.003V59.1191C222.003 58.5905 221.882 58.1963 221.641 57.9365C221.399 57.6722 220.993 57.54 220.424 57.54C219.954 57.54 219.565 57.6813 219.255 57.9639C218.945 58.2419 218.765 58.6178 218.715 59.0918V64H217.443V59.1533C217.443 58.0778 216.917 57.54 215.864 57.54C215.035 57.54 214.467 57.8932 214.162 58.5996V64H212.897V56.6035H214.094ZM228.251 64.1367C227.248 64.1367 226.433 63.8086 225.804 63.1523C225.175 62.4915 224.86 61.6097 224.86 60.5068V60.2744C224.86 59.5407 224.999 58.8867 225.277 58.3125C225.56 57.7337 225.952 57.2826 226.453 56.959C226.959 56.6309 227.506 56.4668 228.094 56.4668C229.055 56.4668 229.803 56.7835 230.336 57.417C230.869 58.0505 231.136 58.9574 231.136 60.1377V60.6641H226.125C226.143 61.3932 226.355 61.9834 226.761 62.4346C227.171 62.8812 227.69 63.1045 228.319 63.1045C228.766 63.1045 229.144 63.0133 229.454 62.8311C229.764 62.6488 230.035 62.4072 230.268 62.1064L231.04 62.708C230.42 63.6605 229.491 64.1367 228.251 64.1367ZM228.094 57.5059C227.583 57.5059 227.155 57.6927 226.809 58.0664C226.462 58.4355 226.248 58.9551 226.166 59.625H229.871V59.5293C229.835 58.8867 229.661 58.39 229.352 58.0391C229.042 57.6836 228.622 57.5059 228.094 57.5059Z" fill="black"/>
<rect x="141.5" y="74.5" width="143" height="29" fill="#5D98FA" fill-opacity="0.5"/>
<rect x="141.5" y="74.5" width="143" height="29" stroke="black"/>
<path d="M173.782 84.0469H175.102V91.0947C175.102 92.0472 174.814 92.7923 174.24 93.3301C173.671 93.8678 172.91 94.1367 171.957 94.1367C170.968 94.1367 170.198 93.8838 169.646 93.3779C169.095 92.8721 168.819 92.1634 168.819 91.252H170.132C170.132 91.8216 170.287 92.266 170.597 92.585C170.911 92.904 171.365 93.0635 171.957 93.0635C172.499 93.0635 172.937 92.8926 173.27 92.5508C173.607 92.209 173.778 91.7305 173.782 91.1152V84.0469ZM181.705 93.2686C181.213 93.8473 180.491 94.1367 179.538 94.1367C178.75 94.1367 178.148 93.9089 177.733 93.4531C177.323 92.9928 177.116 92.3138 177.111 91.416V86.6035H178.376V91.3818C178.376 92.5029 178.832 93.0635 179.743 93.0635C180.709 93.0635 181.352 92.7035 181.671 91.9834V86.6035H182.936V94H181.732L181.705 93.2686ZM186.06 86.6035L186.101 87.5332C186.666 86.8223 187.404 86.4668 188.315 86.4668C189.879 86.4668 190.667 87.3486 190.681 89.1123V94H189.416V89.1055C189.411 88.5723 189.288 88.1781 189.047 87.9229C188.81 87.6676 188.438 87.54 187.933 87.54C187.522 87.54 187.162 87.6494 186.853 87.8682C186.543 88.0869 186.301 88.374 186.128 88.7295V94H184.863V86.6035H186.06ZM194.652 90.5752L193.859 91.4023V94H192.595V83.5H193.859V89.8506L194.536 89.0371L196.84 86.6035H198.378L195.5 89.6934L198.713 94H197.229L194.652 90.5752ZM202.104 92.1475L203.826 86.6035H205.18L202.206 95.1416C201.746 96.3721 201.014 96.9873 200.012 96.9873L199.772 96.9668L199.301 96.8779V95.8525L199.643 95.8799C200.071 95.8799 200.404 95.7933 200.641 95.6201C200.882 95.4469 201.08 95.1302 201.235 94.6699L201.516 93.918L198.877 86.6035H200.258L202.104 92.1475ZM210.771 94C210.699 93.8542 210.639 93.5944 210.594 93.2207C210.006 93.8314 209.304 94.1367 208.488 94.1367C207.759 94.1367 207.16 93.9316 206.69 93.5215C206.226 93.1068 205.993 92.5827 205.993 91.9492C205.993 91.179 206.285 90.582 206.868 90.1582C207.456 89.7298 208.281 89.5156 209.343 89.5156H210.573V88.9346C210.573 88.4925 210.441 88.1416 210.177 87.8818C209.912 87.6175 209.523 87.4854 209.008 87.4854C208.557 87.4854 208.178 87.5993 207.873 87.8271C207.568 88.055 207.415 88.3307 207.415 88.6543H206.144C206.144 88.2852 206.273 87.9297 206.533 87.5879C206.798 87.2415 207.153 86.9681 207.6 86.7676C208.051 86.5671 208.545 86.4668 209.083 86.4668C209.935 86.4668 210.603 86.681 211.086 87.1094C211.569 87.5332 211.82 88.1188 211.838 88.8662V92.2705C211.838 92.9495 211.924 93.4896 212.098 93.8906V94H210.771ZM208.673 93.0361C209.069 93.0361 209.445 92.9336 209.801 92.7285C210.156 92.5234 210.414 92.2568 210.573 91.9287V90.4111H209.582C208.033 90.4111 207.258 90.8646 207.258 91.7715C207.258 92.168 207.39 92.4779 207.654 92.7012C207.919 92.9245 208.258 93.0361 208.673 93.0361ZM217.396 87.7383C217.204 87.7064 216.997 87.6904 216.773 87.6904C215.944 87.6904 215.381 88.0436 215.085 88.75V94H213.82V86.6035H215.051L215.071 87.458C215.486 86.7972 216.074 86.4668 216.835 86.4668C217.081 86.4668 217.268 86.4987 217.396 86.5625V87.7383ZM218.12 90.2402C218.12 89.1055 218.389 88.194 218.927 87.5059C219.465 86.8132 220.169 86.4668 221.039 86.4668C221.905 86.4668 222.591 86.763 223.097 87.3555V83.5H224.361V94H223.199L223.138 93.207C222.632 93.8268 221.928 94.1367 221.025 94.1367C220.169 94.1367 219.469 93.7858 218.927 93.084C218.389 92.3822 218.12 91.4661 218.12 90.3359V90.2402ZM219.385 90.3838C219.385 91.2223 219.558 91.8786 219.904 92.3525C220.251 92.8265 220.729 93.0635 221.34 93.0635C222.142 93.0635 222.728 92.7035 223.097 91.9834V88.5859C222.718 87.8887 222.137 87.54 221.354 87.54C220.734 87.54 220.251 87.7793 219.904 88.2578C219.558 88.7363 219.385 89.445 219.385 90.3838ZM237.322 90.8418C237.199 91.8945 236.81 92.708 236.153 93.2822C235.502 93.8519 234.633 94.1367 233.549 94.1367C232.373 94.1367 231.43 93.7152 230.719 92.8721C230.012 92.029 229.659 90.901 229.659 89.4883V88.5312C229.659 87.6061 229.823 86.7926 230.151 86.0908C230.484 85.389 230.953 84.8512 231.56 84.4775C232.166 84.0993 232.868 83.9102 233.665 83.9102C234.722 83.9102 235.57 84.2064 236.208 84.7988C236.846 85.3867 237.217 86.2025 237.322 87.2461H236.003C235.889 86.4531 235.641 85.8789 235.258 85.5234C234.88 85.168 234.349 84.9902 233.665 84.9902C232.826 84.9902 232.168 85.3001 231.689 85.9199C231.215 86.5397 230.979 87.4215 230.979 88.5654V89.5293C230.979 90.6094 231.204 91.4684 231.655 92.1064C232.106 92.7445 232.738 93.0635 233.549 93.0635C234.278 93.0635 234.836 92.8994 235.224 92.5713C235.616 92.2386 235.875 91.6621 236.003 90.8418H237.322ZM243.488 94C243.415 93.8542 243.356 93.5944 243.311 93.2207C242.723 93.8314 242.021 94.1367 241.205 94.1367C240.476 94.1367 239.877 93.9316 239.407 93.5215C238.942 93.1068 238.71 92.5827 238.71 91.9492C238.71 91.179 239.002 90.582 239.585 90.1582C240.173 89.7298 240.998 89.5156 242.06 89.5156H243.29V88.9346C243.29 88.4925 243.158 88.1416 242.894 87.8818C242.629 87.6175 242.24 87.4854 241.725 87.4854C241.273 87.4854 240.895 87.5993 240.59 87.8271C240.285 88.055 240.132 88.3307 240.132 88.6543H238.86C238.86 88.2852 238.99 87.9297 239.25 87.5879C239.514 87.2415 239.87 86.9681 240.316 86.7676C240.768 86.5671 241.262 86.4668 241.8 86.4668C242.652 86.4668 243.32 86.681 243.803 87.1094C244.286 87.5332 244.536 88.1188 244.555 88.8662V92.2705C244.555 92.9495 244.641 93.4896 244.814 93.8906V94H243.488ZM241.39 93.0361C241.786 93.0361 242.162 92.9336 242.518 92.7285C242.873 92.5234 243.131 92.2568 243.29 91.9287V90.4111H242.299C240.749 90.4111 239.975 90.8646 239.975 91.7715C239.975 92.168 240.107 92.4779 240.371 92.7012C240.635 92.9245 240.975 93.0361 241.39 93.0361ZM250.112 87.7383C249.921 87.7064 249.714 87.6904 249.49 87.6904C248.661 87.6904 248.098 88.0436 247.802 88.75V94H246.537V86.6035H247.768L247.788 87.458C248.203 86.7972 248.791 86.4668 249.552 86.4668C249.798 86.4668 249.985 86.4987 250.112 86.5625V87.7383ZM255.588 92.0381C255.588 91.6963 255.458 91.432 255.198 91.2451C254.943 91.0537 254.494 90.8896 253.852 90.7529C253.214 90.6162 252.705 90.4521 252.327 90.2607C251.953 90.0693 251.675 89.8415 251.493 89.5771C251.315 89.3128 251.227 88.9984 251.227 88.6338C251.227 88.0277 251.482 87.515 251.992 87.0957C252.507 86.6764 253.163 86.4668 253.961 86.4668C254.799 86.4668 255.479 86.6833 255.998 87.1162C256.522 87.5492 256.784 88.1029 256.784 88.7773H255.513C255.513 88.431 255.365 88.1325 255.068 87.8818C254.777 87.6312 254.408 87.5059 253.961 87.5059C253.501 87.5059 253.141 87.6061 252.881 87.8066C252.621 88.0072 252.491 88.2692 252.491 88.5928C252.491 88.8981 252.612 89.1283 252.854 89.2832C253.095 89.4382 253.53 89.5863 254.159 89.7275C254.793 89.8688 255.305 90.0374 255.697 90.2334C256.089 90.4294 256.379 90.6663 256.565 90.9443C256.757 91.2178 256.853 91.5527 256.853 91.9492C256.853 92.61 256.588 93.141 256.06 93.542C255.531 93.9385 254.845 94.1367 254.002 94.1367C253.41 94.1367 252.885 94.0319 252.43 93.8223C251.974 93.6126 251.616 93.321 251.356 92.9473C251.101 92.569 250.974 92.1611 250.974 91.7236H252.238C252.261 92.1475 252.43 92.4847 252.744 92.7354C253.063 92.9814 253.482 93.1045 254.002 93.1045C254.48 93.1045 254.863 93.0088 255.15 92.8174C255.442 92.6214 255.588 92.3617 255.588 92.0381Z" fill="black"/>
<rect x="141.5" y="104.5" width="143" height="29" stroke="black"/>
<path d="M176.373 119.563C175.247 119.24 174.427 118.843 173.912 118.374C173.402 117.9 173.146 117.317 173.146 116.624C173.146 115.84 173.459 115.193 174.083 114.683C174.712 114.168 175.528 113.91 176.53 113.91C177.214 113.91 177.822 114.042 178.355 114.307C178.893 114.571 179.308 114.936 179.6 115.4C179.896 115.865 180.044 116.373 180.044 116.925H178.725C178.725 116.323 178.533 115.852 178.15 115.51C177.768 115.163 177.228 114.99 176.53 114.99C175.883 114.99 175.377 115.134 175.013 115.421C174.653 115.703 174.473 116.098 174.473 116.604C174.473 117.009 174.644 117.353 174.985 117.636C175.332 117.914 175.917 118.169 176.742 118.401C177.572 118.634 178.219 118.891 178.684 119.174C179.153 119.452 179.499 119.778 179.723 120.151C179.951 120.525 180.064 120.965 180.064 121.471C180.064 122.277 179.75 122.924 179.121 123.412C178.492 123.895 177.651 124.137 176.599 124.137C175.915 124.137 175.277 124.007 174.685 123.747C174.092 123.483 173.634 123.123 173.311 122.667C172.992 122.211 172.832 121.694 172.832 121.115H174.151C174.151 121.717 174.372 122.193 174.814 122.544C175.261 122.89 175.856 123.063 176.599 123.063C177.291 123.063 177.822 122.922 178.191 122.64C178.561 122.357 178.745 121.972 178.745 121.484C178.745 120.997 178.574 120.621 178.232 120.356C177.891 120.088 177.271 119.823 176.373 119.563ZM182.929 124H181.664V116.604H182.929V124ZM181.562 114.642C181.562 114.437 181.623 114.263 181.746 114.122C181.874 113.981 182.061 113.91 182.307 113.91C182.553 113.91 182.74 113.981 182.867 114.122C182.995 114.263 183.059 114.437 183.059 114.642C183.059 114.847 182.995 115.018 182.867 115.154C182.74 115.291 182.553 115.359 182.307 115.359C182.061 115.359 181.874 115.291 181.746 115.154C181.623 115.018 181.562 114.847 181.562 114.642ZM187.44 119.304L189.081 116.604H190.558L188.138 120.261L190.633 124H189.17L187.461 121.231L185.752 124H184.282L186.777 120.261L184.357 116.604H185.82L187.44 119.304ZM193.278 124H192.014V116.604H193.278V124ZM191.911 114.642C191.911 114.437 191.973 114.263 192.096 114.122C192.223 113.981 192.41 113.91 192.656 113.91C192.902 113.91 193.089 113.981 193.217 114.122C193.344 114.263 193.408 114.437 193.408 114.642C193.408 114.847 193.344 115.018 193.217 115.154C193.089 115.291 192.902 115.359 192.656 115.359C192.41 115.359 192.223 115.291 192.096 115.154C191.973 115.018 191.911 114.847 191.911 114.642ZM197.024 114.812V116.604H198.405V117.581H197.024V122.168C197.024 122.464 197.086 122.688 197.209 122.838C197.332 122.984 197.542 123.057 197.838 123.057C197.984 123.057 198.184 123.029 198.439 122.975V124C198.107 124.091 197.783 124.137 197.469 124.137C196.904 124.137 196.478 123.966 196.19 123.624C195.903 123.282 195.76 122.797 195.76 122.168V117.581H194.413V116.604H195.76V114.812H197.024ZM202.958 124.137C201.955 124.137 201.14 123.809 200.511 123.152C199.882 122.492 199.567 121.61 199.567 120.507V120.274C199.567 119.541 199.706 118.887 199.984 118.312C200.267 117.734 200.659 117.283 201.16 116.959C201.666 116.631 202.213 116.467 202.801 116.467C203.762 116.467 204.51 116.784 205.043 117.417C205.576 118.05 205.843 118.957 205.843 120.138V120.664H200.832C200.85 121.393 201.062 121.983 201.468 122.435C201.878 122.881 202.397 123.104 203.026 123.104C203.473 123.104 203.851 123.013 204.161 122.831C204.471 122.649 204.742 122.407 204.975 122.106L205.747 122.708C205.127 123.66 204.198 124.137 202.958 124.137ZM202.801 117.506C202.29 117.506 201.862 117.693 201.516 118.066C201.169 118.436 200.955 118.955 200.873 119.625H204.578V119.529C204.542 118.887 204.368 118.39 204.059 118.039C203.749 117.684 203.329 117.506 202.801 117.506ZM211.619 122.038C211.619 121.696 211.489 121.432 211.229 121.245C210.974 121.054 210.525 120.89 209.883 120.753C209.245 120.616 208.737 120.452 208.358 120.261C207.985 120.069 207.707 119.841 207.524 119.577C207.347 119.313 207.258 118.998 207.258 118.634C207.258 118.028 207.513 117.515 208.023 117.096C208.538 116.676 209.195 116.467 209.992 116.467C210.831 116.467 211.51 116.683 212.029 117.116C212.553 117.549 212.815 118.103 212.815 118.777H211.544C211.544 118.431 211.396 118.132 211.1 117.882C210.808 117.631 210.439 117.506 209.992 117.506C209.532 117.506 209.172 117.606 208.912 117.807C208.652 118.007 208.522 118.269 208.522 118.593C208.522 118.898 208.643 119.128 208.885 119.283C209.126 119.438 209.562 119.586 210.19 119.728C210.824 119.869 211.337 120.037 211.729 120.233C212.12 120.429 212.41 120.666 212.597 120.944C212.788 121.218 212.884 121.553 212.884 121.949C212.884 122.61 212.619 123.141 212.091 123.542C211.562 123.938 210.876 124.137 210.033 124.137C209.441 124.137 208.917 124.032 208.461 123.822C208.005 123.613 207.647 123.321 207.388 122.947C207.132 122.569 207.005 122.161 207.005 121.724H208.27C208.292 122.147 208.461 122.485 208.775 122.735C209.094 122.981 209.514 123.104 210.033 123.104C210.512 123.104 210.895 123.009 211.182 122.817C211.473 122.621 211.619 122.362 211.619 122.038ZM218.202 124V114.047H221.012C221.878 114.047 222.643 114.238 223.309 114.621C223.974 115.004 224.487 115.549 224.847 116.255C225.211 116.961 225.396 117.772 225.4 118.688V119.324C225.4 120.263 225.218 121.086 224.854 121.792C224.493 122.498 223.976 123.041 223.302 123.419C222.632 123.797 221.85 123.991 220.957 124H218.202ZM219.515 115.127V122.927H220.896C221.907 122.927 222.693 122.612 223.254 121.983C223.819 121.354 224.102 120.459 224.102 119.297V118.716C224.102 117.586 223.835 116.708 223.302 116.084C222.773 115.455 222.021 115.136 221.046 115.127H219.515ZM230.261 124.137C229.258 124.137 228.442 123.809 227.813 123.152C227.185 122.492 226.87 121.61 226.87 120.507V120.274C226.87 119.541 227.009 118.887 227.287 118.312C227.57 117.734 227.962 117.283 228.463 116.959C228.969 116.631 229.516 116.467 230.104 116.467C231.065 116.467 231.812 116.784 232.346 117.417C232.879 118.05 233.146 118.957 233.146 120.138V120.664H228.135C228.153 121.393 228.365 121.983 228.771 122.435C229.181 122.881 229.7 123.104 230.329 123.104C230.776 123.104 231.154 123.013 231.464 122.831C231.774 122.649 232.045 122.407 232.277 122.106L233.05 122.708C232.43 123.66 231.5 124.137 230.261 124.137ZM230.104 117.506C229.593 117.506 229.165 117.693 228.818 118.066C228.472 118.436 228.258 118.955 228.176 119.625H231.881V119.529C231.844 118.887 231.671 118.39 231.361 118.039C231.051 117.684 230.632 117.506 230.104 117.506ZM237.582 123.104C238.033 123.104 238.427 122.968 238.765 122.694C239.102 122.421 239.289 122.079 239.325 121.669H240.521C240.499 122.093 240.353 122.496 240.084 122.879C239.815 123.262 239.455 123.567 239.004 123.795C238.557 124.023 238.083 124.137 237.582 124.137C236.575 124.137 235.773 123.802 235.176 123.132C234.583 122.457 234.287 121.537 234.287 120.37V120.158C234.287 119.438 234.419 118.798 234.684 118.237C234.948 117.677 235.326 117.242 235.818 116.932C236.315 116.622 236.901 116.467 237.575 116.467C238.405 116.467 239.093 116.715 239.64 117.212C240.191 117.709 240.485 118.354 240.521 119.146H239.325C239.289 118.668 239.106 118.276 238.778 117.971C238.455 117.661 238.054 117.506 237.575 117.506C236.933 117.506 236.434 117.738 236.078 118.203C235.727 118.663 235.552 119.331 235.552 120.206V120.445C235.552 121.298 235.727 121.954 236.078 122.414C236.429 122.874 236.93 123.104 237.582 123.104ZM241.608 120.233C241.608 119.509 241.75 118.857 242.032 118.278C242.319 117.7 242.716 117.253 243.222 116.938C243.732 116.624 244.313 116.467 244.965 116.467C245.972 116.467 246.785 116.815 247.405 117.513C248.03 118.21 248.342 119.137 248.342 120.295V120.384C248.342 121.104 248.203 121.751 247.925 122.325C247.651 122.895 247.257 123.339 246.742 123.658C246.232 123.977 245.644 124.137 244.979 124.137C243.976 124.137 243.162 123.788 242.538 123.091C241.918 122.394 241.608 121.471 241.608 120.322V120.233ZM242.88 120.384C242.88 121.204 243.069 121.863 243.447 122.359C243.83 122.856 244.34 123.104 244.979 123.104C245.621 123.104 246.132 122.854 246.51 122.353C246.888 121.847 247.077 121.14 247.077 120.233C247.077 119.422 246.883 118.766 246.496 118.265C246.113 117.759 245.603 117.506 244.965 117.506C244.34 117.506 243.837 117.754 243.454 118.251C243.071 118.748 242.88 119.459 242.88 120.384ZM253.503 117.738C253.312 117.706 253.104 117.69 252.881 117.69C252.051 117.69 251.489 118.044 251.192 118.75V124H249.928V116.604H251.158L251.179 117.458C251.593 116.797 252.181 116.467 252.942 116.467C253.188 116.467 253.375 116.499 253.503 116.562V117.738Z" fill="black"/>
<rect x="141.5" y="134.5" width="143" height="29" stroke="black"/>
<path d="M194.051 149.345C194.051 150.32 193.887 151.172 193.559 151.901C193.23 152.626 192.766 153.18 192.164 153.562C191.562 153.945 190.861 154.137 190.059 154.137C189.275 154.137 188.58 153.945 187.974 153.562C187.368 153.175 186.896 152.626 186.559 151.915C186.226 151.2 186.055 150.372 186.046 149.434V148.716C186.046 147.759 186.212 146.913 186.545 146.18C186.878 145.446 187.347 144.885 187.953 144.498C188.564 144.106 189.261 143.91 190.045 143.91C190.842 143.91 191.544 144.104 192.15 144.491C192.761 144.874 193.23 145.432 193.559 146.166C193.887 146.895 194.051 147.745 194.051 148.716V149.345ZM192.745 148.702C192.745 147.522 192.508 146.617 192.034 145.988C191.56 145.355 190.897 145.038 190.045 145.038C189.215 145.038 188.562 145.355 188.083 145.988C187.609 146.617 187.365 147.492 187.352 148.613V149.345C187.352 150.489 187.591 151.389 188.069 152.045C188.552 152.697 189.215 153.022 190.059 153.022C190.906 153.022 191.562 152.715 192.027 152.1C192.492 151.48 192.731 150.593 192.745 149.44V148.702ZM202.083 150.384C202.083 151.514 201.823 152.423 201.304 153.111C200.784 153.795 200.087 154.137 199.212 154.137C198.278 154.137 197.555 153.806 197.045 153.146L196.983 154H195.821V143.5H197.086V147.417C197.596 146.784 198.3 146.467 199.198 146.467C200.096 146.467 200.8 146.806 201.311 147.485C201.826 148.164 202.083 149.094 202.083 150.274V150.384ZM200.818 150.24C200.818 149.379 200.652 148.714 200.319 148.244C199.987 147.775 199.508 147.54 198.884 147.54C198.05 147.54 197.451 147.927 197.086 148.702V151.901C197.473 152.676 198.077 153.063 198.897 153.063C199.504 153.063 199.975 152.829 200.312 152.359C200.65 151.89 200.818 151.184 200.818 150.24ZM207.989 152.038C207.989 151.696 207.859 151.432 207.6 151.245C207.344 151.054 206.896 150.89 206.253 150.753C205.615 150.616 205.107 150.452 204.729 150.261C204.355 150.069 204.077 149.841 203.895 149.577C203.717 149.313 203.628 148.998 203.628 148.634C203.628 148.028 203.883 147.515 204.394 147.096C204.909 146.676 205.565 146.467 206.362 146.467C207.201 146.467 207.88 146.683 208.399 147.116C208.924 147.549 209.186 148.103 209.186 148.777H207.914C207.914 148.431 207.766 148.132 207.47 147.882C207.178 147.631 206.809 147.506 206.362 147.506C205.902 147.506 205.542 147.606 205.282 147.807C205.022 148.007 204.893 148.269 204.893 148.593C204.893 148.898 205.013 149.128 205.255 149.283C205.496 149.438 205.932 149.586 206.561 149.728C207.194 149.869 207.707 150.037 208.099 150.233C208.491 150.429 208.78 150.666 208.967 150.944C209.158 151.218 209.254 151.553 209.254 151.949C209.254 152.61 208.99 153.141 208.461 153.542C207.932 153.938 207.246 154.137 206.403 154.137C205.811 154.137 205.287 154.032 204.831 153.822C204.375 153.613 204.018 153.321 203.758 152.947C203.503 152.569 203.375 152.161 203.375 151.724H204.64C204.662 152.147 204.831 152.485 205.146 152.735C205.465 152.981 205.884 153.104 206.403 153.104C206.882 153.104 207.265 153.009 207.552 152.817C207.843 152.621 207.989 152.362 207.989 152.038ZM210.566 150.233C210.566 149.509 210.708 148.857 210.99 148.278C211.277 147.7 211.674 147.253 212.18 146.938C212.69 146.624 213.271 146.467 213.923 146.467C214.93 146.467 215.743 146.815 216.363 147.513C216.988 148.21 217.3 149.137 217.3 150.295V150.384C217.3 151.104 217.161 151.751 216.883 152.325C216.609 152.895 216.215 153.339 215.7 153.658C215.19 153.977 214.602 154.137 213.937 154.137C212.934 154.137 212.12 153.788 211.496 153.091C210.876 152.394 210.566 151.471 210.566 150.322V150.233ZM211.838 150.384C211.838 151.204 212.027 151.863 212.405 152.359C212.788 152.856 213.299 153.104 213.937 153.104C214.579 153.104 215.09 152.854 215.468 152.353C215.846 151.847 216.035 151.14 216.035 150.233C216.035 149.422 215.841 148.766 215.454 148.265C215.071 147.759 214.561 147.506 213.923 147.506C213.299 147.506 212.795 147.754 212.412 148.251C212.029 148.748 211.838 149.459 211.838 150.384ZM220.26 154H218.995V143.5H220.26V154ZM225.359 154.137C224.357 154.137 223.541 153.809 222.912 153.152C222.283 152.492 221.969 151.61 221.969 150.507V150.274C221.969 149.541 222.108 148.887 222.386 148.312C222.668 147.734 223.06 147.283 223.562 146.959C224.067 146.631 224.614 146.467 225.202 146.467C226.164 146.467 226.911 146.784 227.444 147.417C227.978 148.05 228.244 148.957 228.244 150.138V150.664H223.233C223.252 151.393 223.464 151.983 223.869 152.435C224.279 152.881 224.799 153.104 225.428 153.104C225.874 153.104 226.253 153.013 226.562 152.831C226.872 152.649 227.144 152.407 227.376 152.106L228.148 152.708C227.529 153.66 226.599 154.137 225.359 154.137ZM225.202 147.506C224.692 147.506 224.263 147.693 223.917 148.066C223.571 148.436 223.356 148.955 223.274 149.625H226.979V149.529C226.943 148.887 226.77 148.39 226.46 148.039C226.15 147.684 225.731 147.506 225.202 147.506ZM231.43 144.812V146.604H232.811V147.581H231.43V152.168C231.43 152.464 231.491 152.688 231.614 152.838C231.737 152.984 231.947 153.057 232.243 153.057C232.389 153.057 232.59 153.029 232.845 152.975V154C232.512 154.091 232.188 154.137 231.874 154.137C231.309 154.137 230.883 153.966 230.596 153.624C230.309 153.282 230.165 152.797 230.165 152.168V147.581H228.818V146.604H230.165V144.812H231.43ZM237.363 154.137C236.361 154.137 235.545 153.809 234.916 153.152C234.287 152.492 233.973 151.61 233.973 150.507V150.274C233.973 149.541 234.112 148.887 234.39 148.312C234.672 147.734 235.064 147.283 235.565 146.959C236.071 146.631 236.618 146.467 237.206 146.467C238.168 146.467 238.915 146.784 239.448 147.417C239.981 148.05 240.248 148.957 240.248 150.138V150.664H235.237C235.256 151.393 235.467 151.983 235.873 152.435C236.283 152.881 236.803 153.104 237.432 153.104C237.878 153.104 238.257 153.013 238.566 152.831C238.876 152.649 239.147 152.407 239.38 152.106L240.152 152.708C239.533 153.66 238.603 154.137 237.363 154.137ZM237.206 147.506C236.696 147.506 236.267 147.693 235.921 148.066C235.575 148.436 235.36 148.955 235.278 149.625H238.983V149.529C238.947 148.887 238.774 148.39 238.464 148.039C238.154 147.684 237.735 147.506 237.206 147.506Z" fill="black"/>
<rect x="141.5" y="164.5" width="143" height="29" stroke="black"/>
<path d="M167.596 175.127H164.396V184H163.091V175.127H159.898V174.047H167.596V175.127ZM171.26 184.137C170.257 184.137 169.441 183.809 168.812 183.152C168.184 182.492 167.869 181.61 167.869 180.507V180.274C167.869 179.541 168.008 178.887 168.286 178.312C168.569 177.734 168.961 177.283 169.462 176.959C169.968 176.631 170.515 176.467 171.103 176.467C172.064 176.467 172.812 176.784 173.345 177.417C173.878 178.05 174.145 178.957 174.145 180.138V180.664H169.134C169.152 181.393 169.364 181.983 169.77 182.435C170.18 182.881 170.699 183.104 171.328 183.104C171.775 183.104 172.153 183.013 172.463 182.831C172.773 182.649 173.044 182.407 173.276 182.106L174.049 182.708C173.429 183.66 172.499 184.137 171.26 184.137ZM171.103 177.506C170.592 177.506 170.164 177.693 169.817 178.066C169.471 178.436 169.257 178.955 169.175 179.625H172.88V179.529C172.843 178.887 172.67 178.39 172.36 178.039C172.05 177.684 171.631 177.506 171.103 177.506ZM176.879 177.499C177.439 176.811 178.169 176.467 179.066 176.467C180.63 176.467 181.418 177.349 181.432 179.112V184H180.167V179.105C180.162 178.572 180.039 178.178 179.798 177.923C179.561 177.668 179.189 177.54 178.684 177.54C178.273 177.54 177.913 177.649 177.604 177.868C177.294 178.087 177.052 178.374 176.879 178.729V184H175.614V173.5H176.879V177.499ZM184.521 176.604L184.562 177.533C185.128 176.822 185.866 176.467 186.777 176.467C188.34 176.467 189.129 177.349 189.143 179.112V184H187.878V179.105C187.873 178.572 187.75 178.178 187.509 177.923C187.272 177.668 186.9 177.54 186.395 177.54C185.984 177.54 185.624 177.649 185.314 177.868C185.005 178.087 184.763 178.374 184.59 178.729V184H183.325V176.604H184.521ZM190.715 180.233C190.715 179.509 190.856 178.857 191.139 178.278C191.426 177.7 191.822 177.253 192.328 176.938C192.839 176.624 193.42 176.467 194.071 176.467C195.078 176.467 195.892 176.815 196.512 177.513C197.136 178.21 197.448 179.137 197.448 180.295V180.384C197.448 181.104 197.309 181.751 197.031 182.325C196.758 182.895 196.364 183.339 195.849 183.658C195.338 183.977 194.75 184.137 194.085 184.137C193.082 184.137 192.269 183.788 191.645 183.091C191.025 182.394 190.715 181.471 190.715 180.322V180.233ZM191.986 180.384C191.986 181.204 192.175 181.863 192.554 182.359C192.937 182.856 193.447 183.104 194.085 183.104C194.728 183.104 195.238 182.854 195.616 182.353C195.994 181.847 196.184 181.14 196.184 180.233C196.184 179.422 195.99 178.766 195.603 178.265C195.22 177.759 194.709 177.506 194.071 177.506C193.447 177.506 192.943 177.754 192.561 178.251C192.178 178.748 191.986 179.459 191.986 180.384ZM200.408 184H199.144V173.5H200.408V184ZM202.104 180.233C202.104 179.509 202.245 178.857 202.527 178.278C202.814 177.7 203.211 177.253 203.717 176.938C204.227 176.624 204.808 176.467 205.46 176.467C206.467 176.467 207.281 176.815 207.9 177.513C208.525 178.21 208.837 179.137 208.837 180.295V180.384C208.837 181.104 208.698 181.751 208.42 182.325C208.146 182.895 207.752 183.339 207.237 183.658C206.727 183.977 206.139 184.137 205.474 184.137C204.471 184.137 203.658 183.788 203.033 183.091C202.413 182.394 202.104 181.471 202.104 180.322V180.233ZM203.375 180.384C203.375 181.204 203.564 181.863 203.942 182.359C204.325 182.856 204.836 183.104 205.474 183.104C206.116 183.104 206.627 182.854 207.005 182.353C207.383 181.847 207.572 181.14 207.572 180.233C207.572 179.422 207.379 178.766 206.991 178.265C206.608 177.759 206.098 177.506 205.46 177.506C204.836 177.506 204.332 177.754 203.949 178.251C203.566 178.748 203.375 179.459 203.375 180.384ZM210.122 180.24C210.122 179.087 210.389 178.171 210.922 177.492C211.455 176.809 212.161 176.467 213.041 176.467C213.943 176.467 214.647 176.786 215.153 177.424L215.215 176.604H216.37V183.822C216.37 184.779 216.085 185.534 215.516 186.085C214.951 186.636 214.189 186.912 213.232 186.912C212.699 186.912 212.177 186.798 211.667 186.57C211.157 186.342 210.767 186.03 210.498 185.634L211.154 184.875C211.697 185.545 212.36 185.88 213.144 185.88C213.759 185.88 214.237 185.707 214.579 185.36C214.925 185.014 215.099 184.526 215.099 183.897V183.262C214.593 183.845 213.902 184.137 213.027 184.137C212.161 184.137 211.46 183.788 210.922 183.091C210.389 182.394 210.122 181.443 210.122 180.24ZM211.394 180.384C211.394 181.218 211.564 181.874 211.906 182.353C212.248 182.826 212.727 183.063 213.342 183.063C214.139 183.063 214.725 182.701 215.099 181.977V178.6C214.711 177.893 214.13 177.54 213.355 177.54C212.74 177.54 212.259 177.779 211.913 178.258C211.567 178.736 211.394 179.445 211.394 180.384ZM220.704 182.147L222.427 176.604H223.78L220.807 185.142C220.346 186.372 219.615 186.987 218.612 186.987L218.373 186.967L217.901 186.878V185.853L218.243 185.88C218.672 185.88 219.004 185.793 219.241 185.62C219.483 185.447 219.681 185.13 219.836 184.67L220.116 183.918L217.478 176.604H218.858L220.704 182.147ZM228.586 184V174.047H231.84C232.92 174.047 233.731 174.27 234.273 174.717C234.82 175.163 235.094 175.824 235.094 176.699C235.094 177.164 234.962 177.576 234.697 177.937C234.433 178.292 234.073 178.568 233.617 178.764C234.155 178.914 234.579 179.201 234.889 179.625C235.203 180.044 235.36 180.546 235.36 181.129C235.36 182.022 235.071 182.724 234.492 183.234C233.913 183.745 233.095 184 232.038 184H228.586ZM229.898 179.345V182.927H232.065C232.676 182.927 233.157 182.77 233.508 182.455C233.863 182.136 234.041 181.699 234.041 181.143C234.041 179.944 233.389 179.345 232.086 179.345H229.898ZM229.898 178.292H231.881C232.455 178.292 232.913 178.148 233.255 177.861C233.601 177.574 233.774 177.185 233.774 176.692C233.774 176.146 233.615 175.749 233.296 175.503C232.977 175.252 232.492 175.127 231.84 175.127H229.898V178.292ZM236.775 180.233C236.775 179.509 236.917 178.857 237.199 178.278C237.486 177.7 237.883 177.253 238.389 176.938C238.899 176.624 239.48 176.467 240.132 176.467C241.139 176.467 241.952 176.815 242.572 177.513C243.197 178.21 243.509 179.137 243.509 180.295V180.384C243.509 181.104 243.37 181.751 243.092 182.325C242.818 182.895 242.424 183.339 241.909 183.658C241.399 183.977 240.811 184.137 240.146 184.137C239.143 184.137 238.329 183.788 237.705 183.091C237.085 182.394 236.775 181.471 236.775 180.322V180.233ZM238.047 180.384C238.047 181.204 238.236 181.863 238.614 182.359C238.997 182.856 239.507 183.104 240.146 183.104C240.788 183.104 241.299 182.854 241.677 182.353C242.055 181.847 242.244 181.14 242.244 180.233C242.244 179.422 242.05 178.766 241.663 178.265C241.28 177.759 240.77 177.506 240.132 177.506C239.507 177.506 239.004 177.754 238.621 178.251C238.238 178.748 238.047 179.459 238.047 180.384ZM244.76 180.233C244.76 179.509 244.901 178.857 245.184 178.278C245.471 177.7 245.867 177.253 246.373 176.938C246.883 176.624 247.465 176.467 248.116 176.467C249.123 176.467 249.937 176.815 250.557 177.513C251.181 178.21 251.493 179.137 251.493 180.295V180.384C251.493 181.104 251.354 181.751 251.076 182.325C250.803 182.895 250.409 183.339 249.894 183.658C249.383 183.977 248.795 184.137 248.13 184.137C247.127 184.137 246.314 183.788 245.689 183.091C245.07 182.394 244.76 181.471 244.76 180.322V180.233ZM246.031 180.384C246.031 181.204 246.22 181.863 246.599 182.359C246.981 182.856 247.492 183.104 248.13 183.104C248.772 183.104 249.283 182.854 249.661 182.353C250.039 181.847 250.229 181.14 250.229 180.233C250.229 179.422 250.035 178.766 249.647 178.265C249.265 177.759 248.754 177.506 248.116 177.506C247.492 177.506 246.988 177.754 246.605 178.251C246.223 178.748 246.031 179.459 246.031 180.384ZM255.144 180.575L254.351 181.402V184H253.086V173.5H254.351V179.851L255.027 179.037L257.331 176.604H258.869L255.991 179.693L259.204 184H257.721L255.144 180.575ZM264.481 182.038C264.481 181.696 264.352 181.432 264.092 181.245C263.837 181.054 263.388 180.89 262.745 180.753C262.107 180.616 261.599 180.452 261.221 180.261C260.847 180.069 260.569 179.841 260.387 179.577C260.209 179.313 260.12 178.998 260.12 178.634C260.12 178.028 260.375 177.515 260.886 177.096C261.401 176.676 262.057 176.467 262.854 176.467C263.693 176.467 264.372 176.683 264.892 177.116C265.416 177.549 265.678 178.103 265.678 178.777H264.406C264.406 178.431 264.258 178.132 263.962 177.882C263.67 177.631 263.301 177.506 262.854 177.506C262.394 177.506 262.034 177.606 261.774 177.807C261.515 178.007 261.385 178.269 261.385 178.593C261.385 178.898 261.506 179.128 261.747 179.283C261.989 179.438 262.424 179.586 263.053 179.728C263.686 179.869 264.199 180.037 264.591 180.233C264.983 180.429 265.272 180.666 265.459 180.944C265.65 181.218 265.746 181.553 265.746 181.949C265.746 182.61 265.482 183.141 264.953 183.542C264.424 183.938 263.739 184.137 262.896 184.137C262.303 184.137 261.779 184.032 261.323 183.822C260.868 183.613 260.51 183.321 260.25 182.947C259.995 182.569 259.867 182.161 259.867 181.724H261.132C261.155 182.147 261.323 182.485 261.638 182.735C261.957 182.981 262.376 183.104 262.896 183.104C263.374 183.104 263.757 183.009 264.044 182.817C264.336 182.621 264.481 182.362 264.481 182.038Z" fill="black"/>
<rect x="285.5" y="44.5" width="129" height="29" stroke="black"/>
<path d="M336.752 64V54.0469H339.562C340.427 54.0469 341.193 54.2383 341.858 54.6211C342.524 55.0039 343.036 55.5485 343.396 56.2549C343.761 56.9613 343.946 57.7725 343.95 58.6885V59.3242C343.95 60.263 343.768 61.0856 343.403 61.792C343.043 62.4984 342.526 63.0407 341.852 63.4189C341.182 63.7972 340.4 63.9909 339.507 64H336.752ZM338.064 55.127V62.9268H339.445C340.457 62.9268 341.243 62.6123 341.804 61.9834C342.369 61.3545 342.651 60.459 342.651 59.2969V58.7158C342.651 57.5856 342.385 56.7083 341.852 56.084C341.323 55.4551 340.571 55.1361 339.596 55.127H338.064ZM350.308 64C350.235 63.8542 350.175 63.5944 350.13 63.2207C349.542 63.8314 348.84 64.1367 348.024 64.1367C347.295 64.1367 346.696 63.9316 346.227 63.5215C345.762 63.1068 345.529 62.5827 345.529 61.9492C345.529 61.179 345.821 60.582 346.404 60.1582C346.992 59.7298 347.817 59.5156 348.879 59.5156H350.109V58.9346C350.109 58.4925 349.977 58.1416 349.713 57.8818C349.449 57.6175 349.059 57.4854 348.544 57.4854C348.093 57.4854 347.715 57.5993 347.409 57.8271C347.104 58.055 346.951 58.3307 346.951 58.6543H345.68C345.68 58.2852 345.81 57.9297 346.069 57.5879C346.334 57.2415 346.689 56.9681 347.136 56.7676C347.587 56.5671 348.081 56.4668 348.619 56.4668C349.471 56.4668 350.139 56.681 350.622 57.1094C351.105 57.5332 351.356 58.1188 351.374 58.8662V62.2705C351.374 62.9495 351.461 63.4896 351.634 63.8906V64H350.308ZM348.209 63.0361C348.605 63.0361 348.981 62.9336 349.337 62.7285C349.692 62.5234 349.95 62.2568 350.109 61.9287V60.4111H349.118C347.569 60.4111 346.794 60.8646 346.794 61.7715C346.794 62.168 346.926 62.4779 347.19 62.7012C347.455 62.9245 347.794 63.0361 348.209 63.0361ZM355.072 54.8125V56.6035H356.453V57.5811H355.072V62.168C355.072 62.4642 355.134 62.6875 355.257 62.8379C355.38 62.9837 355.59 63.0566 355.886 63.0566C356.032 63.0566 356.232 63.0293 356.487 62.9746V64C356.155 64.0911 355.831 64.1367 355.517 64.1367C354.951 64.1367 354.525 63.9658 354.238 63.624C353.951 63.2822 353.808 62.7969 353.808 62.168V57.5811H352.461V56.6035H353.808V54.8125H355.072ZM361.006 64.1367C360.003 64.1367 359.188 63.8086 358.559 63.1523C357.93 62.4915 357.615 61.6097 357.615 60.5068V60.2744C357.615 59.5407 357.754 58.8867 358.032 58.3125C358.315 57.7337 358.707 57.2826 359.208 56.959C359.714 56.6309 360.261 56.4668 360.849 56.4668C361.81 56.4668 362.558 56.7835 363.091 57.417C363.624 58.0505 363.891 58.9574 363.891 60.1377V60.6641H358.88C358.898 61.3932 359.11 61.9834 359.516 62.4346C359.926 62.8812 360.445 63.1045 361.074 63.1045C361.521 63.1045 361.899 63.0133 362.209 62.8311C362.519 62.6488 362.79 62.4072 363.022 62.1064L363.795 62.708C363.175 63.6605 362.245 64.1367 361.006 64.1367ZM360.849 57.5059C360.338 57.5059 359.91 57.6927 359.563 58.0664C359.217 58.4355 359.003 58.9551 358.921 59.625H362.626V59.5293C362.59 58.8867 362.416 58.39 362.106 58.0391C361.797 57.6836 361.377 57.5059 360.849 57.5059Z" fill="black"/>
<rect x="285.5" y="74.5" width="129" height="29" fill="#5D98FA" fill-opacity="0.5"/>
<rect x="285.5" y="74.5" width="129" height="29" stroke="black"/>
<path d="M320.551 94H314.029V93.0908L317.475 89.2627C317.985 88.6839 318.336 88.2145 318.527 87.8545C318.723 87.4899 318.821 87.1139 318.821 86.7266C318.821 86.207 318.664 85.7809 318.35 85.4482C318.035 85.1156 317.616 84.9492 317.092 84.9492C316.463 84.9492 315.973 85.1292 315.622 85.4893C315.276 85.8447 315.103 86.3415 315.103 86.9795H313.838C313.838 86.0635 314.132 85.3229 314.72 84.7578C315.312 84.1927 316.103 83.9102 317.092 83.9102C318.017 83.9102 318.748 84.154 319.286 84.6416C319.824 85.1247 320.093 85.7695 320.093 86.5762C320.093 87.556 319.468 88.7227 318.22 90.0762L315.554 92.9678H320.551V94ZM326.047 94H324.775V85.5713L322.226 86.5078V85.3594L325.849 83.999H326.047V94ZM332.514 90.2881H329.178V89.2559H332.514V90.2881ZM335.057 86.6035V94.8545C335.057 96.2764 334.412 96.9873 333.122 96.9873C332.844 96.9873 332.587 96.9463 332.35 96.8643V95.8525C332.495 95.889 332.687 95.9072 332.924 95.9072C333.206 95.9072 333.421 95.8298 333.566 95.6748C333.717 95.5244 333.792 95.2601 333.792 94.8818V86.6035H335.057ZM333.662 84.6416C333.662 84.4411 333.724 84.2702 333.847 84.1289C333.974 83.9831 334.159 83.9102 334.4 83.9102C334.646 83.9102 334.833 83.9808 334.961 84.1221C335.089 84.2633 335.152 84.4365 335.152 84.6416C335.152 84.8467 335.089 85.0176 334.961 85.1543C334.833 85.291 334.646 85.3594 334.4 85.3594C334.154 85.3594 333.97 85.291 333.847 85.1543C333.724 85.0176 333.662 84.8467 333.662 84.6416ZM341.667 94C341.594 93.8542 341.535 93.5944 341.489 93.2207C340.901 93.8314 340.2 94.1367 339.384 94.1367C338.655 94.1367 338.055 93.9316 337.586 93.5215C337.121 93.1068 336.889 92.5827 336.889 91.9492C336.889 91.179 337.18 90.582 337.764 90.1582C338.352 89.7298 339.176 89.5156 340.238 89.5156H341.469V88.9346C341.469 88.4925 341.337 88.1416 341.072 87.8818C340.808 87.6175 340.418 87.4854 339.903 87.4854C339.452 87.4854 339.074 87.5993 338.769 87.8271C338.463 88.055 338.311 88.3307 338.311 88.6543H337.039C337.039 88.2852 337.169 87.9297 337.429 87.5879C337.693 87.2415 338.049 86.9681 338.495 86.7676C338.946 86.5671 339.441 86.4668 339.979 86.4668C340.831 86.4668 341.498 86.681 341.981 87.1094C342.465 87.5332 342.715 88.1188 342.733 88.8662V92.2705C342.733 92.9495 342.82 93.4896 342.993 93.8906V94H341.667ZM339.568 93.0361C339.965 93.0361 340.341 92.9336 340.696 92.7285C341.052 92.5234 341.309 92.2568 341.469 91.9287V90.4111H340.478C338.928 90.4111 338.153 90.8646 338.153 91.7715C338.153 92.168 338.285 92.4779 338.55 92.7012C338.814 92.9245 339.154 93.0361 339.568 93.0361ZM345.912 86.6035L345.953 87.5332C346.518 86.8223 347.257 86.4668 348.168 86.4668C349.731 86.4668 350.52 87.3486 350.533 89.1123V94H349.269V89.1055C349.264 88.5723 349.141 88.1781 348.899 87.9229C348.662 87.6676 348.291 87.54 347.785 87.54C347.375 87.54 347.015 87.6494 346.705 87.8682C346.395 88.0869 346.154 88.374 345.98 88.7295V94H344.716V86.6035H345.912ZM355.072 90.2881H351.736V89.2559H355.072V90.2881ZM362.701 94H356.18V93.0908L359.625 89.2627C360.135 88.6839 360.486 88.2145 360.678 87.8545C360.874 87.4899 360.972 87.1139 360.972 86.7266C360.972 86.207 360.814 85.7809 360.5 85.4482C360.186 85.1156 359.766 84.9492 359.242 84.9492C358.613 84.9492 358.123 85.1292 357.772 85.4893C357.426 85.8447 357.253 86.3415 357.253 86.9795H355.988C355.988 86.0635 356.282 85.3229 356.87 84.7578C357.463 84.1927 358.253 83.9102 359.242 83.9102C360.167 83.9102 360.899 84.154 361.437 84.6416C361.974 85.1247 362.243 85.7695 362.243 86.5762C362.243 87.556 361.619 88.7227 360.37 90.0762L357.704 92.9678H362.701V94ZM370.282 89.7549C370.282 91.236 370.029 92.3366 369.523 93.0566C369.018 93.7767 368.227 94.1367 367.151 94.1367C366.09 94.1367 365.303 93.7858 364.793 93.084C364.283 92.3776 364.018 91.3249 364 89.9258V88.2373C364 86.7744 364.253 85.6875 364.759 84.9766C365.265 84.2656 366.058 83.9102 367.138 83.9102C368.209 83.9102 368.997 84.2542 369.503 84.9424C370.009 85.626 370.269 86.6833 370.282 88.1143V89.7549ZM369.018 88.0254C369.018 86.9544 368.867 86.1751 368.566 85.6875C368.266 85.1953 367.789 84.9492 367.138 84.9492C366.491 84.9492 366.019 85.193 365.723 85.6807C365.426 86.1683 365.274 86.918 365.265 87.9297V89.9531C365.265 91.0286 365.42 91.8239 365.729 92.3389C366.044 92.8493 366.518 93.1045 367.151 93.1045C367.776 93.1045 368.238 92.863 368.539 92.3799C368.844 91.8968 369.004 91.1357 369.018 90.0967V88.0254ZM378.144 89.7549C378.144 91.236 377.891 92.3366 377.385 93.0566C376.879 93.7767 376.088 94.1367 375.013 94.1367C373.951 94.1367 373.165 93.7858 372.654 93.084C372.144 92.3776 371.88 91.3249 371.861 89.9258V88.2373C371.861 86.7744 372.114 85.6875 372.62 84.9766C373.126 84.2656 373.919 83.9102 374.999 83.9102C376.07 83.9102 376.858 84.2542 377.364 84.9424C377.87 85.626 378.13 86.6833 378.144 88.1143V89.7549ZM376.879 88.0254C376.879 86.9544 376.729 86.1751 376.428 85.6875C376.127 85.1953 375.651 84.9492 374.999 84.9492C374.352 84.9492 373.88 85.193 373.584 85.6807C373.288 86.1683 373.135 86.918 373.126 87.9297V89.9531C373.126 91.0286 373.281 91.8239 373.591 92.3389C373.905 92.8493 374.379 93.1045 375.013 93.1045C375.637 93.1045 376.1 92.863 376.4 92.3799C376.706 91.8968 376.865 91.1357 376.879 90.0967V88.0254ZM386.285 94H379.764V93.0908L383.209 89.2627C383.719 88.6839 384.07 88.2145 384.262 87.8545C384.458 87.4899 384.556 87.1139 384.556 86.7266C384.556 86.207 384.398 85.7809 384.084 85.4482C383.77 85.1156 383.35 84.9492 382.826 84.9492C382.197 84.9492 381.707 85.1292 381.356 85.4893C381.01 85.8447 380.837 86.3415 380.837 86.9795H379.572C379.572 86.0635 379.866 85.3229 380.454 84.7578C381.047 84.1927 381.837 83.9102 382.826 83.9102C383.751 83.9102 384.483 84.154 385.021 84.6416C385.558 85.1247 385.827 85.7695 385.827 86.5762C385.827 87.556 385.203 88.7227 383.954 90.0762L381.288 92.9678H386.285V94Z" fill="black"/>
<rect x="285.5" y="104.5" width="129" height="29" stroke="black"/>
<path d="M320.503 122.961V124H313.988V123.091L317.249 119.461C317.65 119.014 317.96 118.636 318.179 118.326C318.402 118.012 318.557 117.731 318.644 117.485C318.735 117.235 318.78 116.979 318.78 116.72C318.78 116.392 318.712 116.095 318.575 115.831C318.443 115.562 318.247 115.348 317.987 115.188C317.728 115.029 317.413 114.949 317.044 114.949C316.602 114.949 316.233 115.036 315.937 115.209C315.645 115.378 315.426 115.615 315.28 115.92C315.134 116.225 315.062 116.576 315.062 116.973H313.797C313.797 116.412 313.92 115.899 314.166 115.435C314.412 114.97 314.777 114.601 315.26 114.327C315.743 114.049 316.338 113.91 317.044 113.91C317.673 113.91 318.211 114.022 318.657 114.245C319.104 114.464 319.446 114.774 319.683 115.175C319.924 115.571 320.045 116.036 320.045 116.569C320.045 116.861 319.995 117.157 319.895 117.458C319.799 117.754 319.664 118.05 319.491 118.347C319.323 118.643 319.124 118.935 318.896 119.222C318.673 119.509 318.434 119.791 318.179 120.069L315.513 122.961H320.503ZM326.013 113.992V124H324.748V115.571L322.198 116.501V115.359L325.814 113.992H326.013ZM332.5 119.249V120.288H329.164V119.249H332.5ZM333.771 116.604H335.043V124.882C335.043 125.333 334.97 125.716 334.824 126.03C334.683 126.345 334.469 126.582 334.182 126.741C333.899 126.905 333.541 126.987 333.108 126.987C332.994 126.987 332.862 126.976 332.712 126.953C332.557 126.93 332.427 126.903 332.322 126.871L332.329 125.853C332.416 125.871 332.514 125.884 332.623 125.894C332.732 125.907 332.828 125.914 332.91 125.914C333.097 125.914 333.254 125.88 333.382 125.812C333.509 125.743 333.605 125.634 333.669 125.483C333.737 125.333 333.771 125.132 333.771 124.882V116.604ZM333.642 114.642C333.642 114.437 333.705 114.263 333.833 114.122C333.961 113.981 334.145 113.91 334.387 113.91C334.633 113.91 334.82 113.981 334.947 114.122C335.075 114.263 335.139 114.437 335.139 114.642C335.139 114.838 335.075 115.006 334.947 115.147C334.82 115.284 334.633 115.353 334.387 115.353C334.145 115.353 333.961 115.284 333.833 115.147C333.705 115.006 333.642 114.838 333.642 114.642ZM341.448 122.735V118.928C341.448 118.636 341.389 118.383 341.271 118.169C341.157 117.95 340.983 117.782 340.751 117.663C340.519 117.545 340.231 117.485 339.89 117.485C339.571 117.485 339.29 117.54 339.049 117.649C338.812 117.759 338.625 117.902 338.488 118.08C338.356 118.258 338.29 118.449 338.29 118.654H337.025C337.025 118.39 337.094 118.128 337.23 117.868C337.367 117.608 337.563 117.374 337.818 117.164C338.078 116.95 338.388 116.781 338.748 116.658C339.113 116.531 339.518 116.467 339.965 116.467C340.503 116.467 340.977 116.558 341.387 116.74C341.801 116.923 342.125 117.198 342.357 117.567C342.594 117.932 342.713 118.39 342.713 118.941V122.387C342.713 122.633 342.733 122.895 342.774 123.173C342.82 123.451 342.886 123.69 342.973 123.891V124H341.653C341.59 123.854 341.539 123.66 341.503 123.419C341.466 123.173 341.448 122.945 341.448 122.735ZM341.667 119.516L341.681 120.404H340.402C340.042 120.404 339.721 120.434 339.438 120.493C339.156 120.548 338.919 120.632 338.728 120.746C338.536 120.86 338.39 121.004 338.29 121.177C338.19 121.345 338.14 121.544 338.14 121.771C338.14 122.004 338.192 122.216 338.297 122.407C338.402 122.599 338.559 122.751 338.769 122.865C338.983 122.975 339.245 123.029 339.555 123.029C339.942 123.029 340.284 122.947 340.58 122.783C340.876 122.619 341.111 122.419 341.284 122.182C341.462 121.945 341.558 121.715 341.571 121.491L342.111 122.1C342.079 122.291 341.993 122.503 341.852 122.735C341.71 122.968 341.521 123.191 341.284 123.405C341.052 123.615 340.774 123.79 340.45 123.932C340.131 124.068 339.771 124.137 339.37 124.137C338.869 124.137 338.429 124.039 338.051 123.843C337.677 123.647 337.385 123.385 337.176 123.057C336.971 122.724 336.868 122.353 336.868 121.942C336.868 121.546 336.946 121.197 337.101 120.896C337.256 120.591 337.479 120.338 337.771 120.138C338.062 119.933 338.413 119.778 338.823 119.673C339.233 119.568 339.691 119.516 340.197 119.516H341.667ZM345.967 118.183V124H344.702V116.604H345.898L345.967 118.183ZM345.666 120.021L345.14 120.001C345.144 119.495 345.219 119.028 345.365 118.6C345.511 118.167 345.716 117.791 345.98 117.472C346.245 117.153 346.559 116.907 346.924 116.733C347.293 116.556 347.701 116.467 348.147 116.467C348.512 116.467 348.84 116.517 349.132 116.617C349.424 116.713 349.672 116.868 349.877 117.082C350.087 117.296 350.246 117.574 350.355 117.916C350.465 118.253 350.52 118.666 350.52 119.153V124H349.248V119.14C349.248 118.752 349.191 118.442 349.077 118.21C348.963 117.973 348.797 117.802 348.578 117.697C348.359 117.588 348.09 117.533 347.771 117.533C347.457 117.533 347.17 117.599 346.91 117.731C346.655 117.864 346.434 118.046 346.247 118.278C346.065 118.511 345.921 118.777 345.816 119.078C345.716 119.374 345.666 119.689 345.666 120.021ZM355.072 119.249V120.288H351.736V119.249H355.072ZM362.694 122.961V124H356.18V123.091L359.44 119.461C359.841 119.014 360.151 118.636 360.37 118.326C360.593 118.012 360.748 117.731 360.835 117.485C360.926 117.235 360.972 116.979 360.972 116.72C360.972 116.392 360.903 116.095 360.767 115.831C360.634 115.562 360.438 115.348 360.179 115.188C359.919 115.029 359.604 114.949 359.235 114.949C358.793 114.949 358.424 115.036 358.128 115.209C357.836 115.378 357.618 115.615 357.472 115.92C357.326 116.225 357.253 116.576 357.253 116.973H355.988C355.988 116.412 356.111 115.899 356.357 115.435C356.604 114.97 356.968 114.601 357.451 114.327C357.934 114.049 358.529 113.91 359.235 113.91C359.864 113.91 360.402 114.022 360.849 114.245C361.295 114.464 361.637 114.774 361.874 115.175C362.116 115.571 362.236 116.036 362.236 116.569C362.236 116.861 362.186 117.157 362.086 117.458C361.99 117.754 361.856 118.05 361.683 118.347C361.514 118.643 361.316 118.935 361.088 119.222C360.865 119.509 360.625 119.791 360.37 120.069L357.704 122.961H362.694ZM370.296 118.23V119.748C370.296 120.564 370.223 121.252 370.077 121.812C369.931 122.373 369.722 122.824 369.448 123.166C369.175 123.508 368.844 123.756 368.457 123.911C368.074 124.062 367.641 124.137 367.158 124.137C366.775 124.137 366.422 124.089 366.099 123.993C365.775 123.897 365.483 123.745 365.224 123.535C364.968 123.321 364.75 123.043 364.567 122.701C364.385 122.359 364.246 121.945 364.15 121.457C364.055 120.969 364.007 120.4 364.007 119.748V118.23C364.007 117.415 364.08 116.731 364.226 116.18C364.376 115.628 364.588 115.186 364.861 114.854C365.135 114.516 365.463 114.275 365.846 114.129C366.233 113.983 366.666 113.91 367.145 113.91C367.532 113.91 367.887 113.958 368.211 114.054C368.539 114.145 368.831 114.293 369.086 114.498C369.341 114.699 369.558 114.967 369.735 115.305C369.918 115.637 370.057 116.045 370.152 116.528C370.248 117.011 370.296 117.579 370.296 118.23ZM369.024 119.953V118.019C369.024 117.572 368.997 117.18 368.942 116.843C368.892 116.501 368.817 116.209 368.717 115.968C368.617 115.726 368.489 115.53 368.334 115.38C368.184 115.229 368.008 115.12 367.808 115.052C367.612 114.979 367.391 114.942 367.145 114.942C366.844 114.942 366.577 114.999 366.345 115.113C366.112 115.223 365.916 115.398 365.757 115.64C365.602 115.881 365.483 116.198 365.401 116.59C365.319 116.982 365.278 117.458 365.278 118.019V119.953C365.278 120.4 365.303 120.794 365.354 121.136C365.408 121.478 365.488 121.774 365.593 122.024C365.698 122.271 365.825 122.473 365.976 122.633C366.126 122.792 366.299 122.911 366.495 122.988C366.696 123.061 366.917 123.098 367.158 123.098C367.468 123.098 367.739 123.038 367.972 122.92C368.204 122.801 368.398 122.617 368.553 122.366C368.712 122.111 368.831 121.785 368.908 121.389C368.986 120.988 369.024 120.509 369.024 119.953ZM378.171 118.23V119.748C378.171 120.564 378.098 121.252 377.952 121.812C377.806 122.373 377.597 122.824 377.323 123.166C377.05 123.508 376.719 123.756 376.332 123.911C375.949 124.062 375.516 124.137 375.033 124.137C374.65 124.137 374.297 124.089 373.974 123.993C373.65 123.897 373.358 123.745 373.099 123.535C372.843 123.321 372.625 123.043 372.442 122.701C372.26 122.359 372.121 121.945 372.025 121.457C371.93 120.969 371.882 120.4 371.882 119.748V118.23C371.882 117.415 371.955 116.731 372.101 116.18C372.251 115.628 372.463 115.186 372.736 114.854C373.01 114.516 373.338 114.275 373.721 114.129C374.108 113.983 374.541 113.91 375.02 113.91C375.407 113.91 375.762 113.958 376.086 114.054C376.414 114.145 376.706 114.293 376.961 114.498C377.216 114.699 377.433 114.967 377.61 115.305C377.793 115.637 377.932 116.045 378.027 116.528C378.123 117.011 378.171 117.579 378.171 118.23ZM376.899 119.953V118.019C376.899 117.572 376.872 117.18 376.817 116.843C376.767 116.501 376.692 116.209 376.592 115.968C376.492 115.726 376.364 115.53 376.209 115.38C376.059 115.229 375.883 115.12 375.683 115.052C375.487 114.979 375.266 114.942 375.02 114.942C374.719 114.942 374.452 114.999 374.22 115.113C373.987 115.223 373.791 115.398 373.632 115.64C373.477 115.881 373.358 116.198 373.276 116.59C373.194 116.982 373.153 117.458 373.153 118.019V119.953C373.153 120.4 373.178 120.794 373.229 121.136C373.283 121.478 373.363 121.774 373.468 122.024C373.573 122.271 373.7 122.473 373.851 122.633C374.001 122.792 374.174 122.911 374.37 122.988C374.571 123.061 374.792 123.098 375.033 123.098C375.343 123.098 375.614 123.038 375.847 122.92C376.079 122.801 376.273 122.617 376.428 122.366C376.587 122.111 376.706 121.785 376.783 121.389C376.861 120.988 376.899 120.509 376.899 119.953ZM386.319 122.961V124H379.805V123.091L383.065 119.461C383.466 119.014 383.776 118.636 383.995 118.326C384.218 118.012 384.373 117.731 384.46 117.485C384.551 117.235 384.597 116.979 384.597 116.72C384.597 116.392 384.528 116.095 384.392 115.831C384.259 115.562 384.063 115.348 383.804 115.188C383.544 115.029 383.229 114.949 382.86 114.949C382.418 114.949 382.049 115.036 381.753 115.209C381.461 115.378 381.243 115.615 381.097 115.92C380.951 116.225 380.878 116.576 380.878 116.973H379.613C379.613 116.412 379.736 115.899 379.982 115.435C380.229 114.97 380.593 114.601 381.076 114.327C381.559 114.049 382.154 113.91 382.86 113.91C383.489 113.91 384.027 114.022 384.474 114.245C384.92 114.464 385.262 114.774 385.499 115.175C385.741 115.571 385.861 116.036 385.861 116.569C385.861 116.861 385.811 117.157 385.711 117.458C385.615 117.754 385.481 118.05 385.308 118.347C385.139 118.643 384.941 118.935 384.713 119.222C384.49 119.509 384.25 119.791 383.995 120.069L381.329 122.961H386.319Z" fill="black"/>
<rect x="285.5" y="134.5" width="129" height="29" stroke="black"/>
<path d="M320.551 154H314.029V153.091L317.475 149.263C317.985 148.684 318.336 148.215 318.527 147.854C318.723 147.49 318.821 147.114 318.821 146.727C318.821 146.207 318.664 145.781 318.35 145.448C318.035 145.116 317.616 144.949 317.092 144.949C316.463 144.949 315.973 145.129 315.622 145.489C315.276 145.845 315.103 146.341 315.103 146.979H313.838C313.838 146.063 314.132 145.323 314.72 144.758C315.312 144.193 316.103 143.91 317.092 143.91C318.017 143.91 318.748 144.154 319.286 144.642C319.824 145.125 320.093 145.77 320.093 146.576C320.093 147.556 319.468 148.723 318.22 150.076L315.554 152.968H320.551V154ZM326.047 154H324.775V145.571L322.226 146.508V145.359L325.849 143.999H326.047V154ZM332.514 150.288H329.178V149.256H332.514V150.288ZM335.057 146.604V154.854C335.057 156.276 334.412 156.987 333.122 156.987C332.844 156.987 332.587 156.946 332.35 156.864V155.853C332.495 155.889 332.687 155.907 332.924 155.907C333.206 155.907 333.421 155.83 333.566 155.675C333.717 155.524 333.792 155.26 333.792 154.882V146.604H335.057ZM333.662 144.642C333.662 144.441 333.724 144.27 333.847 144.129C333.974 143.983 334.159 143.91 334.4 143.91C334.646 143.91 334.833 143.981 334.961 144.122C335.089 144.263 335.152 144.437 335.152 144.642C335.152 144.847 335.089 145.018 334.961 145.154C334.833 145.291 334.646 145.359 334.4 145.359C334.154 145.359 333.97 145.291 333.847 145.154C333.724 145.018 333.662 144.847 333.662 144.642ZM341.667 154C341.594 153.854 341.535 153.594 341.489 153.221C340.901 153.831 340.2 154.137 339.384 154.137C338.655 154.137 338.055 153.932 337.586 153.521C337.121 153.107 336.889 152.583 336.889 151.949C336.889 151.179 337.18 150.582 337.764 150.158C338.352 149.73 339.176 149.516 340.238 149.516H341.469V148.935C341.469 148.493 341.337 148.142 341.072 147.882C340.808 147.618 340.418 147.485 339.903 147.485C339.452 147.485 339.074 147.599 338.769 147.827C338.463 148.055 338.311 148.331 338.311 148.654H337.039C337.039 148.285 337.169 147.93 337.429 147.588C337.693 147.242 338.049 146.968 338.495 146.768C338.946 146.567 339.441 146.467 339.979 146.467C340.831 146.467 341.498 146.681 341.981 147.109C342.465 147.533 342.715 148.119 342.733 148.866V152.271C342.733 152.95 342.82 153.49 342.993 153.891V154H341.667ZM339.568 153.036C339.965 153.036 340.341 152.934 340.696 152.729C341.052 152.523 341.309 152.257 341.469 151.929V150.411H340.478C338.928 150.411 338.153 150.865 338.153 151.771C338.153 152.168 338.285 152.478 338.55 152.701C338.814 152.924 339.154 153.036 339.568 153.036ZM345.912 146.604L345.953 147.533C346.518 146.822 347.257 146.467 348.168 146.467C349.731 146.467 350.52 147.349 350.533 149.112V154H349.269V149.105C349.264 148.572 349.141 148.178 348.899 147.923C348.662 147.668 348.291 147.54 347.785 147.54C347.375 147.54 347.015 147.649 346.705 147.868C346.395 148.087 346.154 148.374 345.98 148.729V154H344.716V146.604H345.912ZM355.072 150.288H351.736V149.256H355.072V150.288ZM362.701 154H356.18V153.091L359.625 149.263C360.135 148.684 360.486 148.215 360.678 147.854C360.874 147.49 360.972 147.114 360.972 146.727C360.972 146.207 360.814 145.781 360.5 145.448C360.186 145.116 359.766 144.949 359.242 144.949C358.613 144.949 358.123 145.129 357.772 145.489C357.426 145.845 357.253 146.341 357.253 146.979H355.988C355.988 146.063 356.282 145.323 356.87 144.758C357.463 144.193 358.253 143.91 359.242 143.91C360.167 143.91 360.899 144.154 361.437 144.642C361.974 145.125 362.243 145.77 362.243 146.576C362.243 147.556 361.619 148.723 360.37 150.076L357.704 152.968H362.701V154ZM370.282 149.755C370.282 151.236 370.029 152.337 369.523 153.057C369.018 153.777 368.227 154.137 367.151 154.137C366.09 154.137 365.303 153.786 364.793 153.084C364.283 152.378 364.018 151.325 364 149.926V148.237C364 146.774 364.253 145.688 364.759 144.977C365.265 144.266 366.058 143.91 367.138 143.91C368.209 143.91 368.997 144.254 369.503 144.942C370.009 145.626 370.269 146.683 370.282 148.114V149.755ZM369.018 148.025C369.018 146.954 368.867 146.175 368.566 145.688C368.266 145.195 367.789 144.949 367.138 144.949C366.491 144.949 366.019 145.193 365.723 145.681C365.426 146.168 365.274 146.918 365.265 147.93V149.953C365.265 151.029 365.42 151.824 365.729 152.339C366.044 152.849 366.518 153.104 367.151 153.104C367.776 153.104 368.238 152.863 368.539 152.38C368.844 151.897 369.004 151.136 369.018 150.097V148.025ZM378.144 149.755C378.144 151.236 377.891 152.337 377.385 153.057C376.879 153.777 376.088 154.137 375.013 154.137C373.951 154.137 373.165 153.786 372.654 153.084C372.144 152.378 371.88 151.325 371.861 149.926V148.237C371.861 146.774 372.114 145.688 372.62 144.977C373.126 144.266 373.919 143.91 374.999 143.91C376.07 143.91 376.858 144.254 377.364 144.942C377.87 145.626 378.13 146.683 378.144 148.114V149.755ZM376.879 148.025C376.879 146.954 376.729 146.175 376.428 145.688C376.127 145.195 375.651 144.949 374.999 144.949C374.352 144.949 373.88 145.193 373.584 145.681C373.288 146.168 373.135 146.918 373.126 147.93V149.953C373.126 151.029 373.281 151.824 373.591 152.339C373.905 152.849 374.379 153.104 375.013 153.104C375.637 153.104 376.1 152.863 376.4 152.38C376.706 151.897 376.865 151.136 376.879 150.097V148.025ZM386.285 154H379.764V153.091L383.209 149.263C383.719 148.684 384.07 148.215 384.262 147.854C384.458 147.49 384.556 147.114 384.556 146.727C384.556 146.207 384.398 145.781 384.084 145.448C383.77 145.116 383.35 144.949 382.826 144.949C382.197 144.949 381.707 145.129 381.356 145.489C381.01 145.845 380.837 146.341 380.837 146.979H379.572C379.572 146.063 379.866 145.323 380.454 144.758C381.047 144.193 381.837 143.91 382.826 143.91C383.751 143.91 384.483 144.154 385.021 144.642C385.558 145.125 385.827 145.77 385.827 146.576C385.827 147.556 385.203 148.723 383.954 150.076L381.288 152.968H386.285V154Z" fill="black"/>
<rect x="285.5" y="164.5" width="129" height="29" stroke="black"/>
<path d="M320.551 184H314.029V183.091L317.475 179.263C317.985 178.684 318.336 178.215 318.527 177.854C318.723 177.49 318.821 177.114 318.821 176.727C318.821 176.207 318.664 175.781 318.35 175.448C318.035 175.116 317.616 174.949 317.092 174.949C316.463 174.949 315.973 175.129 315.622 175.489C315.276 175.845 315.103 176.341 315.103 176.979H313.838C313.838 176.063 314.132 175.323 314.72 174.758C315.312 174.193 316.103 173.91 317.092 173.91C318.017 173.91 318.748 174.154 319.286 174.642C319.824 175.125 320.093 175.77 320.093 176.576C320.093 177.556 319.468 178.723 318.22 180.076L315.554 182.968H320.551V184ZM326.047 184H324.775V175.571L322.226 176.508V175.359L325.849 173.999H326.047V184ZM332.514 180.288H329.178V179.256H332.514V180.288ZM335.057 176.604V184.854C335.057 186.276 334.412 186.987 333.122 186.987C332.844 186.987 332.587 186.946 332.35 186.864V185.853C332.495 185.889 332.687 185.907 332.924 185.907C333.206 185.907 333.421 185.83 333.566 185.675C333.717 185.524 333.792 185.26 333.792 184.882V176.604H335.057ZM333.662 174.642C333.662 174.441 333.724 174.27 333.847 174.129C333.974 173.983 334.159 173.91 334.4 173.91C334.646 173.91 334.833 173.981 334.961 174.122C335.089 174.263 335.152 174.437 335.152 174.642C335.152 174.847 335.089 175.018 334.961 175.154C334.833 175.291 334.646 175.359 334.4 175.359C334.154 175.359 333.97 175.291 333.847 175.154C333.724 175.018 333.662 174.847 333.662 174.642ZM341.667 184C341.594 183.854 341.535 183.594 341.489 183.221C340.901 183.831 340.2 184.137 339.384 184.137C338.655 184.137 338.055 183.932 337.586 183.521C337.121 183.107 336.889 182.583 336.889 181.949C336.889 181.179 337.18 180.582 337.764 180.158C338.352 179.73 339.176 179.516 340.238 179.516H341.469V178.935C341.469 178.493 341.337 178.142 341.072 177.882C340.808 177.618 340.418 177.485 339.903 177.485C339.452 177.485 339.074 177.599 338.769 177.827C338.463 178.055 338.311 178.331 338.311 178.654H337.039C337.039 178.285 337.169 177.93 337.429 177.588C337.693 177.242 338.049 176.968 338.495 176.768C338.946 176.567 339.441 176.467 339.979 176.467C340.831 176.467 341.498 176.681 341.981 177.109C342.465 177.533 342.715 178.119 342.733 178.866V182.271C342.733 182.95 342.82 183.49 342.993 183.891V184H341.667ZM339.568 183.036C339.965 183.036 340.341 182.934 340.696 182.729C341.052 182.523 341.309 182.257 341.469 181.929V180.411H340.478C338.928 180.411 338.153 180.865 338.153 181.771C338.153 182.168 338.285 182.478 338.55 182.701C338.814 182.924 339.154 183.036 339.568 183.036ZM345.912 176.604L345.953 177.533C346.518 176.822 347.257 176.467 348.168 176.467C349.731 176.467 350.52 177.349 350.533 179.112V184H349.269V179.105C349.264 178.572 349.141 178.178 348.899 177.923C348.662 177.668 348.291 177.54 347.785 177.54C347.375 177.54 347.015 177.649 346.705 177.868C346.395 178.087 346.154 178.374 345.98 178.729V184H344.716V176.604H345.912ZM355.072 180.288H351.736V179.256H355.072V180.288ZM362.701 184H356.18V183.091L359.625 179.263C360.135 178.684 360.486 178.215 360.678 177.854C360.874 177.49 360.972 177.114 360.972 176.727C360.972 176.207 360.814 175.781 360.5 175.448C360.186 175.116 359.766 174.949 359.242 174.949C358.613 174.949 358.123 175.129 357.772 175.489C357.426 175.845 357.253 176.341 357.253 176.979H355.988C355.988 176.063 356.282 175.323 356.87 174.758C357.463 174.193 358.253 173.91 359.242 173.91C360.167 173.91 360.899 174.154 361.437 174.642C361.974 175.125 362.243 175.77 362.243 176.576C362.243 177.556 361.619 178.723 360.37 180.076L357.704 182.968H362.701V184ZM370.282 179.755C370.282 181.236 370.029 182.337 369.523 183.057C369.018 183.777 368.227 184.137 367.151 184.137C366.09 184.137 365.303 183.786 364.793 183.084C364.283 182.378 364.018 181.325 364 179.926V178.237C364 176.774 364.253 175.688 364.759 174.977C365.265 174.266 366.058 173.91 367.138 173.91C368.209 173.91 368.997 174.254 369.503 174.942C370.009 175.626 370.269 176.683 370.282 178.114V179.755ZM369.018 178.025C369.018 176.954 368.867 176.175 368.566 175.688C368.266 175.195 367.789 174.949 367.138 174.949C366.491 174.949 366.019 175.193 365.723 175.681C365.426 176.168 365.274 176.918 365.265 177.93V179.953C365.265 181.029 365.42 181.824 365.729 182.339C366.044 182.849 366.518 183.104 367.151 183.104C367.776 183.104 368.238 182.863 368.539 182.38C368.844 181.897 369.004 181.136 369.018 180.097V178.025ZM378.144 179.755C378.144 181.236 377.891 182.337 377.385 183.057C376.879 183.777 376.088 184.137 375.013 184.137C373.951 184.137 373.165 183.786 372.654 183.084C372.144 182.378 371.88 181.325 371.861 179.926V178.237C371.861 176.774 372.114 175.688 372.62 174.977C373.126 174.266 373.919 173.91 374.999 173.91C376.07 173.91 376.858 174.254 377.364 174.942C377.87 175.626 378.13 176.683 378.144 178.114V179.755ZM376.879 178.025C376.879 176.954 376.729 176.175 376.428 175.688C376.127 175.195 375.651 174.949 374.999 174.949C374.352 174.949 373.88 175.193 373.584 175.681C373.288 176.168 373.135 176.918 373.126 177.93V179.953C373.126 181.029 373.281 181.824 373.591 182.339C373.905 182.849 374.379 183.104 375.013 183.104C375.637 183.104 376.1 182.863 376.4 182.38C376.706 181.897 376.865 181.136 376.879 180.097V178.025ZM386.285 184H379.764V183.091L383.209 179.263C383.719 178.684 384.07 178.215 384.262 177.854C384.458 177.49 384.556 177.114 384.556 176.727C384.556 176.207 384.398 175.781 384.084 175.448C383.77 175.116 383.35 174.949 382.826 174.949C382.197 174.949 381.707 175.129 381.356 175.489C381.01 175.845 380.837 176.341 380.837 176.979H379.572C379.572 176.063 379.866 175.323 380.454 174.758C381.047 174.193 381.837 173.91 382.826 173.91C383.751 173.91 384.483 174.154 385.021 174.642C385.558 175.125 385.827 175.77 385.827 176.576C385.827 177.556 385.203 178.723 383.954 180.076L381.288 182.968H386.285V184Z" fill="black"/>
<rect x="415.5" y="44.5" width="119" height="29" stroke="black"/>
<path d="M448.306 60.1035V64H446.993V54.0469H450.664C451.753 54.0469 452.605 54.3249 453.221 54.8809C453.84 55.4368 454.15 56.1729 454.15 57.0889C454.15 58.055 453.847 58.8001 453.241 59.3242C452.64 59.8438 451.776 60.1035 450.65 60.1035H448.306ZM448.306 59.0303H450.664C451.366 59.0303 451.904 58.8662 452.277 58.5381C452.651 58.2054 452.838 57.7269 452.838 57.1025C452.838 56.5101 452.651 56.0361 452.277 55.6807C451.904 55.3252 451.391 55.1406 450.739 55.127H448.306V59.0303ZM460.111 64C460.038 63.8542 459.979 63.5944 459.934 63.2207C459.346 63.8314 458.644 64.1367 457.828 64.1367C457.099 64.1367 456.5 63.9316 456.03 63.5215C455.565 63.1068 455.333 62.5827 455.333 61.9492C455.333 61.179 455.625 60.582 456.208 60.1582C456.796 59.7298 457.621 59.5156 458.683 59.5156H459.913V58.9346C459.913 58.4925 459.781 58.1416 459.517 57.8818C459.252 57.6175 458.863 57.4854 458.348 57.4854C457.896 57.4854 457.518 57.5993 457.213 57.8271C456.908 58.055 456.755 58.3307 456.755 58.6543H455.483C455.483 58.2852 455.613 57.9297 455.873 57.5879C456.137 57.2415 456.493 56.9681 456.939 56.7676C457.391 56.5671 457.885 56.4668 458.423 56.4668C459.275 56.4668 459.943 56.681 460.426 57.1094C460.909 57.5332 461.16 58.1188 461.178 58.8662V62.2705C461.178 62.9495 461.264 63.4896 461.438 63.8906V64H460.111ZM458.013 63.0361C458.409 63.0361 458.785 62.9336 459.141 62.7285C459.496 62.5234 459.754 62.2568 459.913 61.9287V60.4111H458.922C457.372 60.4111 456.598 60.8646 456.598 61.7715C456.598 62.168 456.73 62.4779 456.994 62.7012C457.258 62.9245 457.598 63.0361 458.013 63.0361ZM466.735 57.7383C466.544 57.7064 466.337 57.6904 466.113 57.6904C465.284 57.6904 464.721 58.0436 464.425 58.75V64H463.16V56.6035H464.391L464.411 57.458C464.826 56.7972 465.414 56.4668 466.175 56.4668C466.421 56.4668 466.608 56.4987 466.735 56.5625V57.7383ZM470.837 64.1367C469.834 64.1367 469.019 63.8086 468.39 63.1523C467.761 62.4915 467.446 61.6097 467.446 60.5068V60.2744C467.446 59.5407 467.585 58.8867 467.863 58.3125C468.146 57.7337 468.538 57.2826 469.039 56.959C469.545 56.6309 470.092 56.4668 470.68 56.4668C471.641 56.4668 472.389 56.7835 472.922 57.417C473.455 58.0505 473.722 58.9574 473.722 60.1377V60.6641H468.711C468.729 61.3932 468.941 61.9834 469.347 62.4346C469.757 62.8812 470.276 63.1045 470.905 63.1045C471.352 63.1045 471.73 63.0133 472.04 62.8311C472.35 62.6488 472.621 62.4072 472.854 62.1064L473.626 62.708C473.006 63.6605 472.076 64.1367 470.837 64.1367ZM470.68 57.5059C470.169 57.5059 469.741 57.6927 469.395 58.0664C469.048 58.4355 468.834 58.9551 468.752 59.625H472.457V59.5293C472.421 58.8867 472.247 58.39 471.938 58.0391C471.628 57.6836 471.208 57.5059 470.68 57.5059ZM476.388 56.6035L476.429 57.5332C476.994 56.8223 477.732 56.4668 478.644 56.4668C480.207 56.4668 480.995 57.3486 481.009 59.1123V64H479.744V59.1055C479.74 58.5723 479.617 58.1781 479.375 57.9229C479.138 57.6676 478.767 57.54 478.261 57.54C477.851 57.54 477.491 57.6494 477.181 57.8682C476.871 58.0869 476.629 58.374 476.456 58.7295V64H475.191V56.6035H476.388ZM484.632 54.8125V56.6035H486.013V57.5811H484.632V62.168C484.632 62.4642 484.693 62.6875 484.816 62.8379C484.939 62.9837 485.149 63.0566 485.445 63.0566C485.591 63.0566 485.792 63.0293 486.047 62.9746V64C485.714 64.0911 485.391 64.1367 485.076 64.1367C484.511 64.1367 484.085 63.9658 483.798 63.624C483.511 63.2822 483.367 62.7969 483.367 62.168V57.5811H482.021V56.6035H483.367V54.8125H484.632ZM492.828 65.0322H486.566V64H492.828V65.0322ZM495.187 64H493.922V56.6035H495.187V64ZM493.819 54.6416C493.819 54.4365 493.881 54.2633 494.004 54.1221C494.132 53.9808 494.318 53.9102 494.564 53.9102C494.811 53.9102 494.997 53.9808 495.125 54.1221C495.253 54.2633 495.316 54.4365 495.316 54.6416C495.316 54.8467 495.253 55.0176 495.125 55.1543C494.997 55.291 494.811 55.3594 494.564 55.3594C494.318 55.3594 494.132 55.291 494.004 55.1543C493.881 55.0176 493.819 54.8467 493.819 54.6416ZM496.909 60.2402C496.909 59.1055 497.178 58.194 497.716 57.5059C498.254 56.8132 498.958 56.4668 499.828 56.4668C500.694 56.4668 501.38 56.763 501.886 57.3555V53.5H503.15V64H501.988L501.927 63.207C501.421 63.8268 500.717 64.1367 499.814 64.1367C498.958 64.1367 498.258 63.7858 497.716 63.084C497.178 62.3822 496.909 61.4661 496.909 60.3359V60.2402ZM498.174 60.3838C498.174 61.2223 498.347 61.8786 498.693 62.3525C499.04 62.8265 499.518 63.0635 500.129 63.0635C500.931 63.0635 501.517 62.7035 501.886 61.9834V58.5859C501.507 57.8887 500.926 57.54 500.143 57.54C499.523 57.54 499.04 57.7793 498.693 58.2578C498.347 58.7363 498.174 59.445 498.174 60.3838Z" fill="black"/>
<rect x="415.5" y="74.5" width="119" height="29" fill="#5D98FA" fill-opacity="0.5"/>
<rect x="415.5" y="74.5" width="119" height="29" stroke="black"/>
<path d="M473.305 90.6572H474.686V91.6895H473.305V94H472.033V91.6895H467.501V90.9443L471.958 84.0469H473.305V90.6572ZM468.937 90.6572H472.033V85.7764L471.883 86.0498L468.937 90.6572ZM481.166 90.6572H482.547V91.6895H481.166V94H479.895V91.6895H475.362V90.9443L479.819 84.0469H481.166V90.6572ZM476.798 90.6572H479.895V85.7764L479.744 86.0498L476.798 90.6572Z" fill="black"/>
<rect x="415.5" y="104.5" width="119" height="29" stroke="black"/>
<path d="M469.805 118.408H470.755C471.352 118.399 471.821 118.242 472.163 117.937C472.505 117.631 472.676 117.219 472.676 116.699C472.676 115.533 472.095 114.949 470.933 114.949C470.386 114.949 469.948 115.106 469.62 115.421C469.297 115.731 469.135 116.143 469.135 116.658H467.87C467.87 115.87 468.157 115.216 468.731 114.696C469.31 114.172 470.044 113.91 470.933 113.91C471.871 113.91 472.607 114.159 473.141 114.655C473.674 115.152 473.94 115.842 473.94 116.727C473.94 117.16 473.799 117.579 473.517 117.984C473.239 118.39 472.858 118.693 472.375 118.894C472.922 119.067 473.343 119.354 473.64 119.755C473.94 120.156 474.091 120.646 474.091 121.225C474.091 122.118 473.799 122.826 473.216 123.351C472.632 123.875 471.874 124.137 470.939 124.137C470.005 124.137 469.244 123.884 468.656 123.378C468.073 122.872 467.781 122.204 467.781 121.375H469.053C469.053 121.899 469.224 122.318 469.565 122.633C469.907 122.947 470.365 123.104 470.939 123.104C471.55 123.104 472.017 122.945 472.341 122.626C472.664 122.307 472.826 121.849 472.826 121.252C472.826 120.673 472.648 120.229 472.293 119.919C471.938 119.609 471.425 119.45 470.755 119.44H469.805V118.408ZM477.666 118.408H478.616C479.213 118.399 479.683 118.242 480.024 117.937C480.366 117.631 480.537 117.219 480.537 116.699C480.537 115.533 479.956 114.949 478.794 114.949C478.247 114.949 477.81 115.106 477.481 115.421C477.158 115.731 476.996 116.143 476.996 116.658H475.731C475.731 115.87 476.019 115.216 476.593 114.696C477.172 114.172 477.905 113.91 478.794 113.91C479.733 113.91 480.469 114.159 481.002 114.655C481.535 115.152 481.802 115.842 481.802 116.727C481.802 117.16 481.66 117.579 481.378 117.984C481.1 118.39 480.719 118.693 480.236 118.894C480.783 119.067 481.205 119.354 481.501 119.755C481.802 120.156 481.952 120.646 481.952 121.225C481.952 122.118 481.66 122.826 481.077 123.351C480.494 123.875 479.735 124.137 478.801 124.137C477.867 124.137 477.105 123.884 476.518 123.378C475.934 122.872 475.643 122.204 475.643 121.375H476.914C476.914 121.899 477.085 122.318 477.427 122.633C477.769 122.947 478.227 123.104 478.801 123.104C479.411 123.104 479.879 122.945 480.202 122.626C480.526 122.307 480.688 121.849 480.688 121.252C480.688 120.673 480.51 120.229 480.154 119.919C479.799 119.609 479.286 119.45 478.616 119.44H477.666V118.408Z" fill="black"/>
<rect x="415.5" y="134.5" width="119" height="29" stroke="black"/>
<path d="M474.487 154H467.966V153.091L471.411 149.263C471.922 148.684 472.272 148.215 472.464 147.854C472.66 147.49 472.758 147.114 472.758 146.727C472.758 146.207 472.601 145.781 472.286 145.448C471.972 145.116 471.552 144.949 471.028 144.949C470.399 144.949 469.91 145.129 469.559 145.489C469.212 145.845 469.039 146.341 469.039 146.979H467.774C467.774 146.063 468.068 145.323 468.656 144.758C469.249 144.193 470.039 143.91 471.028 143.91C471.953 143.91 472.685 144.154 473.223 144.642C473.76 145.125 474.029 145.77 474.029 146.576C474.029 147.556 473.405 148.723 472.156 150.076L469.49 152.968H474.487V154ZM482.349 154H475.827V153.091L479.272 149.263C479.783 148.684 480.134 148.215 480.325 147.854C480.521 147.49 480.619 147.114 480.619 146.727C480.619 146.207 480.462 145.781 480.147 145.448C479.833 145.116 479.414 144.949 478.89 144.949C478.261 144.949 477.771 145.129 477.42 145.489C477.074 145.845 476.9 146.341 476.9 146.979H475.636C475.636 146.063 475.93 145.323 476.518 144.758C477.11 144.193 477.901 143.91 478.89 143.91C479.815 143.91 480.546 144.154 481.084 144.642C481.622 145.125 481.891 145.77 481.891 146.576C481.891 147.556 481.266 148.723 480.018 150.076L477.352 152.968H482.349V154Z" fill="black"/>
<rect x="415.5" y="164.5" width="119" height="29" stroke="black"/>
<path d="M472.122 184H470.851V175.571L468.301 176.508V175.359L471.924 173.999H472.122V184ZM479.983 184H478.712V175.571L476.162 176.508V175.359L479.785 173.999H479.983V184Z" fill="black"/>
<path d="M192.844 12.2266H195.18C195.133 12.9922 194.922 13.6719 194.547 14.2656C194.177 14.8594 193.659 15.3229 192.992 15.6562C192.331 15.9896 191.534 16.1562 190.602 16.1562C189.872 16.1562 189.219 16.0312 188.641 15.7812C188.062 15.526 187.568 15.1615 187.156 14.6875C186.75 14.2135 186.44 13.6406 186.227 12.9688C186.013 12.2969 185.906 11.5443 185.906 10.7109V9.92188C185.906 9.08854 186.016 8.33594 186.234 7.66406C186.458 6.98698 186.776 6.41146 187.188 5.9375C187.604 5.46354 188.102 5.09896 188.68 4.84375C189.258 4.58854 189.904 4.46094 190.617 4.46094C191.565 4.46094 192.365 4.63281 193.016 4.97656C193.672 5.32031 194.18 5.79427 194.539 6.39844C194.904 7.0026 195.122 7.6901 195.195 8.46094H192.852C192.826 8.0026 192.734 7.61458 192.578 7.29688C192.422 6.97396 192.185 6.73177 191.867 6.57031C191.555 6.40365 191.138 6.32031 190.617 6.32031C190.227 6.32031 189.885 6.39323 189.594 6.53906C189.302 6.6849 189.057 6.90625 188.859 7.20312C188.661 7.5 188.513 7.875 188.414 8.32812C188.32 8.77604 188.273 9.30208 188.273 9.90625V10.7109C188.273 11.2995 188.318 11.8177 188.406 12.2656C188.495 12.7083 188.63 13.0833 188.812 13.3906C189 13.6927 189.24 13.9219 189.531 14.0781C189.828 14.2292 190.185 14.3047 190.602 14.3047C191.091 14.3047 191.495 14.2266 191.812 14.0703C192.13 13.9141 192.372 13.6823 192.539 13.375C192.711 13.0677 192.812 12.6849 192.844 12.2266ZM196.219 11.8594V11.6953C196.219 11.0755 196.307 10.5052 196.484 9.98438C196.661 9.45833 196.919 9.0026 197.258 8.61719C197.596 8.23177 198.013 7.93229 198.508 7.71875C199.003 7.5 199.57 7.39062 200.211 7.39062C200.852 7.39062 201.422 7.5 201.922 7.71875C202.422 7.93229 202.841 8.23177 203.18 8.61719C203.523 9.0026 203.784 9.45833 203.961 9.98438C204.138 10.5052 204.227 11.0755 204.227 11.6953V11.8594C204.227 12.474 204.138 13.0443 203.961 13.5703C203.784 14.0911 203.523 14.5469 203.18 14.9375C202.841 15.3229 202.424 15.6224 201.93 15.8359C201.435 16.0495 200.867 16.1562 200.227 16.1562C199.586 16.1562 199.016 16.0495 198.516 15.8359C198.021 15.6224 197.602 15.3229 197.258 14.9375C196.919 14.5469 196.661 14.0911 196.484 13.5703C196.307 13.0443 196.219 12.474 196.219 11.8594ZM198.469 11.6953V11.8594C198.469 12.2135 198.5 12.5443 198.562 12.8516C198.625 13.1589 198.724 13.4297 198.859 13.6641C199 13.8932 199.182 14.0729 199.406 14.2031C199.63 14.3333 199.904 14.3984 200.227 14.3984C200.539 14.3984 200.807 14.3333 201.031 14.2031C201.255 14.0729 201.435 13.8932 201.57 13.6641C201.706 13.4297 201.805 13.1589 201.867 12.8516C201.935 12.5443 201.969 12.2135 201.969 11.8594V11.6953C201.969 11.3516 201.935 11.0286 201.867 10.7266C201.805 10.4193 201.703 10.1484 201.562 9.91406C201.427 9.67448 201.247 9.48698 201.023 9.35156C200.799 9.21615 200.529 9.14844 200.211 9.14844C199.893 9.14844 199.622 9.21615 199.398 9.35156C199.18 9.48698 199 9.67448 198.859 9.91406C198.724 10.1484 198.625 10.4193 198.562 10.7266C198.5 11.0286 198.469 11.3516 198.469 11.6953ZM207.984 4V16H205.727V4H207.984ZM214.844 13.9766V7.54688H217.094V16H214.977L214.844 13.9766ZM215.094 12.2422L215.758 12.2266C215.758 12.7891 215.693 13.3125 215.562 13.7969C215.432 14.276 215.237 14.6927 214.977 15.0469C214.716 15.3958 214.388 15.6693 213.992 15.8672C213.596 16.0599 213.13 16.1562 212.594 16.1562C212.182 16.1562 211.802 16.099 211.453 15.9844C211.109 15.8646 210.812 15.6797 210.562 15.4297C210.318 15.1745 210.125 14.849 209.984 14.4531C209.849 14.0521 209.781 13.5703 209.781 13.0078V7.54688H212.031V13.0234C212.031 13.2734 212.06 13.4844 212.117 13.6562C212.18 13.8281 212.266 13.9688 212.375 14.0781C212.484 14.1875 212.612 14.2656 212.758 14.3125C212.909 14.3594 213.076 14.3828 213.258 14.3828C213.721 14.3828 214.086 14.2891 214.352 14.1016C214.622 13.9141 214.812 13.6589 214.922 13.3359C215.036 13.0078 215.094 12.6432 215.094 12.2422ZM221.062 9.29688V16H218.805V7.54688H220.922L221.062 9.29688ZM220.75 11.4766H220.125C220.125 10.888 220.195 10.3464 220.336 9.85156C220.482 9.35156 220.693 8.91927 220.969 8.55469C221.25 8.1849 221.596 7.89844 222.008 7.69531C222.419 7.49219 222.896 7.39062 223.438 7.39062C223.812 7.39062 224.156 7.44792 224.469 7.5625C224.781 7.67188 225.049 7.84635 225.273 8.08594C225.503 8.32031 225.68 8.6276 225.805 9.00781C225.93 9.38281 225.992 9.83333 225.992 10.3594V16H223.742V10.6094C223.742 10.224 223.69 9.92708 223.586 9.71875C223.482 9.51042 223.333 9.36458 223.141 9.28125C222.953 9.19792 222.727 9.15625 222.461 9.15625C222.169 9.15625 221.914 9.21615 221.695 9.33594C221.482 9.45573 221.305 9.6224 221.164 9.83594C221.023 10.0443 220.919 10.2891 220.852 10.5703C220.784 10.8516 220.75 11.1536 220.75 11.4766ZM225.781 11.2188L224.977 11.3203C224.977 10.7682 225.044 10.2552 225.18 9.78125C225.32 9.30729 225.526 8.89062 225.797 8.53125C226.073 8.17188 226.414 7.89323 226.82 7.69531C227.227 7.49219 227.695 7.39062 228.227 7.39062C228.633 7.39062 229.003 7.45052 229.336 7.57031C229.669 7.6849 229.953 7.86979 230.188 8.125C230.427 8.375 230.609 8.70312 230.734 9.10938C230.865 9.51562 230.93 10.013 230.93 10.6016V16H228.672V10.6016C228.672 10.2109 228.62 9.91406 228.516 9.71094C228.417 9.5026 228.271 9.35938 228.078 9.28125C227.891 9.19792 227.667 9.15625 227.406 9.15625C227.135 9.15625 226.898 9.21094 226.695 9.32031C226.492 9.42448 226.323 9.57031 226.188 9.75781C226.052 9.94531 225.951 10.1641 225.883 10.4141C225.815 10.6589 225.781 10.9271 225.781 11.2188ZM234.875 9.35156V16H232.625V7.54688H234.734L234.875 9.35156ZM234.547 11.4766H233.938C233.938 10.8516 234.018 10.2891 234.18 9.78906C234.341 9.28385 234.568 8.85417 234.859 8.5C235.151 8.14062 235.497 7.86719 235.898 7.67969C236.305 7.48698 236.758 7.39062 237.258 7.39062C237.654 7.39062 238.016 7.44792 238.344 7.5625C238.672 7.67708 238.953 7.85938 239.188 8.10938C239.427 8.35938 239.609 8.6901 239.734 9.10156C239.865 9.51302 239.93 10.0156 239.93 10.6094V16H237.664V10.6016C237.664 10.2266 237.612 9.9349 237.508 9.72656C237.404 9.51823 237.25 9.3724 237.047 9.28906C236.849 9.20052 236.604 9.15625 236.312 9.15625C236.01 9.15625 235.747 9.21615 235.523 9.33594C235.305 9.45573 235.122 9.6224 234.977 9.83594C234.836 10.0443 234.729 10.2891 234.656 10.5703C234.583 10.8516 234.547 11.1536 234.547 11.4766Z" fill="#239515"/>
<path fill-rule="evenodd" clip-rule="evenodd" d="M209.969 29.75L213 35L216.031 29.75H213.969V22H211.969L211.969 29.75H209.969Z" fill="#239515"/>
<path d="M2.5 83.125H6.74219C7.61198 83.125 8.35938 83.2552 8.98438 83.5156C9.61458 83.776 10.099 84.1615 10.4375 84.6719C10.776 85.1823 10.9453 85.8099 10.9453 86.5547C10.9453 87.1641 10.8411 87.6875 10.6328 88.125C10.4297 88.5573 10.1406 88.9193 9.76562 89.2109C9.39583 89.4974 8.96094 89.7266 8.46094 89.8984L7.71875 90.2891H4.03125L4.01562 88.4609H6.75781C7.16927 88.4609 7.51042 88.388 7.78125 88.2422C8.05208 88.0964 8.25521 87.8932 8.39062 87.6328C8.53125 87.3724 8.60156 87.0703 8.60156 86.7266C8.60156 86.362 8.53385 86.0469 8.39844 85.7812C8.26302 85.5156 8.05729 85.3125 7.78125 85.1719C7.50521 85.0312 7.15885 84.9609 6.74219 84.9609H4.84375V94.5H2.5V83.125ZM8.85938 94.5L6.26562 89.4297L8.74219 89.4141L11.3672 94.3906V94.5H8.85938ZM12.25 90.3594V90.1953C12.25 89.5755 12.3385 89.0052 12.5156 88.4844C12.6927 87.9583 12.9505 87.5026 13.2891 87.1172C13.6276 86.7318 14.0443 86.4323 14.5391 86.2188C15.0339 86 15.6016 85.8906 16.2422 85.8906C16.8828 85.8906 17.4531 86 17.9531 86.2188C18.4531 86.4323 18.8724 86.7318 19.2109 87.1172C19.5547 87.5026 19.8151 87.9583 19.9922 88.4844C20.1693 89.0052 20.2578 89.5755 20.2578 90.1953V90.3594C20.2578 90.974 20.1693 91.5443 19.9922 92.0703C19.8151 92.5911 19.5547 93.0469 19.2109 93.4375C18.8724 93.8229 18.4557 94.1224 17.9609 94.3359C17.4661 94.5495 16.8984 94.6562 16.2578 94.6562C15.6172 94.6562 15.0469 94.5495 14.5469 94.3359C14.0521 94.1224 13.6328 93.8229 13.2891 93.4375C12.9505 93.0469 12.6927 92.5911 12.5156 92.0703C12.3385 91.5443 12.25 90.974 12.25 90.3594ZM14.5 90.1953V90.3594C14.5 90.7135 14.5312 91.0443 14.5938 91.3516C14.6562 91.6589 14.7552 91.9297 14.8906 92.1641C15.0312 92.3932 15.2135 92.5729 15.4375 92.7031C15.6615 92.8333 15.9349 92.8984 16.2578 92.8984C16.5703 92.8984 16.8385 92.8333 17.0625 92.7031C17.2865 92.5729 17.4661 92.3932 17.6016 92.1641C17.737 91.9297 17.8359 91.6589 17.8984 91.3516C17.9661 91.0443 18 90.7135 18 90.3594V90.1953C18 89.8516 17.9661 89.5286 17.8984 89.2266C17.8359 88.9193 17.7344 88.6484 17.5938 88.4141C17.4583 88.1745 17.2786 87.987 17.0547 87.8516C16.8307 87.7161 16.5599 87.6484 16.2422 87.6484C15.9245 87.6484 15.6536 87.7161 15.4297 87.8516C15.2109 87.987 15.0312 88.1745 14.8906 88.4141C14.7552 88.6484 14.6562 88.9193 14.5938 89.2266C14.5312 89.5286 14.5 89.8516 14.5 90.1953ZM24.0547 92.3125L25.8125 86.0469H27.2422L26.7812 88.5078L25.0234 94.5H23.8281L24.0547 92.3125ZM23.1641 86.0469L24.4219 92.3047L24.5391 94.5H23.1328L20.9922 86.0469H23.1641ZM28.8516 92.2031L30.0781 86.0469H32.2578L30.1172 94.5H28.7188L28.8516 92.2031ZM27.4375 86.0469L29.1875 92.2656L29.4297 94.5H28.2266L26.4688 88.5156L26.0234 86.0469H27.4375Z" fill="#5D98FA"/>
<path fill-rule="evenodd" clip-rule="evenodd" d="M44.75 92.0311L50 89L44.75 85.9689L44.75 88.0311L37 88.0311L37 90.031L44.75 90.0311L44.75 92.0311Z" fill="#00A3FF"/>
<!-- made by UXKM, K.S.Chu -->
</svg>
