<svg width="258" height="164" viewBox="0 0 258 164" fill="none" xmlns="http://www.w3.org/2000/svg">
<path d="M123 22H23V122H123V22Z" fill="#FFE600"/>
<path d="M223 22H123V122H223V22Z" fill="#85E383"/>
<path fill-rule="evenodd" clip-rule="evenodd" d="M25 22H35V24H25V34H23V24V22H25ZM23 120V110H25V120H35V122H25H23V120ZM124 24V34H122V24H112V22H122H124H134V24H124ZM122 110V120H112V122H122H124H134V120H124V110H122ZM223 34V24V22H221H211V24H221V34H223ZM221 122H211V120H221V110H223V120V122H221Z" fill="black"/>
<path opacity="0.5" fill-rule="evenodd" clip-rule="evenodd" d="M244.75 23L239.5 26.0311V24H25.0311V142.5H27.0622L24.0311 147.75L21 142.5H23.0311V24H23V22H23.0311H25.0311H239.5V19.9689L244.75 23Z" fill="#FF0000"/>
<path fill-rule="evenodd" clip-rule="evenodd" d="M233.031 24L230 29.25H232.031V62.75H234.031V29.25H236.062L233.031 24ZM233.031 121.75L230 116.5H232.031V83H234.031V116.5H236.062L233.031 121.75Z" fill="#00A3FF"/>
<path fill-rule="evenodd" clip-rule="evenodd" d="M25 135.031L30.25 138.062V136.031H100.75V134.031H30.25V132L25 135.031ZM222.75 135.031L217.5 138.062V136.031H147V134.031H217.5V132L222.75 135.031Z" fill="#00A3FF"/>
<path d="M26.4023 6.86133L28.7881 3.04688H30.333L27.1885 7.98242L30.4082 13H28.8496L26.4023 9.11719L23.9414 13H22.3896L25.6162 7.98242L22.4648 3.04688H24.0029L26.4023 6.86133ZM35.7607 13H34.4893V4.57129L31.9395 5.50781V4.35938L35.5625 2.99902H35.7607V13Z" fill="black"/>
<path d="M4.19043 27.0439L6.78809 22.0469H8.27832L4.84668 28.2881V32H3.53418V28.2881L0.102539 22.0469H1.60645L4.19043 27.0439ZM13.3916 32H12.1201V23.5713L9.57031 24.5078V23.3594L13.1934 21.999H13.3916V32Z" fill="black"/>
<path d="M4.19043 117.044L6.78809 112.047H8.27832L4.84668 118.288V122H3.53418V118.288L0.102539 112.047H1.60645L4.19043 117.044ZM15.7568 122H9.23535V121.091L12.6807 117.263C13.1911 116.684 13.542 116.215 13.7334 115.854C13.9294 115.49 14.0273 115.114 14.0273 114.727C14.0273 114.207 13.8701 113.781 13.5557 113.448C13.2412 113.116 12.8219 112.949 12.2979 112.949C11.6689 112.949 11.179 113.129 10.8281 113.489C10.4818 113.845 10.3086 114.341 10.3086 114.979H9.04395C9.04395 114.063 9.33789 113.323 9.92578 112.758C10.5182 112.193 11.3089 111.91 12.2979 111.91C13.223 111.91 13.9544 112.154 14.4922 112.642C15.0299 113.125 15.2988 113.77 15.2988 114.576C15.2988 115.556 14.6745 116.723 13.4258 118.076L10.7598 120.968H15.7568V122Z" fill="black"/>
<path opacity="0.5" d="M24.1904 156.044L26.7881 151.047H28.2783L24.8467 157.288V161H23.5342V157.288L20.1025 151.047H21.6064L24.1904 156.044Z" fill="#FF0000"/>
<path d="M119.402 6.86133L121.788 3.04688H123.333L120.188 7.98242L123.408 13H121.85L119.402 9.11719L116.941 13H115.39L118.616 7.98242L115.465 3.04688H117.003L119.402 6.86133ZM131.126 13H124.604V12.0908L128.05 8.2627C128.56 7.68392 128.911 7.21452 129.103 6.85449C129.299 6.48991 129.396 6.11393 129.396 5.72656C129.396 5.20703 129.239 4.78092 128.925 4.44824C128.61 4.11556 128.191 3.94922 127.667 3.94922C127.038 3.94922 126.548 4.12923 126.197 4.48926C125.851 4.84473 125.678 5.34147 125.678 5.97949H124.413C124.413 5.06348 124.707 4.32292 125.295 3.75781C125.887 3.19271 126.678 2.91016 127.667 2.91016C128.592 2.91016 129.324 3.15397 129.861 3.6416C130.399 4.12467 130.668 4.76953 130.668 5.57617C130.668 6.55599 130.044 7.72266 128.795 9.07617L126.129 11.9678H131.126V13Z" fill="black"/>
<path d="M212.402 6.86133L214.788 3.04688H216.333L213.188 7.98242L216.408 13H214.85L212.402 9.11719L209.941 13H208.39L211.616 7.98242L208.465 3.04688H210.003L212.402 6.86133ZM219.443 7.4082H220.394C220.991 7.39909 221.46 7.24186 221.802 6.93652C222.144 6.63118 222.314 6.21875 222.314 5.69922C222.314 4.53255 221.733 3.94922 220.571 3.94922C220.024 3.94922 219.587 4.10645 219.259 4.4209C218.935 4.73079 218.773 5.14323 218.773 5.6582H217.509C217.509 4.86979 217.796 4.21582 218.37 3.69629C218.949 3.1722 219.683 2.91016 220.571 2.91016C221.51 2.91016 222.246 3.15853 222.779 3.65527C223.312 4.15202 223.579 4.84245 223.579 5.72656C223.579 6.15951 223.438 6.57878 223.155 6.98438C222.877 7.38997 222.497 7.69303 222.014 7.89355C222.561 8.06673 222.982 8.35384 223.278 8.75488C223.579 9.15592 223.729 9.64583 223.729 10.2246C223.729 11.1178 223.438 11.8265 222.854 12.3506C222.271 12.8747 221.512 13.1367 220.578 13.1367C219.644 13.1367 218.883 12.8838 218.295 12.3779C217.712 11.8721 217.42 11.2044 217.42 10.375H218.691C218.691 10.8991 218.862 11.3184 219.204 11.6328C219.546 11.9473 220.004 12.1045 220.578 12.1045C221.189 12.1045 221.656 11.945 221.979 11.626C222.303 11.307 222.465 10.849 222.465 10.252C222.465 9.67318 222.287 9.22884 221.932 8.91895C221.576 8.60905 221.063 8.44954 220.394 8.44043H219.443V7.4082Z" fill="black"/>
<path opacity="0.5" d="M252.402 21.8613L254.788 18.0469H256.333L253.188 22.9824L256.408 28H254.85L252.402 24.1172L249.941 28H248.39L251.616 22.9824L248.465 18.0469H250.003L252.402 21.8613Z" fill="#FF0000"/>
<path d="M54.9247 78V70.3636H56.6697V71.6364H56.7493C56.8885 71.1955 57.1271 70.8558 57.4652 70.6172C57.8066 70.3752 58.196 70.2543 58.6335 70.2543C58.733 70.2543 58.844 70.2592 58.9666 70.2692C59.0926 70.2758 59.197 70.2874 59.2798 70.304V71.9595C59.2036 71.933 59.0826 71.9098 58.9169 71.8899C58.7545 71.8667 58.5971 71.8551 58.4446 71.8551C58.1165 71.8551 57.8215 71.9264 57.5597 72.0689C57.3011 72.2081 57.0973 72.402 56.9482 72.6506C56.799 72.8991 56.7244 73.1858 56.7244 73.5107V78H54.9247ZM63.5417 78.1491C62.7761 78.1491 62.1149 77.9901 61.5581 77.6719C61.0046 77.3504 60.5787 76.8963 60.2804 76.3097C59.9821 75.7197 59.8329 75.0253 59.8329 74.2266C59.8329 73.4411 59.9821 72.7517 60.2804 72.1584C60.582 71.5618 61.0029 71.0978 61.5431 70.7663C62.0834 70.4316 62.7181 70.2642 63.4473 70.2642C63.9179 70.2642 64.362 70.3404 64.7797 70.4929C65.2006 70.642 65.5718 70.8741 65.8933 71.1889C66.2181 71.5038 66.4733 71.9048 66.6589 72.392C66.8445 72.8759 66.9373 73.4527 66.9373 74.1222V74.674H60.6781V73.4609H65.2122C65.2089 73.1162 65.1343 72.8097 64.9885 72.5412C64.8426 72.2694 64.6388 72.0556 64.377 71.8999C64.1184 71.7441 63.8168 71.6662 63.4721 71.6662C63.1042 71.6662 62.7811 71.7557 62.5027 71.9347C62.2243 72.1103 62.0072 72.3423 61.8514 72.6307C61.6989 72.9157 61.621 73.2289 61.6177 73.5703V74.6293C61.6177 75.0734 61.6989 75.4545 61.8613 75.7727C62.0237 76.0876 62.2508 76.3295 62.5424 76.4986C62.8341 76.6643 63.1755 76.7472 63.5666 76.7472C63.8284 76.7472 64.0654 76.7107 64.2775 76.6378C64.4896 76.5616 64.6736 76.4505 64.8294 76.3047C64.9851 76.1589 65.1028 75.9782 65.1824 75.7628L66.8627 75.9517C66.7567 76.3958 66.5545 76.7836 66.2562 77.1151C65.9612 77.4432 65.5834 77.6984 65.1227 77.8807C64.662 78.0597 64.135 78.1491 63.5417 78.1491ZM71.7908 78.1491C71.0285 78.1491 70.3739 77.9818 69.8271 77.647C69.2835 77.3123 68.8642 76.8499 68.5692 76.2599C68.2776 75.6667 68.1317 74.9839 68.1317 74.2116C68.1317 73.4361 68.2809 72.7517 68.5792 72.1584C68.8775 71.5618 69.2984 71.0978 69.842 70.7663C70.3888 70.4316 71.0352 70.2642 71.7809 70.2642C72.4007 70.2642 72.9492 70.3786 73.4265 70.6072C73.9071 70.8326 74.2899 71.1525 74.5749 71.5668C74.86 71.9777 75.0224 72.4583 75.0621 73.0085H73.342C73.2724 72.6406 73.1067 72.334 72.8448 72.0888C72.5863 71.8402 72.2399 71.7159 71.8058 71.7159C71.4379 71.7159 71.1147 71.8153 70.8363 72.0142C70.5579 72.2098 70.3408 72.4915 70.185 72.8594C70.0326 73.2273 69.9563 73.6681 69.9563 74.1818C69.9563 74.7022 70.0326 75.1496 70.185 75.5241C70.3375 75.8954 70.5513 76.1821 70.8263 76.3842C71.1048 76.5831 71.4312 76.6825 71.8058 76.6825C72.0709 76.6825 72.3079 76.6328 72.5167 76.5334C72.7288 76.4306 72.9061 76.2831 73.0487 76.0909C73.1912 75.8987 73.2889 75.665 73.342 75.3899H75.0621C75.0191 75.9302 74.86 76.4091 74.5849 76.8267C74.3098 77.241 73.9353 77.5658 73.4613 77.8011C72.9873 78.0331 72.4305 78.1491 71.7908 78.1491ZM80.3532 70.3636V71.7557H75.9632V70.3636H80.3532ZM77.0471 68.5341H78.8468V75.7031C78.8468 75.9451 78.8832 76.1307 78.9561 76.2599C79.0324 76.3859 79.1318 76.4721 79.2544 76.5185C79.3771 76.5649 79.513 76.5881 79.6621 76.5881C79.7748 76.5881 79.8775 76.5798 79.9703 76.5632C80.0665 76.5466 80.1394 76.5317 80.1891 76.5185L80.4924 77.9254C80.3962 77.9586 80.2587 77.995 80.0797 78.0348C79.9041 78.0746 79.6886 78.0978 79.4334 78.1044C78.9827 78.1177 78.5766 78.0497 78.2154 77.9006C77.8541 77.7481 77.5674 77.5128 77.3553 77.1946C77.1465 76.8764 77.0437 76.4787 77.0471 76.0014V68.5341ZM89.4524 67.8182V78H87.608V69.6129H87.5483L85.1669 71.1342V69.4439L87.6974 67.8182H89.4524Z" fill="black"/>
<path d="M153.925 78V70.3636H155.67V71.6364H155.749C155.888 71.1955 156.127 70.8558 156.465 70.6172C156.807 70.3752 157.196 70.2543 157.634 70.2543C157.733 70.2543 157.844 70.2592 157.967 70.2692C158.093 70.2758 158.197 70.2874 158.28 70.304V71.9595C158.204 71.933 158.083 71.9098 157.917 71.8899C157.754 71.8667 157.597 71.8551 157.445 71.8551C157.116 71.8551 156.821 71.9264 156.56 72.0689C156.301 72.2081 156.097 72.402 155.948 72.6506C155.799 72.8991 155.724 73.1858 155.724 73.5107V78H153.925ZM162.542 78.1491C161.776 78.1491 161.115 77.9901 160.558 77.6719C160.005 77.3504 159.579 76.8963 159.28 76.3097C158.982 75.7197 158.833 75.0253 158.833 74.2266C158.833 73.4411 158.982 72.7517 159.28 72.1584C159.582 71.5618 160.003 71.0978 160.543 70.7663C161.083 70.4316 161.718 70.2642 162.447 70.2642C162.918 70.2642 163.362 70.3404 163.78 70.4929C164.201 70.642 164.572 70.8741 164.893 71.1889C165.218 71.5038 165.473 71.9048 165.659 72.392C165.845 72.8759 165.937 73.4527 165.937 74.1222V74.674H159.678V73.4609H164.212C164.209 73.1162 164.134 72.8097 163.988 72.5412C163.843 72.2694 163.639 72.0556 163.377 71.8999C163.118 71.7441 162.817 71.6662 162.472 71.6662C162.104 71.6662 161.781 71.7557 161.503 71.9347C161.224 72.1103 161.007 72.3423 160.851 72.6307C160.699 72.9157 160.621 73.2289 160.618 73.5703V74.6293C160.618 75.0734 160.699 75.4545 160.861 75.7727C161.024 76.0876 161.251 76.3295 161.542 76.4986C161.834 76.6643 162.175 76.7472 162.567 76.7472C162.828 76.7472 163.065 76.7107 163.278 76.6378C163.49 76.5616 163.674 76.4505 163.829 76.3047C163.985 76.1589 164.103 75.9782 164.182 75.7628L165.863 75.9517C165.757 76.3958 165.555 76.7836 165.256 77.1151C164.961 77.4432 164.583 77.6984 164.123 77.8807C163.662 78.0597 163.135 78.1491 162.542 78.1491ZM170.791 78.1491C170.029 78.1491 169.374 77.9818 168.827 77.647C168.283 77.3123 167.864 76.8499 167.569 76.2599C167.278 75.6667 167.132 74.9839 167.132 74.2116C167.132 73.4361 167.281 72.7517 167.579 72.1584C167.877 71.5618 168.298 71.0978 168.842 70.7663C169.389 70.4316 170.035 70.2642 170.781 70.2642C171.401 70.2642 171.949 70.3786 172.426 70.6072C172.907 70.8326 173.29 71.1525 173.575 71.5668C173.86 71.9777 174.022 72.4583 174.062 73.0085H172.342C172.272 72.6406 172.107 72.334 171.845 72.0888C171.586 71.8402 171.24 71.7159 170.806 71.7159C170.438 71.7159 170.115 71.8153 169.836 72.0142C169.558 72.2098 169.341 72.4915 169.185 72.8594C169.033 73.2273 168.956 73.6681 168.956 74.1818C168.956 74.7022 169.033 75.1496 169.185 75.5241C169.337 75.8954 169.551 76.1821 169.826 76.3842C170.105 76.5831 170.431 76.6825 170.806 76.6825C171.071 76.6825 171.308 76.6328 171.517 76.5334C171.729 76.4306 171.906 76.2831 172.049 76.0909C172.191 75.8987 172.289 75.665 172.342 75.3899H174.062C174.019 75.9302 173.86 76.4091 173.585 76.8267C173.31 77.241 172.935 77.5658 172.461 77.8011C171.987 78.0331 171.431 78.1491 170.791 78.1491ZM179.353 70.3636V71.7557H174.963V70.3636H179.353ZM176.047 68.5341H177.847V75.7031C177.847 75.9451 177.883 76.1307 177.956 76.2599C178.032 76.3859 178.132 76.4721 178.254 76.5185C178.377 76.5649 178.513 76.5881 178.662 76.5881C178.775 76.5881 178.878 76.5798 178.97 76.5632C179.066 76.5466 179.139 76.5317 179.189 76.5185L179.492 77.9254C179.396 77.9586 179.259 77.995 179.08 78.0348C178.904 78.0746 178.689 78.0978 178.433 78.1044C177.983 78.1177 177.577 78.0497 177.215 77.9006C176.854 77.7481 176.567 77.5128 176.355 77.1946C176.146 76.8764 176.044 76.4787 176.047 76.0014V68.5341ZM184.311 78V76.6676L187.846 73.2024C188.184 72.861 188.466 72.5578 188.691 72.2926C188.916 72.0275 189.085 71.7706 189.198 71.522C189.311 71.2734 189.367 71.0083 189.367 70.7266C189.367 70.4051 189.294 70.13 189.148 69.9013C189.003 69.6693 188.802 69.4903 188.547 69.3643C188.292 69.2384 188.002 69.1754 187.677 69.1754C187.342 69.1754 187.049 69.245 186.797 69.3842C186.545 69.5201 186.349 69.714 186.21 69.9659C186.074 70.2178 186.006 70.5178 186.006 70.8658H184.251C184.251 70.2195 184.399 69.6577 184.694 69.1804C184.989 68.7031 185.395 68.3336 185.912 68.0717C186.432 67.8099 187.029 67.679 187.702 67.679C188.384 67.679 188.984 67.8066 189.501 68.0618C190.018 68.317 190.42 68.6667 190.705 69.1108C190.993 69.5549 191.137 70.062 191.137 70.6321C191.137 71.0133 191.064 71.3878 190.918 71.7557C190.772 72.1236 190.516 72.5312 190.148 72.9787C189.783 73.4261 189.271 73.968 188.612 74.6044L186.857 76.3892V76.4588H191.291V78H184.311Z" fill="black"/>
<path d="M103.84 140V138.763L107.123 135.545C107.436 135.228 107.698 134.946 107.907 134.7C108.117 134.454 108.274 134.216 108.378 133.985C108.483 133.754 108.535 133.508 108.535 133.246C108.535 132.948 108.467 132.692 108.332 132.48C108.197 132.264 108.01 132.098 107.773 131.981C107.536 131.864 107.267 131.806 106.966 131.806C106.655 131.806 106.382 131.87 106.148 132C105.915 132.126 105.733 132.306 105.604 132.54C105.478 132.774 105.414 133.052 105.414 133.375H103.785C103.785 132.775 103.922 132.254 104.196 131.81C104.47 131.367 104.847 131.024 105.327 130.781C105.81 130.538 106.364 130.416 106.989 130.416C107.623 130.416 108.18 130.535 108.66 130.772C109.14 131.009 109.512 131.333 109.777 131.746C110.045 132.158 110.179 132.629 110.179 133.158C110.179 133.512 110.111 133.86 109.975 134.202C109.84 134.543 109.602 134.922 109.26 135.337C108.921 135.753 108.446 136.256 107.833 136.847L106.204 138.504V138.569H110.322V140H103.84ZM115.409 140.18C114.649 140.18 113.996 139.988 113.452 139.603C112.91 139.215 112.493 138.657 112.201 137.927C111.911 137.195 111.767 136.313 111.767 135.282C111.77 134.251 111.916 133.374 112.205 132.651C112.498 131.924 112.915 131.37 113.456 130.989C114.001 130.607 114.652 130.416 115.409 130.416C116.166 130.416 116.817 130.607 117.362 130.989C117.907 131.37 118.324 131.924 118.613 132.651C118.905 133.377 119.051 134.254 119.051 135.282C119.051 136.316 118.905 137.199 118.613 137.932C118.324 138.661 117.907 139.218 117.362 139.603C116.82 139.988 116.169 140.18 115.409 140.18ZM115.409 138.735C116 138.735 116.466 138.444 116.808 137.863C117.153 137.278 117.325 136.418 117.325 135.282C117.325 134.531 117.246 133.9 117.089 133.389C116.933 132.878 116.711 132.494 116.425 132.235C116.138 131.973 115.8 131.843 115.409 131.843C114.821 131.843 114.357 132.135 114.015 132.72C113.673 133.301 113.501 134.156 113.498 135.282C113.495 136.036 113.57 136.67 113.724 137.184C113.881 137.698 114.103 138.086 114.389 138.347C114.675 138.606 115.015 138.735 115.409 138.735ZM124.08 140.18C123.32 140.18 122.667 139.988 122.123 139.603C121.581 139.215 121.164 138.657 120.872 137.927C120.582 137.195 120.438 136.313 120.438 135.282C120.441 134.251 120.587 133.374 120.876 132.651C121.169 131.924 121.586 131.37 122.127 130.989C122.672 130.607 123.323 130.416 124.08 130.416C124.837 130.416 125.488 130.607 126.033 130.989C126.578 131.37 126.995 131.924 127.284 132.651C127.576 133.377 127.722 134.254 127.722 135.282C127.722 136.316 127.576 137.199 127.284 137.932C126.995 138.661 126.578 139.218 126.033 139.603C125.491 139.988 124.84 140.18 124.08 140.18ZM124.08 138.735C124.671 138.735 125.137 138.444 125.479 137.863C125.823 137.278 125.996 136.418 125.996 135.282C125.996 134.531 125.917 133.9 125.76 133.389C125.603 132.878 125.382 132.494 125.096 132.235C124.809 131.973 124.471 131.843 124.08 131.843C123.492 131.843 123.027 132.135 122.686 132.72C122.344 133.301 122.172 134.156 122.169 135.282C122.166 136.036 122.241 136.67 122.395 137.184C122.552 137.698 122.774 138.086 123.06 138.347C123.346 138.606 123.686 138.735 124.08 138.735ZM129.275 142.659V132.909H130.918V134.082H131.015C131.101 133.909 131.223 133.726 131.38 133.532C131.537 133.335 131.749 133.168 132.017 133.029C132.285 132.888 132.626 132.817 133.042 132.817C133.59 132.817 134.084 132.957 134.524 133.237C134.967 133.514 135.318 133.925 135.576 134.469C135.838 135.011 135.969 135.676 135.969 136.464C135.969 137.242 135.841 137.904 135.585 138.449C135.33 138.994 134.982 139.409 134.542 139.695C134.102 139.982 133.603 140.125 133.046 140.125C132.64 140.125 132.303 140.057 132.035 139.922C131.768 139.786 131.552 139.623 131.389 139.432C131.229 139.238 131.104 139.055 131.015 138.883H130.946V142.659H129.275ZM130.914 136.455C130.914 136.913 130.978 137.315 131.107 137.659C131.24 138.004 131.429 138.273 131.675 138.467C131.925 138.658 132.226 138.754 132.58 138.754C132.949 138.754 133.259 138.655 133.508 138.458C133.757 138.258 133.945 137.986 134.071 137.641C134.2 137.293 134.265 136.898 134.265 136.455C134.265 136.014 134.202 135.624 134.076 135.282C133.95 134.94 133.762 134.673 133.513 134.479C133.263 134.285 132.952 134.188 132.58 134.188C132.223 134.188 131.92 134.282 131.671 134.469C131.421 134.657 131.232 134.92 131.103 135.259C130.977 135.597 130.914 135.996 130.914 136.455ZM138.5 132.909L139.931 135.527L141.385 132.909H143.153L141.016 136.455L143.19 140H141.431L139.931 137.447L138.444 140H136.671L138.832 136.455L136.727 132.909H138.5Z" fill="#00A3FF"/>
<mask id="path-17-outside-1_1341_1015" maskUnits="userSpaceOnUse" x="216" y="66" width="41" height="16" fill="black">
<rect fill="white" x="216" y="66" width="41" height="16"/>
<path d="M222.325 68.2727V77H220.744V69.8111H220.693L218.652 71.1151V69.6662L220.821 68.2727H222.325ZM227.767 77.1662C227.065 77.1662 226.463 76.9886 225.96 76.6335C225.46 76.2756 225.075 75.7599 224.805 75.0866C224.538 74.4105 224.405 73.5966 224.405 72.6449C224.408 71.6932 224.543 70.8835 224.81 70.2159C225.08 69.5455 225.464 69.0341 225.964 68.6818C226.467 68.3295 227.068 68.1534 227.767 68.1534C228.466 68.1534 229.067 68.3295 229.57 68.6818C230.072 69.0341 230.457 69.5455 230.724 70.2159C230.994 70.8864 231.129 71.696 231.129 72.6449C231.129 73.5994 230.994 74.4148 230.724 75.0909C230.457 75.7642 230.072 76.2784 229.57 76.6335C229.07 76.9886 228.469 77.1662 227.767 77.1662ZM227.767 75.8324C228.313 75.8324 228.743 75.5639 229.058 75.027C229.376 74.4872 229.536 73.6932 229.536 72.6449C229.536 71.9517 229.463 71.3693 229.318 70.8977C229.173 70.4261 228.969 70.071 228.705 69.8324C228.44 69.5909 228.128 69.4702 227.767 69.4702C227.224 69.4702 226.795 69.7401 226.48 70.2798C226.165 70.8168 226.006 71.6051 226.003 72.6449C226 73.3409 226.07 73.9261 226.212 74.4006C226.357 74.875 226.561 75.233 226.825 75.4744C227.089 75.7131 227.403 75.8324 227.767 75.8324ZM235.771 77.1662C235.069 77.1662 234.467 76.9886 233.964 76.6335C233.464 76.2756 233.079 75.7599 232.809 75.0866C232.542 74.4105 232.409 73.5966 232.409 72.6449C232.412 71.6932 232.547 70.8835 232.814 70.2159C233.083 69.5455 233.468 69.0341 233.968 68.6818C234.471 68.3295 235.072 68.1534 235.771 68.1534C236.47 68.1534 237.071 68.3295 237.574 68.6818C238.076 69.0341 238.461 69.5455 238.728 70.2159C238.998 70.8864 239.133 71.696 239.133 72.6449C239.133 73.5994 238.998 74.4148 238.728 75.0909C238.461 75.7642 238.076 76.2784 237.574 76.6335C237.074 76.9886 236.473 77.1662 235.771 77.1662ZM235.771 75.8324C236.316 75.8324 236.747 75.5639 237.062 75.027C237.38 74.4872 237.539 73.6932 237.539 72.6449C237.539 71.9517 237.467 71.3693 237.322 70.8977C237.177 70.4261 236.973 70.071 236.708 69.8324C236.444 69.5909 236.132 69.4702 235.771 69.4702C235.228 69.4702 234.799 69.7401 234.484 70.2798C234.169 70.8168 234.01 71.6051 234.007 72.6449C234.004 73.3409 234.074 73.9261 234.216 74.4006C234.36 74.875 234.565 75.233 234.829 75.4744C235.093 75.7131 235.407 75.8324 235.771 75.8324ZM240.566 79.4545V70.4545H242.083V71.5369H242.173C242.252 71.3778 242.364 71.2088 242.509 71.0298C242.654 70.848 242.85 70.6932 243.097 70.5653C243.344 70.4347 243.66 70.3693 244.043 70.3693C244.549 70.3693 245.005 70.4986 245.411 70.7571C245.82 71.0128 246.144 71.392 246.383 71.8949C246.624 72.3949 246.745 73.0085 246.745 73.7358C246.745 74.4545 246.627 75.0653 246.391 75.5682C246.156 76.071 245.835 76.4545 245.428 76.7188C245.022 76.983 244.562 77.1151 244.048 77.1151C243.673 77.1151 243.362 77.0526 243.114 76.9276C242.867 76.8026 242.668 76.652 242.518 76.4759C242.37 76.2969 242.255 76.1278 242.173 75.9688H242.109V79.4545H240.566ZM242.079 73.7273C242.079 74.1506 242.138 74.5213 242.258 74.8395C242.38 75.1577 242.555 75.4062 242.782 75.5852C243.012 75.7614 243.29 75.8494 243.617 75.8494C243.958 75.8494 244.244 75.7585 244.474 75.5767C244.704 75.392 244.877 75.1406 244.994 74.8224C245.113 74.5014 245.173 74.1364 245.173 73.7273C245.173 73.321 245.114 72.9602 244.998 72.6449C244.881 72.3295 244.708 72.0824 244.478 71.9034C244.248 71.7244 243.961 71.6349 243.617 71.6349C243.288 71.6349 243.008 71.7216 242.778 71.8949C242.548 72.0682 242.373 72.3111 242.254 72.6236C242.137 72.9361 242.079 73.304 242.079 73.7273ZM249.081 70.4545L250.402 72.8707L251.745 70.4545H253.377L251.404 73.7273L253.411 77H251.787L250.402 74.6435L249.03 77H247.394L249.388 73.7273L247.445 70.4545H249.081Z"/>
</mask>
<path d="M222.325 68.2727V77H220.744V69.8111H220.693L218.652 71.1151V69.6662L220.821 68.2727H222.325ZM227.767 77.1662C227.065 77.1662 226.463 76.9886 225.96 76.6335C225.46 76.2756 225.075 75.7599 224.805 75.0866C224.538 74.4105 224.405 73.5966 224.405 72.6449C224.408 71.6932 224.543 70.8835 224.81 70.2159C225.08 69.5455 225.464 69.0341 225.964 68.6818C226.467 68.3295 227.068 68.1534 227.767 68.1534C228.466 68.1534 229.067 68.3295 229.57 68.6818C230.072 69.0341 230.457 69.5455 230.724 70.2159C230.994 70.8864 231.129 71.696 231.129 72.6449C231.129 73.5994 230.994 74.4148 230.724 75.0909C230.457 75.7642 230.072 76.2784 229.57 76.6335C229.07 76.9886 228.469 77.1662 227.767 77.1662ZM227.767 75.8324C228.313 75.8324 228.743 75.5639 229.058 75.027C229.376 74.4872 229.536 73.6932 229.536 72.6449C229.536 71.9517 229.463 71.3693 229.318 70.8977C229.173 70.4261 228.969 70.071 228.705 69.8324C228.44 69.5909 228.128 69.4702 227.767 69.4702C227.224 69.4702 226.795 69.7401 226.48 70.2798C226.165 70.8168 226.006 71.6051 226.003 72.6449C226 73.3409 226.07 73.9261 226.212 74.4006C226.357 74.875 226.561 75.233 226.825 75.4744C227.089 75.7131 227.403 75.8324 227.767 75.8324ZM235.771 77.1662C235.069 77.1662 234.467 76.9886 233.964 76.6335C233.464 76.2756 233.079 75.7599 232.809 75.0866C232.542 74.4105 232.409 73.5966 232.409 72.6449C232.412 71.6932 232.547 70.8835 232.814 70.2159C233.083 69.5455 233.468 69.0341 233.968 68.6818C234.471 68.3295 235.072 68.1534 235.771 68.1534C236.47 68.1534 237.071 68.3295 237.574 68.6818C238.076 69.0341 238.461 69.5455 238.728 70.2159C238.998 70.8864 239.133 71.696 239.133 72.6449C239.133 73.5994 238.998 74.4148 238.728 75.0909C238.461 75.7642 238.076 76.2784 237.574 76.6335C237.074 76.9886 236.473 77.1662 235.771 77.1662ZM235.771 75.8324C236.316 75.8324 236.747 75.5639 237.062 75.027C237.38 74.4872 237.539 73.6932 237.539 72.6449C237.539 71.9517 237.467 71.3693 237.322 70.8977C237.177 70.4261 236.973 70.071 236.708 69.8324C236.444 69.5909 236.132 69.4702 235.771 69.4702C235.228 69.4702 234.799 69.7401 234.484 70.2798C234.169 70.8168 234.01 71.6051 234.007 72.6449C234.004 73.3409 234.074 73.9261 234.216 74.4006C234.36 74.875 234.565 75.233 234.829 75.4744C235.093 75.7131 235.407 75.8324 235.771 75.8324ZM240.566 79.4545V70.4545H242.083V71.5369H242.173C242.252 71.3778 242.364 71.2088 242.509 71.0298C242.654 70.848 242.85 70.6932 243.097 70.5653C243.344 70.4347 243.66 70.3693 244.043 70.3693C244.549 70.3693 245.005 70.4986 245.411 70.7571C245.82 71.0128 246.144 71.392 246.383 71.8949C246.624 72.3949 246.745 73.0085 246.745 73.7358C246.745 74.4545 246.627 75.0653 246.391 75.5682C246.156 76.071 245.835 76.4545 245.428 76.7188C245.022 76.983 244.562 77.1151 244.048 77.1151C243.673 77.1151 243.362 77.0526 243.114 76.9276C242.867 76.8026 242.668 76.652 242.518 76.4759C242.37 76.2969 242.255 76.1278 242.173 75.9688H242.109V79.4545H240.566ZM242.079 73.7273C242.079 74.1506 242.138 74.5213 242.258 74.8395C242.38 75.1577 242.555 75.4062 242.782 75.5852C243.012 75.7614 243.29 75.8494 243.617 75.8494C243.958 75.8494 244.244 75.7585 244.474 75.5767C244.704 75.392 244.877 75.1406 244.994 74.8224C245.113 74.5014 245.173 74.1364 245.173 73.7273C245.173 73.321 245.114 72.9602 244.998 72.6449C244.881 72.3295 244.708 72.0824 244.478 71.9034C244.248 71.7244 243.961 71.6349 243.617 71.6349C243.288 71.6349 243.008 71.7216 242.778 71.8949C242.548 72.0682 242.373 72.3111 242.254 72.6236C242.137 72.9361 242.079 73.304 242.079 73.7273ZM249.081 70.4545L250.402 72.8707L251.745 70.4545H253.377L251.404 73.7273L253.411 77H251.787L250.402 74.6435L249.03 77H247.394L249.388 73.7273L247.445 70.4545H249.081Z" fill="#00A3FF"/>
<path d="M222.325 68.2727H224.325V66.2727H222.325V68.2727ZM222.325 77V79H224.325V77H222.325ZM220.744 77H218.744V79H220.744V77ZM220.744 69.8111H222.744V67.8111H220.744V69.8111ZM220.693 69.8111V67.8111H220.109L219.616 68.1256L220.693 69.8111ZM218.652 71.1151H216.652V74.766L219.729 72.8005L218.652 71.1151ZM218.652 69.6662L217.571 67.9835L216.652 68.5739V69.6662H218.652ZM220.821 68.2727V66.2727H220.234L219.74 66.59L220.821 68.2727ZM220.325 68.2727V77H224.325V68.2727H220.325ZM222.325 75H220.744V79H222.325V75ZM222.744 77V69.8111H218.744V77H222.744ZM220.744 67.8111H220.693V71.8111H220.744V67.8111ZM219.616 68.1256L217.575 69.4296L219.729 72.8005L221.77 71.4965L219.616 68.1256ZM220.652 71.1151V69.6662H216.652V71.1151H220.652ZM219.733 71.3489L221.902 69.9554L219.74 66.59L217.571 67.9835L219.733 71.3489ZM220.821 70.2727H222.325V66.2727H220.821V70.2727ZM225.96 76.6335L224.796 78.2598L224.806 78.2672L225.96 76.6335ZM224.805 75.0866L222.945 75.8213L222.949 75.8308L224.805 75.0866ZM224.405 72.6449L222.405 72.6389V72.6449H224.405ZM224.81 70.2159L222.954 69.4691L222.953 69.4731L224.81 70.2159ZM225.964 68.6818L224.817 67.0438L224.813 67.0469L225.964 68.6818ZM229.57 68.6818L228.422 70.3198L228.422 70.3198L229.57 68.6818ZM230.724 70.2159L228.866 70.956L228.869 70.9628L230.724 70.2159ZM230.724 75.0909L228.867 74.3495L228.865 74.3535L230.724 75.0909ZM229.57 76.6335L228.416 74.9998L228.412 75.0029L229.57 76.6335ZM229.058 75.027L227.335 74.0114L227.334 74.0141L229.058 75.027ZM229.318 70.8977L231.23 70.3104L231.23 70.3104L229.318 70.8977ZM228.705 69.8324L227.355 71.3087L227.364 71.3166L228.705 69.8324ZM226.48 70.2798L228.205 71.2927L228.207 71.2887L226.48 70.2798ZM226.003 72.6449L228.003 72.653L228.003 72.6504L226.003 72.6449ZM226.212 74.4006L224.296 74.9742L224.299 74.9847L226.212 74.4006ZM226.825 75.4744L225.476 76.9507L225.485 76.9586L226.825 75.4744ZM227.767 75.1662C227.419 75.1662 227.233 75.0842 227.114 74.9998L224.806 78.2672C225.693 78.8931 226.712 79.1662 227.767 79.1662V75.1662ZM227.124 75.0073C226.987 74.9087 226.816 74.7264 226.662 74.3425L222.949 75.8308C223.335 76.7935 223.934 77.6425 224.796 78.2597L227.124 75.0073ZM226.666 74.352C226.515 73.9698 226.405 73.4189 226.405 72.6449H222.405C222.405 73.7743 222.562 74.8513 222.945 75.8213L226.666 74.352ZM226.405 72.6509C226.407 71.8744 226.518 71.3296 226.667 70.9587L222.953 69.4731C222.567 70.4375 222.408 71.512 222.405 72.6389L226.405 72.6509ZM226.665 70.9628C226.817 70.5839 226.985 70.4093 227.116 70.3168L224.813 67.0469C223.944 67.6589 223.342 68.507 222.954 69.4691L226.665 70.9628ZM227.112 70.3198C227.233 70.2348 227.42 70.1534 227.767 70.1534V66.1534C226.716 66.1534 225.701 66.4243 224.817 67.0438L227.112 70.3198ZM227.767 70.1534C228.114 70.1534 228.301 70.2348 228.422 70.3198L230.717 67.0438C229.833 66.4243 228.818 66.1534 227.767 66.1534V70.1534ZM228.422 70.3198C228.553 70.4115 228.718 70.5829 228.866 70.956L232.582 69.4758C232.197 68.508 231.592 67.6567 230.717 67.0438L228.422 70.3198ZM228.869 70.9628C229.019 71.3343 229.129 71.876 229.129 72.6449H233.129C233.129 71.5161 232.97 70.4385 232.58 69.4691L228.869 70.9628ZM229.129 72.6449C229.129 73.4205 229.018 73.97 228.867 74.3495L232.582 75.8323C232.97 74.8595 233.129 73.7784 233.129 72.6449H229.129ZM228.865 74.3535C228.716 74.7309 228.549 74.9059 228.416 74.9998L230.723 78.2672C231.596 77.651 232.199 76.7975 232.584 75.8283L228.865 74.3535ZM228.412 75.0029C228.297 75.0841 228.116 75.1662 227.767 75.1662V79.1662C228.822 79.1662 229.842 78.8931 230.728 78.2641L228.412 75.0029ZM227.767 77.8324C229.134 77.8324 230.169 77.0848 230.783 76.0398L227.334 74.0141C227.303 74.0666 227.326 74.0054 227.44 73.9341C227.496 73.8992 227.559 73.8715 227.624 73.8537C227.688 73.8362 227.738 73.8324 227.767 73.8324V77.8324ZM230.781 76.0426C231.365 75.0525 231.536 73.8372 231.536 72.6449H227.536C227.536 73.5492 227.388 73.922 227.335 74.0114L230.781 76.0426ZM231.536 72.6449C231.536 71.8265 231.452 71.0319 231.23 70.3104L227.406 71.4851C227.474 71.7067 227.536 72.0769 227.536 72.6449H231.536ZM231.23 70.3104C231.018 69.621 230.661 68.9047 230.045 68.3482L227.364 71.3166C227.319 71.2761 227.31 71.253 227.323 71.2759C227.337 71.3005 227.369 71.3645 227.406 71.4851L231.23 70.3104ZM230.054 68.3561C229.418 67.7747 228.623 67.4702 227.767 67.4702V71.4702C227.72 71.4702 227.642 71.4614 227.551 71.4263C227.46 71.3911 227.394 71.3441 227.355 71.3087L230.054 68.3561ZM227.767 67.4702C226.393 67.4702 225.362 68.2288 224.753 69.271L228.207 71.2887C228.24 71.2329 228.218 71.2935 228.103 71.3654C228.047 71.4008 227.983 71.4293 227.917 71.4478C227.851 71.466 227.799 71.4702 227.767 71.4702V67.4702ZM224.756 69.267C224.178 70.2505 224.006 71.4558 224.003 72.6394L228.003 72.6504C228.005 71.7544 228.152 71.3831 228.205 71.2927L224.756 69.267ZM224.003 72.6367C224 73.4566 224.079 74.2518 224.296 74.9742L228.128 73.8269C228.06 73.6004 228 73.2252 228.003 72.653L224.003 72.6367ZM224.299 74.9847C224.51 75.6753 224.865 76.3919 225.476 76.9507L228.175 73.9981C228.217 74.0371 228.225 74.0579 228.21 74.0326C228.195 74.0056 228.162 73.9392 228.124 73.8164L224.299 74.9847ZM225.485 76.9586C226.125 77.537 226.92 77.8324 227.767 77.8324V73.8324C227.808 73.8324 227.881 73.8399 227.969 73.8734C228.058 73.9072 228.125 73.9532 228.166 73.9902L225.485 76.9586ZM233.964 76.6335L232.8 78.2598L232.81 78.2672L233.964 76.6335ZM232.809 75.0866L230.949 75.8213L230.953 75.8308L232.809 75.0866ZM232.409 72.6449L230.409 72.6389V72.6449H232.409ZM232.814 70.2159L230.958 69.4691L230.957 69.4731L232.814 70.2159ZM233.968 68.6818L232.821 67.0438L232.816 67.0469L233.968 68.6818ZM237.574 68.6818L236.426 70.3198L236.426 70.3198L237.574 68.6818ZM238.728 70.2159L236.87 70.956L236.873 70.9628L238.728 70.2159ZM238.728 75.0909L236.871 74.3495L236.869 74.3535L238.728 75.0909ZM237.574 76.6335L236.42 74.9998L236.415 75.0029L237.574 76.6335ZM237.062 75.027L235.339 74.0114L235.338 74.0141L237.062 75.027ZM237.322 70.8977L239.234 70.3104L239.234 70.3104L237.322 70.8977ZM236.708 69.8324L235.359 71.3087L235.368 71.3166L236.708 69.8324ZM234.484 70.2798L236.209 71.2927L236.211 71.2887L234.484 70.2798ZM234.007 72.6449L236.007 72.653L236.007 72.6504L234.007 72.6449ZM234.216 74.4006L232.3 74.9742L232.303 74.9847L234.216 74.4006ZM234.829 75.4744L233.48 76.9507L233.489 76.9586L234.829 75.4744ZM235.771 75.1662C235.422 75.1662 235.237 75.0842 235.118 74.9998L232.81 78.2672C233.697 78.8931 234.716 79.1662 235.771 79.1662V75.1662ZM235.128 75.0073C234.991 74.9087 234.82 74.7264 234.666 74.3425L230.953 75.8308C231.339 76.7935 231.938 77.6425 232.8 78.2597L235.128 75.0073ZM234.669 74.352C234.519 73.9698 234.409 73.4189 234.409 72.6449H230.409C230.409 73.7743 230.566 74.8513 230.949 75.8213L234.669 74.352ZM234.409 72.6509C234.411 71.8744 234.522 71.3296 234.671 70.9587L230.957 69.4731C230.571 70.4375 230.412 71.512 230.409 72.6389L234.409 72.6509ZM234.669 70.9628C234.821 70.5839 234.989 70.4093 235.12 70.3168L232.816 67.0469C231.948 67.6589 231.346 68.507 230.958 69.4691L234.669 70.9628ZM235.116 70.3198C235.237 70.2348 235.424 70.1534 235.771 70.1534V66.1534C234.72 66.1534 233.705 66.4243 232.821 67.0438L235.116 70.3198ZM235.771 70.1534C236.118 70.1534 236.305 70.2348 236.426 70.3198L238.721 67.0438C237.837 66.4243 236.822 66.1534 235.771 66.1534V70.1534ZM236.426 70.3198C236.557 70.4115 236.722 70.5829 236.87 70.956L240.586 69.4758C240.201 68.508 239.596 67.6567 238.721 67.0438L236.426 70.3198ZM236.873 70.9628C237.023 71.3343 237.133 71.876 237.133 72.6449H241.133C241.133 71.5161 240.974 70.4385 240.584 69.4691L236.873 70.9628ZM237.133 72.6449C237.133 73.4205 237.022 73.97 236.871 74.3495L240.586 75.8323C240.974 74.8595 241.133 73.7784 241.133 72.6449H237.133ZM236.869 74.3535C236.72 74.7309 236.553 74.9059 236.42 74.9998L238.727 78.2672C239.6 77.651 240.203 76.7975 240.587 75.8283L236.869 74.3535ZM236.415 75.0029C236.301 75.0841 236.12 75.1662 235.771 75.1662V79.1662C236.826 79.1662 237.846 78.8931 238.732 78.2641L236.415 75.0029ZM235.771 77.8324C237.138 77.8324 238.173 77.0848 238.787 76.0398L235.338 74.0141C235.307 74.0666 235.33 74.0054 235.444 73.9341C235.5 73.8992 235.563 73.8715 235.628 73.8537C235.692 73.8362 235.742 73.8324 235.771 73.8324V77.8324ZM238.785 76.0426C239.369 75.0525 239.539 73.8372 239.539 72.6449H235.539C235.539 73.5492 235.392 73.922 235.339 74.0114L238.785 76.0426ZM239.539 72.6449C239.539 71.8265 239.456 71.0319 239.234 70.3104L235.41 71.4851C235.478 71.7067 235.539 72.0769 235.539 72.6449H239.539ZM239.234 70.3104C239.022 69.621 238.665 68.9047 238.049 68.3482L235.368 71.3166C235.323 71.2761 235.314 71.253 235.327 71.2759C235.341 71.3005 235.373 71.3645 235.41 71.4851L239.234 70.3104ZM238.058 68.3561C237.422 67.7747 236.627 67.4702 235.771 67.4702V71.4702C235.724 71.4702 235.646 71.4614 235.555 71.4263C235.464 71.3911 235.398 71.3441 235.359 71.3087L238.058 68.3561ZM235.771 67.4702C234.397 67.4702 233.366 68.2288 232.757 69.271L236.211 71.2887C236.244 71.2329 236.222 71.2935 236.107 71.3654C236.051 71.4008 235.987 71.4293 235.921 71.4478C235.855 71.466 235.802 71.4702 235.771 71.4702V67.4702ZM232.759 69.267C232.182 70.2505 232.01 71.4558 232.007 72.6394L236.007 72.6504C236.009 71.7544 236.156 71.3831 236.209 71.2927L232.759 69.267ZM232.007 72.6367C232.003 73.4566 232.083 74.2518 232.3 74.9742L236.132 73.8269C236.064 73.6004 236.004 73.2252 236.007 72.653L232.007 72.6367ZM232.303 74.9847C232.514 75.6753 232.868 76.3919 233.48 76.9507L236.178 73.9981C236.221 74.0371 236.229 74.0579 236.214 74.0326C236.199 74.0056 236.166 73.9392 236.128 73.8164L232.303 74.9847ZM233.489 76.9586C234.129 77.537 234.924 77.8324 235.771 77.8324V73.8324C235.812 73.8324 235.885 73.8399 235.973 73.8734C236.062 73.9072 236.129 73.9532 236.17 73.9902L233.489 76.9586ZM240.566 79.4545H238.566V81.4545H240.566V79.4545ZM240.566 70.4545V68.4545H238.566V70.4545H240.566ZM242.083 70.4545H244.083V68.4545H242.083V70.4545ZM242.083 71.5369H240.083V73.5369H242.083V71.5369ZM242.173 71.5369V73.5369H243.409L243.961 72.4314L242.173 71.5369ZM242.509 71.0298L244.064 72.2882L244.069 72.2822L244.073 72.2762L242.509 71.0298ZM243.097 70.5653L244.016 72.3418L244.024 72.3376L244.032 72.3334L243.097 70.5653ZM245.411 70.7571L244.337 72.4444L244.344 72.4488L244.351 72.4531L245.411 70.7571ZM246.383 71.8949L244.576 72.7524L244.582 72.7647L246.383 71.8949ZM246.391 75.5682L244.581 74.7191L244.581 74.7191L246.391 75.5682ZM245.428 76.7188L246.519 78.3954L245.428 76.7188ZM243.114 76.9276L242.212 78.7123L242.212 78.7123L243.114 76.9276ZM242.518 76.4759L240.975 77.749L240.986 77.7623L240.998 77.7754L242.518 76.4759ZM242.173 75.9688L243.949 75.049L243.389 73.9688H242.173V75.9688ZM242.109 75.9688V73.9688H240.109V75.9688H242.109ZM242.109 79.4545V81.4545H244.109V79.4545H242.109ZM242.258 74.8395L240.385 75.5417L240.388 75.549L240.391 75.5563L242.258 74.8395ZM242.782 75.5852L241.545 77.1565L241.555 77.165L241.566 77.1734L242.782 75.5852ZM244.474 75.5767L245.714 77.146L245.72 77.1413L245.725 77.1366L244.474 75.5767ZM244.994 74.8224L243.119 74.1256L243.115 74.1349L244.994 74.8224ZM244.998 72.6449L246.874 71.9519L246.874 71.9519L244.998 72.6449ZM244.478 71.9034L245.706 70.3247L245.706 70.3247L244.478 71.9034ZM242.778 71.8949L243.981 73.4925L243.981 73.4925L242.778 71.8949ZM242.254 72.6236L240.385 71.9102L240.382 71.9176L240.379 71.9251L242.254 72.6236ZM242.566 79.4545V70.4545H238.566V79.4545H242.566ZM240.566 72.4545H242.083V68.4545H240.566V72.4545ZM240.083 70.4545V71.5369H244.083V70.4545H240.083ZM242.083 73.5369H242.173V69.5369H242.083V73.5369ZM243.961 72.4314C243.961 72.4331 243.985 72.3857 244.064 72.2882L240.955 69.7714C240.744 70.0319 240.544 70.3226 240.384 70.6425L243.961 72.4314ZM244.073 72.2762C244.012 72.3535 243.971 72.3653 244.016 72.3418L242.178 68.7889C241.73 69.021 241.296 69.3425 240.945 69.7834L244.073 72.2762ZM244.032 72.3334C243.999 72.3508 243.972 72.3617 243.954 72.3682C243.944 72.3714 243.937 72.3736 243.932 72.3749C243.93 72.3755 243.928 72.376 243.927 72.3763C243.926 72.3766 243.925 72.3767 243.925 72.3767C243.925 72.3767 243.926 72.3766 243.927 72.3764C243.928 72.3762 243.93 72.3759 243.932 72.3755C243.937 72.3748 243.945 72.3738 243.955 72.3729C243.975 72.371 244.004 72.3693 244.043 72.3693V68.3693C243.449 68.3693 242.785 68.4683 242.162 68.7973L244.032 72.3334ZM244.043 72.3693C244.189 72.3693 244.269 72.4006 244.337 72.4444L246.485 69.0698C245.741 68.5966 244.909 68.3693 244.043 68.3693V72.3693ZM244.351 72.4531C244.389 72.4767 244.475 72.5404 244.576 72.7524L248.19 71.0374C247.813 70.2437 247.252 69.5489 246.471 69.0611L244.351 72.4531ZM244.582 72.7647C244.658 72.9229 244.745 73.2202 244.745 73.7358H248.745C248.745 72.7969 248.59 71.8668 248.184 71.0251L244.582 72.7647ZM244.745 73.7358C244.745 74.2441 244.661 74.5481 244.581 74.7191L248.202 76.4173C248.594 75.5826 248.745 74.665 248.745 73.7358H244.745ZM244.581 74.7191C244.479 74.9347 244.388 75.0096 244.338 75.0421L246.519 78.3954C247.281 77.8995 247.832 77.2074 248.202 76.4173L244.581 74.7191ZM244.338 75.0421C244.276 75.0822 244.199 75.1151 244.048 75.1151V79.1151C244.924 79.1151 245.768 78.8837 246.519 78.3954L244.338 75.0421ZM244.048 75.1151C244.009 75.1151 243.98 75.1134 243.96 75.1116C243.939 75.1097 243.929 75.1077 243.927 75.1074C243.923 75.1066 243.958 75.1132 244.017 75.1428L242.212 78.7123C242.82 79.0198 243.465 79.1151 244.048 79.1151V75.1151ZM244.017 75.1428C243.989 75.1286 243.981 75.1218 243.987 75.1264C243.994 75.1313 244.013 75.1471 244.038 75.1763L240.998 77.7754C241.35 78.1877 241.774 78.4908 242.212 78.7123L244.017 75.1428ZM244.06 75.2027C244.02 75.1545 243.993 75.1168 243.974 75.0895C243.955 75.062 243.948 75.0486 243.949 75.049L240.397 76.8885C240.56 77.2038 240.762 77.491 240.975 77.749L244.06 75.2027ZM242.173 73.9688H242.109V77.9688H242.173V73.9688ZM240.109 75.9688V79.4545H244.109V75.9688H240.109ZM242.109 77.4545H240.566V81.4545H242.109V77.4545ZM240.079 73.7273C240.079 74.3337 240.164 74.9514 240.385 75.5417L244.13 74.1372C244.113 74.0912 244.079 73.9674 244.079 73.7273H240.079ZM240.391 75.5563C240.619 76.1504 240.987 76.7177 241.545 77.1565L244.019 74.014C244.066 74.0507 244.098 74.0878 244.117 74.1145C244.134 74.1397 244.134 74.1467 244.125 74.1226L240.391 75.5563ZM241.566 77.1734C242.189 77.6503 242.91 77.8494 243.617 77.8494V73.8494C243.634 73.8494 243.689 73.852 243.767 73.8765C243.847 73.9019 243.927 73.9431 243.998 73.9971L241.566 77.1734ZM243.617 77.8494C244.332 77.8494 245.075 77.6507 245.714 77.146L243.234 74.0074C243.312 73.9457 243.398 73.9016 243.48 73.8755C243.559 73.8506 243.61 73.8494 243.617 73.8494V77.8494ZM245.725 77.1366C246.28 76.6915 246.649 76.1188 246.872 75.51L243.115 74.1349C243.109 74.1528 243.111 74.1419 243.13 74.1146C243.149 74.0859 243.18 74.0504 243.222 74.0168L245.725 77.1366ZM246.868 75.5192C247.085 74.9366 247.173 74.3291 247.173 73.7273H243.173C243.173 73.9436 243.141 74.0663 243.119 74.1257L246.868 75.5192ZM247.173 73.7273C247.173 73.1324 247.087 72.53 246.874 71.9519L243.122 73.3379C243.141 73.3905 243.173 73.5097 243.173 73.7273H247.173ZM246.874 71.9519C246.648 71.3413 246.273 70.766 245.706 70.3247L243.25 73.4821C243.202 73.445 243.167 73.4049 243.143 73.3712C243.12 73.339 243.116 73.3235 243.122 73.3379L246.874 71.9519ZM245.706 70.3247C245.065 69.8259 244.323 69.6349 243.617 69.6349V73.6349C243.616 73.6349 243.569 73.6347 243.495 73.6114C243.416 73.587 243.33 73.5444 243.25 73.4821L245.706 70.3247ZM243.617 69.6349C242.919 69.6349 242.2 69.8261 241.575 70.2973L243.981 73.4925C243.908 73.547 243.828 73.5867 243.752 73.6104C243.678 73.6333 243.628 73.6349 243.617 73.6349V69.6349ZM241.575 70.2973C240.998 70.7314 240.617 71.304 240.385 71.9102L244.122 73.337C244.127 73.3234 244.122 73.3407 244.098 73.3749C244.072 73.4107 244.033 73.4533 243.981 73.4925L241.575 70.2973ZM240.379 71.9251C240.161 72.5121 240.079 73.1269 240.079 73.7273H244.079C244.079 73.4811 244.113 73.36 244.128 73.3221L240.379 71.9251ZM249.081 70.4545L250.836 69.4951L250.267 68.4545H249.081V70.4545ZM250.402 72.8707L248.647 73.8302L250.388 77.0142L252.151 73.842L250.402 72.8707ZM251.745 70.4545V68.4545H250.568L249.996 69.4833L251.745 70.4545ZM253.377 70.4545L255.09 71.4871L256.918 68.4545H253.377V70.4545ZM251.404 73.7273L249.691 72.6947L249.063 73.7362L249.699 74.7729L251.404 73.7273ZM253.411 77V79H256.984L255.116 75.9544L253.411 77ZM251.787 77L250.063 78.0134L250.643 79H251.787V77ZM250.402 74.6435L252.127 73.6301L250.394 70.6826L248.674 73.6371L250.402 74.6435ZM249.03 77V79H250.18L250.759 78.0064L249.03 77ZM247.394 77L245.686 75.9593L243.833 79H247.394V77ZM249.388 73.7273L251.096 74.768L251.722 73.7407L251.108 72.7062L249.388 73.7273ZM247.445 70.4545V68.4545H243.931L245.725 71.4756L247.445 70.4545ZM247.326 71.414L248.647 73.8302L252.157 71.9113L250.836 69.4951L247.326 71.414ZM252.151 73.842L253.493 71.4258L249.996 69.4833L248.654 71.8995L252.151 73.842ZM251.745 72.4545H253.377V68.4545H251.745V72.4545ZM251.664 69.4219L249.691 72.6947L253.117 74.7599L255.09 71.4871L251.664 69.4219ZM249.699 74.7729L251.706 78.0456L255.116 75.9544L253.109 72.6817L249.699 74.7729ZM253.411 75H251.787V79H253.411V75ZM253.512 75.9866L252.127 73.6301L248.678 75.6568L250.063 78.0134L253.512 75.9866ZM248.674 73.6371L247.302 75.9936L250.759 78.0064L252.131 75.6498L248.674 73.6371ZM249.03 75H247.394V79H249.03V75ZM249.102 78.0407L251.096 74.768L247.68 72.6865L245.686 75.9593L249.102 78.0407ZM251.108 72.7062L249.165 69.4335L245.725 71.4756L247.668 74.7484L251.108 72.7062ZM247.445 72.4545H249.081V68.4545H247.445V72.4545Z" fill="white" mask="url(#path-17-outside-1_1341_1015)"/>
</svg>
