<svg width="271" height="164" viewBox="0 0 271 164" fill="none" xmlns="http://www.w3.org/2000/svg">
<path d="M73 122C100.614 122 123 99.6142 123 72C123 44.3858 100.614 22 73 22C45.3858 22 23 44.3858 23 72C23 99.6142 45.3858 122 73 122Z" fill="#FFE500"/>
<path d="M173 122C200.614 122 223 99.6142 223 72C223 44.3858 200.614 22 173 22C145.386 22 123 44.3858 123 72C123 99.6142 145.386 122 173 122Z" fill="#85E383"/>
<path fill-rule="evenodd" clip-rule="evenodd" d="M25 22H35V24H25V34H23V24V22H25ZM23 120V110H25V120H35V122H25H23V120ZM124 24V34H122V24H112V22H122H124H134V24H124ZM122 110V120H112V122H122H124H134V120H124V110H122ZM223 34V24V22H221H211V24H221V34H223ZM221 122H211V120H221V110H223V120V122H221Z" fill="black"/>
<path opacity="0.5" fill-rule="evenodd" clip-rule="evenodd" d="M244.75 23L239.5 26.0311V24H25.0311V142.5H27.0622L24.0311 147.75L21 142.5H23.0311V24H23V22H23.0311H25.0311H239.5V19.9689L244.75 23Z" fill="#FF0000"/>
<path fill-rule="evenodd" clip-rule="evenodd" d="M70 143.25L73.0311 138L76.0622 143.25H74V148H72.0001L72 143.25H70Z" fill="#00A3FF"/>
<path fill-rule="evenodd" clip-rule="evenodd" d="M114.208 27.7123L120.064 26.1433L118.495 31.9989L117.036 30.5408L102.382 45.1949L100.968 43.7807L115.622 29.1266L114.208 27.7123Z" fill="black"/>
<path fill-rule="evenodd" clip-rule="evenodd" d="M212.654 27.7123L218.51 26.1433L216.941 31.9989L215.483 30.5408L200.829 45.1949L199.414 43.7807L214.068 29.1266L212.654 27.7123Z" fill="black"/>
<path fill-rule="evenodd" clip-rule="evenodd" d="M170 143.25L173.031 138L176.062 143.25H174V148H172V143.25H170Z" fill="#00A3FF"/>
<path fill-rule="evenodd" clip-rule="evenodd" d="M233.281 75L228.031 71.9689L233.281 68.9378V71H238.031V72.9999L233.281 73V75Z" fill="#00A3FF"/>
<path fill-rule="evenodd" clip-rule="evenodd" d="M25 135.031L30.25 138.062V136.031H100.75V134.031H30.25V132L25 135.031ZM222.75 135.031L217.5 138.062V136.031H147V134.031H217.5V132L222.75 135.031Z" fill="#00A3FF"/>
<path d="M26.4023 6.86133L28.7881 3.04688H30.333L27.1885 7.98242L30.4082 13H28.8496L26.4023 9.11719L23.9414 13H22.3896L25.6162 7.98242L22.4648 3.04688H24.0029L26.4023 6.86133ZM35.7607 13H34.4893V4.57129L31.9395 5.50781V4.35938L35.5625 2.99902H35.7607V13Z" fill="black"/>
<path d="M4.19043 27.0439L6.78809 22.0469H8.27832L4.84668 28.2881V32H3.53418V28.2881L0.102539 22.0469H1.60645L4.19043 27.0439ZM13.3916 32H12.1201V23.5713L9.57031 24.5078V23.3594L13.1934 21.999H13.3916V32Z" fill="black"/>
<path d="M4.19043 117.044L6.78809 112.047H8.27832L4.84668 118.288V122H3.53418V118.288L0.102539 112.047H1.60645L4.19043 117.044ZM15.7568 122H9.23535V121.091L12.6807 117.263C13.1911 116.684 13.542 116.215 13.7334 115.854C13.9294 115.49 14.0273 115.114 14.0273 114.727C14.0273 114.207 13.8701 113.781 13.5557 113.448C13.2412 113.116 12.8219 112.949 12.2979 112.949C11.6689 112.949 11.179 113.129 10.8281 113.489C10.4818 113.845 10.3086 114.341 10.3086 114.979H9.04395C9.04395 114.063 9.33789 113.323 9.92578 112.758C10.5182 112.193 11.3089 111.91 12.2979 111.91C13.223 111.91 13.9544 112.154 14.4922 112.642C15.0299 113.125 15.2988 113.77 15.2988 114.576C15.2988 115.556 14.6745 116.723 13.4258 118.076L10.7598 120.968H15.7568V122Z" fill="black"/>
<path opacity="0.5" d="M24.1904 156.044L26.7881 151.047H28.2783L24.8467 157.288V161H23.5342V157.288L20.1025 151.047H21.6064L24.1904 156.044Z" fill="#FF0000"/>
<path d="M119.402 6.86133L121.788 3.04688H123.333L120.188 7.98242L123.408 13H121.85L119.402 9.11719L116.941 13H115.39L118.616 7.98242L115.465 3.04688H117.003L119.402 6.86133ZM131.126 13H124.604V12.0908L128.05 8.2627C128.56 7.68392 128.911 7.21452 129.103 6.85449C129.299 6.48991 129.396 6.11393 129.396 5.72656C129.396 5.20703 129.239 4.78092 128.925 4.44824C128.61 4.11556 128.191 3.94922 127.667 3.94922C127.038 3.94922 126.548 4.12923 126.197 4.48926C125.851 4.84473 125.678 5.34147 125.678 5.97949H124.413C124.413 5.06348 124.707 4.32292 125.295 3.75781C125.887 3.19271 126.678 2.91016 127.667 2.91016C128.592 2.91016 129.324 3.15397 129.861 3.6416C130.399 4.12467 130.668 4.76953 130.668 5.57617C130.668 6.55599 130.044 7.72266 128.795 9.07617L126.129 11.9678H131.126V13Z" fill="black"/>
<path d="M212.402 6.86133L214.788 3.04688H216.333L213.188 7.98242L216.408 13H214.85L212.402 9.11719L209.941 13H208.39L211.616 7.98242L208.465 3.04688H210.003L212.402 6.86133ZM219.443 7.4082H220.394C220.991 7.39909 221.46 7.24186 221.802 6.93652C222.144 6.63118 222.314 6.21875 222.314 5.69922C222.314 4.53255 221.733 3.94922 220.571 3.94922C220.024 3.94922 219.587 4.10645 219.259 4.4209C218.935 4.73079 218.773 5.14323 218.773 5.6582H217.509C217.509 4.86979 217.796 4.21582 218.37 3.69629C218.949 3.1722 219.683 2.91016 220.571 2.91016C221.51 2.91016 222.246 3.15853 222.779 3.65527C223.312 4.15202 223.579 4.84245 223.579 5.72656C223.579 6.15951 223.438 6.57878 223.155 6.98438C222.877 7.38997 222.497 7.69303 222.014 7.89355C222.561 8.06673 222.982 8.35384 223.278 8.75488C223.579 9.15592 223.729 9.64583 223.729 10.2246C223.729 11.1178 223.438 11.8265 222.854 12.3506C222.271 12.8747 221.512 13.1367 220.578 13.1367C219.644 13.1367 218.883 12.8838 218.295 12.3779C217.712 11.8721 217.42 11.2044 217.42 10.375H218.691C218.691 10.8991 218.862 11.3184 219.204 11.6328C219.546 11.9473 220.004 12.1045 220.578 12.1045C221.189 12.1045 221.656 11.945 221.979 11.626C222.303 11.307 222.465 10.849 222.465 10.252C222.465 9.67318 222.287 9.22884 221.932 8.91895C221.576 8.60905 221.063 8.44954 220.394 8.44043H219.443V7.4082Z" fill="black"/>
<path opacity="0.5" d="M252.402 21.8613L254.788 18.0469H256.333L253.188 22.9824L256.408 28H254.85L252.402 24.1172L249.941 28H248.39L251.616 22.9824L248.465 18.0469H250.003L252.402 21.8613Z" fill="#FF0000"/>
<path d="M53.2557 78.1491C52.4934 78.1491 51.8388 77.9818 51.2919 77.647C50.7483 77.3123 50.3291 76.8499 50.0341 76.2599C49.7424 75.6667 49.5966 74.9839 49.5966 74.2116C49.5966 73.4361 49.7457 72.7517 50.044 72.1584C50.3423 71.5618 50.7633 71.0978 51.3068 70.7663C51.8537 70.4316 52.5 70.2642 53.2457 70.2642C53.8655 70.2642 54.4141 70.3786 54.8913 70.6072C55.3719 70.8326 55.7547 71.1525 56.0398 71.5668C56.3248 71.9777 56.4872 72.4583 56.527 73.0085H54.8068C54.7372 72.6406 54.5715 72.334 54.3097 72.0888C54.0511 71.8402 53.7048 71.7159 53.2706 71.7159C52.9027 71.7159 52.5795 71.8153 52.3011 72.0142C52.0227 72.2098 51.8056 72.4915 51.6499 72.8594C51.4974 73.2273 51.4212 73.6681 51.4212 74.1818C51.4212 74.7022 51.4974 75.1496 51.6499 75.5241C51.8023 75.8954 52.0161 76.1821 52.2912 76.3842C52.5696 76.5831 52.8961 76.6825 53.2706 76.6825C53.5357 76.6825 53.7727 76.6328 53.9815 76.5334C54.1937 76.4306 54.371 76.2831 54.5135 76.0909C54.656 75.8987 54.7538 75.665 54.8068 75.3899H56.527C56.4839 75.9302 56.3248 76.4091 56.0497 76.8267C55.7746 77.241 55.4001 77.5658 54.9261 77.8011C54.4522 78.0331 53.8954 78.1491 53.2557 78.1491ZM58.0048 78V70.3636H59.8045V78H58.0048ZM58.9096 69.2798C58.6246 69.2798 58.3793 69.1854 58.1738 68.9964C57.9683 68.8042 57.8656 68.5739 57.8656 68.3054C57.8656 68.0336 57.9683 67.8033 58.1738 67.6143C58.3793 67.4221 58.6246 67.326 58.9096 67.326C59.198 67.326 59.4432 67.4221 59.6454 67.6143C59.8509 67.8033 59.9537 68.0336 59.9537 68.3054C59.9537 68.5739 59.8509 68.8042 59.6454 68.9964C59.4432 69.1854 59.198 69.2798 58.9096 69.2798ZM61.6552 78V70.3636H63.4002V71.6364H63.4798C63.619 71.1955 63.8576 70.8558 64.1957 70.6172C64.5371 70.3752 64.9265 70.2543 65.364 70.2543C65.4634 70.2543 65.5745 70.2592 65.6971 70.2692C65.823 70.2758 65.9274 70.2874 66.0103 70.304V71.9595C65.9341 71.933 65.8131 71.9098 65.6474 71.8899C65.485 71.8667 65.3275 71.8551 65.1751 71.8551C64.8469 71.8551 64.552 71.9264 64.2901 72.0689C64.0316 72.2081 63.8278 72.402 63.6786 72.6506C63.5295 72.8991 63.4549 73.1858 63.4549 73.5107V78H61.6552ZM70.2225 78.1491C69.4602 78.1491 68.8056 77.9818 68.2587 77.647C67.7151 77.3123 67.2959 76.8499 67.0009 76.2599C66.7092 75.6667 66.5634 74.9839 66.5634 74.2116C66.5634 73.4361 66.7125 72.7517 67.0108 72.1584C67.3091 71.5618 67.7301 71.0978 68.2736 70.7663C68.8205 70.4316 69.4668 70.2642 70.2125 70.2642C70.8323 70.2642 71.3809 70.3786 71.8581 70.6072C72.3387 70.8326 72.7215 71.1525 73.0066 71.5668C73.2916 71.9777 73.454 72.4583 73.4938 73.0085H71.7736C71.704 72.6406 71.5383 72.334 71.2765 72.0888C71.0179 71.8402 70.6716 71.7159 70.2374 71.7159C69.8695 71.7159 69.5463 71.8153 69.2679 72.0142C68.9895 72.2098 68.7724 72.4915 68.6167 72.8594C68.4642 73.2273 68.388 73.6681 68.388 74.1818C68.388 74.7022 68.4642 75.1496 68.6167 75.5241C68.7691 75.8954 68.9829 76.1821 69.258 76.3842C69.5364 76.5831 69.8629 76.6825 70.2374 76.6825C70.5025 76.6825 70.7395 76.6328 70.9483 76.5334C71.1605 76.4306 71.3378 76.2831 71.4803 76.0909C71.6228 75.8987 71.7206 75.665 71.7736 75.3899H73.4938C73.4507 75.9302 73.2916 76.4091 73.0165 76.8267C72.7414 77.241 72.3669 77.5658 71.8929 77.8011C71.419 78.0331 70.8622 78.1491 70.2225 78.1491ZM76.7713 67.8182V78H74.9716V67.8182H76.7713ZM82.0027 78.1491C81.237 78.1491 80.5758 77.9901 80.019 77.6719C79.4655 77.3504 79.0396 76.8963 78.7413 76.3097C78.443 75.7197 78.2939 75.0253 78.2939 74.2266C78.2939 73.4411 78.443 72.7517 78.7413 72.1584C79.0429 71.5618 79.4638 71.0978 80.0041 70.7663C80.5443 70.4316 81.179 70.2642 81.9082 70.2642C82.3788 70.2642 82.823 70.3404 83.2406 70.4929C83.6615 70.642 84.0327 70.8741 84.3542 71.1889C84.679 71.5038 84.9342 71.9048 85.1199 72.392C85.3055 72.8759 85.3983 73.4527 85.3983 74.1222V74.674H79.139V73.4609H83.6731C83.6698 73.1162 83.5952 72.8097 83.4494 72.5412C83.3036 72.2694 83.0997 72.0556 82.8379 71.8999C82.5794 71.7441 82.2778 71.6662 81.9331 71.6662C81.5652 71.6662 81.242 71.7557 80.9636 71.9347C80.6852 72.1103 80.4681 72.3423 80.3123 72.6307C80.1599 72.9157 80.082 73.2289 80.0787 73.5703V74.6293C80.0787 75.0734 80.1599 75.4545 80.3223 75.7727C80.4847 76.0876 80.7117 76.3295 81.0034 76.4986C81.295 76.6643 81.6364 76.7472 82.0275 76.7472C82.2894 76.7472 82.5263 76.7107 82.7385 76.6378C82.9506 76.5616 83.1345 76.4505 83.2903 76.3047C83.4461 76.1589 83.5637 75.9782 83.6433 75.7628L85.3237 75.9517C85.2176 76.3958 85.0154 76.7836 84.7172 77.1151C84.4222 77.4432 84.0443 77.6984 83.5836 77.8807C83.1229 78.0597 82.5959 78.1491 82.0027 78.1491ZM94.5149 67.8182V78H92.6705V69.6129H92.6108L90.2294 71.1342V69.4439L92.7599 67.8182H94.5149Z" fill="black"/>
<path d="M152.256 78.1491C151.493 78.1491 150.839 77.9818 150.292 77.647C149.748 77.3123 149.329 76.8499 149.034 76.2599C148.742 75.6667 148.597 74.9839 148.597 74.2116C148.597 73.4361 148.746 72.7517 149.044 72.1584C149.342 71.5618 149.763 71.0978 150.307 70.7663C150.854 70.4316 151.5 70.2642 152.246 70.2642C152.866 70.2642 153.414 70.3786 153.891 70.6072C154.372 70.8326 154.755 71.1525 155.04 71.5668C155.325 71.9777 155.487 72.4583 155.527 73.0085H153.807C153.737 72.6406 153.571 72.334 153.31 72.0888C153.051 71.8402 152.705 71.7159 152.271 71.7159C151.903 71.7159 151.58 71.8153 151.301 72.0142C151.023 72.2098 150.806 72.4915 150.65 72.8594C150.497 73.2273 150.421 73.6681 150.421 74.1818C150.421 74.7022 150.497 75.1496 150.65 75.5241C150.802 75.8954 151.016 76.1821 151.291 76.3842C151.57 76.5831 151.896 76.6825 152.271 76.6825C152.536 76.6825 152.773 76.6328 152.982 76.5334C153.194 76.4306 153.371 76.2831 153.513 76.0909C153.656 75.8987 153.754 75.665 153.807 75.3899H155.527C155.484 75.9302 155.325 76.4091 155.05 76.8267C154.775 77.241 154.4 77.5658 153.926 77.8011C153.452 78.0331 152.895 78.1491 152.256 78.1491ZM157.005 78V70.3636H158.805V78H157.005ZM157.91 69.2798C157.625 69.2798 157.379 69.1854 157.174 68.9964C156.968 68.8042 156.866 68.5739 156.866 68.3054C156.866 68.0336 156.968 67.8033 157.174 67.6143C157.379 67.4221 157.625 67.326 157.91 67.326C158.198 67.326 158.443 67.4221 158.645 67.6143C158.851 67.8033 158.954 68.0336 158.954 68.3054C158.954 68.5739 158.851 68.8042 158.645 68.9964C158.443 69.1854 158.198 69.2798 157.91 69.2798ZM160.655 78V70.3636H162.4V71.6364H162.48C162.619 71.1955 162.858 70.8558 163.196 70.6172C163.537 70.3752 163.926 70.2543 164.364 70.2543C164.463 70.2543 164.574 70.2592 164.697 70.2692C164.823 70.2758 164.927 70.2874 165.01 70.304V71.9595C164.934 71.933 164.813 71.9098 164.647 71.8899C164.485 71.8667 164.328 71.8551 164.175 71.8551C163.847 71.8551 163.552 71.9264 163.29 72.0689C163.032 72.2081 162.828 72.402 162.679 72.6506C162.529 72.8991 162.455 73.1858 162.455 73.5107V78H160.655ZM169.222 78.1491C168.46 78.1491 167.806 77.9818 167.259 77.647C166.715 77.3123 166.296 76.8499 166.001 76.2599C165.709 75.6667 165.563 74.9839 165.563 74.2116C165.563 73.4361 165.713 72.7517 166.011 72.1584C166.309 71.5618 166.73 71.0978 167.274 70.7663C167.82 70.4316 168.467 70.2642 169.213 70.2642C169.832 70.2642 170.381 70.3786 170.858 70.6072C171.339 70.8326 171.722 71.1525 172.007 71.5668C172.292 71.9777 172.454 72.4583 172.494 73.0085H170.774C170.704 72.6406 170.538 72.334 170.276 72.0888C170.018 71.8402 169.672 71.7159 169.237 71.7159C168.869 71.7159 168.546 71.8153 168.268 72.0142C167.99 72.2098 167.772 72.4915 167.617 72.8594C167.464 73.2273 167.388 73.6681 167.388 74.1818C167.388 74.7022 167.464 75.1496 167.617 75.5241C167.769 75.8954 167.983 76.1821 168.258 76.3842C168.536 76.5831 168.863 76.6825 169.237 76.6825C169.503 76.6825 169.74 76.6328 169.948 76.5334C170.16 76.4306 170.338 76.2831 170.48 76.0909C170.623 75.8987 170.721 75.665 170.774 75.3899H172.494C172.451 75.9302 172.292 76.4091 172.017 76.8267C171.741 77.241 171.367 77.5658 170.893 77.8011C170.419 78.0331 169.862 78.1491 169.222 78.1491ZM175.771 67.8182V78H173.972V67.8182H175.771ZM181.003 78.1491C180.237 78.1491 179.576 77.9901 179.019 77.6719C178.465 77.3504 178.04 76.8963 177.741 76.3097C177.443 75.7197 177.294 75.0253 177.294 74.2266C177.294 73.4411 177.443 72.7517 177.741 72.1584C178.043 71.5618 178.464 71.0978 179.004 70.7663C179.544 70.4316 180.179 70.2642 180.908 70.2642C181.379 70.2642 181.823 70.3404 182.241 70.4929C182.662 70.642 183.033 70.8741 183.354 71.1889C183.679 71.5038 183.934 71.9048 184.12 72.392C184.305 72.8759 184.398 73.4527 184.398 74.1222V74.674H178.139V73.4609H182.673C182.67 73.1162 182.595 72.8097 182.449 72.5412C182.304 72.2694 182.1 72.0556 181.838 71.8999C181.579 71.7441 181.278 71.6662 180.933 71.6662C180.565 71.6662 180.242 71.7557 179.964 71.9347C179.685 72.1103 179.468 72.3423 179.312 72.6307C179.16 72.9157 179.082 73.2289 179.079 73.5703V74.6293C179.079 75.0734 179.16 75.4545 179.322 75.7727C179.485 76.0876 179.712 76.3295 180.003 76.4986C180.295 76.6643 180.636 76.7472 181.028 76.7472C181.289 76.7472 181.526 76.7107 181.738 76.6378C181.951 76.5616 182.135 76.4505 182.29 76.3047C182.446 76.1589 182.564 75.9782 182.643 75.7628L184.324 75.9517C184.218 76.3958 184.015 76.7836 183.717 77.1151C183.422 77.4432 183.044 77.6984 182.584 77.8807C182.123 78.0597 181.596 78.1491 181.003 78.1491ZM189.374 78V76.6676L192.908 73.2024C193.246 72.861 193.528 72.5578 193.754 72.2926C193.979 72.0275 194.148 71.7706 194.261 71.522C194.373 71.2734 194.43 71.0083 194.43 70.7266C194.43 70.4051 194.357 70.13 194.211 69.9013C194.065 69.6693 193.865 69.4903 193.609 69.3643C193.354 69.2384 193.064 69.1754 192.739 69.1754C192.405 69.1754 192.111 69.245 191.859 69.3842C191.607 69.5201 191.412 69.714 191.273 69.9659C191.137 70.2178 191.069 70.5178 191.069 70.8658H189.314C189.314 70.2195 189.461 69.6577 189.756 69.1804C190.051 68.7031 190.457 68.3336 190.974 68.0717C191.495 67.8099 192.091 67.679 192.764 67.679C193.447 67.679 194.047 67.8066 194.564 68.0618C195.081 68.317 195.482 68.6667 195.767 69.1108C196.055 69.5549 196.2 70.062 196.2 70.6321C196.2 71.0133 196.127 71.3878 195.981 71.7557C195.835 72.1236 195.578 72.5312 195.21 72.9787C194.846 73.4261 194.334 73.968 193.674 74.6044L191.919 76.3892V76.4588H196.354V78H189.374Z" fill="black"/>
<path d="M103.84 140V138.763L107.123 135.545C107.436 135.228 107.698 134.946 107.907 134.7C108.117 134.454 108.274 134.216 108.378 133.985C108.483 133.754 108.535 133.508 108.535 133.246C108.535 132.948 108.467 132.692 108.332 132.48C108.197 132.264 108.01 132.098 107.773 131.981C107.536 131.864 107.267 131.806 106.966 131.806C106.655 131.806 106.382 131.87 106.148 132C105.915 132.126 105.733 132.306 105.604 132.54C105.478 132.774 105.414 133.052 105.414 133.375H103.785C103.785 132.775 103.922 132.254 104.196 131.81C104.47 131.367 104.847 131.024 105.327 130.781C105.81 130.538 106.364 130.416 106.989 130.416C107.623 130.416 108.18 130.535 108.66 130.772C109.14 131.009 109.512 131.333 109.777 131.746C110.045 132.158 110.179 132.629 110.179 133.158C110.179 133.512 110.111 133.86 109.975 134.202C109.84 134.543 109.602 134.922 109.26 135.337C108.921 135.753 108.446 136.256 107.833 136.847L106.204 138.504V138.569H110.322V140H103.84ZM115.409 140.18C114.649 140.18 113.996 139.988 113.452 139.603C112.91 139.215 112.493 138.657 112.201 137.927C111.911 137.195 111.767 136.313 111.767 135.282C111.77 134.251 111.916 133.374 112.205 132.651C112.498 131.924 112.915 131.37 113.456 130.989C114.001 130.607 114.652 130.416 115.409 130.416C116.166 130.416 116.817 130.607 117.362 130.989C117.907 131.37 118.324 131.924 118.613 132.651C118.905 133.377 119.051 134.254 119.051 135.282C119.051 136.316 118.905 137.199 118.613 137.932C118.324 138.661 117.907 139.218 117.362 139.603C116.82 139.988 116.169 140.18 115.409 140.18ZM115.409 138.735C116 138.735 116.466 138.444 116.808 137.863C117.153 137.278 117.325 136.418 117.325 135.282C117.325 134.531 117.246 133.9 117.089 133.389C116.933 132.878 116.711 132.494 116.425 132.235C116.138 131.973 115.8 131.843 115.409 131.843C114.821 131.843 114.357 132.135 114.015 132.72C113.673 133.301 113.501 134.156 113.498 135.282C113.495 136.036 113.57 136.67 113.724 137.184C113.881 137.698 114.103 138.086 114.389 138.347C114.675 138.606 115.015 138.735 115.409 138.735ZM124.08 140.18C123.32 140.18 122.667 139.988 122.123 139.603C121.581 139.215 121.164 138.657 120.872 137.927C120.582 137.195 120.438 136.313 120.438 135.282C120.441 134.251 120.587 133.374 120.876 132.651C121.169 131.924 121.586 131.37 122.127 130.989C122.672 130.607 123.323 130.416 124.08 130.416C124.837 130.416 125.488 130.607 126.033 130.989C126.578 131.37 126.995 131.924 127.284 132.651C127.576 133.377 127.722 134.254 127.722 135.282C127.722 136.316 127.576 137.199 127.284 137.932C126.995 138.661 126.578 139.218 126.033 139.603C125.491 139.988 124.84 140.18 124.08 140.18ZM124.08 138.735C124.671 138.735 125.137 138.444 125.479 137.863C125.823 137.278 125.996 136.418 125.996 135.282C125.996 134.531 125.917 133.9 125.76 133.389C125.603 132.878 125.382 132.494 125.096 132.235C124.809 131.973 124.471 131.843 124.08 131.843C123.492 131.843 123.027 132.135 122.686 132.72C122.344 133.301 122.172 134.156 122.169 135.282C122.166 136.036 122.241 136.67 122.395 137.184C122.552 137.698 122.774 138.086 123.06 138.347C123.346 138.606 123.686 138.735 124.08 138.735ZM129.275 142.659V132.909H130.918V134.082H131.015C131.101 133.909 131.223 133.726 131.38 133.532C131.537 133.335 131.749 133.168 132.017 133.029C132.285 132.888 132.626 132.817 133.042 132.817C133.59 132.817 134.084 132.957 134.524 133.237C134.967 133.514 135.318 133.925 135.576 134.469C135.838 135.011 135.969 135.676 135.969 136.464C135.969 137.242 135.841 137.904 135.585 138.449C135.33 138.994 134.982 139.409 134.542 139.695C134.102 139.982 133.603 140.125 133.046 140.125C132.64 140.125 132.303 140.057 132.035 139.922C131.768 139.786 131.552 139.623 131.389 139.432C131.229 139.238 131.104 139.055 131.015 138.883H130.946V142.659H129.275ZM130.914 136.455C130.914 136.913 130.978 137.315 131.107 137.659C131.24 138.004 131.429 138.273 131.675 138.467C131.925 138.658 132.226 138.754 132.58 138.754C132.949 138.754 133.259 138.655 133.508 138.458C133.757 138.258 133.945 137.986 134.071 137.641C134.2 137.293 134.265 136.898 134.265 136.455C134.265 136.014 134.202 135.624 134.076 135.282C133.95 134.94 133.762 134.673 133.513 134.479C133.263 134.285 132.952 134.188 132.58 134.188C132.223 134.188 131.92 134.282 131.671 134.469C131.421 134.657 131.232 134.92 131.103 135.259C130.977 135.597 130.914 135.996 130.914 136.455ZM138.5 132.909L139.931 135.527L141.385 132.909H143.153L141.016 136.455L143.19 140H141.431L139.931 137.447L138.444 140H136.671L138.832 136.455L136.727 132.909H138.5Z" fill="#00A3FF"/>
<path d="M62.0089 160.119C61.4407 160.119 60.9322 160.013 60.4833 159.8C60.0344 159.584 59.6779 159.288 59.4137 158.913C59.1523 158.538 59.0131 158.109 58.9961 157.626H60.5302C60.5586 157.984 60.7134 158.277 60.9947 158.504C61.2759 158.729 61.614 158.841 62.0089 158.841C62.3185 158.841 62.5941 158.77 62.8356 158.628C63.0771 158.486 63.2674 158.288 63.4066 158.036C63.5458 157.783 63.614 157.494 63.6112 157.17C63.614 156.841 63.5444 156.548 63.4023 156.293C63.2603 156.037 63.0657 155.837 62.8185 155.692C62.5714 155.544 62.2873 155.47 61.9663 155.47C61.7049 155.467 61.4478 155.516 61.195 155.615C60.9421 155.714 60.7418 155.845 60.5941 156.007L59.1665 155.773L59.6225 151.273H64.685V152.594H60.9308L60.6793 154.908H60.7305C60.8924 154.717 61.1211 154.56 61.4165 154.435C61.712 154.307 62.0359 154.243 62.3881 154.243C62.9165 154.243 63.3881 154.368 63.8029 154.618C64.2177 154.865 64.5444 155.206 64.783 155.641C65.0217 156.075 65.141 156.572 65.141 157.132C65.141 157.709 65.0075 158.223 64.7404 158.675C64.4762 159.124 64.1083 159.477 63.6367 159.736C63.168 159.991 62.6254 160.119 62.0089 160.119ZM69.7944 160.166C69.0927 160.166 68.4904 159.989 67.9876 159.634C67.4876 159.276 67.1026 158.76 66.8327 158.087C66.5657 157.411 66.4322 156.597 66.4322 155.645C66.435 154.693 66.57 153.884 66.837 153.216C67.1069 152.545 67.4918 152.034 67.9918 151.682C68.4947 151.33 69.0955 151.153 69.7944 151.153C70.4933 151.153 71.0941 151.33 71.5969 151.682C72.0998 152.034 72.4847 152.545 72.7518 153.216C73.0217 153.886 73.1566 154.696 73.1566 155.645C73.1566 156.599 73.0217 157.415 72.7518 158.091C72.4847 158.764 72.0998 159.278 71.5969 159.634C71.0969 159.989 70.4961 160.166 69.7944 160.166ZM69.7944 158.832C70.3398 158.832 70.7702 158.564 71.0856 158.027C71.4038 157.487 71.5629 156.693 71.5629 155.645C71.5629 154.952 71.4904 154.369 71.3455 153.898C71.2006 153.426 70.9961 153.071 70.7319 152.832C70.4677 152.591 70.1552 152.47 69.7944 152.47C69.2518 152.47 68.8228 152.74 68.5075 153.28C68.1921 153.817 68.033 154.605 68.0302 155.645C68.0273 156.341 68.0969 156.926 68.239 157.401C68.3839 157.875 68.5884 158.233 68.8526 158.474C69.1168 158.713 69.4308 158.832 69.7944 158.832ZM74.5895 162.455V153.455H76.1065V154.537H76.196C76.2756 154.378 76.3878 154.209 76.5327 154.03C76.6776 153.848 76.8736 153.693 77.1207 153.565C77.3679 153.435 77.6832 153.369 78.0668 153.369C78.5724 153.369 79.0284 153.499 79.4347 153.757C79.8438 154.013 80.1676 154.392 80.4062 154.895C80.6477 155.395 80.7685 156.009 80.7685 156.736C80.7685 157.455 80.6506 158.065 80.4148 158.568C80.179 159.071 79.858 159.455 79.4517 159.719C79.0455 159.983 78.5852 160.115 78.071 160.115C77.696 160.115 77.3849 160.053 77.1378 159.928C76.8906 159.803 76.6918 159.652 76.5412 159.476C76.3935 159.297 76.2784 159.128 76.196 158.969H76.1321V162.455H74.5895ZM76.1023 156.727C76.1023 157.151 76.1619 157.521 76.2812 157.839C76.4034 158.158 76.5781 158.406 76.8054 158.585C77.0355 158.761 77.3139 158.849 77.6406 158.849C77.9815 158.849 78.267 158.759 78.4972 158.577C78.7273 158.392 78.9006 158.141 79.017 157.822C79.1364 157.501 79.196 157.136 79.196 156.727C79.196 156.321 79.1378 155.96 79.0213 155.645C78.9048 155.33 78.7315 155.082 78.5014 154.903C78.2713 154.724 77.9844 154.635 77.6406 154.635C77.3111 154.635 77.0312 154.722 76.8011 154.895C76.571 155.068 76.3963 155.311 76.277 155.624C76.1605 155.936 76.1023 156.304 76.1023 156.727ZM83.1048 153.455L84.4258 155.871L85.7681 153.455H87.4002L85.4272 156.727L87.4343 160H85.8107L84.4258 157.643L83.0536 160H81.4173L83.4116 156.727L81.4684 153.455H83.1048Z" fill="#00A3FF"/>
<path d="M159.642 151.273V160H158.061V152.811H158.01L155.968 154.115V152.666L158.137 151.273H159.642ZM164.892 160.119C164.324 160.119 163.815 160.013 163.366 159.8C162.917 159.584 162.561 159.288 162.297 158.913C162.035 158.538 161.896 158.109 161.879 157.626H163.413C163.441 157.984 163.596 158.277 163.877 158.504C164.159 158.729 164.497 158.841 164.892 158.841C165.201 158.841 165.477 158.77 165.718 158.628C165.96 158.486 166.15 158.288 166.289 158.036C166.429 157.783 166.497 157.494 166.494 157.17C166.497 156.841 166.427 156.548 166.285 156.293C166.143 156.037 165.949 155.837 165.701 155.692C165.454 155.544 165.17 155.47 164.849 155.47C164.588 155.467 164.331 155.516 164.078 155.615C163.825 155.714 163.625 155.845 163.477 156.007L162.049 155.773L162.505 151.273H167.568V152.594H163.814L163.562 154.908H163.613C163.775 154.717 164.004 154.56 164.299 154.435C164.595 154.307 164.919 154.243 165.271 154.243C165.799 154.243 166.271 154.368 166.686 154.618C167.1 154.865 167.427 155.206 167.666 155.641C167.904 156.075 168.024 156.572 168.024 157.132C168.024 157.709 167.89 158.223 167.623 158.675C167.359 159.124 166.991 159.477 166.52 159.736C166.051 159.991 165.508 160.119 164.892 160.119ZM172.677 160.166C171.975 160.166 171.373 159.989 170.87 159.634C170.37 159.276 169.985 158.76 169.716 158.087C169.449 157.411 169.315 156.597 169.315 155.645C169.318 154.693 169.453 153.884 169.72 153.216C169.99 152.545 170.375 152.034 170.875 151.682C171.377 151.33 171.978 151.153 172.677 151.153C173.376 151.153 173.977 151.33 174.48 151.682C174.983 152.034 175.368 152.545 175.635 153.216C175.904 153.886 176.039 154.696 176.039 155.645C176.039 156.599 175.904 157.415 175.635 158.091C175.368 158.764 174.983 159.278 174.48 159.634C173.98 159.989 173.379 160.166 172.677 160.166ZM172.677 158.832C173.223 158.832 173.653 158.564 173.968 158.027C174.287 157.487 174.446 156.693 174.446 155.645C174.446 154.952 174.373 154.369 174.228 153.898C174.083 153.426 173.879 153.071 173.615 152.832C173.35 152.591 173.038 152.47 172.677 152.47C172.135 152.47 171.706 152.74 171.39 153.28C171.075 153.817 170.916 154.605 170.913 155.645C170.91 156.341 170.98 156.926 171.122 157.401C171.267 157.875 171.471 158.233 171.735 158.474C172 158.713 172.314 158.832 172.677 158.832ZM177.472 162.455V153.455H178.989V154.537H179.079C179.158 154.378 179.271 154.209 179.415 154.03C179.56 153.848 179.756 153.693 180.004 153.565C180.251 153.435 180.566 153.369 180.95 153.369C181.455 153.369 181.911 153.499 182.317 153.757C182.727 154.013 183.05 154.392 183.289 154.895C183.531 155.395 183.651 156.009 183.651 156.736C183.651 157.455 183.533 158.065 183.298 158.568C183.062 159.071 182.741 159.455 182.335 159.719C181.928 159.983 181.468 160.115 180.954 160.115C180.579 160.115 180.268 160.053 180.021 159.928C179.773 159.803 179.575 159.652 179.424 159.476C179.276 159.297 179.161 159.128 179.079 158.969H179.015V162.455H177.472ZM178.985 156.727C178.985 157.151 179.045 157.521 179.164 157.839C179.286 158.158 179.461 158.406 179.688 158.585C179.918 158.761 180.197 158.849 180.523 158.849C180.864 158.849 181.15 158.759 181.38 158.577C181.61 158.392 181.783 158.141 181.9 157.822C182.019 157.501 182.079 157.136 182.079 156.727C182.079 156.321 182.021 155.96 181.904 155.645C181.788 155.33 181.614 155.082 181.384 154.903C181.154 154.724 180.867 154.635 180.523 154.635C180.194 154.635 179.914 154.722 179.684 154.895C179.454 155.068 179.279 155.311 179.16 155.624C179.043 155.936 178.985 156.304 178.985 156.727ZM185.988 153.455L187.309 155.871L188.651 153.455H190.283L188.31 156.727L190.317 160H188.694L187.309 157.643L185.936 160H184.3L186.294 156.727L184.351 153.455H185.988Z" fill="#00A3FF"/>
<path d="M244.009 76.1193C243.441 76.1193 242.932 76.0128 242.483 75.7997C242.034 75.5838 241.678 75.2884 241.414 74.9134C241.152 74.5384 241.013 74.1094 240.996 73.6264H242.53C242.559 73.9844 242.713 74.277 242.995 74.5043C243.276 74.7287 243.614 74.8409 244.009 74.8409C244.319 74.8409 244.594 74.7699 244.836 74.6278C245.077 74.4858 245.267 74.2884 245.407 74.0355C245.546 73.7827 245.614 73.4943 245.611 73.1705C245.614 72.8409 245.544 72.5483 245.402 72.2926C245.26 72.0369 245.066 71.8366 244.819 71.6918C244.571 71.544 244.287 71.4702 243.966 71.4702C243.705 71.4673 243.448 71.5156 243.195 71.6151C242.942 71.7145 242.742 71.8452 242.594 72.0071L241.167 71.7727L241.623 67.2727H246.685V68.5938H242.931L242.679 70.9077H242.73C242.892 70.7173 243.121 70.5597 243.417 70.4347C243.712 70.3068 244.036 70.2429 244.388 70.2429C244.917 70.2429 245.388 70.3679 245.803 70.6179C246.218 70.8651 246.544 71.206 246.783 71.6406C247.022 72.0753 247.141 72.5724 247.141 73.1321C247.141 73.7088 247.007 74.223 246.74 74.6747C246.476 75.1236 246.108 75.4773 245.637 75.7358C245.168 75.9915 244.625 76.1193 244.009 76.1193ZM251.794 76.1662C251.093 76.1662 250.49 75.9886 249.988 75.6335C249.488 75.2756 249.103 74.7599 248.833 74.0866C248.566 73.4105 248.432 72.5966 248.432 71.6449C248.435 70.6932 248.57 69.8835 248.837 69.2159C249.107 68.5455 249.492 68.0341 249.992 67.6818C250.495 67.3295 251.096 67.1534 251.794 67.1534C252.493 67.1534 253.094 67.3295 253.597 67.6818C254.1 68.0341 254.485 68.5455 254.752 69.2159C255.022 69.8864 255.157 70.696 255.157 71.6449C255.157 72.5994 255.022 73.4148 254.752 74.0909C254.485 74.7642 254.1 75.2784 253.597 75.6335C253.097 75.9886 252.496 76.1662 251.794 76.1662ZM251.794 74.8324C252.34 74.8324 252.77 74.5639 253.086 74.027C253.404 73.4872 253.563 72.6932 253.563 71.6449C253.563 70.9517 253.49 70.3693 253.346 69.8977C253.201 69.4261 252.996 69.071 252.732 68.8324C252.468 68.5909 252.155 68.4702 251.794 68.4702C251.252 68.4702 250.823 68.7401 250.507 69.2798C250.192 69.8168 250.033 70.6051 250.03 71.6449C250.027 72.3409 250.097 72.9261 250.239 73.4006C250.384 73.875 250.588 74.233 250.853 74.4744C251.117 74.7131 251.431 74.8324 251.794 74.8324ZM256.589 78.4545V69.4545H258.107V70.5369H258.196C258.276 70.3778 258.388 70.2088 258.533 70.0298C258.678 69.848 258.874 69.6932 259.121 69.5653C259.368 69.4347 259.683 69.3693 260.067 69.3693C260.572 69.3693 261.028 69.4986 261.435 69.7571C261.844 70.0128 262.168 70.392 262.406 70.8949C262.648 71.3949 262.768 72.0085 262.768 72.7358C262.768 73.4545 262.651 74.0653 262.415 74.5682C262.179 75.071 261.858 75.4545 261.452 75.7188C261.045 75.983 260.585 76.1151 260.071 76.1151C259.696 76.1151 259.385 76.0526 259.138 75.9276C258.891 75.8026 258.692 75.652 258.541 75.4759C258.393 75.2969 258.278 75.1278 258.196 74.9688H258.132V78.4545H256.589ZM258.102 72.7273C258.102 73.1506 258.162 73.5213 258.281 73.8395C258.403 74.1577 258.578 74.4062 258.805 74.5852C259.036 74.7614 259.314 74.8494 259.641 74.8494C259.982 74.8494 260.267 74.7585 260.497 74.5767C260.727 74.392 260.901 74.1406 261.017 73.8224C261.136 73.5014 261.196 73.1364 261.196 72.7273C261.196 72.321 261.138 71.9602 261.021 71.6449C260.905 71.3295 260.732 71.0824 260.501 70.9034C260.271 70.7244 259.984 70.6349 259.641 70.6349C259.311 70.6349 259.031 70.7216 258.801 70.8949C258.571 71.0682 258.396 71.3111 258.277 71.6236C258.161 71.9361 258.102 72.304 258.102 72.7273ZM265.105 69.4545L266.426 71.8707L267.768 69.4545H269.4L267.427 72.7273L269.434 76H267.811L266.426 73.6435L265.054 76H263.417L265.412 72.7273L263.468 69.4545H265.105Z" fill="#00A3FF"/>
</svg>
