<svg width="690" height="267" viewBox="0 0 690 267" fill="none" xmlns="http://www.w3.org/2000/svg">
<path d="M41.9297 113.164L39.8008 115.312L26.6758 104.355L39.8008 93.3984L41.9297 95.5664L31.2852 104.316L41.9297 113.164ZM215.332 102.383H198.535V99.5117H215.332V102.383ZM215.332 109.18H198.535V106.309H215.332V109.18ZM332.105 95.5664L334.215 93.3984L347.34 104.355L334.215 115.312L332.105 113.164L342.75 104.395L332.105 95.5664ZM603.859 113.164L601.73 115.312L588.605 104.355L601.73 93.3984L603.859 95.5664L593.215 104.316L603.859 113.164ZM626.309 87.4023L612.91 119.199H609.668L623.066 87.4023H626.309ZM654.488 95.5664L656.598 93.3984L669.723 104.355L656.598 115.312L654.488 113.164L665.133 104.395L654.488 95.5664Z" fill="#25292E"/>
<path d="M65.375 104.844C65.375 106.589 65.1276 108.112 64.6328 109.414C64.151 110.716 63.4805 111.797 62.6211 112.656C61.7617 113.516 60.7461 114.16 59.5742 114.59C58.4023 115.02 57.1328 115.234 55.7656 115.234C55.1406 115.234 54.5156 115.202 53.8906 115.137C53.2786 115.072 52.6536 114.961 52.0156 114.805V123.008H48.6172V95.3906H51.6445L51.8594 98.6719C52.8359 97.3307 53.8776 96.3932 54.9844 95.8594C56.0911 95.3125 57.2891 95.0391 58.5781 95.0391C59.6979 95.0391 60.681 95.2734 61.5273 95.7422C62.3737 96.2109 63.0833 96.875 63.6562 97.7344C64.2292 98.5807 64.6589 99.6094 64.9453 100.82C65.2318 102.018 65.375 103.359 65.375 104.844ZM61.8984 105C61.8984 103.971 61.8203 103.027 61.6641 102.168C61.5208 101.309 61.2865 100.573 60.9609 99.9609C60.6354 99.349 60.2188 98.8737 59.7109 98.5352C59.2031 98.1836 58.5977 98.0078 57.8945 98.0078C57.4648 98.0078 57.0286 98.0794 56.5859 98.2227C56.1432 98.3529 55.681 98.5807 55.1992 98.9062C54.7305 99.2188 54.2292 99.6419 53.6953 100.176C53.1745 100.697 52.6146 101.348 52.0156 102.129V111.641C52.6406 111.901 53.2982 112.109 53.9883 112.266C54.6784 112.409 55.3555 112.48 56.0195 112.48C57.8555 112.48 59.2943 111.862 60.3359 110.625C61.3776 109.375 61.8984 107.5 61.8984 105ZM648.797 104.844C648.797 106.589 648.549 108.112 648.055 109.414C647.573 110.716 646.902 111.797 646.043 112.656C645.184 113.516 644.168 114.16 642.996 114.59C641.824 115.02 640.555 115.234 639.188 115.234C638.562 115.234 637.938 115.202 637.312 115.137C636.701 115.072 636.076 114.961 635.438 114.805V123.008H632.039V95.3906H635.066L635.281 98.6719C636.258 97.3307 637.299 96.3932 638.406 95.8594C639.513 95.3125 640.711 95.0391 642 95.0391C643.12 95.0391 644.103 95.2734 644.949 95.7422C645.796 96.2109 646.505 96.875 647.078 97.7344C647.651 98.5807 648.081 99.6094 648.367 100.82C648.654 102.018 648.797 103.359 648.797 104.844ZM645.32 105C645.32 103.971 645.242 103.027 645.086 102.168C644.943 101.309 644.708 100.573 644.383 99.9609C644.057 99.349 643.641 98.8737 643.133 98.5352C642.625 98.1836 642.02 98.0078 641.316 98.0078C640.887 98.0078 640.451 98.0794 640.008 98.2227C639.565 98.3529 639.103 98.5807 638.621 98.9062C638.152 99.2188 637.651 99.6419 637.117 100.176C636.596 100.697 636.036 101.348 635.438 102.129V111.641C636.062 111.901 636.72 112.109 637.41 112.266C638.1 112.409 638.777 112.48 639.441 112.48C641.277 112.48 642.716 111.862 643.758 110.625C644.799 109.375 645.32 107.5 645.32 105Z" fill="#438443"/>
<path d="M106.836 114.277C105.951 114.616 105.039 114.863 104.102 115.02C103.177 115.189 102.22 115.273 101.23 115.273C98.1315 115.273 95.7422 114.434 94.0625 112.754C92.3958 111.074 91.5625 108.62 91.5625 105.391C91.5625 103.841 91.8034 102.435 92.2852 101.172C92.7669 99.9089 93.444 98.8281 94.3164 97.9297C95.1888 97.0312 96.2305 96.3411 97.4414 95.8594C98.6523 95.3646 99.987 95.1172 101.445 95.1172C102.461 95.1172 103.411 95.1888 104.297 95.332C105.182 95.4753 106.029 95.7096 106.836 96.0352V99.2773C105.99 98.8346 105.124 98.5156 104.238 98.3203C103.366 98.112 102.461 98.0078 101.523 98.0078C100.651 98.0078 99.8242 98.1771 99.043 98.5156C98.2747 98.8411 97.5977 99.3164 97.0117 99.9414C96.4258 100.566 95.9635 101.328 95.625 102.227C95.2865 103.125 95.1172 104.141 95.1172 105.273C95.1172 107.643 95.6901 109.421 96.8359 110.605C97.9948 111.777 99.5964 112.363 101.641 112.363C102.565 112.363 103.457 112.259 104.316 112.051C105.189 111.842 106.029 111.53 106.836 111.113V114.277ZM119.773 90.1953H113.973V87.4023H123.211V112.168H129.051V115H113.328V112.168H119.773V90.1953ZM147.184 115L147.105 112.363C146.038 113.418 144.951 114.18 143.844 114.648C142.75 115.117 141.598 115.352 140.387 115.352C139.267 115.352 138.31 115.208 137.516 114.922C136.721 114.635 136.064 114.245 135.543 113.75C135.035 113.242 134.658 112.65 134.41 111.973C134.176 111.296 134.059 110.56 134.059 109.766C134.059 107.799 134.788 106.263 136.246 105.156C137.717 104.036 139.885 103.477 142.75 103.477H146.812V101.758C146.812 100.599 146.441 99.6745 145.699 98.9844C144.957 98.2812 143.824 97.9297 142.301 97.9297C141.194 97.9297 140.1 98.0534 139.02 98.3008C137.952 98.5482 136.845 98.8997 135.699 99.3555V96.2891C136.129 96.1328 136.604 95.9831 137.125 95.8398C137.659 95.6836 138.219 95.5469 138.805 95.4297C139.391 95.3125 140.003 95.2214 140.641 95.1562C141.279 95.0781 141.923 95.0391 142.574 95.0391C143.759 95.0391 144.827 95.1693 145.777 95.4297C146.728 95.6901 147.529 96.0872 148.18 96.6211C148.844 97.1549 149.352 97.8255 149.703 98.6328C150.055 99.4401 150.23 100.391 150.23 101.484V115H147.184ZM146.812 106.074H142.496C141.65 106.074 140.921 106.159 140.309 106.328C139.697 106.497 139.195 106.738 138.805 107.051C138.414 107.363 138.121 107.741 137.926 108.184C137.743 108.613 137.652 109.102 137.652 109.648C137.652 110.026 137.711 110.391 137.828 110.742C137.945 111.081 138.134 111.387 138.395 111.66C138.655 111.921 138.993 112.129 139.41 112.285C139.827 112.441 140.335 112.52 140.934 112.52C141.715 112.52 142.607 112.285 143.609 111.816C144.625 111.335 145.693 110.579 146.812 109.551V106.074ZM171.605 109.648C171.605 110.339 171.488 110.957 171.254 111.504C171.02 112.051 170.701 112.539 170.297 112.969C169.893 113.385 169.424 113.743 168.891 114.043C168.357 114.342 167.784 114.59 167.172 114.785C166.573 114.98 165.954 115.124 165.316 115.215C164.678 115.306 164.053 115.352 163.441 115.352C162.113 115.352 160.889 115.293 159.77 115.176C158.663 115.059 157.576 114.87 156.508 114.609V111.484C157.654 111.81 158.793 112.057 159.926 112.227C161.059 112.396 162.185 112.48 163.305 112.48C164.932 112.48 166.137 112.259 166.918 111.816C167.699 111.374 168.09 110.742 168.09 109.922C168.09 109.57 168.025 109.258 167.895 108.984C167.777 108.698 167.556 108.431 167.23 108.184C166.905 107.923 166.397 107.656 165.707 107.383C165.03 107.109 164.099 106.797 162.914 106.445C162.029 106.185 161.208 105.892 160.453 105.566C159.711 105.228 159.066 104.831 158.52 104.375C157.973 103.919 157.543 103.385 157.23 102.773C156.918 102.161 156.762 101.439 156.762 100.605C156.762 100.059 156.885 99.4596 157.133 98.8086C157.393 98.1576 157.829 97.5521 158.441 96.9922C159.053 96.4323 159.88 95.9701 160.922 95.6055C161.964 95.2279 163.266 95.0391 164.828 95.0391C165.596 95.0391 166.449 95.0846 167.387 95.1758C168.324 95.2539 169.301 95.3971 170.316 95.6055V98.6328C169.249 98.3724 168.233 98.1836 167.27 98.0664C166.319 97.9362 165.492 97.8711 164.789 97.8711C163.943 97.8711 163.227 97.9362 162.641 98.0664C162.068 98.1966 161.599 98.3789 161.234 98.6133C160.883 98.8346 160.629 99.1016 160.473 99.4141C160.316 99.7135 160.238 100.039 160.238 100.391C160.238 100.742 160.303 101.061 160.434 101.348C160.577 101.634 160.831 101.914 161.195 102.188C161.573 102.448 162.094 102.715 162.758 102.988C163.422 103.249 164.288 103.535 165.355 103.848C166.514 104.186 167.491 104.544 168.285 104.922C169.079 105.286 169.724 105.697 170.219 106.152C170.714 106.608 171.065 107.122 171.273 107.695C171.495 108.268 171.605 108.919 171.605 109.648ZM193.098 109.648C193.098 110.339 192.98 110.957 192.746 111.504C192.512 112.051 192.193 112.539 191.789 112.969C191.385 113.385 190.917 113.743 190.383 114.043C189.849 114.342 189.276 114.59 188.664 114.785C188.065 114.98 187.447 115.124 186.809 115.215C186.171 115.306 185.546 115.352 184.934 115.352C183.605 115.352 182.382 115.293 181.262 115.176C180.155 115.059 179.068 114.87 178 114.609V111.484C179.146 111.81 180.285 112.057 181.418 112.227C182.551 112.396 183.677 112.48 184.797 112.48C186.424 112.48 187.629 112.259 188.41 111.816C189.191 111.374 189.582 110.742 189.582 109.922C189.582 109.57 189.517 109.258 189.387 108.984C189.27 108.698 189.048 108.431 188.723 108.184C188.397 107.923 187.889 107.656 187.199 107.383C186.522 107.109 185.591 106.797 184.406 106.445C183.521 106.185 182.701 105.892 181.945 105.566C181.203 105.228 180.559 104.831 180.012 104.375C179.465 103.919 179.035 103.385 178.723 102.773C178.41 102.161 178.254 101.439 178.254 100.605C178.254 100.059 178.378 99.4596 178.625 98.8086C178.885 98.1576 179.322 97.5521 179.934 96.9922C180.546 96.4323 181.372 95.9701 182.414 95.6055C183.456 95.2279 184.758 95.0391 186.32 95.0391C187.089 95.0391 187.941 95.0846 188.879 95.1758C189.816 95.2539 190.793 95.3971 191.809 95.6055V98.6328C190.741 98.3724 189.725 98.1836 188.762 98.0664C187.811 97.9362 186.984 97.8711 186.281 97.8711C185.435 97.8711 184.719 97.9362 184.133 98.0664C183.56 98.1966 183.091 98.3789 182.727 98.6133C182.375 98.8346 182.121 99.1016 181.965 99.4141C181.809 99.7135 181.73 100.039 181.73 100.391C181.73 100.742 181.796 101.061 181.926 101.348C182.069 101.634 182.323 101.914 182.688 102.188C183.065 102.448 183.586 102.715 184.25 102.988C184.914 103.249 185.78 103.535 186.848 103.848C188.007 104.186 188.983 104.544 189.777 104.922C190.572 105.286 191.216 105.697 191.711 106.152C192.206 106.608 192.557 107.122 192.766 107.695C192.987 108.268 193.098 108.919 193.098 109.648Z" fill="#265BBE"/>
<path d="M225.03 95.8V87H228.83L227.63 95.8H225.03ZM219.03 95.8V87H222.83L221.63 95.8H219.03ZM248.668 114.727C247.9 114.922 247.105 115.059 246.285 115.137C245.465 115.228 244.632 115.273 243.785 115.273C241.324 115.273 239.488 114.72 238.277 113.613C237.066 112.493 236.461 110.781 236.461 108.477V98.2422H230.973V95.3906H236.461V90L239.859 89.1211V95.3906H248.668V98.2422H239.859V108.203C239.859 109.609 240.23 110.664 240.973 111.367C241.728 112.057 242.835 112.402 244.293 112.402C244.918 112.402 245.602 112.357 246.344 112.266C247.086 112.161 247.861 112.005 248.668 111.797V114.727ZM270.922 104.16C270.922 104.642 270.915 105.046 270.902 105.371C270.889 105.697 270.87 106.003 270.844 106.289H257.074C257.074 108.294 257.634 109.837 258.754 110.918C259.874 111.986 261.488 112.52 263.598 112.52C264.171 112.52 264.743 112.5 265.316 112.461C265.889 112.409 266.443 112.344 266.977 112.266C267.51 112.188 268.018 112.103 268.5 112.012C268.995 111.908 269.451 111.797 269.867 111.68V114.473C268.943 114.733 267.895 114.941 266.723 115.098C265.564 115.267 264.359 115.352 263.109 115.352C261.43 115.352 259.984 115.124 258.773 114.668C257.562 114.212 256.566 113.555 255.785 112.695C255.017 111.823 254.444 110.762 254.066 109.512C253.702 108.249 253.52 106.823 253.52 105.234C253.52 103.854 253.715 102.552 254.105 101.328C254.509 100.091 255.089 99.0104 255.844 98.0859C256.612 97.1484 257.549 96.4062 258.656 95.8594C259.763 95.3125 261.02 95.0391 262.426 95.0391C263.793 95.0391 265.004 95.2539 266.059 95.6836C267.113 96.1133 267.999 96.7253 268.715 97.5195C269.444 98.3008 269.991 99.2578 270.355 100.391C270.733 101.51 270.922 102.767 270.922 104.16ZM267.387 103.672C267.426 102.799 267.341 102.005 267.133 101.289C266.924 100.56 266.599 99.9349 266.156 99.4141C265.727 98.8932 265.186 98.4896 264.535 98.2031C263.884 97.9036 263.129 97.7539 262.27 97.7539C261.527 97.7539 260.85 97.8971 260.238 98.1836C259.626 98.4701 259.099 98.8737 258.656 99.3945C258.214 99.9154 257.855 100.54 257.582 101.27C257.309 101.999 257.139 102.799 257.074 103.672H267.387ZM293.527 115H289.016L283.723 107.52L278.488 115H274.094L281.691 105.156L274.445 95.3906H278.801L283.957 102.93L289.016 95.3906H293.215L285.852 105.234L293.527 115ZM313.145 114.727C312.376 114.922 311.582 115.059 310.762 115.137C309.941 115.228 309.108 115.273 308.262 115.273C305.801 115.273 303.965 114.72 302.754 113.613C301.543 112.493 300.938 110.781 300.938 108.477V98.2422H295.449V95.3906H300.938V90L304.336 89.1211V95.3906H313.145V98.2422H304.336V108.203C304.336 109.609 304.707 110.664 305.449 111.367C306.204 112.057 307.311 112.402 308.77 112.402C309.395 112.402 310.078 112.357 310.82 112.266C311.562 112.161 312.337 112.005 313.145 111.797V114.727ZM323.311 95.8V87H327.111L325.911 95.8H323.311ZM317.311 95.8V87H321.111L319.911 95.8H317.311Z" fill="#112E5F"/>
<path d="M369.359 115H365.883V103.281H355.16V115H351.684V89.4727H355.16V100.273H365.883V89.4727H369.359V115ZM390.695 104.16C390.695 104.642 390.689 105.046 390.676 105.371C390.663 105.697 390.643 106.003 390.617 106.289H376.848C376.848 108.294 377.408 109.837 378.527 110.918C379.647 111.986 381.262 112.52 383.371 112.52C383.944 112.52 384.517 112.5 385.09 112.461C385.663 112.409 386.216 112.344 386.75 112.266C387.284 112.188 387.792 112.103 388.273 112.012C388.768 111.908 389.224 111.797 389.641 111.68V114.473C388.716 114.733 387.668 114.941 386.496 115.098C385.337 115.267 384.133 115.352 382.883 115.352C381.203 115.352 379.758 115.124 378.547 114.668C377.336 114.212 376.34 113.555 375.559 112.695C374.79 111.823 374.217 110.762 373.84 109.512C373.475 108.249 373.293 106.823 373.293 105.234C373.293 103.854 373.488 102.552 373.879 101.328C374.283 100.091 374.862 99.0104 375.617 98.0859C376.385 97.1484 377.323 96.4062 378.43 95.8594C379.536 95.3125 380.793 95.0391 382.199 95.0391C383.566 95.0391 384.777 95.2539 385.832 95.6836C386.887 96.1133 387.772 96.7253 388.488 97.5195C389.217 98.3008 389.764 99.2578 390.129 100.391C390.507 101.51 390.695 102.767 390.695 104.16ZM387.16 103.672C387.199 102.799 387.115 102.005 386.906 101.289C386.698 100.56 386.372 99.9349 385.93 99.4141C385.5 98.8932 384.96 98.4896 384.309 98.2031C383.658 97.9036 382.902 97.7539 382.043 97.7539C381.301 97.7539 380.624 97.8971 380.012 98.1836C379.4 98.4701 378.872 98.8737 378.43 99.3945C377.987 99.9154 377.629 100.54 377.355 101.27C377.082 101.999 376.913 102.799 376.848 103.672H387.16ZM402.305 90.1953H396.504V87.4023H405.742V112.168H411.582V115H395.859V112.168H402.305V90.1953ZM423.797 90.1953H417.996V87.4023H427.234V112.168H433.074V115H417.352V112.168H423.797V90.1953ZM455.68 105.039C455.68 106.562 455.465 107.962 455.035 109.238C454.605 110.501 453.987 111.589 453.18 112.5C452.372 113.398 451.389 114.102 450.23 114.609C449.072 115.104 447.757 115.352 446.285 115.352C444.879 115.352 443.616 115.137 442.496 114.707C441.389 114.264 440.445 113.62 439.664 112.773C438.896 111.927 438.303 110.879 437.887 109.629C437.483 108.379 437.281 106.94 437.281 105.312C437.281 103.789 437.496 102.402 437.926 101.152C438.355 99.8893 438.974 98.8086 439.781 97.9102C440.589 96.9987 441.572 96.2956 442.73 95.8008C443.889 95.293 445.204 95.0391 446.676 95.0391C448.082 95.0391 449.339 95.2604 450.445 95.7031C451.565 96.1328 452.509 96.7708 453.277 97.6172C454.059 98.4505 454.651 99.4922 455.055 100.742C455.471 101.992 455.68 103.424 455.68 105.039ZM452.203 105.195C452.203 103.984 452.066 102.93 451.793 102.031C451.533 101.12 451.155 100.365 450.66 99.7656C450.165 99.1536 449.56 98.6979 448.844 98.3984C448.141 98.0859 447.353 97.9297 446.48 97.9297C445.465 97.9297 444.592 98.1315 443.863 98.5352C443.147 98.9258 442.555 99.4531 442.086 100.117C441.63 100.781 441.292 101.556 441.07 102.441C440.862 103.314 440.758 104.232 440.758 105.195C440.758 106.406 440.888 107.467 441.148 108.379C441.422 109.29 441.806 110.052 442.301 110.664C442.796 111.263 443.395 111.719 444.098 112.031C444.801 112.331 445.595 112.48 446.48 112.48C447.496 112.48 448.362 112.285 449.078 111.895C449.807 111.491 450.4 110.957 450.855 110.293C451.324 109.629 451.663 108.861 451.871 107.988C452.092 107.103 452.203 106.172 452.203 105.195ZM461.625 119.004C462.289 119.03 462.934 118.971 463.559 118.828C464.184 118.685 464.73 118.47 465.199 118.184C465.681 117.91 466.065 117.565 466.352 117.148C466.638 116.732 466.781 116.257 466.781 115.723C466.781 115.176 466.684 114.733 466.488 114.395C466.306 114.056 466.098 113.743 465.863 113.457C465.629 113.171 465.414 112.865 465.219 112.539C465.036 112.214 464.945 111.777 464.945 111.23C464.945 110.957 464.997 110.671 465.102 110.371C465.206 110.072 465.362 109.798 465.57 109.551C465.792 109.303 466.065 109.102 466.391 108.945C466.729 108.789 467.126 108.711 467.582 108.711C468.038 108.711 468.474 108.809 468.891 109.004C469.32 109.186 469.691 109.473 470.004 109.863C470.329 110.254 470.583 110.742 470.766 111.328C470.961 111.914 471.059 112.604 471.059 113.398C471.059 114.479 470.857 115.514 470.453 116.504C470.062 117.507 469.47 118.392 468.676 119.16C467.895 119.928 466.911 120.54 465.727 120.996C464.555 121.452 463.188 121.68 461.625 121.68V119.004ZM519.844 106.113C519.844 107.52 519.642 108.796 519.238 109.941C518.848 111.074 518.268 112.044 517.5 112.852C516.732 113.646 515.788 114.264 514.668 114.707C513.561 115.137 512.285 115.352 510.84 115.352C509.251 115.352 507.904 115.143 506.797 114.727C505.69 114.31 504.785 113.724 504.082 112.969C503.392 112.201 502.884 111.283 502.559 110.215C502.246 109.147 502.09 107.956 502.09 106.641V89.4727H505.566V106.367C505.566 107.37 505.658 108.249 505.84 109.004C506.035 109.759 506.348 110.391 506.777 110.898C507.207 111.406 507.76 111.79 508.438 112.051C509.128 112.311 509.967 112.441 510.957 112.441C512.806 112.441 514.167 111.908 515.039 110.84C515.924 109.772 516.367 108.268 516.367 106.328V89.4727H519.844V106.113ZM542.977 115H538.582L532.371 104.688L526.141 115H521.805L530.301 101.953L522.488 89.4727H526.609L532.449 99.082L538.328 89.4727H542.332L534.5 101.797L542.977 115ZM563.395 115H559.02L549.469 102.48V115H545.992V89.4727H549.469V101.328L558.824 89.4727H562.945L552.867 101.602L563.395 115ZM585.473 115H582.074L581.566 99.082L581.352 92.9688L580.16 96.5234L576.391 106.68H573.988L570.395 96.9141L569.203 92.9688L569.125 99.3555L568.676 115H565.395L566.645 89.4727H570.766L574.203 99.082L575.316 102.324L576.391 99.082L580.004 89.4727H584.242L585.473 115Z" fill="#444444"/>
<path d="M133.752 32.7539V34.5117H117.658V32.7539H124.611V30.293H126.76V32.7539H133.752ZM118.537 29.6094C122.18 29.1504 124.572 27.1484 124.572 25.0391V24.375H126.779V25.0391C126.779 27.1973 129.152 29.1504 132.834 29.6094L131.994 31.3086C129.104 30.8691 126.789 29.5605 125.666 27.7051C124.533 29.5508 122.229 30.8691 119.318 31.3086L118.537 29.6094ZM119.436 37.6172V35.918H131.779V41.7383H129.611V37.6172H119.436ZM140.908 26.6211C140.898 29.0234 142.305 31.2207 145.068 32.0898L143.896 33.7891C141.973 33.1055 140.625 31.8164 139.873 30.1465C139.092 32.0703 137.617 33.584 135.479 34.3359L134.326 32.5781C137.246 31.6211 138.711 29.2676 138.721 26.7188V25.0391H140.908V26.6211ZM137.256 38.3398C137.236 36.1914 139.531 34.9316 143.252 34.9414C146.992 34.9316 149.277 36.1914 149.287 38.3398C149.277 40.4883 146.992 41.7188 143.252 41.7188C139.531 41.7188 137.236 40.4883 137.256 38.3398ZM139.404 38.3398C139.395 39.4141 140.801 40.0098 143.252 40.0195C145.723 40.0098 147.119 39.4141 147.119 38.3398C147.119 37.2266 145.723 36.6309 143.252 36.6211C140.801 36.6309 139.395 37.2266 139.404 38.3398ZM143.545 29.2773V27.5H147.061V24.082H149.229V34.4727H147.061V29.2773H143.545ZM166.014 24.082V34.4727H163.846V32.0312H160.291V33.3984H151.99V25.4102H160.291V26.7773H163.846V24.082H166.014ZM154.041 38.3398C154.021 36.1914 156.316 34.9316 160.037 34.9414C163.777 34.9316 166.062 36.1914 166.072 38.3398C166.062 40.4883 163.777 41.7188 160.037 41.7188C156.316 41.7188 154.021 40.4883 154.041 38.3398ZM154.158 31.6602H158.143V27.1289H154.158V31.6602ZM156.189 38.3398C156.18 39.4336 157.586 40.0391 160.037 40.0391C162.508 40.0391 163.904 39.4336 163.904 38.3398C163.904 37.1973 162.508 36.6113 160.037 36.6016C157.586 36.6113 156.18 37.1973 156.189 38.3398ZM160.291 30.2734H163.846V28.4961H160.291V30.2734Z" fill="#265BBE"/>
<path d="M28.3965 25.9961V27.7344H23.3574V30.625H28.084V32.3242H23.3574V35.7617C25.5449 35.7422 27.0586 35.6641 28.8457 35.3906L29.0215 37.168C26.9609 37.5195 25.2324 37.5879 22.4785 37.5781H21.2871V25.9961H28.3965ZM29.9199 40.8789V24.3945H31.9707V31.0156H33.7871V24.082H35.877V41.7383H33.7871V32.7734H31.9707V40.8789H29.9199ZM51.4707 25.8008V27.793C51.4707 30.1562 51.4707 32.5879 50.8262 36.3086L48.6191 36.1133C49.3027 32.6465 49.3027 30.0879 49.3027 27.793V27.5586H39.127V25.8008H51.4707ZM37.4277 39.3164V37.5391H53.5215V39.3164H37.4277ZM73.1465 24.082V41.7578H70.959V24.082H73.1465ZM59.0254 31.6016C59.0156 27.793 60.959 25.3711 63.6348 25.3711C66.2812 25.3711 68.2344 27.793 68.2441 31.6016C68.2344 35.4395 66.2812 37.8516 63.6348 37.8516C60.959 37.8516 59.0156 35.4395 59.0254 31.6016ZM61.1152 31.6016C61.1152 34.3164 62.1406 35.8887 63.6348 35.8984C65.1191 35.8887 66.1348 34.3164 66.1348 31.6016C66.1348 28.9062 65.1191 27.3242 63.6348 27.3242C62.1406 27.3242 61.1152 28.9062 61.1152 31.6016ZM91.3574 33.0664V34.7852H75.2246V33.0664H91.3574ZM77.2168 26.1523V24.4531H89.3652V28.9844H79.4238V30.2539H89.7168V31.9141H77.2754V27.4023H87.1973V26.1523H77.2168ZM77.334 41.5234V36.0547H89.4238V41.5234H77.334ZM79.4629 39.7656H87.2754V37.7734H79.4629V39.7656Z" fill="#438443"/>
<path d="M612.396 25.9961V27.7344H607.357V30.625H612.084V32.3242H607.357V35.7617C609.545 35.7422 611.059 35.6641 612.846 35.3906L613.021 37.168C610.961 37.5195 609.232 37.5879 606.479 37.5781H605.287V25.9961H612.396ZM613.92 40.8789V24.3945H615.971V31.0156H617.787V24.082H619.877V41.7383H617.787V32.7734H615.971V40.8789H613.92ZM635.471 25.8008V27.793C635.471 30.1562 635.471 32.5879 634.826 36.3086L632.619 36.1133C633.303 32.6465 633.303 30.0879 633.303 27.793V27.5586H623.127V25.8008H635.471ZM621.428 39.3164V37.5391H637.521V39.3164H621.428ZM657.146 24.082V41.7578H654.959V24.082H657.146ZM643.025 31.6016C643.016 27.793 644.959 25.3711 647.635 25.3711C650.281 25.3711 652.234 27.793 652.244 31.6016C652.234 35.4395 650.281 37.8516 647.635 37.8516C644.959 37.8516 643.016 35.4395 643.025 31.6016ZM645.115 31.6016C645.115 34.3164 646.141 35.8887 647.635 35.8984C649.119 35.8887 650.135 34.3164 650.135 31.6016C650.135 28.9062 649.119 27.3242 647.635 27.3242C646.141 27.3242 645.115 28.9062 645.115 31.6016ZM675.357 33.0664V34.7852H659.225V33.0664H675.357ZM661.217 26.1523V24.4531H673.365V28.9844H663.424V30.2539H673.717V31.9141H661.275V27.4023H671.197V26.1523H661.217ZM661.334 41.5234V36.0547H673.424V41.5234H661.334ZM663.463 39.7656H671.275V37.7734H663.463V39.7656Z" fill="#438443"/>
<path d="M264.31 32.7539V34.5117H248.216V32.7539H255.169V30.293H257.317V32.7539H264.31ZM249.095 29.6094C252.737 29.1504 255.13 27.1484 255.13 25.0391V24.375H257.337V25.0391C257.337 27.1973 259.71 29.1504 263.392 29.6094L262.552 31.3086C259.661 30.8691 257.347 29.5605 256.224 27.7051C255.091 29.5508 252.786 30.8691 249.876 31.3086L249.095 29.6094ZM249.993 37.6172V35.918H262.337V41.7383H260.169V37.6172H249.993ZM271.466 26.6211C271.456 29.0234 272.862 31.2207 275.626 32.0898L274.454 33.7891C272.53 33.1055 271.183 31.8164 270.431 30.1465C269.649 32.0703 268.175 33.584 266.036 34.3359L264.884 32.5781C267.804 31.6211 269.269 29.2676 269.278 26.7188V25.0391H271.466V26.6211ZM267.813 38.3398C267.794 36.1914 270.089 34.9316 273.81 34.9414C277.55 34.9316 279.835 36.1914 279.845 38.3398C279.835 40.4883 277.55 41.7188 273.81 41.7188C270.089 41.7188 267.794 40.4883 267.813 38.3398ZM269.962 38.3398C269.952 39.4141 271.358 40.0098 273.81 40.0195C276.28 40.0098 277.677 39.4141 277.677 38.3398C277.677 37.2266 276.28 36.6309 273.81 36.6211C271.358 36.6309 269.952 37.2266 269.962 38.3398ZM274.103 29.2773V27.5H277.618V24.082H279.786V34.4727H277.618V29.2773H274.103ZM295.712 24.082V27.8906H298.173V29.707H295.712V33.6719H293.544V24.082H295.712ZM281.747 32.1094C285.937 31.1914 288.134 29.209 288.427 26.8164H282.567V25.0586H290.849C290.849 29.668 287.86 32.6367 282.548 33.8672L281.747 32.1094ZM283.603 41.4844V34.5508H285.614V36.3867H287.919V34.5508H289.892V39.9316C291.835 39.0332 292.694 37.3242 292.704 35.7422V34.3555H294.774V35.7031C294.784 37.4121 295.673 39.1699 297.724 40L296.591 41.6406C295.204 41.0547 294.286 40.0391 293.739 38.8086C293.192 40.0293 292.265 41.0547 290.907 41.6406L289.892 40.2148V41.4844H283.603ZM285.614 39.8047H287.919V38.0078H285.614V39.8047Z" fill="#112E5F"/>
<path d="M414.166 24.8242V26.4258C414.156 28.1348 414.156 29.8926 413.658 32.2656L411.51 32.0898C411.695 31.2305 411.812 30.4492 411.881 29.7168L401.646 30.1562L401.373 28.3594L411.979 28.1055C411.998 27.5781 411.998 27.0703 411.998 26.5625H401.842V24.8242H414.166ZM400.006 34.9805V33.2422H406.178V30.918H408.346V33.2422H416.021V34.9805H400.006ZM401.92 41.4648V36.2109H404.088V39.707H414.498V41.4648H401.92ZM431.85 24.1016V37.2852H429.779V24.1016H431.85ZM417.494 34.668V25.4688H424.213V27.2266H419.584V29.1992H423.549V30.8594H419.584V32.8906C421.693 32.8906 423.158 32.8223 424.877 32.5L425.111 34.2188C423.07 34.5898 421.391 34.6582 418.666 34.668H417.494ZM420.131 41.3867V35.8398H422.318V39.6289H432.338V41.3867H420.131ZM424.311 30.7031V28.9648H426.303V24.4336H428.373V36.8555H426.303V30.7031H424.311ZM449.67 37.832V39.6094H433.537V37.832H449.67ZM434.24 33.5547C438.029 32.9883 440.334 30.8105 440.48 28.4375H434.963V26.6797H440.51V24.4141H442.658V26.6797H448.225V28.4375H442.707C442.844 30.8105 445.139 32.9883 448.947 33.5547L448.107 35.293C445.07 34.7949 442.746 33.3301 441.584 31.3086C440.422 33.3301 438.088 34.7949 435.061 35.293L434.24 33.5547ZM451.553 34.2383C451.553 30.7812 452.471 27.9102 454.287 25.4492H456.631C455.234 27.2754 454.141 30.957 454.15 34.2383C454.141 37.5098 455.234 41.1816 456.631 43.0078H454.287C452.471 40.5469 451.553 37.6758 451.553 34.2383ZM467.557 30.625C467.254 28.9258 465.896 27.9492 464.178 27.9492C461.863 27.9492 460.223 29.7266 460.232 32.9297C460.223 36.1816 461.873 37.9102 464.178 37.9102C465.857 37.9102 467.215 36.9727 467.557 35.3125H470.115C469.725 38.0273 467.488 40.1953 464.139 40.1953C460.408 40.1953 457.664 37.4902 457.674 32.9297C457.664 28.3594 460.438 25.6641 464.139 25.6641C467.264 25.6641 469.676 27.4805 470.115 30.625H467.557ZM476.314 40.2148C473.219 40.2148 471.236 38.0176 471.236 34.7461C471.236 31.4453 473.219 29.2578 476.314 29.2578C479.42 29.2578 481.402 31.4453 481.393 34.7461C481.402 38.0176 479.42 40.2148 476.314 40.2148ZM473.756 34.7266C473.756 36.6699 474.605 38.2227 476.334 38.2227C478.033 38.2227 478.883 36.6699 478.873 34.7266C478.883 32.7832 478.033 31.2207 476.334 31.2305C474.605 31.2207 473.756 32.7832 473.756 34.7266ZM485.326 33.7891V40H482.826V29.3945H485.209V31.1914H485.346C485.824 30.0098 486.908 29.2578 488.49 29.2578C490.688 29.2578 492.133 30.7031 492.123 33.2422V40H489.643V33.6328C489.643 32.207 488.871 31.3574 487.572 31.3672C486.254 31.3574 485.326 32.2461 485.326 33.7891ZM499.299 29.3945V31.3086H497.209V36.8164C497.209 37.832 497.717 38.0371 498.342 38.0469C498.635 38.0566 499.123 38.0273 499.436 38.0078V40.0391C499.143 40.0879 498.664 40.1465 498.029 40.1367C496.154 40.1465 494.709 39.2188 494.729 37.2266V31.3086H493.205V29.3945H494.729V26.8555H497.209V29.3945H499.299ZM505.303 40.2148C502.109 40.2148 500.146 38.0859 500.146 34.7656C500.146 31.4844 502.139 29.2578 505.166 29.2578C507.764 29.2578 510.01 30.8887 510.01 34.6094V35.3906H502.607C502.646 37.1973 503.711 38.2715 505.322 38.2617C506.416 38.2715 507.148 37.8027 507.471 37.168H509.912C509.463 39.0039 507.764 40.2148 505.303 40.2148ZM502.617 33.6914H507.627C507.617 32.2461 506.641 31.1914 505.205 31.1914C503.711 31.1914 502.705 32.3438 502.617 33.6914ZM513.943 33.7891V40H511.443V29.3945H513.826V31.1914H513.963C514.441 30.0098 515.525 29.2578 517.107 29.2578C519.305 29.2578 520.75 30.7031 520.74 33.2422V40H518.26V33.6328C518.26 32.207 517.488 31.3574 516.189 31.3672C514.871 31.3574 513.943 32.2461 513.943 33.7891ZM527.916 29.3945V31.3086H525.826V36.8164C525.826 37.832 526.334 38.0371 526.959 38.0469C527.252 38.0566 527.74 38.0273 528.053 38.0078V40.0391C527.76 40.0879 527.281 40.1465 526.646 40.1367C524.771 40.1465 523.326 39.2188 523.346 37.2266V31.3086H521.822V29.3945H523.346V26.8555H525.826V29.3945H527.916ZM533.803 34.2188C533.803 37.6758 532.885 40.5469 531.068 43.0078H528.725C530.121 41.1816 531.215 37.5 531.205 34.2188C531.215 30.9473 530.121 27.2754 528.725 25.4492H531.068C532.885 27.9102 533.803 30.7812 533.803 34.2188Z" fill="#444444"/>
<path d="M100.625 166.32C100.605 169.562 102.314 172.805 105.176 174.035L103.887 175.773C101.855 174.836 100.371 172.971 99.5508 170.666C98.7402 173.146 97.2168 175.178 95.0781 176.184L93.75 174.367C96.6895 173.098 98.4082 169.729 98.418 166.32V163.508H100.625V166.32ZM106.445 179.758V162.082H108.633V179.758H106.445ZM117.059 165.148C117.059 167.326 118.455 169.465 121.238 170.383L120.145 172.062C118.162 171.398 116.766 170.08 115.994 168.43C115.213 170.236 113.748 171.672 111.688 172.375L110.535 170.695C113.377 169.748 114.871 167.463 114.871 165.148V164.934H111.141V163.195H120.73V164.934H117.059V165.148ZM112.898 175.285V173.547H124.656V179.738H122.488V175.285H112.898ZM122.488 172.727V162.082H124.656V166.496H127.117V168.312H124.656V172.727H122.488ZM139.516 163.996V165.734H134.477V168.625H139.203V170.324H134.477V173.762C136.664 173.742 138.178 173.664 139.965 173.391L140.141 175.168C138.08 175.52 136.352 175.588 133.598 175.578H132.406V163.996H139.516ZM141.039 178.879V162.395H143.09V169.016H144.906V162.082H146.996V179.738H144.906V170.773H143.09V178.879H141.039ZM162.59 163.801V165.793C162.59 168.156 162.59 170.588 161.945 174.309L159.738 174.113C160.422 170.646 160.422 168.088 160.422 165.793V165.559H150.246V163.801H162.59ZM148.547 177.316V175.539H164.641V177.316H148.547ZM166.562 172.238C166.562 168.781 167.48 165.91 169.297 163.449H171.641C170.244 165.275 169.15 168.957 169.16 172.238C169.15 175.51 170.244 179.182 171.641 181.008H169.297C167.48 178.547 166.562 175.676 166.562 172.238ZM180.73 167.746C180.604 166.525 179.578 165.822 178.055 165.832C176.443 165.822 175.486 166.604 175.477 167.668C175.467 168.859 176.727 169.348 177.898 169.621L179.227 169.973C181.336 170.461 183.367 171.574 183.367 174.035C183.367 176.516 181.404 178.215 178.016 178.215C174.725 178.215 172.635 176.633 172.527 173.84H175.027C175.145 175.314 176.385 176.037 177.996 176.047C179.666 176.037 180.818 175.227 180.828 174.016C180.818 172.902 179.803 172.434 178.27 172.043L176.668 171.633C174.344 171.027 172.898 169.855 172.898 167.824C172.898 165.324 175.115 163.664 178.094 163.664C181.092 163.664 183.133 165.354 183.172 167.746H180.73ZM190.152 167.395V169.309H188.062V174.816C188.062 175.832 188.57 176.037 189.195 176.047C189.488 176.057 189.977 176.027 190.289 176.008V178.039C189.996 178.088 189.518 178.146 188.883 178.137C187.008 178.146 185.562 177.219 185.582 175.227V169.309H184.059V167.395H185.582V164.855H188.062V167.395H190.152ZM191.078 175.012C191.078 172.629 193.061 171.936 195.023 171.809C195.766 171.75 197.279 171.682 197.748 171.662L197.738 170.812C197.738 169.758 197.064 169.152 195.824 169.152C194.711 169.152 194.027 169.66 193.832 170.422H191.43C191.605 168.615 193.227 167.258 195.883 167.258C197.895 167.258 200.219 168.088 200.219 170.91V178H197.836V176.535H197.758C197.289 177.434 196.303 178.215 194.633 178.215C192.611 178.215 191.078 177.111 191.078 175.012ZM193.48 174.992C193.48 175.91 194.232 176.379 195.277 176.379C196.791 176.379 197.758 175.383 197.758 174.191L197.748 173.322C197.299 173.342 195.912 173.43 195.414 173.469C194.232 173.566 193.48 174.064 193.48 174.992ZM202.062 178V167.395H204.484V169.152H204.602C204.982 167.932 205.998 167.238 207.219 167.238C207.492 167.238 207.883 167.268 208.117 167.297V169.602C207.893 169.523 207.375 169.455 206.965 169.445C205.578 169.455 204.562 170.412 204.562 171.75V178H202.062ZM214.98 167.395V169.309H212.891V174.816C212.891 175.832 213.398 176.037 214.023 176.047C214.316 176.057 214.805 176.027 215.117 176.008V178.039C214.824 178.088 214.346 178.146 213.711 178.137C211.836 178.146 210.391 177.219 210.41 175.227V169.309H208.887V167.395H210.41V164.855H212.891V167.395H214.98ZM216.395 178V167.395H218.895V178H216.395ZM216.219 164.523C216.219 163.781 216.873 163.176 217.664 163.176C218.455 163.176 219.109 163.781 219.109 164.523C219.109 165.275 218.455 165.881 217.664 165.891C216.873 165.881 216.219 165.275 216.219 164.523ZM223.277 171.789V178H220.777V167.395H223.16V169.191H223.297C223.775 168.01 224.859 167.258 226.441 167.258C228.639 167.258 230.084 168.703 230.074 171.242V178H227.594V171.633C227.594 170.207 226.822 169.357 225.523 169.367C224.205 169.357 223.277 170.246 223.277 171.789ZM236.586 182.199C233.773 182.199 231.986 180.949 231.82 178.957H234.301C234.477 179.885 235.346 180.314 236.625 180.324C238.119 180.314 239.086 179.67 239.086 178.117V176.086H238.969C238.578 176.867 237.729 177.844 235.902 177.844C233.451 177.844 231.527 176.066 231.527 172.609C231.527 169.123 233.461 167.258 235.922 167.258C237.787 167.258 238.578 168.381 238.969 169.133H239.086V167.395H241.547V178.176C241.547 180.891 239.447 182.199 236.586 182.199ZM234.066 172.648C234.066 174.602 234.945 175.891 236.586 175.891C238.197 175.891 239.105 174.68 239.105 172.648C239.105 170.627 238.207 169.299 236.586 169.289C234.926 169.299 234.066 170.715 234.066 172.648ZM252.969 167.395V169.309H250.879V174.816C250.879 175.832 251.387 176.037 252.012 176.047C252.305 176.057 252.793 176.027 253.105 176.008V178.039C252.812 178.088 252.334 178.146 251.699 178.137C249.824 178.146 248.379 177.219 248.398 175.227V169.309H246.875V167.395H248.398V164.855H250.879V167.395H252.969ZM253.895 175.012C253.895 172.629 255.877 171.936 257.84 171.809C258.582 171.75 260.096 171.682 260.564 171.662L260.555 170.812C260.555 169.758 259.881 169.152 258.641 169.152C257.527 169.152 256.844 169.66 256.648 170.422H254.246C254.422 168.615 256.043 167.258 258.699 167.258C260.711 167.258 263.035 168.088 263.035 170.91V178H260.652V176.535H260.574C260.105 177.434 259.119 178.215 257.449 178.215C255.428 178.215 253.895 177.111 253.895 175.012ZM256.297 174.992C256.297 175.91 257.049 176.379 258.094 176.379C259.607 176.379 260.574 175.383 260.574 174.191L260.564 173.322C260.115 173.342 258.729 173.43 258.23 173.469C257.049 173.566 256.297 174.064 256.297 174.992ZM269.508 182.199C266.695 182.199 264.908 180.949 264.742 178.957H267.223C267.398 179.885 268.268 180.314 269.547 180.324C271.041 180.314 272.008 179.67 272.008 178.117V176.086H271.891C271.5 176.867 270.65 177.844 268.824 177.844C266.373 177.844 264.449 176.066 264.449 172.609C264.449 169.123 266.383 167.258 268.844 167.258C270.709 167.258 271.5 168.381 271.891 169.133H272.008V167.395H274.469V178.176C274.469 180.891 272.369 182.199 269.508 182.199ZM266.988 172.648C266.988 174.602 267.867 175.891 269.508 175.891C271.119 175.891 272.027 174.68 272.027 172.648C272.027 170.627 271.129 169.299 269.508 169.289C267.848 169.299 266.988 170.715 266.988 172.648ZM280.824 172.219C280.824 175.676 279.906 178.547 278.09 181.008H275.746C277.143 179.182 278.236 175.5 278.227 172.219C278.236 168.947 277.143 165.275 275.746 163.449H278.09C279.906 165.91 280.824 168.781 280.824 172.219Z" fill="#25292E"/>
<path d="M304.135 238.579V240.356H288.002V238.579H291.732V234.116C290.326 233.306 289.477 232.036 289.486 230.474C289.477 227.661 292.23 225.806 296.029 225.806C299.848 225.806 302.621 227.661 302.611 230.474C302.621 232.017 301.791 233.257 300.424 234.067V238.579H304.135ZM291.615 230.474C291.605 232.28 293.393 233.433 296.029 233.423C298.656 233.433 300.482 232.28 300.482 230.474C300.482 228.638 298.656 227.515 296.029 227.524C293.393 227.515 291.605 228.638 291.615 230.474ZM293.881 238.579H298.217V234.897C297.543 235.044 296.811 235.122 296.029 235.122C295.268 235.122 294.545 235.044 293.881 234.907V238.579ZM320.92 238.56V240.317H304.787V238.56H311.701V234.478H313.85V238.56H320.92ZM305.256 233.11C308.947 232.515 311.594 229.868 311.604 227.212V225.923H313.908V227.212C313.908 229.878 316.574 232.515 320.295 233.11L319.357 234.907C316.379 234.341 313.928 232.632 312.756 230.317C311.594 232.622 309.172 234.351 306.193 234.907L305.256 233.11ZM327.049 235.005C327.049 231.548 327.967 228.677 329.783 226.216H332.127C330.73 228.042 329.637 231.724 329.646 235.005C329.637 238.276 330.73 241.948 332.127 243.774H329.783C327.967 241.313 327.049 238.442 327.049 235.005ZM333.521 240.767V226.626H342.721V228.755H336.061V232.622H342.232V234.751H336.061V238.618H342.76V240.767H333.521ZM347.045 226.626V240.767H344.545V226.626H347.045ZM353.635 240.981C350.441 240.981 348.479 238.853 348.479 235.532C348.479 232.251 350.471 230.024 353.498 230.024C356.096 230.024 358.342 231.655 358.342 235.376V236.157H350.939C350.979 237.964 352.043 239.038 353.654 239.028C354.748 239.038 355.48 238.569 355.803 237.935H358.244C357.795 239.771 356.096 240.981 353.635 240.981ZM350.949 234.458H355.959C355.949 233.013 354.973 231.958 353.537 231.958C352.043 231.958 351.037 233.11 350.949 234.458ZM359.775 240.767V230.161H362.158V231.958H362.295C362.734 230.747 363.799 230.024 365.205 230.024C366.641 230.024 367.676 230.757 368.076 231.958H368.193C368.652 230.786 369.834 230.024 371.377 230.024C373.32 230.024 374.688 231.274 374.678 233.638V240.767H372.197V234.028C372.197 232.71 371.396 232.114 370.381 232.114C369.16 232.114 368.447 232.944 368.447 234.146V240.767H366.025V233.931C366.016 232.827 365.293 232.114 364.229 232.114C363.154 232.114 362.275 233.003 362.275 234.321V240.767H359.775ZM381.268 240.981C378.074 240.981 376.111 238.853 376.111 235.532C376.111 232.251 378.104 230.024 381.131 230.024C383.729 230.024 385.975 231.655 385.975 235.376V236.157H378.572C378.611 237.964 379.676 239.038 381.287 239.028C382.381 239.038 383.113 238.569 383.436 237.935H385.877C385.428 239.771 383.729 240.981 381.268 240.981ZM378.582 234.458H383.592C383.582 233.013 382.605 231.958 381.17 231.958C379.676 231.958 378.67 233.11 378.582 234.458ZM389.908 234.556V240.767H387.408V230.161H389.791V231.958H389.928C390.406 230.776 391.49 230.024 393.072 230.024C395.27 230.024 396.715 231.47 396.705 234.009V240.767H394.225V234.399C394.225 232.974 393.453 232.124 392.154 232.134C390.836 232.124 389.908 233.013 389.908 234.556ZM403.881 230.161V232.075H401.791V237.583C401.791 238.599 402.299 238.804 402.924 238.813C403.217 238.823 403.705 238.794 404.018 238.774V240.806C403.725 240.854 403.246 240.913 402.611 240.903C400.736 240.913 399.291 239.985 399.311 237.993V232.075H397.787V230.161H399.311V227.622H401.791V230.161H403.881ZM409.768 234.985C409.768 238.442 408.85 241.313 407.033 243.774H404.689C406.086 241.948 407.18 238.267 407.17 234.985C407.18 231.714 406.086 228.042 404.689 226.216H407.033C408.85 228.677 409.768 231.548 409.768 234.985Z" fill="#1E73FF"/>
<path d="M499.141 168.391V170.637H506.133V172.395H490.039V170.637H496.992V168.391H499.141ZM490.801 167.648C494.062 167.326 496.182 166.047 496.543 164.602H491.504V162.863H504.688V164.602H499.6C499.961 166.037 502.08 167.326 505.371 167.648L504.59 169.348C501.387 169.016 499.023 167.766 498.066 165.988C497.109 167.766 494.766 169.016 491.562 169.348L490.801 167.648ZM491.914 176.613C491.914 174.631 494.209 173.527 498.066 173.527C501.895 173.527 504.17 174.631 504.18 176.613C504.17 178.615 501.895 179.719 498.066 179.719C494.209 179.719 491.914 178.615 491.914 176.613ZM494.121 176.613C494.111 177.58 495.469 178.078 498.066 178.078C500.615 178.078 501.992 177.58 502.012 176.613C501.992 175.676 500.615 175.197 498.066 175.188C495.469 175.197 494.111 175.676 494.121 176.613ZM522.957 175.891V177.688H506.824V175.891H511.102V172.98H508.738V167.219H518.895V165.051H508.699V163.293H521.043V168.957H510.906V171.223H521.453V172.98H518.875V175.891H522.957ZM513.211 175.891H516.746V172.98H513.211V175.891ZM535.609 163.996V165.734H530.57V168.625H535.297V170.324H530.57V173.762C532.758 173.742 534.271 173.664 536.059 173.391L536.234 175.168C534.174 175.52 532.445 175.588 529.691 175.578H528.5V163.996H535.609ZM537.133 178.879V162.395H539.184V169.016H541V162.082H543.09V179.738H541V170.773H539.184V178.879H537.133ZM558.684 163.801V165.793C558.684 168.156 558.684 170.588 558.039 174.309L555.832 174.113C556.516 170.646 556.516 168.088 556.516 165.793V165.559H546.34V163.801H558.684ZM544.641 177.316V175.539H560.734V177.316H544.641ZM562.656 172.238C562.656 168.781 563.574 165.91 565.391 163.449H567.734C566.338 165.275 565.244 168.957 565.254 172.238C565.244 175.51 566.338 179.182 567.734 181.008H565.391C563.574 178.547 562.656 175.676 562.656 172.238ZM578.66 168.625C578.357 166.926 577 165.949 575.281 165.949C572.967 165.949 571.326 167.727 571.336 170.93C571.326 174.182 572.977 175.91 575.281 175.91C576.961 175.91 578.318 174.973 578.66 173.312H581.219C580.828 176.027 578.592 178.195 575.242 178.195C571.512 178.195 568.768 175.49 568.777 170.93C568.768 166.359 571.541 163.664 575.242 163.664C578.367 163.664 580.779 165.48 581.219 168.625H578.66ZM585.289 163.859V178H582.789V163.859H585.289ZM591.801 178.215C588.705 178.215 586.723 176.018 586.723 172.746C586.723 169.445 588.705 167.258 591.801 167.258C594.906 167.258 596.889 169.445 596.879 172.746C596.889 176.018 594.906 178.215 591.801 178.215ZM589.242 172.727C589.242 174.67 590.092 176.223 591.82 176.223C593.52 176.223 594.369 174.67 594.359 172.727C594.369 170.783 593.52 169.221 591.82 169.23C590.092 169.221 589.242 170.783 589.242 172.727ZM604.328 170.422C604.172 169.621 603.508 169.104 602.453 169.113C601.389 169.104 600.607 169.641 600.617 170.363C600.607 170.91 601.047 171.32 602.121 171.574L603.918 171.945C605.92 172.385 606.896 173.312 606.906 174.836C606.896 176.828 605.148 178.215 602.375 178.215C599.68 178.215 598.088 177.004 597.824 174.973H600.363C600.51 175.881 601.213 176.33 602.375 176.32C603.576 176.33 604.357 175.842 604.367 175.051C604.357 174.436 603.879 174.045 602.824 173.82L601.125 173.449C599.152 173.049 598.127 172.014 598.137 170.5C598.127 168.537 599.826 167.258 602.414 167.258C604.943 167.258 606.506 168.498 606.691 170.422H604.328ZM608.301 178V167.395H610.801V178H608.301ZM608.125 164.523C608.125 163.781 608.779 163.176 609.57 163.176C610.361 163.176 611.016 163.781 611.016 164.523C611.016 165.275 610.361 165.881 609.57 165.891C608.779 165.881 608.125 165.275 608.125 164.523ZM615.184 171.789V178H612.684V167.395H615.066V169.191H615.203C615.682 168.01 616.766 167.258 618.348 167.258C620.545 167.258 621.99 168.703 621.98 171.242V178H619.5V171.633C619.5 170.207 618.729 169.357 617.43 169.367C616.111 169.357 615.184 170.246 615.184 171.789ZM628.492 182.199C625.68 182.199 623.893 180.949 623.727 178.957H626.207C626.383 179.885 627.252 180.314 628.531 180.324C630.025 180.314 630.992 179.67 630.992 178.117V176.086H630.875C630.484 176.867 629.635 177.844 627.809 177.844C625.357 177.844 623.434 176.066 623.434 172.609C623.434 169.123 625.367 167.258 627.828 167.258C629.693 167.258 630.484 168.381 630.875 169.133H630.992V167.395H633.453V178.176C633.453 180.891 631.354 182.199 628.492 182.199ZM625.973 172.648C625.973 174.602 626.852 175.891 628.492 175.891C630.104 175.891 631.012 174.68 631.012 172.648C631.012 170.627 630.113 169.299 628.492 169.289C626.832 169.299 625.973 170.715 625.973 172.648ZM644.875 167.395V169.309H642.785V174.816C642.785 175.832 643.293 176.037 643.918 176.047C644.211 176.057 644.699 176.027 645.012 176.008V178.039C644.719 178.088 644.24 178.146 643.605 178.137C641.73 178.146 640.285 177.219 640.305 175.227V169.309H638.781V167.395H640.305V164.855H642.785V167.395H644.875ZM645.801 175.012C645.801 172.629 647.783 171.936 649.746 171.809C650.488 171.75 652.002 171.682 652.471 171.662L652.461 170.812C652.461 169.758 651.787 169.152 650.547 169.152C649.434 169.152 648.75 169.66 648.555 170.422H646.152C646.328 168.615 647.949 167.258 650.605 167.258C652.617 167.258 654.941 168.088 654.941 170.91V178H652.559V176.535H652.48C652.012 177.434 651.025 178.215 649.355 178.215C647.334 178.215 645.801 177.111 645.801 175.012ZM648.203 174.992C648.203 175.91 648.955 176.379 650 176.379C651.514 176.379 652.48 175.383 652.48 174.191L652.471 173.322C652.021 173.342 650.635 173.43 650.137 173.469C648.955 173.566 648.203 174.064 648.203 174.992ZM661.414 182.199C658.602 182.199 656.814 180.949 656.648 178.957H659.129C659.305 179.885 660.174 180.314 661.453 180.324C662.947 180.314 663.914 179.67 663.914 178.117V176.086H663.797C663.406 176.867 662.557 177.844 660.73 177.844C658.279 177.844 656.355 176.066 656.355 172.609C656.355 169.123 658.289 167.258 660.75 167.258C662.615 167.258 663.406 168.381 663.797 169.133H663.914V167.395H666.375V178.176C666.375 180.891 664.275 182.199 661.414 182.199ZM658.895 172.648C658.895 174.602 659.773 175.891 661.414 175.891C663.025 175.891 663.934 174.68 663.934 172.648C663.934 170.627 663.035 169.299 661.414 169.289C659.754 169.299 658.895 170.715 658.895 172.648ZM672.73 172.219C672.73 175.676 671.812 178.547 669.996 181.008H667.652C669.049 179.182 670.143 175.5 670.133 172.219C670.143 168.947 669.049 165.275 667.652 163.449H669.996C671.812 165.91 672.73 168.781 672.73 172.219Z" fill="#25292E"/>
<path d="M28.4424 137.233L28.4424 138.317C28.4424 140.202 28.8867 141.604 29.7754 142.521C30.6543 143.439 31.9922 143.898 33.7891 143.898L183.169 143.898C183.647 143.898 184.072 143.952 184.443 144.06C184.824 144.167 185.142 144.357 185.396 144.631C185.659 144.895 185.859 145.251 185.996 145.7C186.133 146.14 186.201 146.696 186.201 147.37L186.201 153L188.237 153L188.237 147.37C188.237 146.657 188.296 146.076 188.413 145.627C188.53 145.178 188.706 144.826 188.94 144.572C189.185 144.318 189.492 144.143 189.863 144.045C190.234 143.947 190.674 143.898 191.182 143.898L340.653 143.898C341.474 143.898 342.211 143.801 342.865 143.605C343.529 143.41 344.091 143.093 344.55 142.653C345.019 142.204 345.375 141.628 345.619 140.925C345.873 140.212 346 139.343 346 138.317L346 137.233L343.949 137.233L343.949 138.098C343.949 140.363 342.851 141.496 340.653 141.496L191.24 141.496C188.857 141.496 187.515 142.526 187.212 144.587C187.007 142.507 185.669 141.467 183.198 141.467L33.8477 141.467C31.6113 141.467 30.4932 140.344 30.4932 138.098L30.4932 137.233L28.4424 137.233Z" fill="#25292E"/>
<path d="M28.4424 200L28.4424 201.084C28.4424 202.969 28.8867 204.37 29.7754 205.288C30.6543 206.206 31.9922 206.665 33.7891 206.665L345.169 206.665C345.647 206.665 346.072 206.719 346.443 206.826C346.824 206.934 347.142 207.124 347.396 207.397C347.659 207.661 347.859 208.018 347.996 208.467C348.133 208.906 348.201 209.463 348.201 210.137L348.201 215.767L350.237 215.767L350.237 210.137C350.237 209.424 350.296 208.843 350.413 208.394C350.53 207.944 350.706 207.593 350.94 207.339C351.185 207.085 351.492 206.909 351.863 206.812C352.234 206.714 352.674 206.665 353.182 206.665L664.653 206.665C665.474 206.665 666.211 206.567 666.865 206.372C667.529 206.177 668.091 205.859 668.55 205.42C669.019 204.971 669.375 204.395 669.619 203.691C669.873 202.979 670 202.109 670 201.084L670 200L667.949 200L667.949 200.864C667.949 203.13 666.851 204.263 664.653 204.263L353.24 204.263C350.857 204.263 349.515 205.293 349.212 207.354C349.007 205.273 347.669 204.233 345.198 204.233L33.8477 204.233C31.6113 204.233 30.4932 203.11 30.4932 200.864L30.4932 200L28.4424 200Z" fill="#1E73FF"/>
<path d="M590.442 137.233L590.442 138.317C590.442 140.202 590.887 141.604 591.775 142.521C592.654 143.439 593.992 143.898 595.789 143.898L626.169 143.898C626.647 143.898 627.072 143.952 627.443 144.06C627.824 144.167 628.142 144.357 628.396 144.631C628.659 144.895 628.859 145.251 628.996 145.7C629.133 146.14 629.201 146.696 629.201 147.37L629.201 153L631.237 153L631.237 147.37C631.237 146.657 631.296 146.076 631.413 145.627C631.53 145.178 631.706 144.826 631.94 144.572C632.185 144.318 632.492 144.143 632.863 144.045C633.234 143.947 633.674 143.898 634.182 143.898L664.653 143.898C665.474 143.898 666.211 143.801 666.865 143.605C667.529 143.41 668.091 143.093 668.55 142.653C669.019 142.204 669.375 141.628 669.619 140.925C669.873 140.212 670 139.343 670 138.317L670 137.233L667.949 137.233L667.949 138.098C667.949 140.363 666.851 141.496 664.653 141.496L634.24 141.496C631.857 141.496 630.515 142.526 630.212 144.587C630.007 142.507 628.669 141.467 626.198 141.467L595.848 141.467C593.611 141.467 592.493 140.344 592.493 138.098L592.493 137.233L590.442 137.233Z" fill="#25292E"/>
<path d="M39.4424 66.7666L39.4424 65.6826C39.4424 63.7979 39.8867 62.3965 40.7754 61.4785C41.6543 60.5606 42.9922 60.1016 44.7891 60.1016L52.1689 60.1016C52.6475 60.1016 53.0723 60.0479 53.4434 59.9404C53.8242 59.833 54.1416 59.6426 54.3955 59.3691C54.6592 59.1055 54.8594 58.749 54.9961 58.2998C55.1328 57.8604 55.2012 57.3037 55.2012 56.6299L55.2012 51L57.2373 51L57.2373 56.6299C57.2373 57.3428 57.2959 57.9238 57.4131 58.373C57.5303 58.8223 57.7061 59.1738 57.9404 59.4277C58.1846 59.6816 58.4922 59.8574 58.8633 59.9551C59.2344 60.0527 59.6738 60.1016 60.1816 60.1016L67.6533 60.1016C68.4736 60.1016 69.2109 60.1992 69.8652 60.3945C70.5293 60.5898 71.0908 60.9072 71.5498 61.3467C72.0186 61.7959 72.375 62.3721 72.6191 63.0752C72.873 63.7881 73 64.6572 73 65.6826L73 66.7666L70.9492 66.7666L70.9492 65.9023C70.9492 63.6367 69.8506 62.5039 67.6533 62.5039L60.2402 62.5039C57.8574 62.5039 56.5146 61.4736 56.2119 59.4131C56.0068 61.4932 54.6689 62.5332 52.1982 62.5332L44.8477 62.5332C42.6113 62.5332 41.4932 63.6562 41.4932 65.9023L41.4932 66.7666L39.4424 66.7666Z" fill="#438443"/>
<path d="M623.442 66.7666L623.442 65.6826C623.442 63.7979 623.887 62.3965 624.775 61.4785C625.654 60.5606 626.992 60.1016 628.789 60.1016L636.169 60.1016C636.647 60.1016 637.072 60.0479 637.443 59.9404C637.824 59.833 638.142 59.6426 638.396 59.3691C638.659 59.1055 638.859 58.749 638.996 58.2998C639.133 57.8604 639.201 57.3037 639.201 56.6299L639.201 51L641.237 51L641.237 56.6299C641.237 57.3428 641.296 57.9238 641.413 58.373C641.53 58.8223 641.706 59.1738 641.94 59.4277C642.185 59.6816 642.492 59.8574 642.863 59.9551C643.234 60.0527 643.674 60.1016 644.182 60.1016L651.653 60.1016C652.474 60.1016 653.211 60.1992 653.865 60.3945C654.529 60.5898 655.091 60.9072 655.55 61.3467C656.019 61.7959 656.375 62.3721 656.619 63.0752C656.873 63.7881 657 64.6572 657 65.6826L657 66.7666L654.949 66.7666L654.949 65.9023C654.949 63.6367 653.851 62.5039 651.653 62.5039L644.24 62.5039C641.857 62.5039 640.515 61.4736 640.212 59.4131C640.007 61.4932 638.669 62.5332 636.198 62.5332L628.848 62.5332C626.611 62.5332 625.493 63.6562 625.493 65.9023L625.493 66.7666L623.442 66.7666Z" fill="#438443"/>
<path d="M92.4424 66.7666L92.4424 65.6826C92.4424 63.7978 92.8867 62.3965 93.7754 61.4785C94.6543 60.5605 95.9922 60.1016 97.7891 60.1016L139.169 60.1016C139.647 60.1016 140.072 60.0478 140.443 59.9404C140.824 59.833 141.142 59.6426 141.396 59.3691C141.659 59.1055 141.859 58.749 141.996 58.2998C142.133 57.8603 142.201 57.3037 142.201 56.6299L142.201 51L144.237 51L144.237 56.6299C144.237 57.3428 144.296 57.9238 144.413 58.373C144.53 58.8223 144.706 59.1738 144.94 59.4277C145.185 59.6816 145.492 59.8574 145.863 59.9551C146.234 60.0527 146.674 60.1016 147.182 60.1016L188.653 60.1016C189.474 60.1016 190.211 60.1992 190.865 60.3945C191.529 60.5898 192.091 60.9072 192.55 61.3467C193.019 61.7959 193.375 62.3721 193.619 63.0752C193.873 63.7881 194 64.6572 194 65.6826L194 66.7666L191.949 66.7666L191.949 65.9023C191.949 63.6367 190.851 62.5039 188.653 62.5039L147.24 62.5039C144.857 62.5039 143.515 61.4736 143.212 59.4131C143.007 61.4932 141.669 62.5332 139.198 62.5332L97.8477 62.5332C95.6113 62.5332 94.4932 63.6562 94.4932 65.9023L94.4932 66.7666L92.4424 66.7666Z" fill="#265BBE"/>
<path d="M232 66.7666L232 65.6826C232 63.7978 232.444 62.3965 233.333 61.4785C234.212 60.5606 235.55 60.1016 237.347 60.1016L268.727 60.1016C269.205 60.1016 269.63 60.0478 270.001 59.9404C270.382 59.833 270.699 59.6426 270.953 59.3691C271.217 59.1055 271.417 58.749 271.554 58.2998C271.69 57.8603 271.759 57.3037 271.759 56.6299L271.759 51L273.795 51L273.795 56.6299C273.795 57.3428 273.854 57.9238 273.971 58.373C274.088 58.8223 274.264 59.1738 274.498 59.4277C274.742 59.6816 275.05 59.8574 275.421 59.9551C275.792 60.0527 276.231 60.1016 276.739 60.1016L308.211 60.1016C309.031 60.1016 309.769 60.1992 310.423 60.3945C311.087 60.5898 311.648 60.9072 312.107 61.3467C312.576 61.7959 312.933 62.3721 313.177 63.0752C313.431 63.7881 313.558 64.6572 313.558 65.6826L313.558 66.7666L311.507 66.7666L311.507 65.9023C311.507 63.6367 310.408 62.5039 308.211 62.5039L276.798 62.5039C274.415 62.5039 273.072 61.4736 272.77 59.4131C272.564 61.4932 271.227 62.5332 268.756 62.5332L237.405 62.5332C235.169 62.5332 234.051 63.6562 234.051 65.9023L234.051 66.7666L232 66.7666Z" fill="#112E5F"/>
<path d="M350.442 66.7666L350.442 65.6826C350.442 63.7978 350.887 62.3965 351.775 61.4785C352.654 60.5605 353.992 60.1016 355.789 60.1016L464.169 60.1016C464.647 60.1016 465.072 60.0478 465.443 59.9404C465.824 59.833 466.142 59.6426 466.396 59.3691C466.659 59.1055 466.859 58.749 466.996 58.2998C467.133 57.8603 467.201 57.3037 467.201 56.6299L467.201 51L469.237 51L469.237 56.6299C469.237 57.3428 469.296 57.9238 469.413 58.373C469.53 58.8223 469.706 59.1738 469.94 59.4277C470.185 59.6816 470.492 59.8574 470.863 59.9551C471.234 60.0527 471.674 60.1016 472.182 60.1016L580.653 60.1016C581.474 60.1016 582.211 60.1992 582.865 60.3945C583.529 60.5898 584.091 60.9072 584.55 61.3467C585.019 61.7959 585.375 62.3721 585.619 63.0752C585.873 63.7881 586 64.6572 586 65.6826L586 66.7666L583.949 66.7666L583.949 65.9023C583.949 63.6367 582.851 62.5039 580.653 62.5039L472.24 62.5039C469.857 62.5039 468.515 61.4736 468.212 59.4131C468.007 61.4932 466.669 62.5332 464.198 62.5332L355.848 62.5332C353.611 62.5332 352.493 63.6562 352.493 65.9023L352.493 66.7666L350.442 66.7666Z" fill="#444444"/>
<!-- made by UXKM, K.S.Chu -->
</svg>
