<svg width="304" height="51" viewBox="0 0 304 51" fill="none" xmlns="http://www.w3.org/2000/svg">
<path d="M49.2883 9.5H46.0883V39.3C46.0883 40.1667 46.3883 40.9167 46.9883 41.55C47.6216 42.15 48.3883 42.45 49.2883 42.45H49.8883L49.9383 42.95H38.9883V42.45H39.6383C40.5049 42.45 41.2383 42.15 41.8383 41.55C42.4716 40.95 42.805 40.2167 42.8383 39.35V11.6C42.805 10.7333 42.4716 10 41.8383 9.4C41.2383 8.76667 40.5049 8.45 39.6383 8.45H38.9883V7.95H52.4883C55.5216 7.95 57.9049 8.8 59.6383 10.5C61.3716 12.1667 62.2383 14.35 62.2383 17.05C62.2383 19.7167 61.4049 22.0333 59.7383 24C58.1049 25.9333 56.1049 26.9 53.7383 26.9C54.2383 27.1333 54.8216 27.6 55.4883 28.3C56.1883 28.9667 56.805 29.6667 57.3383 30.4C60.205 34.5 62.0716 37.0333 62.9383 38C63.805 38.9333 64.4216 39.5833 64.7883 39.95C65.155 40.2833 65.5549 40.6167 65.9883 40.95C66.4216 41.2833 66.855 41.55 67.2883 41.75C68.255 42.2167 69.2883 42.45 70.3883 42.45V42.95H67.6383C66.2049 42.95 64.8716 42.7 63.6383 42.2C62.4049 41.6667 61.4716 41.1333 60.8383 40.6C60.2383 40.0333 59.7049 39.5 59.2383 39C58.8049 38.4667 57.5716 36.7333 55.5383 33.8C53.505 30.8667 52.3216 29.2 51.9883 28.8C51.6549 28.3667 51.3049 27.95 50.9383 27.55C49.8716 26.4167 48.8049 25.85 47.7383 25.85V25.35C48.0049 25.3833 48.3549 25.4 48.7883 25.4C49.2216 25.4 49.7549 25.3833 50.3883 25.35C54.5216 25.25 57.1216 23.5167 58.1883 20.15C58.3883 19.4833 58.4883 18.8667 58.4883 18.3C58.4883 17.7 58.4883 17.3167 58.4883 17.15C58.4216 14.9167 57.8383 13.1167 56.7383 11.75C55.6383 10.3833 54.1549 9.65 52.2883 9.55C51.4883 9.51667 50.4883 9.5 49.2883 9.5Z" fill="white"/>
<path d="M71.9625 42.45C72.8292 42.45 73.5625 42.15 74.1625 41.55C74.7958 40.9167 75.1292 40.1667 75.1625 39.3V11.3C75.0625 10.5 74.7125 9.83333 74.1125 9.3C73.5125 8.73333 72.7958 8.45 71.9625 8.45H71.3625L71.3125 7.95H85.9625C86.9958 7.95 88.1125 7.85 89.3125 7.65C90.5458 7.45 91.4125 7.25 91.9125 7.05V13.35H91.4125V12.45C91.4125 11.65 91.1292 10.9667 90.5625 10.4C90.0292 9.83333 89.3792 9.53333 88.6125 9.5H78.4125V24.95H86.8625C87.5292 24.9167 88.0958 24.6667 88.5625 24.2C89.0292 23.7333 89.2625 23.15 89.2625 22.45V21.75H89.7625V29.65H89.2625V28.9C89.2625 28.2333 89.0292 27.6667 88.5625 27.2C88.1292 26.7333 87.5792 26.4833 86.9125 26.45H78.4125V41.4H85.5625C88.0292 41.4 89.9125 40.85 91.2125 39.75C92.5125 38.65 93.5958 37.0167 94.4625 34.85H94.9625L92.0625 42.95H71.3125V42.45H71.9625Z" fill="white"/>
<path d="M132.97 42.45H133.37V42.95H122.12V42.45H122.57C123.27 42.45 123.787 42.2333 124.12 41.8C124.487 41.3333 124.67 40.9 124.67 40.5C124.67 40.1 124.603 39.7 124.47 39.3L121.27 30.8H107.77L104.42 39.35C104.287 39.75 104.22 40.15 104.22 40.55C104.22 40.9167 104.387 41.3333 104.72 41.8C105.087 42.2333 105.62 42.45 106.32 42.45H106.77V42.95H96.7199V42.45H97.1699C98.0033 42.45 98.8199 42.1833 99.6199 41.65C100.42 41.1167 101.07 40.3333 101.57 39.3L112.87 12.4C114.103 9.7 114.72 7.98333 114.72 7.25H115.17L128.57 39.3C129.037 40.3333 129.67 41.1167 130.47 41.65C131.27 42.1833 132.103 42.45 132.97 42.45ZM108.37 29.3H120.67L114.67 13.25L108.37 29.3Z" fill="white"/>
<path d="M158.7 12.4C158.7 11.6 158.417 10.9167 157.85 10.35C157.283 9.75 156.617 9.43333 155.85 9.4H146.35V39.35C146.383 40.2167 146.7 40.95 147.3 41.55C147.933 42.15 148.683 42.45 149.55 42.45H150.2V42.95H139.25V42.45H139.9C140.767 42.45 141.5 42.15 142.1 41.55C142.733 40.95 143.067 40.2333 143.1 39.4V9.4H133.6C132.8 9.43333 132.117 9.75 131.55 10.35C131.017 10.9167 130.75 11.6 130.75 12.4V13.25L130.25 13.3V7C130.75 7.2 131.617 7.4 132.85 7.6C134.083 7.8 135.217 7.9 136.25 7.9H153.15C154.783 7.9 156.133 7.78333 157.2 7.55C158.3 7.28333 158.967 7.1 159.2 7V13.3L158.7 13.25V12.4Z" fill="white"/>
<path d="M163.808 42.45C164.675 42.45 165.408 42.15 166.008 41.55C166.642 40.9167 166.975 40.1667 167.008 39.3V11.3C166.908 10.5 166.558 9.83333 165.958 9.3C165.358 8.73333 164.642 8.45 163.808 8.45H163.208L163.158 7.95H177.808C178.842 7.95 179.958 7.85 181.158 7.65C182.392 7.45 183.258 7.25 183.758 7.05V13.35H183.258V12.45C183.258 11.65 182.975 10.9667 182.408 10.4C181.875 9.83333 181.225 9.53333 180.458 9.5H170.258V24.95H178.708C179.375 24.9167 179.942 24.6667 180.408 24.2C180.875 23.7333 181.108 23.15 181.108 22.45V21.75H181.608V29.65H181.108V28.9C181.108 28.2333 180.875 27.6667 180.408 27.2C179.975 26.7333 179.425 26.4833 178.758 26.45H170.258V41.4H177.408C179.875 41.4 181.758 40.85 183.058 39.75C184.358 38.65 185.442 37.0167 186.308 34.85H186.808L183.908 42.95H163.158V42.45H163.808Z" fill="white"/>
<path d="M208.477 7.95C213.811 7.95 218.127 9.56667 221.427 12.8C224.761 16 226.427 20.2167 226.427 25.45C226.427 30.6833 224.761 34.9167 221.427 38.15C218.127 41.35 213.811 42.95 208.477 42.95H191.527V42.45H192.177C193.044 42.45 193.777 42.15 194.377 41.55C195.011 40.9167 195.344 40.1667 195.377 39.3V11.3C195.377 10.5 195.044 9.83333 194.377 9.3C193.744 8.73333 193.011 8.45 192.177 8.45H191.577L191.527 7.95H208.477ZM198.627 9.45V41.45H208.477C211.277 41.45 213.744 40.7833 215.877 39.45C218.044 38.1167 219.711 36.25 220.877 33.85C222.077 31.4167 222.677 28.6167 222.677 25.45C222.677 20.65 221.361 16.7833 218.727 13.85C216.127 10.9167 212.711 9.45 208.477 9.45H198.627Z" fill="white"/>
<path d="M256.559 42.95H244.359L244.409 42.45H245.009C245.876 42.45 246.609 42.15 247.209 41.55C247.843 40.95 248.176 40.2167 248.209 39.35V11.55C248.209 10.6833 247.893 9.95 247.259 9.35C246.626 8.75 245.876 8.45 245.009 8.45H244.409L244.359 7.95H254.309C257.743 7.95 260.409 8.71667 262.309 10.25C264.209 11.75 265.159 13.7667 265.159 16.3C265.159 18.3 264.626 19.9667 263.559 21.3C262.493 22.6 261.193 23.4667 259.659 23.9C262.293 24.3 264.376 25.3833 265.909 27.15C267.443 28.9167 268.209 31.15 268.209 33.85C268.209 36.5167 267.176 38.7 265.109 40.4C263.076 42.1 260.226 42.95 256.559 42.95ZM251.459 41.15H256.359C256.393 41.15 256.426 41.15 256.459 41.15C258.993 41.15 260.959 40.4667 262.359 39.1C263.759 37.7 264.459 35.7333 264.459 33.2C264.459 31.7667 264.209 30.5167 263.709 29.45C263.243 28.35 262.643 27.4833 261.909 26.85C259.976 25.25 257.076 24.45 253.209 24.45C253.209 24.45 253.193 24.45 253.159 24.45V24C253.193 24 253.343 24 253.609 24C253.909 24 254.326 23.9667 254.859 23.9C255.393 23.8333 255.993 23.7167 256.659 23.55C257.326 23.3833 257.926 23.1167 258.459 22.75C258.993 22.3833 259.493 21.95 259.959 21.45C260.926 20.35 261.409 18.7167 261.409 16.55C261.409 14.35 260.776 12.6333 259.509 11.4C258.276 10.1667 256.476 9.55 254.109 9.55H251.459V41.15Z" fill="white"/>
<path d="M303.037 8.45H302.337C301.337 8.45 300.387 8.73333 299.487 9.3C298.62 9.83333 297.887 10.5167 297.287 11.35L287.437 27.35V39.3C287.437 40.1667 287.737 40.9167 288.337 41.55C288.97 42.15 289.737 42.45 290.637 42.45H291.237V42.95H280.337V42.45H280.987C281.853 42.45 282.587 42.15 283.187 41.55C283.82 40.95 284.153 40.2167 284.187 39.35V27.3L274.637 11.35C274.137 10.55 273.42 9.86667 272.487 9.3C271.587 8.73333 270.637 8.45 269.637 8.45H268.937V7.95H281.237V8.45H280.587C279.853 8.45 279.287 8.78333 278.887 9.45C278.687 9.81667 278.587 10.1833 278.587 10.55C278.587 10.8833 278.67 11.2167 278.837 11.55L286.337 25.55L294.337 11.5C294.503 11.1667 294.587 10.8333 294.587 10.5C294.587 10.1667 294.47 9.81667 294.237 9.45C293.837 8.78333 293.27 8.45 292.537 8.45H291.937V7.95H303.037V8.45Z" fill="white"/>
<path d="M18.85 43.65C13.5833 43.6167 9.28333 41.9333 5.95 38.6C2.65 35.2667 1 30.8833 1 25.45C1 19.9833 2.65 15.5833 5.95 12.25C9.28333 8.91667 13.6833 7.25 19.15 7.25C23.6167 7.25 27.5667 8.38333 31 10.65L32 17.7H31.55C30.8167 14.8333 29.3333 12.6333 27.1 11.1C24.8667 9.53333 22.2167 8.75 19.15 8.75C14.7833 8.75 11.2833 10.2667 8.65 13.3C6.05 16.3333 4.75 20.35 4.75 25.35C4.75 30.35 6.03333 34.3833 8.6 37.45C11.2 40.4833 14.6167 42.05 18.85 42.15C22.5833 42.15 25.7 41.1333 28.2 39.1C30.9 36.9 32.5333 33.3167 33.1 28.35H33.5L32.9 36.2C29.8667 41.1667 25.1833 43.65 18.85 43.65Z" fill="#5193FF"/>
</svg>
