<svg width="287" height="314" viewBox="0 0 287 314" fill="none" xmlns="http://www.w3.org/2000/svg">
<path d="M26.4309 301.077C17.4022 305.386 10.7538 305.788 6.48566 302.281C2.21755 298.73 0.0834961 291.546 0.0834961 280.729V193.586L21.1368 183.537V269.734C21.1368 271.717 21.2394 273.583 21.4446 275.333C21.6498 277.038 22.1217 278.3 22.8604 279.119C23.5991 279.939 24.7893 279.956 26.4309 279.173C28.1135 278.37 29.3241 277.229 30.0629 275.749C30.8016 274.225 31.253 272.5 31.4172 270.573C31.6224 268.627 31.725 266.663 31.725 264.68V178.483L52.7782 168.435V255.578C52.7782 266.395 50.6442 275.616 46.3761 283.242C42.108 290.823 35.4596 296.768 26.4309 301.077Z" fill="#1E72FD"/>
<path d="M57.9492 284.952L69.5839 216.323L60.35 164.753L81.5264 154.645L87.1283 192.873L92.1146 149.592L113.353 139.455L104.119 199.839L115.692 257.391L93.7767 267.851L86.9436 224.6L79.9259 274.462L57.9492 284.952Z" fill="#1E72FD"/>
<path d="M122.156 254.306V135.321L143.578 125.096V172.757L153.674 120.277L175.466 109.876L163.339 170.154L177.99 227.656L155.521 238.381L143.701 186.423V244.022L122.156 254.306Z" fill="#1E72FD"/>
<path d="M181.745 225.864V106.879L214.741 91.1299L223.851 159.322L232.901 82.4622L266.204 66.5664V185.552L246.382 195.013V109.289L233.947 200.948L214.494 210.233L201.321 130.797V216.52L181.745 225.864Z" fill="#1E72FD"/>
<g clip-path="url(#clip0_1408_14143)">
<path d="M46.3101 300.263C37.2814 304.572 29.7742 305.009 23.7885 301.573C17.7887 298.092 13.1131 291.012 9.76159 280.333L-17.2391 194.296L3.8142 184.248L30.5216 269.35C31.136 271.308 31.8321 273.15 32.6099 274.876C33.3737 276.558 34.3065 277.801 35.4083 278.606C36.51 279.41 37.8817 279.42 39.5233 278.637C41.2059 277.834 42.242 276.7 42.6316 275.235C43.0073 273.725 42.9909 272.019 42.5825 270.116C42.2151 268.194 41.7242 266.254 41.1098 264.296L14.4024 179.194L35.4557 169.145L62.4563 255.182C65.8078 265.861 66.2153 274.978 63.6788 282.533C61.1284 290.044 55.3388 295.953 46.3101 300.263Z" fill="white"/>
<path d="M77.4933 284.151L69.5845 216.323L43.0065 165.464L64.1829 155.357L82.4577 193.065L74.7711 150.303L96.009 140.166L104.119 199.84L135.236 256.591L113.321 267.051L92.0762 224.39L99.47 273.662L77.4933 284.151Z" fill="white"/>
<path d="M141.7 253.506L104.833 136.031L126.256 125.806L141.023 172.863L136.351 120.988L158.143 110.586L162.899 170.172L197.534 226.856L175.065 237.58L145.399 186.354L163.245 243.222L141.7 253.506Z" fill="white"/>
<path d="M201.289 225.064L164.422 107.589L197.418 91.8405L229.005 159.111L215.578 83.1727L248.882 67.2769L285.748 184.751L265.926 194.212L239.365 109.577L253.491 200.147L234.038 209.432L194.304 131.085L220.865 215.72L201.289 225.064Z" fill="white"/>
</g>
<g clip-path="url(#clip1_1408_14143)">
<path d="M12.427 294.173C3.39834 298.482 -2.64502 299.182 -5.70305 296.271C-8.75124 293.321 -9.09477 287.018 -6.73364 277.365L12.2882 199.591L33.3415 189.542L14.5262 266.471C14.0933 268.241 13.7778 269.902 13.5797 271.453C13.3913 272.964 13.5386 274.066 14.0216 274.759C14.5045 275.453 15.5667 275.407 17.2083 274.624C18.8909 273.821 20.2246 272.74 21.2092 271.382C22.2037 269.984 22.9847 268.421 23.5523 266.693C24.1608 264.946 24.6815 263.187 25.1144 261.417L43.9297 184.489L64.9829 174.44L45.9611 252.213C43.5999 261.867 39.6754 270.207 34.1873 277.232C28.7092 284.216 21.4557 289.863 12.427 294.173Z" fill="#E1E1E1"/>
<path d="M44.1815 278.164L69.5845 216.317L72.5695 170.766L93.7459 160.658L90.4197 194.488L104.334 155.604L125.572 145.468L104.119 199.833L101.924 250.603L80.009 261.063L83.3287 222.813L66.1581 267.674L44.1815 278.164Z" fill="#E1E1E1"/>
<path d="M108.388 247.518L134.36 141.326L155.783 131.101L145.379 173.638L165.879 126.282L187.671 115.881L163.649 170.301L164.222 220.868L141.753 231.593L142.507 185.828L129.934 237.234L108.388 247.518Z" fill="#E1E1E1"/>
<path d="M167.977 219.076L193.95 112.884L226.945 97.1353L220.222 157.528L245.105 88.4676L278.409 72.5718L252.436 178.764L232.614 188.225L251.326 111.718L220.179 194.16L200.727 203.445L206.265 133.226L187.553 209.733L167.977 219.076Z" fill="#E1E1E1"/>
</g>
<g clip-path="url(#clip2_1408_14143)">
<path d="M46.6332 28.8495L42.4014 30.868V35.5565L46.6332 33.538V28.8495Z" fill="white"/>
<path d="M55.0968 24.8126L50.865 26.8311V31.5196L55.0968 29.5012V24.8126Z" fill="white"/>
<path d="M67.7921 18.7572L63.5603 20.7757V25.4642L67.7921 23.4457V18.7572Z" fill="white"/>
<path d="M72.024 16.7388L67.7922 18.7572V23.4458L72.024 21.4273V16.7388Z" fill="white"/>
<path d="M38.1695 37.575L33.9377 39.5934V44.282L38.1695 42.2635V37.575Z" fill="white"/>
<path d="M46.6332 33.5381L42.4014 35.5565V40.245L46.6332 38.2266V33.5381Z" fill="white"/>
<path d="M59.3287 27.4827L55.0969 29.5011V34.1897L59.3287 32.1712V27.4827Z" fill="white"/>
<path d="M63.5604 25.4642L59.3286 27.4827V32.1712L63.5604 30.1528V25.4642Z" fill="white"/>
<path d="M67.7921 23.4457L63.5603 25.4642V30.1527L67.7921 28.1343V23.4457Z" fill="white"/>
<path d="M72.024 21.4273L67.7922 23.4458V28.1343L72.024 26.1158V21.4273Z" fill="white"/>
<path d="M55.0968 34.1897L50.865 36.2081V40.8967L55.0968 38.8782V34.1897Z" fill="white"/>
<path d="M59.3287 32.1712L55.0969 34.1897V38.8782L59.3287 36.8597V32.1712Z" fill="white"/>
<path d="M72.024 26.1158L67.7922 28.1343V32.8228L72.024 30.8043V26.1158Z" fill="white"/>
<path d="M38.1695 46.952L33.9377 48.9705V53.659L38.1695 51.6406V46.952Z" fill="white"/>
<path d="M42.4015 44.9336L38.1697 46.952V51.6406L42.4015 49.6221V44.9336Z" fill="white"/>
<path d="M46.6332 42.9151L42.4014 44.9336V49.6221L46.6332 47.6036V42.9151Z" fill="white"/>
<path d="M55.0968 38.8782L50.865 40.8966V45.5852L55.0968 43.5667V38.8782Z" fill="white"/>
<path d="M67.7921 32.8228L63.5603 34.8412V39.5298L67.7921 37.5113V32.8228Z" fill="white"/>
<path d="M72.024 30.8043L67.7922 32.8228V37.5113L72.024 35.4928V30.8043Z" fill="white"/>
<path d="M42.4015 49.6221L38.1697 51.6405V56.3291L42.4015 54.3106V49.6221Z" fill="white"/>
<path d="M67.7921 37.5113L63.5603 39.5298V44.2183L67.7921 42.1998V37.5113Z" fill="white"/>
<path d="M38.1695 56.3291L33.9377 58.3475V63.0361L38.1695 61.0176V56.3291Z" fill="white"/>
<path d="M42.4015 54.3106L38.1697 56.3291V61.0176L42.4015 58.9991V54.3106Z" fill="white"/>
<path d="M50.8651 50.2737L46.6333 52.2921V56.9807L50.8651 54.9622V50.2737Z" fill="white"/>
<path d="M55.0968 48.2553L50.865 50.2737V54.9622L55.0968 52.9438V48.2553Z" fill="white"/>
<path d="M59.3287 46.2368L55.0969 48.2552V52.9438L59.3287 50.9253V46.2368Z" fill="white"/>
<path d="M63.5604 44.2183L59.3286 46.2368V50.9253L63.5604 48.9068V44.2183Z" fill="white"/>
<path d="M38.1695 61.0176L33.9377 63.0361V67.7246L38.1695 65.7061V61.0176Z" fill="white"/>
<path d="M46.6332 56.9807L42.4014 58.9991V63.6877L46.6332 61.6692V56.9807Z" fill="white"/>
<path d="M55.0968 52.9438L50.865 54.9622V59.6507L55.0968 57.6323V52.9438Z" fill="white"/>
<path d="M63.5604 48.9069L59.3286 50.9253V55.6138L63.5604 53.5954V48.9069Z" fill="white"/>
<path d="M72.024 44.8699L67.7922 46.8884V51.5769L72.024 49.5585V44.8699Z" fill="white"/>
<path d="M42.4015 63.6877L38.1697 65.7061V70.3947L42.4015 68.3762V63.6877Z" fill="white"/>
<path d="M46.6332 61.6692L42.4014 63.6877V68.3762L46.6332 66.3578V61.6692Z" fill="white"/>
<path d="M50.8651 59.6508L46.6333 61.6692V66.3577L50.8651 64.3393V59.6508Z" fill="white"/>
<path d="M63.5604 53.5954L59.3286 55.6138V60.3024L63.5604 58.2839V53.5954Z" fill="white"/>
<path d="M72.024 49.5584L67.7922 51.5769V56.2654L72.024 54.247V49.5584Z" fill="white"/>
<path d="M4.31529 86.5423L0.0834961 88.5608V93.2493L4.31529 91.2309V86.5423Z" fill="white"/>
<path d="M8.54698 84.5239L4.31519 86.5423V91.2309L8.54698 89.2124V84.5239Z" fill="white"/>
<path d="M12.7789 82.5054L8.54712 84.5239V89.2124L12.7789 87.1939V82.5054Z" fill="white"/>
<path d="M17.0106 80.4869L12.7788 82.5054V87.1939L17.0106 85.1755V80.4869Z" fill="white"/>
<path d="M21.2425 78.4685L17.0107 80.4869V85.1755L21.2425 83.157V78.4685Z" fill="white"/>
<path d="M29.7062 74.4315L25.4744 76.45V81.1385L29.7062 79.1201V74.4315Z" fill="white"/>
<path d="M33.9378 72.4131L29.7061 74.4315V79.1201L33.9378 77.1016V72.4131Z" fill="white"/>
<path d="M38.1695 70.3946L33.9377 72.4131V77.1016L38.1695 75.0831V70.3946Z" fill="white"/>
<path d="M42.4015 68.3762L38.1697 70.3946V75.0831L42.4015 73.0647V68.3762Z" fill="white"/>
<path d="M50.8651 64.3392L46.6333 66.3577V71.0462L50.8651 69.0278V64.3392Z" fill="white"/>
<path d="M63.5604 58.2839L59.3286 60.3023V64.9909L63.5604 62.9724V58.2839Z" fill="white"/>
<path d="M67.7921 56.2654L63.5603 58.2838V62.9724L67.7921 60.9539V56.2654Z" fill="white"/>
<path d="M72.024 54.2469L67.7922 56.2654V60.9539L72.024 58.9355V54.2469Z" fill="white"/>
<path d="M76.2557 52.2285L72.0239 54.2469V58.9355L76.2557 56.917V52.2285Z" fill="white"/>
<path d="M84.7193 48.1916L80.4875 50.21V54.8985L84.7193 52.8801V48.1916Z" fill="white"/>
<path d="M93.183 44.1546L88.9512 46.1731V50.8616L93.183 48.8432V44.1546Z" fill="white"/>
<path d="M101.647 40.1177L97.4148 42.1362V46.8247L101.647 44.8062V40.1177Z" fill="white"/>
<path d="M21.2425 83.157L17.0107 85.1755V89.864L21.2425 87.8455V83.157Z" fill="white"/>
<path d="M25.4742 81.1386L21.2424 83.157V87.8455L25.4742 85.8271V81.1386Z" fill="white"/>
<path d="M38.1695 75.0832L33.9377 77.1016V81.7901L38.1695 79.7717V75.0832Z" fill="white"/>
<path d="M46.6332 71.0462L42.4014 73.0647V77.7532L46.6332 75.7348V71.0462Z" fill="white"/>
<path d="M55.0968 67.0093L50.865 69.0278V73.7163L55.0968 71.6979V67.0093Z" fill="white"/>
<path d="M63.5604 62.9724L59.3286 64.9909V69.6794L63.5604 67.6609V62.9724Z" fill="white"/>
<path d="M72.024 58.9355L67.7922 60.9539V65.6425L72.024 63.624V58.9355Z" fill="white"/>
<path d="M76.2557 56.917L72.0239 58.9355V63.624L76.2557 61.6055V56.917Z" fill="white"/>
<path d="M84.7193 52.8801L80.4875 54.8986V59.5871L84.7193 57.5686V52.8801Z" fill="white"/>
<path d="M88.9513 50.8616L84.7195 52.8801V57.5686L88.9513 55.5502V50.8616Z" fill="white"/>
<path d="M105.878 42.7878L101.646 44.8062V49.4948L105.878 47.4763V42.7878Z" fill="white"/>
<path d="M8.54698 93.9009L4.31519 95.9194V100.608L8.54698 98.5895V93.9009Z" fill="white"/>
<path d="M17.0106 89.864L12.7788 91.8825V96.571L17.0106 94.5525V89.864Z" fill="white"/>
<path d="M25.4742 85.8271L21.2424 87.8456V92.5341L25.4742 90.5156V85.8271Z" fill="white"/>
<path d="M29.7062 83.8086L25.4744 85.8271V90.5156L29.7062 88.4971V83.8086Z" fill="white"/>
<path d="M38.1695 79.7717L33.9377 81.7902V86.4787L38.1695 84.4602V79.7717Z" fill="white"/>
<path d="M46.6332 75.7348L42.4014 77.7532V82.4418L46.6332 80.4233V75.7348Z" fill="white"/>
<path d="M59.3287 69.6794L55.0969 71.6978V76.3864L59.3287 74.3679V69.6794Z" fill="white"/>
<path d="M63.5604 67.6609L59.3286 69.6794V74.3679L63.5604 72.3495V67.6609Z" fill="white"/>
<path d="M67.7921 65.6425L63.5603 67.6609V72.3494L67.7921 70.331V65.6425Z" fill="white"/>
<path d="M76.2557 61.6056L72.0239 63.624V68.3125L76.2557 66.2941V61.6056Z" fill="white"/>
<path d="M80.4877 59.5871L76.2559 61.6056V66.2941L80.4877 64.2756V59.5871Z" fill="white"/>
<path d="M88.9513 55.5502L84.7195 57.5686V62.2572L88.9513 60.2387V55.5502Z" fill="white"/>
<path d="M97.4147 51.5132L93.1829 53.5317V58.2202L97.4147 56.2018V51.5132Z" fill="white"/>
<path d="M4.31529 100.608L0.0834961 102.626V107.315L4.31529 105.296V100.608Z" fill="white"/>
<path d="M12.7789 96.571L8.54712 98.5894V103.278L12.7789 101.26V96.571Z" fill="white"/>
<path d="M21.2425 92.5341L17.0107 94.5525V99.2411L21.2425 97.2226V92.5341Z" fill="white"/>
<path d="M33.9378 86.4787L29.7061 88.4971V93.1857L33.9378 91.1672V86.4787Z" fill="white"/>
<path d="M38.1695 84.4602L33.9377 86.4787V91.1672L38.1695 89.1487V84.4602Z" fill="white"/>
<path d="M55.0968 76.3864L50.865 78.4048V83.0933L55.0968 81.0749V76.3864Z" fill="white"/>
<path d="M72.024 68.3125L67.7922 70.331V75.0195L72.024 73.0011V68.3125Z" fill="white"/>
<path d="M76.2557 66.2941L72.0239 68.3125V73.0011L76.2557 70.9826V66.2941Z" fill="white"/>
<path d="M8.54698 103.278L4.31519 105.296V109.985L8.54698 107.967V103.278Z" fill="white"/>
<path d="M17.0106 99.2411L12.7788 101.26V105.948L17.0106 103.93V99.2411Z" fill="white"/>
<path d="M29.7062 93.1857L25.4744 95.2041V99.8927L29.7062 97.8742V93.1857Z" fill="white"/>
<path d="M33.9378 91.1672L29.7061 93.1857V97.8742L33.9378 95.8557V91.1672Z" fill="white"/>
<path d="M42.4015 87.1303L38.1697 89.1487V93.8373L42.4015 91.8188V87.1303Z" fill="white"/>
<path d="M46.6332 85.1118L42.4014 87.1303V91.8188L46.6332 89.8003V85.1118Z" fill="white"/>
<path d="M55.0968 81.0749L50.865 83.0934V87.7819L55.0968 85.7634V81.0749Z" fill="white"/>
<path d="M59.3287 79.0564L55.0969 81.0749V85.7634L59.3287 83.7449V79.0564Z" fill="white"/>
<path d="M67.7921 75.0195L63.5603 77.038V81.7265L67.7921 79.708V75.0195Z" fill="white"/>
<path d="M76.2557 70.9826L72.0239 73.0011V77.6896L76.2557 75.6711V70.9826Z" fill="white"/>
<path d="M80.4877 68.9641L76.2559 70.9826V75.6711L80.4877 73.6527V68.9641Z" fill="white"/>
<path d="M84.7193 66.9457L80.4875 68.9641V73.6527L84.7193 71.6342V66.9457Z" fill="white"/>
<path d="M88.9513 64.9272L84.7195 66.9457V71.6342L88.9513 69.6157V64.9272Z" fill="white"/>
<path d="M93.183 62.9087L88.9512 64.9272V69.6157L93.183 67.5973V62.9087Z" fill="white"/>
<path d="M101.647 58.8718L97.4148 60.8903V65.5788L101.647 63.5603V58.8718Z" fill="white"/>
<path d="M105.878 56.8534L101.646 58.8718V63.5603L105.878 61.5419V56.8534Z" fill="white"/>
<path d="M4.31529 109.985L0.0834961 112.003V116.692L4.31529 114.673V109.985Z" fill="white"/>
<path d="M12.7789 105.948L8.54712 107.966V112.655L12.7789 110.637V105.948Z" fill="white"/>
<path d="M17.0106 103.93L12.7788 105.948V110.637L17.0106 108.618V103.93Z" fill="white"/>
<path d="M38.1695 93.8373L33.9377 95.8557V100.544L38.1695 98.5258V93.8373Z" fill="white"/>
<path d="M42.4015 91.8188L38.1697 93.8372V98.5258L42.4015 96.5073V91.8188Z" fill="white"/>
<path d="M72.024 77.6896L67.7922 79.708V84.3966L72.024 82.3781V77.6896Z" fill="white"/>
<path d="M76.2557 75.6711L72.0239 77.6896V82.3781L76.2557 80.3596V75.6711Z" fill="white"/>
<path d="M80.4877 73.6526L76.2559 75.6711V80.3596L80.4877 78.3412V73.6526Z" fill="white"/>
<path d="M84.7193 71.6342L80.4875 73.6526V78.3412L84.7193 76.3227V71.6342Z" fill="white"/>
<path d="M88.9513 69.6157L84.7195 71.6342V76.3227L88.9513 74.3043V69.6157Z" fill="white"/>
<path d="M101.647 63.5603L97.4148 65.5788V70.2673L101.647 68.2488V63.5603Z" fill="white"/>
<path d="M4.31529 114.673L0.0834961 116.692V121.38L4.31529 119.362V114.673Z" fill="white"/>
<path d="M12.7789 110.637L8.54712 112.655V117.344L12.7789 115.325V110.637Z" fill="white"/>
<path d="M17.0106 108.618L12.7788 110.637V115.325L17.0106 113.307V108.618Z" fill="white"/>
<path d="M21.2425 106.6L17.0107 108.618V113.307L21.2425 111.288V106.6Z" fill="white"/>
<path d="M29.7062 102.563L25.4744 104.581V109.27L29.7062 107.251V102.563Z" fill="white"/>
<path d="M38.1695 98.5258L33.9377 100.544V105.233L38.1695 103.214V98.5258Z" fill="white"/>
<path d="M42.4015 96.5073L38.1697 98.5258V103.214L42.4015 101.196V96.5073Z" fill="white"/>
<path d="M46.6332 94.4889L42.4014 96.5073V101.196L46.6332 99.1774V94.4889Z" fill="white"/>
<path d="M50.8651 92.4704L46.6333 94.4889V99.1774L50.8651 97.1589V92.4704Z" fill="white"/>
<path d="M55.0968 90.4519L50.865 92.4704V97.1589L55.0968 95.1405V90.4519Z" fill="white"/>
<path d="M59.3287 88.4335L55.0969 90.4519V95.1405L59.3287 93.122V88.4335Z" fill="white"/>
<path d="M76.2557 80.3596L72.0239 82.3781V87.0666L76.2557 85.0482V80.3596Z" fill="white"/>
<path d="M80.4877 78.3412L76.2559 80.3596V85.0482L80.4877 83.0297V78.3412Z" fill="white"/>
<path d="M88.9513 74.3043L84.7195 76.3227V81.0113L88.9513 78.9928V74.3043Z" fill="white"/>
<path d="M97.4147 70.2673L93.1829 72.2858V76.9743L97.4147 74.9559V70.2673Z" fill="white"/>
<path d="M101.647 68.2489L97.4148 70.2673V74.9559L101.647 72.9374V68.2489Z" fill="white"/>
<path d="M105.878 66.2304L101.646 68.2489V72.9374L105.878 70.9189V66.2304Z" fill="white"/>
<path d="M4.31529 119.362L0.0834961 121.38V126.069L4.31529 124.051V119.362Z" fill="white"/>
<path d="M12.7789 115.325L8.54712 117.344V122.032L12.7789 120.014V115.325Z" fill="white"/>
<path d="M17.0106 113.307L12.7788 115.325V120.014L17.0106 117.995V113.307Z" fill="white"/>
<path d="M21.2425 111.288L17.0107 113.307V117.995L21.2425 115.977V111.288Z" fill="white"/>
<path d="M46.6332 99.1774L42.4014 101.196V105.884L46.6332 103.866V99.1774Z" fill="white"/>
<path d="M50.8651 97.1589L46.6333 99.1774V103.866L50.8651 101.847V97.1589Z" fill="white"/>
<path d="M59.3287 93.122L55.0969 95.1404V99.829L59.3287 97.8105V93.122Z" fill="white"/>
<path d="M76.2557 85.0482L72.0239 87.0666V91.7552L76.2557 89.7367V85.0482Z" fill="white"/>
<path d="M101.647 72.9374L97.4148 74.9558V79.6444L101.647 77.6259V72.9374Z" fill="white"/>
<path d="M105.878 70.9189L101.646 72.9374V77.6259L105.878 75.6075V70.9189Z" fill="white"/>
<path d="M4.31529 124.051L0.0834961 126.069V130.758L4.31529 128.739V124.051Z" fill="white"/>
<path d="M17.0106 117.995L12.7788 120.014V124.702L17.0106 122.684V117.995Z" fill="white"/>
<path d="M21.2425 115.977L17.0107 117.995V122.684L21.2425 120.665V115.977Z" fill="white"/>
<path d="M29.7062 111.94L25.4744 113.958V118.647L29.7062 116.628V111.94Z" fill="white"/>
<path d="M38.1695 107.903L33.9377 109.921V114.61L38.1695 112.591V107.903Z" fill="white"/>
<path d="M42.4015 105.884L38.1697 107.903V112.591L42.4015 110.573V105.884Z" fill="white"/>
<path d="M50.8651 101.847L46.6333 103.866V108.554L50.8651 106.536V101.847Z" fill="white"/>
<path d="M55.0968 99.829L50.865 101.847V106.536L55.0968 104.518V99.829Z" fill="white"/>
<path d="M59.3287 97.8105L55.0969 99.829V104.518L59.3287 102.499V97.8105Z" fill="white"/>
<path d="M63.5604 95.7921L59.3286 97.8105V102.499L63.5604 100.481V95.7921Z" fill="white"/>
<path d="M67.7921 93.7736L63.5603 95.7921V100.481L67.7921 98.4621V93.7736Z" fill="white"/>
<path d="M72.024 91.7552L67.7922 93.7736V98.4622L72.024 96.4437V91.7552Z" fill="white"/>
<path d="M76.2557 89.7367L72.0239 91.7551V96.4437L76.2557 94.4252V89.7367Z" fill="white"/>
<path d="M80.4877 87.7182L76.2559 89.7367V94.4252L80.4877 92.4068V87.7182Z" fill="white"/>
<path d="M84.7193 85.6998L80.4875 87.7182V92.4068L84.7193 90.3883V85.6998Z" fill="white"/>
<path d="M88.9513 83.6813L84.7195 85.6998V90.3883L88.9513 88.3698V83.6813Z" fill="white"/>
<path d="M93.183 81.6628L88.9512 83.6813V88.3698L93.183 86.3514V81.6628Z" fill="white"/>
<path d="M105.878 75.6075L101.646 77.6259V82.3144L105.878 80.296V75.6075Z" fill="white"/>
<path d="M38.1695 112.591L33.9377 114.61V119.298L38.1695 117.28V112.591Z" fill="white"/>
<path d="M42.4015 110.573L38.1697 112.591V117.28L42.4015 115.261V110.573Z" fill="white"/>
<path d="M46.6332 108.554L42.4014 110.573V115.261L46.6332 113.243V108.554Z" fill="white"/>
<path d="M55.0968 104.518L50.865 106.536V111.225L55.0968 109.206V104.518Z" fill="white"/>
<path d="M72.024 96.4437L67.7922 98.4622V103.151L72.024 101.132V96.4437Z" fill="white"/>
<path d="M88.9513 88.3698L84.7195 90.3883V95.0768L88.9513 93.0584V88.3698Z" fill="white"/>
<path d="M105.878 80.296L101.646 82.3145V87.003L105.878 84.9845V80.296Z" fill="white"/>
<path d="M38.1695 117.28L33.9377 119.298V123.987L38.1695 121.968V117.28Z" fill="white"/>
<path d="M55.0968 109.206L50.865 111.225V115.913L55.0968 113.895V109.206Z" fill="white"/>
<path d="M59.3287 107.188L55.0969 109.206V113.895L59.3287 111.876V107.188Z" fill="white"/>
<path d="M63.5604 105.169L59.3286 107.188V111.876L63.5604 109.858V105.169Z" fill="white"/>
<path d="M67.7921 103.151L63.5603 105.169V109.858L67.7921 107.839V103.151Z" fill="white"/>
<path d="M72.024 101.132L67.7922 103.151V107.839L72.024 105.821V101.132Z" fill="white"/>
<path d="M80.4877 97.0953L76.2559 99.1137V103.802L80.4877 101.784V97.0953Z" fill="white"/>
<path d="M88.9513 93.0584L84.7195 95.0768V99.7653L88.9513 97.7469V93.0584Z" fill="white"/>
<path d="M97.4147 89.0214L93.1829 91.0399V95.7284L97.4147 93.7099V89.0214Z" fill="white"/>
<path d="M101.647 87.0029L97.4148 89.0214V93.7099L101.647 91.6915V87.0029Z" fill="white"/>
<path d="M105.878 84.9845L101.646 87.003V91.6915L105.878 89.673V84.9845Z" fill="white"/>
<path d="M42.4015 119.95L38.1697 121.968V126.657L42.4015 124.638V119.95Z" fill="white"/>
<path d="M55.0968 113.895L50.865 115.913V120.602L55.0968 118.583V113.895Z" fill="white"/>
<path d="M59.3287 111.876L55.0969 113.895V118.583L59.3287 116.565V111.876Z" fill="white"/>
<path d="M72.024 105.821L67.7922 107.839V112.528L72.024 110.509V105.821Z" fill="white"/>
<path d="M88.9513 97.7469L84.7195 99.7653V104.454L88.9513 102.435V97.7469Z" fill="white"/>
<path d="M93.183 95.7284L88.9512 97.7469V102.435L93.183 100.417V95.7284Z" fill="white"/>
<path d="M38.1695 126.657L33.9377 128.675V133.364L38.1695 131.345V126.657Z" fill="white"/>
<path d="M42.4015 124.638L38.1697 126.657V131.345L42.4015 129.327V124.638Z" fill="white"/>
<path d="M46.6332 122.62L42.4014 124.638V129.327L46.6332 127.309V122.62Z" fill="white"/>
<path d="M72.024 110.509L67.7922 112.528V117.216L72.024 115.198V110.509Z" fill="white"/>
<path d="M76.2557 108.491L72.0239 110.509V115.198L76.2557 113.179V108.491Z" fill="white"/>
<path d="M80.4877 106.472L76.2559 108.491V113.179L80.4877 111.161V106.472Z" fill="white"/>
<path d="M84.7193 104.454L80.4875 106.472V111.161L84.7193 109.142V104.454Z" fill="white"/>
<path d="M88.9513 102.435L84.7195 104.454V109.142L88.9513 107.124V102.435Z" fill="white"/>
<path d="M93.183 100.417L88.9512 102.435V107.124L93.183 105.105V100.417Z" fill="white"/>
<path d="M38.1695 131.345L33.9377 133.364V138.052L38.1695 136.034V131.345Z" fill="white"/>
<path d="M42.4015 129.327L38.1697 131.345V136.034L42.4015 134.016V129.327Z" fill="white"/>
<path d="M50.8651 125.29L46.6333 127.309V131.997L50.8651 129.979V125.29Z" fill="white"/>
<path d="M63.5604 119.235L59.3286 121.253V125.942L63.5604 123.923V119.235Z" fill="white"/>
<path d="M67.7921 117.216L63.5603 119.235V123.923L67.7921 121.905V117.216Z" fill="white"/>
<path d="M72.024 115.198L67.7922 117.216V121.905L72.024 119.886V115.198Z" fill="white"/>
<path d="M88.9513 107.124L84.7195 109.142V113.831L88.9513 111.812V107.124Z" fill="white"/>
<path d="M101.647 101.069L97.4148 103.087V107.776L101.647 105.757V101.069Z" fill="white"/>
<path d="M105.878 99.0501L101.646 101.069V105.757L105.878 103.739V99.0501Z" fill="white"/>
<path d="M38.1695 136.034L33.9377 138.052V142.741L38.1695 140.723V136.034Z" fill="white"/>
<path d="M46.6332 131.997L42.4014 134.016V138.704L46.6332 136.686V131.997Z" fill="white"/>
<path d="M50.8651 129.979L46.6333 131.997V136.686L50.8651 134.667V129.979Z" fill="white"/>
<path d="M55.0968 127.96L50.865 129.979V134.667L55.0968 132.649V127.96Z" fill="white"/>
<path d="M59.3287 125.942L55.0969 127.96V132.649L59.3287 130.63V125.942Z" fill="white"/>
<path d="M63.5604 123.923L59.3286 125.942V130.63L63.5604 128.612V123.923Z" fill="white"/>
<path d="M80.4877 115.849L76.2559 117.868V122.556L80.4877 120.538V115.849Z" fill="white"/>
<path d="M88.9513 111.812L84.7195 113.831V118.519L88.9513 116.501V111.812Z" fill="white"/>
<path d="M97.4147 107.776L93.1829 109.794V114.483L97.4147 112.464V107.776Z" fill="white"/>
<path d="M105.878 103.739L101.646 105.757V110.446L105.878 108.427V103.739Z" fill="white"/>
<path d="M38.1695 140.723L33.9377 142.741V147.43L38.1695 145.411V140.723Z" fill="white"/>
<path d="M42.4015 138.704L38.1697 140.723V145.411L42.4015 143.393V138.704Z" fill="white"/>
<path d="M46.6332 136.686L42.4014 138.704V143.393L46.6332 141.374V136.686Z" fill="white"/>
<path d="M50.8651 134.667L46.6333 136.686V141.374L50.8651 139.356V134.667Z" fill="white"/>
<path d="M55.0968 132.649L50.865 134.667V139.356L55.0968 137.337V132.649Z" fill="white"/>
<path d="M59.3287 130.63L55.0969 132.649V137.337L59.3287 135.319V130.63Z" fill="white"/>
<path d="M72.024 124.575L67.7922 126.593V131.282L72.024 129.263V124.575Z" fill="white"/>
<path d="M76.2557 122.556L72.0239 124.575V129.263L76.2557 127.245V122.556Z" fill="white"/>
<path d="M80.4877 120.538L76.2559 122.556V127.245L80.4877 125.226V120.538Z" fill="white"/>
<path d="M84.7193 118.519L80.4875 120.538V125.226L84.7193 123.208V118.519Z" fill="white"/>
<path d="M88.9513 116.501L84.7195 118.519V123.208L88.9513 121.189V116.501Z" fill="white"/>
<path d="M93.183 114.482L88.9512 116.501V121.189L93.183 119.171V114.482Z" fill="white"/>
<path d="M101.647 110.446L97.4148 112.464V117.153L101.647 115.134V110.446Z" fill="white"/>
<path d="M38.1695 145.411L33.9377 147.43V152.118L38.1695 150.1V145.411Z" fill="white"/>
<path d="M59.3287 135.319L55.0969 137.337V142.026L59.3287 140.007V135.319Z" fill="white"/>
<path d="M63.5604 133.3L59.3286 135.319V140.007L63.5604 137.989V133.3Z" fill="white"/>
<path d="M67.7921 131.282L63.5603 133.3V137.989L67.7921 135.97V131.282Z" fill="white"/>
<path d="M72.024 129.263L67.7922 131.282V135.97L72.024 133.952V129.263Z" fill="white"/>
<path d="M97.4147 117.153L93.1829 119.171V123.86L97.4147 121.841V117.153Z" fill="white"/>
<path d="M101.647 115.134L97.4148 117.153V121.841L101.647 119.823V115.134Z" fill="white"/>
<path d="M105.878 113.116L101.646 115.134V119.823L105.878 117.804V113.116Z" fill="white"/>
<path d="M25.4743 38.9418L21.2425 40.9603L17.0107 42.9788L12.7789 44.9972L8.54708 47.0157L4.31529 49.0342L0.0834961 51.0526V55.7411V60.4297V65.1182V69.8067V74.4952V79.1838V83.8723L4.31529 81.8538L8.54708 79.8354L12.7789 77.8169L17.0107 75.7984L21.2425 73.78L25.4743 71.7615L29.7061 69.743V65.0545V60.366V55.6775V50.989V46.3004V41.6119V36.9234L25.4743 38.9418ZM25.4743 48.3189V53.0074V57.6959V62.3845V67.073L21.2425 69.0914L17.0107 71.1099L12.7789 73.1284L8.54708 75.1468L4.31529 77.1653V72.4768V67.7882V63.0997V58.4112V53.7227L8.54708 51.7042L12.7789 49.6858L17.0107 47.6673L21.2425 45.6488L25.4743 43.6304V48.3189Z" fill="white"/>
<path d="M17.0107 52.3558L12.7789 54.3743L8.54712 56.3928V61.0813V65.7698V70.4583L12.7789 68.4399L17.0107 66.4214L21.2425 64.4029V59.7144V55.0259V50.3374L17.0107 52.3558Z" fill="white"/>
<path d="M101.647 2.60953L97.4148 4.62799L93.183 6.64645L88.9512 8.66492L84.7195 10.6834L80.4877 12.7018L76.2559 14.7203V19.4088V24.0974V28.7859V33.4744V38.1629V42.8515V47.54L80.4877 45.5215L84.7195 43.503L88.9512 41.4846L93.183 39.4661L97.4148 37.4477L101.647 35.4292L105.878 33.4107V28.7222V24.0337V19.3452V14.6566V9.96811V5.27959V0.591065L101.647 2.60953ZM101.647 11.9866V16.6751V21.3636V26.0521V30.7407L97.4148 32.7591L93.183 34.7776L88.9512 36.7961L84.7195 38.8145L80.4877 40.833V36.1445V31.4559V26.7674V22.0789V17.3904L84.7195 15.3719L88.9512 13.3534L93.183 11.335L97.4148 9.31652L101.647 7.29805V11.9866V11.9866Z" fill="white"/>
<path d="M93.1831 16.0235L88.9513 18.042L84.7195 20.0604V24.7489V29.4375V34.126L88.9513 32.1075L93.1831 30.0891L97.4148 28.0706V23.3821V18.6936V14.005L93.1831 16.0235Z" fill="white"/>
<path d="M25.4743 123.335L21.2425 125.354L17.0107 127.372L12.7789 129.391L8.54708 131.409L4.31529 133.428L0.0834961 135.446V140.135V144.823V149.512V154.2V158.889V163.577V168.266L4.31529 166.247L8.54708 164.229L12.7789 162.21L17.0107 160.192L21.2425 158.173L25.4743 156.155L29.7061 154.136V149.448V144.759V140.071V135.382V130.694V126.005V121.317L25.4743 123.335V123.335ZM25.4743 132.712V137.401V142.089V146.778V151.466L21.2425 153.485L17.0107 155.503L12.7789 157.522L8.54708 159.54L4.31529 161.559V156.87V152.182V147.493V142.805V138.116L8.54708 136.098L12.7789 134.079L17.0107 132.061L21.2425 130.042L25.4743 128.024V132.712Z" fill="white"/>
<path d="M17.0107 136.749L12.7789 138.768L8.54712 140.786V145.475V150.163V154.852L12.7789 152.833L17.0107 150.815L21.2425 148.796V144.108V139.419V134.731L17.0107 136.749Z" fill="white"/>
</g>
<defs>
<clipPath id="clip0_1408_14143">
<rect width="294.88" height="66.3908" fill="white" transform="matrix(0.902471 -0.43075 0.299429 0.954119 0.0834961 249.494)"/>
</clipPath>
<clipPath id="clip1_1408_14143">
<rect width="294.88" height="51.4341" fill="white" transform="matrix(0.902471 -0.43075 -0.237578 0.971369 12.303 199.531)"/>
</clipPath>
<clipPath id="clip2_1408_14143">
<rect width="117.213" height="117.213" fill="white" transform="matrix(0.902585 -0.430511 0 1 0.0834961 51.0526)"/>
</clipPath>
</defs>
</svg>
