<svg width="653" height="560" viewBox="0 0 653 560" fill="none" xmlns="http://www.w3.org/2000/svg">
<path d="M60.1567 530.73C39.5423 540.48 24.3625 541.388 14.6175 533.455C4.87251 525.42 0 509.166 0 484.693V287.533L48.0692 264.797V459.816C48.0692 464.303 48.3034 468.526 48.7719 472.485C49.2404 476.342 50.318 479.198 52.0047 481.051C53.6913 482.905 56.4087 482.945 60.1567 481.172C63.9985 479.355 66.7627 476.773 68.4494 473.426C70.136 469.977 71.1667 466.074 71.5415 461.716C72.0101 457.313 72.2443 452.869 72.2443 448.382V253.363L120.313 230.628V427.788C120.313 452.261 115.441 473.125 105.696 490.378C95.9509 507.529 80.7712 520.98 60.1567 530.73Z" fill="#1E72FD"/>
<path d="M132.12 494.247L158.684 338.975L137.602 222.299L185.952 199.431L198.742 285.92L210.127 187.997L258.618 165.062L237.535 301.681L263.959 431.891L213.922 455.557L198.32 357.702L182.297 470.514L132.12 494.247Z" fill="#1E72FD"/>
<path d="M278.717 424.911V155.709L327.629 132.575V240.409L350.68 121.673L400.436 98.1399L372.747 234.518L406.199 364.617L354.897 388.881L327.91 271.326V401.644L278.717 424.911Z" fill="#1E72FD"/>
<path d="M414.772 360.562V91.3592L490.109 55.7276L510.911 210.011L531.572 36.1169L607.611 0.152935V269.355L562.353 290.761V96.8128L533.961 304.189L489.547 325.196L459.468 145.474V339.422L414.772 360.562Z" fill="#1E72FD"/>
<g clip-path="url(#clip0_303_1927)">
<path d="M105.545 528.888C84.9308 538.638 67.7902 539.626 54.1234 531.852C40.4248 523.977 29.7493 507.959 22.0971 483.797L-39.5513 289.14L8.51787 266.405L69.4966 458.947C70.8996 463.377 72.4889 467.545 74.2647 471.451C76.0086 475.256 78.1383 478.069 80.6539 479.889C83.1696 481.709 86.3014 481.732 90.0495 479.96C93.8913 478.143 96.2569 475.577 97.1465 472.262C98.0041 468.847 97.9667 464.987 97.0343 460.682C96.1955 456.332 95.0747 451.943 93.6718 447.513L32.693 254.971L80.7622 232.236L142.411 426.892C150.063 451.054 150.993 471.682 145.202 488.775C139.379 505.767 126.16 519.138 105.545 528.888Z" fill="white"/>
<path d="M176.743 492.436L158.686 338.976L98.0024 223.908L146.353 201.04L188.078 286.354L170.528 189.606L219.019 166.672L237.536 301.682L308.582 430.08L258.545 453.746L210.039 357.228L226.921 468.703L176.743 492.436Z" fill="white"/>
<path d="M323.34 423.1L239.166 157.316L288.078 134.182L321.796 240.647L311.129 123.28L360.885 99.7474L371.744 234.56L450.822 362.806L399.52 387.07L331.786 271.17L372.534 399.833L323.34 423.1Z" fill="white"/>
<path d="M459.396 358.751L375.221 92.9668L450.557 57.3352L522.677 209.534L492.021 37.7245L568.06 1.76046L652.234 267.544L606.976 288.95L546.332 97.4647L578.585 302.378L534.17 323.385L443.447 146.126L504.091 337.611L459.396 358.751Z" fill="white"/>
</g>
<g clip-path="url(#clip1_303_1927)">
<path d="M28.1831 515.109C7.56867 524.859 -6.22963 526.442 -13.2118 519.857C-20.1715 513.181 -20.9558 498.923 -15.5648 477.081L27.8662 301.12L75.9354 278.385L32.9761 452.435C31.9877 456.439 31.2673 460.196 30.8149 463.706C30.3849 467.125 30.7212 469.618 31.8238 471.187C32.9264 472.755 35.3518 472.653 39.0999 470.88C42.9416 469.063 45.9866 466.618 48.2348 463.545C50.5055 460.381 52.2887 456.845 53.5845 452.937C54.9739 448.984 56.1628 445.005 57.1512 441.001L100.111 266.951L148.18 244.215L104.749 420.177C99.3577 442.019 90.397 460.886 77.8667 476.78C65.3588 492.583 48.7976 505.36 28.1831 515.109Z" fill="#E1E1E1"/>
<path d="M100.685 478.889L158.686 338.961L165.501 235.902L213.852 213.034L206.257 289.573L238.027 201.6L286.518 178.666L237.536 301.668L232.524 416.534L182.487 440.2L190.067 353.66L150.863 455.157L100.685 478.889Z" fill="#E1E1E1"/>
<path d="M247.282 409.554L306.583 169.296L355.496 146.162L331.742 242.402L378.546 135.26L428.302 111.727L373.456 234.85L374.764 349.259L323.462 373.523L325.183 269.98L296.476 386.287L247.282 409.554Z" fill="#E1E1E1"/>
<path d="M383.338 345.204L442.638 104.946L517.975 69.3147L502.624 205.951L559.438 49.704L635.477 13.74L576.177 253.998L530.919 275.403L573.642 102.309L502.527 288.832L458.112 309.838L470.757 150.97L428.034 324.064L383.338 345.204Z" fill="#E1E1E1"/>
</g>
<defs>
<clipPath id="clip0_303_1927">
<rect width="672.145" height="150.332" fill="white" transform="matrix(0.903989 -0.427556 0.301924 0.953332 0 414.024)"/>
</clipPath>
<clipPath id="clip1_303_1927">
<rect width="672.145" height="116.429" fill="white" transform="matrix(0.903989 -0.427556 -0.23963 0.970864 27.8999 300.983)"/>
</clipPath>
</defs>
</svg>
