<svg width="511" height="90" viewBox="0 0 511 90" fill="none" xmlns="http://www.w3.org/2000/svg">
<g clip-path="url(#clip0_1341_14168)">
<path d="M109.348 85.6985C115.448 87.3701 121.616 88.2155 127.75 88.2155C133.884 88.2155 140.018 87.3893 146.152 85.6985C151.772 84.1416 157.164 81.9254 162.55 79.7114L162.943 79.55C168.083 77.4365 173.223 75.323 178.089 73.978C182.613 72.7291 187.136 72.1143 191.625 72.1143C196.114 72.1143 200.637 72.7291 205.161 73.978C210.027 75.323 215.167 77.4365 220.307 79.55C225.824 81.8365 231.341 84.1038 237.098 85.6985C243.198 87.3701 249.366 88.2155 255.5 88.2155C261.634 88.2155 267.768 87.3893 273.902 85.6985C279.522 84.1416 284.914 81.9254 290.3 79.7114L290.693 79.55C295.833 77.4365 300.973 75.323 305.839 73.978C310.363 72.7291 314.886 72.1143 319.375 72.1143C323.864 72.1143 328.387 72.7291 332.911 73.978C337.777 75.323 342.917 77.4365 348.057 79.55C353.574 81.8365 359.091 84.1038 364.848 85.6985C370.948 87.3701 377.116 88.2155 383.25 88.2155C389.384 88.2155 395.518 87.3893 401.652 85.6985C407.272 84.1416 412.664 81.9254 418.05 79.7114L418.443 79.55C423.583 77.4365 428.723 75.323 433.589 73.978C438.113 72.7291 442.636 72.1143 447.125 72.1143C451.614 72.1143 456.137 72.7291 460.661 73.978C465.527 75.323 470.667 77.4365 475.807 79.55C481.324 81.8365 486.841 84.1038 492.598 85.6985C498.698 87.3701 504.866 88.2155 511 88.2155V38.0977H0V88.2155C6.13392 88.2155 12.2678 87.3893 18.4018 85.6985C24.1587 84.1038 29.6758 81.8173 35.1929 79.55C40.3331 77.4365 45.4732 75.323 50.3393 73.978C54.8626 72.7291 59.3859 72.1143 63.875 72.1143C68.3641 72.1143 72.8874 72.7291 77.4108 73.978C82.2768 75.323 87.4169 77.4365 92.5571 79.55C98.0742 81.8365 103.591 84.1038 109.348 85.6985Z" fill="white"/>
<path d="M0 45.9693V17.9999C4.48907 17.9999 9.01241 17.3894 13.5357 16.1493C18.4018 14.8138 23.5419 12.7152 28.6821 10.6166C34.1992 8.3653 39.7163 6.09496 45.4732 4.53053C51.6072 2.85162 57.7411 2.03125 63.875 2.03125C70.0089 2.03125 76.1771 2.8707 82.2768 4.53053C88.0337 6.11404 93.5508 8.3653 99.0679 10.6166C104.208 12.7152 109.348 14.8138 114.214 16.1493C118.738 17.3894 123.261 17.9999 127.75 17.9999C132.239 17.9999 136.762 17.3894 141.286 16.1493C146.152 14.8138 151.292 12.7152 156.432 10.6166C161.949 8.3653 167.466 6.09496 173.223 4.53053C179.357 2.85162 185.491 2.03125 191.625 2.03125C197.759 2.03125 203.893 2.8707 210.027 4.53053C215.784 6.11404 221.301 8.3653 226.818 10.6166C231.958 12.7152 237.098 14.8138 241.964 16.1493C246.488 17.3894 251.011 17.9999 255.5 17.9999C259.989 17.9999 264.512 17.3894 269.036 16.1493C273.902 14.8138 279.042 12.7152 284.182 10.6166C289.699 8.3653 295.216 6.09496 300.973 4.53053C307.107 2.85162 313.241 2.03125 319.375 2.03125C325.509 2.03125 331.643 2.8707 337.777 4.53053C343.534 6.11404 349.051 8.3653 354.568 10.6166C359.708 12.7152 364.848 14.8138 369.714 16.1493C374.238 17.3894 378.761 17.9999 383.25 17.9999C387.739 17.9999 392.262 17.3894 396.786 16.1493C401.652 14.8138 406.792 12.7152 411.932 10.6166C417.449 8.3653 422.966 6.09496 428.723 4.53053C434.857 2.85162 440.991 2.03125 447.125 2.03125C453.259 2.03125 459.427 2.8707 465.527 4.53053C471.284 6.11404 476.801 8.3653 482.318 10.6166C487.458 12.7152 492.598 14.8138 497.464 16.1493C501.988 17.3894 506.511 17.9999 511 17.9999V45.9693C340.667 45.9693 170.333 45.9693 0 45.9693Z" fill="white"/>
<mask id="path-3-outside-1_1341_14168" maskUnits="userSpaceOnUse" x="-1" y="0.232422" width="513" height="19" fill="black">
<rect fill="white" x="-1" y="0.232422" width="513" height="19"/>
<path fill-rule="evenodd" clip-rule="evenodd" d="M511 17.243C506.742 17.243 502.425 16.6632 498.071 15.4664C493.335 14.1632 488.298 12.1041 483.129 9.98841L483.075 9.96628L483.075 9.9661C477.596 7.72461 471.999 5.4347 466.135 3.8175L466.132 3.81678L466.129 3.81606C459.863 2.1064 453.49 1.23242 447.125 1.23242C440.764 1.23242 434.425 2.08621 428.121 3.81588C422.386 5.37858 416.905 7.62157 411.55 9.81264L411.55 9.81281L411.121 9.98841L411.121 9.98854C405.952 12.1041 400.915 14.1632 396.179 15.4664C391.825 16.6632 387.508 17.243 383.25 17.243C378.992 17.243 374.675 16.6632 370.321 15.4664C365.585 14.1632 360.548 12.1041 355.38 9.98854L355.379 9.98841L355.325 9.96616L355.324 9.96591L355.324 9.96561C349.845 7.72428 344.248 5.43458 338.385 3.8175L338.381 3.8164L338.377 3.81532C332.079 2.1068 325.741 1.23242 319.375 1.23242C313.013 1.23242 306.673 2.08653 300.368 3.81684C294.633 5.37959 289.153 7.62229 283.799 9.81304L283.371 9.98841L283.371 9.98854C278.203 12.104 273.166 14.163 268.429 15.4663C264.075 16.6632 259.758 17.243 255.5 17.243C251.242 17.243 246.925 16.6632 242.571 15.4663C237.834 14.163 232.797 12.104 227.629 9.98854L227.629 9.98841L227.575 9.96622C222.096 7.72469 216.499 5.43473 210.635 3.8175L210.631 3.8164L210.627 3.81532C204.329 2.1068 197.991 1.23242 191.625 1.23242C185.264 1.23242 178.924 2.08632 172.62 3.81624C166.885 5.37898 161.404 7.6219 156.05 9.81288L155.621 9.98841L155.621 9.98854C150.453 12.104 145.416 14.163 140.679 15.4663C136.325 16.6632 132.008 17.243 127.75 17.243C123.492 17.243 119.175 16.6632 114.821 15.4664C110.085 14.1632 105.048 12.1041 99.8795 9.98854L99.8792 9.98841L99.8249 9.96621C94.3461 7.72468 88.7488 5.43473 82.8847 3.8175L82.882 3.81678L82.8794 3.81606C76.613 2.1064 70.2399 1.23242 63.875 1.23242C57.5136 1.23242 51.1744 2.08633 44.8699 3.81625C39.1346 5.37899 33.6537 7.62192 28.2997 9.8129L27.8708 9.98841L27.8705 9.98854C22.7024 12.1041 17.6652 14.1632 12.9289 15.4664C8.5749 16.6632 4.25797 17.243 0 17.243V18.0088C4.48907 18.0088 9.01241 17.3966 13.5357 16.1533C18.4018 14.8143 23.5419 12.7102 28.6821 10.606L29.0659 10.449C34.4551 8.24371 39.8498 6.03621 45.4732 4.50406C51.6072 2.82075 57.7411 1.99823 63.875 1.99823C70.0089 1.99823 76.1771 2.83988 82.2768 4.50406C88.0337 6.09172 93.5508 8.34888 99.0679 10.606L99.0681 10.6061C104.208 12.7102 109.348 14.8143 114.214 16.1533C118.738 17.3966 123.261 18.0088 127.75 18.0088C132.239 18.0088 136.762 17.3966 141.286 16.1533C146.152 14.8143 151.292 12.7102 156.432 10.606L156.816 10.449C162.205 8.24367 167.6 6.03621 173.223 4.50406C179.357 2.82075 185.491 1.99823 191.625 1.99823C197.759 1.99823 203.893 2.83988 210.027 4.50406C215.784 6.09169 221.301 8.3488 226.818 10.6059L226.818 10.606L226.818 10.606C231.958 12.7103 237.098 14.8143 241.964 16.1533C246.488 17.3966 251.011 18.0088 255.5 18.0088C259.989 18.0088 264.512 17.3966 269.036 16.1533C273.902 14.8143 279.042 12.7102 284.182 10.606L284.566 10.4491C289.955 8.24377 295.35 6.03625 300.973 4.50406C307.107 2.82075 313.241 1.99823 319.375 1.99823C325.509 1.99823 331.643 2.83988 337.777 4.50406C343.534 6.09172 349.051 8.34888 354.568 10.606C359.708 12.7103 364.848 14.8143 369.714 16.1533C374.238 17.3966 378.761 18.0088 383.25 18.0088C387.739 18.0088 392.262 17.3966 396.786 16.1533C401.652 14.8143 406.792 12.7102 411.932 10.606L412.316 10.4489L412.316 10.4488C417.706 8.24354 423.1 6.03617 428.723 4.50406C434.857 2.82075 440.991 1.99823 447.125 1.99823C453.259 1.99823 459.427 2.83988 465.527 4.50406C471.284 6.09172 476.801 8.34888 482.318 10.606L482.318 10.6062C487.458 12.7103 492.598 14.8143 497.464 16.1533C501.988 17.3966 506.511 18.0088 511 18.0088V17.243Z"/>
</mask>
<path fill-rule="evenodd" clip-rule="evenodd" d="M511 17.243C506.742 17.243 502.425 16.6632 498.071 15.4664C493.335 14.1632 488.298 12.1041 483.129 9.98841L483.075 9.96628L483.075 9.9661C477.596 7.72461 471.999 5.4347 466.135 3.8175L466.132 3.81678L466.129 3.81606C459.863 2.1064 453.49 1.23242 447.125 1.23242C440.764 1.23242 434.425 2.08621 428.121 3.81588C422.386 5.37858 416.905 7.62157 411.55 9.81264L411.55 9.81281L411.121 9.98841L411.121 9.98854C405.952 12.1041 400.915 14.1632 396.179 15.4664C391.825 16.6632 387.508 17.243 383.25 17.243C378.992 17.243 374.675 16.6632 370.321 15.4664C365.585 14.1632 360.548 12.1041 355.38 9.98854L355.379 9.98841L355.325 9.96616L355.324 9.96591L355.324 9.96561C349.845 7.72428 344.248 5.43458 338.385 3.8175L338.381 3.8164L338.377 3.81532C332.079 2.1068 325.741 1.23242 319.375 1.23242C313.013 1.23242 306.673 2.08653 300.368 3.81684C294.633 5.37959 289.153 7.62229 283.799 9.81304L283.371 9.98841L283.371 9.98854C278.203 12.104 273.166 14.163 268.429 15.4663C264.075 16.6632 259.758 17.243 255.5 17.243C251.242 17.243 246.925 16.6632 242.571 15.4663C237.834 14.163 232.797 12.104 227.629 9.98854L227.629 9.98841L227.575 9.96622C222.096 7.72469 216.499 5.43473 210.635 3.8175L210.631 3.8164L210.627 3.81532C204.329 2.1068 197.991 1.23242 191.625 1.23242C185.264 1.23242 178.924 2.08632 172.62 3.81624C166.885 5.37898 161.404 7.6219 156.05 9.81288L155.621 9.98841L155.621 9.98854C150.453 12.104 145.416 14.163 140.679 15.4663C136.325 16.6632 132.008 17.243 127.75 17.243C123.492 17.243 119.175 16.6632 114.821 15.4664C110.085 14.1632 105.048 12.1041 99.8795 9.98854L99.8792 9.98841L99.8249 9.96621C94.3461 7.72468 88.7488 5.43473 82.8847 3.8175L82.882 3.81678L82.8794 3.81606C76.613 2.1064 70.2399 1.23242 63.875 1.23242C57.5136 1.23242 51.1744 2.08633 44.8699 3.81625C39.1346 5.37899 33.6537 7.62192 28.2997 9.8129L27.8708 9.98841L27.8705 9.98854C22.7024 12.1041 17.6652 14.1632 12.9289 15.4664C8.5749 16.6632 4.25797 17.243 0 17.243V18.0088C4.48907 18.0088 9.01241 17.3966 13.5357 16.1533C18.4018 14.8143 23.5419 12.7102 28.6821 10.606L29.0659 10.449C34.4551 8.24371 39.8498 6.03621 45.4732 4.50406C51.6072 2.82075 57.7411 1.99823 63.875 1.99823C70.0089 1.99823 76.1771 2.83988 82.2768 4.50406C88.0337 6.09172 93.5508 8.34888 99.0679 10.606L99.0681 10.6061C104.208 12.7102 109.348 14.8143 114.214 16.1533C118.738 17.3966 123.261 18.0088 127.75 18.0088C132.239 18.0088 136.762 17.3966 141.286 16.1533C146.152 14.8143 151.292 12.7102 156.432 10.606L156.816 10.449C162.205 8.24367 167.6 6.03621 173.223 4.50406C179.357 2.82075 185.491 1.99823 191.625 1.99823C197.759 1.99823 203.893 2.83988 210.027 4.50406C215.784 6.09169 221.301 8.3488 226.818 10.6059L226.818 10.606L226.818 10.606C231.958 12.7103 237.098 14.8143 241.964 16.1533C246.488 17.3966 251.011 18.0088 255.5 18.0088C259.989 18.0088 264.512 17.3966 269.036 16.1533C273.902 14.8143 279.042 12.7102 284.182 10.606L284.566 10.4491C289.955 8.24377 295.35 6.03625 300.973 4.50406C307.107 2.82075 313.241 1.99823 319.375 1.99823C325.509 1.99823 331.643 2.83988 337.777 4.50406C343.534 6.09172 349.051 8.34888 354.568 10.606C359.708 12.7103 364.848 14.8143 369.714 16.1533C374.238 17.3966 378.761 18.0088 383.25 18.0088C387.739 18.0088 392.262 17.3966 396.786 16.1533C401.652 14.8143 406.792 12.7102 411.932 10.606L412.316 10.4489L412.316 10.4488C417.706 8.24354 423.1 6.03617 428.723 4.50406C434.857 2.82075 440.991 1.99823 447.125 1.99823C453.259 1.99823 459.427 2.83988 465.527 4.50406C471.284 6.09172 476.801 8.34888 482.318 10.606L482.318 10.6062C487.458 12.7103 492.598 14.8143 497.464 16.1533C501.988 17.3966 506.511 18.0088 511 18.0088V17.243Z" fill="black"/>
<path fill-rule="evenodd" clip-rule="evenodd" d="M511 17.243C506.742 17.243 502.425 16.6632 498.071 15.4664C493.335 14.1632 488.298 12.1041 483.129 9.98841L483.075 9.96628L483.075 9.9661C477.596 7.72461 471.999 5.4347 466.135 3.8175L466.132 3.81678L466.129 3.81606C459.863 2.1064 453.49 1.23242 447.125 1.23242C440.764 1.23242 434.425 2.08621 428.121 3.81588C422.386 5.37858 416.905 7.62157 411.55 9.81264L411.55 9.81281L411.121 9.98841L411.121 9.98854C405.952 12.1041 400.915 14.1632 396.179 15.4664C391.825 16.6632 387.508 17.243 383.25 17.243C378.992 17.243 374.675 16.6632 370.321 15.4664C365.585 14.1632 360.548 12.1041 355.38 9.98854L355.379 9.98841L355.325 9.96616L355.324 9.96591L355.324 9.96561C349.845 7.72428 344.248 5.43458 338.385 3.8175L338.381 3.8164L338.377 3.81532C332.079 2.1068 325.741 1.23242 319.375 1.23242C313.013 1.23242 306.673 2.08653 300.368 3.81684C294.633 5.37959 289.153 7.62229 283.799 9.81304L283.371 9.98841L283.371 9.98854C278.203 12.104 273.166 14.163 268.429 15.4663C264.075 16.6632 259.758 17.243 255.5 17.243C251.242 17.243 246.925 16.6632 242.571 15.4663C237.834 14.163 232.797 12.104 227.629 9.98854L227.629 9.98841L227.575 9.96622C222.096 7.72469 216.499 5.43473 210.635 3.8175L210.631 3.8164L210.627 3.81532C204.329 2.1068 197.991 1.23242 191.625 1.23242C185.264 1.23242 178.924 2.08632 172.62 3.81624C166.885 5.37898 161.404 7.6219 156.05 9.81288L155.621 9.98841L155.621 9.98854C150.453 12.104 145.416 14.163 140.679 15.4663C136.325 16.6632 132.008 17.243 127.75 17.243C123.492 17.243 119.175 16.6632 114.821 15.4664C110.085 14.1632 105.048 12.1041 99.8795 9.98854L99.8792 9.98841L99.8249 9.96621C94.3461 7.72468 88.7488 5.43473 82.8847 3.8175L82.882 3.81678L82.8794 3.81606C76.613 2.1064 70.2399 1.23242 63.875 1.23242C57.5136 1.23242 51.1744 2.08633 44.8699 3.81625C39.1346 5.37899 33.6537 7.62192 28.2997 9.8129L27.8708 9.98841L27.8705 9.98854C22.7024 12.1041 17.6652 14.1632 12.9289 15.4664C8.5749 16.6632 4.25797 17.243 0 17.243V18.0088C4.48907 18.0088 9.01241 17.3966 13.5357 16.1533C18.4018 14.8143 23.5419 12.7102 28.6821 10.606L29.0659 10.449C34.4551 8.24371 39.8498 6.03621 45.4732 4.50406C51.6072 2.82075 57.7411 1.99823 63.875 1.99823C70.0089 1.99823 76.1771 2.83988 82.2768 4.50406C88.0337 6.09172 93.5508 8.34888 99.0679 10.606L99.0681 10.6061C104.208 12.7102 109.348 14.8143 114.214 16.1533C118.738 17.3966 123.261 18.0088 127.75 18.0088C132.239 18.0088 136.762 17.3966 141.286 16.1533C146.152 14.8143 151.292 12.7102 156.432 10.606L156.816 10.449C162.205 8.24367 167.6 6.03621 173.223 4.50406C179.357 2.82075 185.491 1.99823 191.625 1.99823C197.759 1.99823 203.893 2.83988 210.027 4.50406C215.784 6.09169 221.301 8.3488 226.818 10.6059L226.818 10.606L226.818 10.606C231.958 12.7103 237.098 14.8143 241.964 16.1533C246.488 17.3966 251.011 18.0088 255.5 18.0088C259.989 18.0088 264.512 17.3966 269.036 16.1533C273.902 14.8143 279.042 12.7102 284.182 10.606L284.566 10.4491C289.955 8.24377 295.35 6.03625 300.973 4.50406C307.107 2.82075 313.241 1.99823 319.375 1.99823C325.509 1.99823 331.643 2.83988 337.777 4.50406C343.534 6.09172 349.051 8.34888 354.568 10.606C359.708 12.7103 364.848 14.8143 369.714 16.1533C374.238 17.3966 378.761 18.0088 383.25 18.0088C387.739 18.0088 392.262 17.3966 396.786 16.1533C401.652 14.8143 406.792 12.7102 411.932 10.606L412.316 10.4489L412.316 10.4488C417.706 8.24354 423.1 6.03617 428.723 4.50406C434.857 2.82075 440.991 1.99823 447.125 1.99823C453.259 1.99823 459.427 2.83988 465.527 4.50406C471.284 6.09172 476.801 8.34888 482.318 10.606L482.318 10.6062C487.458 12.7103 492.598 14.8143 497.464 16.1533C501.988 17.3966 506.511 18.0088 511 18.0088V17.243Z" stroke="black" stroke-width="0.6" mask="url(#path-3-outside-1_1341_14168)"/>
<mask id="path-4-outside-2_1341_14168" maskUnits="userSpaceOnUse" x="-1" y="70.4395" width="513" height="19" fill="black">
<rect fill="white" x="-1" y="70.4395" width="513" height="19"/>
<path fill-rule="evenodd" clip-rule="evenodd" d="M108.743 85.7144L108.74 85.7137C102.856 84.0837 97.243 81.7741 91.7434 79.4949C86.576 77.3701 81.5396 75.3022 76.8039 73.9932C72.4499 72.7911 68.133 72.2087 63.875 72.2087C59.617 72.2087 55.3001 72.7911 50.9461 73.9932C46.2098 75.3023 41.1726 77.3706 36.0045 79.4957C35.8696 79.5512 35.7343 79.6068 35.5993 79.6623L35.5678 79.6752C30.2152 81.8755 24.739 84.1266 19.0096 85.7137L19.0084 85.714L19.0072 85.7144C12.702 87.4525 6.36214 88.3104 0 88.3104V87.5412C0.457393 87.5412 0.914787 87.5366 1.37218 87.5274C7.04871 87.4131 12.7252 86.5888 18.4018 85.0241C24.0221 83.4671 29.4137 81.2509 34.8 79.0369L35.193 78.8754C40.3331 76.7618 45.4733 74.6483 50.3393 73.3033C54.8626 72.0543 59.3859 71.4395 63.875 71.4395C68.3641 71.4395 72.8874 72.0543 77.4108 73.3033C82.2767 74.6482 87.4168 76.7618 92.557 78.8754C98.0741 81.1619 103.591 83.4293 109.348 85.0241C115.448 86.6957 121.616 87.5412 127.75 87.5412C133.884 87.5412 140.018 86.7149 146.152 85.0241C151.772 83.4671 157.164 81.2509 162.55 79.0369L162.943 78.8754C168.083 76.7619 173.223 74.6483 178.089 73.3033C182.613 72.0543 187.136 71.4395 191.625 71.4395C196.114 71.4395 200.637 72.0543 205.161 73.3033C210.027 74.6483 215.167 76.7619 220.307 78.8754C225.824 81.162 231.341 83.4293 237.098 85.0241C243.198 86.6957 249.366 87.5412 255.5 87.5412C261.634 87.5412 267.768 86.7149 273.902 85.0241C279.522 83.4671 284.914 81.2509 290.3 79.037L290.693 78.8754C295.833 76.7619 300.973 74.6483 305.839 73.3033C310.363 72.0543 314.886 71.4395 319.375 71.4395C323.864 71.4395 328.387 72.0543 332.911 73.3033C337.777 74.6482 342.917 76.7618 348.057 78.8754C353.574 81.162 359.091 83.4293 364.848 85.0241C370.948 86.6957 377.116 87.5412 383.25 87.5412C389.384 87.5412 395.518 86.7149 401.652 85.0241C407.272 83.4671 412.664 81.251 418.05 79.037L418.443 78.8754C423.583 76.7619 428.723 74.6483 433.589 73.3033C438.113 72.0543 442.636 71.4395 447.125 71.4395C451.614 71.4395 456.137 72.0543 460.661 73.3033C465.527 74.6483 470.667 76.7619 475.807 78.8754C481.324 81.162 486.841 83.4293 492.598 85.0241C498.243 86.5711 503.947 87.4105 509.628 87.5271C510.085 87.5365 510.543 87.5412 511 87.5412V88.3104C504.635 88.3104 498.262 87.4325 491.996 85.7151L491.993 85.7144L491.99 85.7137C486.106 84.0837 480.493 81.7741 474.993 79.4949C469.826 77.3701 464.79 75.3022 460.054 73.9932C455.7 72.7911 451.383 72.2087 447.125 72.2087C442.867 72.2087 438.55 72.7911 434.196 73.9933C429.459 75.3025 424.422 77.3707 419.255 79.4957L418.818 79.6752C413.465 81.8755 407.989 84.1265 402.26 85.7137L402.258 85.714L402.257 85.7144C395.952 87.4525 389.612 88.3104 383.25 88.3104C376.885 88.3104 370.512 87.4325 364.246 85.7151L364.243 85.7144L364.24 85.7137C358.356 84.0837 352.743 81.7741 347.243 79.4949C342.076 77.3702 337.04 75.3023 332.304 73.9933C327.95 72.7911 323.633 72.2087 319.375 72.2087C315.117 72.2087 310.8 72.7911 306.446 73.9932C301.71 75.3023 296.673 77.3706 291.504 79.4957L291.068 79.6751C285.715 81.8754 280.239 84.1265 274.51 85.7137L274.508 85.714L274.507 85.7144C268.202 87.4525 261.862 88.3104 255.5 88.3104C249.135 88.3104 242.762 87.4325 236.496 85.7151L236.493 85.7144L236.49 85.7137C230.606 84.0837 224.993 81.7741 219.493 79.4949C214.326 77.3701 209.29 75.3022 204.554 73.9932C200.2 72.7911 195.883 72.2087 191.625 72.2087C187.367 72.2087 183.05 72.7911 178.696 73.9932C173.96 75.3023 168.923 77.3706 163.754 79.4957L163.318 79.6752C157.965 81.8755 152.489 84.1265 146.76 85.7137L146.758 85.714L146.757 85.7144C140.452 87.4525 134.112 88.3104 127.75 88.3104C121.385 88.3104 115.012 87.4325 108.746 85.7151L108.743 85.7144Z"/>
</mask>
<path fill-rule="evenodd" clip-rule="evenodd" d="M108.743 85.7144L108.74 85.7137C102.856 84.0837 97.243 81.7741 91.7434 79.4949C86.576 77.3701 81.5396 75.3022 76.8039 73.9932C72.4499 72.7911 68.133 72.2087 63.875 72.2087C59.617 72.2087 55.3001 72.7911 50.9461 73.9932C46.2098 75.3023 41.1726 77.3706 36.0045 79.4957C35.8696 79.5512 35.7343 79.6068 35.5993 79.6623L35.5678 79.6752C30.2152 81.8755 24.739 84.1266 19.0096 85.7137L19.0084 85.714L19.0072 85.7144C12.702 87.4525 6.36214 88.3104 0 88.3104V87.5412C0.457393 87.5412 0.914787 87.5366 1.37218 87.5274C7.04871 87.4131 12.7252 86.5888 18.4018 85.0241C24.0221 83.4671 29.4137 81.2509 34.8 79.0369L35.193 78.8754C40.3331 76.7618 45.4733 74.6483 50.3393 73.3033C54.8626 72.0543 59.3859 71.4395 63.875 71.4395C68.3641 71.4395 72.8874 72.0543 77.4108 73.3033C82.2767 74.6482 87.4168 76.7618 92.557 78.8754C98.0741 81.1619 103.591 83.4293 109.348 85.0241C115.448 86.6957 121.616 87.5412 127.75 87.5412C133.884 87.5412 140.018 86.7149 146.152 85.0241C151.772 83.4671 157.164 81.2509 162.55 79.0369L162.943 78.8754C168.083 76.7619 173.223 74.6483 178.089 73.3033C182.613 72.0543 187.136 71.4395 191.625 71.4395C196.114 71.4395 200.637 72.0543 205.161 73.3033C210.027 74.6483 215.167 76.7619 220.307 78.8754C225.824 81.162 231.341 83.4293 237.098 85.0241C243.198 86.6957 249.366 87.5412 255.5 87.5412C261.634 87.5412 267.768 86.7149 273.902 85.0241C279.522 83.4671 284.914 81.2509 290.3 79.037L290.693 78.8754C295.833 76.7619 300.973 74.6483 305.839 73.3033C310.363 72.0543 314.886 71.4395 319.375 71.4395C323.864 71.4395 328.387 72.0543 332.911 73.3033C337.777 74.6482 342.917 76.7618 348.057 78.8754C353.574 81.162 359.091 83.4293 364.848 85.0241C370.948 86.6957 377.116 87.5412 383.25 87.5412C389.384 87.5412 395.518 86.7149 401.652 85.0241C407.272 83.4671 412.664 81.251 418.05 79.037L418.443 78.8754C423.583 76.7619 428.723 74.6483 433.589 73.3033C438.113 72.0543 442.636 71.4395 447.125 71.4395C451.614 71.4395 456.137 72.0543 460.661 73.3033C465.527 74.6483 470.667 76.7619 475.807 78.8754C481.324 81.162 486.841 83.4293 492.598 85.0241C498.243 86.5711 503.947 87.4105 509.628 87.5271C510.085 87.5365 510.543 87.5412 511 87.5412V88.3104C504.635 88.3104 498.262 87.4325 491.996 85.7151L491.993 85.7144L491.99 85.7137C486.106 84.0837 480.493 81.7741 474.993 79.4949C469.826 77.3701 464.79 75.3022 460.054 73.9932C455.7 72.7911 451.383 72.2087 447.125 72.2087C442.867 72.2087 438.55 72.7911 434.196 73.9933C429.459 75.3025 424.422 77.3707 419.255 79.4957L418.818 79.6752C413.465 81.8755 407.989 84.1265 402.26 85.7137L402.258 85.714L402.257 85.7144C395.952 87.4525 389.612 88.3104 383.25 88.3104C376.885 88.3104 370.512 87.4325 364.246 85.7151L364.243 85.7144L364.24 85.7137C358.356 84.0837 352.743 81.7741 347.243 79.4949C342.076 77.3702 337.04 75.3023 332.304 73.9933C327.95 72.7911 323.633 72.2087 319.375 72.2087C315.117 72.2087 310.8 72.7911 306.446 73.9932C301.71 75.3023 296.673 77.3706 291.504 79.4957L291.068 79.6751C285.715 81.8754 280.239 84.1265 274.51 85.7137L274.508 85.714L274.507 85.7144C268.202 87.4525 261.862 88.3104 255.5 88.3104C249.135 88.3104 242.762 87.4325 236.496 85.7151L236.493 85.7144L236.49 85.7137C230.606 84.0837 224.993 81.7741 219.493 79.4949C214.326 77.3701 209.29 75.3022 204.554 73.9932C200.2 72.7911 195.883 72.2087 191.625 72.2087C187.367 72.2087 183.05 72.7911 178.696 73.9932C173.96 75.3023 168.923 77.3706 163.754 79.4957L163.318 79.6752C157.965 81.8755 152.489 84.1265 146.76 85.7137L146.758 85.714L146.757 85.7144C140.452 87.4525 134.112 88.3104 127.75 88.3104C121.385 88.3104 115.012 87.4325 108.746 85.7151L108.743 85.7144Z" fill="black"/>
<path d="M108.74 85.7137L108.66 86.0028L108.66 86.0029L108.74 85.7137ZM108.743 85.7144L108.663 86.0036L108.663 86.0036L108.743 85.7144ZM91.7434 79.4949L91.8583 79.2177L91.8575 79.2174L91.7434 79.4949ZM76.8039 73.9932L76.8839 73.704L76.8838 73.704L76.8039 73.9932ZM50.9461 73.9932L50.8662 73.704L50.8661 73.704L50.9461 73.9932ZM36.0045 79.4957L36.1185 79.7732L36.1186 79.7732L36.0045 79.4957ZM35.5993 79.6623L35.7133 79.9398L35.7133 79.9397L35.5993 79.6623ZM35.5678 79.6752L35.4538 79.3977L35.4538 79.3977L35.5678 79.6752ZM19.0096 85.7137L19.0893 86.0029L19.0897 86.0028L19.0096 85.7137ZM19.0084 85.714L18.9288 85.4248L18.9283 85.4249L19.0084 85.714ZM19.0072 85.7144L19.087 86.0036L19.0874 86.0035L19.0072 85.7144ZM0 88.3104H-0.3V88.6104H0V88.3104ZM0 87.5412V87.2412H-0.3V87.5412H0ZM1.37218 87.5274L1.36614 87.2274L1.36614 87.2274L1.37218 87.5274ZM18.4018 85.0241L18.4815 85.3133L18.4818 85.3132L18.4018 85.0241ZM34.8 79.0369L34.686 78.7595L34.686 78.7595L34.8 79.0369ZM35.193 78.8754L35.307 79.1529L35.3071 79.1529L35.193 78.8754ZM50.3393 73.3033L50.2594 73.0141L50.2593 73.0141L50.3393 73.3033ZM77.4108 73.3033L77.4907 73.0141L77.4906 73.0141L77.4108 73.3033ZM92.557 78.8754L92.6719 78.5983L92.6711 78.598L92.557 78.8754ZM109.348 85.0241L109.268 85.3132L109.269 85.3134L109.348 85.0241ZM146.152 85.0241L146.231 85.3133L146.232 85.3132L146.152 85.0241ZM162.55 79.0369L162.436 78.7594L162.436 78.7594L162.55 79.0369ZM162.943 78.8754L163.057 79.1529L163.057 79.1529L162.943 78.8754ZM178.089 73.3033L178.009 73.0141L178.009 73.0141L178.089 73.3033ZM205.161 73.3033L205.241 73.0141L205.241 73.0141L205.161 73.3033ZM220.307 78.8754L220.422 78.5983L220.421 78.598L220.307 78.8754ZM237.098 85.0241L237.018 85.3132L237.019 85.3134L237.098 85.0241ZM273.902 85.0241L273.981 85.3133L273.982 85.3132L273.902 85.0241ZM290.3 79.037L290.186 78.7595L290.186 78.7595L290.3 79.037ZM290.693 78.8754L290.807 79.1529L290.807 79.1529L290.693 78.8754ZM305.839 73.3033L305.759 73.0141L305.759 73.0141L305.839 73.3033ZM332.911 73.3033L332.991 73.0141L332.991 73.0141L332.911 73.3033ZM348.057 78.8754L348.172 78.5983L348.171 78.598L348.057 78.8754ZM364.848 85.0241L364.768 85.3132L364.769 85.3134L364.848 85.0241ZM401.652 85.0241L401.732 85.3133L401.732 85.3132L401.652 85.0241ZM418.05 79.037L417.936 78.7596L417.936 78.7596L418.05 79.037ZM418.443 78.8754L418.557 79.1529L418.557 79.1529L418.443 78.8754ZM433.589 73.3033L433.509 73.0141L433.509 73.0141L433.589 73.3033ZM460.661 73.3033L460.741 73.0141L460.741 73.0141L460.661 73.3033ZM475.807 78.8754L475.922 78.5983L475.921 78.598L475.807 78.8754ZM492.598 85.0241L492.518 85.3132L492.519 85.3134L492.598 85.0241ZM509.628 87.5271L509.634 87.2271L509.634 87.2271L509.628 87.5271ZM511 87.5412H511.3V87.2412H511V87.5412ZM511 88.3104V88.6104H511.3V88.3104H511ZM491.996 85.7151L492.075 85.4258L492.074 85.4256L491.996 85.7151ZM491.993 85.7144L491.912 86.0032L491.914 86.004L491.993 85.7144ZM491.99 85.7137L492.072 85.425L492.07 85.4246L491.99 85.7137ZM474.993 79.4949L475.108 79.2177L475.107 79.2174L474.993 79.4949ZM460.054 73.9932L460.134 73.704L460.134 73.704L460.054 73.9932ZM434.196 73.9933L434.116 73.7042L434.116 73.7042L434.196 73.9933ZM419.255 79.4957L419.369 79.7732L419.369 79.7732L419.255 79.4957ZM418.818 79.6752L418.704 79.3977L418.704 79.3977L418.818 79.6752ZM402.26 85.7137L402.18 85.4246L402.178 85.4249L402.26 85.7137ZM402.258 85.714L402.338 86.0034L402.34 86.0028L402.258 85.714ZM402.257 85.7144L402.178 85.425L402.178 85.4252L402.257 85.7144ZM364.246 85.7151L364.325 85.4258L364.325 85.4258L364.246 85.7151ZM364.243 85.7144L364.162 86.0033L364.164 86.0038L364.243 85.7144ZM364.24 85.7137L364.321 85.4248L364.32 85.4246L364.24 85.7137ZM347.243 79.4949L347.358 79.2177L347.358 79.2174L347.243 79.4949ZM332.304 73.9933L332.384 73.7042L332.384 73.7042L332.304 73.9933ZM306.446 73.9932L306.366 73.704L306.366 73.704L306.446 73.9932ZM291.504 79.4957L291.619 79.7732L291.619 79.7732L291.504 79.4957ZM291.068 79.6751L290.954 79.3976L290.954 79.3977L291.068 79.6751ZM274.51 85.7137L274.59 86.0029L274.59 86.0028L274.51 85.7137ZM274.508 85.714L274.586 86.0038L274.588 86.0032L274.508 85.714ZM274.507 85.7144L274.429 85.4247L274.427 85.4252L274.507 85.7144ZM236.496 85.7151L236.416 86.0044L236.416 86.0045L236.496 85.7151ZM236.493 85.7144L236.573 85.4252L236.573 85.4252L236.493 85.7144ZM236.49 85.7137L236.41 86.0028L236.411 86.003L236.49 85.7137ZM219.493 79.4949L219.608 79.2177L219.608 79.2174L219.493 79.4949ZM204.554 73.9932L204.634 73.704L204.634 73.704L204.554 73.9932ZM178.696 73.9932L178.616 73.704L178.616 73.704L178.696 73.9932ZM163.754 79.4957L163.869 79.7732L163.869 79.7732L163.754 79.4957ZM163.318 79.6752L163.204 79.3977L163.204 79.3977L163.318 79.6752ZM146.76 85.7137L146.68 85.4246L146.679 85.4247L146.76 85.7137ZM146.758 85.714L146.838 86.0034L146.839 86.003L146.758 85.714ZM146.757 85.7144L146.678 85.425L146.678 85.4252L146.757 85.7144ZM108.746 85.7151L108.666 86.0044L108.666 86.0045L108.746 85.7151ZM108.66 86.0029L108.663 86.0036L108.823 85.4253L108.82 85.4245L108.66 86.0029ZM91.6286 79.772C97.1261 82.0504 102.756 84.3671 108.66 86.0028L108.82 85.4246C102.957 83.8002 97.3599 81.4978 91.8583 79.2177L91.6286 79.772ZM76.724 74.2824C81.4389 75.5856 86.4579 77.6459 91.6293 79.7723L91.8575 79.2174C86.6942 77.0943 81.6402 75.0187 76.8839 73.704L76.724 74.2824ZM63.875 72.5087C68.1053 72.5087 72.3954 73.0872 76.7241 74.2824L76.8838 73.704C72.5044 72.4949 68.1606 71.9087 63.875 71.9087V72.5087ZM51.0259 74.2824C55.3546 73.0872 59.6447 72.5087 63.875 72.5087V71.9087C59.5894 71.9087 55.2456 72.4949 50.8662 73.704L51.0259 74.2824ZM36.1186 79.7732C41.2908 77.6464 46.3105 75.5858 51.026 74.2824L50.8661 73.704C46.1091 75.0189 41.0545 77.0948 35.8904 79.2183L36.1186 79.7732ZM35.7133 79.9397C35.8484 79.8842 35.9836 79.8286 36.1185 79.7732L35.8905 79.2182C35.7556 79.2737 35.6203 79.3293 35.4852 79.3848L35.7133 79.9397ZM35.6819 79.9527L35.7133 79.9398L35.4852 79.3848L35.4538 79.3977L35.6819 79.9527ZM19.0897 86.0028C24.8393 84.4101 30.3319 82.1519 35.6819 79.9527L35.4538 79.3977C30.0985 81.5991 24.6387 83.843 18.9296 85.4246L19.0897 86.0028ZM19.0881 86.0033L19.0893 86.0029L18.93 85.4245L18.9288 85.4248L19.0881 86.0033ZM19.0874 86.0035L19.0886 86.0031L18.9283 85.4249L18.9271 85.4253L19.0874 86.0035ZM0 88.6104C6.38945 88.6104 12.7562 87.7487 19.087 86.0036L18.9275 85.4252C12.6479 87.1562 6.33482 88.0104 0 88.0104V88.6104ZM-0.3 87.5412V88.3104H0.3V87.5412H-0.3ZM1.36614 87.2274C0.910766 87.2366 0.455385 87.2412 0 87.2412V87.8412C0.459402 87.8412 0.918808 87.8365 1.37822 87.8273L1.36614 87.2274ZM18.322 84.7348C12.6692 86.2931 7.01737 87.1137 1.36614 87.2274L1.37822 87.8273C7.08004 87.7126 12.7813 86.8846 18.4815 85.3133L18.322 84.7348ZM34.686 78.7595C29.2969 80.9746 23.9218 83.1836 18.3217 84.7349L18.4818 85.3132C24.1224 83.7506 29.5306 81.5272 34.9141 79.3144L34.686 78.7595ZM35.0789 78.5979L34.686 78.7595L34.9141 79.3144L35.307 79.1529L35.0789 78.5979ZM50.2593 73.0141C45.3726 74.3648 40.215 76.486 35.0789 78.598L35.3071 79.1529C40.4512 77.0376 45.5739 74.9317 50.4192 73.5924L50.2593 73.0141ZM63.875 71.1395C59.3583 71.1395 54.8081 71.7581 50.2594 73.0141L50.4191 73.5924C54.9171 72.3505 59.4136 71.7395 63.875 71.7395V71.1395ZM77.4906 73.0141C72.9419 71.7581 68.3917 71.1395 63.875 71.1395V71.7395C68.3364 71.7395 72.8329 72.3505 77.3309 73.5924L77.4906 73.0141ZM92.6711 78.598C87.5349 76.486 82.3774 74.3648 77.4907 73.0141L77.3308 73.5924C82.1761 74.9317 87.2987 77.0376 92.4429 79.1529L92.6711 78.598ZM109.428 84.7349C103.692 83.1458 98.191 80.8856 92.6719 78.5983L92.4421 79.1526C97.9572 81.4382 103.491 83.7127 109.268 85.3132L109.428 84.7349ZM127.75 87.2412C121.644 87.2412 115.502 86.3995 109.428 84.7347L109.269 85.3134C115.394 86.9919 121.588 87.8412 127.75 87.8412V87.2412ZM146.072 84.7348C139.964 86.4187 133.857 87.2412 127.75 87.2412V87.8412C133.911 87.8412 140.072 87.0112 146.231 85.3133L146.072 84.7348ZM162.436 78.7594C157.047 80.9746 151.672 83.1836 146.072 84.7349L146.232 85.3132C151.872 83.7506 157.281 81.5272 162.664 79.3144L162.436 78.7594ZM162.829 78.598L162.436 78.7594L162.664 79.3144L163.057 79.1529L162.829 78.598ZM178.009 73.0141C173.123 74.3648 167.965 76.486 162.829 78.598L163.057 79.1529C168.201 77.0377 173.324 74.9317 178.169 73.5924L178.009 73.0141ZM191.625 71.1395C187.108 71.1395 182.558 71.7581 178.009 73.0141L178.169 73.5924C182.667 72.3505 187.164 71.7395 191.625 71.7395V71.1395ZM205.241 73.0141C200.692 71.7581 196.142 71.1395 191.625 71.1395V71.7395C196.086 71.7395 200.583 72.3505 205.081 73.5924L205.241 73.0141ZM220.421 78.598C215.285 76.486 210.127 74.3648 205.241 73.0141L205.081 73.5924C209.926 74.9317 215.049 77.0377 220.193 79.1529L220.421 78.598ZM237.178 84.7349C231.442 83.1458 225.941 80.8857 220.422 78.5983L220.192 79.1526C225.707 81.4383 231.241 83.7127 237.018 85.3132L237.178 84.7349ZM255.5 87.2412C249.394 87.2412 243.252 86.3995 237.178 84.7347L237.019 85.3134C243.144 86.9919 249.338 87.8412 255.5 87.8412V87.2412ZM273.822 84.7348C267.714 86.4187 261.607 87.2412 255.5 87.2412V87.8412C261.661 87.8412 267.822 87.0112 273.981 85.3133L273.822 84.7348ZM290.186 78.7595C284.797 80.9746 279.422 83.1836 273.822 84.7349L273.982 85.3132C279.622 83.7506 285.031 81.5273 290.414 79.3144L290.186 78.7595ZM290.579 78.598L290.186 78.7595L290.414 79.3144L290.807 79.1529L290.579 78.598ZM305.759 73.0141C300.873 74.3648 295.715 76.486 290.579 78.598L290.807 79.1529C295.951 77.0377 301.074 74.9317 305.919 73.5924L305.759 73.0141ZM319.375 71.1395C314.858 71.1395 310.308 71.7581 305.759 73.0141L305.919 73.5924C310.417 72.3505 314.914 71.7395 319.375 71.7395V71.1395ZM332.991 73.0141C328.442 71.7581 323.892 71.1395 319.375 71.1395V71.7395C323.836 71.7395 328.333 72.3505 332.831 73.5924L332.991 73.0141ZM348.171 78.598C343.035 76.4859 337.877 74.3648 332.991 73.0141L332.831 73.5924C337.676 74.9317 342.799 77.0376 347.943 79.1529L348.171 78.598ZM364.928 84.7349C359.192 83.1458 353.691 80.8857 348.172 78.5983L347.942 79.1526C353.457 81.4383 358.991 83.7127 364.768 85.3132L364.928 84.7349ZM383.25 87.2412C377.144 87.2412 371.002 86.3995 364.928 84.7347L364.769 85.3134C370.894 86.9919 377.088 87.8412 383.25 87.8412V87.2412ZM401.572 84.7348C395.464 86.4187 389.357 87.2412 383.25 87.2412V87.8412C389.411 87.8412 395.572 87.0112 401.732 85.3133L401.572 84.7348ZM417.936 78.7596C412.547 80.9747 407.172 83.1836 401.572 84.7349L401.732 85.3132C407.372 83.7507 412.78 81.5273 418.164 79.3145L417.936 78.7596ZM418.329 78.598L417.936 78.7596L418.164 79.3145L418.557 79.1529L418.329 78.598ZM433.509 73.0141C428.623 74.3648 423.465 76.486 418.329 78.598L418.557 79.1529C423.701 77.0377 428.824 74.9317 433.669 73.5924L433.509 73.0141ZM447.125 71.1395C442.608 71.1395 438.058 71.7581 433.509 73.0141L433.669 73.5924C438.167 72.3505 442.664 71.7395 447.125 71.7395V71.1395ZM460.741 73.0141C456.192 71.7581 451.642 71.1395 447.125 71.1395V71.7395C451.586 71.7395 456.083 72.3505 460.581 73.5924L460.741 73.0141ZM475.921 78.598C470.785 76.486 465.627 74.3648 460.741 73.0141L460.581 73.5924C465.426 74.9317 470.549 77.0377 475.693 79.1529L475.921 78.598ZM492.678 84.7349C486.942 83.1458 481.441 80.8857 475.922 78.5983L475.692 79.1526C481.207 81.4383 486.741 83.7127 492.518 85.3132L492.678 84.7349ZM509.634 87.2271C503.979 87.1111 498.299 86.2755 492.678 84.7347L492.519 85.3134C498.187 86.8668 503.915 87.7099 509.622 87.827L509.634 87.2271ZM511 87.2412C510.545 87.2412 510.089 87.2365 509.634 87.2271L509.622 87.827C510.081 87.8364 510.541 87.8412 511 87.8412V87.2412ZM511.3 88.3104V87.5412H510.7V88.3104H511.3ZM491.916 86.0045C498.208 87.7287 504.607 88.6104 511 88.6104V88.0104C504.663 88.0104 498.316 87.1363 492.075 85.4258L491.916 86.0045ZM491.914 86.004L491.917 86.0047L492.074 85.4256L492.071 85.4249L491.914 86.004ZM491.909 86.0024L491.912 86.0032L492.074 85.4257L492.072 85.425L491.909 86.0024ZM474.879 79.772C480.376 82.0504 486.006 84.3671 491.91 86.0028L492.07 85.4246C486.207 83.8002 480.61 81.4978 475.108 79.2177L474.879 79.772ZM459.974 74.2824C464.689 75.5856 469.708 77.6459 474.879 79.7723L475.107 79.2174C469.944 77.0943 464.89 75.0187 460.134 73.704L459.974 74.2824ZM447.125 72.5087C451.355 72.5087 455.645 73.0872 459.974 74.2824L460.134 73.704C455.754 72.4949 451.411 71.9087 447.125 71.9087V72.5087ZM434.275 74.2825C438.604 73.0873 442.895 72.5087 447.125 72.5087V71.9087C442.839 71.9087 438.495 72.4949 434.116 73.7042L434.275 74.2825ZM419.369 79.7732C424.541 77.6465 429.56 75.5859 434.276 74.2825L434.116 73.7042C429.359 75.0191 424.304 77.0949 419.14 79.2183L419.369 79.7732ZM418.932 79.9526L419.369 79.7732L419.14 79.2182L418.704 79.3977L418.932 79.9526ZM402.34 86.0028C408.089 84.4101 413.582 82.1518 418.932 79.9526L418.704 79.3977C413.349 81.5991 407.889 83.843 402.18 85.4246L402.34 86.0028ZM402.34 86.0028L402.341 86.0025L402.178 85.4249L402.177 85.4253L402.34 86.0028ZM402.336 86.0037L402.338 86.0034L402.179 85.4247L402.178 85.425L402.336 86.0037ZM383.25 88.6104C389.639 88.6104 396.006 87.7487 402.337 86.0036L402.178 85.4252C395.898 87.1562 389.585 88.0104 383.25 88.0104V88.6104ZM364.166 86.0045C370.458 87.7287 376.857 88.6104 383.25 88.6104V88.0104C376.913 88.0104 370.566 87.1363 364.325 85.4258L364.166 86.0045ZM364.164 86.0038L364.166 86.0045L364.325 85.4258L364.322 85.4251L364.164 86.0038ZM364.16 86.0026L364.162 86.0033L364.324 85.4255L364.321 85.4248L364.16 86.0026ZM347.129 79.772C352.626 82.0504 358.256 84.3671 364.16 86.0028L364.32 85.4246C358.457 83.8002 352.86 81.4978 347.358 79.2177L347.129 79.772ZM332.225 74.2825C336.939 75.5857 341.958 77.6459 347.129 79.7723L347.358 79.2174C342.194 77.0944 337.141 75.0189 332.384 73.7042L332.225 74.2825ZM319.375 72.5087C323.605 72.5087 327.896 73.0873 332.225 74.2825L332.384 73.7042C328.005 72.4949 323.661 71.9087 319.375 71.9087V72.5087ZM306.526 74.2824C310.855 73.0872 315.145 72.5087 319.375 72.5087V71.9087C315.089 71.9087 310.746 72.4949 306.366 73.704L306.526 74.2824ZM291.619 79.7732C296.791 77.6464 301.81 75.5858 306.526 74.2824L306.366 73.704C301.609 75.0189 296.555 77.0948 291.39 79.2183L291.619 79.7732ZM291.182 79.9526L291.619 79.7732L291.39 79.2182L290.954 79.3976L291.182 79.9526ZM274.59 86.0028C280.339 84.4101 285.832 82.1518 291.182 79.9526L290.954 79.3977C285.599 81.599 280.139 83.843 274.43 85.4246L274.59 86.0028ZM274.588 86.0032L274.59 86.0029L274.43 85.4245L274.429 85.4249L274.588 86.0032ZM274.585 86.0041L274.586 86.0037L274.431 85.4243L274.429 85.4247L274.585 86.0041ZM255.5 88.6104C261.889 88.6104 268.256 87.7487 274.587 86.0036L274.427 85.4252C268.148 87.1562 261.835 88.0104 255.5 88.0104V88.6104ZM236.416 86.0045C242.708 87.7287 249.107 88.6104 255.5 88.6104V88.0104C249.163 88.0104 242.816 87.1363 236.575 85.4258L236.416 86.0045ZM236.413 86.0036L236.416 86.0044L236.575 85.4259L236.573 85.4252L236.413 86.0036ZM236.411 86.003L236.413 86.0037L236.573 85.4252L236.57 85.4244L236.411 86.003ZM219.379 79.772C224.876 82.0504 230.506 84.3671 236.41 86.0028L236.57 85.4246C230.707 83.8002 225.11 81.4978 219.608 79.2177L219.379 79.772ZM204.474 74.2824C209.189 75.5856 214.208 77.6459 219.379 79.7723L219.608 79.2174C214.444 77.0943 209.39 75.0187 204.634 73.704L204.474 74.2824ZM191.625 72.5087C195.855 72.5087 200.145 73.0872 204.474 74.2824L204.634 73.704C200.254 72.4949 195.911 71.9087 191.625 71.9087V72.5087ZM178.776 74.2824C183.105 73.0872 187.395 72.5087 191.625 72.5087V71.9087C187.339 71.9087 182.996 72.4949 178.616 73.704L178.776 74.2824ZM163.869 79.7732C169.041 77.6464 174.06 75.5858 178.776 74.2824L178.616 73.704C173.859 75.0189 168.804 77.0948 163.64 79.2183L163.869 79.7732ZM163.432 79.9527L163.869 79.7732L163.64 79.2182L163.204 79.3977L163.432 79.9527ZM146.84 86.0028C152.589 84.4101 158.082 82.1518 163.432 79.9526L163.204 79.3977C157.849 81.5991 152.389 83.843 146.68 85.4246L146.84 86.0028ZM146.839 86.003L146.84 86.0027L146.679 85.4247L146.678 85.4251L146.839 86.003ZM146.836 86.0037L146.838 86.0034L146.679 85.4247L146.678 85.425L146.836 86.0037ZM127.75 88.6104C134.139 88.6104 140.506 87.7487 146.837 86.0036L146.678 85.4252C140.398 87.1562 134.085 88.0104 127.75 88.0104V88.6104ZM108.666 86.0045C114.958 87.7287 121.357 88.6104 127.75 88.6104V88.0104C121.413 88.0104 115.066 87.1363 108.825 85.4258L108.666 86.0045ZM108.663 86.0036L108.666 86.0044L108.825 85.4259L108.823 85.4252L108.663 86.0036Z" fill="black" mask="url(#path-4-outside-2_1341_14168)"/>
</g>
<defs>
<clipPath id="clip0_1341_14168">
<rect width="511" height="90" fill="white"/>
</clipPath>
</defs>
</svg>
