<svg width="685" height="90" viewBox="0 0 685 90" fill="none" xmlns="http://www.w3.org/2000/svg">
<g clip-path="url(#clip0_1341_14228)">
<path d="M146.582 85.5071C154.759 87.1787 163.027 88.0241 171.25 88.0241C179.473 88.0241 187.695 87.1979 195.918 85.5071C203.452 83.9502 210.68 81.734 217.9 79.5201L218.426 79.3586C225.317 77.2451 232.207 75.1316 238.73 73.7866C244.794 72.5377 250.857 71.9228 256.875 71.9228C262.893 71.9228 268.956 72.5377 275.02 73.7866C281.543 75.1316 288.433 77.2451 295.324 79.3586C302.719 81.6451 310.115 83.9123 317.832 85.5071C326.009 87.1787 334.277 88.0241 342.5 88.0241C350.723 88.0241 358.945 87.1979 367.168 85.5071C374.702 83.9502 381.93 81.734 389.15 79.52L389.676 79.3586L389.677 79.3585C396.567 77.245 403.457 75.1315 409.98 73.7866C416.044 72.5377 422.107 71.9228 428.125 71.9228C434.143 71.9228 440.206 72.5377 446.27 73.7866C452.793 75.1315 459.683 77.245 466.573 79.3585L466.574 79.3586C473.969 81.6451 481.365 83.9123 489.082 85.5071C497.259 87.1787 505.527 88.0241 513.75 88.0241C521.973 88.0241 530.195 87.1979 538.418 85.5071C545.952 83.9502 553.18 81.7339 560.4 79.52L560.926 79.3586C567.817 77.2451 574.707 75.1316 581.23 73.7866C587.294 72.5377 593.357 71.9228 599.375 71.9228C605.393 71.9228 611.456 72.5377 617.52 73.7866C624.042 75.1315 630.933 77.245 637.823 79.3584L637.824 79.3586C645.219 81.6451 652.615 83.9123 660.332 85.5071C668.509 87.1787 676.777 88.0241 685 88.0241V37.9062H0V88.0241C8.22257 88.0241 16.4451 87.1979 24.6677 85.5071C32.2018 83.9502 39.4295 81.734 46.6498 79.5201L47.1764 79.3586L47.1766 79.3586C54.067 77.2451 60.9573 75.1316 67.4802 73.7866C73.5438 72.5377 79.6074 71.9228 85.625 71.9228C91.6426 71.9228 97.7062 72.5377 103.77 73.7866C110.293 75.1316 117.183 77.2451 124.073 79.3586L124.074 79.3586C131.469 81.6451 138.865 83.9123 146.582 85.5071Z" fill="white"/>
<path d="M0 45.7779V17.8085C6.01764 17.8085 12.0812 17.198 18.1448 15.9579C24.6677 14.6224 31.5581 12.5238 38.4486 10.4252C45.8443 8.17389 53.24 5.90355 60.9573 4.33912C69.1799 2.66022 77.4024 1.83984 85.625 1.83984C93.8476 1.83984 102.116 2.67929 110.293 4.33912C118.01 5.92263 125.406 8.17389 132.801 10.4252C139.692 12.5238 146.582 14.6224 153.105 15.9579C159.169 17.198 165.232 17.8085 171.25 17.8085C177.268 17.8085 183.331 17.198 189.395 15.9579C195.918 14.6224 202.808 12.5238 209.699 10.4252C217.094 8.17389 224.49 5.90355 232.207 4.33912C240.43 2.66022 248.652 1.83984 256.875 1.83984C265.098 1.83984 273.32 2.67929 281.543 4.33912C289.26 5.92263 296.656 8.17389 304.051 10.4252C310.942 12.5238 317.832 14.6224 324.355 15.9579C330.419 17.198 336.482 17.8085 342.5 17.8085C348.518 17.8085 354.581 17.198 360.645 15.9579C367.168 14.6224 374.058 12.5238 380.949 10.4252C388.344 8.17389 395.74 5.90355 403.457 4.33912C411.68 2.66022 419.902 1.83984 428.125 1.83984C436.348 1.83984 444.57 2.67929 452.793 4.33912C460.51 5.92263 467.906 8.17389 475.301 10.4252C482.192 12.5238 489.082 14.6224 495.605 15.9579C501.669 17.198 507.732 17.8085 513.75 17.8085C519.768 17.8085 525.831 17.198 531.895 15.9579C538.418 14.6224 545.308 12.5238 552.199 10.4252C559.594 8.17389 566.99 5.90355 574.707 4.33912C582.93 2.66022 591.152 1.83984 599.375 1.83984C607.598 1.83984 615.866 2.67929 624.043 4.33912C631.76 5.92263 639.156 8.17389 646.551 10.4252C653.442 12.5238 660.332 14.6224 666.855 15.9579C672.919 17.198 678.982 17.8085 685 17.8085V45.7779C456.667 45.7779 228.333 45.7779 0 45.7779Z" fill="white"/>
<mask id="path-3-outside-1_1341_14228" maskUnits="userSpaceOnUse" x="-1" y="0.0410156" width="687" height="19" fill="black">
<rect fill="white" x="-1" y="0.0410156" width="687" height="19"/>
<path fill-rule="evenodd" clip-rule="evenodd" d="M685 17.0516C679.292 17.0516 673.505 16.4718 667.669 15.275C661.32 13.9717 654.567 11.9127 647.639 9.79701L647.566 9.77487L647.566 9.77469C640.221 7.5332 632.718 5.24329 624.858 3.62609L624.854 3.62537L624.851 3.62466C616.45 1.91499 607.907 1.04102 599.375 1.04102C590.848 1.04102 582.351 1.89481 573.9 3.62447C566.212 5.18717 558.864 7.43017 551.687 9.62124L551.686 9.62141L551.111 9.79701L551.111 9.79713C544.183 11.9127 537.43 13.9717 531.081 15.275C525.245 16.4718 519.458 17.0516 513.75 17.0516C508.042 17.0516 502.255 16.4718 496.419 15.275C490.07 13.9717 483.317 11.9127 476.389 9.79713L476.389 9.79701L476.316 9.77475L476.315 9.7745L476.314 9.77421C468.97 7.53287 461.468 5.24318 453.608 3.62609L453.602 3.625L453.597 3.62392C445.155 1.91539 436.659 1.04102 428.125 1.04102C419.597 1.04102 411.098 1.89512 402.646 3.62543C394.958 5.18819 387.612 7.43089 380.436 9.62164L379.861 9.79701L379.861 9.79713C372.933 11.9126 366.181 13.9716 359.832 15.2749C353.995 16.4718 348.208 17.0516 342.5 17.0516C336.792 17.0516 331.005 16.4718 325.168 15.2749C318.819 13.9716 312.067 11.9126 305.139 9.79713L305.139 9.79701L305.066 9.77481C297.722 7.53328 290.219 5.24332 282.358 3.62609L282.352 3.625L282.347 3.62392C273.905 1.91539 265.409 1.04102 256.875 1.04102C248.347 1.04102 239.85 1.89492 231.399 3.62483C223.71 5.18758 216.363 7.4305 209.186 9.62148L208.611 9.79701L208.611 9.79713C201.683 11.9126 194.931 13.9716 188.582 15.2749C182.745 16.4718 176.958 17.0516 171.25 17.0516C165.542 17.0516 159.755 16.4718 153.919 15.275C147.57 13.9717 140.817 11.9127 133.889 9.79713L133.889 9.79701L133.816 9.7748C126.472 7.53328 118.969 5.24332 111.108 3.62609L111.104 3.62537L111.101 3.62466C102.7 1.91499 94.1572 1.04102 85.625 1.04102C77.0975 1.04102 68.5997 1.89493 60.1485 3.62484C52.4603 5.18758 45.1131 7.43051 37.936 9.62149L37.3611 9.79701L37.3607 9.79713C30.4327 11.9127 23.6804 13.9717 17.3313 15.275C11.4947 16.4718 5.70785 17.0516 0 17.0516V17.8174C6.01764 17.8174 12.0812 17.2052 18.1448 15.9619C24.6677 14.6229 31.5581 12.5188 38.4486 10.4146L38.963 10.2576C46.1874 8.0523 53.419 5.84481 60.9573 4.31265C69.1799 2.62934 77.4024 1.80682 85.625 1.80682C93.8476 1.80682 102.116 2.64847 110.293 4.31265C118.01 5.90031 125.406 8.15748 132.801 10.4146L132.802 10.4147C139.692 12.5188 146.582 14.6229 153.105 15.9619C159.169 17.2052 165.232 17.8174 171.25 17.8174C177.268 17.8174 183.331 17.2052 189.395 15.9619C195.918 14.6229 202.808 12.5188 209.699 10.4146L210.213 10.2575C217.438 8.05226 224.669 5.8448 232.207 4.31265C240.43 2.62934 248.652 1.80682 256.875 1.80682C265.098 1.80682 273.32 2.64847 281.543 4.31265C289.26 5.90029 296.655 8.1574 304.051 10.4145L304.051 10.4146L304.051 10.4146C310.942 12.5188 317.832 14.6229 324.355 15.9619C330.419 17.2052 336.482 17.8174 342.5 17.8174C348.518 17.8174 354.581 17.2052 360.645 15.9619C367.168 14.6229 374.058 12.5188 380.949 10.4146L381.463 10.2577C388.687 8.05237 395.919 5.84484 403.457 4.31265C411.68 2.62934 419.902 1.80682 428.125 1.80682C436.348 1.80682 444.57 2.64847 452.793 4.31265C460.51 5.90031 467.906 8.15748 475.301 10.4146C482.192 12.5188 489.082 14.6229 495.605 15.9619C501.669 17.2052 507.732 17.8174 513.75 17.8174C519.768 17.8174 525.831 17.2052 531.895 15.9619C538.418 14.6229 545.308 12.5188 552.199 10.4146L552.713 10.2575L552.714 10.2574C559.938 8.05213 567.169 5.84476 574.707 4.31265C582.93 2.62934 591.152 1.80682 599.375 1.80682C607.598 1.80682 615.866 2.64847 624.043 4.31265C631.76 5.90031 639.156 8.15748 646.551 10.4146L646.552 10.4148C653.442 12.5189 660.332 14.6229 666.855 15.9619C672.919 17.2052 678.982 17.8174 685 17.8174V17.0516Z"/>
</mask>
<path fill-rule="evenodd" clip-rule="evenodd" d="M685 17.0516C679.292 17.0516 673.505 16.4718 667.669 15.275C661.32 13.9717 654.567 11.9127 647.639 9.79701L647.566 9.77487L647.566 9.77469C640.221 7.5332 632.718 5.24329 624.858 3.62609L624.854 3.62537L624.851 3.62466C616.45 1.91499 607.907 1.04102 599.375 1.04102C590.848 1.04102 582.351 1.89481 573.9 3.62447C566.212 5.18717 558.864 7.43017 551.687 9.62124L551.686 9.62141L551.111 9.79701L551.111 9.79713C544.183 11.9127 537.43 13.9717 531.081 15.275C525.245 16.4718 519.458 17.0516 513.75 17.0516C508.042 17.0516 502.255 16.4718 496.419 15.275C490.07 13.9717 483.317 11.9127 476.389 9.79713L476.389 9.79701L476.316 9.77475L476.315 9.7745L476.314 9.77421C468.97 7.53287 461.468 5.24318 453.608 3.62609L453.602 3.625L453.597 3.62392C445.155 1.91539 436.659 1.04102 428.125 1.04102C419.597 1.04102 411.098 1.89512 402.646 3.62543C394.958 5.18819 387.612 7.43089 380.436 9.62164L379.861 9.79701L379.861 9.79713C372.933 11.9126 366.181 13.9716 359.832 15.2749C353.995 16.4718 348.208 17.0516 342.5 17.0516C336.792 17.0516 331.005 16.4718 325.168 15.2749C318.819 13.9716 312.067 11.9126 305.139 9.79713L305.139 9.79701L305.066 9.77481C297.722 7.53328 290.219 5.24332 282.358 3.62609L282.352 3.625L282.347 3.62392C273.905 1.91539 265.409 1.04102 256.875 1.04102C248.347 1.04102 239.85 1.89492 231.399 3.62483C223.71 5.18758 216.363 7.4305 209.186 9.62148L208.611 9.79701L208.611 9.79713C201.683 11.9126 194.931 13.9716 188.582 15.2749C182.745 16.4718 176.958 17.0516 171.25 17.0516C165.542 17.0516 159.755 16.4718 153.919 15.275C147.57 13.9717 140.817 11.9127 133.889 9.79713L133.889 9.79701L133.816 9.7748C126.472 7.53328 118.969 5.24332 111.108 3.62609L111.104 3.62537L111.101 3.62466C102.7 1.91499 94.1572 1.04102 85.625 1.04102C77.0975 1.04102 68.5997 1.89493 60.1485 3.62484C52.4603 5.18758 45.1131 7.43051 37.936 9.62149L37.3611 9.79701L37.3607 9.79713C30.4327 11.9127 23.6804 13.9717 17.3313 15.275C11.4947 16.4718 5.70785 17.0516 0 17.0516V17.8174C6.01764 17.8174 12.0812 17.2052 18.1448 15.9619C24.6677 14.6229 31.5581 12.5188 38.4486 10.4146L38.963 10.2576C46.1874 8.0523 53.419 5.84481 60.9573 4.31265C69.1799 2.62934 77.4024 1.80682 85.625 1.80682C93.8476 1.80682 102.116 2.64847 110.293 4.31265C118.01 5.90031 125.406 8.15748 132.801 10.4146L132.802 10.4147C139.692 12.5188 146.582 14.6229 153.105 15.9619C159.169 17.2052 165.232 17.8174 171.25 17.8174C177.268 17.8174 183.331 17.2052 189.395 15.9619C195.918 14.6229 202.808 12.5188 209.699 10.4146L210.213 10.2575C217.438 8.05226 224.669 5.8448 232.207 4.31265C240.43 2.62934 248.652 1.80682 256.875 1.80682C265.098 1.80682 273.32 2.64847 281.543 4.31265C289.26 5.90029 296.655 8.1574 304.051 10.4145L304.051 10.4146L304.051 10.4146C310.942 12.5188 317.832 14.6229 324.355 15.9619C330.419 17.2052 336.482 17.8174 342.5 17.8174C348.518 17.8174 354.581 17.2052 360.645 15.9619C367.168 14.6229 374.058 12.5188 380.949 10.4146L381.463 10.2577C388.687 8.05237 395.919 5.84484 403.457 4.31265C411.68 2.62934 419.902 1.80682 428.125 1.80682C436.348 1.80682 444.57 2.64847 452.793 4.31265C460.51 5.90031 467.906 8.15748 475.301 10.4146C482.192 12.5188 489.082 14.6229 495.605 15.9619C501.669 17.2052 507.732 17.8174 513.75 17.8174C519.768 17.8174 525.831 17.2052 531.895 15.9619C538.418 14.6229 545.308 12.5188 552.199 10.4146L552.713 10.2575L552.714 10.2574C559.938 8.05213 567.169 5.84476 574.707 4.31265C582.93 2.62934 591.152 1.80682 599.375 1.80682C607.598 1.80682 615.866 2.64847 624.043 4.31265C631.76 5.90031 639.156 8.15748 646.551 10.4146L646.552 10.4148C653.442 12.5189 660.332 14.6229 666.855 15.9619C672.919 17.2052 678.982 17.8174 685 17.8174V17.0516Z" fill="#222222"/>
<path fill-rule="evenodd" clip-rule="evenodd" d="M685 17.0516C679.292 17.0516 673.505 16.4718 667.669 15.275C661.32 13.9717 654.567 11.9127 647.639 9.79701L647.566 9.77487L647.566 9.77469C640.221 7.5332 632.718 5.24329 624.858 3.62609L624.854 3.62537L624.851 3.62466C616.45 1.91499 607.907 1.04102 599.375 1.04102C590.848 1.04102 582.351 1.89481 573.9 3.62447C566.212 5.18717 558.864 7.43017 551.687 9.62124L551.686 9.62141L551.111 9.79701L551.111 9.79713C544.183 11.9127 537.43 13.9717 531.081 15.275C525.245 16.4718 519.458 17.0516 513.75 17.0516C508.042 17.0516 502.255 16.4718 496.419 15.275C490.07 13.9717 483.317 11.9127 476.389 9.79713L476.389 9.79701L476.316 9.77475L476.315 9.7745L476.314 9.77421C468.97 7.53287 461.468 5.24318 453.608 3.62609L453.602 3.625L453.597 3.62392C445.155 1.91539 436.659 1.04102 428.125 1.04102C419.597 1.04102 411.098 1.89512 402.646 3.62543C394.958 5.18819 387.612 7.43089 380.436 9.62164L379.861 9.79701L379.861 9.79713C372.933 11.9126 366.181 13.9716 359.832 15.2749C353.995 16.4718 348.208 17.0516 342.5 17.0516C336.792 17.0516 331.005 16.4718 325.168 15.2749C318.819 13.9716 312.067 11.9126 305.139 9.79713L305.139 9.79701L305.066 9.77481C297.722 7.53328 290.219 5.24332 282.358 3.62609L282.352 3.625L282.347 3.62392C273.905 1.91539 265.409 1.04102 256.875 1.04102C248.347 1.04102 239.85 1.89492 231.399 3.62483C223.71 5.18758 216.363 7.4305 209.186 9.62148L208.611 9.79701L208.611 9.79713C201.683 11.9126 194.931 13.9716 188.582 15.2749C182.745 16.4718 176.958 17.0516 171.25 17.0516C165.542 17.0516 159.755 16.4718 153.919 15.275C147.57 13.9717 140.817 11.9127 133.889 9.79713L133.889 9.79701L133.816 9.7748C126.472 7.53328 118.969 5.24332 111.108 3.62609L111.104 3.62537L111.101 3.62466C102.7 1.91499 94.1572 1.04102 85.625 1.04102C77.0975 1.04102 68.5997 1.89493 60.1485 3.62484C52.4603 5.18758 45.1131 7.43051 37.936 9.62149L37.3611 9.79701L37.3607 9.79713C30.4327 11.9127 23.6804 13.9717 17.3313 15.275C11.4947 16.4718 5.70785 17.0516 0 17.0516V17.8174C6.01764 17.8174 12.0812 17.2052 18.1448 15.9619C24.6677 14.6229 31.5581 12.5188 38.4486 10.4146L38.963 10.2576C46.1874 8.0523 53.419 5.84481 60.9573 4.31265C69.1799 2.62934 77.4024 1.80682 85.625 1.80682C93.8476 1.80682 102.116 2.64847 110.293 4.31265C118.01 5.90031 125.406 8.15748 132.801 10.4146L132.802 10.4147C139.692 12.5188 146.582 14.6229 153.105 15.9619C159.169 17.2052 165.232 17.8174 171.25 17.8174C177.268 17.8174 183.331 17.2052 189.395 15.9619C195.918 14.6229 202.808 12.5188 209.699 10.4146L210.213 10.2575C217.438 8.05226 224.669 5.8448 232.207 4.31265C240.43 2.62934 248.652 1.80682 256.875 1.80682C265.098 1.80682 273.32 2.64847 281.543 4.31265C289.26 5.90029 296.655 8.1574 304.051 10.4145L304.051 10.4146L304.051 10.4146C310.942 12.5188 317.832 14.6229 324.355 15.9619C330.419 17.2052 336.482 17.8174 342.5 17.8174C348.518 17.8174 354.581 17.2052 360.645 15.9619C367.168 14.6229 374.058 12.5188 380.949 10.4146L381.463 10.2577C388.687 8.05237 395.919 5.84484 403.457 4.31265C411.68 2.62934 419.902 1.80682 428.125 1.80682C436.348 1.80682 444.57 2.64847 452.793 4.31265C460.51 5.90031 467.906 8.15748 475.301 10.4146C482.192 12.5188 489.082 14.6229 495.605 15.9619C501.669 17.2052 507.732 17.8174 513.75 17.8174C519.768 17.8174 525.831 17.2052 531.895 15.9619C538.418 14.6229 545.308 12.5188 552.199 10.4146L552.713 10.2575L552.714 10.2574C559.938 8.05213 567.169 5.84476 574.707 4.31265C582.93 2.62934 591.152 1.80682 599.375 1.80682C607.598 1.80682 615.866 2.64847 624.043 4.31265C631.76 5.90031 639.156 8.15748 646.551 10.4146L646.552 10.4148C653.442 12.5189 660.332 14.6229 666.855 15.9619C672.919 17.2052 678.982 17.8174 685 17.8174V17.0516Z" stroke="#222222" stroke-width="1.8" mask="url(#path-3-outside-1_1341_14228)"/>
<mask id="path-4-outside-2_1341_14228" maskUnits="userSpaceOnUse" x="-0.958008" y="71.1836" width="687" height="19" fill="black">
<rect fill="white" x="-0.958008" y="71.1836" width="687" height="19"/>
<path fill-rule="evenodd" clip-rule="evenodd" d="M685.042 88.1941C679.334 88.1941 673.547 87.6144 667.711 86.4176C661.362 85.1143 654.609 83.0553 647.681 80.9396L647.608 80.9174L647.608 80.9173C640.263 78.6758 632.76 76.3859 624.9 74.7687L624.896 74.7679L624.893 74.7672C616.492 73.0576 607.949 72.1836 599.417 72.1836C590.89 72.1836 582.393 73.0374 573.942 74.7671C566.254 76.3298 558.906 78.5727 551.729 80.7638L551.728 80.764L551.153 80.9396L551.153 80.9397C544.225 83.0553 537.472 85.1143 531.123 86.4176C525.287 87.6144 519.5 88.1941 513.792 88.1941C508.084 88.1941 502.297 87.6144 496.461 86.4176C490.112 85.1143 483.359 83.0553 476.431 80.9397L476.431 80.9396L476.358 80.9173L476.357 80.9171L476.356 80.9168C469.012 78.6754 461.51 76.3858 453.65 74.7687L453.644 74.7676L453.639 74.7665C445.197 73.058 436.701 72.1836 428.167 72.1836C419.639 72.1836 411.14 73.0377 402.688 74.768C395 76.3308 387.654 78.5735 380.478 80.7642L379.903 80.9396L379.903 80.9397C372.975 83.0552 366.223 85.1142 359.874 86.4175C354.037 87.6143 348.25 88.1941 342.542 88.1941C336.834 88.1941 331.047 87.6143 325.21 86.4175C318.861 85.1142 312.109 83.0552 305.181 80.9397L305.181 80.9396L305.108 80.9174C297.764 78.6759 290.261 76.3859 282.4 74.7687L282.394 74.7676L282.389 74.7665C273.947 73.058 265.451 72.1836 256.917 72.1836C248.389 72.1836 239.892 73.0375 231.441 74.7674C223.752 76.3302 216.405 78.5731 209.228 80.7641L208.653 80.9396L208.653 80.9397C201.725 83.0552 194.973 85.1142 188.624 86.4175C182.787 87.6143 177 88.1941 171.292 88.1941C165.584 88.1941 159.797 87.6144 153.961 86.4176C147.612 85.1143 140.859 83.0553 133.931 80.9397L133.931 80.9396L133.858 80.9174C126.514 78.6759 119.011 76.3859 111.15 74.7687L111.146 74.7679L111.143 74.7672C102.742 73.0576 94.1992 72.1836 85.667 72.1836C77.1395 72.1836 68.6417 73.0375 60.1905 74.7674C52.5023 76.3302 45.1551 78.5731 37.978 80.7641L37.403 80.9396L37.4027 80.9397C30.4747 83.0553 23.7224 85.1143 17.3733 86.4176C11.5367 87.6144 5.74984 88.1941 0.0419922 88.1941V88.9599C6.05963 88.9599 12.1232 88.3478 18.1868 87.1045C24.7097 85.7655 31.6001 83.6613 38.4906 81.5572L39.005 81.4002C46.2294 79.1949 53.461 76.9874 60.9993 75.4552C69.2219 73.7719 77.4444 72.9494 85.667 72.9494C93.8896 72.9494 102.158 73.7911 110.335 75.4552C118.052 77.0429 125.448 79.3001 132.843 81.5572L132.844 81.5573C139.734 83.6614 146.624 85.7655 153.147 87.1045C159.211 88.3478 165.274 88.9599 171.292 88.9599C177.31 88.9599 183.373 88.3478 189.437 87.1045C195.96 85.7655 202.85 83.6613 209.741 81.5572L210.255 81.4001C217.48 79.1948 224.711 76.9874 232.249 75.4552C240.472 73.7719 248.694 72.9494 256.917 72.9494C265.14 72.9494 273.362 73.7911 281.585 75.4552C289.302 77.0429 296.697 79.3 304.093 81.5571L304.093 81.5571L304.093 81.5572C310.984 83.6614 317.874 85.7655 324.397 87.1045C330.461 88.3478 336.524 88.9599 342.542 88.9599C348.56 88.9599 354.623 88.3478 360.687 87.1045C367.21 85.7655 374.1 83.6613 380.991 81.5572L381.505 81.4003C388.729 79.1949 395.961 76.9874 403.499 75.4552C411.722 73.7719 419.944 72.9494 428.167 72.9494C436.39 72.9494 444.612 73.7911 452.835 75.4552C460.552 77.0429 467.948 79.3001 475.343 81.5572C482.234 83.6614 489.124 85.7655 495.647 87.1045C501.711 88.3478 507.774 88.9599 513.792 88.9599C519.81 88.9599 525.873 88.3478 531.937 87.1045C538.46 85.7655 545.35 83.6613 552.241 81.5572L552.755 81.4001L552.756 81.3999C559.98 79.1947 567.211 76.9873 574.749 75.4552C582.972 73.7719 591.194 72.9494 599.417 72.9494C607.64 72.9494 615.908 73.7911 624.085 75.4552C631.802 77.0429 639.198 79.3001 646.593 81.5572L646.594 81.5574C653.484 83.6615 660.374 85.7655 666.897 87.1045C672.961 88.3478 679.024 88.9599 685.042 88.9599V88.1941Z"/>
</mask>
<path fill-rule="evenodd" clip-rule="evenodd" d="M685.042 88.1941C679.334 88.1941 673.547 87.6144 667.711 86.4176C661.362 85.1143 654.609 83.0553 647.681 80.9396L647.608 80.9174L647.608 80.9173C640.263 78.6758 632.76 76.3859 624.9 74.7687L624.896 74.7679L624.893 74.7672C616.492 73.0576 607.949 72.1836 599.417 72.1836C590.89 72.1836 582.393 73.0374 573.942 74.7671C566.254 76.3298 558.906 78.5727 551.729 80.7638L551.728 80.764L551.153 80.9396L551.153 80.9397C544.225 83.0553 537.472 85.1143 531.123 86.4176C525.287 87.6144 519.5 88.1941 513.792 88.1941C508.084 88.1941 502.297 87.6144 496.461 86.4176C490.112 85.1143 483.359 83.0553 476.431 80.9397L476.431 80.9396L476.358 80.9173L476.357 80.9171L476.356 80.9168C469.012 78.6754 461.51 76.3858 453.65 74.7687L453.644 74.7676L453.639 74.7665C445.197 73.058 436.701 72.1836 428.167 72.1836C419.639 72.1836 411.14 73.0377 402.688 74.768C395 76.3308 387.654 78.5735 380.478 80.7642L379.903 80.9396L379.903 80.9397C372.975 83.0552 366.223 85.1142 359.874 86.4175C354.037 87.6143 348.25 88.1941 342.542 88.1941C336.834 88.1941 331.047 87.6143 325.21 86.4175C318.861 85.1142 312.109 83.0552 305.181 80.9397L305.181 80.9396L305.108 80.9174C297.764 78.6759 290.261 76.3859 282.4 74.7687L282.394 74.7676L282.389 74.7665C273.947 73.058 265.451 72.1836 256.917 72.1836C248.389 72.1836 239.892 73.0375 231.441 74.7674C223.752 76.3302 216.405 78.5731 209.228 80.7641L208.653 80.9396L208.653 80.9397C201.725 83.0552 194.973 85.1142 188.624 86.4175C182.787 87.6143 177 88.1941 171.292 88.1941C165.584 88.1941 159.797 87.6144 153.961 86.4176C147.612 85.1143 140.859 83.0553 133.931 80.9397L133.931 80.9396L133.858 80.9174C126.514 78.6759 119.011 76.3859 111.15 74.7687L111.146 74.7679L111.143 74.7672C102.742 73.0576 94.1992 72.1836 85.667 72.1836C77.1395 72.1836 68.6417 73.0375 60.1905 74.7674C52.5023 76.3302 45.1551 78.5731 37.978 80.7641L37.403 80.9396L37.4027 80.9397C30.4747 83.0553 23.7224 85.1143 17.3733 86.4176C11.5367 87.6144 5.74984 88.1941 0.0419922 88.1941V88.9599C6.05963 88.9599 12.1232 88.3478 18.1868 87.1045C24.7097 85.7655 31.6001 83.6613 38.4906 81.5572L39.005 81.4002C46.2294 79.1949 53.461 76.9874 60.9993 75.4552C69.2219 73.7719 77.4444 72.9494 85.667 72.9494C93.8896 72.9494 102.158 73.7911 110.335 75.4552C118.052 77.0429 125.448 79.3001 132.843 81.5572L132.844 81.5573C139.734 83.6614 146.624 85.7655 153.147 87.1045C159.211 88.3478 165.274 88.9599 171.292 88.9599C177.31 88.9599 183.373 88.3478 189.437 87.1045C195.96 85.7655 202.85 83.6613 209.741 81.5572L210.255 81.4001C217.48 79.1948 224.711 76.9874 232.249 75.4552C240.472 73.7719 248.694 72.9494 256.917 72.9494C265.14 72.9494 273.362 73.7911 281.585 75.4552C289.302 77.0429 296.697 79.3 304.093 81.5571L304.093 81.5571L304.093 81.5572C310.984 83.6614 317.874 85.7655 324.397 87.1045C330.461 88.3478 336.524 88.9599 342.542 88.9599C348.56 88.9599 354.623 88.3478 360.687 87.1045C367.21 85.7655 374.1 83.6613 380.991 81.5572L381.505 81.4003C388.729 79.1949 395.961 76.9874 403.499 75.4552C411.722 73.7719 419.944 72.9494 428.167 72.9494C436.39 72.9494 444.612 73.7911 452.835 75.4552C460.552 77.0429 467.948 79.3001 475.343 81.5572C482.234 83.6614 489.124 85.7655 495.647 87.1045C501.711 88.3478 507.774 88.9599 513.792 88.9599C519.81 88.9599 525.873 88.3478 531.937 87.1045C538.46 85.7655 545.35 83.6613 552.241 81.5572L552.755 81.4001L552.756 81.3999C559.98 79.1947 567.211 76.9873 574.749 75.4552C582.972 73.7719 591.194 72.9494 599.417 72.9494C607.64 72.9494 615.908 73.7911 624.085 75.4552C631.802 77.0429 639.198 79.3001 646.593 81.5572L646.594 81.5574C653.484 83.6615 660.374 85.7655 666.897 87.1045C672.961 88.3478 679.024 88.9599 685.042 88.9599V88.1941Z" fill="#222222"/>
<path fill-rule="evenodd" clip-rule="evenodd" d="M685.042 88.1941C679.334 88.1941 673.547 87.6144 667.711 86.4176C661.362 85.1143 654.609 83.0553 647.681 80.9396L647.608 80.9174L647.608 80.9173C640.263 78.6758 632.76 76.3859 624.9 74.7687L624.896 74.7679L624.893 74.7672C616.492 73.0576 607.949 72.1836 599.417 72.1836C590.89 72.1836 582.393 73.0374 573.942 74.7671C566.254 76.3298 558.906 78.5727 551.729 80.7638L551.728 80.764L551.153 80.9396L551.153 80.9397C544.225 83.0553 537.472 85.1143 531.123 86.4176C525.287 87.6144 519.5 88.1941 513.792 88.1941C508.084 88.1941 502.297 87.6144 496.461 86.4176C490.112 85.1143 483.359 83.0553 476.431 80.9397L476.431 80.9396L476.358 80.9173L476.357 80.9171L476.356 80.9168C469.012 78.6754 461.51 76.3858 453.65 74.7687L453.644 74.7676L453.639 74.7665C445.197 73.058 436.701 72.1836 428.167 72.1836C419.639 72.1836 411.14 73.0377 402.688 74.768C395 76.3308 387.654 78.5735 380.478 80.7642L379.903 80.9396L379.903 80.9397C372.975 83.0552 366.223 85.1142 359.874 86.4175C354.037 87.6143 348.25 88.1941 342.542 88.1941C336.834 88.1941 331.047 87.6143 325.21 86.4175C318.861 85.1142 312.109 83.0552 305.181 80.9397L305.181 80.9396L305.108 80.9174C297.764 78.6759 290.261 76.3859 282.4 74.7687L282.394 74.7676L282.389 74.7665C273.947 73.058 265.451 72.1836 256.917 72.1836C248.389 72.1836 239.892 73.0375 231.441 74.7674C223.752 76.3302 216.405 78.5731 209.228 80.7641L208.653 80.9396L208.653 80.9397C201.725 83.0552 194.973 85.1142 188.624 86.4175C182.787 87.6143 177 88.1941 171.292 88.1941C165.584 88.1941 159.797 87.6144 153.961 86.4176C147.612 85.1143 140.859 83.0553 133.931 80.9397L133.931 80.9396L133.858 80.9174C126.514 78.6759 119.011 76.3859 111.15 74.7687L111.146 74.7679L111.143 74.7672C102.742 73.0576 94.1992 72.1836 85.667 72.1836C77.1395 72.1836 68.6417 73.0375 60.1905 74.7674C52.5023 76.3302 45.1551 78.5731 37.978 80.7641L37.403 80.9396L37.4027 80.9397C30.4747 83.0553 23.7224 85.1143 17.3733 86.4176C11.5367 87.6144 5.74984 88.1941 0.0419922 88.1941V88.9599C6.05963 88.9599 12.1232 88.3478 18.1868 87.1045C24.7097 85.7655 31.6001 83.6613 38.4906 81.5572L39.005 81.4002C46.2294 79.1949 53.461 76.9874 60.9993 75.4552C69.2219 73.7719 77.4444 72.9494 85.667 72.9494C93.8896 72.9494 102.158 73.7911 110.335 75.4552C118.052 77.0429 125.448 79.3001 132.843 81.5572L132.844 81.5573C139.734 83.6614 146.624 85.7655 153.147 87.1045C159.211 88.3478 165.274 88.9599 171.292 88.9599C177.31 88.9599 183.373 88.3478 189.437 87.1045C195.96 85.7655 202.85 83.6613 209.741 81.5572L210.255 81.4001C217.48 79.1948 224.711 76.9874 232.249 75.4552C240.472 73.7719 248.694 72.9494 256.917 72.9494C265.14 72.9494 273.362 73.7911 281.585 75.4552C289.302 77.0429 296.697 79.3 304.093 81.5571L304.093 81.5571L304.093 81.5572C310.984 83.6614 317.874 85.7655 324.397 87.1045C330.461 88.3478 336.524 88.9599 342.542 88.9599C348.56 88.9599 354.623 88.3478 360.687 87.1045C367.21 85.7655 374.1 83.6613 380.991 81.5572L381.505 81.4003C388.729 79.1949 395.961 76.9874 403.499 75.4552C411.722 73.7719 419.944 72.9494 428.167 72.9494C436.39 72.9494 444.612 73.7911 452.835 75.4552C460.552 77.0429 467.948 79.3001 475.343 81.5572C482.234 83.6614 489.124 85.7655 495.647 87.1045C501.711 88.3478 507.774 88.9599 513.792 88.9599C519.81 88.9599 525.873 88.3478 531.937 87.1045C538.46 85.7655 545.35 83.6613 552.241 81.5572L552.755 81.4001L552.756 81.3999C559.98 79.1947 567.211 76.9873 574.749 75.4552C582.972 73.7719 591.194 72.9494 599.417 72.9494C607.64 72.9494 615.908 73.7911 624.085 75.4552C631.802 77.0429 639.198 79.3001 646.593 81.5572L646.594 81.5574C653.484 83.6615 660.374 85.7655 666.897 87.1045C672.961 88.3478 679.024 88.9599 685.042 88.9599V88.1941Z" stroke="#222222" stroke-width="1.8" mask="url(#path-4-outside-2_1341_14228)"/>
</g>
<defs>
<clipPath id="clip0_1341_14228">
<rect width="685" height="90" fill="white"/>
</clipPath>
</defs>
</svg>
