<svg width="686" height="90" viewBox="0 0 686 90" fill="none" xmlns="http://www.w3.org/2000/svg">
<g clip-path="url(#clip0_1341_14168)">
<path d="M146.796 85.6985C154.985 87.3701 163.265 88.2155 171.5 88.2155C179.735 88.2155 187.969 87.3893 196.204 85.6985C203.749 84.1416 210.987 81.9254 218.218 79.7114L218.745 79.55C225.646 77.4365 232.546 75.323 239.079 73.978C245.151 72.7291 251.224 72.1143 257.25 72.1143C263.276 72.1143 269.349 72.7291 275.421 73.978C281.954 75.323 288.854 77.4365 295.755 79.55C303.161 81.8365 310.568 84.1038 318.296 85.6985C326.485 87.3701 334.765 88.2155 343 88.2155C351.235 88.2155 359.469 87.3893 367.704 85.6985C375.249 84.1416 382.487 81.9254 389.718 79.7114L390.245 79.55C397.146 77.4365 404.046 75.323 410.579 73.978C416.651 72.7291 422.724 72.1143 428.75 72.1143C434.776 72.1143 440.849 72.7291 446.921 73.978C453.454 75.323 460.354 77.4365 467.255 79.55C474.661 81.8365 482.068 84.1038 489.796 85.6985C497.985 87.3701 506.265 88.2155 514.5 88.2155C522.735 88.2155 530.969 87.3893 539.204 85.6985C546.749 84.1416 553.987 81.9254 561.218 79.7114L561.745 79.55L561.746 79.5499C568.646 77.4364 575.546 75.3229 582.079 73.978C588.151 72.7291 594.224 72.1143 600.25 72.1143C606.276 72.1143 612.349 72.7291 618.421 73.978C624.954 75.323 631.854 77.4365 638.755 79.55C646.161 81.8365 653.568 84.1038 661.296 85.6985C669.485 87.3701 677.765 88.2155 686 88.2155V38.0977H0V88.2155C8.23458 88.2155 16.4692 87.3893 24.7037 85.6985C32.4323 84.1038 39.8388 81.8173 47.2453 79.55C54.1458 77.4365 61.0463 75.323 67.5787 73.978C73.6512 72.7291 79.7236 72.1143 85.75 72.1143C91.7764 72.1143 97.8489 72.7291 103.921 73.978C110.454 75.323 117.354 77.4365 124.255 79.55C131.661 81.8365 139.068 84.1038 146.796 85.6985Z" fill="white"/>
<path d="M0 45.9693V17.9999C6.02642 17.9999 12.0988 17.3894 18.1713 16.1493C24.7037 14.8138 31.6042 12.7152 38.5047 10.6166C45.9112 8.3653 53.3177 6.09496 61.0463 4.53053C69.2808 2.85162 77.5154 2.03125 85.75 2.03125C93.9846 2.03125 102.265 2.8707 110.454 4.53053C118.182 6.11404 125.589 8.3653 132.995 10.6166C139.896 12.7152 146.796 14.8138 153.329 16.1493C159.401 17.3894 165.474 17.9999 171.5 17.9999C177.526 17.9999 183.599 17.3894 189.671 16.1493C196.204 14.8138 203.104 12.7152 210.005 10.6166C217.411 8.3653 224.818 6.09496 232.546 4.53053C240.781 2.85162 249.015 2.03125 257.25 2.03125C265.485 2.03125 273.719 2.8707 281.954 4.53053C289.682 6.11404 297.089 8.3653 304.495 10.6166C311.396 12.7152 318.296 14.8138 324.829 16.1493C330.901 17.3894 336.974 17.9999 343 17.9999C349.026 17.9999 355.099 17.3894 361.171 16.1493C367.704 14.8138 374.604 12.7152 381.505 10.6166C388.911 8.3653 396.318 6.09496 404.046 4.53053C412.281 2.85162 420.515 2.03125 428.75 2.03125C436.985 2.03125 445.219 2.8707 453.454 4.53053C461.182 6.11404 468.589 8.3653 475.995 10.6166C482.896 12.7152 489.796 14.8138 496.329 16.1493C502.401 17.3894 508.474 17.9999 514.5 17.9999C520.526 17.9999 526.599 17.3894 532.671 16.1493C539.204 14.8138 546.104 12.7152 553.005 10.6166C560.411 8.3653 567.818 6.09496 575.546 4.53053C583.781 2.85162 592.015 2.03125 600.25 2.03125C608.485 2.03125 616.765 2.8707 624.954 4.53053C632.682 6.11404 640.089 8.3653 647.495 10.6166C654.396 12.7152 661.296 14.8138 667.829 16.1493C673.901 17.3894 679.974 17.9999 686 17.9999V45.9693C457.333 45.9693 228.667 45.9693 0 45.9693Z" fill="white"/>
<mask id="path-3-outside-1_1341_14168" maskUnits="userSpaceOnUse" x="-1" y="0.232422" width="688" height="19" fill="black">
<rect fill="white" x="-1" y="0.232422" width="688" height="19"/>
<path fill-rule="evenodd" clip-rule="evenodd" d="M686 17.243C680.284 17.243 674.488 16.6632 668.643 15.4664C662.285 14.1632 655.523 12.1041 648.584 9.98841L648.512 9.96628L648.511 9.9661C641.156 7.72461 633.642 5.4347 625.77 3.8175L625.766 3.81678L625.763 3.81606C617.35 2.1064 608.795 1.23242 600.25 1.23242C591.711 1.23242 583.201 2.08621 574.738 3.81588C567.038 5.37858 559.68 7.62157 552.492 9.81264L552.492 9.81281L551.916 9.98841L551.915 9.98854C544.977 12.1041 538.215 14.1632 531.857 15.4664C526.011 16.6632 520.216 17.243 514.5 17.243C508.784 17.243 502.989 16.6632 497.143 15.4664C490.785 14.1632 484.023 12.1041 477.085 9.98854L477.084 9.98841L477.011 9.96616L477.011 9.96591L477.01 9.96561C469.655 7.72428 462.142 5.43458 454.27 3.8175L454.264 3.8164L454.259 3.81532C445.805 2.1068 437.297 1.23242 428.75 1.23242C420.209 1.23242 411.698 2.08653 403.233 3.81684C395.535 5.37959 388.178 7.62229 380.991 9.81304L380.416 9.98841L380.415 9.98854C373.477 12.104 366.715 14.163 360.357 15.4663C354.512 16.6632 348.716 17.243 343 17.243C337.284 17.243 331.488 16.6632 325.643 15.4663C319.285 14.163 312.523 12.104 305.585 9.98854L305.584 9.98841L305.512 9.96622C298.156 7.72469 290.642 5.43473 282.77 3.8175L282.764 3.8164L282.759 3.81532C274.305 2.1068 265.797 1.23242 257.25 1.23242C248.71 1.23242 240.2 2.08632 231.736 3.81624C224.037 5.37898 216.679 7.6219 209.491 9.81288L208.916 9.98841L208.915 9.98854C201.977 12.104 195.215 14.163 188.857 15.4663C183.012 16.6632 177.216 17.243 171.5 17.243C165.784 17.243 159.988 16.6632 154.143 15.4664C147.785 14.1632 141.023 12.1041 134.085 9.98854L134.084 9.98841L134.012 9.96621C126.656 7.72468 119.142 5.43473 111.27 3.8175L111.266 3.81678L111.263 3.81606C102.85 2.1064 94.2947 1.23242 85.75 1.23242C77.21 1.23242 68.6999 2.08633 60.2363 3.81625C52.5369 5.37899 45.1789 7.62192 37.9914 9.8129L37.4156 9.98841L37.4152 9.98854C30.4772 12.1041 23.7149 14.1632 17.3566 15.4664C11.5115 16.6632 5.71618 17.243 0 17.243V18.0088C6.02642 18.0088 12.0988 17.3966 18.1713 16.1533C24.7037 14.8143 31.6042 12.7102 38.5047 10.606L39.0199 10.449C46.2548 8.24371 53.497 6.03621 61.0463 4.50406C69.2808 2.82075 77.5154 1.99823 85.75 1.99823C93.9846 1.99823 102.265 2.83988 110.454 4.50406C118.182 6.09172 125.589 8.34888 132.995 10.606L132.995 10.6061C139.896 12.7102 146.796 14.8143 153.329 16.1533C159.401 17.3966 165.474 18.0088 171.5 18.0088C177.526 18.0088 183.599 17.3966 189.671 16.1533C196.204 14.8143 203.104 12.7102 210.005 10.606L210.52 10.449C217.755 8.24367 224.997 6.03621 232.546 4.50406C240.781 2.82075 249.015 1.99823 257.25 1.99823C265.485 1.99823 273.719 2.83988 281.954 4.50406C289.682 6.09169 297.089 8.3488 304.495 10.6059L304.495 10.606L304.495 10.606C311.396 12.7103 318.296 14.8143 324.829 16.1533C330.901 17.3966 336.974 18.0088 343 18.0088C349.026 18.0088 355.099 17.3966 361.171 16.1533C367.704 14.8143 374.604 12.7102 381.505 10.606L382.019 10.4491C389.255 8.24377 396.497 6.03625 404.046 4.50406C412.281 2.82075 420.515 1.99823 428.75 1.99823C436.985 1.99823 445.219 2.83988 453.454 4.50406C461.182 6.09172 468.589 8.34888 475.995 10.606C482.896 12.7103 489.796 14.8143 496.329 16.1533C502.401 17.3966 508.474 18.0088 514.5 18.0088C520.526 18.0088 526.599 17.3966 532.671 16.1533C539.204 14.8143 546.104 12.7102 553.005 10.606L553.52 10.4489L553.521 10.4488C560.755 8.24354 567.997 6.03617 575.546 4.50406C583.781 2.82075 592.015 1.99823 600.25 1.99823C608.485 1.99823 616.765 2.83988 624.954 4.50406C632.682 6.09172 640.089 8.34888 647.495 10.606L647.496 10.6062C654.396 12.7103 661.296 14.8143 667.829 16.1533C673.901 17.3966 679.974 18.0088 686 18.0088V17.243Z"/>
</mask>
<path fill-rule="evenodd" clip-rule="evenodd" d="M686 17.243C680.284 17.243 674.488 16.6632 668.643 15.4664C662.285 14.1632 655.523 12.1041 648.584 9.98841L648.512 9.96628L648.511 9.9661C641.156 7.72461 633.642 5.4347 625.77 3.8175L625.766 3.81678L625.763 3.81606C617.35 2.1064 608.795 1.23242 600.25 1.23242C591.711 1.23242 583.201 2.08621 574.738 3.81588C567.038 5.37858 559.68 7.62157 552.492 9.81264L552.492 9.81281L551.916 9.98841L551.915 9.98854C544.977 12.1041 538.215 14.1632 531.857 15.4664C526.011 16.6632 520.216 17.243 514.5 17.243C508.784 17.243 502.989 16.6632 497.143 15.4664C490.785 14.1632 484.023 12.1041 477.085 9.98854L477.084 9.98841L477.011 9.96616L477.011 9.96591L477.01 9.96561C469.655 7.72428 462.142 5.43458 454.27 3.8175L454.264 3.8164L454.259 3.81532C445.805 2.1068 437.297 1.23242 428.75 1.23242C420.209 1.23242 411.698 2.08653 403.233 3.81684C395.535 5.37959 388.178 7.62229 380.991 9.81304L380.416 9.98841L380.415 9.98854C373.477 12.104 366.715 14.163 360.357 15.4663C354.512 16.6632 348.716 17.243 343 17.243C337.284 17.243 331.488 16.6632 325.643 15.4663C319.285 14.163 312.523 12.104 305.585 9.98854L305.584 9.98841L305.512 9.96622C298.156 7.72469 290.642 5.43473 282.77 3.8175L282.764 3.8164L282.759 3.81532C274.305 2.1068 265.797 1.23242 257.25 1.23242C248.71 1.23242 240.2 2.08632 231.736 3.81624C224.037 5.37898 216.679 7.6219 209.491 9.81288L208.916 9.98841L208.915 9.98854C201.977 12.104 195.215 14.163 188.857 15.4663C183.012 16.6632 177.216 17.243 171.5 17.243C165.784 17.243 159.988 16.6632 154.143 15.4664C147.785 14.1632 141.023 12.1041 134.085 9.98854L134.084 9.98841L134.012 9.96621C126.656 7.72468 119.142 5.43473 111.27 3.8175L111.266 3.81678L111.263 3.81606C102.85 2.1064 94.2947 1.23242 85.75 1.23242C77.21 1.23242 68.6999 2.08633 60.2363 3.81625C52.5369 5.37899 45.1789 7.62192 37.9914 9.8129L37.4156 9.98841L37.4152 9.98854C30.4772 12.1041 23.7149 14.1632 17.3566 15.4664C11.5115 16.6632 5.71618 17.243 0 17.243V18.0088C6.02642 18.0088 12.0988 17.3966 18.1713 16.1533C24.7037 14.8143 31.6042 12.7102 38.5047 10.606L39.0199 10.449C46.2548 8.24371 53.497 6.03621 61.0463 4.50406C69.2808 2.82075 77.5154 1.99823 85.75 1.99823C93.9846 1.99823 102.265 2.83988 110.454 4.50406C118.182 6.09172 125.589 8.34888 132.995 10.606L132.995 10.6061C139.896 12.7102 146.796 14.8143 153.329 16.1533C159.401 17.3966 165.474 18.0088 171.5 18.0088C177.526 18.0088 183.599 17.3966 189.671 16.1533C196.204 14.8143 203.104 12.7102 210.005 10.606L210.52 10.449C217.755 8.24367 224.997 6.03621 232.546 4.50406C240.781 2.82075 249.015 1.99823 257.25 1.99823C265.485 1.99823 273.719 2.83988 281.954 4.50406C289.682 6.09169 297.089 8.3488 304.495 10.6059L304.495 10.606L304.495 10.606C311.396 12.7103 318.296 14.8143 324.829 16.1533C330.901 17.3966 336.974 18.0088 343 18.0088C349.026 18.0088 355.099 17.3966 361.171 16.1533C367.704 14.8143 374.604 12.7102 381.505 10.606L382.019 10.4491C389.255 8.24377 396.497 6.03625 404.046 4.50406C412.281 2.82075 420.515 1.99823 428.75 1.99823C436.985 1.99823 445.219 2.83988 453.454 4.50406C461.182 6.09172 468.589 8.34888 475.995 10.606C482.896 12.7103 489.796 14.8143 496.329 16.1533C502.401 17.3966 508.474 18.0088 514.5 18.0088C520.526 18.0088 526.599 17.3966 532.671 16.1533C539.204 14.8143 546.104 12.7102 553.005 10.606L553.52 10.4489L553.521 10.4488C560.755 8.24354 567.997 6.03617 575.546 4.50406C583.781 2.82075 592.015 1.99823 600.25 1.99823C608.485 1.99823 616.765 2.83988 624.954 4.50406C632.682 6.09172 640.089 8.34888 647.495 10.606L647.496 10.6062C654.396 12.7103 661.296 14.8143 667.829 16.1533C673.901 17.3966 679.974 18.0088 686 18.0088V17.243Z" fill="#222222"/>
<path fill-rule="evenodd" clip-rule="evenodd" d="M686 17.243C680.284 17.243 674.488 16.6632 668.643 15.4664C662.285 14.1632 655.523 12.1041 648.584 9.98841L648.512 9.96628L648.511 9.9661C641.156 7.72461 633.642 5.4347 625.77 3.8175L625.766 3.81678L625.763 3.81606C617.35 2.1064 608.795 1.23242 600.25 1.23242C591.711 1.23242 583.201 2.08621 574.738 3.81588C567.038 5.37858 559.68 7.62157 552.492 9.81264L552.492 9.81281L551.916 9.98841L551.915 9.98854C544.977 12.1041 538.215 14.1632 531.857 15.4664C526.011 16.6632 520.216 17.243 514.5 17.243C508.784 17.243 502.989 16.6632 497.143 15.4664C490.785 14.1632 484.023 12.1041 477.085 9.98854L477.084 9.98841L477.011 9.96616L477.011 9.96591L477.01 9.96561C469.655 7.72428 462.142 5.43458 454.27 3.8175L454.264 3.8164L454.259 3.81532C445.805 2.1068 437.297 1.23242 428.75 1.23242C420.209 1.23242 411.698 2.08653 403.233 3.81684C395.535 5.37959 388.178 7.62229 380.991 9.81304L380.416 9.98841L380.415 9.98854C373.477 12.104 366.715 14.163 360.357 15.4663C354.512 16.6632 348.716 17.243 343 17.243C337.284 17.243 331.488 16.6632 325.643 15.4663C319.285 14.163 312.523 12.104 305.585 9.98854L305.584 9.98841L305.512 9.96622C298.156 7.72469 290.642 5.43473 282.77 3.8175L282.764 3.8164L282.759 3.81532C274.305 2.1068 265.797 1.23242 257.25 1.23242C248.71 1.23242 240.2 2.08632 231.736 3.81624C224.037 5.37898 216.679 7.6219 209.491 9.81288L208.916 9.98841L208.915 9.98854C201.977 12.104 195.215 14.163 188.857 15.4663C183.012 16.6632 177.216 17.243 171.5 17.243C165.784 17.243 159.988 16.6632 154.143 15.4664C147.785 14.1632 141.023 12.1041 134.085 9.98854L134.084 9.98841L134.012 9.96621C126.656 7.72468 119.142 5.43473 111.27 3.8175L111.266 3.81678L111.263 3.81606C102.85 2.1064 94.2947 1.23242 85.75 1.23242C77.21 1.23242 68.6999 2.08633 60.2363 3.81625C52.5369 5.37899 45.1789 7.62192 37.9914 9.8129L37.4156 9.98841L37.4152 9.98854C30.4772 12.1041 23.7149 14.1632 17.3566 15.4664C11.5115 16.6632 5.71618 17.243 0 17.243V18.0088C6.02642 18.0088 12.0988 17.3966 18.1713 16.1533C24.7037 14.8143 31.6042 12.7102 38.5047 10.606L39.0199 10.449C46.2548 8.24371 53.497 6.03621 61.0463 4.50406C69.2808 2.82075 77.5154 1.99823 85.75 1.99823C93.9846 1.99823 102.265 2.83988 110.454 4.50406C118.182 6.09172 125.589 8.34888 132.995 10.606L132.995 10.6061C139.896 12.7102 146.796 14.8143 153.329 16.1533C159.401 17.3966 165.474 18.0088 171.5 18.0088C177.526 18.0088 183.599 17.3966 189.671 16.1533C196.204 14.8143 203.104 12.7102 210.005 10.606L210.52 10.449C217.755 8.24367 224.997 6.03621 232.546 4.50406C240.781 2.82075 249.015 1.99823 257.25 1.99823C265.485 1.99823 273.719 2.83988 281.954 4.50406C289.682 6.09169 297.089 8.3488 304.495 10.6059L304.495 10.606L304.495 10.606C311.396 12.7103 318.296 14.8143 324.829 16.1533C330.901 17.3966 336.974 18.0088 343 18.0088C349.026 18.0088 355.099 17.3966 361.171 16.1533C367.704 14.8143 374.604 12.7102 381.505 10.606L382.019 10.4491C389.255 8.24377 396.497 6.03625 404.046 4.50406C412.281 2.82075 420.515 1.99823 428.75 1.99823C436.985 1.99823 445.219 2.83988 453.454 4.50406C461.182 6.09172 468.589 8.34888 475.995 10.606C482.896 12.7103 489.796 14.8143 496.329 16.1533C502.401 17.3966 508.474 18.0088 514.5 18.0088C520.526 18.0088 526.599 17.3966 532.671 16.1533C539.204 14.8143 546.104 12.7102 553.005 10.606L553.52 10.4489L553.521 10.4488C560.755 8.24354 567.997 6.03617 575.546 4.50406C583.781 2.82075 592.015 1.99823 600.25 1.99823C608.485 1.99823 616.765 2.83988 624.954 4.50406C632.682 6.09172 640.089 8.34888 647.495 10.606L647.496 10.6062C654.396 12.7103 661.296 14.8143 667.829 16.1533C673.901 17.3966 679.974 18.0088 686 18.0088V17.243Z" stroke="#222222" mask="url(#path-3-outside-1_1341_14168)"/>
<mask id="path-4-outside-2_1341_14168" maskUnits="userSpaceOnUse" x="-0.958008" y="71.375" width="688" height="19" fill="black">
<rect fill="white" x="-0.958008" y="71.375" width="688" height="19"/>
<path fill-rule="evenodd" clip-rule="evenodd" d="M686.042 88.3855C680.326 88.3855 674.53 87.8058 668.685 86.609C662.327 85.3057 655.565 83.2467 648.626 81.131L648.554 81.1089L648.553 81.1087C641.198 78.8672 633.684 76.5773 625.812 74.9601L625.808 74.9594L625.805 74.9586C617.392 73.249 608.837 72.375 600.292 72.375C591.753 72.375 583.243 73.2288 574.78 74.9585C567.08 76.5212 559.722 78.7642 552.534 80.9552L552.534 80.9554L551.958 81.131L551.957 81.1311C545.019 83.2467 538.257 85.3057 531.899 86.609C526.053 87.8058 520.258 88.3855 514.542 88.3855C508.826 88.3855 503.031 87.8058 497.185 86.609C490.827 85.3057 484.065 83.2467 477.127 81.1311L477.126 81.131L477.053 81.1087L477.053 81.1085L477.052 81.1082C469.697 78.8669 462.184 76.5772 454.312 74.9601L454.306 74.959L454.301 74.9579C445.847 73.2494 437.339 72.375 428.792 72.375C420.251 72.375 411.74 73.2291 403.275 74.9594C395.577 76.5222 388.22 78.7649 381.033 80.9556L380.458 81.131L380.457 81.1311C373.519 83.2466 366.757 85.3056 360.399 86.6089C354.554 87.8057 348.758 88.3855 343.042 88.3855C337.326 88.3855 331.53 87.8057 325.685 86.6089C319.327 85.3056 312.565 83.2466 305.627 81.1311L305.626 81.131L305.554 81.1088C298.198 78.8673 290.684 76.5773 282.812 74.9601L282.806 74.959L282.801 74.9579C274.347 73.2494 265.839 72.375 257.292 72.375C248.752 72.375 240.242 73.2289 231.778 74.9588C224.079 76.5216 216.721 78.7645 209.533 80.9555L208.958 81.131L208.957 81.1311C202.019 83.2466 195.257 85.3056 188.899 86.6089C183.054 87.8057 177.258 88.3855 171.542 88.3855C165.826 88.3855 160.03 87.8058 154.185 86.609C147.827 85.3057 141.065 83.2467 134.127 81.1311L134.126 81.131L134.054 81.1088C126.698 78.8673 119.184 76.5773 111.312 74.9601L111.308 74.9594L111.305 74.9586C102.892 73.249 94.3367 72.375 85.792 72.375C77.252 72.375 68.7419 73.2289 60.2783 74.9588C52.5789 76.5216 45.2209 78.7645 38.0334 80.9555L37.4576 81.131L37.4572 81.1311C30.5192 83.2467 23.7569 85.3057 17.3986 86.609C11.5535 87.8058 5.75817 88.3855 0.0419922 88.3855V89.1513C6.06841 89.1513 12.1408 88.5392 18.2133 87.2959C24.7457 85.9569 31.6462 83.8528 38.5467 81.7486L39.0619 81.5916C46.2968 79.3863 53.539 77.1788 61.0883 75.6466C69.3228 73.9633 77.5574 73.1408 85.792 73.1408C94.0266 73.1408 102.307 73.9825 110.496 75.6466C118.224 77.2343 125.631 79.4915 133.037 81.7486L133.037 81.7487C139.938 83.8528 146.838 85.9569 153.371 87.2959C159.443 88.5392 165.516 89.1513 171.542 89.1513C177.568 89.1513 183.641 88.5392 189.713 87.2959C196.246 85.9569 203.146 83.8528 210.047 81.7486L210.562 81.5915C217.797 79.3862 225.039 77.1788 232.588 75.6466C240.823 73.9633 249.057 73.1408 257.292 73.1408C265.527 73.1408 273.761 73.9825 281.996 75.6466C289.724 77.2343 297.13 79.4914 304.537 81.7485L304.537 81.7485L304.537 81.7486C311.438 83.8528 318.338 85.9569 324.871 87.2959C330.943 88.5392 337.016 89.1513 343.042 89.1513C349.068 89.1513 355.141 88.5392 361.213 87.2959C367.746 85.9569 374.646 83.8528 381.547 81.7486L382.061 81.5917C389.297 79.3864 396.539 77.1788 404.088 75.6466C412.323 73.9633 420.557 73.1408 428.792 73.1408C437.027 73.1408 445.261 73.9825 453.496 75.6466C461.224 77.2343 468.631 79.4915 476.037 81.7486C482.938 83.8528 489.838 85.9569 496.371 87.2959C502.443 88.5392 508.516 89.1513 514.542 89.1513C520.568 89.1513 526.641 88.5392 532.713 87.2959C539.246 85.9569 546.146 83.8528 553.047 81.7486L553.562 81.5915L553.563 81.5913C560.797 79.3861 568.039 77.1787 575.588 75.6466C583.823 73.9633 592.057 73.1408 600.292 73.1408C608.527 73.1408 616.807 73.9825 624.996 75.6466C632.724 77.2343 640.131 79.4915 647.537 81.7486L647.538 81.7488C654.438 83.8529 661.338 85.9569 667.871 87.2959C673.943 88.5392 680.016 89.1513 686.042 89.1513V88.3855Z"/>
</mask>
<path fill-rule="evenodd" clip-rule="evenodd" d="M686.042 88.3855C680.326 88.3855 674.53 87.8058 668.685 86.609C662.327 85.3057 655.565 83.2467 648.626 81.131L648.554 81.1089L648.553 81.1087C641.198 78.8672 633.684 76.5773 625.812 74.9601L625.808 74.9594L625.805 74.9586C617.392 73.249 608.837 72.375 600.292 72.375C591.753 72.375 583.243 73.2288 574.78 74.9585C567.08 76.5212 559.722 78.7642 552.534 80.9552L552.534 80.9554L551.958 81.131L551.957 81.1311C545.019 83.2467 538.257 85.3057 531.899 86.609C526.053 87.8058 520.258 88.3855 514.542 88.3855C508.826 88.3855 503.031 87.8058 497.185 86.609C490.827 85.3057 484.065 83.2467 477.127 81.1311L477.126 81.131L477.053 81.1087L477.053 81.1085L477.052 81.1082C469.697 78.8669 462.184 76.5772 454.312 74.9601L454.306 74.959L454.301 74.9579C445.847 73.2494 437.339 72.375 428.792 72.375C420.251 72.375 411.74 73.2291 403.275 74.9594C395.577 76.5222 388.22 78.7649 381.033 80.9556L380.458 81.131L380.457 81.1311C373.519 83.2466 366.757 85.3056 360.399 86.6089C354.554 87.8057 348.758 88.3855 343.042 88.3855C337.326 88.3855 331.53 87.8057 325.685 86.6089C319.327 85.3056 312.565 83.2466 305.627 81.1311L305.626 81.131L305.554 81.1088C298.198 78.8673 290.684 76.5773 282.812 74.9601L282.806 74.959L282.801 74.9579C274.347 73.2494 265.839 72.375 257.292 72.375C248.752 72.375 240.242 73.2289 231.778 74.9588C224.079 76.5216 216.721 78.7645 209.533 80.9555L208.958 81.131L208.957 81.1311C202.019 83.2466 195.257 85.3056 188.899 86.6089C183.054 87.8057 177.258 88.3855 171.542 88.3855C165.826 88.3855 160.03 87.8058 154.185 86.609C147.827 85.3057 141.065 83.2467 134.127 81.1311L134.126 81.131L134.054 81.1088C126.698 78.8673 119.184 76.5773 111.312 74.9601L111.308 74.9594L111.305 74.9586C102.892 73.249 94.3367 72.375 85.792 72.375C77.252 72.375 68.7419 73.2289 60.2783 74.9588C52.5789 76.5216 45.2209 78.7645 38.0334 80.9555L37.4576 81.131L37.4572 81.1311C30.5192 83.2467 23.7569 85.3057 17.3986 86.609C11.5535 87.8058 5.75817 88.3855 0.0419922 88.3855V89.1513C6.06841 89.1513 12.1408 88.5392 18.2133 87.2959C24.7457 85.9569 31.6462 83.8528 38.5467 81.7486L39.0619 81.5916C46.2968 79.3863 53.539 77.1788 61.0883 75.6466C69.3228 73.9633 77.5574 73.1408 85.792 73.1408C94.0266 73.1408 102.307 73.9825 110.496 75.6466C118.224 77.2343 125.631 79.4915 133.037 81.7486L133.037 81.7487C139.938 83.8528 146.838 85.9569 153.371 87.2959C159.443 88.5392 165.516 89.1513 171.542 89.1513C177.568 89.1513 183.641 88.5392 189.713 87.2959C196.246 85.9569 203.146 83.8528 210.047 81.7486L210.562 81.5915C217.797 79.3862 225.039 77.1788 232.588 75.6466C240.823 73.9633 249.057 73.1408 257.292 73.1408C265.527 73.1408 273.761 73.9825 281.996 75.6466C289.724 77.2343 297.13 79.4914 304.537 81.7485L304.537 81.7485L304.537 81.7486C311.438 83.8528 318.338 85.9569 324.871 87.2959C330.943 88.5392 337.016 89.1513 343.042 89.1513C349.068 89.1513 355.141 88.5392 361.213 87.2959C367.746 85.9569 374.646 83.8528 381.547 81.7486L382.061 81.5917C389.297 79.3864 396.539 77.1788 404.088 75.6466C412.323 73.9633 420.557 73.1408 428.792 73.1408C437.027 73.1408 445.261 73.9825 453.496 75.6466C461.224 77.2343 468.631 79.4915 476.037 81.7486C482.938 83.8528 489.838 85.9569 496.371 87.2959C502.443 88.5392 508.516 89.1513 514.542 89.1513C520.568 89.1513 526.641 88.5392 532.713 87.2959C539.246 85.9569 546.146 83.8528 553.047 81.7486L553.562 81.5915L553.563 81.5913C560.797 79.3861 568.039 77.1787 575.588 75.6466C583.823 73.9633 592.057 73.1408 600.292 73.1408C608.527 73.1408 616.807 73.9825 624.996 75.6466C632.724 77.2343 640.131 79.4915 647.537 81.7486L647.538 81.7488C654.438 83.8529 661.338 85.9569 667.871 87.2959C673.943 88.5392 680.016 89.1513 686.042 89.1513V88.3855Z" fill="#222222"/>
<path fill-rule="evenodd" clip-rule="evenodd" d="M686.042 88.3855C680.326 88.3855 674.53 87.8058 668.685 86.609C662.327 85.3057 655.565 83.2467 648.626 81.131L648.554 81.1089L648.553 81.1087C641.198 78.8672 633.684 76.5773 625.812 74.9601L625.808 74.9594L625.805 74.9586C617.392 73.249 608.837 72.375 600.292 72.375C591.753 72.375 583.243 73.2288 574.78 74.9585C567.08 76.5212 559.722 78.7642 552.534 80.9552L552.534 80.9554L551.958 81.131L551.957 81.1311C545.019 83.2467 538.257 85.3057 531.899 86.609C526.053 87.8058 520.258 88.3855 514.542 88.3855C508.826 88.3855 503.031 87.8058 497.185 86.609C490.827 85.3057 484.065 83.2467 477.127 81.1311L477.126 81.131L477.053 81.1087L477.053 81.1085L477.052 81.1082C469.697 78.8669 462.184 76.5772 454.312 74.9601L454.306 74.959L454.301 74.9579C445.847 73.2494 437.339 72.375 428.792 72.375C420.251 72.375 411.74 73.2291 403.275 74.9594C395.577 76.5222 388.22 78.7649 381.033 80.9556L380.458 81.131L380.457 81.1311C373.519 83.2466 366.757 85.3056 360.399 86.6089C354.554 87.8057 348.758 88.3855 343.042 88.3855C337.326 88.3855 331.53 87.8057 325.685 86.6089C319.327 85.3056 312.565 83.2466 305.627 81.1311L305.626 81.131L305.554 81.1088C298.198 78.8673 290.684 76.5773 282.812 74.9601L282.806 74.959L282.801 74.9579C274.347 73.2494 265.839 72.375 257.292 72.375C248.752 72.375 240.242 73.2289 231.778 74.9588C224.079 76.5216 216.721 78.7645 209.533 80.9555L208.958 81.131L208.957 81.1311C202.019 83.2466 195.257 85.3056 188.899 86.6089C183.054 87.8057 177.258 88.3855 171.542 88.3855C165.826 88.3855 160.03 87.8058 154.185 86.609C147.827 85.3057 141.065 83.2467 134.127 81.1311L134.126 81.131L134.054 81.1088C126.698 78.8673 119.184 76.5773 111.312 74.9601L111.308 74.9594L111.305 74.9586C102.892 73.249 94.3367 72.375 85.792 72.375C77.252 72.375 68.7419 73.2289 60.2783 74.9588C52.5789 76.5216 45.2209 78.7645 38.0334 80.9555L37.4576 81.131L37.4572 81.1311C30.5192 83.2467 23.7569 85.3057 17.3986 86.609C11.5535 87.8058 5.75817 88.3855 0.0419922 88.3855V89.1513C6.06841 89.1513 12.1408 88.5392 18.2133 87.2959C24.7457 85.9569 31.6462 83.8528 38.5467 81.7486L39.0619 81.5916C46.2968 79.3863 53.539 77.1788 61.0883 75.6466C69.3228 73.9633 77.5574 73.1408 85.792 73.1408C94.0266 73.1408 102.307 73.9825 110.496 75.6466C118.224 77.2343 125.631 79.4915 133.037 81.7486L133.037 81.7487C139.938 83.8528 146.838 85.9569 153.371 87.2959C159.443 88.5392 165.516 89.1513 171.542 89.1513C177.568 89.1513 183.641 88.5392 189.713 87.2959C196.246 85.9569 203.146 83.8528 210.047 81.7486L210.562 81.5915C217.797 79.3862 225.039 77.1788 232.588 75.6466C240.823 73.9633 249.057 73.1408 257.292 73.1408C265.527 73.1408 273.761 73.9825 281.996 75.6466C289.724 77.2343 297.13 79.4914 304.537 81.7485L304.537 81.7485L304.537 81.7486C311.438 83.8528 318.338 85.9569 324.871 87.2959C330.943 88.5392 337.016 89.1513 343.042 89.1513C349.068 89.1513 355.141 88.5392 361.213 87.2959C367.746 85.9569 374.646 83.8528 381.547 81.7486L382.061 81.5917C389.297 79.3864 396.539 77.1788 404.088 75.6466C412.323 73.9633 420.557 73.1408 428.792 73.1408C437.027 73.1408 445.261 73.9825 453.496 75.6466C461.224 77.2343 468.631 79.4915 476.037 81.7486C482.938 83.8528 489.838 85.9569 496.371 87.2959C502.443 88.5392 508.516 89.1513 514.542 89.1513C520.568 89.1513 526.641 88.5392 532.713 87.2959C539.246 85.9569 546.146 83.8528 553.047 81.7486L553.562 81.5915L553.563 81.5913C560.797 79.3861 568.039 77.1787 575.588 75.6466C583.823 73.9633 592.057 73.1408 600.292 73.1408C608.527 73.1408 616.807 73.9825 624.996 75.6466C632.724 77.2343 640.131 79.4915 647.537 81.7486L647.538 81.7488C654.438 83.8529 661.338 85.9569 667.871 87.2959C673.943 88.5392 680.016 89.1513 686.042 89.1513V88.3855Z" stroke="#222222" mask="url(#path-4-outside-2_1341_14168)"/>
</g>
<defs>
<clipPath id="clip0_1341_14168">
<rect width="686" height="90" fill="white"/>
</clipPath>
</defs>
</svg>
