<svg width="399" height="381" viewBox="0 0 399 381" fill="none" xmlns="http://www.w3.org/2000/svg">
<circle cx="63" cy="318" r="63" fill="#0EF6F2"/>
<circle cx="336" cy="318" r="63" fill="#0059EE"/>
<circle cx="63" cy="63" r="63" fill="#0FF3EE"/>
<circle cx="336" cy="63" r="63" fill="#0059EE"/>
<circle cx="186" cy="208" r="63" fill="#0FF2ED"/>
<rect x="273" y="63" width="126" height="255" fill="#0059EE"/>
<rect y="63" width="126" height="255" fill="#0FF3EE"/>
<path d="M14.7195 103.065L110.812 21.9726L234.33 167.581L138.133 248.957L14.7195 103.065Z" fill="#0FF2ED"/>
<path d="M292.117 17.793L379.654 108.272L252.06 231.744L164.439 141.198L292.117 17.793Z" fill="#0059EE"/>
<path d="M229.491 165.977L273.267 211.222L229.296 253.773L185.479 208.493L229.491 165.977Z" fill="#0EF4EF"/>
<path opacity="0.5" d="M225.242 82.4453L268.989 127.687L208.171 186.567L164.359 141.301L225.242 82.4453Z" fill="#0059EE"/>
<circle cx="186.249" cy="163.952" r="31.5" fill="#0059EE"/>
<circle cx="251.21" cy="188.733" r="31.5" fill="#0FF2ED"/>
</svg>
