<svg width="248" height="142" viewBox="0 0 248 142" fill="none" xmlns="http://www.w3.org/2000/svg">
<g clip-path="url(#clip0_1343_2)">
<path d="M50 100C77.6142 100 100 77.6142 100 50C100 22.3858 77.6142 0 50 0C22.3858 0 0 22.3858 0 50C0 77.6142 22.3858 100 50 100Z" fill="#FFE500"/>
<path d="M150 100C177.614 100 200 77.6142 200 50C200 22.3858 177.614 0 150 0C122.386 0 100 22.3858 100 50C100 77.6142 122.386 100 150 100Z" fill="#85E383"/>
<path fill-rule="evenodd" clip-rule="evenodd" d="M2 0H12V2H2V12H0V2V0H2ZM0 98V88H2V98H12V100H2H0V98ZM101 2V12H99V2H89V0H99H101H111V2H101ZM99 88V98H89V100H99H101H111V98H101V88H99ZM200 12V2V0H198H188V2H198V12H200ZM198 100H188V98H198V88H200V98V100H198Z" fill="black"/>
<path opacity="0.5" fill-rule="evenodd" clip-rule="evenodd" d="M221.75 1L216.5 4.0311V2H2V120.5H4.0622L0 125.75V1.90735e-06H0.0310993H2.0311H216.5V-2.0311L221.75 1Z" fill="#FF0000"/>
<path fill-rule="evenodd" clip-rule="evenodd" d="M47 121.25L50.0311 116L53.0622 121.25H51V126H49.0001L49 121.25H47Z" fill="#00A3FF"/>
<path fill-rule="evenodd" clip-rule="evenodd" d="M91.208 5.71231L97.064 4.14331L95.495 9.99891L94.036 8.54081L79.382 23.1949L77.968 21.7807L92.622 7.12661L91.208 5.71231Z" fill="black"/>
<path fill-rule="evenodd" clip-rule="evenodd" d="M189.654 5.71231L195.51 4.14331L193.941 9.99891L192.483 8.54081L177.829 23.1949L176.414 21.7807L191.068 7.12661L189.654 5.71231Z" fill="black"/>
<path fill-rule="evenodd" clip-rule="evenodd" d="M147 121.25L150.031 116L153.062 121.25H151V126H149V121.25H147Z" fill="#00A3FF"/>
<path fill-rule="evenodd" clip-rule="evenodd" d="M210.281 53L205.031 49.9689L210.281 46.9378V49H215.031V50.9999L210.281 51V53Z" fill="#00A3FF"/>
<path fill-rule="evenodd" clip-rule="evenodd" d="M2 113.031L7.25 116.062V114.031H77.75V112.031H7.25V110L2 113.031ZM199.75 113.031L194.5 116.062V114.031H124V112.031H194.5V110L199.75 113.031Z" fill="#00A3FF"/>
<path d="M32.7968 53.6037L32.7918 51.4311H33.0802L35.8245 48.3636H37.9275L34.5518 52.1222H34.1789L32.7968 53.6037ZM31.1562 56V45.8182H32.9559V56H31.1562ZM35.9488 56L33.463 52.5249L34.676 51.2571L38.1015 56H35.9488ZM41.3243 56.1541C40.8404 56.1541 40.4046 56.0679 40.0168 55.8956C39.6323 55.7199 39.3274 55.4614 39.102 55.12C38.8799 54.7786 38.7689 54.3577 38.7689 53.8572C38.7689 53.4264 38.8485 53.0701 39.0075 52.7884C39.1666 52.5066 39.3837 52.2812 39.6588 52.1122C39.9339 51.9432 40.2438 51.8156 40.5885 51.7294C40.9365 51.6399 41.2961 51.5753 41.6673 51.5355C42.1148 51.4891 42.4777 51.4477 42.7561 51.4112C43.0345 51.3714 43.2367 51.3118 43.3627 51.2322C43.4919 51.1494 43.5566 51.0218 43.5566 50.8494V50.8196C43.5566 50.4451 43.4455 50.1551 43.2235 49.9496C43.0014 49.7441 42.6816 49.6413 42.2639 49.6413C41.8231 49.6413 41.4735 49.7375 41.2149 49.9297C40.9597 50.1219 40.7874 50.349 40.6979 50.6108L39.0175 50.3722C39.1501 49.9081 39.3688 49.5204 39.6737 49.2088C39.9787 48.8939 40.3515 48.6586 40.7923 48.5028C41.2332 48.3438 41.7204 48.2642 42.254 48.2642C42.6219 48.2642 42.9881 48.3073 43.3527 48.3935C43.7173 48.4796 44.0504 48.6222 44.352 48.821C44.6536 49.0166 44.8956 49.2834 45.0779 49.6214C45.2635 49.9595 45.3563 50.3821 45.3563 50.8892V56H43.6262V54.951H43.5665C43.4571 55.1631 43.303 55.362 43.1041 55.5476C42.9086 55.7299 42.6617 55.8774 42.3634 55.9901C42.0684 56.0994 41.722 56.1541 41.3243 56.1541ZM41.7916 54.8317C42.1529 54.8317 42.4661 54.7604 42.7313 54.6179C42.9964 54.4721 43.2003 54.2798 43.3428 54.0412C43.4886 53.8026 43.5615 53.5424 43.5615 53.2607V52.3608C43.5052 52.4072 43.4091 52.4503 43.2732 52.4901C43.1406 52.5298 42.9914 52.5646 42.8257 52.5945C42.66 52.6243 42.4959 52.6508 42.3335 52.674C42.1711 52.6972 42.0303 52.7171 41.911 52.7337C41.6425 52.7701 41.4022 52.8298 41.1901 52.9126C40.978 52.9955 40.8106 53.1115 40.6879 53.2607C40.5653 53.4065 40.504 53.5954 40.504 53.8274C40.504 54.1589 40.625 54.4091 40.8669 54.5781C41.1089 54.7472 41.4171 54.8317 41.7916 54.8317ZM48.8066 53.6037L48.8016 51.4311H49.0899L51.8343 48.3636H53.9372L50.5615 52.1222H50.1887L48.8066 53.6037ZM47.1659 56V45.8182H48.9656V56H47.1659ZM51.9585 56L49.4727 52.5249L50.6858 51.2571L54.1112 56H51.9585ZM57.3341 56.1541C56.8502 56.1541 56.4143 56.0679 56.0265 55.8956C55.6421 55.7199 55.3372 55.4614 55.1118 55.12C54.8897 54.7786 54.7787 54.3577 54.7787 53.8572C54.7787 53.4264 54.8582 53.0701 55.0173 52.7884C55.1764 52.5066 55.3935 52.2812 55.6686 52.1122C55.9437 51.9432 56.2536 51.8156 56.5983 51.7294C56.9463 51.6399 57.3059 51.5753 57.6771 51.5355C58.1246 51.4891 58.4875 51.4477 58.7659 51.4112C59.0443 51.3714 59.2465 51.3118 59.3724 51.2322C59.5017 51.1494 59.5663 51.0218 59.5663 50.8494V50.8196C59.5663 50.4451 59.4553 50.1551 59.2332 49.9496C59.0112 49.7441 58.6913 49.6413 58.2737 49.6413C57.8329 49.6413 57.4832 49.7375 57.2247 49.9297C56.9695 50.1219 56.7971 50.349 56.7077 50.6108L55.0273 50.3722C55.1598 49.9081 55.3786 49.5204 55.6835 49.2088C55.9884 48.8939 56.3613 48.6586 56.8021 48.5028C57.2429 48.3438 57.7301 48.2642 58.2638 48.2642C58.6317 48.2642 58.9979 48.3073 59.3625 48.3935C59.7271 48.4796 60.0602 48.6222 60.3618 48.821C60.6634 49.0166 60.9053 49.2834 61.0876 49.6214C61.2732 49.9595 61.366 50.3821 61.366 50.8892V56H59.6359V54.951H59.5763C59.4669 55.1631 59.3128 55.362 59.1139 55.5476C58.9184 55.7299 58.6714 55.8774 58.3731 55.9901C58.0782 56.0994 57.7318 56.1541 57.3341 56.1541ZM57.8014 54.8317C58.1627 54.8317 58.4759 54.7604 58.741 54.6179C59.0062 54.4721 59.21 54.2798 59.3525 54.0412C59.4984 53.8026 59.5713 53.5424 59.5713 53.2607V52.3608C59.5149 52.4072 59.4188 52.4503 59.2829 52.4901C59.1504 52.5298 59.0012 52.5646 58.8355 52.5945C58.6698 52.6243 58.5057 52.6508 58.3433 52.674C58.1809 52.6972 58.04 52.7171 57.9207 52.7337C57.6523 52.7701 57.412 52.8298 57.1998 52.9126C56.9877 52.9955 56.8203 53.1115 56.6977 53.2607C56.5751 53.4065 56.5138 53.5954 56.5138 53.8274C56.5138 54.1589 56.6347 54.4091 56.8767 54.5781C57.1186 54.7472 57.4269 54.8317 57.8014 54.8317ZM66.5067 56.1491C65.7609 56.1491 65.1146 55.9851 64.5677 55.657C64.0209 55.3288 63.5966 54.8698 63.295 54.2798C62.9967 53.6899 62.8476 53.0005 62.8476 52.2116C62.8476 51.4228 62.9967 50.7318 63.295 50.1385C63.5966 49.5452 64.0209 49.0845 64.5677 48.7564C65.1146 48.4283 65.7609 48.2642 66.5067 48.2642C67.2524 48.2642 67.8987 48.4283 68.4456 48.7564C68.9925 49.0845 69.415 49.5452 69.7133 50.1385C70.0149 50.7318 70.1657 51.4228 70.1657 52.2116C70.1657 53.0005 70.0149 53.6899 69.7133 54.2798C69.415 54.8698 68.9925 55.3288 68.4456 55.657C67.8987 55.9851 67.2524 56.1491 66.5067 56.1491ZM66.5166 54.7074C66.921 54.7074 67.259 54.5964 67.5308 54.3743C67.8026 54.1489 68.0048 53.8473 68.1373 53.4695C68.2732 53.0916 68.3412 52.6707 68.3412 52.2067C68.3412 51.7393 68.2732 51.3168 68.1373 50.9389C68.0048 50.5578 67.8026 50.2545 67.5308 50.0291C67.259 49.8037 66.921 49.6911 66.5166 49.6911C66.1023 49.6911 65.7576 49.8037 65.4825 50.0291C65.2107 50.2545 65.0069 50.5578 64.871 50.9389C64.7384 51.3168 64.6721 51.7393 64.6721 52.2067C64.6721 52.6707 64.7384 53.0916 64.871 53.4695C65.0069 53.8473 65.2107 54.1489 65.4825 54.3743C65.7576 54.5964 66.1023 54.7074 66.5166 54.7074Z" fill="black"/>
<path d="M135.828 45.8182V56H134.188L129.39 49.0646H129.306V56H127.461V45.8182H129.112L133.904 52.7585H133.994V45.8182H135.828ZM139.146 56H137.177L140.762 45.8182H143.039L146.628 56H144.659L141.94 47.9062H141.86L139.146 56ZM139.21 52.0078H144.58V53.4893H139.21V52.0078ZM148.169 45.8182L150.819 53.8324H150.923L153.568 45.8182H155.597L152.007 56H149.73L146.146 45.8182H148.169ZM156.938 56V45.8182H163.56V47.3643H158.782V50.1286H163.217V51.6747H158.782V54.4538H163.6V56H156.938ZM165.442 56V45.8182H169.26C170.042 45.8182 170.698 45.9541 171.229 46.2259C171.762 46.4976 172.165 46.8788 172.437 47.3693C172.712 47.8565 172.849 48.425 172.849 49.0746C172.849 49.7275 172.71 50.2943 172.432 50.7749C172.157 51.2521 171.751 51.6217 171.214 51.8835C170.677 52.142 170.017 52.2713 169.235 52.2713H166.516V50.7401H168.987C169.444 50.7401 169.818 50.6771 170.11 50.5511C170.402 50.4219 170.617 50.2346 170.756 49.9893C170.899 49.7408 170.97 49.4358 170.97 49.0746C170.97 48.7133 170.899 48.4051 170.756 48.1499C170.614 47.8913 170.397 47.6958 170.105 47.5632C169.813 47.4273 169.437 47.3594 168.977 47.3594H167.286V56H165.442ZM170.702 51.3864L173.222 56H171.164L168.688 51.3864H170.702Z" fill="black"/>
<path d="M80.8402 118V116.763L84.1225 113.545C84.4364 113.228 84.698 112.946 84.9073 112.7C85.1166 112.454 85.2736 112.216 85.3782 111.985C85.4828 111.754 85.5352 111.508 85.5352 111.246C85.5352 110.948 85.4674 110.692 85.332 110.48C85.1966 110.264 85.0104 110.098 84.7734 109.981C84.5365 109.864 84.2672 109.806 83.9656 109.806C83.6547 109.806 83.3823 109.87 83.1484 110C82.9145 110.126 82.733 110.306 82.6037 110.54C82.4775 110.774 82.4144 111.052 82.4144 111.375H80.7848C80.7848 110.775 80.9218 110.254 81.1957 109.81C81.4696 109.367 81.8466 109.024 82.3267 108.781C82.8099 108.538 83.3639 108.416 83.9886 108.416C84.6226 108.416 85.1797 108.535 85.6598 108.772C86.1399 109.009 86.5123 109.333 86.777 109.746C87.0447 110.158 87.1786 110.629 87.1786 111.158C87.1786 111.512 87.1109 111.86 86.9755 112.202C86.8401 112.543 86.6016 112.922 86.2599 113.337C85.9214 113.753 85.4459 114.256 84.8335 114.847L83.2038 116.504V116.569H87.3217V118H80.8402ZM92.4091 118.18C91.6489 118.18 90.9964 117.988 90.4517 117.603C89.91 117.215 89.493 116.657 89.2006 115.927C88.9113 115.195 88.7667 114.313 88.7667 113.282C88.7698 112.251 88.916 111.374 89.2053 110.651C89.4976 109.924 89.9147 109.37 90.4563 108.989C91.0011 108.607 91.652 108.416 92.4091 108.416C93.1662 108.416 93.8171 108.607 94.3619 108.989C94.9066 109.37 95.3236 109.924 95.6129 110.651C95.9053 111.377 96.0515 112.254 96.0515 113.282C96.0515 114.316 95.9053 115.199 95.6129 115.932C95.3236 116.661 94.9066 117.218 94.3619 117.603C93.8202 117.988 93.1693 118.18 92.4091 118.18ZM92.4091 116.735C93 116.735 93.4663 116.444 93.8079 115.863C94.1526 115.278 94.3249 114.418 94.3249 113.282C94.3249 112.531 94.2464 111.9 94.0895 111.389C93.9325 110.878 93.7109 110.494 93.4247 110.235C93.1385 109.973 92.8 109.843 92.4091 109.843C91.8213 109.843 91.3565 110.135 91.0149 110.72C90.6733 111.301 90.5009 112.156 90.4979 113.282C90.4948 114.036 90.5702 114.67 90.7241 115.184C90.881 115.698 91.1026 116.086 91.3888 116.347C91.6751 116.606 92.0152 116.735 92.4091 116.735ZM101.08 118.18C100.32 118.18 99.6673 117.988 99.1226 117.603C98.5809 117.215 98.1639 116.657 97.8715 115.927C97.5822 115.195 97.4376 114.313 97.4376 113.282C97.4407 112.251 97.5869 111.374 97.8762 110.651C98.1685 109.924 98.5856 109.37 99.1272 108.989C99.672 108.607 100.323 108.416 101.08 108.416C101.837 108.416 102.488 108.607 103.033 108.989C103.578 109.37 103.995 109.924 104.284 110.651C104.576 111.377 104.722 112.254 104.722 113.282C104.722 114.316 104.576 115.199 104.284 115.932C103.995 116.661 103.578 117.218 103.033 117.603C102.491 117.988 101.84 118.18 101.08 118.18ZM101.08 116.735C101.671 116.735 102.137 116.444 102.479 115.863C102.823 115.278 102.996 114.418 102.996 113.282C102.996 112.531 102.917 111.9 102.76 111.389C102.603 110.878 102.382 110.494 102.096 110.235C101.809 109.973 101.471 109.843 101.08 109.843C100.492 109.843 100.027 110.135 99.6858 110.72C99.3442 111.301 99.1718 112.156 99.1688 113.282C99.1657 114.036 99.2411 114.67 99.395 115.184C99.5519 115.698 99.7735 116.086 100.06 116.347C100.346 116.606 100.686 116.735 101.08 116.735ZM106.275 120.659V110.909H107.918V112.082H108.015C108.101 111.909 108.223 111.726 108.38 111.532C108.537 111.335 108.749 111.168 109.017 111.029C109.285 110.888 109.626 110.817 110.042 110.817C110.59 110.817 111.084 110.957 111.524 111.237C111.967 111.514 112.318 111.925 112.576 112.469C112.838 113.011 112.969 113.676 112.969 114.464C112.969 115.242 112.841 115.904 112.585 116.449C112.33 116.994 111.982 117.409 111.542 117.695C111.102 117.982 110.603 118.125 110.046 118.125C109.64 118.125 109.303 118.057 109.035 117.922C108.768 117.786 108.552 117.623 108.389 117.432C108.229 117.238 108.104 117.055 108.015 116.883H107.946V120.659H106.275ZM107.914 114.455C107.914 114.913 107.978 115.315 108.107 115.659C108.24 116.004 108.429 116.273 108.675 116.467C108.925 116.658 109.226 116.754 109.58 116.754C109.949 116.754 110.259 116.655 110.508 116.458C110.757 116.258 110.945 115.986 111.071 115.641C111.2 115.293 111.265 114.898 111.265 114.455C111.265 114.014 111.202 113.624 111.076 113.282C110.95 112.94 110.762 112.673 110.513 112.479C110.263 112.285 109.952 112.188 109.58 112.188C109.223 112.188 108.92 112.282 108.671 112.469C108.421 112.657 108.232 112.92 108.103 113.259C107.977 113.597 107.914 113.996 107.914 114.455ZM115.5 110.909L116.931 113.527L118.385 110.909H120.153L118.016 114.455L120.19 118H118.431L116.931 115.447L115.444 118H113.671L115.832 114.455L113.727 110.909H115.5Z" fill="#00A3FF"/>
<path d="M39.0089 138.119C38.4407 138.119 37.9322 138.013 37.4833 137.8C37.0344 137.584 36.6779 137.288 36.4137 136.913C36.1523 136.538 36.0131 136.109 35.9961 135.626H37.5302C37.5586 135.984 37.7134 136.277 37.9947 136.504C38.2759 136.729 38.614 136.841 39.0089 136.841C39.3185 136.841 39.5941 136.77 39.8356 136.628C40.0771 136.486 40.2674 136.288 40.4066 136.036C40.5458 135.783 40.614 135.494 40.6112 135.17C40.614 134.841 40.5444 134.548 40.4023 134.293C40.2603 134.037 40.0657 133.837 39.8185 133.692C39.5714 133.544 39.2873 133.47 38.9663 133.47C38.7049 133.467 38.4478 133.516 38.195 133.615C37.9421 133.714 37.7418 133.845 37.5941 134.007L36.1665 133.773L36.6225 129.273H41.685V130.594H37.9308L37.6793 132.908H37.7305C37.8924 132.717 38.1211 132.56 38.4165 132.435C38.712 132.307 39.0359 132.243 39.3881 132.243C39.9165 132.243 40.3881 132.368 40.8029 132.618C41.2177 132.865 41.5444 133.206 41.783 133.641C42.0217 134.075 42.141 134.572 42.141 135.132C42.141 135.709 42.0075 136.223 41.7404 136.675C41.4762 137.124 41.1083 137.477 40.6367 137.736C40.168 137.991 39.6254 138.119 39.0089 138.119ZM46.7944 138.166C46.0927 138.166 45.4904 137.989 44.9876 137.634C44.4876 137.276 44.1026 136.76 43.8327 136.087C43.5657 135.411 43.4322 134.597 43.4322 133.645C43.435 132.693 43.57 131.884 43.837 131.216C44.1069 130.545 44.4918 130.034 44.9918 129.682C45.4947 129.33 46.0955 129.153 46.7944 129.153C47.4933 129.153 48.0941 129.33 48.5969 129.682C49.0998 130.034 49.4847 130.545 49.7518 131.216C50.0217 131.886 50.1566 132.696 50.1566 133.645C50.1566 134.599 50.0217 135.415 49.7518 136.091C49.4847 136.764 49.0998 137.278 48.5969 137.634C48.0969 137.989 47.4961 138.166 46.7944 138.166ZM46.7944 136.832C47.3398 136.832 47.7702 136.564 48.0856 136.027C48.4038 135.487 48.5629 134.693 48.5629 133.645C48.5629 132.952 48.4904 132.369 48.3455 131.898C48.2006 131.426 47.9961 131.071 47.7319 130.832C47.4677 130.591 47.1552 130.47 46.7944 130.47C46.2518 130.47 45.8228 130.74 45.5075 131.28C45.1921 131.817 45.033 132.605 45.0302 133.645C45.0273 134.341 45.0969 134.926 45.239 135.401C45.3839 135.875 45.5884 136.233 45.8526 136.474C46.1168 136.713 46.4308 136.832 46.7944 136.832ZM51.5895 140.455V131.455H53.1065V132.537H53.196C53.2756 132.378 53.3878 132.209 53.5327 132.03C53.6776 131.848 53.8736 131.693 54.1207 131.565C54.3679 131.435 54.6832 131.369 55.0668 131.369C55.5724 131.369 56.0284 131.499 56.4347 131.757C56.8438 132.013 57.1676 132.392 57.4062 132.895C57.6477 133.395 57.7685 134.009 57.7685 134.736C57.7685 135.455 57.6506 136.065 57.4148 136.568C57.179 137.071 56.858 137.455 56.4517 137.719C56.0455 137.983 55.5852 138.115 55.071 138.115C54.696 138.115 54.3849 138.053 54.1378 137.928C53.8906 137.803 53.6918 137.652 53.5412 137.476C53.3935 137.297 53.2784 137.128 53.196 136.969H53.1321V140.455H51.5895ZM53.1023 134.727C53.1023 135.151 53.1619 135.521 53.2812 135.839C53.4034 136.158 53.5781 136.406 53.8054 136.585C54.0355 136.761 54.3139 136.849 54.6406 136.849C54.9815 136.849 55.267 136.759 55.4972 136.577C55.7273 136.392 55.9006 136.141 56.017 135.822C56.1364 135.501 56.196 135.136 56.196 134.727C56.196 134.321 56.1378 133.96 56.0213 133.645C55.9048 133.33 55.7315 133.082 55.5014 132.903C55.2713 132.724 54.9844 132.635 54.6406 132.635C54.3111 132.635 54.0312 132.722 53.8011 132.895C53.571 133.068 53.3963 133.311 53.277 133.624C53.1605 133.936 53.1023 134.304 53.1023 134.727ZM60.1048 131.455L61.4258 133.871L62.7681 131.455H64.4002L62.4272 134.727L64.4343 138H62.8107L61.4258 135.643L60.0536 138H58.4173L60.4116 134.727L58.4684 131.455H60.1048Z" fill="#00A3FF"/>
<path d="M136.642 129.273V138H135.061V130.811H135.01L132.968 132.115V130.666L135.137 129.273H136.642ZM141.892 138.119C141.324 138.119 140.815 138.013 140.366 137.8C139.917 137.584 139.561 137.288 139.297 136.913C139.035 136.538 138.896 136.109 138.879 135.626H140.413C140.441 135.984 140.596 136.277 140.877 136.504C141.159 136.729 141.497 136.841 141.892 136.841C142.201 136.841 142.477 136.77 142.718 136.628C142.96 136.486 143.15 136.288 143.289 136.036C143.429 135.783 143.497 135.494 143.494 135.17C143.497 134.841 143.427 134.548 143.285 134.293C143.143 134.037 142.949 133.837 142.701 133.692C142.454 133.544 142.17 133.47 141.849 133.47C141.588 133.467 141.331 133.516 141.078 133.615C140.825 133.714 140.625 133.845 140.477 134.007L139.049 133.773L139.505 129.273H144.568V130.594H140.814L140.562 132.908H140.613C140.775 132.717 141.004 132.56 141.299 132.435C141.595 132.307 141.919 132.243 142.271 132.243C142.799 132.243 143.271 132.368 143.686 132.618C144.1 132.865 144.427 133.206 144.666 133.641C144.904 134.075 145.024 134.572 145.024 135.132C145.024 135.709 144.89 136.223 144.623 136.675C144.359 137.124 143.991 137.477 143.52 137.736C143.051 137.991 142.508 138.119 141.892 138.119ZM149.677 138.166C148.975 138.166 148.373 137.989 147.87 137.634C147.37 137.276 146.985 136.76 146.716 136.087C146.449 135.411 146.315 134.597 146.315 133.645C146.318 132.693 146.453 131.884 146.72 131.216C146.99 130.545 147.375 130.034 147.875 129.682C148.377 129.33 148.978 129.153 149.677 129.153C150.376 129.153 150.977 129.33 151.48 129.682C151.983 130.034 152.368 130.545 152.635 131.216C152.904 131.886 153.039 132.696 153.039 133.645C153.039 134.599 152.904 135.415 152.635 136.091C152.368 136.764 151.983 137.278 151.48 137.634C150.98 137.989 150.379 138.166 149.677 138.166ZM149.677 136.832C150.223 136.832 150.653 136.564 150.968 136.027C151.287 135.487 151.446 134.693 151.446 133.645C151.446 132.952 151.373 132.369 151.228 131.898C151.083 131.426 150.879 131.071 150.615 130.832C150.35 130.591 150.038 130.47 149.677 130.47C149.135 130.47 148.706 130.74 148.39 131.28C148.075 131.817 147.916 132.605 147.913 133.645C147.91 134.341 147.98 134.926 148.122 135.401C148.267 135.875 148.471 136.233 148.735 136.474C149 136.713 149.314 136.832 149.677 136.832ZM154.472 140.455V131.455H155.989V132.537H156.079C156.158 132.378 156.271 132.209 156.415 132.03C156.56 131.848 156.756 131.693 157.004 131.565C157.251 131.435 157.566 131.369 157.95 131.369C158.455 131.369 158.911 131.499 159.317 131.757C159.727 132.013 160.05 132.392 160.289 132.895C160.531 133.395 160.651 134.009 160.651 134.736C160.651 135.455 160.533 136.065 160.298 136.568C160.062 137.071 159.741 137.455 159.335 137.719C158.928 137.983 158.468 138.115 157.954 138.115C157.579 138.115 157.268 138.053 157.021 137.928C156.773 137.803 156.575 137.652 156.424 137.476C156.276 137.297 156.161 137.128 156.079 136.969H156.015V140.455H154.472ZM155.985 134.727C155.985 135.151 156.045 135.521 156.164 135.839C156.286 136.158 156.461 136.406 156.688 136.585C156.918 136.761 157.197 136.849 157.523 136.849C157.864 136.849 158.15 136.759 158.38 136.577C158.61 136.392 158.783 136.141 158.9 135.822C159.019 135.501 159.079 135.136 159.079 134.727C159.079 134.321 159.021 133.96 158.904 133.645C158.788 133.33 158.614 133.082 158.384 132.903C158.154 132.724 157.867 132.635 157.523 132.635C157.194 132.635 156.914 132.722 156.684 132.895C156.454 133.068 156.279 133.311 156.16 133.624C156.043 133.936 155.985 134.304 155.985 134.727ZM162.988 131.455L164.309 133.871L165.651 131.455H167.283L165.31 134.727L167.317 138H165.694L164.309 135.643L162.936 138H161.3L163.294 134.727L161.351 131.455H162.988Z" fill="#00A3FF"/>
<path d="M221.009 54.1193C220.441 54.1193 219.932 54.0128 219.483 53.7997C219.034 53.5838 218.678 53.2884 218.414 52.9134C218.152 52.5384 218.013 52.1094 217.996 51.6264H219.53C219.559 51.9844 219.713 52.277 219.995 52.5043C220.276 52.7287 220.614 52.8409 221.009 52.8409C221.319 52.8409 221.594 52.7699 221.836 52.6278C222.077 52.4858 222.267 52.2884 222.407 52.0355C222.546 51.7827 222.614 51.4943 222.611 51.1705C222.614 50.8409 222.544 50.5483 222.402 50.2926C222.26 50.0369 222.066 49.8366 221.819 49.6918C221.571 49.544 221.287 49.4702 220.966 49.4702C220.705 49.4673 220.448 49.5156 220.195 49.6151C219.942 49.7145 219.742 49.8452 219.594 50.0071L218.167 49.7727L218.623 45.2727H223.685V46.5938H219.931L219.679 48.9077H219.73C219.892 48.7173 220.121 48.5597 220.417 48.4347C220.712 48.3068 221.036 48.2429 221.388 48.2429C221.917 48.2429 222.388 48.3679 222.803 48.6179C223.218 48.8651 223.544 49.206 223.783 49.6406C224.022 50.0753 224.141 50.5724 224.141 51.1321C224.141 51.7088 224.007 52.223 223.74 52.6747C223.476 53.1236 223.108 53.4773 222.637 53.7358C222.168 53.9915 221.625 54.1193 221.009 54.1193ZM228.794 54.1662C228.093 54.1662 227.49 53.9886 226.988 53.6335C226.488 53.2756 226.103 52.7599 225.833 52.0866C225.566 51.4105 225.432 50.5966 225.432 49.6449C225.435 48.6932 225.57 47.8835 225.837 47.2159C226.107 46.5455 226.492 46.0341 226.992 45.6818C227.495 45.3295 228.096 45.1534 228.794 45.1534C229.493 45.1534 230.094 45.3295 230.597 45.6818C231.1 46.0341 231.485 46.5455 231.752 47.2159C232.022 47.8864 232.157 48.696 232.157 49.6449C232.157 50.5994 232.022 51.4148 231.752 52.0909C231.485 52.7642 231.1 53.2784 230.597 53.6335C230.097 53.9886 229.496 54.1662 228.794 54.1662ZM228.794 52.8324C229.34 52.8324 229.77 52.5639 230.086 52.027C230.404 51.4872 230.563 50.6932 230.563 49.6449C230.563 48.9517 230.49 48.3693 230.346 47.8977C230.201 47.4261 229.996 47.071 229.732 46.8324C229.468 46.5909 229.155 46.4702 228.794 46.4702C228.252 46.4702 227.823 46.7401 227.507 47.2798C227.192 47.8168 227.033 48.6051 227.03 49.6449C227.027 50.3409 227.097 50.9261 227.239 51.4006C227.384 51.875 227.588 52.233 227.853 52.4744C228.117 52.7131 228.431 52.8324 228.794 52.8324ZM233.589 56.4545V47.4545H235.107V48.5369H235.196C235.276 48.3778 235.388 48.2088 235.533 48.0298C235.678 47.848 235.874 47.6932 236.121 47.5653C236.368 47.4347 236.683 47.3693 237.067 47.3693C237.572 47.3693 238.028 47.4986 238.435 47.7571C238.844 48.0128 239.168 48.392 239.406 48.8949C239.648 49.3949 239.768 50.0085 239.768 50.7358C239.768 51.4545 239.651 52.0653 239.415 52.5682C239.179 53.071 238.858 53.4545 238.452 53.7188C238.045 53.983 237.585 54.1151 237.071 54.1151C236.696 54.1151 236.385 54.0526 236.138 53.9276C235.891 53.8026 235.692 53.652 235.541 53.4759C235.393 53.2969 235.278 53.1278 235.196 52.9688H235.132V56.4545H233.589ZM235.102 50.7273C235.102 51.1506 235.162 51.5213 235.281 51.8395C235.403 52.1577 235.578 52.4062 235.805 52.5852C236.036 52.7614 236.314 52.8494 236.641 52.8494C236.982 52.8494 237.267 52.7585 237.497 52.5767C237.727 52.392 237.901 52.1406 238.017 51.8224C238.136 51.5014 238.196 51.1364 238.196 50.7273C238.196 50.321 238.138 49.9602 238.021 49.6449C237.905 49.3295 237.732 49.0824 237.501 48.9034C237.271 48.7244 236.984 48.6349 236.641 48.6349C236.311 48.6349 236.031 48.7216 235.801 48.8949C235.571 49.0682 235.396 49.3111 235.277 49.6236C235.161 49.9361 235.102 50.304 235.102 50.7273ZM242.105 47.4545L243.426 49.8707L244.768 47.4545H246.4L244.427 50.7273L246.434 54H244.811L243.426 51.6435L242.054 54H240.417L242.412 50.7273L240.468 47.4545H242.105Z" fill="#00A3FF"/>
</g>
<defs>
<clipPath id="clip0_1343_2">
<rect width="248" height="142" fill="white"/>
</clipPath>
</defs>
<!-- made by UXKM, K.S.Chu -->
</svg>
