<svg width="233" height="126" viewBox="0 0 233 126" fill="none" xmlns="http://www.w3.org/2000/svg">
<g clip-path="url(#clip0_1343_26)">
<path d="M100 0H0V100H100V0Z" fill="#FFE600"/>
<path d="M200 0H100V100H200V0Z" fill="#85E383"/>
<path fill-rule="evenodd" clip-rule="evenodd" d="M2 0H12V2H2V12H0V2V0H2ZM0 98V88H2V98H12V100H2H0V98ZM101 2V12H99V2H89V0H99H101H111V2H101ZM99 88V98H89V100H99H101H111V98H101V88H99ZM200 12V2V0H198H188V2H198V12H200ZM198 100H188V98H198V88H200V98V100H198Z" fill="black"/>
<path opacity="0.5" fill-rule="evenodd" clip-rule="evenodd" d="M222 0L216.5 4.0311V2H2V120.5H4.0622L0 126V2V0H0.0310993H2.0311H216.5H222Z" fill="#FF0000"/>
<path fill-rule="evenodd" clip-rule="evenodd" d="M210.031 2L207 7.25H209.031V40.75H211.031V7.25H213.062L210.031 2ZM210.031 99.75L207 94.5H209.031V61H211.031V94.5H213.062L210.031 99.75Z" fill="#00A3FF"/>
<path fill-rule="evenodd" clip-rule="evenodd" d="M2 113.031L7.25 116.062V114.031H77.75V112.031H7.25V110L2 113.031ZM199.75 113.031L194.5 116.062V114.031H124V112.031H194.5V110L199.75 113.031Z" fill="#00A3FF"/>
<path d="M32.7968 53.6037L32.7918 51.4311H33.0802L35.8245 48.3636H37.9275L34.5518 52.1222H34.1789L32.7968 53.6037ZM31.1562 56V45.8182H32.9559V56H31.1562ZM35.9488 56L33.463 52.5249L34.676 51.2571L38.1015 56H35.9488ZM41.3243 56.1541C40.8404 56.1541 40.4046 56.0679 40.0168 55.8956C39.6323 55.7199 39.3274 55.4614 39.102 55.12C38.8799 54.7786 38.7689 54.3577 38.7689 53.8572C38.7689 53.4264 38.8485 53.0701 39.0075 52.7884C39.1666 52.5066 39.3837 52.2812 39.6588 52.1122C39.9339 51.9432 40.2438 51.8156 40.5885 51.7294C40.9365 51.6399 41.2961 51.5753 41.6673 51.5355C42.1148 51.4891 42.4777 51.4477 42.7561 51.4112C43.0345 51.3714 43.2367 51.3118 43.3627 51.2322C43.4919 51.1494 43.5566 51.0218 43.5566 50.8494V50.8196C43.5566 50.4451 43.4455 50.1551 43.2235 49.9496C43.0014 49.7441 42.6816 49.6413 42.2639 49.6413C41.8231 49.6413 41.4735 49.7375 41.2149 49.9297C40.9597 50.1219 40.7874 50.349 40.6979 50.6108L39.0175 50.3722C39.1501 49.9081 39.3688 49.5204 39.6737 49.2088C39.9787 48.8939 40.3515 48.6586 40.7923 48.5028C41.2332 48.3438 41.7204 48.2642 42.254 48.2642C42.6219 48.2642 42.9881 48.3073 43.3527 48.3935C43.7173 48.4796 44.0504 48.6222 44.352 48.821C44.6536 49.0166 44.8956 49.2834 45.0779 49.6214C45.2635 49.9595 45.3563 50.3821 45.3563 50.8892V56H43.6262V54.951H43.5665C43.4571 55.1631 43.303 55.362 43.1041 55.5476C42.9086 55.7299 42.6617 55.8774 42.3634 55.9901C42.0684 56.0994 41.722 56.1541 41.3243 56.1541ZM41.7916 54.8317C42.1529 54.8317 42.4661 54.7604 42.7313 54.6179C42.9964 54.4721 43.2003 54.2798 43.3428 54.0412C43.4886 53.8026 43.5615 53.5424 43.5615 53.2607V52.3608C43.5052 52.4072 43.4091 52.4503 43.2732 52.4901C43.1406 52.5298 42.9914 52.5646 42.8257 52.5945C42.66 52.6243 42.4959 52.6508 42.3335 52.674C42.1711 52.6972 42.0303 52.7171 41.911 52.7337C41.6425 52.7701 41.4022 52.8298 41.1901 52.9126C40.978 52.9955 40.8106 53.1115 40.6879 53.2607C40.5653 53.4065 40.504 53.5954 40.504 53.8274C40.504 54.1589 40.625 54.4091 40.8669 54.5781C41.1089 54.7472 41.4171 54.8317 41.7916 54.8317ZM48.8066 53.6037L48.8016 51.4311H49.0899L51.8343 48.3636H53.9372L50.5615 52.1222H50.1887L48.8066 53.6037ZM47.1659 56V45.8182H48.9656V56H47.1659ZM51.9585 56L49.4727 52.5249L50.6858 51.2571L54.1112 56H51.9585ZM57.3341 56.1541C56.8502 56.1541 56.4143 56.0679 56.0265 55.8956C55.6421 55.7199 55.3372 55.4614 55.1118 55.12C54.8897 54.7786 54.7787 54.3577 54.7787 53.8572C54.7787 53.4264 54.8582 53.0701 55.0173 52.7884C55.1764 52.5066 55.3935 52.2812 55.6686 52.1122C55.9437 51.9432 56.2536 51.8156 56.5983 51.7294C56.9463 51.6399 57.3059 51.5753 57.6771 51.5355C58.1246 51.4891 58.4875 51.4477 58.7659 51.4112C59.0443 51.3714 59.2465 51.3118 59.3724 51.2322C59.5017 51.1494 59.5663 51.0218 59.5663 50.8494V50.8196C59.5663 50.4451 59.4553 50.1551 59.2332 49.9496C59.0112 49.7441 58.6913 49.6413 58.2737 49.6413C57.8329 49.6413 57.4832 49.7375 57.2247 49.9297C56.9695 50.1219 56.7971 50.349 56.7077 50.6108L55.0273 50.3722C55.1598 49.9081 55.3786 49.5204 55.6835 49.2088C55.9884 48.8939 56.3613 48.6586 56.8021 48.5028C57.2429 48.3438 57.7301 48.2642 58.2638 48.2642C58.6317 48.2642 58.9979 48.3073 59.3625 48.3935C59.7271 48.4796 60.0602 48.6222 60.3618 48.821C60.6634 49.0166 60.9053 49.2834 61.0876 49.6214C61.2732 49.9595 61.366 50.3821 61.366 50.8892V56H59.6359V54.951H59.5763C59.4669 55.1631 59.3128 55.362 59.1139 55.5476C58.9184 55.7299 58.6714 55.8774 58.3731 55.9901C58.0782 56.0994 57.7318 56.1541 57.3341 56.1541ZM57.8014 54.8317C58.1627 54.8317 58.4759 54.7604 58.741 54.6179C59.0062 54.4721 59.21 54.2798 59.3525 54.0412C59.4984 53.8026 59.5713 53.5424 59.5713 53.2607V52.3608C59.5149 52.4072 59.4188 52.4503 59.2829 52.4901C59.1504 52.5298 59.0012 52.5646 58.8355 52.5945C58.6698 52.6243 58.5057 52.6508 58.3433 52.674C58.1809 52.6972 58.04 52.7171 57.9207 52.7337C57.6523 52.7701 57.412 52.8298 57.1998 52.9126C56.9877 52.9955 56.8203 53.1115 56.6977 53.2607C56.5751 53.4065 56.5138 53.5954 56.5138 53.8274C56.5138 54.1589 56.6347 54.4091 56.8767 54.5781C57.1186 54.7472 57.4269 54.8317 57.8014 54.8317ZM66.5067 56.1491C65.7609 56.1491 65.1146 55.9851 64.5677 55.657C64.0209 55.3288 63.5966 54.8698 63.295 54.2798C62.9967 53.6899 62.8476 53.0005 62.8476 52.2116C62.8476 51.4228 62.9967 50.7318 63.295 50.1385C63.5966 49.5452 64.0209 49.0845 64.5677 48.7564C65.1146 48.4283 65.7609 48.2642 66.5067 48.2642C67.2524 48.2642 67.8987 48.4283 68.4456 48.7564C68.9925 49.0845 69.415 49.5452 69.7133 50.1385C70.0149 50.7318 70.1657 51.4228 70.1657 52.2116C70.1657 53.0005 70.0149 53.6899 69.7133 54.2798C69.415 54.8698 68.9925 55.3288 68.4456 55.657C67.8987 55.9851 67.2524 56.1491 66.5067 56.1491ZM66.5166 54.7074C66.921 54.7074 67.259 54.5964 67.5308 54.3743C67.8026 54.1489 68.0048 53.8473 68.1373 53.4695C68.2732 53.0916 68.3412 52.6707 68.3412 52.2067C68.3412 51.7393 68.2732 51.3168 68.1373 50.9389C68.0048 50.5578 67.8026 50.2545 67.5308 50.0291C67.259 49.8037 66.921 49.6911 66.5166 49.6911C66.1023 49.6911 65.7576 49.8037 65.4825 50.0291C65.2107 50.2545 65.0069 50.5578 64.871 50.9389C64.7384 51.3168 64.6721 51.7393 64.6721 52.2067C64.6721 52.6707 64.7384 53.0916 64.871 53.4695C65.0069 53.8473 65.2107 54.1489 65.4825 54.3743C65.7576 54.5964 66.1023 54.7074 66.5166 54.7074Z" fill="black"/>
<path d="M135.828 45.8182V56H134.188L129.39 49.0646H129.306V56H127.461V45.8182H129.112L133.904 52.7585H133.994V45.8182H135.828ZM139.146 56H137.177L140.762 45.8182H143.039L146.628 56H144.659L141.94 47.9062H141.86L139.146 56ZM139.21 52.0078H144.58V53.4893H139.21V52.0078ZM148.169 45.8182L150.819 53.8324H150.923L153.568 45.8182H155.597L152.007 56H149.73L146.146 45.8182H148.169ZM156.938 56V45.8182H163.56V47.3643H158.782V50.1286H163.217V51.6747H158.782V54.4538H163.6V56H156.938ZM165.442 56V45.8182H169.26C170.042 45.8182 170.698 45.9541 171.229 46.2259C171.762 46.4976 172.165 46.8788 172.437 47.3693C172.712 47.8565 172.849 48.425 172.849 49.0746C172.849 49.7275 172.71 50.2943 172.432 50.7749C172.157 51.2521 171.751 51.6217 171.214 51.8835C170.677 52.142 170.017 52.2713 169.235 52.2713H166.516V50.7401H168.987C169.444 50.7401 169.818 50.6771 170.11 50.5511C170.402 50.4219 170.617 50.2346 170.756 49.9893C170.899 49.7408 170.97 49.4358 170.97 49.0746C170.97 48.7133 170.899 48.4051 170.756 48.1499C170.614 47.8913 170.397 47.6958 170.105 47.5632C169.813 47.4273 169.437 47.3594 168.977 47.3594H167.286V56H165.442ZM170.702 51.3864L173.222 56H171.164L168.688 51.3864H170.702Z" fill="black"/>
<path d="M80.8402 118V116.763L84.1225 113.545C84.4364 113.228 84.698 112.946 84.9073 112.7C85.1166 112.454 85.2736 112.216 85.3782 111.985C85.4828 111.754 85.5352 111.508 85.5352 111.246C85.5352 110.948 85.4674 110.692 85.332 110.48C85.1966 110.264 85.0104 110.098 84.7734 109.981C84.5365 109.864 84.2672 109.806 83.9656 109.806C83.6547 109.806 83.3823 109.87 83.1484 110C82.9145 110.126 82.733 110.306 82.6037 110.54C82.4775 110.774 82.4144 111.052 82.4144 111.375H80.7848C80.7848 110.775 80.9218 110.254 81.1957 109.81C81.4696 109.367 81.8466 109.024 82.3267 108.781C82.8099 108.538 83.3639 108.416 83.9886 108.416C84.6226 108.416 85.1797 108.535 85.6598 108.772C86.1399 109.009 86.5123 109.333 86.777 109.746C87.0447 110.158 87.1786 110.629 87.1786 111.158C87.1786 111.512 87.1109 111.86 86.9755 112.202C86.8401 112.543 86.6016 112.922 86.2599 113.337C85.9214 113.753 85.4459 114.256 84.8335 114.847L83.2038 116.504V116.569H87.3217V118H80.8402ZM92.4091 118.18C91.6489 118.18 90.9964 117.988 90.4517 117.603C89.91 117.215 89.493 116.657 89.2006 115.927C88.9113 115.195 88.7667 114.313 88.7667 113.282C88.7698 112.251 88.916 111.374 89.2053 110.651C89.4976 109.924 89.9147 109.37 90.4563 108.989C91.0011 108.607 91.652 108.416 92.4091 108.416C93.1662 108.416 93.8171 108.607 94.3619 108.989C94.9066 109.37 95.3236 109.924 95.6129 110.651C95.9053 111.377 96.0515 112.254 96.0515 113.282C96.0515 114.316 95.9053 115.199 95.6129 115.932C95.3236 116.661 94.9066 117.218 94.3619 117.603C93.8202 117.988 93.1693 118.18 92.4091 118.18ZM92.4091 116.735C93 116.735 93.4663 116.444 93.8079 115.863C94.1526 115.278 94.3249 114.418 94.3249 113.282C94.3249 112.531 94.2464 111.9 94.0895 111.389C93.9325 110.878 93.7109 110.494 93.4247 110.235C93.1385 109.973 92.8 109.843 92.4091 109.843C91.8213 109.843 91.3565 110.135 91.0149 110.72C90.6733 111.301 90.5009 112.156 90.4979 113.282C90.4948 114.036 90.5702 114.67 90.7241 115.184C90.881 115.698 91.1026 116.086 91.3888 116.347C91.6751 116.606 92.0152 116.735 92.4091 116.735ZM101.08 118.18C100.32 118.18 99.6673 117.988 99.1226 117.603C98.5809 117.215 98.1639 116.657 97.8715 115.927C97.5822 115.195 97.4376 114.313 97.4376 113.282C97.4407 112.251 97.5869 111.374 97.8762 110.651C98.1685 109.924 98.5856 109.37 99.1272 108.989C99.672 108.607 100.323 108.416 101.08 108.416C101.837 108.416 102.488 108.607 103.033 108.989C103.578 109.37 103.995 109.924 104.284 110.651C104.576 111.377 104.722 112.254 104.722 113.282C104.722 114.316 104.576 115.199 104.284 115.932C103.995 116.661 103.578 117.218 103.033 117.603C102.491 117.988 101.84 118.18 101.08 118.18ZM101.08 116.735C101.671 116.735 102.137 116.444 102.479 115.863C102.823 115.278 102.996 114.418 102.996 113.282C102.996 112.531 102.917 111.9 102.76 111.389C102.603 110.878 102.382 110.494 102.096 110.235C101.809 109.973 101.471 109.843 101.08 109.843C100.492 109.843 100.027 110.135 99.6858 110.72C99.3442 111.301 99.1718 112.156 99.1688 113.282C99.1657 114.036 99.2411 114.67 99.395 115.184C99.5519 115.698 99.7735 116.086 100.06 116.347C100.346 116.606 100.686 116.735 101.08 116.735ZM106.275 120.659V110.909H107.918V112.082H108.015C108.101 111.909 108.223 111.726 108.38 111.532C108.537 111.335 108.749 111.168 109.017 111.029C109.285 110.888 109.626 110.817 110.042 110.817C110.59 110.817 111.084 110.957 111.524 111.237C111.967 111.514 112.318 111.925 112.576 112.469C112.838 113.011 112.969 113.676 112.969 114.464C112.969 115.242 112.841 115.904 112.585 116.449C112.33 116.994 111.982 117.409 111.542 117.695C111.102 117.982 110.603 118.125 110.046 118.125C109.64 118.125 109.303 118.057 109.035 117.922C108.768 117.786 108.552 117.623 108.389 117.432C108.229 117.238 108.104 117.055 108.015 116.883H107.946V120.659H106.275ZM107.914 114.455C107.914 114.913 107.978 115.315 108.107 115.659C108.24 116.004 108.429 116.273 108.675 116.467C108.925 116.658 109.226 116.754 109.58 116.754C109.949 116.754 110.259 116.655 110.508 116.458C110.757 116.258 110.945 115.986 111.071 115.641C111.2 115.293 111.265 114.898 111.265 114.455C111.265 114.014 111.202 113.624 111.076 113.282C110.95 112.94 110.762 112.673 110.513 112.479C110.263 112.285 109.952 112.188 109.58 112.188C109.223 112.188 108.92 112.282 108.671 112.469C108.421 112.657 108.232 112.92 108.103 113.259C107.977 113.597 107.914 113.996 107.914 114.455ZM115.5 110.909L116.931 113.527L118.385 110.909H120.153L118.016 114.455L120.19 118H118.431L116.931 115.447L115.444 118H113.671L115.832 114.455L113.727 110.909H115.5Z" fill="#00A3FF"/>
<mask id="path-10-outside-1_1343_26" maskUnits="userSpaceOnUse" x="193" y="44" width="41" height="16" fill="black">
<rect fill="white" x="193" y="44" width="41" height="16"/>
<path d="M199.325 46.2727V55H197.744V47.8111H197.693L195.652 49.1151V47.6662L197.821 46.2727H199.325ZM204.767 55.1662C204.065 55.1662 203.463 54.9886 202.96 54.6335C202.46 54.2756 202.075 53.7599 201.805 53.0866C201.538 52.4105 201.405 51.5966 201.405 50.6449C201.408 49.6932 201.543 48.8835 201.81 48.2159C202.08 47.5455 202.464 47.0341 202.964 46.6818C203.467 46.3295 204.068 46.1534 204.767 46.1534C205.466 46.1534 206.067 46.3295 206.57 46.6818C207.072 47.0341 207.457 47.5455 207.724 48.2159C207.994 48.8864 208.129 49.696 208.129 50.6449C208.129 51.5994 207.994 52.4148 207.724 53.0909C207.457 53.7642 207.072 54.2784 206.57 54.6335C206.07 54.9886 205.469 55.1662 204.767 55.1662ZM204.767 53.8324C205.313 53.8324 205.743 53.5639 206.058 53.027C206.376 52.4872 206.536 51.6932 206.536 50.6449C206.536 49.9517 206.463 49.3693 206.318 48.8977C206.173 48.4261 205.969 48.071 205.705 47.8324C205.44 47.5909 205.128 47.4702 204.767 47.4702C204.224 47.4702 203.795 47.7401 203.48 48.2798C203.165 48.8168 203.006 49.6051 203.003 50.6449C203 51.3409 203.07 51.9261 203.212 52.4006C203.357 52.875 203.561 53.233 203.825 53.4744C204.089 53.7131 204.403 53.8324 204.767 53.8324ZM212.771 55.1662C212.069 55.1662 211.467 54.9886 210.964 54.6335C210.464 54.2756 210.079 53.7599 209.809 53.0866C209.542 52.4105 209.409 51.5966 209.409 50.6449C209.412 49.6932 209.547 48.8835 209.814 48.2159C210.083 47.5455 210.468 47.0341 210.968 46.6818C211.471 46.3295 212.072 46.1534 212.771 46.1534C213.47 46.1534 214.071 46.3295 214.574 46.6818C215.076 47.0341 215.461 47.5455 215.728 48.2159C215.998 48.8864 216.133 49.696 216.133 50.6449C216.133 51.5994 215.998 52.4148 215.728 53.0909C215.461 53.7642 215.076 54.2784 214.574 54.6335C214.074 54.9886 213.473 55.1662 212.771 55.1662ZM212.771 53.8324C213.316 53.8324 213.747 53.5639 214.062 53.027C214.38 52.4872 214.539 51.6932 214.539 50.6449C214.539 49.9517 214.467 49.3693 214.322 48.8977C214.177 48.4261 213.973 48.071 213.708 47.8324C213.444 47.5909 213.132 47.4702 212.771 47.4702C212.228 47.4702 211.799 47.7401 211.484 48.2798C211.169 48.8168 211.01 49.6051 211.007 50.6449C211.004 51.3409 211.074 51.9261 211.216 52.4006C211.36 52.875 211.565 53.233 211.829 53.4744C212.093 53.7131 212.407 53.8324 212.771 53.8324ZM217.566 57.4545V48.4545H219.083V49.5369H219.173C219.252 49.3778 219.364 49.2088 219.509 49.0298C219.654 48.848 219.85 48.6932 220.097 48.5653C220.344 48.4347 220.66 48.3693 221.043 48.3693C221.549 48.3693 222.005 48.4986 222.411 48.7571C222.82 49.0128 223.144 49.392 223.383 49.8949C223.624 50.3949 223.745 51.0085 223.745 51.7358C223.745 52.4545 223.627 53.0653 223.391 53.5682C223.156 54.071 222.835 54.4545 222.428 54.7188C222.022 54.983 221.562 55.1151 221.048 55.1151C220.673 55.1151 220.362 55.0526 220.114 54.9276C219.867 54.8026 219.668 54.652 219.518 54.4759C219.37 54.2969 219.255 54.1278 219.173 53.9688H219.109V57.4545H217.566ZM219.079 51.7273C219.079 52.1506 219.138 52.5213 219.258 52.8395C219.38 53.1577 219.555 53.4062 219.782 53.5852C220.012 53.7614 220.29 53.8494 220.617 53.8494C220.958 53.8494 221.244 53.7585 221.474 53.5767C221.704 53.392 221.877 53.1406 221.994 52.8224C222.113 52.5014 222.173 52.1364 222.173 51.7273C222.173 51.321 222.114 50.9602 221.998 50.6449C221.881 50.3295 221.708 50.0824 221.478 49.9034C221.248 49.7244 220.961 49.6349 220.617 49.6349C220.288 49.6349 220.008 49.7216 219.778 49.8949C219.548 50.0682 219.373 50.3111 219.254 50.6236C219.137 50.9361 219.079 51.304 219.079 51.7273ZM226.081 48.4545L227.402 50.8707L228.745 48.4545H230.377L228.404 51.7273L230.411 55H228.787L227.402 52.6435L226.03 55H224.394L226.388 51.7273L224.445 48.4545H226.081Z"/>
</mask>
<path d="M199.325 46.2727V55H197.744V47.8111H197.693L195.652 49.1151V47.6662L197.821 46.2727H199.325ZM204.767 55.1662C204.065 55.1662 203.463 54.9886 202.96 54.6335C202.46 54.2756 202.075 53.7599 201.805 53.0866C201.538 52.4105 201.405 51.5966 201.405 50.6449C201.408 49.6932 201.543 48.8835 201.81 48.2159C202.08 47.5455 202.464 47.0341 202.964 46.6818C203.467 46.3295 204.068 46.1534 204.767 46.1534C205.466 46.1534 206.067 46.3295 206.57 46.6818C207.072 47.0341 207.457 47.5455 207.724 48.2159C207.994 48.8864 208.129 49.696 208.129 50.6449C208.129 51.5994 207.994 52.4148 207.724 53.0909C207.457 53.7642 207.072 54.2784 206.57 54.6335C206.07 54.9886 205.469 55.1662 204.767 55.1662ZM204.767 53.8324C205.313 53.8324 205.743 53.5639 206.058 53.027C206.376 52.4872 206.536 51.6932 206.536 50.6449C206.536 49.9517 206.463 49.3693 206.318 48.8977C206.173 48.4261 205.969 48.071 205.705 47.8324C205.44 47.5909 205.128 47.4702 204.767 47.4702C204.224 47.4702 203.795 47.7401 203.48 48.2798C203.165 48.8168 203.006 49.6051 203.003 50.6449C203 51.3409 203.07 51.9261 203.212 52.4006C203.357 52.875 203.561 53.233 203.825 53.4744C204.089 53.7131 204.403 53.8324 204.767 53.8324ZM212.771 55.1662C212.069 55.1662 211.467 54.9886 210.964 54.6335C210.464 54.2756 210.079 53.7599 209.809 53.0866C209.542 52.4105 209.409 51.5966 209.409 50.6449C209.412 49.6932 209.547 48.8835 209.814 48.2159C210.083 47.5455 210.468 47.0341 210.968 46.6818C211.471 46.3295 212.072 46.1534 212.771 46.1534C213.47 46.1534 214.071 46.3295 214.574 46.6818C215.076 47.0341 215.461 47.5455 215.728 48.2159C215.998 48.8864 216.133 49.696 216.133 50.6449C216.133 51.5994 215.998 52.4148 215.728 53.0909C215.461 53.7642 215.076 54.2784 214.574 54.6335C214.074 54.9886 213.473 55.1662 212.771 55.1662ZM212.771 53.8324C213.316 53.8324 213.747 53.5639 214.062 53.027C214.38 52.4872 214.539 51.6932 214.539 50.6449C214.539 49.9517 214.467 49.3693 214.322 48.8977C214.177 48.4261 213.973 48.071 213.708 47.8324C213.444 47.5909 213.132 47.4702 212.771 47.4702C212.228 47.4702 211.799 47.7401 211.484 48.2798C211.169 48.8168 211.01 49.6051 211.007 50.6449C211.004 51.3409 211.074 51.9261 211.216 52.4006C211.36 52.875 211.565 53.233 211.829 53.4744C212.093 53.7131 212.407 53.8324 212.771 53.8324ZM217.566 57.4545V48.4545H219.083V49.5369H219.173C219.252 49.3778 219.364 49.2088 219.509 49.0298C219.654 48.848 219.85 48.6932 220.097 48.5653C220.344 48.4347 220.66 48.3693 221.043 48.3693C221.549 48.3693 222.005 48.4986 222.411 48.7571C222.82 49.0128 223.144 49.392 223.383 49.8949C223.624 50.3949 223.745 51.0085 223.745 51.7358C223.745 52.4545 223.627 53.0653 223.391 53.5682C223.156 54.071 222.835 54.4545 222.428 54.7188C222.022 54.983 221.562 55.1151 221.048 55.1151C220.673 55.1151 220.362 55.0526 220.114 54.9276C219.867 54.8026 219.668 54.652 219.518 54.4759C219.37 54.2969 219.255 54.1278 219.173 53.9688H219.109V57.4545H217.566ZM219.079 51.7273C219.079 52.1506 219.138 52.5213 219.258 52.8395C219.38 53.1577 219.555 53.4062 219.782 53.5852C220.012 53.7614 220.29 53.8494 220.617 53.8494C220.958 53.8494 221.244 53.7585 221.474 53.5767C221.704 53.392 221.877 53.1406 221.994 52.8224C222.113 52.5014 222.173 52.1364 222.173 51.7273C222.173 51.321 222.114 50.9602 221.998 50.6449C221.881 50.3295 221.708 50.0824 221.478 49.9034C221.248 49.7244 220.961 49.6349 220.617 49.6349C220.288 49.6349 220.008 49.7216 219.778 49.8949C219.548 50.0682 219.373 50.3111 219.254 50.6236C219.137 50.9361 219.079 51.304 219.079 51.7273ZM226.081 48.4545L227.402 50.8707L228.745 48.4545H230.377L228.404 51.7273L230.411 55H228.787L227.402 52.6435L226.03 55H224.394L226.388 51.7273L224.445 48.4545H226.081Z" fill="#00A3FF"/>
<path d="M199.325 46.2727H201.325V44.2727H199.325V46.2727ZM199.325 55V57H201.325V55H199.325ZM197.744 55H195.744V57H197.744V55ZM197.744 47.8111H199.744V45.8111H197.744V47.8111ZM197.693 47.8111V45.8111H197.109L196.616 46.1256L197.693 47.8111ZM195.652 49.1151H193.652V52.766L196.729 50.8005L195.652 49.1151ZM195.652 47.6662L194.571 45.9835L193.652 46.5739V47.6662H195.652ZM197.821 46.2727V44.2727H197.234L196.74 44.59L197.821 46.2727ZM197.325 46.2727V55H201.325V46.2727H197.325ZM199.325 53H197.744V57H199.325V53ZM199.744 55V47.8111H195.744V55H199.744ZM197.744 45.8111H197.693V49.8111H197.744V45.8111ZM196.616 46.1256L194.575 47.4296L196.729 50.8005L198.77 49.4965L196.616 46.1256ZM197.652 49.1151V47.6662H193.652V49.1151H197.652ZM196.733 49.3489L198.902 47.9554L196.74 44.59L194.571 45.9835L196.733 49.3489ZM197.821 48.2727H199.325V44.2727H197.821V48.2727ZM202.96 54.6335L201.796 56.2598L201.806 56.2672L202.96 54.6335ZM201.805 53.0866L199.945 53.8213L199.949 53.8308L201.805 53.0866ZM201.405 50.6449L199.405 50.6389V50.6449H201.405ZM201.81 48.2159L199.954 47.4691L199.953 47.4731L201.81 48.2159ZM202.964 46.6818L201.817 45.0438L201.813 45.0469L202.964 46.6818ZM206.57 46.6818L205.422 48.3198L205.422 48.3198L206.57 46.6818ZM207.724 48.2159L205.866 48.956L205.869 48.9628L207.724 48.2159ZM207.724 53.0909L205.867 52.3495L205.865 52.3535L207.724 53.0909ZM206.57 54.6335L205.416 52.9998L205.412 53.0029L206.57 54.6335ZM206.058 53.027L204.335 52.0114L204.334 52.0141L206.058 53.027ZM206.318 48.8977L208.23 48.3104V48.3104L206.318 48.8977ZM205.705 47.8324L204.355 49.3087L204.364 49.3166L205.705 47.8324ZM203.48 48.2798L205.205 49.2927L205.207 49.2887L203.48 48.2798ZM203.003 50.6449L205.003 50.653L205.003 50.6504L203.003 50.6449ZM203.212 52.4006L201.296 52.9742L201.299 52.9847L203.212 52.4006ZM203.825 53.4744L202.476 54.9507L202.485 54.9586L203.825 53.4744ZM204.767 53.1662C204.419 53.1662 204.233 53.0842 204.114 52.9998L201.806 56.2672C202.693 56.8931 203.712 57.1662 204.767 57.1662V53.1662ZM204.124 53.0073C203.987 52.9087 203.816 52.7264 203.662 52.3425L199.949 53.8308C200.335 54.7935 200.934 55.6425 201.796 56.2597L204.124 53.0073ZM203.666 52.352C203.515 51.9698 203.405 51.4189 203.405 50.6449H199.405C199.405 51.7743 199.562 52.8513 199.945 53.8213L203.666 52.352ZM203.405 50.6509C203.407 49.8744 203.518 49.3296 203.667 48.9587L199.953 47.4731C199.567 48.4375 199.408 49.512 199.405 50.6389L203.405 50.6509ZM203.665 48.9628C203.817 48.5839 203.985 48.4093 204.116 48.3168L201.813 45.0469C200.944 45.6589 200.342 46.507 199.954 47.4691L203.665 48.9628ZM204.112 48.3198C204.233 48.2348 204.42 48.1534 204.767 48.1534V44.1534C203.716 44.1534 202.701 44.4243 201.817 45.0438L204.112 48.3198ZM204.767 48.1534C205.114 48.1534 205.301 48.2348 205.422 48.3198L207.717 45.0438C206.833 44.4243 205.818 44.1534 204.767 44.1534V48.1534ZM205.422 48.3198C205.553 48.4115 205.718 48.5829 205.866 48.956L209.582 47.4758C209.197 46.508 208.592 45.6567 207.717 45.0438L205.422 48.3198ZM205.869 48.9628C206.019 49.3343 206.129 49.876 206.129 50.6449H210.129C210.129 49.5161 209.97 48.4385 209.58 47.4691L205.869 48.9628ZM206.129 50.6449C206.129 51.4205 206.018 51.97 205.867 52.3495L209.582 53.8323C209.97 52.8595 210.129 51.7784 210.129 50.6449H206.129ZM205.865 52.3535C205.716 52.7309 205.549 52.9059 205.416 52.9998L207.723 56.2672C208.596 55.651 209.199 54.7975 209.584 53.8283L205.865 52.3535ZM205.412 53.0029C205.297 53.0841 205.116 53.1662 204.767 53.1662V57.1662C205.822 57.1662 206.842 56.8931 207.728 56.2641L205.412 53.0029ZM204.767 55.8324C206.134 55.8324 207.169 55.0848 207.783 54.0398L204.334 52.0141C204.303 52.0666 204.326 52.0054 204.44 51.9341C204.496 51.8992 204.559 51.8715 204.624 51.8537C204.688 51.8362 204.738 51.8324 204.767 51.8324V55.8324ZM207.781 54.0426C208.365 53.0525 208.536 51.8372 208.536 50.6449H204.536C204.536 51.5492 204.388 51.922 204.335 52.0114L207.781 54.0426ZM208.536 50.6449C208.536 49.8265 208.452 49.0319 208.23 48.3104L204.406 49.4851C204.474 49.7067 204.536 50.0769 204.536 50.6449H208.536ZM208.23 48.3104C208.018 47.621 207.661 46.9047 207.045 46.3482L204.364 49.3166C204.319 49.2761 204.31 49.253 204.323 49.2759C204.337 49.3005 204.369 49.3645 204.406 49.4851L208.23 48.3104ZM207.054 46.3561C206.418 45.7747 205.623 45.4702 204.767 45.4702V49.4702C204.72 49.4702 204.642 49.4614 204.551 49.4263C204.46 49.3911 204.394 49.3441 204.355 49.3087L207.054 46.3561ZM204.767 45.4702C203.393 45.4702 202.362 46.2288 201.753 47.271L205.207 49.2887C205.24 49.2329 205.218 49.2935 205.103 49.3654C205.047 49.4008 204.983 49.4293 204.917 49.4478C204.851 49.466 204.799 49.4702 204.767 49.4702V45.4702ZM201.756 47.267C201.178 48.2505 201.006 49.4558 201.003 50.6394L205.003 50.6504C205.005 49.7544 205.152 49.3831 205.205 49.2927L201.756 47.267ZM201.003 50.6367C201 51.4566 201.079 52.2518 201.296 52.9742L205.128 51.8269C205.06 51.6004 205 51.2252 205.003 50.653L201.003 50.6367ZM201.299 52.9847C201.51 53.6753 201.865 54.3919 202.476 54.9507L205.175 51.9981C205.217 52.0371 205.225 52.0579 205.21 52.0326C205.195 52.0056 205.162 51.9392 205.124 51.8164L201.299 52.9847ZM202.485 54.9586C203.125 55.537 203.92 55.8324 204.767 55.8324V51.8324C204.808 51.8324 204.881 51.8399 204.969 51.8734C205.058 51.9072 205.125 51.9532 205.166 51.9902L202.485 54.9586ZM210.964 54.6335L209.8 56.2598L209.81 56.2672L210.964 54.6335ZM209.809 53.0866L207.949 53.8213L207.953 53.8308L209.809 53.0866ZM209.409 50.6449L207.409 50.6389V50.6449H209.409ZM209.814 48.2159L207.958 47.4691L207.957 47.4731L209.814 48.2159ZM210.968 46.6818L209.821 45.0438L209.816 45.0469L210.968 46.6818ZM214.574 46.6818L213.426 48.3198V48.3198L214.574 46.6818ZM215.728 48.2159L213.87 48.956L213.873 48.9628L215.728 48.2159ZM215.728 53.0909L213.871 52.3495L213.869 52.3535L215.728 53.0909ZM214.574 54.6335L213.42 52.9998L213.415 53.0029L214.574 54.6335ZM214.062 53.027L212.339 52.0114L212.338 52.0141L214.062 53.027ZM214.322 48.8977L216.234 48.3104L216.234 48.3104L214.322 48.8977ZM213.708 47.8324L212.359 49.3087L212.368 49.3166L213.708 47.8324ZM211.484 48.2798L213.209 49.2927L213.211 49.2887L211.484 48.2798ZM211.007 50.6449L213.007 50.653L213.007 50.6504L211.007 50.6449ZM211.216 52.4006L209.3 52.9742L209.303 52.9847L211.216 52.4006ZM211.829 53.4744L210.48 54.9507L210.489 54.9586L211.829 53.4744ZM212.771 53.1662C212.422 53.1662 212.237 53.0842 212.118 52.9998L209.81 56.2672C210.697 56.8931 211.716 57.1662 212.771 57.1662V53.1662ZM212.128 53.0073C211.991 52.9087 211.82 52.7264 211.666 52.3425L207.953 53.8308C208.339 54.7935 208.938 55.6425 209.8 56.2597L212.128 53.0073ZM211.669 52.352C211.519 51.9698 211.409 51.4189 211.409 50.6449H207.409C207.409 51.7743 207.566 52.8513 207.949 53.8213L211.669 52.352ZM211.409 50.6509C211.411 49.8744 211.522 49.3296 211.671 48.9587L207.957 47.4731C207.571 48.4375 207.412 49.512 207.409 50.6389L211.409 50.6509ZM211.669 48.9628C211.821 48.5839 211.989 48.4093 212.12 48.3168L209.816 45.0469C208.948 45.6589 208.346 46.507 207.958 47.4691L211.669 48.9628ZM212.116 48.3198C212.237 48.2348 212.424 48.1534 212.771 48.1534V44.1534C211.72 44.1534 210.705 44.4243 209.821 45.0438L212.116 48.3198ZM212.771 48.1534C213.118 48.1534 213.305 48.2348 213.426 48.3198L215.721 45.0438C214.837 44.4243 213.822 44.1534 212.771 44.1534V48.1534ZM213.426 48.3198C213.557 48.4115 213.722 48.5829 213.87 48.956L217.586 47.4758C217.201 46.508 216.596 45.6567 215.721 45.0438L213.426 48.3198ZM213.873 48.9628C214.023 49.3343 214.133 49.876 214.133 50.6449H218.133C218.133 49.5161 217.974 48.4385 217.584 47.4691L213.873 48.9628ZM214.133 50.6449C214.133 51.4205 214.022 51.97 213.871 52.3495L217.586 53.8323C217.974 52.8595 218.133 51.7784 218.133 50.6449H214.133ZM213.869 52.3535C213.72 52.7309 213.553 52.9059 213.42 52.9998L215.727 56.2672C216.6 55.651 217.203 54.7975 217.587 53.8283L213.869 52.3535ZM213.415 53.0029C213.301 53.0841 213.12 53.1662 212.771 53.1662V57.1662C213.826 57.1662 214.846 56.8931 215.732 56.2641L213.415 53.0029ZM212.771 55.8324C214.138 55.8324 215.173 55.0848 215.787 54.0398L212.338 52.0141C212.307 52.0666 212.33 52.0054 212.444 51.9341C212.5 51.8992 212.563 51.8715 212.628 51.8537C212.692 51.8362 212.742 51.8324 212.771 51.8324V55.8324ZM215.785 54.0426C216.369 53.0525 216.539 51.8372 216.539 50.6449H212.539C212.539 51.5492 212.392 51.922 212.339 52.0114L215.785 54.0426ZM216.539 50.6449C216.539 49.8265 216.456 49.0319 216.234 48.3104L212.41 49.4851C212.478 49.7067 212.539 50.0769 212.539 50.6449H216.539ZM216.234 48.3104C216.022 47.621 215.665 46.9047 215.049 46.3482L212.368 49.3166C212.323 49.2761 212.314 49.253 212.327 49.2759C212.341 49.3005 212.373 49.3645 212.41 49.4851L216.234 48.3104ZM215.058 46.3561C214.422 45.7747 213.627 45.4702 212.771 45.4702V49.4702C212.724 49.4702 212.646 49.4614 212.555 49.4263C212.464 49.3911 212.398 49.3441 212.359 49.3087L215.058 46.3561ZM212.771 45.4702C211.397 45.4702 210.366 46.2288 209.757 47.271L213.211 49.2887C213.244 49.2329 213.222 49.2935 213.107 49.3654C213.051 49.4008 212.987 49.4293 212.921 49.4478C212.855 49.466 212.802 49.4702 212.771 49.4702V45.4702ZM209.759 47.267C209.182 48.2505 209.01 49.4558 209.007 50.6394L213.007 50.6504C213.009 49.7544 213.156 49.3831 213.209 49.2927L209.759 47.267ZM209.007 50.6367C209.003 51.4566 209.083 52.2518 209.3 52.9742L213.132 51.8269C213.064 51.6004 213.004 51.2252 213.007 50.653L209.007 50.6367ZM209.303 52.9847C209.514 53.6753 209.868 54.3919 210.48 54.9507L213.178 51.9981C213.221 52.0371 213.229 52.0579 213.214 52.0326C213.199 52.0056 213.166 51.9392 213.128 51.8164L209.303 52.9847ZM210.489 54.9586C211.129 55.537 211.924 55.8324 212.771 55.8324V51.8324C212.812 51.8324 212.885 51.8399 212.973 51.8734C213.062 51.9072 213.129 51.9532 213.17 51.9902L210.489 54.9586ZM217.566 57.4545H215.566V59.4545H217.566V57.4545ZM217.566 48.4545V46.4545H215.566V48.4545H217.566ZM219.083 48.4545H221.083V46.4545H219.083V48.4545ZM219.083 49.5369H217.083V51.5369H219.083V49.5369ZM219.173 49.5369V51.5369H220.409L220.961 50.4314L219.173 49.5369ZM219.509 49.0298L221.064 50.2882L221.069 50.2822L221.073 50.2762L219.509 49.0298ZM220.097 48.5653L221.016 50.3418L221.024 50.3376L221.032 50.3334L220.097 48.5653ZM222.411 48.7571L221.337 50.4444L221.344 50.4488L221.351 50.4531L222.411 48.7571ZM223.383 49.8949L221.576 50.7524L221.582 50.7647L223.383 49.8949ZM223.391 53.5682L221.581 52.7191L223.391 53.5682ZM222.428 54.7188L223.519 56.3954L222.428 54.7188ZM220.114 54.9276L219.212 56.7123L220.114 54.9276ZM219.518 54.4759L217.975 55.749L217.986 55.7623L217.998 55.7754L219.518 54.4759ZM219.173 53.9688L220.949 53.049L220.389 51.9688H219.173V53.9688ZM219.109 53.9688V51.9688H217.109V53.9688H219.109ZM219.109 57.4545V59.4545H221.109V57.4545H219.109ZM219.258 52.8395L217.385 53.5417L217.388 53.549L217.391 53.5563L219.258 52.8395ZM219.782 53.5852L218.545 55.1565L218.555 55.165L218.566 55.1734L219.782 53.5852ZM221.474 53.5767L222.714 55.146L222.72 55.1413L222.725 55.1366L221.474 53.5767ZM221.994 52.8224L220.119 52.1256L220.115 52.1349L221.994 52.8224ZM221.998 50.6449L223.874 49.9519V49.9519L221.998 50.6449ZM221.478 49.9034L222.706 48.3247L222.706 48.3247L221.478 49.9034ZM219.778 49.8949L220.981 51.4925H220.981L219.778 49.8949ZM219.254 50.6236L217.385 49.9102L217.382 49.9176L217.379 49.9251L219.254 50.6236ZM219.566 57.4545V48.4545H215.566V57.4545H219.566ZM217.566 50.4545H219.083V46.4545H217.566V50.4545ZM217.083 48.4545V49.5369H221.083V48.4545H217.083ZM219.083 51.5369H219.173V47.5369H219.083V51.5369ZM220.961 50.4314C220.961 50.4331 220.985 50.3857 221.064 50.2882L217.955 47.7714C217.744 48.0319 217.544 48.3226 217.384 48.6425L220.961 50.4314ZM221.073 50.2762C221.012 50.3535 220.971 50.3653 221.016 50.3418L219.178 46.7889C218.73 47.021 218.296 47.3425 217.945 47.7834L221.073 50.2762ZM221.032 50.3334C220.999 50.3508 220.972 50.3617 220.954 50.3682C220.944 50.3714 220.937 50.3736 220.932 50.3749C220.93 50.3755 220.928 50.376 220.927 50.3763C220.926 50.3766 220.925 50.3767 220.925 50.3767C220.925 50.3767 220.926 50.3766 220.927 50.3764C220.928 50.3762 220.93 50.3759 220.932 50.3755C220.937 50.3748 220.945 50.3738 220.955 50.3729C220.975 50.371 221.004 50.3693 221.043 50.3693V46.3693C220.449 46.3693 219.785 46.4683 219.162 46.7973L221.032 50.3334ZM221.043 50.3693C221.189 50.3693 221.269 50.4006 221.337 50.4444L223.485 47.0698C222.741 46.5966 221.909 46.3693 221.043 46.3693V50.3693ZM221.351 50.4531C221.389 50.4767 221.475 50.5404 221.576 50.7524L225.19 49.0374C224.813 48.2437 224.252 47.5489 223.471 47.0611L221.351 50.4531ZM221.582 50.7647C221.658 50.9229 221.745 51.2202 221.745 51.7358H225.745C225.745 50.7969 225.59 49.8668 225.184 49.0251L221.582 50.7647ZM221.745 51.7358C221.745 52.2441 221.661 52.5481 221.581 52.7191L225.202 54.4173C225.594 53.5826 225.745 52.665 225.745 51.7358H221.745ZM221.581 52.7191C221.479 52.9347 221.388 53.0096 221.338 53.0421L223.519 56.3954C224.281 55.8995 224.832 55.2074 225.202 54.4173L221.581 52.7191ZM221.338 53.0421C221.276 53.0822 221.199 53.1151 221.048 53.1151V57.1151C221.924 57.1151 222.768 56.8837 223.519 56.3954L221.338 53.0421ZM221.048 53.1151C221.009 53.1151 220.98 53.1134 220.96 53.1116C220.939 53.1097 220.929 53.1077 220.927 53.1074C220.923 53.1066 220.958 53.1132 221.017 53.1428L219.212 56.7123C219.82 57.0198 220.465 57.1151 221.048 57.1151V53.1151ZM221.017 53.1428C220.989 53.1286 220.981 53.1218 220.987 53.1264C220.994 53.1313 221.013 53.1471 221.038 53.1763L217.998 55.7754C218.35 56.1877 218.774 56.4908 219.212 56.7123L221.017 53.1428ZM221.06 53.2027C221.02 53.1545 220.993 53.1168 220.974 53.0895C220.955 53.062 220.948 53.0486 220.949 53.049L217.397 54.8885C217.56 55.2038 217.762 55.491 217.975 55.749L221.06 53.2027ZM219.173 51.9688H219.109V55.9688H219.173V51.9688ZM217.109 53.9688V57.4545H221.109V53.9688H217.109ZM219.109 55.4545H217.566V59.4545H219.109V55.4545ZM217.079 51.7273C217.079 52.3337 217.164 52.9514 217.385 53.5417L221.13 52.1372C221.113 52.0912 221.079 51.9674 221.079 51.7273H217.079ZM217.391 53.5563C217.619 54.1504 217.987 54.7177 218.545 55.1565L221.019 52.014C221.066 52.0507 221.098 52.0878 221.117 52.1145C221.134 52.1397 221.134 52.1467 221.125 52.1226L217.391 53.5563ZM218.566 55.1734C219.189 55.6503 219.91 55.8494 220.617 55.8494V51.8494C220.634 51.8494 220.689 51.852 220.767 51.8765C220.847 51.9019 220.927 51.9431 220.998 51.9971L218.566 55.1734ZM220.617 55.8494C221.332 55.8494 222.075 55.6507 222.714 55.146L220.234 52.0074C220.312 51.9457 220.398 51.9016 220.48 51.8755C220.559 51.8506 220.61 51.8494 220.617 51.8494V55.8494ZM222.725 55.1366C223.28 54.6915 223.649 54.1188 223.872 53.51L220.115 52.1349C220.109 52.1528 220.111 52.1419 220.13 52.1146C220.149 52.0859 220.18 52.0504 220.222 52.0168L222.725 55.1366ZM223.868 53.5192C224.085 52.9366 224.173 52.3291 224.173 51.7273H220.173C220.173 51.9436 220.141 52.0663 220.119 52.1257L223.868 53.5192ZM224.173 51.7273C224.173 51.1324 224.087 50.53 223.874 49.9519L220.122 51.3379C220.141 51.3905 220.173 51.5097 220.173 51.7273H224.173ZM223.874 49.9519C223.648 49.3413 223.273 48.766 222.706 48.3247L220.25 51.4821C220.202 51.445 220.167 51.4049 220.143 51.3712C220.12 51.339 220.116 51.3235 220.122 51.3379L223.874 49.9519ZM222.706 48.3247C222.065 47.8259 221.323 47.6349 220.617 47.6349V51.6349C220.616 51.6349 220.569 51.6347 220.495 51.6114C220.416 51.587 220.33 51.5444 220.25 51.4821L222.706 48.3247ZM220.617 47.6349C219.919 47.6349 219.2 47.8261 218.575 48.2973L220.981 51.4925C220.908 51.547 220.828 51.5867 220.752 51.6104C220.678 51.6333 220.628 51.6349 220.617 51.6349V47.6349ZM218.575 48.2973C217.998 48.7314 217.617 49.304 217.385 49.9102L221.122 51.337C221.127 51.3234 221.122 51.3407 221.098 51.3749C221.072 51.4107 221.033 51.4533 220.981 51.4925L218.575 48.2973ZM217.379 49.9251C217.161 50.5121 217.079 51.1269 217.079 51.7273H221.079C221.079 51.4811 221.113 51.36 221.128 51.3221L217.379 49.9251ZM226.081 48.4545L227.836 47.4951L227.267 46.4545H226.081V48.4545ZM227.402 50.8707L225.647 51.8302L227.388 55.0142L229.151 51.842L227.402 50.8707ZM228.745 48.4545V46.4545H227.568L226.996 47.4833L228.745 48.4545ZM230.377 48.4545L232.09 49.4871L233.918 46.4545H230.377V48.4545ZM228.404 51.7273L226.691 50.6947L226.063 51.7362L226.699 52.7729L228.404 51.7273ZM230.411 55V57H233.984L232.116 53.9544L230.411 55ZM228.787 55L227.063 56.0134L227.643 57H228.787V55ZM227.402 52.6435L229.127 51.6301L227.394 48.6826L225.674 51.6371L227.402 52.6435ZM226.03 55V57H227.18L227.759 56.0064L226.03 55ZM224.394 55L222.686 53.9593L220.833 57H224.394V55ZM226.388 51.7273L228.096 52.768L228.722 51.7407L228.108 50.7062L226.388 51.7273ZM224.445 48.4545V46.4545H220.931L222.725 49.4756L224.445 48.4545ZM224.326 49.414L225.647 51.8302L229.157 49.9113L227.836 47.4951L224.326 49.414ZM229.151 51.842L230.493 49.4258L226.996 47.4833L225.654 49.8995L229.151 51.842ZM228.745 50.4545H230.377V46.4545H228.745V50.4545ZM228.664 47.4219L226.691 50.6947L230.117 52.7599L232.09 49.4871L228.664 47.4219ZM226.699 52.7729L228.706 56.0456L232.116 53.9544L230.109 50.6817L226.699 52.7729ZM230.411 53H228.787V57H230.411V53ZM230.512 53.9866L229.127 51.6301L225.678 53.6568L227.063 56.0134L230.512 53.9866ZM225.674 51.6371L224.302 53.9936L227.759 56.0064L229.131 53.6498L225.674 51.6371ZM226.03 53H224.394V57H226.03V53ZM226.102 56.0407L228.096 52.768L224.68 50.6865L222.686 53.9593L226.102 56.0407ZM228.108 50.7062L226.165 47.4335L222.725 49.4756L224.668 52.7484L228.108 50.7062ZM224.445 50.4545H226.081V46.4545H224.445V50.4545Z" fill="white" mask="url(#path-10-outside-1_1343_26)"/>
</g>
<defs>
<clipPath id="clip0_1343_26">
<rect width="233" height="126" fill="white"/>
</clipPath>
</defs>
<!-- made by UXKM, K.S.Chu -->
</svg>
