<svg width="701" height="344" viewBox="0 0 701 344" fill="none" xmlns="http://www.w3.org/2000/svg">
<path d="M176.998 185.415L183.233 203.142L183.781 203.409L218.006 217.276L206.015 255.844L192.346 267.582L187.79 286.507L167.166 303.515L166.447 325.554L177.718 344L140.548 312.618V291.538L141.747 253.928L132.154 245.543L113.449 209.131L121.363 186.134L159.253 182.301L176.998 185.415Z" fill="#5C2556"/>
<path d="M150.282 219.92C150.282 220.321 150.23 220.683 150.126 221.006C150.027 221.324 149.894 221.605 149.728 221.85C149.561 222.095 149.366 222.303 149.142 222.475C148.918 222.647 148.686 222.788 148.446 222.897C148.207 223.006 147.962 223.087 147.712 223.139C147.467 223.191 147.235 223.217 147.017 223.217H139.181V221.186H147.017C147.407 221.186 147.709 221.071 147.923 220.842C148.142 220.613 148.251 220.306 148.251 219.92C148.251 219.733 148.222 219.561 148.165 219.405C148.108 219.249 148.024 219.113 147.915 218.999C147.811 218.884 147.681 218.795 147.524 218.733C147.373 218.67 147.204 218.639 147.017 218.639H142.345C142.017 218.639 141.662 218.582 141.282 218.467C140.902 218.347 140.548 218.157 140.22 217.897C139.897 217.637 139.626 217.295 139.407 216.874C139.194 216.452 139.087 215.936 139.087 215.327C139.087 214.717 139.194 214.204 139.407 213.788C139.626 213.366 139.897 213.025 140.22 212.764C140.548 212.499 140.902 212.308 141.282 212.194C141.662 212.074 142.017 212.014 142.345 212.014H149.259V214.045H142.345C141.959 214.045 141.657 214.163 141.438 214.397C141.225 214.631 141.118 214.941 141.118 215.327C141.118 215.717 141.225 216.027 141.438 216.256C141.657 216.48 141.959 216.592 142.345 216.592H147.017H147.032C147.251 216.597 147.483 216.629 147.728 216.686C147.972 216.738 148.215 216.821 148.454 216.936C148.699 217.051 148.931 217.196 149.149 217.374C149.368 217.545 149.561 217.754 149.728 217.999C149.899 218.243 150.035 218.525 150.134 218.842C150.233 219.16 150.282 219.519 150.282 219.92ZM163.728 218.686C163.728 219.368 163.61 219.996 163.376 220.569C163.142 221.142 162.816 221.637 162.399 222.053C161.983 222.47 161.488 222.795 160.915 223.03C160.347 223.259 159.728 223.374 159.056 223.374H156.306C155.634 223.374 155.011 223.259 154.438 223.03C153.866 222.795 153.371 222.47 152.954 222.053C152.537 221.637 152.209 221.142 151.97 220.569C151.735 219.996 151.618 219.368 151.618 218.686V216.545C151.618 215.868 151.735 215.243 151.97 214.67C152.209 214.092 152.537 213.597 152.954 213.186C153.371 212.769 153.866 212.444 154.438 212.209C155.011 211.975 155.634 211.858 156.306 211.858H159.056C159.728 211.858 160.347 211.975 160.915 212.209C161.488 212.444 161.983 212.769 162.399 213.186C162.816 213.597 163.142 214.092 163.376 214.67C163.61 215.243 163.728 215.868 163.728 216.545V218.686ZM161.696 216.545C161.696 216.144 161.631 215.782 161.501 215.459C161.376 215.131 161.196 214.853 160.962 214.624C160.733 214.389 160.454 214.209 160.126 214.084C159.803 213.954 159.446 213.889 159.056 213.889H156.306C155.91 213.889 155.548 213.954 155.22 214.084C154.897 214.209 154.618 214.389 154.384 214.624C154.149 214.853 153.967 215.131 153.837 215.459C153.712 215.782 153.649 216.144 153.649 216.545V218.686C153.649 219.087 153.712 219.452 153.837 219.78C153.967 220.103 154.149 220.381 154.384 220.616C154.618 220.845 154.897 221.025 155.22 221.155C155.548 221.28 155.91 221.342 156.306 221.342H159.04C159.436 221.342 159.795 221.28 160.118 221.155C160.446 221.025 160.728 220.845 160.962 220.616C161.196 220.381 161.376 220.103 161.501 219.78C161.631 219.452 161.696 219.087 161.696 218.686V216.545ZM176.712 222.194C176.712 222.34 176.686 222.475 176.634 222.6C176.582 222.725 176.509 222.834 176.415 222.928C176.321 223.017 176.212 223.087 176.087 223.139C175.962 223.191 175.829 223.217 175.688 223.217H171.11C170.678 223.217 170.241 223.17 169.798 223.077C169.355 222.983 168.925 222.84 168.509 222.647C168.097 222.449 167.709 222.199 167.345 221.897C166.98 221.595 166.66 221.238 166.384 220.827C166.113 220.41 165.899 219.936 165.743 219.405C165.587 218.868 165.509 218.272 165.509 217.616V212.014H167.54V217.616C167.54 218.189 167.618 218.673 167.774 219.069C167.936 219.465 168.139 219.795 168.384 220.061C168.629 220.327 168.897 220.535 169.188 220.686C169.48 220.837 169.756 220.949 170.017 221.022C170.282 221.095 170.514 221.142 170.712 221.163C170.915 221.178 171.048 221.186 171.11 221.186H174.681V212.014H176.712V222.194ZM189.204 214.045H184.728V223.217H182.696V214.045H178.212V212.014H189.204V214.045ZM192.751 216.592H199.884V212.014H201.915V223.217H199.884V218.639H192.751V223.217H190.72V212.014H192.751V216.592ZM140.985 243.217H138.954V240.467H131.813V243.217H129.782V237.616C129.782 236.798 129.923 236.045 130.204 235.358C130.485 234.67 130.876 234.079 131.376 233.584C131.876 233.09 132.467 232.704 133.149 232.428C133.832 232.152 134.576 232.014 135.384 232.014H139.962C140.103 232.014 140.235 232.04 140.36 232.092C140.485 232.144 140.595 232.217 140.688 232.311C140.782 232.405 140.855 232.514 140.907 232.639C140.959 232.764 140.985 232.897 140.985 233.038V243.217ZM131.813 238.436H138.954V234.045H135.384C135.321 234.045 135.188 234.056 134.985 234.077C134.787 234.092 134.556 234.137 134.29 234.209C134.03 234.282 133.754 234.394 133.462 234.545C133.17 234.696 132.902 234.905 132.657 235.17C132.412 235.436 132.209 235.769 132.048 236.17C131.892 236.566 131.813 237.048 131.813 237.616V238.436ZM156.392 243.217H154.345V236.545L150.743 242.881C150.655 243.043 150.53 243.165 150.368 243.249C150.212 243.332 150.043 243.374 149.86 243.374C149.683 243.374 149.517 243.332 149.36 243.249C149.209 243.165 149.09 243.043 149.001 242.881L145.384 236.545V243.217H143.353V232.881C143.353 232.647 143.42 232.439 143.556 232.256C143.696 232.074 143.879 231.952 144.103 231.889C144.212 231.863 144.321 231.855 144.431 231.866C144.54 231.871 144.644 231.894 144.743 231.936C144.847 231.972 144.941 232.027 145.024 232.1C145.108 232.168 145.178 232.251 145.235 232.35L149.86 240.389L154.485 232.35C154.605 232.152 154.769 232.012 154.978 231.928C155.191 231.845 155.412 231.832 155.642 231.889C155.86 231.952 156.04 232.074 156.181 232.256C156.321 232.439 156.392 232.647 156.392 232.881V243.217ZM167.97 238.639H161.556V236.592H167.97V238.639ZM168.884 243.217H161.556C161.274 243.217 160.967 243.168 160.634 243.069C160.3 242.97 159.991 242.808 159.704 242.584C159.423 242.355 159.186 242.061 158.993 241.702C158.806 241.337 158.712 240.892 158.712 240.366V233.038C158.712 232.897 158.738 232.764 158.79 232.639C158.842 232.514 158.912 232.405 159.001 232.311C159.095 232.217 159.204 232.144 159.329 232.092C159.454 232.04 159.59 232.014 159.735 232.014H168.884V234.045H160.743V240.366C160.743 240.631 160.813 240.834 160.954 240.975C161.095 241.116 161.3 241.186 161.571 241.186H168.884V243.217ZM182.048 235.78C182.048 236.243 181.991 236.657 181.876 237.022C181.761 237.387 181.605 237.709 181.407 237.991C181.215 238.267 180.991 238.504 180.735 238.702C180.48 238.9 180.212 239.064 179.931 239.194C179.655 239.319 179.373 239.41 179.087 239.467C178.806 239.525 178.54 239.553 178.29 239.553L182.532 243.217H179.392L175.157 239.553H173.696V237.522H178.29C178.545 237.501 178.777 237.449 178.985 237.366C179.199 237.277 179.381 237.16 179.532 237.014C179.688 236.868 179.808 236.694 179.892 236.491C179.975 236.282 180.017 236.045 180.017 235.78V234.499C180.017 234.384 180.001 234.298 179.97 234.241C179.944 234.178 179.907 234.134 179.86 234.108C179.819 234.077 179.772 234.058 179.72 234.053C179.673 234.048 179.629 234.045 179.587 234.045H172.884V243.217H170.853V233.038C170.853 232.897 170.879 232.764 170.931 232.639C170.983 232.514 171.053 232.405 171.142 232.311C171.235 232.217 171.345 232.144 171.47 232.092C171.595 232.04 171.73 232.014 171.876 232.014H179.587C180.04 232.014 180.423 232.097 180.735 232.264C181.048 232.426 181.3 232.631 181.493 232.881C181.691 233.126 181.832 233.392 181.915 233.678C182.004 233.965 182.048 234.233 182.048 234.483V235.78ZM186.134 243.217H184.103V232.014H186.134V243.217ZM198.54 243.217H191.212C191.024 243.217 190.821 243.196 190.603 243.155C190.389 243.108 190.175 243.038 189.962 242.944C189.754 242.85 189.553 242.73 189.36 242.584C189.168 242.433 188.996 242.254 188.845 242.045C188.699 241.832 188.582 241.587 188.493 241.311C188.405 241.03 188.36 240.715 188.36 240.366V234.866C188.36 234.678 188.381 234.478 188.423 234.264C188.47 234.045 188.54 233.832 188.634 233.624C188.728 233.41 188.85 233.207 189.001 233.014C189.152 232.821 189.332 232.652 189.54 232.506C189.754 232.355 189.998 232.236 190.274 232.147C190.55 232.058 190.863 232.014 191.212 232.014H198.54V234.045H191.212C190.946 234.045 190.743 234.116 190.603 234.256C190.462 234.397 190.392 234.605 190.392 234.881V240.366C190.392 240.626 190.462 240.829 190.603 240.975C190.748 241.116 190.951 241.186 191.212 241.186H198.54V243.217ZM211.454 243.217H209.423V240.467H202.282V243.217H200.251V237.616C200.251 236.798 200.392 236.045 200.673 235.358C200.954 234.67 201.345 234.079 201.845 233.584C202.345 233.09 202.936 232.704 203.618 232.428C204.3 232.152 205.045 232.014 205.853 232.014H210.431C210.571 232.014 210.704 232.04 210.829 232.092C210.954 232.144 211.063 232.217 211.157 232.311C211.251 232.405 211.324 232.514 211.376 232.639C211.428 232.764 211.454 232.897 211.454 233.038V243.217ZM202.282 238.436H209.423V234.045H205.853C205.79 234.045 205.657 234.056 205.454 234.077C205.256 234.092 205.024 234.137 204.759 234.209C204.498 234.282 204.222 234.394 203.931 234.545C203.639 234.696 203.371 234.905 203.126 235.17C202.881 235.436 202.678 235.769 202.517 236.17C202.36 236.566 202.282 237.048 202.282 237.616V238.436Z" fill="white"/>
<!-- made by UXKM, K.S.Chu -->
</svg>
