<svg width="701" height="344" viewBox="0 0 701 344" fill="none" xmlns="http://www.w3.org/2000/svg">
<path fill-rule="evenodd" clip-rule="evenodd" d="M374.009 29.5449L350.5 24.4344L332.274 28.7464L311.171 44.3174L310.452 53.1809L319.085 50.9052L327.238 58.2116L341.027 34.4957L341.747 47.7909L353.377 49.348L342.466 57.2533L317.646 63.7213L312.85 55.4567L312.13 63.7213L291.507 74.7408L290.428 89.2338L277.838 87.9163L276.759 104.925L287.31 107.799L315.967 86.5987L332.274 104.925L335.152 95.9414L325.08 84.0834L338.989 92.9469L345.464 110.434L351.219 95.9414L358.413 92.9469L363.689 79.2923L379.817 90.2902L379.037 85.6407L387.889 74.2721L388.043 73.5832L367.979 55.936L376.162 43.3183L367.979 29.1401L374.009 29.5449ZM332.274 9.58203H358.413V13.894H345.464L338.989 18.206L332.274 9.58203ZM293.425 50.9052L299.061 67.3146L290.428 68.1531L285.752 69.4706L292.586 62.284L293.425 50.9052ZM285.752 61.6851L284.672 60.0082L281.195 68.1531L285.752 65.6377V61.6851Z" fill="#00879F"/>
<mask id="path-2-outside-1_529_11826" maskUnits="userSpaceOnUse" x="292.4" y="63.5044" width="80" height="17" fill="black">
<rect fill="white" x="292.4" y="63.5044" width="80" height="17"/>
<path d="M303.791 72.9263H297.377V70.8794H303.791V72.9263ZM304.705 77.5044H297.377C297.096 77.5044 296.788 77.4549 296.455 77.356C296.122 77.257 295.812 77.0955 295.525 76.8716C295.244 76.6424 295.007 76.3481 294.814 75.9888C294.627 75.6242 294.533 75.1789 294.533 74.6528V67.3247C294.533 67.1841 294.559 67.0513 294.611 66.9263C294.663 66.8013 294.734 66.6919 294.822 66.5981C294.916 66.5044 295.025 66.4315 295.15 66.3794C295.275 66.3273 295.411 66.3013 295.557 66.3013H304.705V68.3325H296.564V74.6528C296.564 74.9185 296.635 75.1216 296.775 75.2622C296.916 75.4028 297.122 75.4731 297.393 75.4731H304.705V77.5044ZM317.65 76.481C317.65 76.6268 317.624 76.7622 317.572 76.8872C317.52 77.0122 317.447 77.1216 317.354 77.2153C317.26 77.3039 317.15 77.3742 317.025 77.4263C316.9 77.4784 316.768 77.5044 316.627 77.5044H312.049C311.617 77.5044 311.179 77.4575 310.736 77.3638C310.294 77.27 309.864 77.1268 309.447 76.9341C309.036 76.7362 308.648 76.4862 308.283 76.1841C307.919 75.882 307.598 75.5252 307.322 75.1138C307.051 74.6971 306.838 74.2231 306.682 73.6919C306.525 73.1554 306.447 72.5591 306.447 71.9028V66.3013H308.479V71.9028C308.479 72.4757 308.557 72.9601 308.713 73.356C308.874 73.7518 309.077 74.0825 309.322 74.3481C309.567 74.6138 309.835 74.8221 310.127 74.9731C310.419 75.1242 310.695 75.2362 310.955 75.3091C311.221 75.382 311.452 75.4289 311.65 75.4497C311.854 75.4653 311.986 75.4731 312.049 75.4731H315.619V66.3013H317.65V76.481ZM331.213 70.0669C331.213 70.5304 331.156 70.9445 331.041 71.3091C330.926 71.6737 330.77 71.9966 330.572 72.2778C330.38 72.5539 330.156 72.7909 329.9 72.9888C329.645 73.1867 329.377 73.3507 329.096 73.481C328.82 73.606 328.538 73.6971 328.252 73.7544C327.971 73.8117 327.705 73.8403 327.455 73.8403L331.697 77.5044H328.557L324.322 73.8403H322.861V71.8091H327.455C327.71 71.7882 327.942 71.7362 328.15 71.6528C328.364 71.5643 328.546 71.4471 328.697 71.3013C328.854 71.1554 328.973 70.981 329.057 70.7778C329.14 70.5695 329.182 70.3325 329.182 70.0669V68.7856C329.182 68.6711 329.166 68.5851 329.135 68.5278C329.109 68.4653 329.072 68.4211 329.025 68.395C328.984 68.3638 328.937 68.3455 328.885 68.3403C328.838 68.3351 328.794 68.3325 328.752 68.3325H322.049V77.5044H320.018V67.3247C320.018 67.1841 320.044 67.0513 320.096 66.9263C320.148 66.8013 320.218 66.6919 320.307 66.5981C320.4 66.5044 320.51 66.4315 320.635 66.3794C320.76 66.3273 320.895 66.3013 321.041 66.3013H328.752C329.205 66.3013 329.588 66.3846 329.9 66.5513C330.213 66.7127 330.465 66.9185 330.658 67.1685C330.856 67.4132 330.997 67.6789 331.08 67.9653C331.169 68.2518 331.213 68.52 331.213 68.77V70.0669ZM345.01 72.9731C345.01 73.6554 344.893 74.283 344.658 74.856C344.424 75.4289 344.098 75.9237 343.682 76.3403C343.265 76.757 342.77 77.0825 342.197 77.3169C341.63 77.5461 341.01 77.6606 340.338 77.6606H337.588C336.916 77.6606 336.294 77.5461 335.721 77.3169C335.148 77.0825 334.653 76.757 334.236 76.3403C333.82 75.9237 333.492 75.4289 333.252 74.856C333.018 74.283 332.9 73.6554 332.9 72.9731V70.8325C332.9 70.1554 333.018 69.5304 333.252 68.9575C333.492 68.3794 333.82 67.8846 334.236 67.4731C334.653 67.0565 335.148 66.731 335.721 66.4966C336.294 66.2622 336.916 66.145 337.588 66.145H340.338C341.01 66.145 341.63 66.2622 342.197 66.4966C342.77 66.731 343.265 67.0565 343.682 67.4731C344.098 67.8846 344.424 68.3794 344.658 68.9575C344.893 69.5304 345.01 70.1554 345.01 70.8325V72.9731ZM342.979 70.8325C342.979 70.4315 342.913 70.0695 342.783 69.7466C342.658 69.4185 342.479 69.1398 342.244 68.9106C342.015 68.6763 341.736 68.4966 341.408 68.3716C341.085 68.2414 340.729 68.1763 340.338 68.1763H337.588C337.192 68.1763 336.83 68.2414 336.502 68.3716C336.179 68.4966 335.9 68.6763 335.666 68.9106C335.432 69.1398 335.249 69.4185 335.119 69.7466C334.994 70.0695 334.932 70.4315 334.932 70.8325V72.9731C334.932 73.3742 334.994 73.7388 335.119 74.0669C335.249 74.3898 335.432 74.6685 335.666 74.9028C335.9 75.132 336.179 75.3117 336.502 75.4419C336.83 75.5669 337.192 75.6294 337.588 75.6294H340.322C340.718 75.6294 341.077 75.5669 341.4 75.4419C341.729 75.3117 342.01 75.132 342.244 74.9028C342.479 74.6685 342.658 74.3898 342.783 74.0669C342.913 73.7388 342.979 73.3742 342.979 72.9731V70.8325ZM358.182 70.9888C358.182 71.4523 358.124 71.8664 358.01 72.231C357.895 72.5955 357.739 72.9185 357.541 73.1997C357.348 73.4757 357.124 73.7127 356.869 73.9106C356.614 74.1086 356.346 74.27 356.064 74.395C355.788 74.52 355.507 74.6112 355.221 74.6685C354.939 74.7257 354.674 74.7544 354.424 74.7544H349.83V72.7231H354.424C354.684 72.7023 354.919 72.6502 355.127 72.5669C355.34 72.4784 355.523 72.3612 355.674 72.2153C355.825 72.0695 355.942 71.895 356.025 71.6919C356.109 71.4836 356.15 71.2492 356.15 70.9888V70.0669C356.124 69.8117 356.07 69.5773 355.986 69.3638C355.903 69.1502 355.788 68.9679 355.643 68.8169C355.502 68.6659 355.33 68.5487 355.127 68.4653C354.924 68.3768 354.689 68.3325 354.424 68.3325H349.846C349.575 68.3325 349.369 68.4028 349.229 68.5435C349.088 68.6841 349.018 68.8872 349.018 69.1528V77.5044H346.986V69.1528C346.986 68.632 347.08 68.1893 347.268 67.8247C347.46 67.4601 347.697 67.1659 347.979 66.9419C348.265 66.7179 348.575 66.5565 348.908 66.4575C349.242 66.3534 349.549 66.3013 349.83 66.3013H354.424C354.882 66.3013 355.294 66.3612 355.658 66.481C356.023 66.5955 356.343 66.7518 356.619 66.9497C356.9 67.1424 357.137 67.3664 357.33 67.6216C357.528 67.8768 357.689 68.145 357.814 68.4263C357.945 68.7023 358.038 68.9836 358.096 69.27C358.153 69.5513 358.182 69.8169 358.182 70.0669V70.9888ZM369.135 72.9263H362.721V70.8794H369.135V72.9263ZM370.049 77.5044H362.721C362.439 77.5044 362.132 77.4549 361.799 77.356C361.465 77.257 361.156 77.0955 360.869 76.8716C360.588 76.6424 360.351 76.3481 360.158 75.9888C359.971 75.6242 359.877 75.1789 359.877 74.6528V67.3247C359.877 67.1841 359.903 67.0513 359.955 66.9263C360.007 66.8013 360.077 66.6919 360.166 66.5981C360.26 66.5044 360.369 66.4315 360.494 66.3794C360.619 66.3273 360.755 66.3013 360.9 66.3013H370.049V68.3325H361.908V74.6528C361.908 74.9185 361.979 75.1216 362.119 75.2622C362.26 75.4028 362.465 75.4731 362.736 75.4731H370.049V77.5044Z"/>
</mask>
<path d="M303.791 72.9263H297.377V70.8794H303.791V72.9263ZM304.705 77.5044H297.377C297.096 77.5044 296.788 77.4549 296.455 77.356C296.122 77.257 295.812 77.0955 295.525 76.8716C295.244 76.6424 295.007 76.3481 294.814 75.9888C294.627 75.6242 294.533 75.1789 294.533 74.6528V67.3247C294.533 67.1841 294.559 67.0513 294.611 66.9263C294.663 66.8013 294.734 66.6919 294.822 66.5981C294.916 66.5044 295.025 66.4315 295.15 66.3794C295.275 66.3273 295.411 66.3013 295.557 66.3013H304.705V68.3325H296.564V74.6528C296.564 74.9185 296.635 75.1216 296.775 75.2622C296.916 75.4028 297.122 75.4731 297.393 75.4731H304.705V77.5044ZM317.65 76.481C317.65 76.6268 317.624 76.7622 317.572 76.8872C317.52 77.0122 317.447 77.1216 317.354 77.2153C317.26 77.3039 317.15 77.3742 317.025 77.4263C316.9 77.4784 316.768 77.5044 316.627 77.5044H312.049C311.617 77.5044 311.179 77.4575 310.736 77.3638C310.294 77.27 309.864 77.1268 309.447 76.9341C309.036 76.7362 308.648 76.4862 308.283 76.1841C307.919 75.882 307.598 75.5252 307.322 75.1138C307.051 74.6971 306.838 74.2231 306.682 73.6919C306.525 73.1554 306.447 72.5591 306.447 71.9028V66.3013H308.479V71.9028C308.479 72.4757 308.557 72.9601 308.713 73.356C308.874 73.7518 309.077 74.0825 309.322 74.3481C309.567 74.6138 309.835 74.8221 310.127 74.9731C310.419 75.1242 310.695 75.2362 310.955 75.3091C311.221 75.382 311.452 75.4289 311.65 75.4497C311.854 75.4653 311.986 75.4731 312.049 75.4731H315.619V66.3013H317.65V76.481ZM331.213 70.0669C331.213 70.5304 331.156 70.9445 331.041 71.3091C330.926 71.6737 330.77 71.9966 330.572 72.2778C330.38 72.5539 330.156 72.7909 329.9 72.9888C329.645 73.1867 329.377 73.3507 329.096 73.481C328.82 73.606 328.538 73.6971 328.252 73.7544C327.971 73.8117 327.705 73.8403 327.455 73.8403L331.697 77.5044H328.557L324.322 73.8403H322.861V71.8091H327.455C327.71 71.7882 327.942 71.7362 328.15 71.6528C328.364 71.5643 328.546 71.4471 328.697 71.3013C328.854 71.1554 328.973 70.981 329.057 70.7778C329.14 70.5695 329.182 70.3325 329.182 70.0669V68.7856C329.182 68.6711 329.166 68.5851 329.135 68.5278C329.109 68.4653 329.072 68.4211 329.025 68.395C328.984 68.3638 328.937 68.3455 328.885 68.3403C328.838 68.3351 328.794 68.3325 328.752 68.3325H322.049V77.5044H320.018V67.3247C320.018 67.1841 320.044 67.0513 320.096 66.9263C320.148 66.8013 320.218 66.6919 320.307 66.5981C320.4 66.5044 320.51 66.4315 320.635 66.3794C320.76 66.3273 320.895 66.3013 321.041 66.3013H328.752C329.205 66.3013 329.588 66.3846 329.9 66.5513C330.213 66.7127 330.465 66.9185 330.658 67.1685C330.856 67.4132 330.997 67.6789 331.08 67.9653C331.169 68.2518 331.213 68.52 331.213 68.77V70.0669ZM345.01 72.9731C345.01 73.6554 344.893 74.283 344.658 74.856C344.424 75.4289 344.098 75.9237 343.682 76.3403C343.265 76.757 342.77 77.0825 342.197 77.3169C341.63 77.5461 341.01 77.6606 340.338 77.6606H337.588C336.916 77.6606 336.294 77.5461 335.721 77.3169C335.148 77.0825 334.653 76.757 334.236 76.3403C333.82 75.9237 333.492 75.4289 333.252 74.856C333.018 74.283 332.9 73.6554 332.9 72.9731V70.8325C332.9 70.1554 333.018 69.5304 333.252 68.9575C333.492 68.3794 333.82 67.8846 334.236 67.4731C334.653 67.0565 335.148 66.731 335.721 66.4966C336.294 66.2622 336.916 66.145 337.588 66.145H340.338C341.01 66.145 341.63 66.2622 342.197 66.4966C342.77 66.731 343.265 67.0565 343.682 67.4731C344.098 67.8846 344.424 68.3794 344.658 68.9575C344.893 69.5304 345.01 70.1554 345.01 70.8325V72.9731ZM342.979 70.8325C342.979 70.4315 342.913 70.0695 342.783 69.7466C342.658 69.4185 342.479 69.1398 342.244 68.9106C342.015 68.6763 341.736 68.4966 341.408 68.3716C341.085 68.2414 340.729 68.1763 340.338 68.1763H337.588C337.192 68.1763 336.83 68.2414 336.502 68.3716C336.179 68.4966 335.9 68.6763 335.666 68.9106C335.432 69.1398 335.249 69.4185 335.119 69.7466C334.994 70.0695 334.932 70.4315 334.932 70.8325V72.9731C334.932 73.3742 334.994 73.7388 335.119 74.0669C335.249 74.3898 335.432 74.6685 335.666 74.9028C335.9 75.132 336.179 75.3117 336.502 75.4419C336.83 75.5669 337.192 75.6294 337.588 75.6294H340.322C340.718 75.6294 341.077 75.5669 341.4 75.4419C341.729 75.3117 342.01 75.132 342.244 74.9028C342.479 74.6685 342.658 74.3898 342.783 74.0669C342.913 73.7388 342.979 73.3742 342.979 72.9731V70.8325ZM358.182 70.9888C358.182 71.4523 358.124 71.8664 358.01 72.231C357.895 72.5955 357.739 72.9185 357.541 73.1997C357.348 73.4757 357.124 73.7127 356.869 73.9106C356.614 74.1086 356.346 74.27 356.064 74.395C355.788 74.52 355.507 74.6112 355.221 74.6685C354.939 74.7257 354.674 74.7544 354.424 74.7544H349.83V72.7231H354.424C354.684 72.7023 354.919 72.6502 355.127 72.5669C355.34 72.4784 355.523 72.3612 355.674 72.2153C355.825 72.0695 355.942 71.895 356.025 71.6919C356.109 71.4836 356.15 71.2492 356.15 70.9888V70.0669C356.124 69.8117 356.07 69.5773 355.986 69.3638C355.903 69.1502 355.788 68.9679 355.643 68.8169C355.502 68.6659 355.33 68.5487 355.127 68.4653C354.924 68.3768 354.689 68.3325 354.424 68.3325H349.846C349.575 68.3325 349.369 68.4028 349.229 68.5435C349.088 68.6841 349.018 68.8872 349.018 69.1528V77.5044H346.986V69.1528C346.986 68.632 347.08 68.1893 347.268 67.8247C347.46 67.4601 347.697 67.1659 347.979 66.9419C348.265 66.7179 348.575 66.5565 348.908 66.4575C349.242 66.3534 349.549 66.3013 349.83 66.3013H354.424C354.882 66.3013 355.294 66.3612 355.658 66.481C356.023 66.5955 356.343 66.7518 356.619 66.9497C356.9 67.1424 357.137 67.3664 357.33 67.6216C357.528 67.8768 357.689 68.145 357.814 68.4263C357.945 68.7023 358.038 68.9836 358.096 69.27C358.153 69.5513 358.182 69.8169 358.182 70.0669V70.9888ZM369.135 72.9263H362.721V70.8794H369.135V72.9263ZM370.049 77.5044H362.721C362.439 77.5044 362.132 77.4549 361.799 77.356C361.465 77.257 361.156 77.0955 360.869 76.8716C360.588 76.6424 360.351 76.3481 360.158 75.9888C359.971 75.6242 359.877 75.1789 359.877 74.6528V67.3247C359.877 67.1841 359.903 67.0513 359.955 66.9263C360.007 66.8013 360.077 66.6919 360.166 66.5981C360.26 66.5044 360.369 66.4315 360.494 66.3794C360.619 66.3273 360.755 66.3013 360.9 66.3013H370.049V68.3325H361.908V74.6528C361.908 74.9185 361.979 75.1216 362.119 75.2622C362.26 75.4028 362.465 75.4731 362.736 75.4731H370.049V77.5044Z" fill="white"/>
<path d="M303.791 72.9263V74.9263H305.791V72.9263H303.791ZM297.377 72.9263H295.377V74.9263H297.377V72.9263ZM297.377 70.8794V68.8794H295.377V70.8794H297.377ZM303.791 70.8794H305.791V68.8794H303.791V70.8794ZM304.705 77.5044V79.5044H306.705V77.5044H304.705ZM295.525 76.8716L294.262 78.4221L294.278 78.4348L294.294 78.4472L295.525 76.8716ZM294.814 75.9888L293.036 76.9035L293.044 76.9188L293.052 76.9339L294.814 75.9888ZM294.822 66.5981L293.408 65.1839L293.388 65.2041L293.368 65.2249L294.822 66.5981ZM304.705 66.3013H306.705V64.3013H304.705V66.3013ZM304.705 68.3325V70.3325H306.705V68.3325H304.705ZM296.564 68.3325V66.3325H294.564V68.3325H296.564ZM304.705 75.4731H306.705V73.4731H304.705V75.4731ZM303.791 70.9263H297.377V74.9263H303.791V70.9263ZM299.377 72.9263V70.8794H295.377V72.9263H299.377ZM297.377 72.8794H303.791V68.8794H297.377V72.8794ZM301.791 70.8794V72.9263H305.791V70.8794H301.791ZM304.705 75.5044H297.377V79.5044H304.705V75.5044ZM297.377 75.5044C297.328 75.5044 297.215 75.4952 297.024 75.4387L295.886 79.2733C296.362 79.4147 296.864 79.5044 297.377 79.5044V75.5044ZM297.024 75.4387C296.942 75.4143 296.855 75.3727 296.757 75.296L294.294 78.4472C294.768 78.8184 295.301 79.0997 295.886 79.2733L297.024 75.4387ZM296.789 75.3211C296.736 75.2783 296.66 75.199 296.577 75.0436L293.052 76.9339C293.354 77.4972 293.752 78.0066 294.262 78.4221L296.789 75.3211ZM296.593 75.0741C296.586 75.0611 296.533 74.9481 296.533 74.6528H292.533C292.533 75.4096 292.668 76.1873 293.036 76.9035L296.593 75.0741ZM296.533 74.6528V67.3247H292.533V74.6528H296.533ZM296.533 67.3247C296.533 67.4378 296.511 67.5674 296.457 67.6955L292.765 66.157C292.608 66.5352 292.533 66.9304 292.533 67.3247H296.533ZM296.457 67.6955C296.421 67.7826 296.362 67.8805 296.276 67.9714L293.368 65.2249C293.105 65.5033 292.906 65.82 292.765 66.157L296.457 67.6955ZM296.236 68.0124C296.142 68.1073 296.03 68.1794 295.92 68.2255L294.381 64.5332C294.02 64.6836 293.691 64.9015 293.408 65.1839L296.236 68.0124ZM295.92 68.2255C295.783 68.2826 295.654 68.3013 295.557 68.3013V64.3013C295.167 64.3013 294.768 64.372 294.381 64.5332L295.92 68.2255ZM295.557 68.3013H304.705V64.3013H295.557V68.3013ZM302.705 66.3013V68.3325H306.705V66.3013H302.705ZM304.705 66.3325H296.564V70.3325H304.705V66.3325ZM294.564 68.3325V74.6528H298.564V68.3325H294.564ZM294.564 74.6528C294.564 75.2651 294.733 76.0482 295.361 76.6764L298.19 73.848C298.537 74.195 298.564 74.5718 298.564 74.6528H294.564ZM295.361 76.6764C295.996 77.3115 296.788 77.4731 297.393 77.4731V73.4731C297.455 73.4731 297.836 73.4942 298.19 73.848L295.361 76.6764ZM297.393 77.4731H304.705V73.4731H297.393V77.4731ZM302.705 75.4731V77.5044H306.705V75.4731H302.705ZM317.354 77.2153L318.727 78.6694L318.748 78.6497L318.768 78.6295L317.354 77.2153ZM309.447 76.9341L308.58 78.7364L308.594 78.743L308.608 78.7493L309.447 76.9341ZM307.322 75.1138L305.645 76.2037L305.653 76.2159L305.661 76.228L307.322 75.1138ZM306.682 73.6919L304.761 74.2512L304.763 74.2562L306.682 73.6919ZM306.447 66.3013V64.3013H304.447V66.3013H306.447ZM308.479 66.3013H310.479V64.3013H308.479V66.3013ZM308.713 73.356L306.853 74.0903L306.857 74.1008L306.861 74.1113L308.713 73.356ZM309.322 74.3481L307.852 75.7035L309.322 74.3481ZM310.955 75.3091L310.416 77.235L310.426 77.2377L310.955 75.3091ZM311.65 75.4497L311.441 77.4387L311.469 77.4417L311.497 77.4438L311.65 75.4497ZM315.619 75.4731V77.4731H317.619V75.4731H315.619ZM315.619 66.3013V64.3013H313.619V66.3013H315.619ZM317.65 66.3013H319.65V64.3013H317.65V66.3013ZM315.65 76.481C315.65 76.3833 315.669 76.255 315.726 76.118L319.418 77.6564C319.58 77.2694 319.65 76.8703 319.65 76.481H315.65ZM315.726 76.118C315.772 76.0071 315.844 75.8961 315.939 75.8011L318.768 78.6295C319.05 78.3471 319.268 78.0173 319.418 77.6564L315.726 76.118ZM315.98 75.7613C316.071 75.6754 316.169 75.6164 316.256 75.5801L317.795 79.2724C318.132 79.132 318.448 78.9323 318.727 78.6694L315.98 75.7613ZM316.256 75.5801C316.384 75.5267 316.514 75.5044 316.627 75.5044V79.5044C317.021 79.5044 317.416 79.43 317.795 79.2724L316.256 75.5801ZM316.627 75.5044H312.049V79.5044H316.627V75.5044ZM312.049 75.5044C311.762 75.5044 311.464 75.4734 311.151 75.4072L310.322 79.3204C310.895 79.4416 311.471 79.5044 312.049 79.5044V75.5044ZM311.151 75.4072C310.857 75.3449 310.569 75.2496 310.287 75.1188L308.608 78.7493C309.158 79.004 309.731 79.1951 310.322 79.3204L311.151 75.4072ZM310.314 75.1317C310.055 75.0069 309.803 74.8462 309.559 74.644L307.007 77.7241C307.492 78.1261 308.017 78.4655 308.58 78.7364L310.314 75.1317ZM309.559 74.644C309.349 74.4702 309.157 74.2587 308.983 73.9995L305.661 76.228C306.04 76.7917 306.488 77.2938 307.007 77.7241L309.559 74.644ZM308.999 74.0238C308.845 73.7871 308.708 73.4938 308.6 73.1276L304.763 74.2562C304.968 74.9525 305.258 75.6071 305.645 76.2037L308.999 74.0238ZM308.602 73.1326C308.507 72.8063 308.447 72.4019 308.447 71.9028H304.447C304.447 72.7163 304.544 73.5046 304.761 74.2512L308.602 73.1326ZM308.447 71.9028V66.3013H304.447V71.9028H308.447ZM306.447 68.3013H308.479V64.3013H306.447V68.3013ZM306.479 66.3013V71.9028H310.479V66.3013H306.479ZM306.479 71.9028C306.479 72.6453 306.578 73.395 306.853 74.0903L310.573 72.6216C310.535 72.5252 310.479 72.3062 310.479 71.9028H306.479ZM306.861 74.1113C307.097 74.6886 307.418 75.2333 307.852 75.7035L310.793 72.9928C310.737 72.9318 310.652 72.8149 310.565 72.6006L306.861 74.1113ZM307.852 75.7035C308.238 76.1233 308.689 76.4809 309.207 76.7491L311.047 73.1972C310.981 73.1633 310.896 73.1042 310.793 72.9928L307.852 75.7035ZM309.207 76.7491C309.595 76.9502 309.999 77.1184 310.416 77.235L311.494 73.3832C311.39 73.3539 311.242 73.2982 311.047 73.1972L309.207 76.7491ZM310.426 77.2377C310.759 77.3294 311.103 77.4031 311.441 77.4387L311.86 73.4607C311.802 73.4546 311.682 73.4346 311.485 73.3804L310.426 77.2377ZM311.497 77.4438C311.683 77.4581 311.895 77.4731 312.049 77.4731V73.4731C312.07 73.4731 312.079 73.4737 312.069 73.4733C312.06 73.4729 312.045 73.4722 312.02 73.4707C311.97 73.4678 311.899 73.4629 311.804 73.4556L311.497 77.4438ZM312.049 77.4731H315.619V73.4731H312.049V77.4731ZM317.619 75.4731V66.3013H313.619V75.4731H317.619ZM315.619 68.3013H317.65V64.3013H315.619V68.3013ZM315.65 66.3013V76.481H319.65V66.3013H315.65ZM330.572 72.2778L328.937 71.1268L328.932 71.133L330.572 72.2778ZM329.096 73.481L329.921 75.3029L329.928 75.2994L329.936 75.2959L329.096 73.481ZM328.252 73.7544L327.86 71.7932L327.853 71.7946L328.252 73.7544ZM327.455 73.8403V71.8403H322.08L326.148 75.3539L327.455 73.8403ZM331.697 77.5044V79.5044H337.073L333.005 75.9908L331.697 77.5044ZM328.557 77.5044L327.248 79.0168L327.811 79.5044H328.557V77.5044ZM324.322 73.8403L325.631 72.3279L325.067 71.8403H324.322V73.8403ZM322.861 73.8403H320.861V75.8403H322.861V73.8403ZM322.861 71.8091V69.8091H320.861V71.8091H322.861ZM327.455 71.8091V73.8091H327.537L327.618 73.8025L327.455 71.8091ZM328.15 71.6528L328.893 73.5098L328.905 73.5051L328.916 73.5003L328.15 71.6528ZM328.697 71.3013L327.333 69.8392L327.32 69.8507L327.308 69.8625L328.697 71.3013ZM329.057 70.7778L330.907 71.5369L330.91 71.5288L330.914 71.5206L329.057 70.7778ZM329.135 68.5278L327.289 69.2971L327.329 69.3937L327.379 69.4855L329.135 68.5278ZM329.025 68.395L327.825 69.995L327.935 70.077L328.054 70.1433L329.025 68.395ZM328.885 68.3403L328.664 70.3281L328.675 70.3293L328.686 70.3304L328.885 68.3403ZM322.049 68.3325V66.3325H320.049V68.3325H322.049ZM322.049 77.5044V79.5044H324.049V77.5044H322.049ZM320.018 77.5044H318.018V79.5044H320.018V77.5044ZM320.307 66.5981L318.892 65.1839L318.872 65.2041L318.853 65.2249L320.307 66.5981ZM329.9 66.5513L328.959 68.316L328.971 68.3221L328.982 68.3281L329.9 66.5513ZM330.658 67.1685L329.074 68.3895L329.088 68.4079L329.103 68.4259L330.658 67.1685ZM331.08 67.9653L329.16 68.524L329.164 68.54L329.169 68.5559L331.08 67.9653ZM329.213 70.0669C329.213 70.3688 329.175 70.5751 329.133 70.7094L332.949 71.9087C333.136 71.3139 333.213 70.6921 333.213 70.0669H329.213ZM329.133 70.7094C329.073 70.899 329.004 71.0318 328.937 71.1268L332.208 73.4288C332.537 72.9613 332.779 72.4484 332.949 71.9087L329.133 70.7094ZM328.932 71.133C328.85 71.2508 328.764 71.3391 328.675 71.4083L331.126 74.5692C331.547 74.2426 331.909 73.8569 332.212 73.4227L328.932 71.133ZM328.675 71.4083C328.534 71.5177 328.394 71.6018 328.255 71.666L329.936 75.2959C330.36 75.0997 330.757 74.8557 331.126 74.5692L328.675 71.4083ZM328.271 71.659C328.128 71.7237 327.992 71.7669 327.86 71.7932L328.644 75.7156C329.085 75.6274 329.511 75.4882 329.921 75.3029L328.271 71.659ZM327.853 71.7946C327.684 71.829 327.553 71.8403 327.455 71.8403V75.8403C327.857 75.8403 328.257 75.7944 328.651 75.7141L327.853 71.7946ZM326.148 75.3539L330.39 79.018L333.005 75.9908L328.762 72.3267L326.148 75.3539ZM331.697 75.5044H328.557V79.5044H331.697V75.5044ZM329.865 75.992L325.631 72.3279L323.014 75.3527L327.248 79.0168L329.865 75.992ZM324.322 71.8403H322.861V75.8403H324.322V71.8403ZM324.861 73.8403V71.8091H320.861V73.8403H324.861ZM322.861 73.8091H327.455V69.8091H322.861V73.8091ZM327.618 73.8025C328.045 73.7676 328.475 73.6769 328.893 73.5098L327.408 69.7959C327.408 69.7959 327.406 69.7967 327.402 69.7979C327.397 69.7992 327.391 69.801 327.382 69.8031C327.363 69.8072 327.334 69.8123 327.292 69.8157L327.618 73.8025ZM328.916 73.5003C329.338 73.3255 329.738 73.0767 330.086 72.7401L327.308 69.8625C327.33 69.8414 327.35 69.8262 327.366 69.8162C327.381 69.8063 327.389 69.8036 327.384 69.8053L328.916 73.5003ZM330.062 72.7634C330.435 72.4155 330.717 71.9992 330.907 71.5369L327.206 70.0187C327.216 69.9941 327.232 69.9629 327.255 69.929C327.279 69.895 327.305 69.8646 327.333 69.8392L330.062 72.7634ZM330.914 71.5206C331.107 71.0369 331.182 70.5411 331.182 70.0669H327.182C327.182 70.0954 327.179 70.1045 327.181 70.0975C327.182 70.09 327.187 70.0676 327.2 70.0351L330.914 71.5206ZM331.182 70.0669V68.7856H327.182V70.0669H331.182ZM331.182 68.7856C331.182 68.5547 331.161 68.0667 330.891 67.5701L327.379 69.4855C327.264 69.2755 327.22 69.0936 327.202 68.993C327.183 68.8881 327.182 68.8136 327.182 68.7856H331.182ZM330.981 67.7586C330.828 67.3917 330.531 66.9434 329.997 66.6467L328.054 70.1433C327.614 69.8987 327.389 69.5389 327.289 69.2971L330.981 67.7586ZM330.225 66.795C329.89 66.5437 329.497 66.3916 329.084 66.3503L328.686 70.3304C328.377 70.2995 328.077 70.1838 327.825 69.995L330.225 66.795ZM329.106 66.3526C328.995 66.3402 328.876 66.3325 328.752 66.3325V70.3325C328.711 70.3325 328.681 70.33 328.664 70.3281L329.106 66.3526ZM328.752 66.3325H322.049V70.3325H328.752V66.3325ZM320.049 68.3325V77.5044H324.049V68.3325H320.049ZM322.049 75.5044H320.018V79.5044H322.049V75.5044ZM322.018 77.5044V67.3247H318.018V77.5044H322.018ZM322.018 67.3247C322.018 67.4378 321.995 67.5674 321.942 67.6955L318.25 66.157C318.092 66.5352 318.018 66.9304 318.018 67.3247H322.018ZM321.942 67.6955C321.906 67.7826 321.847 67.8805 321.761 67.9714L318.853 65.2249C318.59 65.5033 318.39 65.82 318.25 66.157L321.942 67.6955ZM321.721 68.0124C321.626 68.1073 321.515 68.1794 321.404 68.2255L319.866 64.5332C319.505 64.6836 319.175 64.9015 318.892 65.1839L321.721 68.0124ZM321.404 68.2255C321.267 68.2826 321.139 68.3013 321.041 68.3013V64.3013C320.652 64.3013 320.253 64.372 319.866 64.5332L321.404 68.2255ZM321.041 68.3013H328.752V64.3013H321.041V68.3013ZM328.752 68.3013C328.966 68.3013 329.006 68.341 328.959 68.316L330.842 64.7866C330.17 64.4282 329.444 64.3013 328.752 64.3013V68.3013ZM328.982 68.3281C329.026 68.3506 329.05 68.3682 329.061 68.3774C329.067 68.3821 329.07 68.3854 329.072 68.387C329.074 68.3886 329.074 68.3894 329.074 68.3895L332.242 65.9474C331.851 65.4404 331.361 65.0547 330.818 64.7744L328.982 68.3281ZM329.103 68.4259C329.143 68.4759 329.155 68.5063 329.16 68.524L333 67.4067C332.839 66.8515 332.569 66.3506 332.213 65.911L329.103 68.4259ZM329.169 68.5559C329.21 68.688 329.213 68.7555 329.213 68.77H333.213C333.213 68.2846 333.127 67.8156 332.991 67.3747L329.169 68.5559ZM329.213 68.77V70.0669H333.213V68.77H329.213ZM342.197 77.3169L342.946 79.1715L342.955 79.168L342.197 77.3169ZM335.721 77.3169L334.963 79.168L334.971 79.1709L334.978 79.1738L335.721 77.3169ZM333.252 74.856L331.401 75.6132L331.404 75.6204L331.407 75.6276L333.252 74.856ZM333.252 68.9575L331.404 68.1918L331.401 68.2003L333.252 68.9575ZM334.236 67.4731L335.642 68.8963L335.651 68.8874L334.236 67.4731ZM342.197 66.4966L341.434 68.3452L341.44 68.3477L342.197 66.4966ZM343.682 67.4731L342.267 68.8874L342.276 68.8962L343.682 67.4731ZM344.658 68.9575L342.805 69.7089L342.807 69.7148L344.658 68.9575ZM342.783 69.7466L340.914 70.4586L340.921 70.4766L340.928 70.4945L342.783 69.7466ZM342.244 68.9106L340.814 70.3089L340.83 70.3249L340.846 70.3407L342.244 68.9106ZM341.408 68.3716L340.66 70.2265L340.678 70.2337L340.696 70.2406L341.408 68.3716ZM336.502 68.3716L337.224 70.2367L337.232 70.2337L337.24 70.2306L336.502 68.3716ZM335.666 68.9106L337.064 70.3407L337.072 70.3328L337.08 70.3249L335.666 68.9106ZM335.119 69.7466L333.26 69.0089L333.257 69.0167L333.254 69.0246L335.119 69.7466ZM335.119 74.0669L333.25 74.7789L333.257 74.7969L333.264 74.8148L335.119 74.0669ZM335.666 74.9028L334.252 76.317L334.26 76.325L334.268 76.3328L335.666 74.9028ZM336.502 75.4419L335.754 77.2968L335.772 77.304L335.79 77.3109L336.502 75.4419ZM341.4 75.4419L342.122 77.307L342.13 77.304L342.138 77.3009L341.4 75.4419ZM342.244 74.9028L343.642 76.3328L343.65 76.325L343.658 76.317L342.244 74.9028ZM342.783 74.0669L340.924 73.3292L340.921 73.337L340.918 73.3449L342.783 74.0669ZM343.01 72.9731C343.01 73.4224 342.934 73.7896 342.807 74.0987L346.509 75.6132C346.852 74.7765 347.01 73.8885 347.01 72.9731H343.01ZM342.807 74.0987C342.668 74.4384 342.487 74.7067 342.267 74.9261L345.096 77.7545C345.71 77.1407 346.18 76.4193 346.509 75.6132L342.807 74.0987ZM342.267 74.9261C342.048 75.1456 341.78 75.3268 341.44 75.4658L342.955 79.168C343.761 78.8382 344.482 78.3684 345.096 77.7545L342.267 74.9261ZM341.449 75.4623C341.141 75.5865 340.778 75.6606 340.338 75.6606V79.6606C341.241 79.6606 342.118 79.5057 342.946 79.1715L341.449 75.4623ZM340.338 75.6606H337.588V79.6606H340.338V75.6606ZM337.588 75.6606C337.148 75.6606 336.78 75.5865 336.463 75.4599L334.978 79.1738C335.807 79.5056 336.684 79.6606 337.588 79.6606V75.6606ZM336.478 75.4658C336.138 75.3268 335.87 75.1456 335.651 74.9261L332.822 77.7545C333.436 78.3684 334.157 78.8382 334.963 79.168L336.478 75.4658ZM335.651 74.9261C335.428 74.7034 335.242 74.4302 335.097 74.0843L331.407 75.6276C331.741 76.4276 332.212 77.144 332.822 77.7545L335.651 74.9261ZM335.103 74.0987C334.977 73.7896 334.9 73.4224 334.9 72.9731H330.9C330.9 73.8885 331.059 74.7765 331.401 75.6132L335.103 74.0987ZM334.9 72.9731V70.8325H330.9V72.9731H334.9ZM334.9 70.8325C334.9 70.3906 334.976 70.0257 335.103 69.7148L331.401 68.2003C331.059 69.0352 330.9 69.9202 330.9 70.8325H334.9ZM335.1 69.7232C335.244 69.3744 335.428 69.1076 335.642 68.8962L332.831 66.0501C332.212 66.6616 331.739 67.3844 331.404 68.1918L335.1 69.7232ZM335.651 68.8874C335.87 68.6679 336.138 68.4867 336.478 68.3477L334.963 64.6455C334.157 64.9753 333.436 65.4451 332.822 66.0589L335.651 68.8874ZM336.478 68.3477C336.791 68.2197 337.153 68.145 337.588 68.145V64.145C336.679 64.145 335.797 64.3047 334.963 64.6455L336.478 68.3477ZM337.588 68.145H340.338V64.145H337.588V68.145ZM340.338 68.145C340.773 68.145 341.13 68.2198 341.434 68.3452L342.96 64.6479C342.129 64.3046 341.247 64.145 340.338 64.145V68.145ZM341.44 68.3477C341.78 68.4867 342.048 68.6679 342.267 68.8874L345.096 66.0589C344.482 65.4451 343.761 64.9753 342.955 64.6455L341.44 68.3477ZM342.276 68.8962C342.487 69.1043 342.666 69.3661 342.805 69.7089L346.512 68.2061C346.182 67.3927 345.71 66.6649 345.087 66.0501L342.276 68.8962ZM342.807 69.7148C342.934 70.0257 343.01 70.3906 343.01 70.8325H347.01C347.01 69.9202 346.851 69.0352 346.509 68.2003L342.807 69.7148ZM343.01 70.8325V72.9731H347.01V70.8325H343.01ZM344.979 70.8325C344.979 70.2137 344.878 69.5925 344.638 68.9986L340.928 70.4945C340.949 70.5465 340.979 70.6493 340.979 70.8325H344.979ZM344.652 69.0346C344.432 68.4555 344.098 67.9264 343.642 67.4806L340.846 70.3407C340.859 70.3532 340.885 70.3814 340.914 70.4586L344.652 69.0346ZM343.674 67.5124C343.228 67.0565 342.699 66.7232 342.12 66.5026L340.696 70.2406C340.773 70.2699 340.802 70.296 340.814 70.3089L343.674 67.5124ZM342.156 66.5167C341.568 66.2796 340.954 66.1763 340.338 66.1763V70.1763C340.503 70.1763 340.602 70.2031 340.66 70.2265L342.156 66.5167ZM340.338 66.1763H337.588V70.1763H340.338V66.1763ZM337.588 66.1763C336.97 66.1763 336.354 66.2786 335.764 66.5126L337.24 70.2306C337.306 70.2042 337.414 70.1763 337.588 70.1763V66.1763ZM335.78 66.5064C335.209 66.7274 334.692 67.0564 334.252 67.4964L337.08 70.3249C337.109 70.2961 337.149 70.2658 337.224 70.2367L335.78 66.5064ZM334.268 67.4806C333.818 67.9205 333.486 68.4406 333.26 69.0089L336.978 70.4843C337.013 70.3963 337.045 70.3592 337.064 70.3407L334.268 67.4806ZM333.254 69.0246C333.027 69.6111 332.932 70.2231 332.932 70.8325H336.932C336.932 70.6399 336.961 70.5278 336.984 70.4686L333.254 69.0246ZM332.932 70.8325V72.9731H336.932V70.8325H332.932ZM332.932 72.9731C332.932 73.5833 333.027 74.1935 333.25 74.7789L336.988 73.3549C336.961 73.2841 336.932 73.1651 336.932 72.9731H332.932ZM333.264 74.8148C333.49 75.3744 333.818 75.8829 334.252 76.317L337.08 73.4886C337.046 73.454 337.009 73.4052 336.974 73.319L333.264 74.8148ZM334.268 76.3328C334.701 76.7559 335.204 77.075 335.754 77.2968L337.25 73.587C337.154 73.5484 337.1 73.508 337.064 73.4728L334.268 76.3328ZM335.79 77.3109C336.373 77.5328 336.979 77.6294 337.588 77.6294V73.6294C337.405 73.6294 337.288 73.601 337.214 73.5729L335.79 77.3109ZM337.588 77.6294H340.322V73.6294H337.588V77.6294ZM340.322 77.6294C340.93 77.6294 341.539 77.533 342.122 77.307L340.678 73.5768C340.616 73.6008 340.506 73.6294 340.322 73.6294V77.6294ZM342.138 77.3009C342.693 77.0805 343.204 76.7613 343.642 76.3328L340.846 73.4728C340.815 73.5027 340.764 73.5429 340.663 73.5829L342.138 77.3009ZM343.658 76.317C344.098 75.877 344.427 75.3596 344.648 74.7889L340.918 73.3449C340.889 73.4201 340.859 73.4599 340.83 73.4886L343.658 76.317ZM344.642 74.8046C344.877 74.2119 344.979 73.5927 344.979 72.9731H340.979C340.979 73.1557 340.949 73.2656 340.924 73.3292L344.642 74.8046ZM344.979 72.9731V70.8325H340.979V72.9731H344.979ZM357.541 73.1997L355.905 72.0487L355.901 72.0549L357.541 73.1997ZM356.064 74.395L355.252 72.5674L355.239 72.5731L356.064 74.395ZM355.221 74.6685L354.828 72.7073L354.821 72.7087L355.221 74.6685ZM349.83 74.7544H347.83V76.7544H349.83V74.7544ZM349.83 72.7231V70.7231H347.83V72.7231H349.83ZM354.424 72.7231V74.7231H354.504L354.583 74.7168L354.424 72.7231ZM355.127 72.5669L355.87 74.4238L355.881 74.4192L355.893 74.4144L355.127 72.5669ZM356.025 71.6919L357.876 72.451L357.879 72.4429L357.882 72.4347L356.025 71.6919ZM356.15 70.0669H358.15V69.9651L358.14 69.8639L356.15 70.0669ZM355.986 69.3638L357.849 68.6367L355.986 69.3638ZM355.643 68.8169L354.179 70.1797L354.191 70.193L354.204 70.2061L355.643 68.8169ZM355.127 68.4653L354.328 70.2987L354.348 70.3074L354.368 70.3157L355.127 68.4653ZM349.018 77.5044V79.5044H351.018V77.5044H349.018ZM346.986 77.5044H344.986V79.5044H346.986V77.5044ZM347.268 67.8247L345.499 66.8901L345.494 66.9L345.489 66.91L347.268 67.8247ZM347.979 66.9419L346.747 65.3663L346.74 65.3718L346.733 65.3773L347.979 66.9419ZM348.908 66.4575L349.477 68.3748L349.491 68.3707L349.505 68.3665L348.908 66.4575ZM355.658 66.481L355.034 68.381L355.046 68.3851L355.059 68.3889L355.658 66.481ZM356.619 66.9497L355.454 68.5751L355.471 68.5875L355.489 68.5996L356.619 66.9497ZM357.33 67.6216L355.734 68.8268L355.742 68.8371L355.75 68.8472L357.33 67.6216ZM357.814 68.4263L355.987 69.2385L355.996 69.2591L356.006 69.2795L357.814 68.4263ZM358.096 69.27L356.135 69.6623L356.136 69.6692L358.096 69.27ZM356.182 70.9888C356.182 71.2907 356.144 71.4969 356.102 71.6313L359.918 72.8306C360.105 72.2358 360.182 71.614 360.182 70.9888H356.182ZM356.102 71.6313C356.042 71.8208 355.972 71.9537 355.905 72.0487L359.177 74.3507C359.506 73.8832 359.748 73.3703 359.918 72.8306L356.102 71.6313ZM355.901 72.0549C355.819 72.1727 355.733 72.2609 355.643 72.3302L358.095 75.4911C358.516 75.1645 358.878 74.7788 359.181 74.3446L355.901 72.0549ZM355.643 72.3302C355.509 72.4342 355.379 72.511 355.252 72.5674L356.877 76.2226C357.312 76.0291 357.719 75.7829 358.095 75.4911L355.643 72.3302ZM355.239 72.5731C355.097 72.6377 354.96 72.6809 354.828 72.7073L355.613 76.6296C356.054 76.5414 356.48 76.4023 356.889 76.2169L355.239 72.5731ZM354.821 72.7087C354.653 72.7431 354.522 72.7544 354.424 72.7544V76.7544C354.826 76.7544 355.226 76.7084 355.62 76.6282L354.821 72.7087ZM354.424 72.7544H349.83V76.7544H354.424V72.7544ZM351.83 74.7544V72.7231H347.83V74.7544H351.83ZM349.83 74.7231H354.424V70.7231H349.83V74.7231ZM354.583 74.7168C355.012 74.6825 355.447 74.5928 355.87 74.4238L354.384 70.7099C354.39 70.7076 354.357 70.7221 354.264 70.7295L354.583 74.7168ZM355.893 74.4144C356.315 74.2396 356.714 73.9908 357.063 73.6541L354.285 70.7765C354.306 70.7555 354.327 70.7403 354.342 70.7302C354.358 70.7204 354.365 70.7177 354.361 70.7194L355.893 74.4144ZM357.063 73.6541C357.422 73.3073 357.692 72.8982 357.876 72.451L354.175 70.9328C354.182 70.9151 354.195 70.8896 354.215 70.86C354.235 70.8302 354.259 70.8017 354.285 70.7765L357.063 73.6541ZM357.882 72.4347C358.074 71.9554 358.15 71.4633 358.15 70.9888H354.15C354.15 71.0124 354.148 71.0184 354.15 71.0098C354.152 71.0007 354.156 70.9791 354.168 70.9491L357.882 72.4347ZM358.15 70.9888V70.0669H354.15V70.9888H358.15ZM358.14 69.8639C358.098 69.4501 358.006 69.037 357.849 68.6367L354.123 70.0909C354.134 70.1176 354.151 70.1733 354.161 70.2699L358.14 69.8639ZM357.849 68.6367C357.679 68.1993 357.427 67.786 357.081 67.4277L354.204 70.2061C354.178 70.1799 354.159 70.1539 354.145 70.1312C354.131 70.1089 354.124 70.0941 354.123 70.0909L357.849 68.6367ZM357.106 67.4541C356.756 67.0782 356.339 66.8009 355.886 66.615L354.368 70.3157C354.347 70.3073 354.317 70.2924 354.282 70.2682C354.246 70.2437 354.211 70.2138 354.179 70.1797L357.106 67.4541ZM355.926 66.6319C355.426 66.4139 354.911 66.3325 354.424 66.3325V70.3325C354.468 70.3325 354.422 70.3397 354.328 70.2987L355.926 66.6319ZM354.424 66.3325H349.846V70.3325H354.424V66.3325ZM349.846 66.3325C349.241 66.3325 348.449 66.4942 347.814 67.1292L350.643 69.9577C350.289 70.3115 349.909 70.3325 349.846 70.3325V66.3325ZM347.814 67.1292C347.186 67.7575 347.018 68.5406 347.018 69.1528H351.018C351.018 69.2338 350.99 69.6107 350.643 69.9577L347.814 67.1292ZM347.018 69.1528V77.5044H351.018V69.1528H347.018ZM349.018 75.5044H346.986V79.5044H349.018V75.5044ZM348.986 77.5044V69.1528H344.986V77.5044H348.986ZM348.986 69.1528C348.986 68.8664 349.038 68.7549 349.046 68.7394L345.489 66.91C345.122 67.6237 344.986 68.3976 344.986 69.1528H348.986ZM349.036 68.7593C349.118 68.6028 349.188 68.5352 349.224 68.5065L346.733 65.3773C346.206 65.7965 345.802 66.3174 345.499 66.8901L349.036 68.7593ZM349.21 68.5175C349.308 68.4408 349.395 68.3992 349.477 68.3748L348.339 64.5402C347.754 64.7138 347.221 64.9951 346.747 65.3663L349.21 68.5175ZM349.505 68.3665C349.69 68.3087 349.793 68.3013 349.83 68.3013V64.3013C349.305 64.3013 348.793 64.398 348.312 64.5486L349.505 68.3665ZM349.83 68.3013H354.424V64.3013H349.83V68.3013ZM354.424 68.3013C354.71 68.3013 354.906 68.3389 355.034 68.381L356.283 64.5809C355.682 64.3835 355.054 64.3013 354.424 64.3013V68.3013ZM355.059 68.3889C355.246 68.4478 355.37 68.5152 355.454 68.5751L357.785 65.3243C357.316 64.9884 356.8 64.7433 356.258 64.573L355.059 68.3889ZM355.489 68.5996C355.604 68.6783 355.68 68.755 355.734 68.8268L358.926 66.4164C358.595 65.9777 358.197 65.6066 357.75 65.2998L355.489 68.5996ZM355.75 68.8472C355.854 68.9814 355.93 69.1116 355.987 69.2385L359.642 67.614C359.448 67.1784 359.202 66.7722 358.911 66.3959L355.75 68.8472ZM356.006 69.2795C356.07 69.4152 356.111 69.5421 356.135 69.6623L360.057 68.8778C359.966 68.4251 359.82 67.9894 359.623 67.573L356.006 69.2795ZM356.136 69.6692C356.17 69.838 356.182 69.969 356.182 70.0669H360.182C360.182 69.6648 360.136 69.2646 360.055 68.8708L356.136 69.6692ZM356.182 70.0669V70.9888H360.182V70.0669H356.182ZM369.135 72.9263V74.9263H371.135V72.9263H369.135ZM362.721 72.9263H360.721V74.9263H362.721V72.9263ZM362.721 70.8794V68.8794H360.721V70.8794H362.721ZM369.135 70.8794H371.135V68.8794H369.135V70.8794ZM370.049 77.5044V79.5044H372.049V77.5044H370.049ZM360.869 76.8716L359.606 78.4221L359.621 78.4348L359.637 78.4472L360.869 76.8716ZM360.158 75.9888L358.38 76.9035L358.387 76.9188L358.396 76.9339L360.158 75.9888ZM360.166 66.5981L358.752 65.1839L358.732 65.2041L358.712 65.2249L360.166 66.5981ZM370.049 66.3013H372.049V64.3013H370.049V66.3013ZM370.049 68.3325V70.3325H372.049V68.3325H370.049ZM361.908 68.3325V66.3325H359.908V68.3325H361.908ZM370.049 75.4731H372.049V73.4731H370.049V75.4731ZM369.135 70.9263H362.721V74.9263H369.135V70.9263ZM364.721 72.9263V70.8794H360.721V72.9263H364.721ZM362.721 72.8794H369.135V68.8794H362.721V72.8794ZM367.135 70.8794V72.9263H371.135V70.8794H367.135ZM370.049 75.5044H362.721V79.5044H370.049V75.5044ZM362.721 75.5044C362.671 75.5044 362.558 75.4952 362.368 75.4387L361.23 79.2733C361.706 79.4147 362.208 79.5044 362.721 79.5044V75.5044ZM362.368 75.4387C362.286 75.4143 362.199 75.3727 362.101 75.296L359.637 78.4472C360.112 78.8184 360.645 79.0997 361.23 79.2733L362.368 75.4387ZM362.132 75.3211C362.08 75.2783 362.004 75.199 361.921 75.0436L358.396 76.9339C358.698 77.4972 359.096 78.0066 359.606 78.4221L362.132 75.3211ZM361.937 75.0741C361.93 75.0611 361.877 74.9481 361.877 74.6528H357.877C357.877 75.4096 358.011 76.1873 358.38 76.9035L361.937 75.0741ZM361.877 74.6528V67.3247H357.877V74.6528H361.877ZM361.877 67.3247C361.877 67.4378 361.855 67.5674 361.801 67.6955L358.109 66.157C357.951 66.5352 357.877 66.9304 357.877 67.3247H361.877ZM361.801 67.6955C361.765 67.7826 361.706 67.8805 361.62 67.9714L358.712 65.2249C358.449 65.5033 358.249 65.82 358.109 66.157L361.801 67.6955ZM361.58 68.0124C361.485 68.1073 361.374 68.1794 361.263 68.2255L359.725 64.5332C359.364 64.6836 359.034 64.9015 358.752 65.1839L361.58 68.0124ZM361.263 68.2255C361.126 68.2826 360.998 68.3013 360.9 68.3013V64.3013C360.511 64.3013 360.112 64.372 359.725 64.5332L361.263 68.2255ZM360.9 68.3013H370.049V64.3013H360.9V68.3013ZM368.049 66.3013V68.3325H372.049V66.3013H368.049ZM370.049 66.3325H361.908V70.3325H370.049V66.3325ZM359.908 68.3325V74.6528H363.908V68.3325H359.908ZM359.908 74.6528C359.908 75.2651 360.077 76.0482 360.705 76.6764L363.533 73.848C363.88 74.195 363.908 74.5718 363.908 74.6528H359.908ZM360.705 76.6764C361.34 77.3115 362.132 77.4731 362.736 77.4731V73.4731C362.799 73.4731 363.18 73.4942 363.533 73.848L360.705 76.6764ZM362.736 77.4731H370.049V73.4731H362.736V77.4731ZM368.049 75.4731V77.5044H372.049V75.4731H368.049Z" fill="#00869F" mask="url(#path-2-outside-1_529_11826)"/>
<!-- made by UXKM, K.S.Chu -->
</svg>
