<svg width="701" height="344" viewBox="0 0 701 344" fill="none" xmlns="http://www.w3.org/2000/svg">
<path d="M44.3849 29.4652L154.936 30.663L130.476 50.0669L141.747 65.8774L156.135 48.6295H180.356L194.025 74.9805L163.09 86L125.68 119.059L121.843 134.39L112.49 123.131L81.3153 128.641L86.3513 154.752L100.74 148.284L123.641 189.008L63.3297 148.284L50.6199 131.515L48.7014 145.409L35.9916 107.56L52.5384 88.8747V53.6602L0.5 56.2953L44.3849 29.4652Z" fill="#B12200"/>
<path d="M117.526 141.816L108.414 145.409L118.965 146.847L130.476 150.44L117.526 141.816Z" fill="#B12200"/>
<path d="M131.915 154.752L137.91 151.638L143.426 154.752H131.915Z" fill="#B12200"/>
<path d="M112.49 26.351L104.337 21.5599L126.399 20.1226L112.49 26.351Z" fill="#B12200"/>
<path d="M134.073 28.0279L130.476 21.5599L143.665 24.4345L134.073 28.0279Z" fill="#B12200"/>
<path d="M153.498 17.0084H165.248L151.819 22.7577V28.0279L150.14 22.7577L153.498 17.0084Z" fill="#B12200"/>
<path d="M159.493 31.6212L167.646 28.0279L165.248 40.2451L154.936 35.2145L159.493 31.6212Z" fill="#B12200"/>
<path d="M169.805 39.5265L183.713 36.1727L170.524 28.0279L160.692 24.4345L168.845 18.6852L185.872 22.7577L194.025 36.1727L181.555 44.3176L169.805 39.5265Z" fill="#B12200"/>
<path d="M177.478 17.0084L167.646 6.46797L195.464 0L205.536 7.18663L177.478 17.0084Z" fill="#B12200"/>
<path d="M216.088 21.5599L203.138 11.4986L225.2 0L283.953 6.46797L266.447 23.4763L236.471 36.1727L222.083 52.702L212.251 39.5265L216.088 21.5599Z" fill="#B12200"/>
<path d="M77.9297 77.6372C77.9297 77.783 77.901 77.9185 77.8438 78.0435C77.7917 78.1685 77.7188 78.2778 77.625 78.3716C77.5365 78.4601 77.4297 78.5304 77.3047 78.5825C77.1797 78.6346 77.0469 78.6606 76.9062 78.6606C76.7812 78.6606 76.6536 78.6372 76.5234 78.5903C76.3984 78.5435 76.2865 78.4679 76.1875 78.3638L68.7656 70.6138V78.5044H66.7344V68.1685C66.7344 67.9601 66.7917 67.7726 66.9062 67.606C67.026 67.4341 67.1771 67.3065 67.3594 67.2231C67.5521 67.145 67.75 67.1268 67.9531 67.1685C68.1562 67.2049 68.3307 67.2987 68.4766 67.4497L75.8984 75.1919V67.3013H77.9297V77.6372ZM92.0547 73.9731C92.0547 74.6554 91.9375 75.283 91.7031 75.856C91.4688 76.4289 91.1432 76.9237 90.7266 77.3403C90.3099 77.757 89.8151 78.0825 89.2422 78.3169C88.6745 78.5461 88.0547 78.6606 87.3828 78.6606H84.6328C83.9609 78.6606 83.3385 78.5461 82.7656 78.3169C82.1927 78.0825 81.6979 77.757 81.2812 77.3403C80.8646 76.9237 80.5365 76.4289 80.2969 75.856C80.0625 75.283 79.9453 74.6554 79.9453 73.9731V71.8325C79.9453 71.1554 80.0625 70.5304 80.2969 69.9575C80.5365 69.3794 80.8646 68.8846 81.2812 68.4731C81.6979 68.0565 82.1927 67.731 82.7656 67.4966C83.3385 67.2622 83.9609 67.145 84.6328 67.145H87.3828C88.0547 67.145 88.6745 67.2622 89.2422 67.4966C89.8151 67.731 90.3099 68.0565 90.7266 68.4731C91.1432 68.8846 91.4688 69.3794 91.7031 69.9575C91.9375 70.5304 92.0547 71.1554 92.0547 71.8325V73.9731ZM90.0234 71.8325C90.0234 71.4315 89.9583 71.0695 89.8281 70.7466C89.7031 70.4185 89.5234 70.1398 89.2891 69.9106C89.0599 69.6763 88.7812 69.4966 88.4531 69.3716C88.1302 69.2414 87.7734 69.1763 87.3828 69.1763H84.6328C84.237 69.1763 83.875 69.2414 83.5469 69.3716C83.224 69.4966 82.9453 69.6763 82.7109 69.9106C82.4766 70.1398 82.2943 70.4185 82.1641 70.7466C82.0391 71.0695 81.9766 71.4315 81.9766 71.8325V73.9731C81.9766 74.3742 82.0391 74.7388 82.1641 75.0669C82.2943 75.3898 82.4766 75.6685 82.7109 75.9028C82.9453 76.132 83.224 76.3117 83.5469 76.4419C83.875 76.5669 84.237 76.6294 84.6328 76.6294H87.3672C87.763 76.6294 88.1224 76.5669 88.4453 76.4419C88.7734 76.3117 89.0547 76.132 89.2891 75.9028C89.5234 75.6685 89.7031 75.3898 89.8281 75.0669C89.9583 74.7388 90.0234 74.3742 90.0234 73.9731V71.8325ZM105.258 71.0669C105.258 71.5304 105.201 71.9445 105.086 72.3091C104.971 72.6737 104.815 72.9966 104.617 73.2778C104.424 73.5539 104.201 73.7909 103.945 73.9888C103.69 74.1867 103.422 74.3507 103.141 74.481C102.865 74.606 102.583 74.6971 102.297 74.7544C102.016 74.8117 101.75 74.8403 101.5 74.8403L105.742 78.5044H102.602L98.3672 74.8403H96.9062V72.8091H101.5C101.755 72.7882 101.987 72.7362 102.195 72.6528C102.409 72.5643 102.591 72.4471 102.742 72.3013C102.898 72.1554 103.018 71.981 103.102 71.7778C103.185 71.5695 103.227 71.3325 103.227 71.0669V69.7856C103.227 69.6711 103.211 69.5851 103.18 69.5278C103.154 69.4653 103.117 69.4211 103.07 69.395C103.029 69.3638 102.982 69.3455 102.93 69.3403C102.883 69.3351 102.839 69.3325 102.797 69.3325H96.0938V78.5044H94.0625V68.3247C94.0625 68.1841 94.0885 68.0513 94.1406 67.9263C94.1927 67.8013 94.263 67.6919 94.3516 67.5981C94.4453 67.5044 94.5547 67.4315 94.6797 67.3794C94.8047 67.3273 94.9401 67.3013 95.0859 67.3013H102.797C103.25 67.3013 103.633 67.3846 103.945 67.5513C104.258 67.7127 104.51 67.9185 104.703 68.1685C104.901 68.4132 105.042 68.6789 105.125 68.9653C105.214 69.2518 105.258 69.52 105.258 69.77V71.0669ZM117.328 69.3325H112.852V78.5044H110.82V69.3325H106.336V67.3013H117.328V69.3325ZM120.875 71.8794H128.008V67.3013H130.039V78.5044H128.008V73.9263H120.875V78.5044H118.844V67.3013H120.875V71.8794ZM68.6562 98.5044H66.625V95.7544H59.4844V98.5044H57.4531V92.9028C57.4531 92.0851 57.5938 91.3325 57.875 90.645C58.1562 89.9575 58.5469 89.3664 59.0469 88.8716C59.5469 88.3768 60.138 87.9914 60.8203 87.7153C61.5026 87.4393 62.2474 87.3013 63.0547 87.3013H67.6328C67.7734 87.3013 67.9062 87.3273 68.0312 87.3794C68.1562 87.4315 68.2656 87.5044 68.3594 87.5981C68.4531 87.6919 68.526 87.8013 68.5781 87.9263C68.6302 88.0513 68.6562 88.1841 68.6562 88.3247V98.5044ZM59.4844 93.7231H66.625V89.3325H63.0547C62.9922 89.3325 62.8594 89.3429 62.6562 89.3638C62.4583 89.3794 62.2266 89.4237 61.9609 89.4966C61.7005 89.5695 61.4245 89.6815 61.1328 89.8325C60.8411 89.9836 60.5729 90.1919 60.3281 90.4575C60.0833 90.7231 59.8802 91.0565 59.7188 91.4575C59.5625 91.8534 59.4844 92.3351 59.4844 92.9028V93.7231ZM84.0625 98.5044H82.0156V91.8325L78.4141 98.1685C78.3255 98.3299 78.2005 98.4523 78.0391 98.5356C77.8828 98.619 77.7135 98.6606 77.5312 98.6606C77.3542 98.6606 77.1875 98.619 77.0312 98.5356C76.8802 98.4523 76.7604 98.3299 76.6719 98.1685L73.0547 91.8325V98.5044H71.0234V88.1685C71.0234 87.9341 71.0911 87.7257 71.2266 87.5435C71.3672 87.3612 71.5495 87.2388 71.7734 87.1763C71.8828 87.1502 71.9922 87.1424 72.1016 87.1528C72.2109 87.158 72.3151 87.1815 72.4141 87.2231C72.5182 87.2596 72.612 87.3143 72.6953 87.3872C72.7786 87.4549 72.849 87.5382 72.9062 87.6372L77.5312 95.6763L82.1562 87.6372C82.276 87.4393 82.4401 87.2987 82.6484 87.2153C82.862 87.132 83.0833 87.119 83.3125 87.1763C83.5312 87.2388 83.7109 87.3612 83.8516 87.5435C83.9922 87.7257 84.0625 87.9341 84.0625 88.1685V98.5044ZM95.6406 93.9263H89.2266V91.8794H95.6406V93.9263ZM96.5547 98.5044H89.2266C88.9453 98.5044 88.638 98.4549 88.3047 98.356C87.9714 98.257 87.6615 98.0955 87.375 97.8716C87.0938 97.6424 86.8568 97.3481 86.6641 96.9888C86.4766 96.6242 86.3828 96.1789 86.3828 95.6528V88.3247C86.3828 88.1841 86.4089 88.0513 86.4609 87.9263C86.513 87.8013 86.5833 87.6919 86.6719 87.5981C86.7656 87.5044 86.875 87.4315 87 87.3794C87.125 87.3273 87.2604 87.3013 87.4062 87.3013H96.5547V89.3325H88.4141V95.6528C88.4141 95.9185 88.4844 96.1216 88.625 96.2622C88.7656 96.4028 88.9714 96.4731 89.2422 96.4731H96.5547V98.5044ZM109.719 91.0669C109.719 91.5304 109.661 91.9445 109.547 92.3091C109.432 92.6737 109.276 92.9966 109.078 93.2778C108.885 93.5539 108.661 93.7909 108.406 93.9888C108.151 94.1867 107.883 94.3507 107.602 94.481C107.326 94.606 107.044 94.6971 106.758 94.7544C106.477 94.8117 106.211 94.8403 105.961 94.8403L110.203 98.5044H107.062L102.828 94.8403H101.367V92.8091H105.961C106.216 92.7882 106.448 92.7362 106.656 92.6528C106.87 92.5643 107.052 92.4471 107.203 92.3013C107.359 92.1554 107.479 91.981 107.562 91.7778C107.646 91.5695 107.688 91.3325 107.688 91.0669V89.7856C107.688 89.6711 107.672 89.5851 107.641 89.5278C107.615 89.4653 107.578 89.4211 107.531 89.395C107.49 89.3638 107.443 89.3455 107.391 89.3403C107.344 89.3351 107.299 89.3325 107.258 89.3325H100.555V98.5044H98.5234V88.3247C98.5234 88.1841 98.5495 88.0513 98.6016 87.9263C98.6536 87.8013 98.724 87.6919 98.8125 87.5981C98.9062 87.5044 99.0156 87.4315 99.1406 87.3794C99.2656 87.3273 99.401 87.3013 99.5469 87.3013H107.258C107.711 87.3013 108.094 87.3846 108.406 87.5513C108.719 87.7127 108.971 87.9185 109.164 88.1685C109.362 88.4132 109.503 88.6789 109.586 88.9653C109.674 89.2518 109.719 89.52 109.719 89.77V91.0669ZM113.805 98.5044H111.773V87.3013H113.805V98.5044ZM126.211 98.5044H118.883C118.695 98.5044 118.492 98.4836 118.273 98.4419C118.06 98.395 117.846 98.3247 117.633 98.231C117.424 98.1372 117.224 98.0174 117.031 97.8716C116.839 97.7205 116.667 97.5409 116.516 97.3325C116.37 97.119 116.253 96.8742 116.164 96.5981C116.076 96.3169 116.031 96.0018 116.031 95.6528V90.1528C116.031 89.9653 116.052 89.7648 116.094 89.5513C116.141 89.3325 116.211 89.119 116.305 88.9106C116.398 88.6971 116.521 88.494 116.672 88.3013C116.823 88.1086 117.003 87.9393 117.211 87.7935C117.424 87.6424 117.669 87.5226 117.945 87.4341C118.221 87.3455 118.534 87.3013 118.883 87.3013H126.211V89.3325H118.883C118.617 89.3325 118.414 89.4028 118.273 89.5435C118.133 89.6841 118.062 89.8924 118.062 90.1685V95.6528C118.062 95.9132 118.133 96.1164 118.273 96.2622C118.419 96.4028 118.622 96.4731 118.883 96.4731H126.211V98.5044ZM139.125 98.5044H137.094V95.7544H129.953V98.5044H127.922V92.9028C127.922 92.0851 128.062 91.3325 128.344 90.645C128.625 89.9575 129.016 89.3664 129.516 88.8716C130.016 88.3768 130.607 87.9914 131.289 87.7153C131.971 87.4393 132.716 87.3013 133.523 87.3013H138.102C138.242 87.3013 138.375 87.3273 138.5 87.3794C138.625 87.4315 138.734 87.5044 138.828 87.5981C138.922 87.6919 138.995 87.8013 139.047 87.9263C139.099 88.0513 139.125 88.1841 139.125 88.3247V98.5044ZM129.953 93.7231H137.094V89.3325H133.523C133.461 89.3325 133.328 89.3429 133.125 89.3638C132.927 89.3794 132.695 89.4237 132.43 89.4966C132.169 89.5695 131.893 89.6815 131.602 89.8325C131.31 89.9836 131.042 90.1919 130.797 90.4575C130.552 90.7231 130.349 91.0565 130.188 91.4575C130.031 91.8534 129.953 92.3351 129.953 92.9028V93.7231Z" fill="white"/>
<!-- made by UXKM, K.S.Chu -->
</svg>
