<svg width="701" height="344" viewBox="0 0 701 344" fill="none" xmlns="http://www.w3.org/2000/svg">
<path d="M177.161 185.415L183.396 203.142L183.944 203.409L218.169 217.276L206.178 255.844L192.509 267.582L187.953 286.507L167.329 303.515L166.61 325.554L177.881 344L140.711 312.618V291.538L141.91 253.928L132.317 245.543L113.612 209.131L121.526 186.134L159.416 182.301L177.161 185.415Z" fill="#93648E"/>
<path d="M44.548 29.4652L155.1 30.663L130.639 50.0669L141.91 65.8774L156.299 48.6295H180.519L194.188 74.9805L163.253 86L125.843 119.059L122.006 134.39L112.653 123.131L81.4784 128.641L86.5144 154.752L100.903 148.284L123.805 189.008L63.4928 148.284L50.783 131.515L48.8645 145.409L36.1547 107.56L52.7015 88.8747V53.6602L0.663086 56.2953L44.548 29.4652Z" fill="#F16645"/>
<path d="M117.689 141.816L108.577 145.409L119.128 146.847L130.639 150.44L117.689 141.816Z" fill="#F16645"/>
<path d="M132.078 154.752L138.073 151.638L143.589 154.752H132.078Z" fill="#F16645"/>
<path d="M112.653 26.351L104.5 21.5599L126.562 20.1226L112.653 26.351Z" fill="#F16645"/>
<path d="M134.236 28.0279L130.639 21.5599L143.829 24.4345L134.236 28.0279Z" fill="#F16645"/>
<path d="M153.661 17.0084H165.411L151.982 22.7577V28.0279L150.303 22.7577L153.661 17.0084Z" fill="#F16645"/>
<path d="M159.656 31.6212L167.809 28.0279L165.411 40.2451L155.1 35.2145L159.656 31.6212Z" fill="#F16645"/>
<path d="M169.968 39.5265L183.877 36.1727L170.687 28.0279L160.855 24.4345L169.008 18.6852L186.035 22.7577L194.188 36.1727L181.718 44.3176L169.968 39.5265Z" fill="#F16645"/>
<path d="M177.642 17.0084L167.809 6.46797L195.627 0L205.699 7.18663L177.642 17.0084Z" fill="#F16645"/>
<path d="M216.251 21.5599L203.301 11.4986L225.363 0L284.116 6.46797L266.61 23.4763L236.634 36.1727L222.246 52.702L212.414 39.5265L216.251 21.5599Z" fill="#F16645"/>
<path fill-rule="evenodd" clip-rule="evenodd" d="M374.172 29.5449L350.663 24.4344L332.437 28.7464L311.334 44.3174L310.615 53.1809L319.248 50.9052L327.401 58.2116L341.19 34.4957L341.91 47.7909L353.541 49.348L342.629 57.2533L317.809 63.7213L313.013 55.4567L312.294 63.7213L291.67 74.7408L290.591 89.2338L278.001 87.9163L276.922 104.925L287.473 107.799L316.131 86.5987L332.437 104.925L335.315 95.9414L325.243 84.0834L339.152 92.9469L345.627 110.434L351.382 95.9414L358.577 92.9469L363.852 79.2923L379.98 90.2902L379.2 85.6407L388.052 74.2721L388.206 73.5832L368.142 55.936L376.326 43.3183L368.142 29.1401L374.172 29.5449ZM332.437 9.58203H358.577V13.894H345.627L339.152 18.206L332.437 9.58203ZM293.589 50.9052L299.224 67.3146L290.591 68.1531L285.915 69.4706L292.749 62.284L293.589 50.9052ZM285.915 61.6851L284.836 60.0082L281.358 68.1531L285.915 65.6377V61.6851Z" fill="#4CC3D9"/>
<path fill-rule="evenodd" clip-rule="evenodd" d="M374.541 128.751L357.137 126.005L347.185 122.173L338.313 125.047L319.368 118.34V108.997L282.197 113.069L257.018 145.888L259.416 186.373L283.157 192.841L315.531 189.248L319.847 216.317L327.281 234.524L319.847 247.22L336.394 290.34L357.737 291.058L370.207 274.769V265.186L372.845 247.939L386.514 238.596V212.724L410.735 172.719L391.31 175.593L365.411 130.916L373.353 131.527L372.965 130.437L374.541 128.751ZM408.816 235.721L395.387 268.78L389.871 255.365L393.708 245.064L408.816 235.721Z" fill="#555555"/>
<path d="M553.9 284.71L588.912 260.755L595.387 262.671L602.222 255.006L611.814 258.12L610.255 263.39L620.447 268.421L625.363 252.131L629.56 260.755L631.838 275.607L641.31 292.855L622.845 323.877H619.608L615.411 325.914L609.416 324.955L603.541 323.877V318.847L596.107 316.691L589.512 306.63L553.301 313.696L553.9 284.71Z" fill="#7BC8A4"/>
<path d="M607.258 237.279L601.262 227.217L611.814 233.326L615.411 231.409L619.608 232.368H625.363L639.991 242.429L636.514 244.944L642.39 255.006L630.519 246.741L619.608 243.747L607.258 237.279Z" fill="#7BC8A4"/>
<path d="M606.418 329.986H613.972L611.454 332.621L608.816 336.813L606.418 338.37V329.986Z" fill="#7BC8A4"/>
<path d="M650.783 337.532L665.771 331.304L655.219 343.281L644.068 344L650.783 337.532Z" fill="#7BC8A4"/>
<path d="M672.605 331.304L670.807 325.914H673.325L676.682 322.44L677.761 316.691L679.8 312.858V318.847L678.84 322.44H683.876L672.605 331.304Z" fill="#7BC8A4"/>
<path fill-rule="evenodd" clip-rule="evenodd" d="M376.325 116.381L356.378 117.147L355.1 105.396L362.516 103.097L364.562 96.9655L368.142 94.6663L380.929 95.9437L379.2 85.6407L388.433 73.7828L368.142 55.936L376.325 43.3183L368.142 29.1401L415.708 32.3334L422.102 22.1149H442.561L465.321 10.619L507.261 5.50977L555.403 22.1149L584.684 26.2023L612.112 22.1149L663.07 29.1401H678.601L700.663 35.6544L693.758 36.9317H675.218L672.532 41.0191L653.352 43.3183L657.977 49.1087L651.023 53.1811H643.589L640.438 57.4931L639.159 69.12L632.797 76.5975L617.57 87.9165L632.138 75.3442L635.196 69.12L632.797 65.1588L635.196 57.4931L640.438 50.4713H629.92L617.57 55.936L612.112 59.8886H602.582L591.79 70.5488L597.426 72.585L593.699 95.6882L583.725 105.14L588.52 121.203L583.278 124.172L580.593 120.724L578.611 112.549L572.985 109.483L560.198 107.184L567.87 122.512L578.611 134.774L571.195 151.89L558.152 158.021L541.274 162.875L556.618 182.801L544.342 194.041L535.648 181.524V191.998L544.854 209.114L529.254 194.041L526.953 168.751L519.281 172.838L507.261 153.678L485.012 175.137V189.188L476.829 194.041L465.321 155.977L460.206 158.021L448.442 146.27L429.518 144.737L413.77 139.883L403.781 131.994L398.83 130.437L413.77 146.27L421.826 143.793L429.518 149.722L415.708 158.705L389.632 168.646L388.433 158.705L376.325 139.883L372.965 130.437L374.644 128.641L376.325 116.381ZM522.605 203.494L544.342 214.223L547.923 222.909L546.388 231.339L522.605 203.494ZM561.477 232.872L547.923 233.894L555.403 235.171L572.985 238.684L561.477 232.872ZM555.403 208.731L562.627 223.803L575.35 225.91L579.889 198.704L575.35 195.83L564.801 208.731H555.403ZM579.889 233.894L580.529 217.289L596.001 211.285L588.52 221.504L590.311 230.317L584.684 222.909L579.889 233.894ZM591.334 194.041L594.978 202.089L598.047 197.49V190.529L596.32 190.848L593.507 193.658L591.334 194.041ZM585.068 174.243L596.32 185.356V185.739L593.507 188.166L585.068 184.781L581.232 178.33L583.853 170.73L586.155 165.877L585.068 174.243ZM594.978 125.322L604.26 122.512L610.016 112.549L608.276 101.436L612.112 98.4569L611.335 92.3482L605.459 96.5404L604.823 114.034L598.047 118.041L594.978 125.322ZM588.52 115.582V114.896H589.192V115.439L588.52 115.582ZM590.71 113.65L590.63 114.034L591.142 113.89L590.71 113.65ZM608.276 87.9165L605.459 94.624L604.823 73.7828L608.276 87.9165ZM585.315 124.172L583.726 125.322L583.278 127.084L585.315 126.605V124.172Z" fill="#FFC65D"/>
<path d="M476.172 90.5044H474.141V87.7544H467V90.5044H464.969V84.9028C464.969 84.0851 465.109 83.3325 465.391 82.645C465.672 81.9575 466.062 81.3664 466.562 80.8716C467.062 80.3768 467.654 79.9914 468.336 79.7153C469.018 79.4393 469.763 79.3013 470.57 79.3013H475.148C475.289 79.3013 475.422 79.3273 475.547 79.3794C475.672 79.4315 475.781 79.5044 475.875 79.5981C475.969 79.6919 476.042 79.8013 476.094 79.9263C476.146 80.0513 476.172 80.1841 476.172 80.3247V90.5044ZM467 85.7231H474.141V81.3325H470.57C470.508 81.3325 470.375 81.3429 470.172 81.3638C469.974 81.3794 469.742 81.4237 469.477 81.4966C469.216 81.5695 468.94 81.6815 468.648 81.8325C468.357 81.9836 468.089 82.1919 467.844 82.4575C467.599 82.7231 467.396 83.0565 467.234 83.4575C467.078 83.8534 467 84.3351 467 84.9028V85.7231ZM489.305 87.2075C489.305 87.6086 489.253 87.9705 489.148 88.2935C489.049 88.6112 488.917 88.8924 488.75 89.1372C488.583 89.382 488.388 89.5903 488.164 89.7622C487.94 89.9341 487.708 90.0747 487.469 90.1841C487.229 90.2935 486.984 90.3742 486.734 90.4263C486.49 90.4784 486.258 90.5044 486.039 90.5044H478.203V88.4731H486.039C486.43 88.4731 486.732 88.3586 486.945 88.1294C487.164 87.9002 487.273 87.5929 487.273 87.2075C487.273 87.02 487.245 86.8481 487.188 86.6919C487.13 86.5356 487.047 86.4002 486.938 86.2856C486.833 86.1711 486.703 86.0825 486.547 86.02C486.396 85.9575 486.227 85.9263 486.039 85.9263H481.367C481.039 85.9263 480.685 85.869 480.305 85.7544C479.924 85.6346 479.57 85.4445 479.242 85.1841C478.919 84.9237 478.648 84.5825 478.43 84.1606C478.216 83.7388 478.109 83.2231 478.109 82.6138C478.109 82.0044 478.216 81.4914 478.43 81.0747C478.648 80.6528 478.919 80.3117 479.242 80.0513C479.57 79.7856 479.924 79.5955 480.305 79.481C480.685 79.3612 481.039 79.3013 481.367 79.3013H488.281V81.3325H481.367C480.982 81.3325 480.68 81.4497 480.461 81.6841C480.247 81.9185 480.141 82.2284 480.141 82.6138C480.141 83.0044 480.247 83.3143 480.461 83.5435C480.68 83.7674 480.982 83.8794 481.367 83.8794H486.039H486.055C486.273 83.8846 486.505 83.9159 486.75 83.9731C486.995 84.0252 487.237 84.1086 487.477 84.2231C487.721 84.3377 487.953 84.4836 488.172 84.6606C488.391 84.8325 488.583 85.0409 488.75 85.2856C488.922 85.5304 489.057 85.8117 489.156 86.1294C489.255 86.4471 489.305 86.8065 489.305 87.2075ZM493.039 90.5044H491.008V79.3013H493.039V90.5044ZM506.406 90.5044H504.375V87.7544H497.234V90.5044H495.203V84.9028C495.203 84.0851 495.344 83.3325 495.625 82.645C495.906 81.9575 496.297 81.3664 496.797 80.8716C497.297 80.3768 497.888 79.9914 498.57 79.7153C499.253 79.4393 499.997 79.3013 500.805 79.3013H505.383C505.523 79.3013 505.656 79.3273 505.781 79.3794C505.906 79.4315 506.016 79.5044 506.109 79.5981C506.203 79.6919 506.276 79.8013 506.328 79.9263C506.38 80.0513 506.406 80.1841 506.406 80.3247V90.5044ZM497.234 85.7231H504.375V81.3325H500.805C500.742 81.3325 500.609 81.3429 500.406 81.3638C500.208 81.3794 499.977 81.4237 499.711 81.4966C499.451 81.5695 499.174 81.6815 498.883 81.8325C498.591 81.9836 498.323 82.1919 498.078 82.4575C497.833 82.7231 497.63 83.0565 497.469 83.4575C497.312 83.8534 497.234 84.3351 497.234 84.9028V85.7231Z" fill="white"/>
<path d="M567.238 292.527C567.238 293.21 567.121 293.837 566.887 294.41C566.652 294.983 566.327 295.478 565.91 295.895C565.493 296.311 564.999 296.637 564.426 296.871C563.858 297.1 563.238 297.215 562.566 297.215H559.816C559.145 297.215 558.522 297.1 557.949 296.871C557.376 296.637 556.882 296.311 556.465 295.895C556.048 295.478 555.72 294.983 555.48 294.41C555.246 293.837 555.129 293.21 555.129 292.527V290.387C555.129 289.71 555.246 289.085 555.48 288.512C555.72 287.934 556.048 287.439 556.465 287.027C556.882 286.611 557.376 286.285 557.949 286.051C558.522 285.816 559.145 285.699 559.816 285.699H562.566C563.238 285.699 563.858 285.816 564.426 286.051C564.999 286.285 565.493 286.611 565.91 287.027C566.327 287.439 566.652 287.934 566.887 288.512C567.121 289.085 567.238 289.71 567.238 290.387V292.527ZM565.207 290.387C565.207 289.986 565.142 289.624 565.012 289.301C564.887 288.973 564.707 288.694 564.473 288.465C564.243 288.23 563.965 288.051 563.637 287.926C563.314 287.796 562.957 287.73 562.566 287.73H559.816C559.421 287.73 559.059 287.796 558.73 287.926C558.408 288.051 558.129 288.23 557.895 288.465C557.66 288.694 557.478 288.973 557.348 289.301C557.223 289.624 557.16 289.986 557.16 290.387V292.527C557.16 292.928 557.223 293.293 557.348 293.621C557.478 293.944 557.66 294.223 557.895 294.457C558.129 294.686 558.408 294.866 558.73 294.996C559.059 295.121 559.421 295.184 559.816 295.184H562.551C562.947 295.184 563.306 295.121 563.629 294.996C563.957 294.866 564.238 294.686 564.473 294.457C564.707 294.223 564.887 293.944 565.012 293.621C565.142 293.293 565.207 292.928 565.207 292.527V290.387ZM579.277 297.059H571.949C571.762 297.059 571.559 297.038 571.34 296.996C571.126 296.949 570.913 296.879 570.699 296.785C570.491 296.691 570.29 296.572 570.098 296.426C569.905 296.275 569.733 296.095 569.582 295.887C569.436 295.673 569.319 295.428 569.23 295.152C569.142 294.871 569.098 294.556 569.098 294.207V288.707C569.098 288.52 569.118 288.319 569.16 288.105C569.207 287.887 569.277 287.673 569.371 287.465C569.465 287.251 569.587 287.048 569.738 286.855C569.889 286.663 570.069 286.493 570.277 286.348C570.491 286.197 570.736 286.077 571.012 285.988C571.288 285.9 571.6 285.855 571.949 285.855H579.277V287.887H571.949C571.684 287.887 571.48 287.957 571.34 288.098C571.199 288.238 571.129 288.447 571.129 288.723V294.207C571.129 294.467 571.199 294.671 571.34 294.816C571.486 294.957 571.689 295.027 571.949 295.027H579.277V297.059ZM590.41 292.48H583.996V290.434H590.41V292.48ZM591.324 297.059H583.996C583.715 297.059 583.408 297.009 583.074 296.91C582.741 296.811 582.431 296.65 582.145 296.426C581.863 296.197 581.626 295.902 581.434 295.543C581.246 295.178 581.152 294.733 581.152 294.207V286.879C581.152 286.738 581.178 286.605 581.23 286.48C581.283 286.355 581.353 286.246 581.441 286.152C581.535 286.059 581.645 285.986 581.77 285.934C581.895 285.882 582.03 285.855 582.176 285.855H591.324V287.887H583.184V294.207C583.184 294.473 583.254 294.676 583.395 294.816C583.535 294.957 583.741 295.027 584.012 295.027H591.324V297.059ZM604.285 297.059H602.254V294.309H595.113V297.059H593.082V291.457C593.082 290.639 593.223 289.887 593.504 289.199C593.785 288.512 594.176 287.921 594.676 287.426C595.176 286.931 595.767 286.546 596.449 286.27C597.132 285.993 597.876 285.855 598.684 285.855H603.262C603.402 285.855 603.535 285.882 603.66 285.934C603.785 285.986 603.895 286.059 603.988 286.152C604.082 286.246 604.155 286.355 604.207 286.48C604.259 286.605 604.285 286.738 604.285 286.879V297.059ZM595.113 292.277H602.254V287.887H598.684C598.621 287.887 598.488 287.897 598.285 287.918C598.087 287.934 597.855 287.978 597.59 288.051C597.329 288.124 597.053 288.236 596.762 288.387C596.47 288.538 596.202 288.746 595.957 289.012C595.712 289.277 595.509 289.611 595.348 290.012C595.191 290.408 595.113 290.889 595.113 291.457V292.277ZM617.848 296.191C617.848 296.337 617.819 296.473 617.762 296.598C617.71 296.723 617.637 296.832 617.543 296.926C617.454 297.014 617.348 297.085 617.223 297.137C617.098 297.189 616.965 297.215 616.824 297.215C616.699 297.215 616.572 297.191 616.441 297.145C616.316 297.098 616.204 297.022 616.105 296.918L608.684 289.168V297.059H606.652V286.723C606.652 286.514 606.71 286.327 606.824 286.16C606.944 285.988 607.095 285.861 607.277 285.777C607.47 285.699 607.668 285.681 607.871 285.723C608.074 285.759 608.249 285.853 608.395 286.004L615.816 293.746V285.855H617.848V296.191ZM622.262 297.059H620.23V285.855H622.262V297.059ZM635.629 297.059H633.598V294.309H626.457V297.059H624.426V291.457C624.426 290.639 624.566 289.887 624.848 289.199C625.129 288.512 625.52 287.921 626.02 287.426C626.52 286.931 627.111 286.546 627.793 286.27C628.475 285.993 629.22 285.855 630.027 285.855H634.605C634.746 285.855 634.879 285.882 635.004 285.934C635.129 285.986 635.238 286.059 635.332 286.152C635.426 286.246 635.499 286.355 635.551 286.48C635.603 286.605 635.629 286.738 635.629 286.879V297.059ZM626.457 292.277H633.598V287.887H630.027C629.965 287.887 629.832 287.897 629.629 287.918C629.431 287.934 629.199 287.978 628.934 288.051C628.673 288.124 628.397 288.236 628.105 288.387C627.814 288.538 627.546 288.746 627.301 289.012C627.056 289.277 626.853 289.611 626.691 290.012C626.535 290.408 626.457 290.889 626.457 291.457V292.277Z" fill="white"/>
<path d="M304.172 172H302.141V169.25H295V172H292.969V166.398C292.969 165.581 293.109 164.828 293.391 164.141C293.672 163.453 294.062 162.862 294.562 162.367C295.062 161.872 295.654 161.487 296.336 161.211C297.018 160.935 297.763 160.797 298.57 160.797H303.148C303.289 160.797 303.422 160.823 303.547 160.875C303.672 160.927 303.781 161 303.875 161.094C303.969 161.188 304.042 161.297 304.094 161.422C304.146 161.547 304.172 161.68 304.172 161.82V172ZM295 167.219H302.141V162.828H298.57C298.508 162.828 298.375 162.839 298.172 162.859C297.974 162.875 297.742 162.919 297.477 162.992C297.216 163.065 296.94 163.177 296.648 163.328C296.357 163.479 296.089 163.688 295.844 163.953C295.599 164.219 295.396 164.552 295.234 164.953C295.078 165.349 295 165.831 295 166.398V167.219ZM315.805 167.422H309.383V165.375H315.805V167.422ZM316.711 162.828H308.57V172H306.539V161.82C306.539 161.68 306.565 161.547 306.617 161.422C306.669 161.297 306.74 161.188 306.828 161.094C306.922 161 307.031 160.927 307.156 160.875C307.281 160.823 307.417 160.797 307.562 160.797H316.711V162.828ZM329.547 164.562C329.547 165.026 329.49 165.44 329.375 165.805C329.26 166.169 329.104 166.492 328.906 166.773C328.714 167.049 328.49 167.286 328.234 167.484C327.979 167.682 327.711 167.846 327.43 167.977C327.154 168.102 326.872 168.193 326.586 168.25C326.305 168.307 326.039 168.336 325.789 168.336L330.031 172H326.891L322.656 168.336H321.195V166.305H325.789C326.044 166.284 326.276 166.232 326.484 166.148C326.698 166.06 326.88 165.943 327.031 165.797C327.188 165.651 327.307 165.477 327.391 165.273C327.474 165.065 327.516 164.828 327.516 164.562V163.281C327.516 163.167 327.5 163.081 327.469 163.023C327.443 162.961 327.406 162.917 327.359 162.891C327.318 162.859 327.271 162.841 327.219 162.836C327.172 162.831 327.128 162.828 327.086 162.828H320.383V172H318.352V161.82C318.352 161.68 318.378 161.547 318.43 161.422C318.482 161.297 318.552 161.188 318.641 161.094C318.734 161 318.844 160.927 318.969 160.875C319.094 160.823 319.229 160.797 319.375 160.797H327.086C327.539 160.797 327.922 160.88 328.234 161.047C328.547 161.208 328.799 161.414 328.992 161.664C329.19 161.909 329.331 162.174 329.414 162.461C329.503 162.747 329.547 163.016 329.547 163.266V164.562ZM333.633 172H331.602V160.797H333.633V172ZM346.039 172H338.711C338.523 172 338.32 171.979 338.102 171.938C337.888 171.891 337.674 171.82 337.461 171.727C337.253 171.633 337.052 171.513 336.859 171.367C336.667 171.216 336.495 171.036 336.344 170.828C336.198 170.615 336.081 170.37 335.992 170.094C335.904 169.812 335.859 169.497 335.859 169.148V163.648C335.859 163.461 335.88 163.26 335.922 163.047C335.969 162.828 336.039 162.615 336.133 162.406C336.227 162.193 336.349 161.99 336.5 161.797C336.651 161.604 336.831 161.435 337.039 161.289C337.253 161.138 337.497 161.018 337.773 160.93C338.049 160.841 338.362 160.797 338.711 160.797H346.039V162.828H338.711C338.445 162.828 338.242 162.898 338.102 163.039C337.961 163.18 337.891 163.388 337.891 163.664V169.148C337.891 169.409 337.961 169.612 338.102 169.758C338.247 169.898 338.451 169.969 338.711 169.969H346.039V172ZM358.953 172H356.922V169.25H349.781V172H347.75V166.398C347.75 165.581 347.891 164.828 348.172 164.141C348.453 163.453 348.844 162.862 349.344 162.367C349.844 161.872 350.435 161.487 351.117 161.211C351.799 160.935 352.544 160.797 353.352 160.797H357.93C358.07 160.797 358.203 160.823 358.328 160.875C358.453 160.927 358.562 161 358.656 161.094C358.75 161.188 358.823 161.297 358.875 161.422C358.927 161.547 358.953 161.68 358.953 161.82V172ZM349.781 167.219H356.922V162.828H353.352C353.289 162.828 353.156 162.839 352.953 162.859C352.755 162.875 352.523 162.919 352.258 162.992C351.997 163.065 351.721 163.177 351.43 163.328C351.138 163.479 350.87 163.688 350.625 163.953C350.38 164.219 350.177 164.552 350.016 164.953C349.859 165.349 349.781 165.831 349.781 166.398V167.219Z" fill="white"/>
<mask id="path-10-outside-1_529_11726" maskUnits="userSpaceOnUse" x="292.563" y="63.5044" width="80" height="17" fill="black">
<rect fill="white" x="292.563" y="63.5044" width="80" height="17"/>
<path d="M303.954 72.9263H297.54V70.8794H303.954V72.9263ZM304.868 77.5044H297.54C297.259 77.5044 296.951 77.4549 296.618 77.356C296.285 77.257 295.975 77.0955 295.688 76.8716C295.407 76.6424 295.17 76.3481 294.978 75.9888C294.79 75.6242 294.696 75.1789 294.696 74.6528V67.3247C294.696 67.1841 294.722 67.0513 294.774 66.9263C294.826 66.8013 294.897 66.6919 294.985 66.5981C295.079 66.5044 295.188 66.4315 295.313 66.3794C295.438 66.3273 295.574 66.3013 295.72 66.3013H304.868V68.3325H296.728V74.6528C296.728 74.9185 296.798 75.1216 296.938 75.2622C297.079 75.4028 297.285 75.4731 297.556 75.4731H304.868V77.5044ZM317.813 76.481C317.813 76.6268 317.787 76.7622 317.735 76.8872C317.683 77.0122 317.61 77.1216 317.517 77.2153C317.423 77.3039 317.313 77.3742 317.188 77.4263C317.063 77.4784 316.931 77.5044 316.79 77.5044H312.212C311.78 77.5044 311.342 77.4575 310.899 77.3638C310.457 77.27 310.027 77.1268 309.61 76.9341C309.199 76.7362 308.811 76.4862 308.446 76.1841C308.082 75.882 307.761 75.5252 307.485 75.1138C307.215 74.6971 307.001 74.2231 306.845 73.6919C306.688 73.1554 306.61 72.5591 306.61 71.9028V66.3013H308.642V71.9028C308.642 72.4757 308.72 72.9601 308.876 73.356C309.037 73.7518 309.241 74.0825 309.485 74.3481C309.73 74.6138 309.998 74.8221 310.29 74.9731C310.582 75.1242 310.858 75.2362 311.118 75.3091C311.384 75.382 311.616 75.4289 311.813 75.4497C312.017 75.4653 312.149 75.4731 312.212 75.4731H315.782V66.3013H317.813V76.481ZM331.376 70.0669C331.376 70.5304 331.319 70.9445 331.204 71.3091C331.09 71.6737 330.933 71.9966 330.735 72.2778C330.543 72.5539 330.319 72.7909 330.063 72.9888C329.808 73.1867 329.54 73.3507 329.259 73.481C328.983 73.606 328.701 73.6971 328.415 73.7544C328.134 73.8117 327.868 73.8403 327.618 73.8403L331.86 77.5044H328.72L324.485 73.8403H323.024V71.8091H327.618C327.873 71.7882 328.105 71.7362 328.313 71.6528C328.527 71.5643 328.709 71.4471 328.86 71.3013C329.017 71.1554 329.136 70.981 329.22 70.7778C329.303 70.5695 329.345 70.3325 329.345 70.0669V68.7856C329.345 68.6711 329.329 68.5851 329.298 68.5278C329.272 68.4653 329.235 68.4211 329.188 68.395C329.147 68.3638 329.1 68.3455 329.048 68.3403C329.001 68.3351 328.957 68.3325 328.915 68.3325H322.212V77.5044H320.181V67.3247C320.181 67.1841 320.207 67.0513 320.259 66.9263C320.311 66.8013 320.381 66.6919 320.47 66.5981C320.563 66.5044 320.673 66.4315 320.798 66.3794C320.923 66.3273 321.058 66.3013 321.204 66.3013H328.915C329.368 66.3013 329.751 66.3846 330.063 66.5513C330.376 66.7127 330.629 66.9185 330.821 67.1685C331.019 67.4132 331.16 67.6789 331.243 67.9653C331.332 68.2518 331.376 68.52 331.376 68.77V70.0669ZM345.173 72.9731C345.173 73.6554 345.056 74.283 344.821 74.856C344.587 75.4289 344.261 75.9237 343.845 76.3403C343.428 76.757 342.933 77.0825 342.36 77.3169C341.793 77.5461 341.173 77.6606 340.501 77.6606H337.751C337.079 77.6606 336.457 77.5461 335.884 77.3169C335.311 77.0825 334.816 76.757 334.399 76.3403C333.983 75.9237 333.655 75.4289 333.415 74.856C333.181 74.283 333.063 73.6554 333.063 72.9731V70.8325C333.063 70.1554 333.181 69.5304 333.415 68.9575C333.655 68.3794 333.983 67.8846 334.399 67.4731C334.816 67.0565 335.311 66.731 335.884 66.4966C336.457 66.2622 337.079 66.145 337.751 66.145H340.501C341.173 66.145 341.793 66.2622 342.36 66.4966C342.933 66.731 343.428 67.0565 343.845 67.4731C344.261 67.8846 344.587 68.3794 344.821 68.9575C345.056 69.5304 345.173 70.1554 345.173 70.8325V72.9731ZM343.142 70.8325C343.142 70.4315 343.076 70.0695 342.946 69.7466C342.821 69.4185 342.642 69.1398 342.407 68.9106C342.178 68.6763 341.899 68.4966 341.571 68.3716C341.248 68.2414 340.892 68.1763 340.501 68.1763H337.751C337.355 68.1763 336.993 68.2414 336.665 68.3716C336.342 68.4966 336.063 68.6763 335.829 68.9106C335.595 69.1398 335.412 69.4185 335.282 69.7466C335.157 70.0695 335.095 70.4315 335.095 70.8325V72.9731C335.095 73.3742 335.157 73.7388 335.282 74.0669C335.412 74.3898 335.595 74.6685 335.829 74.9028C336.063 75.132 336.342 75.3117 336.665 75.4419C336.993 75.5669 337.355 75.6294 337.751 75.6294H340.485C340.881 75.6294 341.241 75.5669 341.563 75.4419C341.892 75.3117 342.173 75.132 342.407 74.9028C342.642 74.6685 342.821 74.3898 342.946 74.0669C343.076 73.7388 343.142 73.3742 343.142 72.9731V70.8325ZM358.345 70.9888C358.345 71.4523 358.287 71.8664 358.173 72.231C358.058 72.5955 357.902 72.9185 357.704 73.1997C357.511 73.4757 357.287 73.7127 357.032 73.9106C356.777 74.1086 356.509 74.27 356.228 74.395C355.951 74.52 355.67 74.6112 355.384 74.6685C355.103 74.7257 354.837 74.7544 354.587 74.7544H349.993V72.7231H354.587C354.847 72.7023 355.082 72.6502 355.29 72.5669C355.504 72.4784 355.686 72.3612 355.837 72.2153C355.988 72.0695 356.105 71.895 356.188 71.6919C356.272 71.4836 356.313 71.2492 356.313 70.9888V70.0669C356.287 69.8117 356.233 69.5773 356.149 69.3638C356.066 69.1502 355.951 68.9679 355.806 68.8169C355.665 68.6659 355.493 68.5487 355.29 68.4653C355.087 68.3768 354.853 68.3325 354.587 68.3325H350.009C349.738 68.3325 349.532 68.4028 349.392 68.5435C349.251 68.6841 349.181 68.8872 349.181 69.1528V77.5044H347.149V69.1528C347.149 68.632 347.243 68.1893 347.431 67.8247C347.623 67.4601 347.86 67.1659 348.142 66.9419C348.428 66.7179 348.738 66.5565 349.071 66.4575C349.405 66.3534 349.712 66.3013 349.993 66.3013H354.587C355.045 66.3013 355.457 66.3612 355.821 66.481C356.186 66.5955 356.506 66.7518 356.782 66.9497C357.063 67.1424 357.3 67.3664 357.493 67.6216C357.691 67.8768 357.853 68.145 357.978 68.4263C358.108 68.7023 358.201 68.9836 358.259 69.27C358.316 69.5513 358.345 69.8169 358.345 70.0669V70.9888ZM369.298 72.9263H362.884V70.8794H369.298V72.9263ZM370.212 77.5044H362.884C362.603 77.5044 362.295 77.4549 361.962 77.356C361.629 77.257 361.319 77.0955 361.032 76.8716C360.751 76.6424 360.514 76.3481 360.321 75.9888C360.134 75.6242 360.04 75.1789 360.04 74.6528V67.3247C360.04 67.1841 360.066 67.0513 360.118 66.9263C360.17 66.8013 360.241 66.6919 360.329 66.5981C360.423 66.5044 360.532 66.4315 360.657 66.3794C360.782 66.3273 360.918 66.3013 361.063 66.3013H370.212V68.3325H362.071V74.6528C362.071 74.9185 362.142 75.1216 362.282 75.2622C362.423 75.4028 362.629 75.4731 362.899 75.4731H370.212V77.5044Z"/>
</mask>
<path d="M303.954 72.9263H297.54V70.8794H303.954V72.9263ZM304.868 77.5044H297.54C297.259 77.5044 296.951 77.4549 296.618 77.356C296.285 77.257 295.975 77.0955 295.688 76.8716C295.407 76.6424 295.17 76.3481 294.978 75.9888C294.79 75.6242 294.696 75.1789 294.696 74.6528V67.3247C294.696 67.1841 294.722 67.0513 294.774 66.9263C294.826 66.8013 294.897 66.6919 294.985 66.5981C295.079 66.5044 295.188 66.4315 295.313 66.3794C295.438 66.3273 295.574 66.3013 295.72 66.3013H304.868V68.3325H296.728V74.6528C296.728 74.9185 296.798 75.1216 296.938 75.2622C297.079 75.4028 297.285 75.4731 297.556 75.4731H304.868V77.5044ZM317.813 76.481C317.813 76.6268 317.787 76.7622 317.735 76.8872C317.683 77.0122 317.61 77.1216 317.517 77.2153C317.423 77.3039 317.313 77.3742 317.188 77.4263C317.063 77.4784 316.931 77.5044 316.79 77.5044H312.212C311.78 77.5044 311.342 77.4575 310.899 77.3638C310.457 77.27 310.027 77.1268 309.61 76.9341C309.199 76.7362 308.811 76.4862 308.446 76.1841C308.082 75.882 307.761 75.5252 307.485 75.1138C307.215 74.6971 307.001 74.2231 306.845 73.6919C306.688 73.1554 306.61 72.5591 306.61 71.9028V66.3013H308.642V71.9028C308.642 72.4757 308.72 72.9601 308.876 73.356C309.037 73.7518 309.241 74.0825 309.485 74.3481C309.73 74.6138 309.998 74.8221 310.29 74.9731C310.582 75.1242 310.858 75.2362 311.118 75.3091C311.384 75.382 311.616 75.4289 311.813 75.4497C312.017 75.4653 312.149 75.4731 312.212 75.4731H315.782V66.3013H317.813V76.481ZM331.376 70.0669C331.376 70.5304 331.319 70.9445 331.204 71.3091C331.09 71.6737 330.933 71.9966 330.735 72.2778C330.543 72.5539 330.319 72.7909 330.063 72.9888C329.808 73.1867 329.54 73.3507 329.259 73.481C328.983 73.606 328.701 73.6971 328.415 73.7544C328.134 73.8117 327.868 73.8403 327.618 73.8403L331.86 77.5044H328.72L324.485 73.8403H323.024V71.8091H327.618C327.873 71.7882 328.105 71.7362 328.313 71.6528C328.527 71.5643 328.709 71.4471 328.86 71.3013C329.017 71.1554 329.136 70.981 329.22 70.7778C329.303 70.5695 329.345 70.3325 329.345 70.0669V68.7856C329.345 68.6711 329.329 68.5851 329.298 68.5278C329.272 68.4653 329.235 68.4211 329.188 68.395C329.147 68.3638 329.1 68.3455 329.048 68.3403C329.001 68.3351 328.957 68.3325 328.915 68.3325H322.212V77.5044H320.181V67.3247C320.181 67.1841 320.207 67.0513 320.259 66.9263C320.311 66.8013 320.381 66.6919 320.47 66.5981C320.563 66.5044 320.673 66.4315 320.798 66.3794C320.923 66.3273 321.058 66.3013 321.204 66.3013H328.915C329.368 66.3013 329.751 66.3846 330.063 66.5513C330.376 66.7127 330.629 66.9185 330.821 67.1685C331.019 67.4132 331.16 67.6789 331.243 67.9653C331.332 68.2518 331.376 68.52 331.376 68.77V70.0669ZM345.173 72.9731C345.173 73.6554 345.056 74.283 344.821 74.856C344.587 75.4289 344.261 75.9237 343.845 76.3403C343.428 76.757 342.933 77.0825 342.36 77.3169C341.793 77.5461 341.173 77.6606 340.501 77.6606H337.751C337.079 77.6606 336.457 77.5461 335.884 77.3169C335.311 77.0825 334.816 76.757 334.399 76.3403C333.983 75.9237 333.655 75.4289 333.415 74.856C333.181 74.283 333.063 73.6554 333.063 72.9731V70.8325C333.063 70.1554 333.181 69.5304 333.415 68.9575C333.655 68.3794 333.983 67.8846 334.399 67.4731C334.816 67.0565 335.311 66.731 335.884 66.4966C336.457 66.2622 337.079 66.145 337.751 66.145H340.501C341.173 66.145 341.793 66.2622 342.36 66.4966C342.933 66.731 343.428 67.0565 343.845 67.4731C344.261 67.8846 344.587 68.3794 344.821 68.9575C345.056 69.5304 345.173 70.1554 345.173 70.8325V72.9731ZM343.142 70.8325C343.142 70.4315 343.076 70.0695 342.946 69.7466C342.821 69.4185 342.642 69.1398 342.407 68.9106C342.178 68.6763 341.899 68.4966 341.571 68.3716C341.248 68.2414 340.892 68.1763 340.501 68.1763H337.751C337.355 68.1763 336.993 68.2414 336.665 68.3716C336.342 68.4966 336.063 68.6763 335.829 68.9106C335.595 69.1398 335.412 69.4185 335.282 69.7466C335.157 70.0695 335.095 70.4315 335.095 70.8325V72.9731C335.095 73.3742 335.157 73.7388 335.282 74.0669C335.412 74.3898 335.595 74.6685 335.829 74.9028C336.063 75.132 336.342 75.3117 336.665 75.4419C336.993 75.5669 337.355 75.6294 337.751 75.6294H340.485C340.881 75.6294 341.241 75.5669 341.563 75.4419C341.892 75.3117 342.173 75.132 342.407 74.9028C342.642 74.6685 342.821 74.3898 342.946 74.0669C343.076 73.7388 343.142 73.3742 343.142 72.9731V70.8325ZM358.345 70.9888C358.345 71.4523 358.287 71.8664 358.173 72.231C358.058 72.5955 357.902 72.9185 357.704 73.1997C357.511 73.4757 357.287 73.7127 357.032 73.9106C356.777 74.1086 356.509 74.27 356.228 74.395C355.951 74.52 355.67 74.6112 355.384 74.6685C355.103 74.7257 354.837 74.7544 354.587 74.7544H349.993V72.7231H354.587C354.847 72.7023 355.082 72.6502 355.29 72.5669C355.504 72.4784 355.686 72.3612 355.837 72.2153C355.988 72.0695 356.105 71.895 356.188 71.6919C356.272 71.4836 356.313 71.2492 356.313 70.9888V70.0669C356.287 69.8117 356.233 69.5773 356.149 69.3638C356.066 69.1502 355.951 68.9679 355.806 68.8169C355.665 68.6659 355.493 68.5487 355.29 68.4653C355.087 68.3768 354.853 68.3325 354.587 68.3325H350.009C349.738 68.3325 349.532 68.4028 349.392 68.5435C349.251 68.6841 349.181 68.8872 349.181 69.1528V77.5044H347.149V69.1528C347.149 68.632 347.243 68.1893 347.431 67.8247C347.623 67.4601 347.86 67.1659 348.142 66.9419C348.428 66.7179 348.738 66.5565 349.071 66.4575C349.405 66.3534 349.712 66.3013 349.993 66.3013H354.587C355.045 66.3013 355.457 66.3612 355.821 66.481C356.186 66.5955 356.506 66.7518 356.782 66.9497C357.063 67.1424 357.3 67.3664 357.493 67.6216C357.691 67.8768 357.853 68.145 357.978 68.4263C358.108 68.7023 358.201 68.9836 358.259 69.27C358.316 69.5513 358.345 69.8169 358.345 70.0669V70.9888ZM369.298 72.9263H362.884V70.8794H369.298V72.9263ZM370.212 77.5044H362.884C362.603 77.5044 362.295 77.4549 361.962 77.356C361.629 77.257 361.319 77.0955 361.032 76.8716C360.751 76.6424 360.514 76.3481 360.321 75.9888C360.134 75.6242 360.04 75.1789 360.04 74.6528V67.3247C360.04 67.1841 360.066 67.0513 360.118 66.9263C360.17 66.8013 360.241 66.6919 360.329 66.5981C360.423 66.5044 360.532 66.4315 360.657 66.3794C360.782 66.3273 360.918 66.3013 361.063 66.3013H370.212V68.3325H362.071V74.6528C362.071 74.9185 362.142 75.1216 362.282 75.2622C362.423 75.4028 362.629 75.4731 362.899 75.4731H370.212V77.5044Z" fill="white"/>
<path d="M303.954 72.9263V74.9263H305.954V72.9263H303.954ZM297.54 72.9263H295.54V74.9263H297.54V72.9263ZM297.54 70.8794V68.8794H295.54V70.8794H297.54ZM303.954 70.8794H305.954V68.8794H303.954V70.8794ZM304.868 77.5044V79.5044H306.868V77.5044H304.868ZM295.688 76.8716L294.425 78.4221L294.441 78.4348L294.457 78.4472L295.688 76.8716ZM294.978 75.9888L293.199 76.9035L293.207 76.9188L293.215 76.9339L294.978 75.9888ZM294.985 66.5981L293.571 65.1839L293.551 65.2041L293.531 65.2249L294.985 66.5981ZM304.868 66.3013H306.868V64.3013H304.868V66.3013ZM304.868 68.3325V70.3325H306.868V68.3325H304.868ZM296.728 68.3325V66.3325H294.728V68.3325H296.728ZM304.868 75.4731H306.868V73.4731H304.868V75.4731ZM303.954 70.9263H297.54V74.9263H303.954V70.9263ZM299.54 72.9263V70.8794H295.54V72.9263H299.54ZM297.54 72.8794H303.954V68.8794H297.54V72.8794ZM301.954 70.8794V72.9263H305.954V70.8794H301.954ZM304.868 75.5044H297.54V79.5044H304.868V75.5044ZM297.54 75.5044C297.491 75.5044 297.378 75.4952 297.187 75.4387L296.049 79.2733C296.525 79.4147 297.027 79.5044 297.54 79.5044V75.5044ZM297.187 75.4387C297.105 75.4143 297.018 75.3727 296.92 75.296L294.457 78.4472C294.931 78.8184 295.464 79.0997 296.049 79.2733L297.187 75.4387ZM296.952 75.3211C296.899 75.2783 296.823 75.199 296.74 75.0436L293.215 76.9339C293.517 77.4972 293.915 78.0066 294.425 78.4221L296.952 75.3211ZM296.756 75.0741C296.749 75.0611 296.696 74.9481 296.696 74.6528H292.696C292.696 75.4096 292.831 76.1873 293.199 76.9035L296.756 75.0741ZM296.696 74.6528V67.3247H292.696V74.6528H296.696ZM296.696 67.3247C296.696 67.4378 296.674 67.5674 296.621 67.6955L292.928 66.157C292.771 66.5352 292.696 66.9304 292.696 67.3247H296.696ZM296.621 67.6955C296.584 67.7826 296.525 67.8805 296.439 67.9714L293.531 65.2249C293.268 65.5033 293.069 65.82 292.928 66.157L296.621 67.6955ZM296.4 68.0124C296.305 68.1073 296.194 68.1794 296.083 68.2255L294.544 64.5332C294.183 64.6836 293.854 64.9015 293.571 65.1839L296.4 68.0124ZM296.083 68.2255C295.946 68.2826 295.817 68.3013 295.72 68.3013V64.3013C295.33 64.3013 294.931 64.372 294.544 64.5332L296.083 68.2255ZM295.72 68.3013H304.868V64.3013H295.72V68.3013ZM302.868 66.3013V68.3325H306.868V66.3013H302.868ZM304.868 66.3325H296.728V70.3325H304.868V66.3325ZM294.728 68.3325V74.6528H298.728V68.3325H294.728ZM294.728 74.6528C294.728 75.2651 294.896 76.0482 295.524 76.6764L298.353 73.848C298.7 74.195 298.728 74.5718 298.728 74.6528H294.728ZM295.524 76.6764C296.159 77.3115 296.951 77.4731 297.556 77.4731V73.4731C297.618 73.4731 297.999 73.4942 298.353 73.848L295.524 76.6764ZM297.556 77.4731H304.868V73.4731H297.556V77.4731ZM302.868 75.4731V77.5044H306.868V75.4731H302.868ZM317.517 77.2153L318.89 78.6694L318.911 78.6497L318.931 78.6295L317.517 77.2153ZM309.61 76.9341L308.743 78.7364L308.757 78.743L308.771 78.7493L309.61 76.9341ZM307.485 75.1138L305.808 76.2037L305.816 76.2159L305.824 76.228L307.485 75.1138ZM306.845 73.6919L304.925 74.2512L304.926 74.2562L306.845 73.6919ZM306.61 66.3013V64.3013H304.61V66.3013H306.61ZM308.642 66.3013H310.642V64.3013H308.642V66.3013ZM308.876 73.356L307.016 74.0903L307.02 74.1008L307.024 74.1113L308.876 73.356ZM309.485 74.3481L308.015 75.7035L309.485 74.3481ZM311.118 75.3091L310.579 77.235L310.589 77.2377L311.118 75.3091ZM311.813 75.4497L311.604 77.4387L311.632 77.4417L311.66 77.4438L311.813 75.4497ZM315.782 75.4731V77.4731H317.782V75.4731H315.782ZM315.782 66.3013V64.3013H313.782V66.3013H315.782ZM317.813 66.3013H319.813V64.3013H317.813V66.3013ZM315.813 76.481C315.813 76.3833 315.832 76.255 315.889 76.118L319.582 77.6564C319.743 77.2694 319.813 76.8703 319.813 76.481H315.813ZM315.889 76.118C315.935 76.0071 316.007 75.8961 316.102 75.8011L318.931 78.6295C319.213 78.3471 319.431 78.0173 319.582 77.6564L315.889 76.118ZM316.143 75.7613C316.234 75.6754 316.332 75.6164 316.419 75.5801L317.958 79.2724C318.295 79.132 318.611 78.9323 318.89 78.6694L316.143 75.7613ZM316.419 75.5801C316.547 75.5267 316.677 75.5044 316.79 75.5044V79.5044C317.184 79.5044 317.58 79.43 317.958 79.2724L316.419 75.5801ZM316.79 75.5044H312.212V79.5044H316.79V75.5044ZM312.212 75.5044C311.925 75.5044 311.627 75.4734 311.314 75.4072L310.485 79.3204C311.058 79.4416 311.634 79.5044 312.212 79.5044V75.5044ZM311.314 75.4072C311.02 75.3449 310.733 75.2496 310.45 75.1188L308.771 78.7493C309.321 79.004 309.894 79.1951 310.485 79.3204L311.314 75.4072ZM310.477 75.1317C310.218 75.0069 309.966 74.8462 309.722 74.644L307.17 77.7241C307.655 78.1261 308.18 78.4655 308.743 78.7364L310.477 75.1317ZM309.722 74.644C309.513 74.4702 309.32 74.2587 309.146 73.9995L305.824 76.228C306.203 76.7917 306.651 77.2938 307.17 77.7241L309.722 74.644ZM309.162 74.0238C309.008 73.7871 308.871 73.4938 308.763 73.1276L304.926 74.2562C305.131 74.9525 305.421 75.6071 305.808 76.2037L309.162 74.0238ZM308.765 73.1326C308.67 72.8063 308.61 72.4019 308.61 71.9028H304.61C304.61 72.7163 304.707 73.5046 304.925 74.2512L308.765 73.1326ZM308.61 71.9028V66.3013H304.61V71.9028H308.61ZM306.61 68.3013H308.642V64.3013H306.61V68.3013ZM306.642 66.3013V71.9028H310.642V66.3013H306.642ZM306.642 71.9028C306.642 72.6453 306.741 73.395 307.016 74.0903L310.736 72.6216C310.698 72.5252 310.642 72.3062 310.642 71.9028H306.642ZM307.024 74.1113C307.26 74.6886 307.581 75.2333 308.015 75.7035L310.956 72.9928C310.9 72.9318 310.815 72.8149 310.728 72.6006L307.024 74.1113ZM308.015 75.7035C308.402 76.1233 308.852 76.4809 309.37 76.7491L311.21 73.1972C311.144 73.1633 311.059 73.1042 310.956 72.9928L308.015 75.7035ZM309.37 76.7491C309.759 76.9502 310.162 77.1184 310.579 77.235L311.657 73.3832C311.553 73.3539 311.405 73.2982 311.21 73.1972L309.37 76.7491ZM310.589 77.2377C310.923 77.3294 311.266 77.4031 311.604 77.4387L312.023 73.4607C311.965 73.4546 311.845 73.4346 311.648 73.3804L310.589 77.2377ZM311.66 77.4438C311.846 77.4581 312.058 77.4731 312.212 77.4731V73.4731C312.233 73.4731 312.243 73.4737 312.232 73.4733C312.223 73.4729 312.208 73.4722 312.183 73.4707C312.133 73.4678 312.062 73.4629 311.967 73.4556L311.66 77.4438ZM312.212 77.4731H315.782V73.4731H312.212V77.4731ZM317.782 75.4731V66.3013H313.782V75.4731H317.782ZM315.782 68.3013H317.813V64.3013H315.782V68.3013ZM315.813 66.3013V76.481H319.813V66.3013H315.813ZM330.735 72.2778L329.1 71.1268L329.095 71.133L330.735 72.2778ZM329.259 73.481L330.084 75.3029L330.091 75.2994L330.099 75.2959L329.259 73.481ZM328.415 73.7544L328.023 71.7932L328.016 71.7946L328.415 73.7544ZM327.618 73.8403V71.8403H322.243L326.311 75.3539L327.618 73.8403ZM331.86 77.5044V79.5044H337.236L333.168 75.9908L331.86 77.5044ZM328.72 77.5044L327.411 79.0168L327.975 79.5044H328.72V77.5044ZM324.485 73.8403L325.794 72.3279L325.231 71.8403H324.485V73.8403ZM323.024 73.8403H321.024V75.8403H323.024V73.8403ZM323.024 71.8091V69.8091H321.024V71.8091H323.024ZM327.618 71.8091V73.8091H327.7L327.781 73.8025L327.618 71.8091ZM328.313 71.6528L329.056 73.5098L329.068 73.5051L329.08 73.5003L328.313 71.6528ZM328.86 71.3013L327.496 69.8392L327.483 69.8507L327.471 69.8625L328.86 71.3013ZM329.22 70.7778L331.07 71.5369L331.073 71.5288L331.077 71.5206L329.22 70.7778ZM329.298 68.5278L327.452 69.2971L327.492 69.3937L327.542 69.4855L329.298 68.5278ZM329.188 68.395L327.988 69.995L328.098 70.077L328.217 70.1433L329.188 68.395ZM329.048 68.3403L328.827 70.3281L328.838 70.3293L328.849 70.3304L329.048 68.3403ZM322.212 68.3325V66.3325H320.212V68.3325H322.212ZM322.212 77.5044V79.5044H324.212V77.5044H322.212ZM320.181 77.5044H318.181V79.5044H320.181V77.5044ZM320.47 66.5981L319.056 65.1839L319.035 65.2041L319.016 65.2249L320.47 66.5981ZM330.063 66.5513L329.122 68.316L329.134 68.3221L329.145 68.3281L330.063 66.5513ZM330.821 67.1685L329.237 68.3895L329.251 68.4079L329.266 68.4259L330.821 67.1685ZM331.243 67.9653L329.323 68.524L329.327 68.54L329.332 68.5559L331.243 67.9653ZM329.376 70.0669C329.376 70.3688 329.338 70.5751 329.296 70.7094L333.112 71.9087C333.299 71.3139 333.376 70.6921 333.376 70.0669H329.376ZM329.296 70.7094C329.237 70.899 329.167 71.0318 329.1 71.1268L332.371 73.4288C332.7 72.9613 332.942 72.4484 333.112 71.9087L329.296 70.7094ZM329.095 71.133C329.013 71.2508 328.927 71.3391 328.838 71.4083L331.289 74.5692C331.71 74.2426 332.072 73.8569 332.375 73.4227L329.095 71.133ZM328.838 71.4083C328.697 71.5177 328.557 71.6018 328.419 71.666L330.099 75.2959C330.523 75.0997 330.92 74.8557 331.289 74.5692L328.838 71.4083ZM328.434 71.659C328.291 71.7237 328.155 71.7669 328.023 71.7932L328.807 75.7156C329.248 75.6274 329.674 75.4882 330.084 75.3029L328.434 71.659ZM328.016 71.7946C327.847 71.829 327.716 71.8403 327.618 71.8403V75.8403C328.02 75.8403 328.42 75.7944 328.814 75.7141L328.016 71.7946ZM326.311 75.3539L330.553 79.018L333.168 75.9908L328.925 72.3267L326.311 75.3539ZM331.86 75.5044H328.72V79.5044H331.86V75.5044ZM330.028 75.992L325.794 72.3279L323.177 75.3527L327.411 79.0168L330.028 75.992ZM324.485 71.8403H323.024V75.8403H324.485V71.8403ZM325.024 73.8403V71.8091H321.024V73.8403H325.024ZM323.024 73.8091H327.618V69.8091H323.024V73.8091ZM327.781 73.8025C328.208 73.7676 328.638 73.6769 329.056 73.5098L327.571 69.7959C327.571 69.7959 327.569 69.7967 327.565 69.7979C327.561 69.7992 327.554 69.801 327.545 69.8031C327.527 69.8072 327.497 69.8123 327.455 69.8157L327.781 73.8025ZM329.08 73.5003C329.501 73.3255 329.901 73.0767 330.25 72.7401L327.471 69.8625C327.493 69.8414 327.513 69.8262 327.529 69.8162C327.544 69.8063 327.552 69.8036 327.547 69.8053L329.08 73.5003ZM330.225 72.7634C330.598 72.4155 330.88 71.9992 331.07 71.5369L327.369 70.0187C327.379 69.9941 327.395 69.9629 327.419 69.929C327.442 69.895 327.468 69.8646 327.496 69.8392L330.225 72.7634ZM331.077 71.5206C331.27 71.0369 331.345 70.5411 331.345 70.0669H327.345C327.345 70.0954 327.342 70.1045 327.344 70.0975C327.345 70.09 327.35 70.0676 327.363 70.0351L331.077 71.5206ZM331.345 70.0669V68.7856H327.345V70.0669H331.345ZM331.345 68.7856C331.345 68.5547 331.324 68.0667 331.054 67.5701L327.542 69.4855C327.428 69.2755 327.384 69.0936 327.365 68.993C327.346 68.8881 327.345 68.8136 327.345 68.7856H331.345ZM331.144 67.7586C330.991 67.3917 330.694 66.9434 330.16 66.6467L328.217 70.1433C327.777 69.8987 327.552 69.5389 327.452 69.2971L331.144 67.7586ZM330.388 66.795C330.053 66.5437 329.66 66.3916 329.247 66.3503L328.849 70.3304C328.54 70.2995 328.24 70.1838 327.988 69.995L330.388 66.795ZM329.269 66.3526C329.158 66.3402 329.039 66.3325 328.915 66.3325V70.3325C328.874 70.3325 328.844 70.33 328.827 70.3281L329.269 66.3526ZM328.915 66.3325H322.212V70.3325H328.915V66.3325ZM320.212 68.3325V77.5044H324.212V68.3325H320.212ZM322.212 75.5044H320.181V79.5044H322.212V75.5044ZM322.181 77.5044V67.3247H318.181V77.5044H322.181ZM322.181 67.3247C322.181 67.4378 322.158 67.5674 322.105 67.6955L318.413 66.157C318.255 66.5352 318.181 66.9304 318.181 67.3247H322.181ZM322.105 67.6955C322.069 67.7826 322.01 67.8805 321.924 67.9714L319.016 65.2249C318.753 65.5033 318.553 65.82 318.413 66.157L322.105 67.6955ZM321.884 68.0124C321.789 68.1073 321.678 68.1794 321.567 68.2255L320.029 64.5332C319.668 64.6836 319.338 64.9015 319.056 65.1839L321.884 68.0124ZM321.567 68.2255C321.43 68.2826 321.302 68.3013 321.204 68.3013V64.3013C320.815 64.3013 320.416 64.372 320.029 64.5332L321.567 68.2255ZM321.204 68.3013H328.915V64.3013H321.204V68.3013ZM328.915 68.3013C329.129 68.3013 329.169 68.341 329.122 68.316L331.005 64.7866C330.333 64.4282 329.607 64.3013 328.915 64.3013V68.3013ZM329.145 68.3281C329.189 68.3506 329.213 68.3682 329.224 68.3774C329.23 68.3821 329.233 68.3854 329.235 68.387C329.237 68.3886 329.237 68.3894 329.237 68.3895L332.405 65.9474C332.014 65.4404 331.524 65.0547 330.982 64.7744L329.145 68.3281ZM329.266 68.4259C329.306 68.4759 329.318 68.5063 329.323 68.524L333.164 67.4067C333.002 66.8515 332.732 66.3506 332.377 65.911L329.266 68.4259ZM329.332 68.5559C329.373 68.688 329.376 68.7555 329.376 68.77H333.376C333.376 68.2846 333.29 67.8156 333.154 67.3747L329.332 68.5559ZM329.376 68.77V70.0669H333.376V68.77H329.376ZM342.36 77.3169L343.109 79.1715L343.118 79.168L342.36 77.3169ZM335.884 77.3169L335.127 79.168L335.134 79.1709L335.141 79.1738L335.884 77.3169ZM333.415 74.856L331.564 75.6132L331.567 75.6204L331.57 75.6276L333.415 74.856ZM333.415 68.9575L331.567 68.1918L331.564 68.2003L333.415 68.9575ZM334.399 67.4731L335.805 68.8963L335.814 68.8874L334.399 67.4731ZM342.36 66.4966L341.597 68.3452L341.603 68.3477L342.36 66.4966ZM343.845 67.4731L342.43 68.8874L342.439 68.8962L343.845 67.4731ZM344.821 68.9575L342.968 69.7089L342.97 69.7148L344.821 68.9575ZM342.946 69.7466L341.077 70.4586L341.084 70.4766L341.091 70.4945L342.946 69.7466ZM342.407 68.9106L340.977 70.3089L340.993 70.3249L341.009 70.3407L342.407 68.9106ZM341.571 68.3716L340.823 70.2265L340.841 70.2337L340.859 70.2406L341.571 68.3716ZM336.665 68.3716L337.387 70.2367L337.395 70.2337L337.403 70.2306L336.665 68.3716ZM335.829 68.9106L337.227 70.3407L337.235 70.3328L337.243 70.3249L335.829 68.9106ZM335.282 69.7466L333.423 69.0089L333.42 69.0167L333.417 69.0246L335.282 69.7466ZM335.282 74.0669L333.413 74.7789L333.42 74.7969L333.427 74.8148L335.282 74.0669ZM335.829 74.9028L334.415 76.317L334.423 76.325L334.431 76.3328L335.829 74.9028ZM336.665 75.4419L335.917 77.2968L335.935 77.304L335.953 77.3109L336.665 75.4419ZM341.563 75.4419L342.285 77.307L342.293 77.304L342.301 77.3009L341.563 75.4419ZM342.407 74.9028L343.805 76.3328L343.813 76.325L343.821 76.317L342.407 74.9028ZM342.946 74.0669L341.087 73.3292L341.084 73.337L341.081 73.3449L342.946 74.0669ZM343.173 72.9731C343.173 73.4224 343.097 73.7896 342.97 74.0987L346.672 75.6132C347.015 74.7765 347.173 73.8885 347.173 72.9731H343.173ZM342.97 74.0987C342.831 74.4384 342.65 74.7067 342.431 74.9261L345.259 77.7545C345.873 77.1407 346.343 76.4193 346.672 75.6132L342.97 74.0987ZM342.431 74.9261C342.211 75.1456 341.943 75.3268 341.603 75.4658L343.118 79.168C343.924 78.8382 344.645 78.3684 345.259 77.7545L342.431 74.9261ZM341.612 75.4623C341.304 75.5865 340.941 75.6606 340.501 75.6606V79.6606C341.404 79.6606 342.281 79.5057 343.109 79.1715L341.612 75.4623ZM340.501 75.6606H337.751V79.6606H340.501V75.6606ZM337.751 75.6606C337.311 75.6606 336.943 75.5865 336.627 75.4599L335.141 79.1738C335.97 79.5056 336.847 79.6606 337.751 79.6606V75.6606ZM336.641 75.4658C336.301 75.3268 336.033 75.1456 335.814 74.9261L332.985 77.7545C333.599 78.3684 334.32 78.8382 335.127 79.168L336.641 75.4658ZM335.814 74.9261C335.591 74.7034 335.405 74.4302 335.26 74.0843L331.57 75.6276C331.904 76.4276 332.375 77.144 332.985 77.7545L335.814 74.9261ZM335.266 74.0987C335.14 73.7896 335.063 73.4224 335.063 72.9731H331.063C331.063 73.8885 331.222 74.7765 331.564 75.6132L335.266 74.0987ZM335.063 72.9731V70.8325H331.063V72.9731H335.063ZM335.063 70.8325C335.063 70.3906 335.139 70.0257 335.266 69.7148L331.564 68.2003C331.222 69.0352 331.063 69.9202 331.063 70.8325H335.063ZM335.263 69.7232C335.407 69.3744 335.591 69.1076 335.805 68.8962L332.994 66.0501C332.375 66.6616 331.902 67.3844 331.567 68.1918L335.263 69.7232ZM335.814 68.8874C336.033 68.6679 336.301 68.4867 336.641 68.3477L335.127 64.6455C334.32 64.9753 333.599 65.4451 332.985 66.0589L335.814 68.8874ZM336.641 68.3477C336.954 68.2197 337.316 68.145 337.751 68.145V64.145C336.842 64.145 335.96 64.3047 335.127 64.6455L336.641 68.3477ZM337.751 68.145H340.501V64.145H337.751V68.145ZM340.501 68.145C340.936 68.145 341.293 68.2198 341.597 68.3452L343.124 64.6479C342.292 64.3046 341.41 64.145 340.501 64.145V68.145ZM341.603 68.3477C341.943 68.4867 342.211 68.6679 342.431 68.8874L345.259 66.0589C344.645 65.4451 343.924 64.9753 343.118 64.6455L341.603 68.3477ZM342.439 68.8962C342.65 69.1043 342.829 69.3661 342.968 69.7089L346.675 68.2061C346.345 67.3927 345.873 66.6649 345.25 66.0501L342.439 68.8962ZM342.97 69.7148C343.097 70.0257 343.173 70.3906 343.173 70.8325H347.173C347.173 69.9202 347.014 69.0352 346.672 68.2003L342.97 69.7148ZM343.173 70.8325V72.9731H347.173V70.8325H343.173ZM345.142 70.8325C345.142 70.2137 345.041 69.5925 344.801 68.9986L341.091 70.4945C341.112 70.5465 341.142 70.6493 341.142 70.8325H345.142ZM344.815 69.0346C344.595 68.4555 344.261 67.9264 343.805 67.4806L341.009 70.3407C341.022 70.3532 341.048 70.3814 341.077 70.4586L344.815 69.0346ZM343.837 67.5124C343.391 67.0565 342.862 66.7232 342.283 66.5026L340.859 70.2406C340.936 70.2699 340.965 70.296 340.977 70.3089L343.837 67.5124ZM342.319 66.5167C341.731 66.2796 341.117 66.1763 340.501 66.1763V70.1763C340.666 70.1763 340.765 70.2031 340.823 70.2265L342.319 66.5167ZM340.501 66.1763H337.751V70.1763H340.501V66.1763ZM337.751 66.1763C337.133 66.1763 336.517 66.2786 335.927 66.5126L337.403 70.2306C337.469 70.2042 337.577 70.1763 337.751 70.1763V66.1763ZM335.943 66.5064C335.372 66.7274 334.855 67.0564 334.415 67.4964L337.243 70.3249C337.272 70.2961 337.312 70.2658 337.387 70.2367L335.943 66.5064ZM334.431 67.4806C333.981 67.9205 333.649 68.4406 333.423 69.0089L337.141 70.4843C337.176 70.3963 337.208 70.3592 337.227 70.3407L334.431 67.4806ZM333.417 69.0246C333.19 69.6111 333.095 70.2231 333.095 70.8325H337.095C337.095 70.6399 337.124 70.5278 337.147 70.4686L333.417 69.0246ZM333.095 70.8325V72.9731H337.095V70.8325H333.095ZM333.095 72.9731C333.095 73.5833 333.19 74.1935 333.413 74.7789L337.151 73.3549C337.124 73.2841 337.095 73.1651 337.095 72.9731H333.095ZM333.427 74.8148C333.653 75.3744 333.981 75.8829 334.415 76.317L337.243 73.4886C337.209 73.454 337.172 73.4052 337.137 73.319L333.427 74.8148ZM334.431 76.3328C334.864 76.7559 335.367 77.075 335.917 77.2968L337.413 73.587C337.317 73.5484 337.263 73.508 337.227 73.4728L334.431 76.3328ZM335.953 77.3109C336.536 77.5328 337.143 77.6294 337.751 77.6294V73.6294C337.568 73.6294 337.451 73.601 337.377 73.5729L335.953 77.3109ZM337.751 77.6294H340.485V73.6294H337.751V77.6294ZM340.485 77.6294C341.093 77.6294 341.702 77.533 342.285 77.307L340.841 73.5768C340.779 73.6008 340.669 73.6294 340.485 73.6294V77.6294ZM342.301 77.3009C342.857 77.0805 343.367 76.7613 343.805 76.3328L341.009 73.4728C340.978 73.5027 340.927 73.5429 340.826 73.5829L342.301 77.3009ZM343.821 76.317C344.261 75.877 344.591 75.3596 344.811 74.7889L341.081 73.3449C341.052 73.4201 341.022 73.4599 340.993 73.4886L343.821 76.317ZM344.805 74.8046C345.04 74.2119 345.142 73.5927 345.142 72.9731H341.142C341.142 73.1557 341.113 73.2656 341.087 73.3292L344.805 74.8046ZM345.142 72.9731V70.8325H341.142V72.9731H345.142ZM357.704 73.1997L356.068 72.0487L356.064 72.0549L357.704 73.1997ZM356.228 74.395L355.415 72.5674L355.403 72.5731L356.228 74.395ZM355.384 74.6685L354.992 72.7073L354.985 72.7087L355.384 74.6685ZM349.993 74.7544H347.993V76.7544H349.993V74.7544ZM349.993 72.7231V70.7231H347.993V72.7231H349.993ZM354.587 72.7231V74.7231H354.667L354.746 74.7168L354.587 72.7231ZM355.29 72.5669L356.033 74.4238L356.044 74.4192L356.056 74.4144L355.29 72.5669ZM356.188 71.6919L358.039 72.451L358.042 72.4429L358.045 72.4347L356.188 71.6919ZM356.313 70.0669H358.313V69.9651L358.303 69.8639L356.313 70.0669ZM356.149 69.3638L358.013 68.6367L356.149 69.3638ZM355.806 68.8169L354.342 70.1797L354.354 70.193L354.367 70.2061L355.806 68.8169ZM355.29 68.4653L354.491 70.2987L354.511 70.3074L354.531 70.3157L355.29 68.4653ZM349.181 77.5044V79.5044H351.181V77.5044H349.181ZM347.149 77.5044H345.149V79.5044H347.149V77.5044ZM347.431 67.8247L345.662 66.8901L345.657 66.9L345.652 66.91L347.431 67.8247ZM348.142 66.9419L346.91 65.3663L346.903 65.3718L346.896 65.3773L348.142 66.9419ZM349.071 66.4575L349.64 68.3748L349.654 68.3707L349.668 68.3665L349.071 66.4575ZM355.821 66.481L355.197 68.381L355.209 68.3851L355.222 68.3889L355.821 66.481ZM356.782 66.9497L355.617 68.5751L355.634 68.5875L355.652 68.5996L356.782 66.9497ZM357.493 67.6216L355.897 68.8268L355.905 68.8371L355.913 68.8472L357.493 67.6216ZM357.978 68.4263L356.15 69.2385L356.159 69.2591L356.169 69.2795L357.978 68.4263ZM358.259 69.27L356.298 69.6623L356.299 69.6692L358.259 69.27ZM356.345 70.9888C356.345 71.2907 356.307 71.4969 356.265 71.6313L360.081 72.8306C360.268 72.2358 360.345 71.614 360.345 70.9888H356.345ZM356.265 71.6313C356.205 71.8208 356.135 71.9537 356.068 72.0487L359.34 74.3507C359.669 73.8832 359.911 73.3703 360.081 72.8306L356.265 71.6313ZM356.064 72.0549C355.982 72.1727 355.896 72.2609 355.807 72.3302L358.258 75.4911C358.679 75.1645 359.041 74.7788 359.344 74.3446L356.064 72.0549ZM355.807 72.3302C355.672 72.4342 355.542 72.511 355.415 72.5674L357.04 76.2226C357.475 76.0291 357.882 75.7829 358.258 75.4911L355.807 72.3302ZM355.403 72.5731C355.26 72.6377 355.123 72.6809 354.992 72.7073L355.776 76.6296C356.217 76.5414 356.643 76.4023 357.053 76.2169L355.403 72.5731ZM354.985 72.7087C354.816 72.7431 354.685 72.7544 354.587 72.7544V76.7544C354.989 76.7544 355.389 76.7084 355.783 76.6282L354.985 72.7087ZM354.587 72.7544H349.993V76.7544H354.587V72.7544ZM351.993 74.7544V72.7231H347.993V74.7544H351.993ZM349.993 74.7231H354.587V70.7231H349.993V74.7231ZM354.746 74.7168C355.175 74.6825 355.61 74.5928 356.033 74.4238L354.547 70.7099C354.553 70.7076 354.52 70.7221 354.427 70.7295L354.746 74.7168ZM356.056 74.4144C356.478 74.2396 356.877 73.9908 357.226 73.6541L354.448 70.7765C354.47 70.7555 354.49 70.7403 354.505 70.7302C354.521 70.7204 354.528 70.7177 354.524 70.7194L356.056 74.4144ZM357.226 73.6541C357.585 73.3073 357.855 72.8982 358.039 72.451L354.338 70.9328C354.345 70.9151 354.358 70.8896 354.378 70.86C354.398 70.8302 354.422 70.8017 354.448 70.7765L357.226 73.6541ZM358.045 72.4347C358.237 71.9554 358.313 71.4633 358.313 70.9888H354.313C354.313 71.0124 354.312 71.0184 354.313 71.0098C354.315 71.0007 354.32 70.9791 354.332 70.9491L358.045 72.4347ZM358.313 70.9888V70.0669H354.313V70.9888H358.313ZM358.303 69.8639C358.261 69.4501 358.169 69.037 358.013 68.6367L354.286 70.0909C354.297 70.1176 354.314 70.1733 354.324 70.2699L358.303 69.8639ZM358.013 68.6367C357.842 68.1993 357.59 67.786 357.244 67.4277L354.367 70.2061C354.342 70.1799 354.322 70.1539 354.308 70.1312C354.294 70.1089 354.288 70.0941 354.286 70.0909L358.013 68.6367ZM357.269 67.4541C356.919 67.0782 356.502 66.8009 356.049 66.615L354.531 70.3157C354.511 70.3073 354.48 70.2924 354.445 70.2682C354.409 70.2437 354.374 70.2138 354.342 70.1797L357.269 67.4541ZM356.089 66.6319C355.589 66.4139 355.074 66.3325 354.587 66.3325V70.3325C354.631 70.3325 354.585 70.3397 354.491 70.2987L356.089 66.6319ZM354.587 66.3325H350.009V70.3325H354.587V66.3325ZM350.009 66.3325C349.404 66.3325 348.612 66.4942 347.977 67.1292L350.806 69.9577C350.452 70.3115 350.072 70.3325 350.009 70.3325V66.3325ZM347.977 67.1292C347.349 67.7575 347.181 68.5406 347.181 69.1528H351.181C351.181 69.2338 351.153 69.6107 350.806 69.9577L347.977 67.1292ZM347.181 69.1528V77.5044H351.181V69.1528H347.181ZM349.181 75.5044H347.149V79.5044H349.181V75.5044ZM349.149 77.5044V69.1528H345.149V77.5044H349.149ZM349.149 69.1528C349.149 68.8664 349.201 68.7549 349.209 68.7394L345.652 66.91C345.285 67.6237 345.149 68.3976 345.149 69.1528H349.149ZM349.199 68.7593C349.282 68.6028 349.351 68.5352 349.387 68.5065L346.896 65.3773C346.369 65.7965 345.965 66.3174 345.662 66.8901L349.199 68.7593ZM349.373 68.5175C349.472 68.4408 349.558 68.3992 349.64 68.3748L348.502 64.5402C347.918 64.7138 347.385 64.9951 346.91 65.3663L349.373 68.5175ZM349.668 68.3665C349.853 68.3087 349.956 68.3013 349.993 68.3013V64.3013C349.468 64.3013 348.957 64.398 348.475 64.5486L349.668 68.3665ZM349.993 68.3013H354.587V64.3013H349.993V68.3013ZM354.587 68.3013C354.873 68.3013 355.069 68.3389 355.197 68.381L356.446 64.5809C355.845 64.3835 355.217 64.3013 354.587 64.3013V68.3013ZM355.222 68.3889C355.409 68.4478 355.533 68.5152 355.617 68.5751L357.948 65.3243C357.479 64.9884 356.963 64.7433 356.421 64.573L355.222 68.3889ZM355.652 68.5996C355.767 68.6783 355.843 68.755 355.897 68.8268L359.089 66.4164C358.758 65.9777 358.36 65.6066 357.913 65.2998L355.652 68.5996ZM355.913 68.8472C356.017 68.9814 356.094 69.1116 356.15 69.2385L359.805 67.614C359.612 67.1784 359.365 66.7722 359.074 66.3959L355.913 68.8472ZM356.169 69.2795C356.233 69.4152 356.274 69.5421 356.298 69.6623L360.22 68.8778C360.129 68.4251 359.983 67.9894 359.786 67.573L356.169 69.2795ZM356.299 69.6692C356.333 69.838 356.345 69.969 356.345 70.0669H360.345C360.345 69.6648 360.299 69.2646 360.219 68.8708L356.299 69.6692ZM356.345 70.0669V70.9888H360.345V70.0669H356.345ZM369.298 72.9263V74.9263H371.298V72.9263H369.298ZM362.884 72.9263H360.884V74.9263H362.884V72.9263ZM362.884 70.8794V68.8794H360.884V70.8794H362.884ZM369.298 70.8794H371.298V68.8794H369.298V70.8794ZM370.212 77.5044V79.5044H372.212V77.5044H370.212ZM361.032 76.8716L359.769 78.4221L359.785 78.4348L359.8 78.4472L361.032 76.8716ZM360.321 75.9888L358.543 76.9035L358.551 76.9188L358.559 76.9339L360.321 75.9888ZM360.329 66.5981L358.915 65.1839L358.895 65.2041L358.875 65.2249L360.329 66.5981ZM370.212 66.3013H372.212V64.3013H370.212V66.3013ZM370.212 68.3325V70.3325H372.212V68.3325H370.212ZM362.071 68.3325V66.3325H360.071V68.3325H362.071ZM370.212 75.4731H372.212V73.4731H370.212V75.4731ZM369.298 70.9263H362.884V74.9263H369.298V70.9263ZM364.884 72.9263V70.8794H360.884V72.9263H364.884ZM362.884 72.8794H369.298V68.8794H362.884V72.8794ZM367.298 70.8794V72.9263H371.298V70.8794H367.298ZM370.212 75.5044H362.884V79.5044H370.212V75.5044ZM362.884 75.5044C362.834 75.5044 362.721 75.4952 362.531 75.4387L361.393 79.2733C361.869 79.4147 362.371 79.5044 362.884 79.5044V75.5044ZM362.531 75.4387C362.449 75.4143 362.362 75.3727 362.264 75.296L359.8 78.4472C360.275 78.8184 360.808 79.0997 361.393 79.2733L362.531 75.4387ZM362.296 75.3211C362.243 75.2783 362.167 75.199 362.084 75.0436L358.559 76.9339C358.861 77.4972 359.259 78.0066 359.769 78.4221L362.296 75.3211ZM362.1 75.0741C362.093 75.0611 362.04 74.9481 362.04 74.6528H358.04C358.04 75.4096 358.174 76.1873 358.543 76.9035L362.1 75.0741ZM362.04 74.6528V67.3247H358.04V74.6528H362.04ZM362.04 67.3247C362.04 67.4378 362.018 67.5674 361.964 67.6955L358.272 66.157C358.114 66.5352 358.04 66.9304 358.04 67.3247H362.04ZM361.964 67.6955C361.928 67.7826 361.869 67.8805 361.783 67.9714L358.875 65.2249C358.612 65.5033 358.412 65.82 358.272 66.157L361.964 67.6955ZM361.743 68.0124C361.648 68.1073 361.537 68.1794 361.426 68.2255L359.888 64.5332C359.527 64.6836 359.197 64.9015 358.915 65.1839L361.743 68.0124ZM361.426 68.2255C361.289 68.2826 361.161 68.3013 361.063 68.3013V64.3013C360.674 64.3013 360.275 64.372 359.888 64.5332L361.426 68.2255ZM361.063 68.3013H370.212V64.3013H361.063V68.3013ZM368.212 66.3013V68.3325H372.212V66.3013H368.212ZM370.212 66.3325H362.071V70.3325H370.212V66.3325ZM360.071 68.3325V74.6528H364.071V68.3325H360.071ZM360.071 74.6528C360.071 75.2651 360.24 76.0482 360.868 76.6764L363.696 73.848C364.043 74.195 364.071 74.5718 364.071 74.6528H360.071ZM360.868 76.6764C361.503 77.3115 362.295 77.4731 362.899 77.4731V73.4731C362.962 73.4731 363.343 73.4942 363.696 73.848L360.868 76.6764ZM362.899 77.4731H370.212V73.4731H362.899V77.4731ZM368.212 75.4731V77.5044H372.212V75.4731H368.212Z" fill="#4CC3D9" mask="url(#path-10-outside-1_529_11726)"/>
<path d="M78.0928 77.6372C78.0928 77.783 78.0641 77.9185 78.0068 78.0435C77.9548 78.1685 77.8818 78.2778 77.7881 78.3716C77.6995 78.4601 77.5928 78.5304 77.4678 78.5825C77.3428 78.6346 77.21 78.6606 77.0693 78.6606C76.9443 78.6606 76.8167 78.6372 76.6865 78.5903C76.5615 78.5435 76.4495 78.4679 76.3506 78.3638L68.9287 70.6138V78.5044H66.8975V68.1685C66.8975 67.9601 66.9548 67.7726 67.0693 67.606C67.1891 67.4341 67.3402 67.3065 67.5225 67.2231C67.7152 67.145 67.9131 67.1268 68.1162 67.1685C68.3193 67.2049 68.4938 67.2987 68.6396 67.4497L76.0615 75.1919V67.3013H78.0928V77.6372ZM92.2178 73.9731C92.2178 74.6554 92.1006 75.283 91.8662 75.856C91.6318 76.4289 91.3063 76.9237 90.8896 77.3403C90.473 77.757 89.9782 78.0825 89.4053 78.3169C88.8376 78.5461 88.2178 78.6606 87.5459 78.6606H84.7959C84.124 78.6606 83.5016 78.5461 82.9287 78.3169C82.3558 78.0825 81.861 77.757 81.4443 77.3403C81.0277 76.9237 80.6995 76.4289 80.46 75.856C80.2256 75.283 80.1084 74.6554 80.1084 73.9731V71.8325C80.1084 71.1554 80.2256 70.5304 80.46 69.9575C80.6995 69.3794 81.0277 68.8846 81.4443 68.4731C81.861 68.0565 82.3558 67.731 82.9287 67.4966C83.5016 67.2622 84.124 67.145 84.7959 67.145H87.5459C88.2178 67.145 88.8376 67.2622 89.4053 67.4966C89.9782 67.731 90.473 68.0565 90.8896 68.4731C91.3063 68.8846 91.6318 69.3794 91.8662 69.9575C92.1006 70.5304 92.2178 71.1554 92.2178 71.8325V73.9731ZM90.1865 71.8325C90.1865 71.4315 90.1214 71.0695 89.9912 70.7466C89.8662 70.4185 89.6865 70.1398 89.4521 69.9106C89.223 69.6763 88.9443 69.4966 88.6162 69.3716C88.2933 69.2414 87.9365 69.1763 87.5459 69.1763H84.7959C84.4001 69.1763 84.0381 69.2414 83.71 69.3716C83.387 69.4966 83.1084 69.6763 82.874 69.9106C82.6396 70.1398 82.4574 70.4185 82.3271 70.7466C82.2021 71.0695 82.1396 71.4315 82.1396 71.8325V73.9731C82.1396 74.3742 82.2021 74.7388 82.3271 75.0669C82.4574 75.3898 82.6396 75.6685 82.874 75.9028C83.1084 76.132 83.387 76.3117 83.71 76.4419C84.0381 76.5669 84.4001 76.6294 84.7959 76.6294H87.5303C87.9261 76.6294 88.2855 76.5669 88.6084 76.4419C88.9365 76.3117 89.2178 76.132 89.4521 75.9028C89.6865 75.6685 89.8662 75.3898 89.9912 75.0669C90.1214 74.7388 90.1865 74.3742 90.1865 73.9731V71.8325ZM105.421 71.0669C105.421 71.5304 105.364 71.9445 105.249 72.3091C105.134 72.6737 104.978 72.9966 104.78 73.2778C104.588 73.5539 104.364 73.7909 104.108 73.9888C103.853 74.1867 103.585 74.3507 103.304 74.481C103.028 74.606 102.746 74.6971 102.46 74.7544C102.179 74.8117 101.913 74.8403 101.663 74.8403L105.905 78.5044H102.765L98.5303 74.8403H97.0693V72.8091H101.663C101.918 72.7882 102.15 72.7362 102.358 72.6528C102.572 72.5643 102.754 72.4471 102.905 72.3013C103.062 72.1554 103.181 71.981 103.265 71.7778C103.348 71.5695 103.39 71.3325 103.39 71.0669V69.7856C103.39 69.6711 103.374 69.5851 103.343 69.5278C103.317 69.4653 103.28 69.4211 103.233 69.395C103.192 69.3638 103.145 69.3455 103.093 69.3403C103.046 69.3351 103.002 69.3325 102.96 69.3325H96.2568V78.5044H94.2256V68.3247C94.2256 68.1841 94.2516 68.0513 94.3037 67.9263C94.3558 67.8013 94.4261 67.6919 94.5146 67.5981C94.6084 67.5044 94.7178 67.4315 94.8428 67.3794C94.9678 67.3273 95.1032 67.3013 95.249 67.3013H102.96C103.413 67.3013 103.796 67.3846 104.108 67.5513C104.421 67.7127 104.674 67.9185 104.866 68.1685C105.064 68.4132 105.205 68.6789 105.288 68.9653C105.377 69.2518 105.421 69.52 105.421 69.77V71.0669ZM117.491 69.3325H113.015V78.5044H110.983V69.3325H106.499V67.3013H117.491V69.3325ZM121.038 71.8794H128.171V67.3013H130.202V78.5044H128.171V73.9263H121.038V78.5044H119.007V67.3013H121.038V71.8794ZM68.8193 98.5044H66.7881V95.7544H59.6475V98.5044H57.6162V92.9028C57.6162 92.0851 57.7568 91.3325 58.0381 90.645C58.3193 89.9575 58.71 89.3664 59.21 88.8716C59.71 88.3768 60.3011 87.9914 60.9834 87.7153C61.6657 87.4393 62.4105 87.3013 63.2178 87.3013H67.7959C67.9365 87.3013 68.0693 87.3273 68.1943 87.3794C68.3193 87.4315 68.4287 87.5044 68.5225 87.5981C68.6162 87.6919 68.6891 87.8013 68.7412 87.9263C68.7933 88.0513 68.8193 88.1841 68.8193 88.3247V98.5044ZM59.6475 93.7231H66.7881V89.3325H63.2178C63.1553 89.3325 63.0225 89.3429 62.8193 89.3638C62.6214 89.3794 62.3896 89.4237 62.124 89.4966C61.8636 89.5695 61.5876 89.6815 61.2959 89.8325C61.0042 89.9836 60.736 90.1919 60.4912 90.4575C60.2464 90.7231 60.0433 91.0565 59.8818 91.4575C59.7256 91.8534 59.6475 92.3351 59.6475 92.9028V93.7231ZM84.2256 98.5044H82.1787V91.8325L78.5771 98.1685C78.4886 98.3299 78.3636 98.4523 78.2021 98.5356C78.0459 98.619 77.8766 98.6606 77.6943 98.6606C77.5173 98.6606 77.3506 98.619 77.1943 98.5356C77.0433 98.4523 76.9235 98.3299 76.835 98.1685L73.2178 91.8325V98.5044H71.1865V88.1685C71.1865 87.9341 71.2542 87.7257 71.3896 87.5435C71.5303 87.3612 71.7126 87.2388 71.9365 87.1763C72.0459 87.1502 72.1553 87.1424 72.2646 87.1528C72.374 87.158 72.4782 87.1815 72.5771 87.2231C72.6813 87.2596 72.7751 87.3143 72.8584 87.3872C72.9417 87.4549 73.012 87.5382 73.0693 87.6372L77.6943 95.6763L82.3193 87.6372C82.4391 87.4393 82.6032 87.2987 82.8115 87.2153C83.0251 87.132 83.2464 87.119 83.4756 87.1763C83.6943 87.2388 83.874 87.3612 84.0146 87.5435C84.1553 87.7257 84.2256 87.9341 84.2256 88.1685V98.5044ZM95.8037 93.9263H89.3896V91.8794H95.8037V93.9263ZM96.7178 98.5044H89.3896C89.1084 98.5044 88.8011 98.4549 88.4678 98.356C88.1344 98.257 87.8245 98.0955 87.5381 97.8716C87.2568 97.6424 87.0199 97.3481 86.8271 96.9888C86.6396 96.6242 86.5459 96.1789 86.5459 95.6528V88.3247C86.5459 88.1841 86.5719 88.0513 86.624 87.9263C86.6761 87.8013 86.7464 87.6919 86.835 87.5981C86.9287 87.5044 87.0381 87.4315 87.1631 87.3794C87.2881 87.3273 87.4235 87.3013 87.5693 87.3013H96.7178V89.3325H88.5771V95.6528C88.5771 95.9185 88.6475 96.1216 88.7881 96.2622C88.9287 96.4028 89.1344 96.4731 89.4053 96.4731H96.7178V98.5044ZM109.882 91.0669C109.882 91.5304 109.825 91.9445 109.71 92.3091C109.595 92.6737 109.439 92.9966 109.241 93.2778C109.049 93.5539 108.825 93.7909 108.569 93.9888C108.314 94.1867 108.046 94.3507 107.765 94.481C107.489 94.606 107.207 94.6971 106.921 94.7544C106.64 94.8117 106.374 94.8403 106.124 94.8403L110.366 98.5044H107.226L102.991 94.8403H101.53V92.8091H106.124C106.379 92.7882 106.611 92.7362 106.819 92.6528C107.033 92.5643 107.215 92.4471 107.366 92.3013C107.522 92.1554 107.642 91.981 107.726 91.7778C107.809 91.5695 107.851 91.3325 107.851 91.0669V89.7856C107.851 89.6711 107.835 89.5851 107.804 89.5278C107.778 89.4653 107.741 89.4211 107.694 89.395C107.653 89.3638 107.606 89.3455 107.554 89.3403C107.507 89.3351 107.463 89.3325 107.421 89.3325H100.718V98.5044H98.6865V88.3247C98.6865 88.1841 98.7126 88.0513 98.7646 87.9263C98.8167 87.8013 98.887 87.6919 98.9756 87.5981C99.0693 87.5044 99.1787 87.4315 99.3037 87.3794C99.4287 87.3273 99.5641 87.3013 99.71 87.3013H107.421C107.874 87.3013 108.257 87.3846 108.569 87.5513C108.882 87.7127 109.134 87.9185 109.327 88.1685C109.525 88.4132 109.666 88.6789 109.749 88.9653C109.838 89.2518 109.882 89.52 109.882 89.77V91.0669ZM113.968 98.5044H111.937V87.3013H113.968V98.5044ZM126.374 98.5044H119.046C118.858 98.5044 118.655 98.4836 118.437 98.4419C118.223 98.395 118.009 98.3247 117.796 98.231C117.588 98.1372 117.387 98.0174 117.194 97.8716C117.002 97.7205 116.83 97.5409 116.679 97.3325C116.533 97.119 116.416 96.8742 116.327 96.5981C116.239 96.3169 116.194 96.0018 116.194 95.6528V90.1528C116.194 89.9653 116.215 89.7648 116.257 89.5513C116.304 89.3325 116.374 89.119 116.468 88.9106C116.562 88.6971 116.684 88.494 116.835 88.3013C116.986 88.1086 117.166 87.9393 117.374 87.7935C117.588 87.6424 117.832 87.5226 118.108 87.4341C118.384 87.3455 118.697 87.3013 119.046 87.3013H126.374V89.3325H119.046C118.78 89.3325 118.577 89.4028 118.437 89.5435C118.296 89.6841 118.226 89.8924 118.226 90.1685V95.6528C118.226 95.9132 118.296 96.1164 118.437 96.2622C118.582 96.4028 118.785 96.4731 119.046 96.4731H126.374V98.5044ZM139.288 98.5044H137.257V95.7544H130.116V98.5044H128.085V92.9028C128.085 92.0851 128.226 91.3325 128.507 90.645C128.788 89.9575 129.179 89.3664 129.679 88.8716C130.179 88.3768 130.77 87.9914 131.452 87.7153C132.134 87.4393 132.879 87.3013 133.687 87.3013H138.265C138.405 87.3013 138.538 87.3273 138.663 87.3794C138.788 87.4315 138.897 87.5044 138.991 87.5981C139.085 87.6919 139.158 87.8013 139.21 87.9263C139.262 88.0513 139.288 88.1841 139.288 88.3247V98.5044ZM130.116 93.7231H137.257V89.3325H133.687C133.624 89.3325 133.491 89.3429 133.288 89.3638C133.09 89.3794 132.858 89.4237 132.593 89.4966C132.332 89.5695 132.056 89.6815 131.765 89.8325C131.473 89.9836 131.205 90.1919 130.96 90.4575C130.715 90.7231 130.512 91.0565 130.351 91.4575C130.194 91.8534 130.116 92.3351 130.116 92.9028V93.7231Z" fill="white"/>
<path d="M150.445 219.92C150.445 220.321 150.393 220.683 150.289 221.006C150.19 221.324 150.057 221.605 149.891 221.85C149.724 222.095 149.529 222.303 149.305 222.475C149.081 222.647 148.849 222.788 148.609 222.897C148.37 223.006 148.125 223.087 147.875 223.139C147.63 223.191 147.398 223.217 147.18 223.217H139.344V221.186H147.18C147.57 221.186 147.872 221.071 148.086 220.842C148.305 220.613 148.414 220.306 148.414 219.92C148.414 219.733 148.385 219.561 148.328 219.405C148.271 219.249 148.188 219.113 148.078 218.999C147.974 218.884 147.844 218.795 147.688 218.733C147.536 218.67 147.367 218.639 147.18 218.639H142.508C142.18 218.639 141.826 218.582 141.445 218.467C141.065 218.347 140.711 218.157 140.383 217.897C140.06 217.637 139.789 217.295 139.57 216.874C139.357 216.452 139.25 215.936 139.25 215.327C139.25 214.717 139.357 214.204 139.57 213.788C139.789 213.366 140.06 213.025 140.383 212.764C140.711 212.499 141.065 212.308 141.445 212.194C141.826 212.074 142.18 212.014 142.508 212.014H149.422V214.045H142.508C142.122 214.045 141.82 214.163 141.602 214.397C141.388 214.631 141.281 214.941 141.281 215.327C141.281 215.717 141.388 216.027 141.602 216.256C141.82 216.48 142.122 216.592 142.508 216.592H147.18H147.195C147.414 216.597 147.646 216.629 147.891 216.686C148.135 216.738 148.378 216.821 148.617 216.936C148.862 217.051 149.094 217.196 149.312 217.374C149.531 217.545 149.724 217.754 149.891 217.999C150.062 218.243 150.198 218.525 150.297 218.842C150.396 219.16 150.445 219.519 150.445 219.92ZM163.891 218.686C163.891 219.368 163.773 219.996 163.539 220.569C163.305 221.142 162.979 221.637 162.562 222.053C162.146 222.47 161.651 222.795 161.078 223.03C160.51 223.259 159.891 223.374 159.219 223.374H156.469C155.797 223.374 155.174 223.259 154.602 223.03C154.029 222.795 153.534 222.47 153.117 222.053C152.701 221.637 152.372 221.142 152.133 220.569C151.898 219.996 151.781 219.368 151.781 218.686V216.545C151.781 215.868 151.898 215.243 152.133 214.67C152.372 214.092 152.701 213.597 153.117 213.186C153.534 212.769 154.029 212.444 154.602 212.209C155.174 211.975 155.797 211.858 156.469 211.858H159.219C159.891 211.858 160.51 211.975 161.078 212.209C161.651 212.444 162.146 212.769 162.562 213.186C162.979 213.597 163.305 214.092 163.539 214.67C163.773 215.243 163.891 215.868 163.891 216.545V218.686ZM161.859 216.545C161.859 216.144 161.794 215.782 161.664 215.459C161.539 215.131 161.359 214.853 161.125 214.624C160.896 214.389 160.617 214.209 160.289 214.084C159.966 213.954 159.609 213.889 159.219 213.889H156.469C156.073 213.889 155.711 213.954 155.383 214.084C155.06 214.209 154.781 214.389 154.547 214.624C154.312 214.853 154.13 215.131 154 215.459C153.875 215.782 153.812 216.144 153.812 216.545V218.686C153.812 219.087 153.875 219.452 154 219.78C154.13 220.103 154.312 220.381 154.547 220.616C154.781 220.845 155.06 221.025 155.383 221.155C155.711 221.28 156.073 221.342 156.469 221.342H159.203C159.599 221.342 159.958 221.28 160.281 221.155C160.609 221.025 160.891 220.845 161.125 220.616C161.359 220.381 161.539 220.103 161.664 219.78C161.794 219.452 161.859 219.087 161.859 218.686V216.545ZM176.875 222.194C176.875 222.34 176.849 222.475 176.797 222.6C176.745 222.725 176.672 222.834 176.578 222.928C176.484 223.017 176.375 223.087 176.25 223.139C176.125 223.191 175.992 223.217 175.852 223.217H171.273C170.841 223.217 170.404 223.17 169.961 223.077C169.518 222.983 169.089 222.84 168.672 222.647C168.26 222.449 167.872 222.199 167.508 221.897C167.143 221.595 166.823 221.238 166.547 220.827C166.276 220.41 166.062 219.936 165.906 219.405C165.75 218.868 165.672 218.272 165.672 217.616V212.014H167.703V217.616C167.703 218.189 167.781 218.673 167.938 219.069C168.099 219.465 168.302 219.795 168.547 220.061C168.792 220.327 169.06 220.535 169.352 220.686C169.643 220.837 169.919 220.949 170.18 221.022C170.445 221.095 170.677 221.142 170.875 221.163C171.078 221.178 171.211 221.186 171.273 221.186H174.844V212.014H176.875V222.194ZM189.367 214.045H184.891V223.217H182.859V214.045H178.375V212.014H189.367V214.045ZM192.914 216.592H200.047V212.014H202.078V223.217H200.047V218.639H192.914V223.217H190.883V212.014H192.914V216.592ZM141.148 243.217H139.117V240.467H131.977V243.217H129.945V237.616C129.945 236.798 130.086 236.045 130.367 235.358C130.648 234.67 131.039 234.079 131.539 233.584C132.039 233.09 132.63 232.704 133.312 232.428C133.995 232.152 134.74 232.014 135.547 232.014H140.125C140.266 232.014 140.398 232.04 140.523 232.092C140.648 232.144 140.758 232.217 140.852 232.311C140.945 232.405 141.018 232.514 141.07 232.639C141.122 232.764 141.148 232.897 141.148 233.038V243.217ZM131.977 238.436H139.117V234.045H135.547C135.484 234.045 135.352 234.056 135.148 234.077C134.951 234.092 134.719 234.137 134.453 234.209C134.193 234.282 133.917 234.394 133.625 234.545C133.333 234.696 133.065 234.905 132.82 235.17C132.576 235.436 132.372 235.769 132.211 236.17C132.055 236.566 131.977 237.048 131.977 237.616V238.436ZM156.555 243.217H154.508V236.545L150.906 242.881C150.818 243.043 150.693 243.165 150.531 243.249C150.375 243.332 150.206 243.374 150.023 243.374C149.846 243.374 149.68 243.332 149.523 243.249C149.372 243.165 149.253 243.043 149.164 242.881L145.547 236.545V243.217H143.516V232.881C143.516 232.647 143.583 232.439 143.719 232.256C143.859 232.074 144.042 231.952 144.266 231.889C144.375 231.863 144.484 231.855 144.594 231.866C144.703 231.871 144.807 231.894 144.906 231.936C145.01 231.972 145.104 232.027 145.188 232.1C145.271 232.168 145.341 232.251 145.398 232.35L150.023 240.389L154.648 232.35C154.768 232.152 154.932 232.012 155.141 231.928C155.354 231.845 155.576 231.832 155.805 231.889C156.023 231.952 156.203 232.074 156.344 232.256C156.484 232.439 156.555 232.647 156.555 232.881V243.217ZM168.133 238.639H161.719V236.592H168.133V238.639ZM169.047 243.217H161.719C161.438 243.217 161.13 243.168 160.797 243.069C160.464 242.97 160.154 242.808 159.867 242.584C159.586 242.355 159.349 242.061 159.156 241.702C158.969 241.337 158.875 240.892 158.875 240.366V233.038C158.875 232.897 158.901 232.764 158.953 232.639C159.005 232.514 159.076 232.405 159.164 232.311C159.258 232.217 159.367 232.144 159.492 232.092C159.617 232.04 159.753 232.014 159.898 232.014H169.047V234.045H160.906V240.366C160.906 240.631 160.977 240.834 161.117 240.975C161.258 241.116 161.464 241.186 161.734 241.186H169.047V243.217ZM182.211 235.78C182.211 236.243 182.154 236.657 182.039 237.022C181.924 237.387 181.768 237.709 181.57 237.991C181.378 238.267 181.154 238.504 180.898 238.702C180.643 238.9 180.375 239.064 180.094 239.194C179.818 239.319 179.536 239.41 179.25 239.467C178.969 239.525 178.703 239.553 178.453 239.553L182.695 243.217H179.555L175.32 239.553H173.859V237.522H178.453C178.708 237.501 178.94 237.449 179.148 237.366C179.362 237.277 179.544 237.16 179.695 237.014C179.852 236.868 179.971 236.694 180.055 236.491C180.138 236.282 180.18 236.045 180.18 235.78V234.499C180.18 234.384 180.164 234.298 180.133 234.241C180.107 234.178 180.07 234.134 180.023 234.108C179.982 234.077 179.935 234.058 179.883 234.053C179.836 234.048 179.792 234.045 179.75 234.045H173.047V243.217H171.016V233.038C171.016 232.897 171.042 232.764 171.094 232.639C171.146 232.514 171.216 232.405 171.305 232.311C171.398 232.217 171.508 232.144 171.633 232.092C171.758 232.04 171.893 232.014 172.039 232.014H179.75C180.203 232.014 180.586 232.097 180.898 232.264C181.211 232.426 181.464 232.631 181.656 232.881C181.854 233.126 181.995 233.392 182.078 233.678C182.167 233.965 182.211 234.233 182.211 234.483V235.78ZM186.297 243.217H184.266V232.014H186.297V243.217ZM198.703 243.217H191.375C191.188 243.217 190.984 243.196 190.766 243.155C190.552 243.108 190.339 243.038 190.125 242.944C189.917 242.85 189.716 242.73 189.523 242.584C189.331 242.433 189.159 242.254 189.008 242.045C188.862 241.832 188.745 241.587 188.656 241.311C188.568 241.03 188.523 240.715 188.523 240.366V234.866C188.523 234.678 188.544 234.478 188.586 234.264C188.633 234.045 188.703 233.832 188.797 233.624C188.891 233.41 189.013 233.207 189.164 233.014C189.315 232.821 189.495 232.652 189.703 232.506C189.917 232.355 190.161 232.236 190.438 232.147C190.714 232.058 191.026 232.014 191.375 232.014H198.703V234.045H191.375C191.109 234.045 190.906 234.116 190.766 234.256C190.625 234.397 190.555 234.605 190.555 234.881V240.366C190.555 240.626 190.625 240.829 190.766 240.975C190.911 241.116 191.115 241.186 191.375 241.186H198.703V243.217ZM211.617 243.217H209.586V240.467H202.445V243.217H200.414V237.616C200.414 236.798 200.555 236.045 200.836 235.358C201.117 234.67 201.508 234.079 202.008 233.584C202.508 233.09 203.099 232.704 203.781 232.428C204.464 232.152 205.208 232.014 206.016 232.014H210.594C210.734 232.014 210.867 232.04 210.992 232.092C211.117 232.144 211.227 232.217 211.32 232.311C211.414 232.405 211.487 232.514 211.539 232.639C211.591 232.764 211.617 232.897 211.617 233.038V243.217ZM202.445 238.436H209.586V234.045H206.016C205.953 234.045 205.82 234.056 205.617 234.077C205.419 234.092 205.188 234.137 204.922 234.209C204.661 234.282 204.385 234.394 204.094 234.545C203.802 234.696 203.534 234.905 203.289 235.17C203.044 235.436 202.841 235.769 202.68 236.17C202.523 236.566 202.445 237.048 202.445 237.616V238.436Z" fill="white"/>
<!-- made by UXKM, K.S.Chu -->
</svg>
