<svg width="701" height="344" viewBox="0 0 701 344" fill="none" xmlns="http://www.w3.org/2000/svg">
<path d="M553.737 284.71L588.749 260.755L595.224 262.671L602.059 255.006L611.651 258.12L610.092 263.39L620.284 268.421L625.2 252.131L629.397 260.755L631.675 275.607L641.147 292.855L622.682 323.877H619.445L615.248 325.914L609.253 324.955L603.378 323.877V318.847L595.943 316.691L589.349 306.63L553.138 313.696L553.737 284.71Z" fill="#0F9757"/>
<path d="M607.095 237.279L601.099 227.217L611.651 233.326L615.248 231.409L619.445 232.368H625.2L639.828 242.429L636.351 244.944L642.226 255.006L630.356 246.741L619.445 243.747L607.095 237.279Z" fill="#0F9757"/>
<path d="M606.255 329.986H613.809L611.291 332.621L608.653 336.813L606.255 338.37V329.986Z" fill="#0F9757"/>
<path d="M650.62 337.532L665.608 331.304L655.056 343.281L643.905 344L650.62 337.532Z" fill="#0F9757"/>
<path d="M672.442 331.304L670.644 325.914H673.162L676.519 322.44L677.598 316.691L679.637 312.858V318.847L678.677 322.44H683.713L672.442 331.304Z" fill="#0F9757"/>
<path d="M567.075 292.527C567.075 293.21 566.958 293.837 566.724 294.41C566.489 294.983 566.164 295.478 565.747 295.895C565.33 296.311 564.836 296.637 564.263 296.871C563.695 297.1 563.075 297.215 562.403 297.215H559.653C558.981 297.215 558.359 297.1 557.786 296.871C557.213 296.637 556.718 296.311 556.302 295.895C555.885 295.478 555.557 294.983 555.317 294.41C555.083 293.837 554.966 293.21 554.966 292.527V290.387C554.966 289.71 555.083 289.085 555.317 288.512C555.557 287.934 555.885 287.439 556.302 287.027C556.718 286.611 557.213 286.285 557.786 286.051C558.359 285.816 558.981 285.699 559.653 285.699H562.403C563.075 285.699 563.695 285.816 564.263 286.051C564.836 286.285 565.33 286.611 565.747 287.027C566.164 287.439 566.489 287.934 566.724 288.512C566.958 289.085 567.075 289.71 567.075 290.387V292.527ZM565.044 290.387C565.044 289.986 564.979 289.624 564.849 289.301C564.724 288.973 564.544 288.694 564.31 288.465C564.08 288.23 563.802 288.051 563.474 287.926C563.151 287.796 562.794 287.73 562.403 287.73H559.653C559.257 287.73 558.896 287.796 558.567 287.926C558.244 288.051 557.966 288.23 557.731 288.465C557.497 288.694 557.315 288.973 557.185 289.301C557.06 289.624 556.997 289.986 556.997 290.387V292.527C556.997 292.928 557.06 293.293 557.185 293.621C557.315 293.944 557.497 294.223 557.731 294.457C557.966 294.686 558.244 294.866 558.567 294.996C558.896 295.121 559.257 295.184 559.653 295.184H562.388C562.784 295.184 563.143 295.121 563.466 294.996C563.794 294.866 564.075 294.686 564.31 294.457C564.544 294.223 564.724 293.944 564.849 293.621C564.979 293.293 565.044 292.928 565.044 292.527V290.387ZM579.114 297.059H571.786C571.599 297.059 571.396 297.038 571.177 296.996C570.963 296.949 570.75 296.879 570.536 296.785C570.328 296.691 570.127 296.572 569.935 296.426C569.742 296.275 569.57 296.095 569.419 295.887C569.273 295.673 569.156 295.428 569.067 295.152C568.979 294.871 568.935 294.556 568.935 294.207V288.707C568.935 288.52 568.955 288.319 568.997 288.105C569.044 287.887 569.114 287.673 569.208 287.465C569.302 287.251 569.424 287.048 569.575 286.855C569.726 286.663 569.906 286.493 570.114 286.348C570.328 286.197 570.573 286.077 570.849 285.988C571.125 285.9 571.437 285.855 571.786 285.855H579.114V287.887H571.786C571.521 287.887 571.317 287.957 571.177 288.098C571.036 288.238 570.966 288.447 570.966 288.723V294.207C570.966 294.467 571.036 294.671 571.177 294.816C571.323 294.957 571.526 295.027 571.786 295.027H579.114V297.059ZM590.247 292.48H583.833V290.434H590.247V292.48ZM591.161 297.059H583.833C583.552 297.059 583.244 297.009 582.911 296.91C582.578 296.811 582.268 296.65 581.981 296.426C581.7 296.197 581.463 295.902 581.271 295.543C581.083 295.178 580.989 294.733 580.989 294.207V286.879C580.989 286.738 581.015 286.605 581.067 286.48C581.119 286.355 581.19 286.246 581.278 286.152C581.372 286.059 581.481 285.986 581.606 285.934C581.731 285.882 581.867 285.855 582.013 285.855H591.161V287.887H583.021V294.207C583.021 294.473 583.091 294.676 583.231 294.816C583.372 294.957 583.578 295.027 583.849 295.027H591.161V297.059ZM604.122 297.059H602.091V294.309H594.95V297.059H592.919V291.457C592.919 290.639 593.06 289.887 593.341 289.199C593.622 288.512 594.013 287.921 594.513 287.426C595.013 286.931 595.604 286.546 596.286 286.27C596.968 285.993 597.713 285.855 598.521 285.855H603.099C603.239 285.855 603.372 285.882 603.497 285.934C603.622 285.986 603.731 286.059 603.825 286.152C603.919 286.246 603.992 286.355 604.044 286.48C604.096 286.605 604.122 286.738 604.122 286.879V297.059ZM594.95 292.277H602.091V287.887H598.521C598.458 287.887 598.325 287.897 598.122 287.918C597.924 287.934 597.692 287.978 597.427 288.051C597.166 288.124 596.89 288.236 596.599 288.387C596.307 288.538 596.039 288.746 595.794 289.012C595.549 289.277 595.346 289.611 595.185 290.012C595.028 290.408 594.95 290.889 594.95 291.457V292.277ZM617.685 296.191C617.685 296.337 617.656 296.473 617.599 296.598C617.547 296.723 617.474 296.832 617.38 296.926C617.291 297.014 617.185 297.085 617.06 297.137C616.935 297.189 616.802 297.215 616.661 297.215C616.536 297.215 616.409 297.191 616.278 297.145C616.153 297.098 616.041 297.022 615.942 296.918L608.521 289.168V297.059H606.489V286.723C606.489 286.514 606.547 286.327 606.661 286.16C606.781 285.988 606.932 285.861 607.114 285.777C607.307 285.699 607.505 285.681 607.708 285.723C607.911 285.759 608.086 285.853 608.231 286.004L615.653 293.746V285.855H617.685V296.191ZM622.099 297.059H620.067V285.855H622.099V297.059ZM635.466 297.059H633.435V294.309H626.294V297.059H624.263V291.457C624.263 290.639 624.403 289.887 624.685 289.199C624.966 288.512 625.356 287.921 625.856 287.426C626.356 286.931 626.948 286.546 627.63 286.27C628.312 285.993 629.057 285.855 629.864 285.855H634.442C634.583 285.855 634.716 285.882 634.841 285.934C634.966 285.986 635.075 286.059 635.169 286.152C635.263 286.246 635.336 286.355 635.388 286.48C635.44 286.605 635.466 286.738 635.466 286.879V297.059ZM626.294 292.277H633.435V287.887H629.864C629.802 287.887 629.669 287.897 629.466 287.918C629.268 287.934 629.036 287.978 628.771 288.051C628.51 288.124 628.234 288.236 627.942 288.387C627.651 288.538 627.382 288.746 627.138 289.012C626.893 289.277 626.69 289.611 626.528 290.012C626.372 290.408 626.294 290.889 626.294 291.457V292.277Z" fill="white"/>
<!-- made by UXKM, K.S.Chu -->
</svg>
