<svg width="701" height="344" viewBox="0 0 701 344" fill="none" xmlns="http://www.w3.org/2000/svg">
<path fill-rule="evenodd" clip-rule="evenodd" d="M376.162 116.381L356.215 117.147L354.937 105.396L362.353 103.097L364.399 96.9655L367.979 94.6663L380.766 95.9437L379.037 85.6407L388.27 73.7828L367.979 55.936L376.162 43.3183L367.979 29.1401L415.545 32.3334L421.939 22.1149H442.397L465.158 10.619L507.098 5.50977L555.24 22.1149L584.521 26.2023L611.949 22.1149L662.907 29.1401H678.438L700.5 35.6544L693.595 36.9317H675.055L672.369 41.0191L653.189 43.3183L657.814 49.1087L650.86 53.1811H643.426L640.275 57.4931L638.996 69.12L632.634 76.5975L617.407 87.9165L631.975 75.3442L635.032 69.12L632.634 65.1588L635.032 57.4931L640.275 50.4713H629.757L617.407 55.936L611.949 59.8886H602.419L591.627 70.5488L597.263 72.585L593.536 95.6882L583.562 105.14L588.357 121.203L583.115 124.172L580.43 120.724L578.448 112.549L572.822 109.483L560.035 107.184L567.707 122.512L578.448 134.774L571.031 151.89L557.989 158.021L541.111 162.875L556.455 182.801L544.179 194.041L535.484 181.524V191.998L544.691 209.114L529.091 194.041L526.79 168.751L519.117 172.838L507.098 153.678L484.849 175.137V189.188L476.666 194.041L465.158 155.977L460.043 158.021L448.279 146.27L429.355 144.737L413.607 139.883L403.618 131.994L398.667 130.437L413.607 146.27L421.663 143.793L429.355 149.722L415.545 158.705L389.469 168.646L388.27 158.705L376.162 139.883L372.802 130.437L374.481 128.641L376.162 116.381ZM522.442 203.494L544.179 214.223L547.76 222.909L546.225 231.339L522.442 203.494ZM561.314 232.872L547.76 233.894L555.24 235.171L572.822 238.684L561.314 232.872ZM555.24 208.731L562.464 223.803L575.187 225.91L579.726 198.704L575.187 195.83L564.638 208.731H555.24ZM579.726 233.894L580.366 217.289L595.838 211.285L588.357 221.504L590.148 230.317L584.521 222.909L579.726 233.894ZM591.17 194.041L594.815 202.089L597.883 197.49V190.529L596.157 190.848L593.344 193.658L591.17 194.041ZM584.905 174.243L596.157 185.356V185.739L593.344 188.166L584.905 184.781L581.069 178.33L583.69 170.73L585.992 165.877L584.905 174.243ZM594.815 125.322L604.097 122.512L609.853 112.549L608.113 101.436L611.949 98.4569L611.172 92.3482L605.296 96.5404L604.66 114.034L597.883 118.041L594.815 125.322ZM588.357 115.582V114.896H589.029V115.439L588.357 115.582ZM590.547 113.65L590.467 114.034L590.979 113.89L590.547 113.65ZM608.113 87.9165L605.296 94.624L604.66 73.7828L608.113 87.9165ZM585.152 124.172L583.562 125.322L583.115 127.084L585.152 126.605V124.172Z" fill="#EB9800"/>
<path d="M476.009 90.5044H473.978V87.7544H466.837V90.5044H464.806V84.9028C464.806 84.0851 464.946 83.3325 465.228 82.645C465.509 81.9575 465.899 81.3664 466.399 80.8716C466.899 80.3768 467.491 79.9914 468.173 79.7153C468.855 79.4393 469.6 79.3013 470.407 79.3013H474.985C475.126 79.3013 475.259 79.3273 475.384 79.3794C475.509 79.4315 475.618 79.5044 475.712 79.5981C475.806 79.6919 475.879 79.8013 475.931 79.9263C475.983 80.0513 476.009 80.1841 476.009 80.3247V90.5044ZM466.837 85.7231H473.978V81.3325H470.407C470.345 81.3325 470.212 81.3429 470.009 81.3638C469.811 81.3794 469.579 81.4237 469.313 81.4966C469.053 81.5695 468.777 81.6815 468.485 81.8325C468.194 81.9836 467.925 82.1919 467.681 82.4575C467.436 82.7231 467.233 83.0565 467.071 83.4575C466.915 83.8534 466.837 84.3351 466.837 84.9028V85.7231ZM489.142 87.2075C489.142 87.6086 489.09 87.9705 488.985 88.2935C488.886 88.6112 488.754 88.8924 488.587 89.1372C488.42 89.382 488.225 89.5903 488.001 89.7622C487.777 89.9341 487.545 90.0747 487.306 90.1841C487.066 90.2935 486.821 90.3742 486.571 90.4263C486.326 90.4784 486.095 90.5044 485.876 90.5044H478.04V88.4731H485.876C486.267 88.4731 486.569 88.3586 486.782 88.1294C487.001 87.9002 487.11 87.5929 487.11 87.2075C487.11 87.02 487.082 86.8481 487.024 86.6919C486.967 86.5356 486.884 86.4002 486.774 86.2856C486.67 86.1711 486.54 86.0825 486.384 86.02C486.233 85.9575 486.063 85.9263 485.876 85.9263H481.204C480.876 85.9263 480.522 85.869 480.142 85.7544C479.761 85.6346 479.407 85.4445 479.079 85.1841C478.756 84.9237 478.485 84.5825 478.267 84.1606C478.053 83.7388 477.946 83.2231 477.946 82.6138C477.946 82.0044 478.053 81.4914 478.267 81.0747C478.485 80.6528 478.756 80.3117 479.079 80.0513C479.407 79.7856 479.761 79.5955 480.142 79.481C480.522 79.3612 480.876 79.3013 481.204 79.3013H488.118V81.3325H481.204C480.819 81.3325 480.517 81.4497 480.298 81.6841C480.084 81.9185 479.978 82.2284 479.978 82.6138C479.978 83.0044 480.084 83.3143 480.298 83.5435C480.517 83.7674 480.819 83.8794 481.204 83.8794H485.876H485.892C486.11 83.8846 486.342 83.9159 486.587 83.9731C486.832 84.0252 487.074 84.1086 487.313 84.2231C487.558 84.3377 487.79 84.4836 488.009 84.6606C488.228 84.8325 488.42 85.0409 488.587 85.2856C488.759 85.5304 488.894 85.8117 488.993 86.1294C489.092 86.4471 489.142 86.8065 489.142 87.2075ZM492.876 90.5044H490.845V79.3013H492.876V90.5044ZM506.243 90.5044H504.212V87.7544H497.071V90.5044H495.04V84.9028C495.04 84.0851 495.181 83.3325 495.462 82.645C495.743 81.9575 496.134 81.3664 496.634 80.8716C497.134 80.3768 497.725 79.9914 498.407 79.7153C499.09 79.4393 499.834 79.3013 500.642 79.3013H505.22C505.36 79.3013 505.493 79.3273 505.618 79.3794C505.743 79.4315 505.853 79.5044 505.946 79.5981C506.04 79.6919 506.113 79.8013 506.165 79.9263C506.217 80.0513 506.243 80.1841 506.243 80.3247V90.5044ZM497.071 85.7231H504.212V81.3325H500.642C500.579 81.3325 500.446 81.3429 500.243 81.3638C500.045 81.3794 499.813 81.4237 499.548 81.4966C499.287 81.5695 499.011 81.6815 498.72 81.8325C498.428 81.9836 498.16 82.1919 497.915 82.4575C497.67 82.7231 497.467 83.0565 497.306 83.4575C497.149 83.8534 497.071 84.3351 497.071 84.9028V85.7231Z" fill="white"/>
<!-- made by UXKM, K.S.Chu -->
</svg>
