<svg width="701" height="344" viewBox="0 0 701 344" fill="none" xmlns="http://www.w3.org/2000/svg">
<path fill-rule="evenodd" clip-rule="evenodd" d="M374.378 128.751L356.974 126.005L347.022 122.173L338.149 125.047L319.205 118.34V108.997L282.034 113.069L256.854 145.888L259.253 186.373L282.994 192.841L315.368 189.248L319.684 216.317L327.118 234.524L319.684 247.22L336.231 290.34L357.574 291.058L370.044 274.769V265.186L372.682 247.939L386.351 238.596V212.724L410.572 172.719L391.147 175.593L365.248 130.916L373.19 131.527L372.802 130.437L374.378 128.751ZM408.653 235.721L395.224 268.78L389.708 255.365L393.545 245.064L408.653 235.721Z" fill="black"/>
<path d="M304.009 172H301.978V169.25H294.837V172H292.806V166.398C292.806 165.581 292.946 164.828 293.228 164.141C293.509 163.453 293.899 162.862 294.399 162.367C294.899 161.872 295.491 161.487 296.173 161.211C296.855 160.935 297.6 160.797 298.407 160.797H302.985C303.126 160.797 303.259 160.823 303.384 160.875C303.509 160.927 303.618 161 303.712 161.094C303.806 161.188 303.879 161.297 303.931 161.422C303.983 161.547 304.009 161.68 304.009 161.82V172ZM294.837 167.219H301.978V162.828H298.407C298.345 162.828 298.212 162.839 298.009 162.859C297.811 162.875 297.579 162.919 297.313 162.992C297.053 163.065 296.777 163.177 296.485 163.328C296.194 163.479 295.925 163.688 295.681 163.953C295.436 164.219 295.233 164.552 295.071 164.953C294.915 165.349 294.837 165.831 294.837 166.398V167.219ZM315.642 167.422H309.22V165.375H315.642V167.422ZM316.548 162.828H308.407V172H306.376V161.82C306.376 161.68 306.402 161.547 306.454 161.422C306.506 161.297 306.576 161.188 306.665 161.094C306.759 161 306.868 160.927 306.993 160.875C307.118 160.823 307.254 160.797 307.399 160.797H316.548V162.828ZM329.384 164.562C329.384 165.026 329.326 165.44 329.212 165.805C329.097 166.169 328.941 166.492 328.743 166.773C328.55 167.049 328.326 167.286 328.071 167.484C327.816 167.682 327.548 167.846 327.267 167.977C326.991 168.102 326.709 168.193 326.423 168.25C326.142 168.307 325.876 168.336 325.626 168.336L329.868 172H326.728L322.493 168.336H321.032V166.305H325.626C325.881 166.284 326.113 166.232 326.321 166.148C326.535 166.06 326.717 165.943 326.868 165.797C327.024 165.651 327.144 165.477 327.228 165.273C327.311 165.065 327.353 164.828 327.353 164.562V163.281C327.353 163.167 327.337 163.081 327.306 163.023C327.28 162.961 327.243 162.917 327.196 162.891C327.155 162.859 327.108 162.841 327.056 162.836C327.009 162.831 326.965 162.828 326.923 162.828H320.22V172H318.188V161.82C318.188 161.68 318.215 161.547 318.267 161.422C318.319 161.297 318.389 161.188 318.478 161.094C318.571 161 318.681 160.927 318.806 160.875C318.931 160.823 319.066 160.797 319.212 160.797H326.923C327.376 160.797 327.759 160.88 328.071 161.047C328.384 161.208 328.636 161.414 328.829 161.664C329.027 161.909 329.168 162.174 329.251 162.461C329.34 162.747 329.384 163.016 329.384 163.266V164.562ZM333.47 172H331.438V160.797H333.47V172ZM345.876 172H338.548C338.36 172 338.157 171.979 337.938 171.938C337.725 171.891 337.511 171.82 337.298 171.727C337.09 171.633 336.889 171.513 336.696 171.367C336.504 171.216 336.332 171.036 336.181 170.828C336.035 170.615 335.918 170.37 335.829 170.094C335.741 169.812 335.696 169.497 335.696 169.148V163.648C335.696 163.461 335.717 163.26 335.759 163.047C335.806 162.828 335.876 162.615 335.97 162.406C336.063 162.193 336.186 161.99 336.337 161.797C336.488 161.604 336.668 161.435 336.876 161.289C337.09 161.138 337.334 161.018 337.61 160.93C337.886 160.841 338.199 160.797 338.548 160.797H345.876V162.828H338.548C338.282 162.828 338.079 162.898 337.938 163.039C337.798 163.18 337.728 163.388 337.728 163.664V169.148C337.728 169.409 337.798 169.612 337.938 169.758C338.084 169.898 338.287 169.969 338.548 169.969H345.876V172ZM358.79 172H356.759V169.25H349.618V172H347.587V166.398C347.587 165.581 347.728 164.828 348.009 164.141C348.29 163.453 348.681 162.862 349.181 162.367C349.681 161.872 350.272 161.487 350.954 161.211C351.636 160.935 352.381 160.797 353.188 160.797H357.767C357.907 160.797 358.04 160.823 358.165 160.875C358.29 160.927 358.399 161 358.493 161.094C358.587 161.188 358.66 161.297 358.712 161.422C358.764 161.547 358.79 161.68 358.79 161.82V172ZM349.618 167.219H356.759V162.828H353.188C353.126 162.828 352.993 162.839 352.79 162.859C352.592 162.875 352.36 162.919 352.095 162.992C351.834 163.065 351.558 163.177 351.267 163.328C350.975 163.479 350.707 163.688 350.462 163.953C350.217 164.219 350.014 164.552 349.853 164.953C349.696 165.349 349.618 165.831 349.618 166.398V167.219Z" fill="white"/>
<!-- made by UXKM, K.S.Chu -->
</svg>
