<svg width="3724" height="307" viewBox="0 0 3724 307" fill="none" xmlns="http://www.w3.org/2000/svg">
<path d="M931 297C886.298 297 841.346 286.01 796.894 264.279C754.939 243.547 714.732 214.072 674.526 184.348C637.066 156.872 599.606 129.396 564.144 111.911C531.18 95.6754 498.215 87.6823 465.5 87.6823C432.785 87.6823 399.821 95.6754 366.856 111.911C331.394 129.396 293.934 156.872 256.475 184.348C216.268 213.822 176.061 243.547 134.106 264.279C89.404 286.259 44.702 297 0 297V219.068C32.7149 219.068 65.6795 211.075 98.6441 194.839C134.106 177.354 171.566 149.878 209.025 122.402C249.232 92.9278 289.439 63.2036 331.394 42.7215C376.096 20.7406 420.798 10 465.5 10C510.202 10 555.154 20.9904 599.606 42.7215C641.561 63.4534 681.768 92.9278 721.975 122.402C759.434 149.878 796.894 177.354 832.356 194.839C865.32 211.075 898.285 219.068 931 219.068C963.715 219.068 996.679 211.075 1029.64 194.839C1065.11 177.354 1102.57 149.878 1140.03 122.402C1180.23 92.9278 1220.44 63.2036 1262.39 42.7215C1307.1 20.7406 1351.8 10 1396.5 10C1441.2 10 1485.9 20.9904 1530.61 42.7215C1572.56 63.4534 1612.77 92.9278 1652.97 122.402C1690.43 149.878 1727.89 177.354 1763.36 194.839C1796.32 211.075 1829.29 219.068 1862 219.068C1894.72 219.068 1927.68 211.075 1960.64 194.839C1996.11 177.354 2033.57 149.878 2071.03 122.402C2111.23 92.9278 2151.44 63.2036 2193.39 42.7215C2238.1 20.7406 2282.8 10 2327.5 10C2372.2 10 2416.9 20.9904 2461.61 42.7215C2503.56 63.4534 2543.77 92.9278 2583.97 122.402C2621.43 149.878 2658.89 177.354 2694.36 194.839C2727.32 211.075 2760.29 219.068 2793 219.068C2825.72 219.068 2858.68 211.075 2891.64 194.839C2927.11 177.354 2964.57 149.878 3002.03 122.402C3042.23 92.9278 3082.44 63.2036 3124.39 42.7215C3169.1 20.7406 3213.8 10 3258.5 10C3303.2 10 3348.15 20.9904 3392.61 42.7215C3434.56 63.4534 3474.77 92.9278 3514.97 122.402C3552.43 149.878 3589.89 177.354 3625.36 194.839C3658.32 211.075 3691.29 219.068 3724 219.068V297C3679.3 297 3634.35 286.01 3589.89 264.279C3547.94 243.547 3507.73 214.072 3467.53 184.348C3430.07 156.872 3392.61 129.396 3357.14 111.911C3324.18 95.6754 3291.21 87.6823 3258.5 87.6823C3225.79 87.6823 3192.82 95.6754 3159.86 111.911C3124.39 129.396 3086.93 156.872 3049.47 184.348C3009.27 213.822 2969.06 243.547 2927.11 264.279C2882.4 286.259 2837.7 297 2793 297C2748.3 297 2703.35 286.01 2658.89 264.279C2616.94 243.547 2576.73 214.072 2536.53 184.348C2499.07 156.872 2461.61 129.396 2426.14 111.911C2393.18 95.6754 2360.21 87.6823 2327.5 87.6823C2294.79 87.6823 2261.82 95.6754 2228.86 111.911C2193.39 129.396 2155.93 156.872 2118.47 184.348C2078.27 213.822 2038.06 243.547 1996.11 264.279C1951.4 286.259 1906.7 297 1862 297C1817.3 297 1772.35 286.01 1727.89 264.279C1685.94 243.547 1645.73 214.072 1605.53 184.348C1568.07 156.872 1530.61 129.396 1495.14 111.911C1462.18 95.6754 1429.21 87.6823 1396.5 87.6823C1363.79 87.6823 1330.82 95.6754 1297.86 111.911C1262.39 129.396 1224.93 156.872 1187.47 184.348C1147.27 213.822 1107.06 243.547 1065.11 264.279C1020.4 286.259 975.702 297 931 297Z" fill="white"/>
<path fill-rule="evenodd" clip-rule="evenodd" d="M792.483 273.253L792.464 273.244C749.582 252.054 708.675 222.03 668.596 192.401C630.938 164.779 594.234 137.897 559.722 120.88C527.991 105.253 496.531 97.6823 465.5 97.6823C434.469 97.6823 403.009 105.253 371.278 120.88C336.762 137.899 300.053 164.786 262.389 192.412L262.387 192.413L260.816 193.565L259.207 194.745C220.198 223.348 180.29 252.611 138.536 273.244L138.527 273.248L138.519 273.252C92.5683 295.847 46.3652 307 0 307V297C3.33333 297 6.66667 296.94 10 296.821C51.3687 295.336 92.7373 284.62 134.106 264.279C175.065 244.039 214.358 215.229 253.611 186.448L253.611 186.448L256.475 184.348C293.935 156.872 331.394 129.396 366.856 111.911C399.821 95.6754 432.785 87.6823 465.5 87.6823C498.215 87.6823 531.18 95.6754 564.144 111.911C599.606 129.396 637.065 156.872 674.525 184.348L674.526 184.348C714.732 214.072 754.939 243.547 796.894 264.279C841.346 286.01 886.298 297 931 297C975.702 297 1020.4 286.259 1065.11 264.279C1106.07 244.039 1145.36 215.228 1184.61 186.447L1187.47 184.348C1224.93 156.872 1262.39 129.396 1297.86 111.911C1330.82 95.6754 1363.79 87.6823 1396.5 87.6823C1429.21 87.6823 1462.18 95.6754 1495.14 111.911C1530.61 129.396 1568.07 156.872 1605.53 184.348C1645.73 214.072 1685.94 243.547 1727.89 264.279C1772.35 286.01 1817.3 297 1862 297C1906.7 297 1951.4 286.259 1996.11 264.279C2037.07 244.039 2076.36 215.228 2115.61 186.447L2118.47 184.348C2155.93 156.872 2193.39 129.396 2228.86 111.911C2261.82 95.6754 2294.79 87.6823 2327.5 87.6823C2360.21 87.6823 2393.18 95.6754 2426.14 111.911C2461.61 129.396 2499.06 156.871 2536.53 184.348C2576.73 214.072 2616.94 243.547 2658.89 264.279C2703.35 286.01 2748.3 297 2793 297C2837.7 297 2882.4 286.259 2927.11 264.279C2968.06 244.039 3007.36 215.23 3046.61 186.449L3049.47 184.348C3086.93 156.872 3124.39 129.396 3159.86 111.911C3192.82 95.6754 3225.79 87.6823 3258.5 87.6823C3291.21 87.6823 3324.18 95.6754 3357.14 111.911C3392.61 129.396 3430.07 156.872 3467.53 184.348C3507.73 214.072 3547.94 243.547 3589.89 264.279C3631.03 284.39 3672.6 295.302 3714 296.817C3717.33 296.939 3720.67 297 3724 297V307C3677.61 307 3631.17 295.587 3585.5 273.262L3585.48 273.253L3585.46 273.244C3542.58 252.054 3501.67 222.03 3461.6 192.401C3423.94 164.779 3387.23 137.897 3352.72 120.88C3320.99 105.253 3289.53 97.6823 3258.5 97.6823C3227.47 97.6823 3196.01 105.253 3164.27 120.882C3129.76 137.901 3093.05 164.787 3055.39 192.412L3055.39 192.413L3052.21 194.744C3013.2 223.348 2973.29 252.611 2931.54 273.244L2931.53 273.248L2931.52 273.252C2885.57 295.847 2839.37 307 2793 307C2746.61 307 2700.17 295.587 2654.5 273.262L2654.48 273.253L2654.46 273.244C2611.58 252.054 2570.68 222.03 2530.6 192.401C2492.94 164.78 2456.24 137.899 2421.73 120.882C2389.99 105.253 2358.53 97.6823 2327.5 97.6823C2296.47 97.6823 2265.01 105.253 2233.28 120.88C2198.76 137.899 2162.05 164.786 2124.39 192.412L2124.39 192.413L2121.21 194.744C2082.2 223.347 2042.29 252.611 2000.54 273.244L2000.53 273.248L2000.52 273.252C1954.57 295.847 1908.37 307 1862 307C1815.61 307 1769.17 295.588 1723.5 273.262L1723.48 273.253L1723.46 273.244C1680.58 252.054 1639.67 222.03 1599.6 192.401C1561.94 164.779 1525.23 137.897 1490.72 120.88C1458.99 105.253 1427.53 97.6823 1396.5 97.6823C1365.47 97.6823 1334.01 105.253 1302.28 120.88C1267.76 137.899 1231.05 164.786 1193.39 192.412L1193.39 192.413L1190.21 194.744C1151.2 223.348 1111.29 252.611 1069.54 273.244L1069.53 273.248L1069.52 273.252C1023.57 295.847 977.365 307 931 307C884.615 307 838.169 295.587 792.502 273.262L792.483 273.253ZM3724 209.068C3692.97 209.068 3661.51 201.497 3629.78 185.87C3595.26 168.851 3558.55 141.964 3520.89 114.339L3520.89 114.337L3520.49 114.048L3520.49 114.046C3480.56 84.7761 3439.77 54.874 3397.04 33.7563L3397.02 33.7469L3397 33.7375C3351.33 11.4125 3304.89 0 3258.5 0C3212.14 0 3165.95 11.1489 3120.01 33.7352C3078.21 54.1413 3038.26 83.431 2999.24 112.043L2999.24 112.044L2996.11 114.337L2996.11 114.339C2958.45 141.964 2921.74 168.851 2887.22 185.87C2855.49 201.497 2824.03 209.068 2793 209.068C2761.97 209.068 2730.51 201.497 2698.78 185.87C2664.26 168.851 2627.55 141.964 2589.89 114.339L2589.89 114.337L2589.49 114.046L2589.49 114.044C2549.56 84.7751 2508.77 54.8737 2466.04 33.7563L2466.01 33.742L2465.98 33.7279C2420.08 11.4177 2373.9 0 2327.5 0C2281.14 0 2234.93 11.153 2188.98 33.7477C2147.19 54.1544 2107.25 83.4399 2068.24 112.047L2065.11 114.337L2065.11 114.339C2027.45 141.963 1990.74 168.849 1956.23 185.868C1924.49 201.497 1893.03 209.068 1862 209.068C1830.97 209.068 1799.51 201.497 1767.77 185.868C1733.26 168.849 1696.55 141.963 1658.89 114.339L1658.89 114.337L1658.49 114.047C1618.56 84.777 1577.77 54.8743 1535.04 33.7563L1535.01 33.742L1534.98 33.7279C1489.08 11.4177 1442.9 0 1396.5 0C1350.14 0 1303.94 11.1504 1258 33.7399C1216.2 54.1464 1176.26 83.4348 1137.24 112.045L1134.11 114.337L1134.11 114.339C1096.45 141.963 1059.74 168.849 1025.23 185.868C993.494 201.497 962.032 209.068 931 209.068C899.969 209.068 868.509 201.497 836.778 185.87C802.262 168.851 765.553 141.964 727.889 114.339L727.887 114.337L727.491 114.047C687.563 84.7769 646.772 54.8743 604.036 33.7563L604.017 33.7469L603.998 33.7375C558.331 11.4125 511.885 0 465.5 0C419.14 0 372.942 11.1505 326.997 33.74C285.2 54.1466 245.257 83.4353 206.238 112.046C205.196 112.81 204.154 113.574 203.113 114.337L203.111 114.339C165.447 141.964 128.738 168.851 94.2218 185.87C62.4911 201.497 31.0307 209.068 0 209.068V219.068C32.7149 219.068 65.6795 211.075 98.6441 194.839C134.106 177.354 171.566 149.878 209.025 122.402L211.822 120.351L211.823 120.351C251.098 91.5541 290.412 62.7287 331.394 42.7215C376.096 20.7406 420.798 10 465.5 10C510.202 10 555.154 20.9904 599.606 42.7215C641.561 63.4534 681.768 92.9278 721.975 122.402L721.975 122.403C759.435 149.879 796.894 177.354 832.356 194.839C865.32 211.075 898.285 219.068 931 219.068C963.715 219.068 996.679 211.075 1029.64 194.839C1065.11 177.354 1102.57 149.878 1140.03 122.402L1142.82 120.351L1142.82 120.35C1182.1 91.5533 1221.41 62.7284 1262.39 42.7215C1307.1 20.7406 1351.8 10 1396.5 10C1441.2 10 1485.9 20.9904 1530.61 42.7215C1572.56 63.4532 1612.77 92.9271 1652.97 122.401L1652.98 122.403C1690.44 149.88 1727.9 177.355 1763.36 194.839C1796.32 211.075 1829.29 219.068 1862 219.068C1894.72 219.068 1927.68 211.075 1960.64 194.839C1996.11 177.354 2033.57 149.878 2071.03 122.402L2073.82 120.353C2113.1 91.5552 2152.41 62.729 2193.39 42.7215C2238.1 20.7406 2282.8 10 2327.5 10C2372.2 10 2416.9 20.9904 2461.61 42.7215C2503.56 63.4534 2543.77 92.9278 2583.97 122.402C2621.44 149.879 2658.9 177.355 2694.36 194.839C2727.32 211.075 2760.29 219.068 2793 219.068C2825.72 219.068 2858.68 211.075 2891.64 194.839C2927.11 177.354 2964.57 149.878 3002.03 122.402L3004.82 120.35C3044.1 91.5534 3083.41 62.7284 3124.39 42.7215C3169.1 20.7406 3213.8 10 3258.5 10C3303.2 10 3348.15 20.9904 3392.61 42.7215C3434.56 63.4534 3474.77 92.9278 3514.97 122.402C3552.43 149.878 3589.89 177.354 3625.36 194.839C3658.32 211.075 3691.29 219.068 3724 219.068V209.068Z" fill="black"/>
</svg>
